999
dxfrw 0.6.3
  0
SECTION
  2
HEADER
  9
$ACADVER
  1
AC1021
  9
$DWGCODEPAGE
  3
ANSI_1252
  9
$INSBASE
 10
0
 20
0
 30
0
  9
$EXTMIN
 10
-7.356702873466052
 20
-332.8588404353025
 30
0
  9
$EXTMAX
 10
353.30580588247
 20
225.201164871895
 30
0
  9
$LIMMIN
 10
0
 20
0
  9
$LIMMAX
 10
420
 20
297
  9
$ORTHOMODE
 70
    0
  9
$REGENMODE
 70
    1
  9
$FILLMODE
 70
    1
  9
$QTEXTMODE
 70
    0
  9
$MIRRTEXT
 70
    0
  9
$LTSCALE
 40
1
  9
$ATTMODE
 70
    0
  9
$TEXTSIZE
 40
2.5
  9
$TRACEWID
 40
15.68
  9
$TEXTSTYLE
  7
STANDARD
  9
$CLAYER
  8
0
  9
$CELTYPE
  6
BYLAYER
  9
$CECOLOR
 62
  256
  9
$CELTSCALE
 40
1
  9
$DISPSILH
 70
    0
  9
$DIMSCALE
 40
1
  9
$DIMASZ
 40
2.5
  9
$DIMEXO
 40
0.625
  9
$DIMDLI
 40
3.75
  9
$DIMRND
 40
0
  9
$DIMDLE
 40
0
  9
$DIMEXE
 40
1.25
  9
$DIMTP
 40
0
  9
$DIMTM
 40
0
  9
$DIMTXT
 40
2.5
  9
$DIMCEN
 40
2.5
  9
$DIMTSZ
 40
0
  9
$DIMTOL
 70
    0
  9
$DIMLIM
 70
    0
  9
$DIMTIH
 70
    0
  9
$DIMTOH
 70
    0
  9
$DIMSE1
 70
    0
  9
$DIMSE2
 70
    0
  9
$DIMTAD
 70
    1
  9
$DIMZIN
 70
    8
  9
$DIMBLK
  1

  9
$DIMASO
 70
    1
  9
$DIMSHO
 70
    1
  9
$DIMPOST
  1

  9
$DIMAPOST
  1

  9
$DIMALT
 70
    0
  9
$DIMALTD
 70
    3
  9
$DIMALTF
 40
0.03937
  9
$DIMLFAC
 40
1
  9
$DIMTOFL
 70
    1
  9
$DIMTVP
 40
0
  9
$DIMTIX
 70
    0
  9
$DIMSOXD
 70
    0
  9
$DIMSAH
 70
    0
  9
$DIMBLK1
  1

  9
$DIMBLK2
  1

  9
$DIMSTYLE
  2
STANDARD
  9
$DIMCLRD
 70
    0
  9
$DIMCLRE
 70
    0
  9
$DIMCLRT
 70
    0
  9
$DIMTFAC
 40
1
  9
$DIMGAP
 40
0.625
  9
$DIMJUST
 70
    0
  9
$DIMSD1
 70
    0
  9
$DIMSD2
 70
    0
  9
$DIMTOLJ
 70
    0
  9
$DIMTZIN
 70
    8
  9
$DIMALTZ
 70
    0
  9
$DIMALTTZ
 70
    0
  9
$DIMUPT
 70
    0
  9
$DIMDEC
 70
    2
  9
$DIMTDEC
 70
    2
  9
$DIMALTU
 70
    2
  9
$DIMALTTD
 70
    3
  9
$DIMTXSTY
  7
standard
  9
$DIMAUNIT
 70
    0
  9
$DIMADEC
 70
    0
  9
$DIMALTRND
 40
0
  9
$DIMAZIN
 70
    0
  9
$DIMDSEP
 70
   44
  9
$DIMATFIT
 70
    3
  9
$DIMFRAC
 70
    0
  9
$DIMLDRBLK
  1
STANDARD
  9
$DIMLUNIT
 70
    2
  9
$DIMLWD
 70
   -2
  9
$DIMLWE
 70
   -2
  9
$DIMTMOVE
 70
    0
  9
$DIMFXL
 40
1
  9
$DIMFXLON
 70
    0
  9
$DIMJOGANG
 40
0.7854
  9
$DIMTFILL
 70
    0
  9
$DIMTFILLCLR
 70
    0
  9
$DIMARCSYM
 70
    0
  9
$DIMLTYPE
  6

  9
$DIMLTEX1
  6

  9
$DIMLTEX2
  6

  9
$LUNITS
 70
    2
  9
$LUPREC
 70
    4
  9
$SKETCHINC
 40
1
  9
$FILLETRAD
 40
0
  9
$AUNITS
 70
    0
  9
$AUPREC
 70
    2
  9
$MENU
  1
.
  9
$ELEVATION
 40
0
  9
$PELEVATION
 40
0
  9
$THICKNESS
 40
0
  9
$LIMCHECK
 70
    0
  9
$CHAMFERA
 40
0
  9
$CHAMFERB
 40
0
  9
$CHAMFERC
 40
0
  9
$CHAMFERD
 40
0
  9
$SKPOLY
 70
    0
  9
$USRTIMER
 70
    1
  9
$ANGBASE
 50
0
  9
$ANGDIR
 70
    0
  9
$PDMODE
 70
   34
  9
$PDSIZE
 40
0
  9
$PLINEWID
 40
0
  9
$SPLFRAME
 70
    0
  9
$SPLINETYPE
 70
    2
  9
$SPLINESEGS
 70
    8
  9
$HANDSEED
  5
20000
  9
$SURFTAB1
 70
    6
  9
$SURFTAB2
 70
    6
  9
$SURFTYPE
 70
    6
  9
$SURFU
 70
    6
  9
$SURFV
 70
    6
  9
$UCSBASE
  2

  9
$UCSNAME
  2

  9
$UCSORG
 10
0
 20
0
 30
0
  9
$UCSXDIR
 10
1
 20
0
 30
0
  9
$UCSYDIR
 10
0
 20
1
 30
0
  9
$UCSORTHOREF
  2

  9
$UCSORTHOVIEW
 70
    0
  9
$UCSORGTOP
 10
0
 20
0
 30
0
  9
$UCSORGBOTTOM
 10
0
 20
0
 30
0
  9
$UCSORGLEFT
 10
0
 20
0
 30
0
  9
$UCSORGRIGHT
 10
0
 20
0
 30
0
  9
$UCSORGFRONT
 10
0
 20
0
 30
0
  9
$UCSORGBACK
 10
0
 20
0
 30
0
  9
$PUCSBASE
  2

  9
$PUCSNAME
  2

  9
$PUCSORG
 10
0
 20
0
 30
0
  9
$PUCSXDIR
 10
1
 20
0
 30
0
  9
$PUCSYDIR
 10
0
 20
1
 30
0
  9
$PUCSORTHOREF
  2

  9
$PUCSORTHOVIEW
 70
    0
  9
$PUCSORGTOP
 10
0
 20
0
 30
0
  9
$PUCSORGBOTTOM
 10
0
 20
0
 30
0
  9
$PUCSORGLEFT
 10
0
 20
0
 30
0
  9
$PUCSORGRIGHT
 10
0
 20
0
 30
0
  9
$PUCSORGFRONT
 10
0
 20
0
 30
0
  9
$PUCSORGBACK
 10
0
 20
0
 30
0
  9
$USERI1
 70
    0
  9
$USERI2
 70
    0
  9
$USERI3
 70
    0
  9
$USERI4
 70
    0
  9
$USERI5
 70
    0
  9
$USERR1
 40
0
  9
$USERR2
 40
0
  9
$USERR3
 40
0
  9
$USERR4
 40
0
  9
$USERR5
 40
0
  9
$WORLDVIEW
 70
    1
  9
$SHADEDGE
 70
    3
  9
$SHADEDIF
 70
   70
  9
$TILEMODE
 70
    1
  9
$MAXACTVP
 70
   64
  9
$PINSBASE
 10
0
 20
0
 30
0
  9
$PLIMCHECK
 70
    0
  9
$PEXTMIN
 10
0
 20
0
 30
0
  9
$PEXTMAX
 10
0
 20
0
 30
0
  9
$GRIDMODE
 70
    1
  9
$SNAPSTYLE
 70
    0
  9
$GRIDUNIT
 10
0
 20
0
  9
$PLIMMIN
 10
0
 20
0
  9
$PLIMMAX
 10
210
 20
297
  9
$UNITMODE
 70
    0
  9
$VISRETAIN
 70
    1
  9
$PLINEGEN
 70
    0
  9
$PSLTSCALE
 70
    1
  9
$TREEDEPTH
 70
 3020
  9
$CMLSTYLE
  2
Standard
  9
$CMLJUST
 70
    0
  9
$CMLSCALE
 40
20
  9
$PROXYGRAPHICS
 70
    1
  9
$MEASUREMENT
 70
    1
  9
$CELWEIGHT
370
   -1
  9
$ENDCAPS
280
    0
  9
$JOINSTYLE
280
    0
  9
$LWDISPLAY
290
    0
  9
$INSUNITS
 70
    4
  9
$HYPERLINKBASE
  1

  9
$STYLESHEET
  1

  9
$XEDIT
290
    1
  9
$CEPSNTYPE
380
    0
  9
$PSTYLEMODE
290
    1
  9
$EXTNAMES
290
    1
  9
$PSVPSCALE
 40
1
  9
$OLESTARTUP
290
    0
  9
$SORTENTS
280
  127
  9
$INDEXCTL
280
    0
  9
$HIDETEXT
280
    1
  9
$XCLIPFRAME
290
    0
  9
$HALOGAP
280
    0
  9
$OBSCOLOR
 70
  257
  9
$OBSLTYPE
280
    0
  9
$INTERSECTIONDISPLAY
280
    0
  9
$INTERSECTIONCOLOR
 70
  257
  9
$DIMASSOC
280
    1
  9
$PROJECTNAME
  1

  9
$CAMERADISPLAY
290
    0
  9
$LENSLENGTH
 40
50
  9
$CAMERAHEIGHT
 40
0
  9
$STEPSPERSEC
 40
2
  9
$STEPSIZE
 40
50
  9
$3DDWFPREC
 40
2
  9
$PSOLWIDTH
 40
5
  9
$PSOLHEIGHT
 40
80
  9
$LOFTANG1
 40
1.570796326794897
  9
$LOFTANG2
 40
1.570796326794897
  9
$LOFTMAG1
 40
0
  9
$LOFTMAG2
 40
0
  9
$LOFTPARAM
 70
    7
  9
$LOFTNORMALS
280
    1
  9
$LATITUDE
 40
1
  9
$LONGITUDE
 40
1
  9
$NORTHDIRECTION
 40
0
  9
$TIMEZONE
 70
-8000
  9
$LIGHTGLYPHDISPLAY
280
    1
  9
$TILEMODELIGHTSYNCH
280
    1
  9
$SOLIDHIST
280
    1
  9
$SHOWHIST
280
    1
  9
$DWFFRAME
280
    2
  9
$DGNFRAME
280
    0
  9
$REALWORLDSCALE
290
    1
  9
$INTERFERECOLOR
 62
    1
  9
$CSHADOW
280
    0
  9
$SHADOWPLANELOCATION
 40
0
  0
ENDSEC
  0
SECTION
  2
CLASSES
  0
ENDSEC
  0
SECTION
  2
TABLES
  0
TABLE
  2
VPORT
  5
8
330
0
100
AcDbSymbolTable
 70
    1
  0
VPORT
  5
31
330
2
100
AcDbSymbolTableRecord
100
AcDbViewportTableRecord
  2
*ACTIVE
 70
    0
 10
0
 20
0
 11
1
 21
1
 12
45.66804059186601
 22
12.73485931933178
 13
0
 23
0
 14
10
 24
10
 15
10
 25
10
 16
0
 26
0
 36
1
 17
0
 27
0
 37
0
 40
95.56363694137904
 41
1.186237028945931
 42
50
 43
0
 44
0
 50
0
 51
0
 71
    0
 72
  100
 73
    1
 74
    3
 75
    0
 76
    1
 77
    0
 78
    0
281
    0
 65
    1
110
0
120
0
130
0
111
1
121
0
131
0
112
0
122
1
132
0
 79
    0
146
0
348
10020
 60
    7
 61
    5
292
1
282
    1
141
0
142
0
 63
  250
421
3358443
  0
ENDTAB
  0
TABLE
  2
LTYPE
  5
5
330
0
100
AcDbSymbolTable
 70
    4
  0
LTYPE
  5
14
330
5
100
AcDbSymbolTableRecord
100
AcDbLinetypeTableRecord
  2
ByBlock
 70
    0
  3

 72
   65
 73
    0
 40
0
  0
LTYPE
  5
15
330
5
100
AcDbSymbolTableRecord
100
AcDbLinetypeTableRecord
  2
ByLayer
 70
    0
  3

 72
   65
 73
    0
 40
0
  0
LTYPE
  5
16
330
5
100
AcDbSymbolTableRecord
100
AcDbLinetypeTableRecord
  2
Continuous
 70
    0
  3
Solid line
 72
   65
 73
    0
 40
0
  0
LTYPE
  5
32
330
5
100
AcDbSymbolTableRecord
100
AcDbLinetypeTableRecord
  2
DOT
 70
    0
  3
Dot . . . . . . . . . . . . . . . . . . . . . .
 72
   65
 73
    2
 40
6.35
 49
0
 74
    0
 49
-6.35
 74
    0
  0
LTYPE
  5
33
330
5
100
AcDbSymbolTableRecord
100
AcDbLinetypeTableRecord
  2
DOTTINY
 70
    0
  3
Dot (.15x) .....................................
 72
   65
 73
    2
 40
0.9525
 49
0
 74
    0
 49
-0.9525
 74
    0
  0
LTYPE
  5
34
330
5
100
AcDbSymbolTableRecord
100
AcDbLinetypeTableRecord
  2
DOT2
 70
    0
  3
Dot (.5x) .....................................
 72
   65
 73
    2
 40
3.175
 49
0
 74
    0
 49
-3.175
 74
    0
  0
LTYPE
  5
35
330
5
100
AcDbSymbolTableRecord
100
AcDbLinetypeTableRecord
  2
DOTX2
 70
    0
  3
Dot (2x) .  .  .  .  .  .  .  .  .  .  .  .  .
 72
   65
 73
    2
 40
12.7
 49
0
 74
    0
 49
-12.7
 74
    0
  0
LTYPE
  5
36
330
5
100
AcDbSymbolTableRecord
100
AcDbLinetypeTableRecord
  2
DASHED
 70
    0
  3
Dashed _ _ _ _ _ _ _ _ _ _ _ _ _ _ _ _ _
 72
   65
 73
    2
 40
19.05
 49
12.7
 74
    0
 49
-6.35
 74
    0
  0
LTYPE
  5
37
330
5
100
AcDbSymbolTableRecord
100
AcDbLinetypeTableRecord
  2
DASHEDTINY
 70
    0
  3
Dashed (.15x) _ _ _ _ _ _ _ _ _ _ _ _ _ _ _ _ _
 72
   65
 73
    2
 40
2.8575
 49
1.905
 74
    0
 49
-0.9525
 74
    0
  0
LTYPE
  5
38
330
5
100
AcDbSymbolTableRecord
100
AcDbLinetypeTableRecord
  2
DASHED2
 70
    0
  3
Dashed (.5x) _ _ _ _ _ _ _ _ _ _ _ _ _ _ _ _ _
 72
   65
 73
    2
 40
9.524999999999999
 49
6.35
 74
    0
 49
-3.175
 74
    0
  0
LTYPE
  5
39
330
5
100
AcDbSymbolTableRecord
100
AcDbLinetypeTableRecord
  2
DASHEDX2
 70
    0
  3
Dashed (2x) ____  ____  ____  ____  ____  ___
 72
   65
 73
    2
 40
38.09999999999999
 49
25.4
 74
    0
 49
-12.7
 74
    0
  0
LTYPE
  5
3A
330
5
100
AcDbSymbolTableRecord
100
AcDbLinetypeTableRecord
  2
DASHDOT
 70
    0
  3
Dash dot __ . __ . __ . __ . __ . __ . __ . __
 72
   65
 73
    4
 40
25.4
 49
12.7
 74
    0
 49
-6.35
 74
    0
 49
0
 74
    0
 49
-6.35
 74
    0
  0
LTYPE
  5
3B
330
5
100
AcDbSymbolTableRecord
100
AcDbLinetypeTableRecord
  2
DASHDOTTINY
 70
    0
  3
Dash dot (.15x) _._._._._._._._._._._._._._._.
 72
   65
 73
    4
 40
3.81
 49
1.905
 74
    0
 49
-0.9525
 74
    0
 49
0
 74
    0
 49
-0.9525
 74
    0
  0
LTYPE
  5
3C
330
5
100
AcDbSymbolTableRecord
100
AcDbLinetypeTableRecord
  2
DASHDOT2
 70
    0
  3
Dash dot (.5x) _._._._._._._._._._._._._._._.
 72
   65
 73
    4
 40
12.7
 49
6.35
 74
    0
 49
-3.175
 74
    0
 49
0
 74
    0
 49
-3.175
 74
    0
  0
LTYPE
  5
3D
330
5
100
AcDbSymbolTableRecord
100
AcDbLinetypeTableRecord
  2
DASHDOTX2
 70
    0
  3
Dash dot (2x) ____  .  ____  .  ____  .  ___
 72
   65
 73
    4
 40
50.8
 49
25.4
 74
    0
 49
-12.7
 74
    0
 49
0
 74
    0
 49
-12.7
 74
    0
  0
LTYPE
  5
3E
330
5
100
AcDbSymbolTableRecord
100
AcDbLinetypeTableRecord
  2
DIVIDE
 70
    0
  3
Divide ____ . . ____ . . ____ . . ____ . . ____
 72
   65
 73
    6
 40
31.75
 49
12.7
 74
    0
 49
-6.35
 74
    0
 49
0
 74
    0
 49
-6.35
 74
    0
 49
0
 74
    0
 49
-6.35
 74
    0
  0
LTYPE
  5
3F
330
5
100
AcDbSymbolTableRecord
100
AcDbLinetypeTableRecord
  2
DIVIDETINY
 70
    0
  3
Divide (.15x) __..__..__..__..__..__..__..__.._
 72
   65
 73
    6
 40
4.7625
 49
1.905
 74
    0
 49
-0.9525
 74
    0
 49
0
 74
    0
 49
-0.9525
 74
    0
 49
0
 74
    0
 49
-0.9525
 74
    0
  0
LTYPE
  5
40
330
5
100
AcDbSymbolTableRecord
100
AcDbLinetypeTableRecord
  2
DIVIDE2
 70
    0
  3
Divide (.5x) __..__..__..__..__..__..__..__.._
 72
   65
 73
    6
 40
15.875
 49
6.35
 74
    0
 49
-3.175
 74
    0
 49
0
 74
    0
 49
-3.175
 74
    0
 49
0
 74
    0
 49
-3.175
 74
    0
  0
LTYPE
  5
41
330
5
100
AcDbSymbolTableRecord
100
AcDbLinetypeTableRecord
  2
DIVIDEX2
 70
    0
  3
Divide (2x) ________  .  .  ________  .  .  _
 72
   65
 73
    6
 40
63.5
 49
25.4
 74
    0
 49
-12.7
 74
    0
 49
0
 74
    0
 49
-12.7
 74
    0
 49
0
 74
    0
 49
-12.7
 74
    0
  0
LTYPE
  5
42
330
5
100
AcDbSymbolTableRecord
100
AcDbLinetypeTableRecord
  2
BORDER
 70
    0
  3
Border __ __ . __ __ . __ __ . __ __ . __ __ .
 72
   65
 73
    6
 40
44.45
 49
12.7
 74
    0
 49
-6.35
 74
    0
 49
12.7
 74
    0
 49
-6.35
 74
    0
 49
0
 74
    0
 49
-6.35
 74
    0
  0
LTYPE
  5
43
330
5
100
AcDbSymbolTableRecord
100
AcDbLinetypeTableRecord
  2
BORDERTINY
 70
    0
  3
Border (.15x) __.__.__.__.__.__.__.__.__.__.__.
 72
   65
 73
    6
 40
6.6675
 49
1.905
 74
    0
 49
-0.9525
 74
    0
 49
1.905
 74
    0
 49
-0.9525
 74
    0
 49
0
 74
    0
 49
-0.9525
 74
    0
  0
LTYPE
  5
44
330
5
100
AcDbSymbolTableRecord
100
AcDbLinetypeTableRecord
  2
BORDER2
 70
    0
  3
Border (.5x) __.__.__.__.__.__.__.__.__.__.__.
 72
   65
 73
    6
 40
22.225
 49
6.35
 74
    0
 49
-3.175
 74
    0
 49
6.35
 74
    0
 49
-3.175
 74
    0
 49
0
 74
    0
 49
-3.175
 74
    0
  0
LTYPE
  5
45
330
5
100
AcDbSymbolTableRecord
100
AcDbLinetypeTableRecord
  2
BORDERX2
 70
    0
  3
Border (2x) ____  ____  .  ____  ____  .  ___
 72
   65
 73
    6
 40
88.89999999999999
 49
25.4
 74
    0
 49
-12.7
 74
    0
 49
25.4
 74
    0
 49
-12.7
 74
    0
 49
0
 74
    0
 49
-12.7
 74
    0
  0
LTYPE
  5
46
330
5
100
AcDbSymbolTableRecord
100
AcDbLinetypeTableRecord
  2
CENTER
 70
    0
  3
Center ____ _ ____ _ ____ _ ____ _ ____ _ ____
 72
   65
 73
    4
 40
50.8
 49
31.75
 74
    0
 49
-6.35
 74
    0
 49
6.35
 74
    0
 49
-6.35
 74
    0
  0
LTYPE
  5
47
330
5
100
AcDbSymbolTableRecord
100
AcDbLinetypeTableRecord
  2
CENTERTINY
 70
    0
  3
Center (.15x) ___ _ ___ _ ___ _ ___ _ ___ _ ___
 72
   65
 73
    4
 40
7.619999999999999
 49
4.7625
 74
    0
 49
-0.9525
 74
    0
 49
0.9525
 74
    0
 49
-0.9525
 74
    0
  0
LTYPE
  5
48
330
5
100
AcDbSymbolTableRecord
100
AcDbLinetypeTableRecord
  2
CENTER2
 70
    0
  3
Center (.5x) ___ _ ___ _ ___ _ ___ _ ___ _ ___
 72
   65
 73
    4
 40
28.575
 49
19.05
 74
    0
 49
-3.175
 74
    0
 49
3.175
 74
    0
 49
-3.175
 74
    0
  0
LTYPE
  5
49
330
5
100
AcDbSymbolTableRecord
100
AcDbLinetypeTableRecord
  2
CENTERX2
 70
    0
  3
Center (2x) ________  __  ________  __  _____
 72
   65
 73
    4
 40
101.6
 49
63.5
 74
    0
 49
-12.7
 74
    0
 49
12.7
 74
    0
 49
-12.7
 74
    0
  0
ENDTAB
  0
TABLE
  2
LAYER
  5
2
330
0
100
AcDbSymbolTable
 70
    1
  0
LAYER
  5
10
330
2
100
AcDbSymbolTableRecord
100
AcDbLayerTableRecord
  2
0
 70
    0
 62
    7
  6
CONTINUOUS
370
    0
390
F
  0
ENDTAB
  0
TABLE
  2
STYLE
  5
3
330
0
100
AcDbSymbolTable
 70
    3
  0
STYLE
  5
4A
330
2
100
AcDbSymbolTableRecord
100
AcDbTextStyleTableRecord
  2
sldtextstyle0
 70
    0
 40
0
 41
1
 50
0
 71
    0
 42
1
  3
sldtextstyle0
  4

  0
STYLE
  5
4B
330
2
100
AcDbSymbolTableRecord
100
AcDbTextStyleTableRecord
  2
Standard
 70
    0
 40
0
 41
1
 50
0
 71
    0
 42
1
  3
txt
  4

  0
ENDTAB
  0
TABLE
  2
VIEW
  5
6
330
0
100
AcDbSymbolTable
 70
    0
  0
ENDTAB
  0
TABLE
  2
UCS
  5
7
330
0
100
AcDbSymbolTable
 70
    0
  0
ENDTAB
  0
TABLE
  2
APPID
  5
9
330
0
100
AcDbSymbolTable
 70
    1
  0
APPID
  5
12
330
9
100
AcDbSymbolTableRecord
100
AcDbRegAppTableRecord
  2
ACAD
 70
    0
  0
APPID
  5
4C
330
9
100
AcDbSymbolTableRecord
100
AcDbRegAppTableRecord
  2
LibreCad
 70
    0
  0
ENDTAB
  0
TABLE
  2
DIMSTYLE
  5
A
330
0
100
AcDbSymbolTable
 70
    1
100
AcDbDimStyleTable
 71
    1
  0
DIMSTYLE
105
4D
330
A
100
AcDbSymbolTableRecord
100
AcDbDimStyleTableRecord
  2
Standard
 70
    0
 40
1
 41
2.5
 42
0.625
 43
0.38
 44
1.25
 45
0
 46
0
 47
0
 48
0
 49
1
140
2.5
141
0.09
142
0
143
25.4
144
1
145
0
146
1
147
0.625
148
0
 71
    0
 72
    0
 73
    0
 74
    1
 75
    0
 76
    0
 77
    0
 78
    8
 79
    0
170
    0
171
    2
172
    0
173
    0
174
    0
175
    0
176
    0
177
    0
178
    0
179
    0
271
    2
272
    4
273
    2
274
    2
275
    0
276
    0
277
    2
278
   44
279
    0
280
    0
281
    0
282
    0
283
    1
284
    0
285
    0
286
    0
288
    0
289
    3
340
standard
341

371
   -2
372
   -2
  0
ENDTAB
  0
TABLE
  2
BLOCK_RECORD
  5
1
330
0
100
AcDbSymbolTable
 70
    2
  0
BLOCK_RECORD
  5
1F
330
1
100
AcDbSymbolTableRecord
100
AcDbBlockTableRecord
  2
*Model_Space
 70
    0
280
    1
281
    0
  0
BLOCK_RECORD
  5
1E
330
1
100
AcDbSymbolTableRecord
100
AcDbBlockTableRecord
  2
*Paper_Space
 70
    0
280
    1
281
    0
  0
BLOCK_RECORD
  5
4E
330
1
100
AcDbSymbolTableRecord
100
AcDbBlockTableRecord
  2
SW_NOTE_0
 70
    0
280
    1
281
    0
  0
BLOCK_RECORD
  5
51
330
1
100
AcDbSymbolTableRecord
100
AcDbBlockTableRecord
  2
stab
 70
    0
280
    1
281
    0
  0
ENDTAB
  0
ENDSEC
  0
SECTION
  2
BLOCKS
  0
BLOCK
  5
20
330
1F
100
AcDbEntity
  8
0
100
AcDbBlockBegin
  2
*Model_Space
 70
    0
 10
0
 20
0
 30
0
  3
*Model_Space
  1

  0
ENDBLK
  5
21
330
1F
100
AcDbEntity
  8
0
100
AcDbBlockEnd
  0
BLOCK
  5
1C
330
1B
100
AcDbEntity
  8
0
100
AcDbBlockBegin
  2
*Paper_Space
 70
    0
 10
0
 20
0
 30
0
  3
*Paper_Space
  1

  0
ENDBLK
  5
1D
330
1F
100
AcDbEntity
  8
0
100
AcDbBlockEnd
  0
BLOCK
  5
4F
330
4E
100
AcDbEntity
  8
0
100
AcDbBlockBegin
  2
SW_NOTE_0
 70
    0
 10
0
 20
0
  3
SW_NOTE_0
  1

  0
LINE
  5
54
100
AcDbEntity
  8
0
  6
CONTINUOUS
 62
    0
370
    0
100
AcDbLine
 10
76.78515716286482
 20
0
 11
0
 21
0
  0
MTEXT
  5
55
100
AcDbEntity
  8
0
  6
CONTINUOUS
 62
    0
370
    0
100
AcDbMText
 10
0.4851303540027718
 20
9.745852753549556
 30
0
 40
7.5
 41
78.12500385715551
 71
    1
 72
    1
  1
m3 countersunk
  7
sldtextstyle0
210
0
220
0
230
1
 50
0
 73
    1
 44
1
  0
ENDBLK
  5
50
330
4E
100
AcDbEntity
  8
0
100
AcDbBlockEnd
  0
BLOCK
  5
52
330
51
100
AcDbEntity
  8
0
100
AcDbBlockBegin
  2
stab
 70
    0
 10
0
 20
0
  3
stab
  1

  0
LWPOLYLINE
  5
56
100
AcDbEntity
  8
0
  6
ByLayer
 62
  256
370
   -1
100
AcDbPolyline
 90
   25
 70
    0
 43
0
 10
15.43800160288811
 20
5.097738795657682
 10
15.43800160288811
 20
-9.487257010559516
 10
13.99999856948852
 20
-9.487257010559516
 10
14.00000036725129
 20
3.512739992524819
 42
0.4142135623730945
 10
13.0000002682209
 20
4.512741558929013
 10
1.000000367250889
 20
4.512739992527831
 42
0.4142135623730949
 10
0
 20
3.512739532371091
 10
0
 20
-9.487257010559516
 10
-1.437999308109291
 20
-9.487257010559516
 10
-1.437999308109291
 20
5.097738795657682
 10
-1.43799930810929
 20
5.757739096065096
 42
0.414213562373095
 10
-2.437999308109291
 20
6.757739096065096
 10
-7.438000455498697
 20
6.757739096065096
 42
0.414213562373095
 10
-8.438000455498697
 20
5.757739096065096
 10
-8.438000455498697
 20
5.097738795657682
 10
-8.437999632751088
 20
-11.8422600074748
 42
0.4142135623730992
 10
-7.438000291585924
 20
-12.84226090393491
 10
21.43800036725214
 20
-12.84226000747781
 42
0.4142135623730888
 10
22.43800088763237
 20
-11.84225887737688
 10
22.43800088763237
 20
5.097738795657682
 10
22.43800088763237
 20
5.757739096065096
 42
0.414213562373095
 10
21.43800088763237
 20
6.757739096065096
 10
16.43800160288811
 20
6.757739096065096
 42
0.414213562373095
 10
15.43800160288811
 20
5.757739096065096
 10
15.43800160288811
 20
5.097738795657682
  0
ENDBLK
  5
53
330
51
100
AcDbEntity
  8
0
100
AcDbBlockEnd
  0
ENDSEC
  0
SECTION
  2
ENTITIES
  0
SPLINE
  5
57
100
AcDbEntity
  8
0
  6
CONTINUOUS
 62
    7
370
   25
100
AcDbSpline
210
0
220
0
230
0
 70
    8
 71
    3
 72
   11
 73
    7
 74
    0
 42
1e-07
 43
1e-07
 40
0
 40
0
 40
0
 40
0
 40
0.1871143608394984
 40
0.3738998986567528
 40
0.5607622217008046
 40
1
 40
1
 40
1
 40
1
 10
322.5253414716881
 20
2.669987768375563
 30
0
 10
322.4932162399176
 20
2.539954862956279
 30
0
 10
322.4290222312406
 20
2.280117563776571
 30
0
 10
322.1349693105839
 20
1.988009337351286
 30
0
 10
321.5928277848109
 20
1.773763993121293
 30
0
 10
321.1452000933396
 20
1.794055471697561
 30
0
 10
320.8311688509148
 20
1.808290869438338
 30
0
  0
SPLINE
  5
58
100
AcDbEntity
  8
0
  6
CONTINUOUS
 62
    7
370
   25
100
AcDbSpline
210
0
220
0
230
0
 70
    8
 71
    3
 72
    9
 73
    5
 74
    0
 42
1e-07
 43
1e-07
 40
0
 40
0
 40
0
 40
0
 40
0.5586558906886638
 40
0.9999999999999999
 40
0.9999999999999999
 40
0.9999999999999999
 40
0.9999999999999999
 10
322.102774342553
 20
0.2247295682069534
 30
0
 10
322.4402196465623
 20
0.2911622243399279
 30
0
 10
323.0442503381449
 20
0.4100773870369494
 30
0
 10
323.5642151176863
 20
0.7366772981292797
 30
0
 10
323.7936985101861
 20
0.8808202449914688
 30
0
  0
SPLINE
  5
59
100
AcDbEntity
  8
0
  6
CONTINUOUS
 62
    7
370
   25
100
AcDbSpline
210
0
220
0
230
0
 70
    8
 71
    3
 72
    9
 73
    5
 74
    0
 42
1e-07
 43
1e-07
 40
0
 40
0
 40
0
 40
0
 40
0.5603642805567467
 40
1
 40
1
 40
1
 40
1
 10
323.7936985101861
 20
0.8808202449914688
 30
0
 10
324.0459704626346
 20
1.121314484361619
 30
0
 10
324.4961632411566
 20
1.550489304589519
 30
0
 10
324.6488600220106
 20
2.149509921512845
 30
0
 10
324.7159909811181
 20
2.412860781395125
 30
0
  0
CIRCLE
  5
5A
100
AcDbEntity
  8
0
  6
CONTINUOUS
 62
    7
370
   25
100
AcDbCircle
 10
348.805797143347
 20
-48.36133572414167
 40
1.750000000000455
  0
CIRCLE
  5
5B
100
AcDbEntity
  8
0
  6
CONTINUOUS
 62
    7
370
   25
100
AcDbCircle
 10
114.3641304766718
 20
-48.36133572414167
 40
1.750000000000341
  0
CIRCLE
  5
5C
100
AcDbEntity
  8
0
  6
CONTINUOUS
 62
    7
370
   25
100
AcDbCircle
 10
348.805797143347
 20
80.70116427584753
 40
1.750000000000455
  0
CIRCLE
  5
5D
100
AcDbEntity
  8
0
  6
CONTINUOUS
 62
    7
370
   25
100
AcDbCircle
 10
114.3641304766718
 20
80.70116427584753
 40
1.750000000000341
  0
SPLINE
  5
5E
100
AcDbEntity
  8
0
  6
CONTINUOUS
 62
    7
370
   25
100
AcDbSpline
210
0
220
0
230
0
 70
    8
 71
    3
 72
    9
 73
    5
 74
    0
 42
1e-07
 43
1e-07
 40
0
 40
0
 40
0
 40
0
 40
0.5587850613982377
 40
1
 40
1
 40
1
 40
1
 10
311.219145020501
 20
7.674483150684523
 30
0
 10
310.939753009027
 20
7.419481278050398
 30
0
 10
310.4397539382307
 20
6.963130723516542
 30
0
 10
310.3585288745598
 20
6.297497141246481
 30
0
 10
310.3226911630791
 20
6.003809661113905
 30
0
  0
SPLINE
  5
5F
100
AcDbEntity
  8
0
  6
CONTINUOUS
 62
    7
370
   25
100
AcDbSpline
210
0
220
0
230
0
 70
    8
 71
    3
 72
    9
 73
    5
 74
    0
 42
1e-07
 43
1e-07
 40
0
 40
0
 40
0
 40
0
 40
0.5570221488554652
 40
1
 40
1
 40
1
 40
1
 10
310.3226911630791
 20
2.588120788776564
 30
0
 10
310.3835293484578
 20
2.217478022187152
 30
0
 10
310.4927497546906
 20
1.55207761153747
 30
0
 10
310.9961499040652
 20
1.112266451297842
 30
0
 10
311.219145020501
 20
0.9174398486253494
 30
0
  0
SPLINE
  5
60
100
AcDbEntity
  8
0
  6
CONTINUOUS
 62
    7
370
   25
100
AcDbSpline
210
0
220
0
230
0
 70
    8
 71
    3
 72
    9
 73
    5
 74
    0
 42
1e-07
 43
1e-07
 40
0
 40
0
 40
0
 40
0
 40
0.5594855216104713
 40
1
 40
1
 40
1
 40
1
 10
311.219145020501
 20
0.9174398486253494
 30
0
 10
311.5970937469143
 20
0.6887569101315876
 30
0
 10
312.2726228031897
 20
0.2800190077895195
 30
0
 10
313.0574918432288
 20
0.2416372765317192
 30
0
 10
313.4032380190056
 20
0.2247295682069534
 30
0
  0
SPLINE
  5
61
100
AcDbEntity
  8
0
  6
CONTINUOUS
 62
    7
370
   25
100
AcDbSpline
210
0
220
0
230
0
 70
    8
 71
    3
 72
   10
 73
    6
 74
    0
 42
1e-07
 43
1e-07
 40
0
 40
0
 40
0
 40
0
 40
0.5589064259175236
 40
0.7795413938286296
 40
1
 40
1
 40
1
 40
1
 10
313.2073473539513
 20
1.808290869438338
 30
0
 10
312.801263680785
 20
1.788965531418626
 30
0
 10
312.2348736413944
 20
1.762011286060897
 30
0
 10
311.6338994017443
 20
2.209839022001347
 30
0
 10
311.5534055614589
 20
2.51664574293136
 30
0
 10
311.513174733178
 20
2.669987768375563
 30
0
  0
SPLINE
  5
62
100
AcDbEntity
  8
0
  6
CONTINUOUS
 62
    7
370
   25
100
AcDbSpline
210
0
220
0
230
0
 70
    8
 71
    3
 72
   10
 73
    6
 74
    0
 42
1e-07
 43
1e-07
 40
0
 40
0
 40
0
 40
0
 40
0.2776240699715767
 40
0.5589800234053465
 40
1
 40
1
 40
1
 40
1
 10
312.0318245496911
 20
5.865973920070815
 30
0
 10
312.0976117284172
 20
6.045434693141374
 30
0
 10
312.2300704115131
 20
6.40676859024029
 30
0
 10
312.8769735752905
 20
6.705880101878051
 30
0
 10
313.3547414301335
 20
6.722135237534758
 30
0
 10
313.6464249696892
 20
6.732059210979628
 30
0
  0
SPLINE
  5
63
100
AcDbEntity
  8
0
  6
CONTINUOUS
 62
    7
370
   25
100
AcDbSpline
210
0
220
0
230
0
 70
    8
 71
    3
 72
    9
 73
    5
 74
    0
 42
1e-07
 43
1e-07
 40
0
 40
0
 40
0
 40
0
 40
0.5600354883291598
 40
0.9999999999999999
 40
0.9999999999999999
 40
0.9999999999999999
 40
0.9999999999999999
 10
313.6464249696892
 20
6.732059210979628
 30
0
 10
313.727009728341
 20
6.733099327573541
 30
0
 10
313.8709019643352
 20
6.734956560937349
 30
0
 10
314.0148010975851
 20
6.733896504862741
 30
0
 10
314.078111609475
 20
6.733430117809462
 30
0
  0
SPLINE
  5
64
100
AcDbEntity
  8
0
  6
CONTINUOUS
 62
    7
370
   25
100
AcDbSpline
210
0
220
0
230
0
 70
    8
 71
    3
 72
    9
 73
    5
 74
    0
 42
1e-07
 43
1e-07
 40
0
 40
0
 40
0
 40
0
 40
0.560433766045383
 40
1
 40
1
 40
1
 40
1
 10
313.4032380190056
 20
8.367193431102919
 30
0
 10
312.9612261044865
 20
8.337750901314735
 30
0
 10
312.1725300242375
 20
8.285215648137523
 30
0
 10
311.5102576110276
 20
7.860968063658447
 30
0
 10
311.219145020501
 20
7.674483150684523
 30
0
  0
SPLINE
  5
65
100
AcDbEntity
  8
0
  6
CONTINUOUS
 62
    7
370
   25
100
AcDbSpline
210
0
220
0
230
0
 70
    8
 71
    3
 72
    9
 73
    5
 74
    0
 42
1e-07
 43
1e-07
 40
0
 40
0
 40
0
 40
0
 40
0.5603753860797263
 40
1
 40
1
 40
1
 40
1
 10
338.1407153215569
 20
6.734801024639296
 30
0
 10
338.1504903618779
 20
6.735016473091605
 30
0
 10
338.167934097923
 20
6.735400944746857
 30
0
 10
338.1853789939769
 20
6.735103258287722
 30
0
 10
338.1930481996697
 20
6.734972387993025
 30
0
  0
SPLINE
  5
66
100
AcDbEntity
  8
0
  6
CONTINUOUS
 62
    7
370
   25
100
AcDbSpline
210
0
220
0
230
0
 70
    8
 71
    3
 72
   11
 73
    7
 74
    0
 42
1e-07
 43
1e-07
 40
0
 40
0
 40
0
 40
0
 40
0.2801418982475077
 40
0.559995549324103
 40
0.7798812546876478
 40
1
 40
1
 40
1
 40
1
 10
338.1930481996697
 20
6.734972387993025
 30
0
 10
338.3159828269655
 20
6.719564041320155
 30
0
 10
338.561725590094
 20
6.688763202126552
 30
0
 10
338.838284649334
 20
6.466762821583075
 30
0
 10
339.0027853914121
 20
6.191404992850835
 30
0
 10
339.0220090346687
 20
5.998823506648819
 30
0
 10
339.0316259470147
 20
5.902481764995741
 30
0
  0
SPLINE
  5
67
100
AcDbEntity
  8
0
  6
CONTINUOUS
 62
    7
370
   25
100
AcDbSpline
210
0
220
0
230
0
 70
    8
 71
    3
 72
   11
 73
    7
 74
    0
 42
1e-07
 43
1e-07
 40
0
 40
0
 40
0
 40
0
 40
0.2801443902560131
 40
0.5599958007256584
 40
0.7798647994475686
 40
1
 40
1
 40
1
 40
1
 10
339.0316259470147
 20
5.902481764995741
 30
0
 10
339.0160389102928
 20
5.779847548345288
 30
0
 10
338.9848811380381
 20
5.534707368001591
 30
0
 10
338.7589067759839
 20
5.26189614271766
 30
0
 10
338.4821681922683
 20
5.102656190566904
 30
0
 10
338.2902549615313
 20
5.084121748323241
 30
0
 10
338.1942402925652
 20
5.074848920547652
 30
0
  0
SPLINE
  5
68
100
AcDbEntity
  8
0
  6
CONTINUOUS
 62
    7
370
   25
100
AcDbSpline
210
0
220
0
230
0
 70
    8
 71
    3
 72
    9
 73
    5
 74
    0
 42
1e-07
 43
1e-07
 40
0
 40
0
 40
0
 40
0
 40
0.5599220549335148
 40
1
 40
1
 40
1
 40
1
 10
338.1942402925652
 20
5.074848920547652
 30
0
 10
338.17680464298
 20
5.074160233147495
 30
0
 10
338.1456652202129
 20
5.072930263022045
 30
0
 10
338.114538150901
 20
5.074345371712525
 30
0
 10
338.1008398142022
 20
5.074968129837202
 30
0
  0
SPLINE
  5
69
100
AcDbEntity
  8
0
  6
CONTINUOUS
 62
    7
370
   25
100
AcDbSpline
210
0
220
0
230
0
 70
    8
 71
    3
 72
    9
 73
    5
 74
    0
 42
1e-07
 43
1e-07
 40
0
 40
0
 40
0
 40
0
 40
0.5594743630114086
 40
1
 40
1
 40
1
 40
1
 10
337.75644417669
 20
3.408392459594893
 30
0
 10
338.1701125366573
 20
3.433480694704599
 30
0
 10
338.9095000534342
 20
3.478323205404536
 30
0
 10
339.5349935319043
 20
3.868477664297984
 30
0
 10
339.8105394449395
 20
4.040350705825972
 30
0
  0
SPLINE
  5
6A
100
AcDbEntity
  8
0
  6
CONTINUOUS
 62
    7
370
   25
100
AcDbSpline
210
0
220
0
230
0
 70
    8
 71
    3
 72
    9
 73
    5
 74
    0
 42
1e-07
 43
1e-07
 40
0
 40
0
 40
0
 40
0
 40
0.5598815616265617
 40
1
 40
1
 40
1
 40
1
 10
339.8105394449395
 20
4.040350705825972
 30
0
 10
340.0951884061349
 20
4.304544085532825
 30
0
 10
340.6035976496335
 20
4.77641777778183
 30
0
 10
340.7364012399707
 20
5.451859541076374
 30
0
 10
340.7948505487603
 20
5.749133915149855
 30
0
  0
SPLINE
  5
6B
100
AcDbEntity
  8
0
  6
CONTINUOUS
 62
    7
370
   25
100
AcDbSpline
210
0
220
0
230
0
 70
    8
 71
    3
 72
    9
 73
    5
 74
    0
 42
1e-07
 43
1e-07
 40
0
 40
0
 40
0
 40
0
 40
0.5573302242772339
 40
1
 40
1
 40
1
 40
1
 10
340.7948505487603
 20
6.032390088283705
 30
0
 10
340.7250408059739
 20
6.393547790012121
 30
0
 10
340.599783391706
 20
7.041561635298876
 30
0
 10
340.1197460177536
 20
7.487434995174908
 30
0
 10
339.9072479810876
 20
7.684809655391859
 30
0
  0
SPLINE
  5
6C
100
AcDbEntity
  8
0
  6
CONTINUOUS
 62
    7
370
   25
100
AcDbSpline
210
0
220
0
230
0
 70
    8
 71
    3
 72
    9
 73
    5
 74
    0
 42
1e-07
 43
1e-07
 40
0
 40
0
 40
0
 40
0
 40
0.5599264543546693
 40
1
 40
1
 40
1
 40
1
 10
339.9072479810876
 20
7.684809655391859
 30
0
 10
339.5456608551927
 20
7.895246018926628
 30
0
 10
338.8998847482009
 20
8.271074597658867
 30
0
 10
338.1577724094289
 20
8.326489865981898
 30
0
 10
337.8311884012383
 20
8.350876659595656
 30
0
  0
CIRCLE
  5
6D
100
AcDbEntity
  8
0
  6
CONTINUOUS
 62
    7
370
   25
100
AcDbCircle
 10
-2.856702856667937
 20
80.70116427584753
 40
1.750000000000398
  0
CIRCLE
  5
6E
100
AcDbEntity
  8
0
  6
CONTINUOUS
 62
    7
370
   25
100
AcDbCircle
 10
231.5849638100116
 20
80.70116427584753
 40
1.750000000000341
  0
CIRCLE
  5
6F
100
AcDbEntity
  8
0
  6
CONTINUOUS
 62
    7
370
   25
100
AcDbCircle
 10
-2.856702856667937
 20
-48.36133572414167
 40
1.750000000000398
  0
CIRCLE
  5
70
100
AcDbEntity
  8
0
  6
CONTINUOUS
 62
    7
370
   25
100
AcDbCircle
 10
231.5849638100116
 20
-48.36133572414167
 40
1.750000000000341
  0
CIRCLE
  5
71
100
AcDbEntity
  8
0
  6
CONTINUOUS
 62
    7
370
   25
100
AcDbCircle
 10
308.3032971433278
 20
-224.7913222613529
 40
1.499999999999886
  0
CIRCLE
  5
72
100
AcDbEntity
  8
0
  6
CONTINUOUS
 62
    7
370
   25
100
AcDbCircle
 10
37.6432971433282
 20
-224.7913222613529
 40
1.5
  0
CIRCLE
  5
73
100
AcDbEntity
  8
0
  6
CONTINUOUS
 62
    7
370
   25
100
AcDbCircle
 10
-2.856702856654749
 20
-199.2988357241224
 40
1.249999999999943
  0
CIRCLE
  5
74
100
AcDbEntity
  8
0
  6
CONTINUOUS
 62
    7
370
   25
100
AcDbCircle
 10
114.3641304766848
 20
-199.2988357241224
 40
1.25
  0
CIRCLE
  5
75
100
AcDbEntity
  8
0
  6
CONTINUOUS
 62
    7
370
   25
100
AcDbCircle
 10
-2.856702856654749
 20
-328.3613357241221
 40
1.249999999999943
  0
CIRCLE
  5
76
100
AcDbEntity
  8
0
  6
CONTINUOUS
 62
    7
370
   25
100
AcDbCircle
 10
114.3641304766848
 20
-328.3613357241221
 40
1.25
  0
CIRCLE
  5
77
100
AcDbEntity
  8
0
  6
CONTINUOUS
 62
    7
370
   25
100
AcDbCircle
 10
231.5849638100244
 20
-199.2988357241224
 40
1.25
  0
CIRCLE
  5
78
100
AcDbEntity
  8
0
  6
CONTINUOUS
 62
    7
370
   25
100
AcDbCircle
 10
348.8057971433602
 20
-328.3613357241238
 40
1.25
  0
CIRCLE
  5
79
100
AcDbEntity
  8
0
  6
CONTINUOUS
 62
    7
370
   25
100
AcDbCircle
 10
348.8057971433602
 20
-199.2988357241207
 40
1.25
  0
CIRCLE
  5
7A
100
AcDbEntity
  8
0
  6
CONTINUOUS
 62
    7
370
   25
100
AcDbCircle
 10
-2.85670285667203
 20
91.63866427584912
 40
1.75
  0
CIRCLE
  5
7B
100
AcDbEntity
  8
0
  6
CONTINUOUS
 62
    7
370
   25
100
AcDbCircle
 10
114.3641304766675
 20
91.63866427584912
 40
1.749999999999886
  0
CIRCLE
  5
7C
100
AcDbEntity
  8
0
  6
CONTINUOUS
 62
    7
370
   25
100
AcDbCircle
 10
231.5849638100071
 20
91.63866427584912
 40
1.75
  0
CIRCLE
  5
7D
100
AcDbEntity
  8
0
  6
CONTINUOUS
 62
    7
370
   25
100
AcDbCircle
 10
348.8057971433429
 20
91.6386642758473
 40
1.75
  0
CIRCLE
  5
7E
100
AcDbEntity
  8
0
  6
CONTINUOUS
 62
    7
370
   25
100
AcDbCircle
 10
231.5849638100071
 20
220.7011642758487
 40
1.749999999999886
  0
CIRCLE
  5
7F
100
AcDbEntity
  8
0
  6
CONTINUOUS
 62
    7
370
   25
100
AcDbCircle
 10
114.3641304766675
 20
220.7011642758487
 40
1.75
  0
CIRCLE
  5
80
100
AcDbEntity
  8
0
  6
CONTINUOUS
 62
    7
370
   25
100
AcDbCircle
 10
348.8057971433429
 20
220.7011642758504
 40
1.750000000000114
  0
CIRCLE
  5
81
100
AcDbEntity
  8
0
  6
CONTINUOUS
 62
    7
370
   25
100
AcDbCircle
 10
-2.85670285667203
 20
220.7011642758487
 40
1.750000000000057
  0
CIRCLE
  5
82
100
AcDbEntity
  8
0
  6
CONTINUOUS
 62
    7
370
   25
100
AcDbCircle
 10
348.8057971433424
 20
-188.3613357241521
 40
1.750000000000341
  0
CIRCLE
  5
83
100
AcDbEntity
  8
0
  6
CONTINUOUS
 62
    7
370
   25
100
AcDbCircle
 10
231.5849638100066
 20
-188.3613357241504
 40
1.750000000000341
  0
CIRCLE
  5
84
100
AcDbEntity
  8
0
  6
CONTINUOUS
 62
    7
370
   25
100
AcDbCircle
 10
114.3641304766671
 20
-188.3613357241504
 40
1.750000000000341
  0
CIRCLE
  5
85
100
AcDbEntity
  8
0
  6
CONTINUOUS
 62
    7
370
   25
100
AcDbCircle
 10
-2.856702856672712
 20
-188.3613357241504
 40
1.750000000000398
  0
CIRCLE
  5
86
100
AcDbEntity
  8
0
  6
CONTINUOUS
 62
    7
370
   25
100
AcDbCircle
 10
348.8057971433424
 20
-59.29883572414911
 40
1.750000000000341
  0
CIRCLE
  5
87
100
AcDbEntity
  8
0
  6
CONTINUOUS
 62
    7
370
   25
100
AcDbCircle
 10
231.5849638100066
 20
-59.29883572415071
 40
1.750000000000341
  0
CIRCLE
  5
88
100
AcDbEntity
  8
0
  6
CONTINUOUS
 62
    7
370
   25
100
AcDbCircle
 10
114.3641304766671
 20
-59.29883572415071
 40
1.750000000000341
  0
CIRCLE
  5
89
100
AcDbEntity
  8
0
  6
CONTINUOUS
 62
    7
370
   25
100
AcDbCircle
 10
-2.856702856672712
 20
-59.29883572415071
 40
1.750000000000398
  0
CIRCLE
  5
8A
100
AcDbEntity
  8
0
  6
CONTINUOUS
 62
    7
370
   25
100
AcDbCircle
 10
230.3349638100244
 20
-328.3613357241221
 40
1.25
  0
LWPOLYLINE
  5
8B
100
AcDbEntity
  8
0
  6
ByLayer
 62
  256
370
   -1
100
AcDbPolyline
 90
    8
 70
    1
 43
0
 10
351.305797143342
 20
87.13866427584901
 42
0.4142135623730929
 10
353.30580588247
 20
89.13866433917849
 10
353.3057971433419
 20
223.2011642758487
 42
0.4142135623730867
 10
351.3058018293542
 20
225.201164871895
 10
-5.356702856671916
 20
225.2011642758487
 42
0.414213562373095
 10
-7.356702873452321
 20
223.2011608187792
 10
-7.356702856671915
 20
89.13866427584901
 42
0.4142135623730992
 10
-5.356702545626717
 20
87.13866424418359
  0
LWPOLYLINE
  5
8C
100
AcDbEntity
  8
0
  6
ByLayer
 62
  256
370
   -1
100
AcDbPolyline
 90
   16
 70
    1
 43
0
 10
308.2057971433455
 20
117.188664275849
 42
-0.4142135623731034
 10
307.2057854738396
 20
116.1886635576126
 10
290.1557971433442
 20
116.188664275849
 42
0.4142135623731034
 10
289.1558003034752
 20
115.1886633936998
 10
289.1557971433442
 20
97.13866427584901
 42
0.4142135623731072
 10
290.155787428872
 20
96.13866408958404
 10
346.3057971433412
 20
96.13866427584901
 42
0.4142135623730992
 10
347.3057937231225
 20
97.13866425349681
 10
347.305797143342
 20
115.188664275849
 42
0.4142135623724332
 10
346.3058065977257
 20
116.1886635576126
 10
329.2557971433467
 20
116.188664275849
 42
-0.4142135623737568
 10
328.255791625039
 20
117.1886637215254
 10
328.2557971433455
 20
134.2386642758494
 42
0.4142135623730867
 10
327.2558044996422
 20
135.2386637930509
 10
309.2057971433454
 20
135.2386642758494
 42
0.4142135623730949
 10
308.2058024015587
 20
134.2386654917833
  0
LWPOLYLINE
  5
8D
100
AcDbEntity
  8
0
  6
ByLayer
 62
  256
370
   -1
100
AcDbPolyline
 90
    8
 70
    1
 43
0
 10
346.305797143342
 20
153.2886642758489
 42
0.4142135623730451
 10
347.3057937231225
 20
154.2886621658441
 10
347.305797143342
 20
191.3886642758489
 42
0.4142135623723039
 10
346.3058065977257
 20
192.3886663620111
 10
290.1557971433442
 20
192.388664275849
 42
0.414213562373095
 10
289.1558003034752
 20
191.3886643354532
 10
289.1557971433442
 20
154.2886642758489
 42
0.4142135623731116
 10
290.155787428872
 20
153.2886675898668
  0
LWPOLYLINE
  5
8E
100
AcDbEntity
  8
0
  6
ByLayer
 62
  256
370
   -1
100
AcDbPolyline
 90
    8
 70
    1
 43
0
 10
347.3057971433466
 20
215.2011642758489
 42
0.4142135623731283
 10
346.3058065977257
 20
216.2011615340349
 10
290.1557971433441
 20
216.201164275849
 42
0.41421356237312
 10
289.1558003034752
 20
215.201159507477
 10
289.1557971433433
 20
197.1511642758489
 42
0.4142135623732032
 10
290.155787428872
 20
196.1511648599741
 10
346.3057971433457
 20
196.1511642758489
 42
0.4142135623731283
 10
347.3057937231225
 20
197.151166886532
  0
LWPOLYLINE
  5
8F
100
AcDbEntity
  8
0
  6
ByLayer
 62
  256
370
   -1
100
AcDbPolyline
 90
    8
 70
    1
 43
0
 10
285.3932971433418
 20
215.2011642758494
 42
0.4142135623721626
 10
284.3932997789544
 20
216.2011615340349
 10
209.1932971433409
 20
216.201164275849
 42
0.414213562373095
 10
208.1932913866204
 20
215.201159507477
 10
208.1932971433418
 20
197.1511642758489
 42
0.4142135623725957
 10
209.1932934131783
 20
196.1511648599741
 10
284.3932971433417
 20
196.1511642758489
 42
0.4142135623732282
 10
285.3932869043511
 20
197.151166886532
  0
LWPOLYLINE
  5
90
100
AcDbEntity
  8
0
  6
ByLayer
 62
  256
370
   -1
100
AcDbPolyline
 90
    8
 70
    1
 43
0
 10
113.9432971433336
 20
215.2011642758489
 42
0.4142135623730951
 10
112.9432957973641
 20
216.2011615340349
 10
37.74329714333106
 20
216.2011642758488
 42
0.4142135623730951
 10
36.74329858090101
 20
215.201159507477
 10
36.74329714333118
 20
197.1511642758489
 42
0.4142135623730995
 10
37.74329688216864
 20
196.1511648599741
 10
112.9432971433336
 20
196.1511642758489
 42
0.4142135623730825
 10
113.943297823922
 20
197.151166886532
  0
LWPOLYLINE
  5
91
100
AcDbEntity
  8
0
  6
ByLayer
 62
  256
370
   -1
100
AcDbPolyline
 90
    8
 70
    1
 43
0
 10
199.6682971433377
 20
215.2011642758489
 42
0.4142135623728286
 10
198.6682903375786
 20
216.2011615340349
 10
123.4682971433351
 20
216.2011642758489
 42
0.4142135623730864
 10
122.4682968464058
 20
215.201159507477
 10
122.4682971433351
 20
197.1511642758489
 42
0.4142135623731034
 10
123.4682988729638
 20
196.1511648599741
 10
198.6682971433377
 20
196.1511642758489
 42
0.4142135623730867
 10
199.6682923641366
 20
197.151166886532
  0
LWPOLYLINE
  5
92
100
AcDbEntity
  8
0
  6
ByLayer
 62
  256
370
   -1
100
AcDbPolyline
 90
    8
 70
    1
 43
0
 10
18.69329714332929
 20
215.2011642758487
 42
0.4142135623730909
 10
17.69329648281746
 20
216.2011615340349
 10
-0.3567028566710063
 20
216.2011642758488
 42
0.414213562373095
 10
-1.356703752620831
 20
215.201159507477
 10
-1.356702856671006
 20
197.1511642758489
 42
0.414213562373097
 10
-0.356703588708001
 20
196.1511648599741
 10
17.69329714332828
 20
196.151164275849
 42
0.4142135623730867
 10
18.6932985093755
 20
197.151166886532
  0
LWPOLYLINE
  5
93
100
AcDbEntity
  8
0
  6
ByLayer
 62
  256
370
   -1
100
AcDbPolyline
 90
   17
 70
    0
 43
0
 10
-0.356703588708001
 20
96.13866408958404
 10
28.21829583312689
 20
96.13866408958404
 10
28.21829583312689
 20
115.1886633936998
 10
46.26829590465246
 20
115.1886633936998
 10
46.26829590465246
 20
96.13866408958404
 10
237.7683114614647
 20
96.13866408958404
 10
237.7683114614647
 20
115.1886633936998
 10
255.8182966318291
 20
115.1886633936998
 10
255.8182966318291
 20
96.13866408958404
 10
284.3932971433371
 20
96.13866427584901
 42
0.4142135623730492
 10
285.3932869043511
 20
97.13866425349681
 10
285.3932971433371
 20
191.388664275849
 42
0.4142135623714551
 10
284.3932997789544
 20
192.3886663620111
 10
-0.3567028566710064
 20
192.388664275849
 42
0.414213562373095
 10
-1.356703752620831
 20
191.3886643354532
 10
-1.356702856671916
 20
97.13866427584901
 42
0.414213562373102
 10
-0.3567035887080018
 20
96.13866408958404
 42
0.414213562373102
  0
LWPOLYLINE
  5
94
100
AcDbEntity
  8
0
  6
ByLayer
 62
  256
370
   -1
100
AcDbPolyline
 90
    8
 70
    1
 43
0
 10
325.2295446005028
 20
60.17741517766683
 10
325.2295471433281
 20
72.1774142758527
 42
0.4142135623730867
 10
324.2295574751061
 20
73.17741451456516
 10
312.2295471433368
 20
73.17741427585304
 42
0.4142135623730951
 10
311.2295460310143
 20
72.17741435065238
 10
311.2295471433374
 20
60.17741427585224
 42
0.4142135623730888
 10
312.229533156411
 20
59.17741501375406
 10
324.2295471433363
 20
59.1774142758519
 42
0.4142135623730929
  0
LWPOLYLINE
  5
95
100
AcDbEntity
  8
0
  6
ByLayer
 62
  256
370
   -1
100
AcDbPolyline
 90
    8
 70
    1
 43
0
 10
230.2670520153206
 20
48.36491265937059
 10
230.2670471433345
 20
36.36491427586111
 42
0.4142135623731013
 10
231.2670540418786
 20
35.36491611643999
 10
243.2670471433372
 20
35.36491427585759
 42
0.4142135623730971
 10
244.267035683648
 20
36.36491441770761
 10
244.2670471433322
 20
48.36491427586157
 42
0.4142135623730929
 10
243.2670485582512
 20
49.36491468592851
 10
231.2670471433367
 20
49.36491427585656
 42
0.4142135623730951
  0
LWPOLYLINE
  5
96
100
AcDbEntity
  8
0
  6
ByLayer
 62
  256
370
   -1
100
AcDbPolyline
 90
    8
 70
    1
 43
0
 10
115.6795513239068
 20
-20.78508815125247
 10
115.6795471433281
 20
-8.785085724145574
 42
0.4142135623730953
 10
114.6795492973488
 20
-7.78508415774138
 10
102.6795471433277
 20
-7.785085724140799
 42
0.414213562373095
 10
101.6795453038376
 20
-8.785086184299303
 10
101.6795471433274
 20
-20.78508572414597
 42
0.4142135623730961
 10
102.6795473303956
 20
-21.78508272722991
 10
114.6795471433273
 20
-21.78508572413778
 42
0.4142135623730921
  0
LWPOLYLINE
  5
97
100
AcDbEntity
  8
0
  6
ByLayer
 62
  256
370
   -1
100
AcDbPolyline
 90
    8
 70
    1
 43
0
 10
331.2795352544945
 20
16.31491401835649
 10
343.2795471433399
 20
16.31491427585092
 42
0.4142135623730846
 10
344.2795466985863
 20
17.31491604491441
 10
344.2795471433407
 20
29.31491427585445
 42
0.414213562373095
 10
343.2795595731896
 20
30.31491258784501
 10
331.2795471433404
 20
30.31491427585752
 42
0.4142135623730951
 10
330.2795481290978
 20
29.31491428657739
 10
330.2795471433374
 20
17.31491427585399
 42
0.4142135623730879
  0
LWPOLYLINE
  5
98
100
AcDbEntity
  8
0
  6
ByLayer
 62
  256
370
   -1
100
AcDbPolyline
 90
    8
 70
    1
 43
0
 10
264.6045875158471
 20
-40.835092275894
 10
278.9858488303332
 20
-40.83508572414189
 42
0.4142135623730846
 10
279.9858343210381
 20
-39.83509024933596
 10
279.9858488303305
 20
-27.83508572413848
 42
0.4142135623730867
 10
278.9858471956414
 20
-26.83508625582476
 10
264.6045988303354
 20
-26.83508572414303
 42
0.4142135623731034
 10
263.6046003904503
 20
-27.8350882823828
 10
263.6045988303328
 20
-39.83508572413888
 42
0.4142135623731137
  0
LWPOLYLINE
  5
99
100
AcDbEntity
  8
0
  6
ByLayer
 62
  256
370
   -1
100
AcDbPolyline
 90
    8
 70
    1
 43
0
 10
305.1795553770226
 20
49.36491468592851
 10
293.1795471433367
 20
49.36491427585213
 42
0.414213562373095
 10
292.1795439329308
 20
48.36491265937059
 10
292.1795471433364
 20
36.3649142758469
 42
0.4142135623731054
 10
293.1795608606499
 20
35.36491611643999
 10
305.1795471433363
 20
35.36491427584656
 42
0.4142135623730929
 10
306.1795425024193
 20
36.36491441770761
 10
306.179547143337
 20
48.36491427584735
 42
0.4142135623730888
  0
LWPOLYLINE
  5
9A
100
AcDbEntity
  8
0
  6
ByLayer
 62
  256
370
   -1
100
AcDbPolyline
 90
    8
 70
    1
 43
0
 10
256.1733615007561
 20
-39.83509024933596
 10
256.1733488303267
 20
-27.83508572413848
 42
0.414213562373095
 10
255.173344573037
 20
-26.83508625582476
 10
240.7920988303371
 20
-26.83508572413825
 42
0.4142135623730951
 10
239.792097767846
 20
-27.8350882823828
 10
239.7920988303323
 20
-39.83508572413888
 42
0.4142135623730928
 10
240.7920848932427
 20
-40.835092275894
 10
255.173348830335
 20
-40.83508572413922
 42
0.4142135623730929
  0
LWPOLYLINE
  5
9B
100
AcDbEntity
  8
0
  6
ByLayer
 62
  256
370
   -1
100
AcDbPolyline
 90
    8
 70
    1
 43
0
 10
172.8295427169961
 20
-20.78508815125247
 10
172.8295471433312
 20
-8.785085724145574
 42
0.4142135623730993
 10
171.8295406904381
 20
-7.78508415774138
 10
159.8295471433304
 20
-7.785085724140799
 42
0.4142135623730993
 10
158.8295441475075
 20
-8.785086184299303
 10
158.829547143331
 20
-20.78508572414597
 42
0.4142135623730981
 10
159.8295461740655
 20
-21.78508272722991
 10
171.8295471433309
 20
-21.78508572413767
 42
0.4142135623730878
  0
LWPOLYLINE
  5
9C
100
AcDbEntity
  8
0
  6
ByLayer
 62
  256
370
   -1
100
AcDbPolyline
 90
    8
 70
    1
 43
0
 10
110.9170507993859
 20
60.17741517766683
 10
110.9170471433285
 20
72.1774142758527
 42
0.4142135623730911
 10
109.917048772828
 20
73.17741451456516
 10
97.9170471433286
 20
73.17741427584565
 42
0.414213562373095
 10
96.91704477931677
 20
72.17741435065238
 10
96.91704714332917
 20
60.17741427585224
 42
0.4142135623730971
 10
97.91704680587469
 20
59.17741501375406
 10
109.9170471433291
 20
59.17741427586054
 42
0.4142135623730867
  0
LWPOLYLINE
  5
9D
100
AcDbEntity
  8
0
  6
ByLayer
 62
  256
370
   -1
100
AcDbPolyline
 90
    8
 70
    1
 43
0
 10
244.267035683648
 20
60.17741517766683
 10
244.2670471433279
 20
72.1774142758527
 42
0.4142135623730909
 10
243.2670485582512
 20
73.17741451456516
 10
231.2670471433358
 20
73.17741427585213
 42
0.4142135623730951
 10
230.2670520153206
 20
72.17741435065238
 10
230.2670471433364
 20
60.17741427585224
 42
0.4142135623731013
 10
231.2670540418786
 20
59.17741501375406
 10
243.2670471433362
 20
59.17741427585281
 42
0.4142135623730929
  0
LWPOLYLINE
  5
9E
100
AcDbEntity
  8
0
  6
ByLayer
 62
  256
370
   -1
100
AcDbPolyline
 90
    8
 70
    1
 43
0
 10
72.8170466032189
 20
60.17741517766683
 10
72.81704714332392
 20
72.1774142758527
 42
0.414213562373095
 10
71.81704457666098
 20
73.17741451456516
 10
59.81704714332687
 20
73.17741427585213
 42
0.414213562373093
 10
58.81704803373037
 20
72.17741435065238
 10
58.81704714332744
 20
60.17741427585224
 42
0.4142135623730992
 10
59.8170500602883
 20
59.17741501375406
 10
71.81704714332734
 20
59.17741427585679
 42
0.4142135623730909
  0
LWPOLYLINE
  5
9F
100
AcDbEntity
  8
0
  6
ByLayer
 62
  256
370
   -1
100
AcDbPolyline
 90
    8
 70
    1
 43
0
 10
110.9170507993859
 20
36.36491441770761
 10
110.9170471433311
 20
48.36491427584735
 42
0.414213562373095
 10
109.917048772828
 20
49.36491468592851
 10
97.9170471433286
 20
49.36491427584849
 42
0.414213562373095
 10
96.91704477931677
 20
48.36491265937059
 10
96.91704714332917
 20
36.3649142758469
 42
0.4142135623731013
 10
97.91704680587469
 20
35.36491611643999
 10
109.9170471433291
 20
35.3649142758519
 42
0.4142135623730906
  0
LWPOLYLINE
  5
A0
100
AcDbEntity
  8
0
  6
ByLayer
 62
  256
370
   -1
100
AcDbPolyline
 90
    8
 70
    1
 43
0
 10
96.62954922582327
 20
-20.78508815125247
 10
96.62954714333119
 20
-8.785085724145574
 42
0.414213562373095
 10
95.62954719926535
 20
-7.78508415774138
 10
83.62954714332687
 20
-7.785085724144778
 42
0.414213562373095
 10
82.62955065633474
 20
-8.785086184299303
 10
82.62954714332653
 20
-20.78508572414597
 42
0.4142135623730981
 10
83.62954523231207
 20
-21.78508272722991
 10
95.62954714332643
 20
-21.78508572414631
 42
0.4142135623730898
  0
LWPOLYLINE
  5
A1
100
AcDbEntity
  8
0
  6
ByLayer
 62
  256
370
   -1
100
AcDbPolyline
 90
    8
 70
    1
 43
0
 10
59.8170500602883
 20
35.36491611643999
 10
71.81704714332734
 20
35.36491427585145
 42
0.4142135623730909
 10
72.8170466032189
 20
36.36491441770761
 10
72.8170471433321
 20
48.36491427584735
 42
0.4142135623730971
 10
71.81704457666098
 20
49.36491468592851
 10
59.81704714332687
 20
49.36491427585212
 42
0.4142135623730951
 10
58.81704803373037
 20
48.36491265937059
 10
58.81704714333073
 20
36.3649142758469
 42
0.4142135623731013
  0
LWPOLYLINE
  5
A2
100
AcDbEntity
  8
0
  6
ByLayer
 62
  256
370
   -1
100
AcDbPolyline
 90
    8
 70
    1
 43
0
 10
224.2170464601678
 20
73.17741451456516
 10
212.2170471433349
 20
73.1774142758444
 42
0.4142135623730991
 10
211.2170499172371
 20
72.17741435065238
 10
211.2170471433355
 20
60.17741427585224
 42
0.4142135623730974
 10
212.2170519437951
 20
59.17741501375406
 10
224.2170471433354
 20
59.1774142758519
 42
0.4142135623728266
 10
225.2170484867257
 20
60.17741517766683
 10
225.2170471433349
 20
72.1774142758527
 42
0.4142135623730993
  0
LWPOLYLINE
  5
A3
100
AcDbEntity
  8
0
  6
ByLayer
 62
  256
370
   -1
100
AcDbPolyline
 90
    8
 70
    1
 43
0
 10
196.6420453396004
 20
17.31491604491441
 10
196.6420471433303
 20
29.31491427585445
 42
0.414213562373095
 10
195.6420433130425
 20
30.31491258784501
 10
183.6420471433295
 20
30.31491427585922
 42
0.4142135623730909
 10
182.6420467701119
 20
29.31491428657739
 10
182.6420471433247
 20
17.31491427585399
 42
0.4142135623730961
 10
183.6420487966698
 20
16.31491401835649
 10
195.64204714333
 20
16.31491427584922
 42
0.4142135623730971
  0
LWPOLYLINE
  5
A4
100
AcDbEntity
  8
0
  6
ByLayer
 62
  256
370
   -1
100
AcDbPolyline
 90
    8
 70
    1
 43
0
 10
168.0670421924752
 20
36.36491441770761
 10
168.0670471433325
 20
48.36491427584735
 42
0.4142135623730971
 10
167.0670401659173
 20
49.36491468592851
 10
155.0670471433313
 20
49.36491427585213
 42
0.4142135623730993
 10
154.0670436229867
 20
48.36491265937059
 10
154.0670471433318
 20
36.3649142758469
 42
0.4142135623728307
 10
155.0670456495446
 20
35.36491611643999
 10
167.0670471433318
 20
35.36491427585509
 42
0.4142135623730929
  0
LWPOLYLINE
  5
A5
100
AcDbEntity
  8
0
  6
ByLayer
 62
  256
370
   -1
100
AcDbPolyline
 90
    8
 70
    1
 43
0
 10
81.34204562570272
 20
30.31491258784501
 10
69.34204714332424
 20
30.31491427585922
 42
0.4142135623730948
 10
68.34204908277212
 20
29.31491428657739
 10
68.34204714332299
 20
17.31491427585399
 42
0.4142135623731003
 10
69.34204365874945
 20
16.31491401835649
 10
81.3420471433238
 20
16.31491427584922
 42
0.4142135623730867
 10
82.34204765226065
 20
17.31491604491441
 10
82.34204714332446
 20
29.31491427585445
 42
0.4142135623730951
  0
LWPOLYLINE
  5
A6
100
AcDbEntity
  8
0
  6
ByLayer
 62
  256
370
   -1
100
AcDbPolyline
 90
    8
 70
    1
 43
0
 10
343.2795595731896
 20
-26.83508625582476
 10
331.2795471433404
 20
-26.83508572414655
 42
0.4142135623730949
 10
330.2795481290978
 20
-27.8350882823828
 10
330.2795471433383
 20
-39.83508572413888
 42
0.4142135623731054
 10
331.2795352544945
 20
-40.835092275894
 10
343.2795471433399
 20
-40.83508572414365
 42
0.4142135623728099
 10
344.2795466985863
 20
-39.83509024933596
 10
344.2795471433394
 20
-27.83508572413848
 42
0.4142135623728286
  0
LWPOLYLINE
  5
A7
100
AcDbEntity
  8
0
  6
ByLayer
 62
  256
370
   -1
100
AcDbPolyline
 90
    8
 70
    1
 43
0
 10
196.6420453396004
 20
60.17741517766683
 10
196.6420471433298
 20
72.1774142758527
 42
0.4142135623730992
 10
195.6420433130425
 20
73.17741451456516
 10
183.6420471433332
 20
73.17741427585213
 42
0.4142135623730993
 10
182.6420467701119
 20
72.17741435065238
 10
182.6420471433338
 20
60.17741427585224
 42
0.4142135623730971
 10
183.6420487966698
 20
59.17741501375406
 10
195.6420471433336
 20
59.17741427585725
 42
0.4142135623730929
  0
LWPOLYLINE
  5
A8
100
AcDbEntity
  8
0
  6
ByLayer
 62
  256
370
   -1
100
AcDbPolyline
 90
    8
 70
    1
 43
0
 10
14.66704573299108
 20
49.36491468592851
 10
2.667047143325078
 20
49.36491427585213
 42
0.4142135623730961
 10
1.667047327415389
 20
48.36491265937059
 10
1.667047143324737
 20
36.3649142758469
 42
0.4142135623731003
 10
2.667047491328049
 20
35.36491611643999
 10
14.66704714332469
 20
35.36491427584662
 42
0.4142135623730909
 10
15.66704775954895
 20
36.36491441770761
 10
15.66704714332536
 20
48.36491427584735
 42
0.4142135623730966
  0
LWPOLYLINE
  5
A9
100
AcDbEntity
  8
0
  6
ByLayer
 62
  256
370
   -1
100
AcDbPolyline
 90
    8
 70
    1
 43
0
 10
129.9670528974694
 20
36.36491441770761
 10
129.9670471433311
 20
48.36491427584735
 42
0.4142135623730971
 10
128.9670508709115
 20
49.36491468592851
 10
116.9670471433304
 20
49.36491427585213
 42
0.4142135623730971
 10
115.9670543279809
 20
48.36491265937059
 10
115.967047143331
 20
36.3649142758469
 42
0.4142135623730989
 10
116.9670414533776
 20
35.36491611643999
 10
128.9670471433308
 20
35.3649142758552
 42
0.4142135623728641
  0
LWPOLYLINE
  5
AA
100
AcDbEntity
  8
0
  6
ByLayer
 62
  256
370
   -1
100
AcDbPolyline
 90
    8
 70
    1
 43
0
 10
101.3920497503441
 20
17.31491604491441
 10
101.3920471433271
 20
29.31491427585445
 42
0.4142135623730951
 10
100.3920477237862
 20
30.31491258784501
 10
88.3920471433251
 20
30.31491427585559
 42
0.414213562373095
 10
87.39204373027502
 20
29.31491428657739
 10
87.39204714332249
 20
17.31491427585399
 42
0.4142135623731004
 10
88.39204575683294
 20
16.31491401835649
 10
100.3920471433246
 20
16.31491427585092
 42
0.414213562373095
  0
LWPOLYLINE
  5
AB
100
AcDbEntity
  8
0
  6
ByLayer
 62
  256
370
   -1
100
AcDbPolyline
 90
    8
 70
    1
 43
0
 10
7.42954801584898
 20
16.31491401835649
 10
19.42954714332366
 20
16.31491427585365
 42
0.4142135623730898
 10
20.42954828406988
 20
17.31491604491441
 10
20.42954714332842
 20
29.31491427585445
 42
0.4142135623730608
 10
19.42954625751196
 20
30.31491258784501
 10
7.429547143322395
 20
30.31491427585922
 42
0.414213562373095
 10
6.42954785193615
 20
29.31491428657739
 10
6.42954714331762
 20
17.31491427585399
 42
0.4142135623730989
  0
LWPOLYLINE
  5
AC
100
AcDbEntity
  8
0
  6
ByLayer
 62
  256
370
   -1
100
AcDbPolyline
 90
    8
 70
    1
 43
0
 10
233.7421369161767
 20
-26.83508625582476
 10
216.9795988303371
 20
-26.83508572414678
 42
0.4142135623730909
 10
215.9795951452416
 20
-27.8350882823828
 10
215.9795988303359
 20
-39.83508572413888
 42
0.414213562373097
 10
216.9795971717995
 20
-40.835092275894
 10
233.7421505173567
 20
-40.83508572414365
 42
0.4142135623728224
 10
234.7421538438958
 20
-39.83509024933596
 10
234.7421505173561
 20
-27.83508572413848
 42
0.4142135623730951
  0
LWPOLYLINE
  5
AD
100
AcDbEntity
  8
0
  6
ByLayer
 62
  256
370
   -1
100
AcDbPolyline
 90
    8
 70
    1
 43
0
 10
253.7920367326897
 20
17.31491604491441
 10
253.7920471433344
 20
29.31491427585445
 42
0.414213562373095
 10
252.792049607293
 20
30.31491258784501
 10
240.7920471433322
 20
30.31491427585559
 42
0.4142135623730909
 10
239.7920381632012
 20
29.31491428657739
 10
239.7920471433296
 20
17.31491427585399
 42
0.4142135623730961
 10
240.7920550909203
 20
16.31491401835649
 10
252.7920471433319
 20
16.31491427585092
 42
0.4142135623730971
  0
LWPOLYLINE
  5
AE
100
AcDbEntity
  8
0
  6
ByLayer
 62
  256
370
   -1
100
AcDbPolyline
 90
    8
 70
    1
 43
0
 10
325.2295446005028
 20
17.31491604491441
 10
325.229547143341
 20
29.31491427585445
 42
0.4142135623730867
 10
324.2295574751061
 20
30.31491258784501
 10
312.2295471433368
 20
30.31491427585479
 42
0.4142135623730951
 10
311.2295460310143
 20
29.31491428657739
 10
311.229547143332
 20
17.31491427585399
 42
0.4142135623731042
 10
312.229533156411
 20
16.31491401835649
 10
324.2295471433363
 20
16.31491427585319
 42
0.4142135623730929
  0
LWPOLYLINE
  5
AF
100
AcDbEntity
  8
0
  6
ByLayer
 62
  256
370
   -1
100
AcDbPolyline
 90
    8
 70
    1
 43
0
 10
276.6045522298974
 20
30.31491258784501
 10
264.604547143342
 20
30.31491427585922
 42
0.4142135623730868
 10
263.6045407858056
 20
29.31491428657739
 10
263.6045471433408
 20
17.31491427585399
 42
0.4142135623730961
 10
264.6045577135247
 20
16.31491401835649
 10
276.6045471433425
 20
16.31491427584922
 42
0.4142135623730929
 10
277.6045393552941
 20
17.31491604491441
 10
277.6045471433428
 20
29.31491427585445
 42
0.4142135623730867
  0
LWPOLYLINE
  5
B0
100
AcDbEntity
  8
0
  6
ByLayer
 62
  256
370
   -1
100
AcDbPolyline
 90
    8
 70
    1
 43
0
 10
52.76704992915808
 20
49.36491468592851
 10
40.76704714332681
 20
49.36491427585212
 42
0.414213562373095
 10
39.76704593564688
 20
48.36491265937059
 10
39.76704714332647
 20
36.3649142758469
 42
0.4142135623731036
 10
40.7670479622048
 20
35.36491611643999
 10
52.76704714332637
 20
35.36491427584656
 42
0.4142135623730909
 10
53.7670445051354
 20
36.36491441770761
 10
53.76704714332703
 20
48.36491427584735
 42
0.414213562373095
  0
LWPOLYLINE
  5
B1
100
AcDbEntity
  8
0
  6
ByLayer
 62
  256
370
   -1
100
AcDbPolyline
 90
    8
 70
    1
 43
0
 10
138.4920519199532
 20
30.31491258784501
 10
126.4920471433268
 20
30.31491427585922
 42
0.4142135623730971
 10
125.4920404758614
 20
29.31491428657739
 10
125.4920471433255
 20
17.31491427585399
 42
0.414213562373098
 10
126.4920425024193
 20
16.31491401835649
 10
138.4920471433265
 20
16.31491427584922
 42
0.4142135623730971
 10
139.4920539465111
 20
17.31491604491441
 10
139.4920471433272
 20
29.31491427585445
 42
0.414213562373095
  0
LWPOLYLINE
  5
B2
100
AcDbEntity
  8
0
  6
ByLayer
 62
  256
370
   -1
100
AcDbPolyline
 90
    8
 70
    1
 43
0
 10
324.2295574751061
 20
49.36491468592851
 10
312.2295471433359
 20
49.36491427585213
 42
0.4142135623730948
 10
311.2295460310143
 20
48.36491265937059
 10
311.2295471433365
 20
36.3649142758469
 42
0.4142135623730887
 10
312.229533156411
 20
35.36491611643999
 10
324.2295471433354
 20
35.36491427584656
 42
0.4142135623730846
 10
325.2295446005028
 20
36.36491441770761
 10
325.2295471433361
 20
48.36491427584735
 42
0.4142135623730971
  0
LWPOLYLINE
  5
B3
100
AcDbEntity
  8
0
  6
ByLayer
 62
  256
370
   -1
100
AcDbPolyline
 90
    8
 70
    1
 43
0
 10
63.29204555417715
 20
17.31491604491441
 10
63.29204714332531
 20
29.31491427585445
 42
0.4142135623730951
 10
62.29204352761923
 20
30.31491258784501
 10
50.29204714332417
 20
30.31491427585922
 42
0.414213562373094
 10
49.29204698468862
 20
29.31491428657739
 10
49.29204714331939
 20
17.31491427585399
 42
0.4142135623730981
 10
50.29204901124655
 20
16.31491401835649
 10
62.29204714332464
 20
16.31491427584922
 42
0.4142135623730909
  0
LWPOLYLINE
  5
B4
100
AcDbEntity
  8
0
  6
ByLayer
 62
  256
370
   -1
100
AcDbPolyline
 90
    8
 70
    1
 43
0
 10
158.5420411434334
 20
17.31491604491441
 10
158.542047143333
 20
29.31491427585445
 42
0.4142135623730909
 10
157.5420540180367
 20
30.31491258784501
 10
145.5420471433287
 20
30.31491427585513
 42
0.4142135623730909
 10
144.5420425739449
 20
29.31491428657739
 10
144.5420471433239
 20
17.31491427585399
 42
0.4142135623730958
 10
145.5420446005028
 20
16.31491401835649
 10
157.5420471433283
 20
16.31491427585319
 42
0.4142135623730929
  0
LWPOLYLINE
  5
B5
100
AcDbEntity
  8
0
  6
ByLayer
 62
  256
370
   -1
100
AcDbPolyline
 90
    8
 70
    1
 43
0
 10
344.2795466985863
 20
36.36491441770761
 10
344.2795471433415
 20
48.36491427584735
 42
0.4142135623730971
 10
343.2795595731896
 20
49.36491468592851
 10
331.2795471433386
 20
49.36491427584849
 42
0.4142135623730867
 10
330.2795481290978
 20
48.36491265937059
 10
330.2795471433383
 20
36.3649142758469
 42
0.414213562373097
 10
331.2795352544945
 20
35.36491611643999
 10
343.279547143339
 20
35.36491427585145
 42
0.4142135623730846
  0
LWPOLYLINE
  5
B6
100
AcDbEntity
  8
0
  6
ByLayer
 62
  256
370
   -1
100
AcDbPolyline
 90
    8
 70
    1
 43
0
 10
86.1045461502236
 20
11.26491794034212
 10
74.10454714332326
 20
11.26491427586632
 42
0.4142135623730951
 10
73.104549607293
 20
10.26491591378419
 10
73.10454714332252
 20
-1.735085724138969
 42
0.4142135623730974
 10
74.10454418327032
 20
-2.735088079727007
 10
86.10454714332373
 20
-2.735085724143744
 42
0.4142135623730867
 10
87.10454817678152
 20
-1.735086053169084
 10
87.10454714332406
 20
10.26491427586154
 42
0.4142135623730955
  0
LWPOLYLINE
  5
B7
100
AcDbEntity
  8
0
  6
ByLayer
 62
  256
370
   -1
100
AcDbPolyline
 90
    8
 70
    1
 43
0
 10
52.67335142757116
 20
-40.835092275894
 10
67.05459883033843
 20
-40.83508572414189
 42
0.4142135623730909
 10
68.0545982327622
 20
-39.83509024933596
 10
68.05459883033615
 20
-27.83508572413848
 42
0.414213562373095
 10
67.05459620620428
 20
-26.83508625582476
 10
52.67334883034067
 20
-26.83508572414303
 42
0.4142135623728621
 10
51.67334940101324
 20
-27.8350882823828
 10
51.67334883033891
 20
-39.83508572413888
 42
0.4142135623728661
  0
LWPOLYLINE
  5
B8
100
AcDbEntity
  8
0
  6
ByLayer
 62
  256
370
   -1
100
AcDbPolyline
 90
    8
 70
    1
 43
0
 10
282.367039879815
 20
60.17741517766683
 10
282.3670471433384
 20
72.1774142758527
 42
0.4142135623730867
 10
281.3670527544182
 20
73.17741451456516
 10
269.3670471433385
 20
73.17741427584576
 42
0.414213562373095
 10
268.3670413103264
 20
72.17741435065238
 10
268.3670471433381
 20
60.17741427585224
 42
0.4142135623730971
 10
269.3670582380456
 20
59.17741501375406
 10
281.3670471433381
 20
59.17741427586043
 42
0.4142135623730846
  0
LWPOLYLINE
  5
B9
100
AcDbEntity
  8
0
  6
ByLayer
 62
  256
370
   -1
100
AcDbPolyline
 90
    8
 70
    1
 43
0
 10
263.3170377817315
 20
60.17741517766683
 10
263.317047143333
 20
72.1774142758527
 42
0.4142135623730867
 10
262.3170506563347
 20
73.17741451456516
 10
250.3170471433359
 20
73.17741427585213
 42
0.4142135623730951
 10
249.3170392122429
 20
72.17741435065238
 10
249.3170471433365
 20
60.17741427585224
 42
0.4142135623730929
 10
250.3170561399621
 20
59.17741501375406
 10
262.3170471433363
 20
59.17741427585679
 42
0.4142135623730846
  0
LWPOLYLINE
  5
BA
100
AcDbEntity
  8
0
  6
ByLayer
 62
  256
370
   -1
100
AcDbPolyline
 90
    8
 70
    1
 43
0
 10
77.57954712773977
 20
-20.78508815125247
 10
77.57954714332726
 20
-8.785085724145574
 42
0.414213562373095
 10
76.57954510118185
 20
-7.78508415774138
 10
64.57954714332681
 20
-7.785085724140799
 42
0.414213562373095
 10
63.57954855825125
 20
-8.785086184299303
 10
63.57954714332647
 20
-20.78508572414597
 42
0.4142135623730981
 10
64.57955058480917
 20
-21.78508272722991
 10
76.57954714332648
 20
-21.78508572413767
 42
0.4142135623730898
  0
LWPOLYLINE
  5
BB
100
AcDbEntity
  8
0
  6
ByLayer
 62
  256
370
   -1
100
AcDbPolyline
 90
    8
 70
    1
 43
0
 10
229.9795490112465
 20
-20.78508815125247
 10
229.9795471433335
 20
-8.785085724145574
 42
0.4142135623730992
 10
228.9795469846886
 20
-7.78508415774138
 10
216.9795471433331
 20
-7.785085724140799
 42
0.414213562373099
 10
215.979550441758
 20
-8.785086184299303
 10
215.9795471433328
 20
-20.78508572414597
 42
0.4142135623730984
 10
216.9795524683159
 20
-21.78508272722991
 10
228.9795471433327
 20
-21.78508572413778
 42
0.4142135623730919
  0
LWPOLYLINE
  5
BC
100
AcDbEntity
  8
0
  6
ByLayer
 62
  256
370
   -1
100
AcDbPolyline
 90
    8
 70
    1
 43
0
 10
58.52954502965628
 20
-20.78508815125247
 10
58.52954714332537
 20
-8.785085724145574
 42
0.414213562373095
 10
57.52955045367895
 20
-7.78508415774138
 10
45.52954714332503
 20
-7.785085724140799
 42
0.4142135623730951
 10
44.52954646016775
 20
-8.785086184299303
 10
44.52954714332469
 20
-20.78508572414597
 42
0.4142135623730981
 10
45.52954848672567
 20
-21.78508272722991
 10
57.52954714332459
 20
-21.78508572413778
 42
0.4142135623730932
  0
LWPOLYLINE
  5
BD
100
AcDbEntity
  8
0
  6
ByLayer
 62
  256
370
   -1
100
AcDbPolyline
 90
    8
 70
    1
 43
0
 10
106.154550274865
 20
-1.735086053169084
 10
106.1545471433262
 20
10.26491427586154
 42
0.4142135623730935
 10
105.1545482483071
 20
11.26491794034212
 10
93.15454714332503
 20
11.26491427586632
 42
0.414213562373095
 10
92.15454425479589
 20
10.26491591378419
 10
92.15454714332026
 20
-1.735085724138969
 42
0.4142135623730973
 10
93.15454628135382
 20
-2.735088079727007
 10
105.1545471433255
 20
-2.735085724143744
 42
0.4142135623728536
  0
LWPOLYLINE
  5
BE
100
AcDbEntity
  8
0
  6
ByLayer
 62
  256
370
   -1
100
AcDbPolyline
 90
    5
 70
    1
 43
0
 10
317.3692714777154
 20
6.733430117809462
 10
331.8240534868401
 20
6.733430117809462
 10
331.8240534868401
 20
8.361992925846266
 10
329.0147673692864
 20
8.367193431102919
 10
317.3692714777154
 20
8.367193431102919
  0
LWPOLYLINE
  5
BF
100
AcDbEntity
  8
0
  6
ByLayer
 62
  256
370
   -1
100
AcDbPolyline
 90
    8
 70
    1
 43
0
 10
20.42960043813406
 20
-39.83509024933596
 10
20.42959883033506
 20
-27.83508572413848
 42
0.414213562373094
 10
19.42959841157619
 20
-26.83508625582476
 10
5.048348830339648
 20
-26.83508572413905
 42
0.4142135623730948
 10
4.048349743739948
 20
-27.8350882823828
 10
4.048348830337545
 20
-39.83508572413888
 42
0.4142135623730992
 10
5.048348045007572
 20
-40.835092275894
 10
19.42959883033832
 20
-40.83508572414229
 42
0.4142135623728422
  0
LWPOLYLINE
  5
C0
100
AcDbEntity
  8
0
  6
ByLayer
 62
  256
370
   -1
100
AcDbPolyline
 90
    8
 70
    1
 43
0
 10
40.7670479622048
 20
59.17741501375406
 10
52.76704714332637
 20
59.17741427585429
 42
0.4142135623730909
 10
53.7670445051354
 20
60.17741517766683
 10
53.76704714331942
 20
72.1774142758527
 42
0.414213562373095
 10
52.76704992915808
 20
73.17741451456516
 10
40.76704714332681
 20
73.17741427584815
 42
0.4142135623730971
 10
39.76704593564688
 20
72.17741435065238
 10
39.7670471433325
 20
60.17741427585224
 42
0.4142135623731013
  0
LWPOLYLINE
  5
C1
100
AcDbEntity
  8
0
  6
ByLayer
 62
  256
370
   -1
100
AcDbPolyline
 90
   14
 70
    0
 43
0
 10
310.3226911630791
 20
6.003809661113905
 10
310.3226911630791
 20
5.073478013717818
 10
295.8596055633333
 20
5.073481327831246
 42
0.4142135623725628
 10
295.3596007433098
 20
4.573484451019453
 10
295.3596055633388
 20
3.940969479824503
 42
0.4142135623725811
 10
295.8595943060082
 20
3.440966397964644
 10
301.5711497869652
 20
3.440966397964644
 10
301.5711469584205
 20
0.7247323258177404
 42
0.4142135623730805
 10
302.0711433496636
 20
0.2247295682069534
 10
302.6981507751044
 20
0.2247323258237657
 42
0.4142135623731096
 10
303.1981479730767
 20
0.7247305814859146
 10
303.1981479730767
 20
3.440966397964644
 10
310.3226911630791
 20
3.440966397964644
 10
310.3226911630791
 20
2.588120788776564
  0
LWPOLYLINE
  5
C2
100
AcDbEntity
  8
0
  6
ByLayer
 62
  256
370
   -1
100
AcDbPolyline
 90
    4
 70
    0
 43
0
 10
313.4032380190056
 20
0.2247295682069534
 10
316.6692745294732
 20
0.2247295682069534
 10
316.6692745294732
 20
1.808290869438338
 10
313.2073473539513
 20
1.808290869438338
  0
LWPOLYLINE
  5
C3
100
AcDbEntity
  8
0
  6
ByLayer
 62
  256
370
   -1
100
AcDbPolyline
 90
    6
 70
    0
 43
0
 10
311.513174733178
 20
2.669987768375563
 10
311.513174733178
 20
3.462476224147963
 10
316.6692745294732
 20
3.462476224147963
 10
316.6692745294732
 20
5.073478013717818
 10
312.0318245496911
 20
5.073478013717818
 10
312.0318245496911
 20
5.865973920070815
  0
LWPOLYLINE
  5
C4
100
AcDbEntity
  8
0
  6
ByLayer
 62
  256
370
   -1
100
AcDbPolyline
 90
    4
 70
    0
 43
0
 10
314.078111609475
 20
6.733430117809462
 10
316.6692745294732
 20
6.733430117809462
 10
316.6692745294732
 20
8.367193431102919
 10
313.4032380190056
 20
8.367193431102919
  0
LWPOLYLINE
  5
C5
100
AcDbEntity
  8
0
  6
ByLayer
 62
  256
370
   -1
100
AcDbPolyline
 90
    8
 70
    1
 43
0
 10
48.0045494046372
 20
11.26491794034212
 10
36.00454714332324
 20
11.26491427586631
 42
0.414213562373095
 10
35.004545411126
 20
10.26491591378419
 10
35.00454714332113
 20
-1.735085724138969
 42
0.4142135623731005
 10
36.00454743768393
 20
-2.735088079727007
 10
48.00454714332292
 20
-2.735085724143744
 42
0.4142135623730919
 10
49.00454398061453
 20
-1.735086053169084
 10
49.00454714332358
 20
10.26491427586154
 42
0.4142135623730945
  0
LWPOLYLINE
  5
C6
100
AcDbEntity
  8
0
  6
ByLayer
 62
  256
370
   -1
100
AcDbPolyline
 90
   22
 70
    1
 43
0
 10
281.2800597753674
 20
50.60991594835488
 42
0.414213562373095
 10
280.2800597753674
 20
51.60991594835489
 10
275.2800604906243
 20
51.60991594835489
 42
0.414213562373095
 10
274.2800604906243
 20
50.60991594835489
 10
274.2800604906243
 20
49.36491436945317
 10
257.4040604906297
 20
49.3649145923316
 10
257.4040604906297
 20
50.60991594835489
 42
0.414213562373095
 10
256.4040604906297
 20
51.60991594835489
 10
251.4040604906243
 20
51.60991594835488
 42
0.414213562373095
 10
250.4040604906243
 20
50.60991594835488
 10
250.4040604906243
 20
49.36112142167296
 42
0.4399678783854045
 10
249.3170499172371
 20
48.36491265937059
 10
249.3170471433346
 20
36.3649142758469
 42
0.4399644722636036
 10
250.4040491190117
 20
35.3687061368382
 10
250.4040471433424
 20
33.00991427584779
 42
0.4142135623736007
 10
251.4040362444085
 20
32.00991594835489
 10
280.2800471433398
 20
32.00991427585393
 42
0.4142135623731013
 10
281.2800471433337
 20
33.00991427584779
 10
281.280050891056
 20
35.3687056370228
 42
0.4399627579477746
 10
282.367035683648
 20
36.36491441770761
 10
282.3670471433322
 20
48.36491427586157
 42
0.4399600968567343
 10
281.2800597753674
 20
49.3611236904947
  0
LWPOLYLINE
  5
C7
100
AcDbEntity
  8
0
  6
ByLayer
 62
  256
370
   -1
100
AcDbPolyline
 90
    8
 70
    1
 43
0
 10
177.5920432415169
 20
60.17741517766683
 10
177.5920471433275
 20
72.1774142758527
 42
0.414213562373095
 10
176.592041214959
 20
73.17741451456516
 10
164.5920471433314
 20
73.17741427585224
 42
0.414213562373095
 10
163.5920446720284
 20
72.17741435065238
 10
163.5920471433319
 20
60.17741427585224
 42
0.4142135623730929
 10
164.5920466985863
 20
59.17741501375406
 10
176.5920471433309
 20
59.17741427585679
 42
0.4142135623730888
  0
LWPOLYLINE
  5
C8
100
AcDbEntity
  8
0
  6
ByLayer
 62
  256
370
   -1
100
AcDbPolyline
 90
    7
 70
    0
 43
0
 10
337.8311884012383
 20
8.350876659595656
 10
332.5240504350823
 20
8.360703975402998
 10
332.5240504350823
 20
6.733430117809462
 10
332.8099143114251
 20
6.733430117809462
 10
332.8099143114251
 20
6.734972387993025
 10
338.1407153215569
 20
6.734972387993025
 10
338.1407153215569
 20
6.734801024639296
  0
LWPOLYLINE
  5
C9
100
AcDbEntity
  8
0
  6
ByLayer
 62
  256
370
   -1
100
AcDbPolyline
 90
   11
 70
    0
 43
0
 10
338.1008398142022
 20
5.074968129837202
 10
337.1962499227685
 20
5.074968129837202
 10
337.1962499227685
 20
5.073478013717818
 10
332.5240504350823
 20
5.073478013717818
 10
332.5240504350823
 20
3.408392459594893
 10
335.5507444944542
 20
3.408392459594893
 10
338.0888159839818
 20
0.4021792769583475
 42
0.2208999535040686
 10
338.4708654489678
 20
0.2247295682069534
 10
339.4111056256351
 20
0.2247323258248123
 42
0.641876930693167
 10
339.7897076215905
 20
1.051319331371474
 10
337.75644417669
 20
3.408392459594893
  0
LWPOLYLINE
  5
CA
100
AcDbEntity
  8
0
  6
ByLayer
 62
  256
370
   -1
100
AcDbPolyline
 90
    2
 70
    0
 43
0
 10
340.7948505487603
 20
5.749133915149855
 10
340.7948505487603
 20
6.032390088283705
  0
LWPOLYLINE
  5
CB
100
AcDbEntity
  8
0
  6
ByLayer
 62
  256
370
   -1
100
AcDbPolyline
 90
    8
 70
    1
 43
0
 10
210.9295469131631
 20
-20.78508815125247
 10
210.9295471433366
 20
-8.785085724145574
 42
0.4142135623730951
 10
209.9295448866051
 20
-7.78508415774138
 10
197.9295471433323
 20
-7.785085724144778
 42
0.4142135623730909
 10
196.9295483436745
 20
-8.785086184299303
 10
196.9295471433319
 20
-20.78508572414597
 42
0.4142135623730981
 10
197.9295503702324
 20
-21.78508272722991
 10
209.9295471433318
 20
-21.78508572414631
 42
0.4142135623730878
  0
LWPOLYLINE
  5
CC
100
AcDbEntity
  8
0
  6
ByLayer
 62
  256
370
   -1
100
AcDbPolyline
 90
    8
 70
    1
 43
0
 10
239.5045351591271
 20
-1.735086053169084
 10
239.5045471433288
 20
10.26491427586154
 42
0.4142135623730958
 10
238.5045480337304
 20
11.26491794034212
 10
226.5045471433322
 20
11.26491427586188
 42
0.4142135623728284
 10
225.5045514907998
 20
10.26491591378419
 10
225.5045471433301
 20
-1.735085724138968
 42
0.4142135623731015
 10
226.5045535173577
 20
-2.735088079727007
 10
238.5045471433327
 20
-2.735085724141982
 42
0.4142135623730888
  0
LWPOLYLINE
  5
CD
100
AcDbEntity
  8
0
  6
ByLayer
 62
  256
370
   -1
100
AcDbPolyline
 90
    8
 70
    1
 43
0
 10
225.2170484867257
 20
36.36491441770761
 10
225.2170471433393
 20
48.36491427584735
 42
0.4142135623731013
 10
224.2170464601678
 20
49.36491468592851
 10
212.217047143334
 20
49.3649142758477
 42
0.4142135623730949
 10
211.2170499172371
 20
48.36491265937059
 10
211.2170471433346
 20
36.3649142758469
 42
0.4142135623731013
 10
212.2170519437951
 20
35.36491611643999
 10
224.2170471433345
 20
35.36491427584656
 42
0.4142135623728266
  0
LWPOLYLINE
  5
CE
100
AcDbEntity
  8
0
  6
ByLayer
 62
  256
370
   -1
100
AcDbPolyline
 90
    8
 70
    1
 43
0
 10
201.4045458641213
 20
-1.735086053169084
 10
201.4045471433267
 20
10.26491427586154
 42
0.4142135623730955
 10
200.4045438375634
 20
11.26491794034212
 10
188.4045471433305
 20
11.26491427586188
 42
0.4142135623730993
 10
187.4045472946328
 20
10.26491591378419
 10
187.4045471433284
 20
-1.735085724138969
 42
0.4142135623728309
 10
188.4045493211907
 20
-2.735088079727007
 10
200.40454714333
 20
-2.735085724141982
 42
0.4142135623730971
  0
LWPOLYLINE
  5
CF
100
AcDbEntity
  8
0
  6
ByLayer
 62
  256
370
   -1
100
AcDbPolyline
 90
    8
 70
    1
 43
0
 10
33.71704783107458
 20
49.36491468592851
 10
21.71704714332679
 20
49.36491427585212
 42
0.414213562373095
 10
20.71704756285368
 20
48.36491265937059
 10
20.71704714332651
 20
36.3649142758469
 42
0.4142135623731013
 10
21.71704586412125
 20
35.36491611643999
 10
33.71704714332641
 20
35.36491427584656
 42
0.4142135623730888
 10
34.7170461323422
 20
36.36491441770761
 10
34.71704714332708
 20
48.36491427584735
 42
0.414213562373095
  0
LWPOLYLINE
  5
D0
100
AcDbEntity
  8
0
  6
ByLayer
 62
  256
370
   -1
100
AcDbPolyline
 90
    8
 70
    1
 43
0
 10
182.3545437660378
 20
-1.735086053169084
 10
182.3545471433276
 20
10.26491427586154
 42
0.4142135623730955
 10
181.3545417394799
 20
11.26491794034212
 10
169.3545471433313
 20
11.26491427586188
 42
0.4142135623730951
 10
168.3545451965493
 20
10.26491591378419
 10
168.3545471433287
 20
-1.735085724138969
 42
0.4142135623731014
 10
169.3545472231072
 20
-2.735088079727007
 10
181.3545471433309
 20
-2.735085724141982
 42
0.4142135623730888
  0
LWPOLYLINE
  5
D1
100
AcDbEntity
  8
0
  6
ByLayer
 62
  256
370
   -1
100
AcDbPolyline
 90
    8
 70
    1
 43
0
 10
158.5420411434334
 20
60.17741517766683
 10
158.5420471433279
 20
72.1774142758527
 42
0.4142135623730909
 10
157.5420540180367
 20
73.17741451456516
 10
145.5420471433313
 20
73.17741427585304
 42
0.4142135623730909
 10
144.5420425739449
 20
72.17741435065238
 10
144.542047143331
 20
60.17741427585224
 42
0.414213562373097
 10
145.5420446005028
 20
59.17741501375406
 10
157.5420471433318
 20
59.17741427585725
 42
0.4142135623730929
  0
LWPOLYLINE
  5
D2
100
AcDbEntity
  8
0
  6
ByLayer
 62
  256
370
   -1
100
AcDbPolyline
 90
    8
 70
    1
 43
0
 10
312.229533156411
 20
-40.835092275894
 10
324.2295471433363
 20
-40.83508572414098
 42
0.4142135623730929
 10
325.2295446005028
 20
-39.83509024933596
 10
325.2295471433292
 20
-27.83508572413848
 42
0.4142135623730867
 10
324.2295574751061
 20
-26.83508625582476
 10
312.2295471433368
 20
-26.83508572414303
 42
0.414213562373095
 10
311.2295460310143
 20
-27.8350882823828
 10
311.2295471433329
 20
-39.83508572413888
 42
0.4142135623731135
  0
LWPOLYLINE
  5
D3
100
AcDbEntity
  8
0
  6
ByLayer
 62
  256
370
   -1
100
AcDbPolyline
 90
    8
 70
    1
 43
0
 10
126.4920425024193
 20
59.17741501375406
 10
138.49204714333
 20
59.1774142758519
 42
0.4142135623730971
 10
139.4920539465111
 20
60.17741517766683
 10
139.4920471433218
 20
72.1774142758527
 42
0.414213562373095
 10
138.4920519199532
 20
73.17741451456516
 10
126.4920471433305
 20
73.17741427585304
 42
0.414213562373095
 10
125.4920404758614
 20
72.17741435065238
 10
125.4920471433387
 20
60.17741427585224
 42
0.4142135623730992
  0
LWPOLYLINE
  5
D4
100
AcDbEntity
  8
0
  6
ByLayer
 62
  256
370
   -1
100
AcDbPolyline
 90
    8
 70
    1
 43
0
 10
207.4545514192742
 20
-2.735088079727007
 10
219.4545471433318
 20
-2.735085724141982
 42
0.4142135623730929
 10
220.4545479622048
 20
-1.735086053169084
 10
220.4545471433249
 20
10.26491427586154
 42
0.4142135623730914
 10
219.4545459356469
 20
11.26491794034212
 10
207.4545471433314
 20
11.26491427585654
 42
0.4142135623730909
 10
206.4545493927163
 20
10.26491591378419
 10
206.4545471433293
 20
-1.735085724138969
 42
0.4142135623730974
  0
LWPOLYLINE
  5
D5
100
AcDbEntity
  8
0
  6
ByLayer
 62
  256
370
   -1
100
AcDbPolyline
 90
    8
 70
    1
 43
0
 10
31.24204691316305
 20
16.31491401835649
 10
43.24204714332286
 20
16.31491427585274
 42
0.4142135623730909
 10
44.24204718138395
 20
17.31491604491441
 10
44.24204714332762
 20
29.31491427585445
 42
0.414213562373095
 10
43.24204888011633
 20
30.31491258784501
 10
31.2420471433224
 20
30.31491427585661
 42
0.414213562373095
 10
30.24204861189543
 20
29.31491428657739
 10
30.24204714331887
 20
17.31491427585399
 42
0.4142135623730981
  0
LWPOLYLINE
  5
D6
100
AcDbEntity
  8
0
  6
ByLayer
 62
  256
370
   -1
100
AcDbPolyline
 90
    8
 70
    1
 43
0
 10
150.3045451250237
 20
-2.735088079727007
 10
162.3045471433291
 20
-2.735085724141982
 42
0.4142135623730929
 10
163.3045416679543
 20
-1.735086053169084
 10
163.3045471433219
 20
10.26491427586154
 42
0.4142135623730914
 10
162.3045545425576
 20
11.26491794034212
 10
150.3045471433296
 20
11.26491427585699
 42
0.414213562373095
 10
149.3045430984658
 20
10.26491591378419
 10
149.3045471433271
 20
-1.735085724138969
 42
0.4142135623730929
  0
LWPOLYLINE
  5
D7
100
AcDbEntity
  8
0
  6
ByLayer
 62
  256
370
   -1
100
AcDbPolyline
 90
    8
 70
    1
 43
0
 10
125.2045523729485
 20
-1.735086053169084
 10
125.2045471433313
 20
10.26491427586154
 42
0.4142135623730976
 10
124.2045503463906
 20
11.26491794034212
 10
112.204547143326
 20
11.26491427586188
 42
0.4142135623730949
 10
111.20455380346
 20
10.26491591378419
 10
111.2045471433212
 20
-1.735085724138969
 42
0.4142135623730971
 10
112.2045409288567
 20
-2.735088079727007
 10
124.2045471433265
 20
-2.73508572413931
 42
0.4142135623730888
  0
LWPOLYLINE
  5
D8
100
AcDbEntity
  8
0
  6
ByLayer
 62
  256
370
   -1
100
AcDbPolyline
 90
    8
 70
    1
 43
0
 10
306.1795425024193
 20
-39.83509024933596
 10
306.1795471433339
 20
-27.83508572413848
 42
0.4142135623730948
 10
305.1795553770226
 20
-26.83508625582476
 10
293.1795471433376
 20
-26.83508572413814
 42
0.4142135623730867
 10
292.1795439329308
 20
-27.8350882823828
 10
292.179547143335
 20
-39.83508572413888
 42
0.4142135623731137
 10
293.1795608606499
 20
-40.835092275894
 10
305.1795471433372
 20
-40.83508572414189
 42
0.4142135623731013
  0
LWPOLYLINE
  5
D9
100
AcDbEntity
  8
0
  6
ByLayer
 62
  256
370
   -1
100
AcDbPolyline
 90
    8
 70
    1
 43
0
 10
68.05454607869802
 20
-1.735086053169084
 10
68.05454714332717
 20
10.26491427586154
 42
0.4142135623730955
 10
67.0545440521401
 20
11.26491794034212
 10
55.05454714332501
 20
11.26491427586268
 42
0.414213562373095
 10
54.0545475092095
 20
10.26491591378419
 10
54.05454714332245
 20
-1.735085724138968
 42
0.4142135623730995
 10
55.05454953576742
 20
-2.735088079727007
 10
67.05454714332468
 20
-2.735085724141982
 42
0.414213562373087
  0
LWPOLYLINE
  5
DA
100
AcDbEntity
  8
0
  6
ByLayer
 62
  256
370
   -1
100
AcDbPolyline
 90
    8
 70
    1
 43
0
 10
325.2295446005028
 20
-20.78508815125247
 10
325.2295471433411
 20
-8.785085724145574
 42
0.4142135623730867
 10
324.2295574751061
 20
-7.78508415774138
 10
312.2295471433368
 20
-7.785085724144778
 42
0.4142135623730951
 10
311.2295460310143
 20
-8.785086184299303
 10
311.2295471433374
 20
-20.78508572414597
 42
0.4142135623730983
 10
312.229533156411
 20
-21.78508272722991
 10
324.2295471433363
 20
-21.78508572414631
 42
0.4142135623730836
  0
LWPOLYLINE
  5
DB
100
AcDbEntity
  8
0
  6
ByLayer
 62
  256
370
   -1
100
AcDbPolyline
 90
    8
 70
    1
 43
0
 10
331.2795352544945
 20
59.17741501375406
 10
343.2795471433399
 20
59.17741427585281
 42
0.4142135623730846
 10
344.2795466985863
 20
60.17741517766683
 10
344.2795471433316
 20
72.1774142758527
 42
0.414213562373095
 10
343.2795595731896
 20
73.17741451456516
 10
331.2795471433404
 20
73.17741427585395
 42
0.414213562373095
 10
330.2795481290978
 20
72.17741435065238
 10
330.2795471433485
 20
60.17741427585224
 42
0.4142135623730888
  0
LWPOLYLINE
  5
DC
100
AcDbEntity
  8
0
  6
ByLayer
 62
  256
370
   -1
100
AcDbPolyline
 90
    8
 70
    1
 43
0
 10
153.7795406189126
 20
-20.78508815125247
 10
153.779547143329
 20
-8.785085724145574
 42
0.4142135623728286
 10
152.7795534935158
 20
-7.78508415774138
 10
140.7795471433287
 20
-7.785085724140799
 42
0.414213562373095
 10
139.779542049424
 20
-8.785086184299303
 10
139.7795471433293
 20
-20.78508572414597
 42
0.4142135623730981
 10
140.779544075982
 20
-21.78508272722991
 10
152.7795471433291
 20
-21.78508572413767
 42
0.4142135623730919
  0
LWPOLYLINE
  5
DD
100
AcDbEntity
  8
0
  6
ByLayer
 62
  256
370
   -1
100
AcDbPolyline
 90
    8
 70
    1
 43
0
 10
234.7420346346062
 20
17.31491604491441
 10
234.7420471433325
 20
29.31491427585445
 42
0.4142135623730992
 10
233.7420475092095
 20
30.31491258784501
 10
221.7420471433323
 20
30.31491427585922
 42
0.4142135623730951
 10
220.7420509662789
 20
29.31491428657739
 10
220.7420471433275
 20
17.31491427585399
 42
0.4142135623730919
 10
221.7420529928368
 20
16.31491401835649
 10
233.7420471433318
 20
16.31491427584922
 42
0.4142135623730929
  0
LWPOLYLINE
  5
DE
100
AcDbEntity
  8
0
  6
ByLayer
 62
  256
370
   -1
100
AcDbPolyline
 90
    8
 70
    1
 43
0
 10
177.5920432415169
 20
17.31491604491441
 10
177.5920471433329
 20
29.31491427585445
 42
0.414213562373095
 10
176.592041214959
 20
30.31491258784501
 10
164.5920471433305
 20
30.31491427585513
 42
0.414213562373095
 10
163.5920446720284
 20
29.31491428657739
 10
163.5920471433284
 20
17.31491427585399
 42
0.4142135623730919
 10
164.5920466985863
 20
16.31491401835649
 10
176.5920471433309
 20
16.31491427585092
 42
0.4142135623728266
  0
LWPOLYLINE
  5
DF
100
AcDbEntity
  8
0
  6
ByLayer
 62
  256
370
   -1
100
AcDbPolyline
 90
    8
 70
    1
 43
0
 10
296.0095471433371
 20
8.309914275851156
 42
0.4142135623730789
 10
295.5095362272423
 20
7.809912354194807
 10
295.5095471433347
 20
6.81678745182171
 42
0.4142135623730971
 10
296.0095595922631
 20
6.316786200248885
 10
297.0027039951009
 20
6.316787451819323
 42
0.4142135623731096
 10
297.5027155485314
 20
6.816787213527846
 10
297.5027039951024
 20
7.809914275849678
 42
0.414213562373095
 10
297.0026921835106
 20
8.309913367473769
  0
LWPOLYLINE
  5
E0
100
AcDbEntity
  8
0
  6
ByLayer
 62
  256
370
   -1
100
AcDbPolyline
 90
    8
 70
    1
 43
0
 10
191.8795448150796
 20
-20.78508815125247
 10
191.8795471433348
 20
-8.785085724145574
 42
0.4142135623730951
 10
190.8795427885216
 20
-7.78508415774138
 10
178.8795471433322
 20
-7.785085724144778
 42
0.4142135623730951
 10
177.879546245591
 20
-8.785086184299303
 10
177.8795471433328
 20
-20.78508572414597
 42
0.4142135623728357
 10
178.879548272149
 20
-21.78508272722991
 10
190.8795471433327
 20
-21.78508572414097
 42
0.4142135623730961
  0
LWPOLYLINE
  5
E1
100
AcDbEntity
  8
0
  6
ByLayer
 62
  256
370
   -1
100
AcDbPolyline
 90
    8
 70
    1
 43
0
 10
293.1795608606499
 20
59.17741501375406
 10
305.1795471433372
 20
59.17741427585679
 42
0.4142135623731013
 10
306.1795425024193
 20
60.17741517766683
 10
306.1795471433302
 20
72.1774142758527
 42
0.414213562373095
 10
305.1795553770226
 20
73.17741451456516
 10
293.1795471433376
 20
73.17741427584815
 42
0.4142135623730867
 10
292.1795439329308
 20
72.17741435065238
 10
292.1795471433409
 20
60.17741427585224
 42
0.4142135623730971
  0
LWPOLYLINE
  5
E2
100
AcDbEntity
  8
0
  6
ByLayer
 62
  256
370
   -1
100
AcDbPolyline
 90
    8
 70
    1
 43
0
 10
306.1795425024193
 20
17.31491604491441
 10
306.1795471433419
 20
29.31491427585445
 42
0.414213562373095
 10
305.1795553770226
 20
30.31491258784501
 10
293.1795471433376
 20
30.31491427585513
 42
0.4142135623730867
 10
292.1795439329308
 20
29.31491428657739
 10
292.1795471433328
 20
17.31491427585399
 42
0.4142135623730961
 10
293.1795608606499
 20
16.31491401835649
 10
305.1795471433372
 20
16.31491427585319
 42
0.4142135623731013
  0
LWPOLYLINE
  5
E3
100
AcDbEntity
  8
0
  6
ByLayer
 62
  256
370
   -1
100
AcDbPolyline
 90
    8
 70
    1
 43
0
 10
206.1670463886422
 20
36.36491441770761
 10
206.1670471433343
 20
48.36491427584735
 42
0.4142135623730971
 10
205.1670443620843
 20
49.36491468592851
 10
193.1670471433341
 20
49.36491427585213
 42
0.4142135623730908
 10
192.1670478191537
 20
48.36491265937059
 10
192.1670471433347
 20
36.3649142758469
 42
0.4142135623730971
 10
193.1670498457116
 20
35.36491611643999
 10
205.1670471433336
 20
35.36491427585509
 42
0.4142135623730888
  0
LWPOLYLINE
  5
E4
100
AcDbEntity
  8
0
  6
ByLayer
 62
  256
370
   -1
100
AcDbPolyline
 90
    8
 70
    1
 43
0
 10
149.0170400943917
 20
36.36491441770761
 10
149.017047143333
 20
48.36491427584735
 42
0.4142135623730971
 10
148.017052968995
 20
49.36491468592851
 10
136.0170471433323
 20
49.36491427585213
 42
0.4142135623730951
 10
135.0170415249032
 20
48.36491265937059
 10
135.0170471433327
 20
36.3649142758469
 42
0.4142135623731013
 10
136.0170435514611
 20
35.36491611643999
 10
148.0170471433327
 20
35.36491427585531
 42
0.4142135623730971
  0
LWPOLYLINE
  5
E5
100
AcDbEntity
  8
0
  6
ByLayer
 62
  256
370
   -1
100
AcDbPolyline
 90
    8
 70
    1
 43
0
 10
21.8107965197724
 20
11.26491794034212
 10
5.048297143322372
 20
11.26491427585335
 42
0.4142135623730945
 10
4.048297589675769
 20
10.26491591378419
 10
4.048297143322088
 20
-1.735085724138969
 42
0.4142135623728496
 10
5.048297753588599
 20
-2.735088079727007
 10
21.81079714332551
 20
-2.735085724143744
 42
0.414213562372824
 10
22.81079854633026
 20
-1.735086053169084
 10
22.81079714332492
 20
10.26491427586154
 42
0.4142135623730945
  0
LWPOLYLINE
  5
E6
100
AcDbEntity
  8
0
  6
ByLayer
 62
  256
370
   -1
100
AcDbPolyline
 90
    8
 70
    1
 43
0
 10
91.86704870130239
 20
36.36491441770761
 10
91.86704714333297
 20
48.36491427584735
 42
0.4142135623730971
 10
90.86704667474447
 20
49.36491468592851
 10
78.86704714332774
 20
49.3649142758477
 42
0.4142135623730949
 10
77.86705013181387
 20
48.36491265937059
 10
77.86704714332831
 20
36.3649142758469
 42
0.4142135623731013
 10
78.86704470779119
 20
35.36491611643999
 10
90.86704714332821
 20
35.36491427584747
 42
0.4142135623730909
  0
LWPOLYLINE
  5
E7
100
AcDbEntity
  8
0
  6
ByLayer
 62
  256
370
   -1
100
AcDbPolyline
 90
    8
 70
    1
 43
0
 10
215.6920474376839
 20
17.31491604491441
 10
215.6920471433357
 20
29.31491427585445
 42
0.4142135623730909
 10
214.692045411126
 20
30.31491258784501
 10
202.6920471433305
 20
30.31491427585479
 42
0.4142135623730951
 10
201.6920488681954
 20
29.31491428657739
 10
201.6920471433258
 20
17.31491427585399
 42
0.4142135623730916
 10
202.6920508947533
 20
16.31491401835649
 10
214.692047143331
 20
16.31491427585365
 42
0.4142135623730929
  0
LWPOLYLINE
  5
E8
100
AcDbEntity
  8
0
  6
ByLayer
 62
  256
370
   -1
100
AcDbPolyline
 90
    8
 70
    1
 43
0
 10
186.1170422640008
 20
49.36491468592851
 10
174.1170471433331
 20
49.36491427585213
 42
0.4142135623730909
 10
173.1170457210702
 20
48.36491265937059
 10
173.1170471433328
 20
36.3649142758469
 42
0.4142135623730974
 10
174.1170477476281
 20
35.36491611643999
 10
186.1170471433327
 20
35.36491427584656
 42
0.4142135623730929
 10
187.1170442905587
 20
36.36491441770761
 10
187.1170471433334
 20
48.36491427584735
 42
0.4142135623730971
  0
LWPOLYLINE
  5
E9
100
AcDbEntity
  8
0
  6
ByLayer
 62
  256
370
   -1
100
AcDbPolyline
 90
   18
 70
    1
 43
0
 10
353.3032971433321
 20
83.20116427585947
 42
0.4142135623730953
 10
351.3032984342736
 20
85.20116427585879
 10
292.7732971433571
 20
85.20116427585481
 42
0.4142135623730784
 10
292.2733020391625
 20
84.70116425209983
 10
292.2733020391625
 20
83.45741432763009
 10
291.4732884969872
 20
83.45741432763009
 10
291.4732884969872
 20
73.12741459950178
 10
283.0732953157586
 20
73.12741459950178
 10
283.0732953157586
 20
83.45741432763009
 10
282.2733115759057
 20
83.45741432763009
 10
282.2732971433569
 20
84.70116427585242
 42
0.4142135623731117
 10
281.7732882108849
 20
85.20116427585253
 10
-5.356702856668221
 20
85.20116427585538
 42
0.4142135623730949
 10
-7.356702873452321
 20
83.20116418085365
 10
-7.356702856668051
 20
-50.85883572414571
 42
0.4142135623730984
 10
-5.356702545626717
 20
-52.85883924320956
 10
351.3032971433324
 20
-52.85883572414161
 42
0.4142135623730929
 10
353.3033024873894
 20
-50.85883519009377
  0
LWPOLYLINE
  5
EA
100
AcDbEntity
  8
0
  6
ByLayer
 62
  256
370
   -1
100
AcDbPolyline
 90
    8
 70
    1
 43
0
 10
134.7295471433291
 20
-8.785085724145574
 42
0.414213562373095
 10
133.7295513954323
 20
-7.78508415774138
 10
121.7295471433286
 20
-7.785085724140799
 42
0.414213562373097
 10
120.7295399513405
 20
-8.785086184299303
 10
120.7295471433284
 20
-20.78508572414597
 42
0.4142135623730961
 10
121.7295419778985
 20
-21.78508272722991
 10
133.7295471433283
 20
-21.78508572414631
 42
0.4142135623730919
 10
134.7295534219903
 20
-20.78508815125247
  0
LWPOLYLINE
  5
EB
100
AcDbEntity
  8
0
  6
ByLayer
 62
  256
370
   -1
100
AcDbPolyline
 90
    8
 70
    1
 43
0
 10
77.86704714332831
 20
60.17741427585224
 42
0.4142135623730973
 10
78.86704470779119
 20
59.17741501375406
 10
90.86704714332821
 20
59.17741427585281
 42
0.4142135623730867
 10
91.86704870130239
 20
60.17741517766683
 10
91.86704714332762
 20
72.1774142758527
 42
0.4142135623730951
 10
90.86704667474447
 20
73.17741451456516
 10
78.86704714332774
 20
73.1774142758444
 42
0.414213562373095
 10
77.86705013181387
 20
72.17741435065238
  0
LWPOLYLINE
  5
EC
100
AcDbEntity
  8
0
  6
ByLayer
 62
  256
370
   -1
100
AcDbPolyline
 90
    8
 70
    1
 43
0
 10
2.667047143325078
 20
73.17741427585304
 42
0.4142135623730951
 10
1.667047327415389
 20
72.17741435065238
 10
1.667047143324737
 20
60.17741427585224
 42
0.4142135623730995
 10
2.667047491328049
 20
59.17741501375406
 10
14.66704714332469
 20
59.17741427585196
 42
0.4142135623730909
 10
15.66704775954895
 20
60.17741517766683
 10
15.66704714331644
 20
72.1774142758527
 42
0.4142135623730956
 10
14.66704573299108
 20
73.17741451456516
  0
LWPOLYLINE
  5
ED
100
AcDbEntity
  8
0
  6
ByLayer
 62
  256
370
   -1
100
AcDbPolyline
 90
   30
 70
    1
 43
0
 10
243.2615482875268
 20
-24.14008760408163
 42
0.4142142039466726
 10
244.2615484514397
 20
-25.14008963063955
 10
273.1375476041001
 20
-25.14008963063955
 42
0.4142147495031753
 10
274.137549630658
 20
-24.14008760408163
 10
274.1375490112506
 20
-21.78508716777586
 10
281.3682990112465
 20
-21.78508716777586
 42
0.4142135623730513
 10
282.3682990112464
 20
-20.7850871677758
 10
282.3682990112464
 20
-8.785087167775858
 42
0.4142135623730451
 10
281.3682990112466
 20
-7.785087167775858
 10
274.137549630658
 20
-7.785087167775858
 10
274.137549630658
 20
-6.54008963063955
 42
0.414213562373095
 10
273.137549630658
 20
-5.54008963063955
 10
268.1375503459137
 20
-5.54008963063955
 42
0.414213562373095
 10
267.1375503459137
 20
-6.54008963063955
 10
267.1375503459137
 20
-7.200089931046962
 10
267.1375490112525
 20
-21.78508573726415
 10
265.6995473125141
 20
-21.78508573726415
 10
265.6995490112465
 20
-8.785087167775844
 42
0.4142135623731075
 10
264.6995490112465
 20
-7.785087167775858
 10
250.2615494349163
 20
-7.785087167775858
 10
250.2615494349163
 20
-6.54008963063955
 42
0.414213562373095
 10
249.2615494349163
 20
-5.54008963063955
 10
244.2615482875269
 20
-5.54008963063955
 42
0.414213562373095
 10
243.2615482875269
 20
-6.54008963063955
 10
243.2615482875269
 20
-7.785087167775858
 10
243.1745490112465
 20
-7.785087167775858
 42
0.4142135623731179
 10
242.1745490112467
 20
-8.785087167775858
 10
242.1745490112466
 20
-20.78508716777588
 42
0.4142135623731065
 10
243.1745490112465
 20
-21.78508716777586
 10
243.2615490112514
 20
-21.78508716777586
  0
LWPOLYLINE
  5
EE
100
AcDbEntity
  8
0
  6
ByLayer
 62
  256
370
   -1
100
AcDbPolyline
 90
   25
 70
    0
 43
0
 10
255.0228023162266
 20
-3.320081476126942
 10
255.0228023162266
 20
11.26491433009025
 10
256.4608053496262
 20
11.26491433009025
 10
256.4608035518634
 20
-1.735082672994081
 42
0.4142135623730825
 10
257.4608036508938
 20
-2.735084239398275
 10
269.4608035518638
 20
-2.735082672997095
 42
0.4142135623730825
 10
270.4608039191147
 20
-1.735082212840354
 10
270.4608039191147
 20
11.26491433009025
 10
271.898803227224
 20
11.26491433009025
 10
271.898803227224
 20
-3.320081476126946
 10
271.898803227224
 20
-3.980081776534361
 42
0.414213562373095
 10
272.898803227224
 20
-4.980081776534361
 10
277.8988043746134
 20
-4.980081776534361
 42
0.414213562373095
 10
278.8988043746134
 20
-3.980081776534361
 10
278.8988043746134
 20
-3.320081476126946
 10
278.8988035518659
 20
13.61991732700553
 42
0.4142135623731091
 10
277.8988042107006
 20
14.61991822346564
 10
249.0228035518626
 20
14.61991732700855
 42
0.4142135623730901
 10
248.0228030314823
 20
13.61991619690762
 10
248.0228030314823
 20
-3.320081476126942
 10
248.0228030314823
 20
-3.980081776534357
 42
0.414213562373095
 10
249.0228030314823
 20
-4.980081776534357
 10
254.0228023162266
 20
-4.980081776534357
 42
0.414213562373095
 10
255.0228023162266
 20
-3.980081776534357
 10
255.0228023162266
 20
-3.320081476126942
  0
LWPOLYLINE
  5
EF
100
AcDbEntity
  8
0
  6
ByLayer
 62
  256
370
   -1
100
AcDbPolyline
 90
   37
 70
    0
 43
0
 10
202.66704674627
 20
-26.83508625582476
 10
202.66704674627
 20
-25.5900887186888
 42
0.414213562373095
 10
201.66704674627
 20
-24.5900887186888
 10
196.5483488303433
 20
-24.5900887186888
 42
0.414213562373095
 10
195.5483488303433
 20
-25.5900887186888
 10
195.5483488303433
 20
-26.83508572413371
 42
0.4142135623731013
 10
194.5483427848977
 20
-27.8350882823828
 10
194.5483427848977
 20
-40.835092275894
 10
183.6171042528313
 20
-40.835092275894
 10
183.6171042528313
 20
-26.31008854464318
 10
183.6171042528313
 20
-25.5900887186888
 42
0.414213562373095
 10
182.6171042528313
 20
-24.5900887186888
 10
177.6171049680871
 20
-24.59008871868879
 42
0.414213562373095
 10
176.6171049680871
 20
-25.59008871868879
 10
176.6171049680871
 20
-26.31008854464318
 10
176.6171049680871
 20
-40.835092275894
 10
149.0170996990365
 20
-40.835092275894
 10
149.0170988303375
 20
-27.83508572413888
 42
0.4142135623730993
 10
148.0170976724785
 20
-26.83508625582476
 10
124.1108488303407
 20
-26.8350857241341
 42
0.414213562373098
 10
123.1108498182458
 20
-27.8350882823828
 10
123.1108498182458
 20
-40.835092275894
 10
88.36710121299444
 20
-40.835092275894
 10
88.36710121299444
 20
-25.5900887186888
 42
0.414213562373095
 10
87.36710121299444
 20
-24.5900887186888
 10
77.6046014037293
 20
-24.59008871868879
 42
0.414213562373095
 10
76.6046014037293
 20
-25.59008871868879
 10
76.60459883032649
 20
-43.19008572412469
 42
0.4142135623767287
 10
77.60459597970663
 20
-44.1900887186888
 10
201.6670988303343
 20
-44.19008572412855
 42
0.414213562373095
 10
202.6670914497536
 20
-43.19008669213076
 10
202.6670914497536
 20
-40.835092275894
 10
209.9296505173648
 20
-40.83508572413433
 42
0.4142135623730929
 10
210.9296512212914
 20
-39.83509024933596
 10
210.9296505173658
 20
-27.83508572413848
 42
0.4142135623730951
 10
209.9296491947335
 20
-26.83508625582476
 10
202.66704674627
 20
-26.83508625582476
  0
LWPOLYLINE
  5
F0
100
AcDbEntity
  8
0
  6
ByLayer
 62
  256
370
   -1
100
AcDbPolyline
 90
    9
 70
    0
 43
0
 10
44.24209933544813
 20
-39.83509024933596
 10
44.24209883033512
 20
-27.83508572413848
 42
0.414213562373095
 10
43.24209730889021
 20
-26.83508625582476
 10
28.86084883034147
 20
-26.83508572413814
 42
0.414213562373095
 10
27.86085050369917
 20
-27.8350882823828
 10
27.86084883033892
 20
-39.83508572413888
 42
0.4142135623731001
 10
28.86084880496679
 20
-40.835092275894
 10
43.24209883033843
 20
-40.83508572414189
 42
0.4142135623730909
 10
44.24209933544813
 20
-39.83509024933596
 42
0.4142135623730909
  0
LWPOLYLINE
  5
F1
100
AcDbEntity
  8
0
  6
ByLayer
 62
  256
370
   -1
100
AcDbPolyline
 90
    7
 70
    0
 43
0
 10
324.7159909811181
 20
2.412860781395125
 10
324.7159952171077
 20
4.5734813278209
 42
0.4142135623726288
 10
324.2159974184197
 20
5.073478013717818
 10
317.3692714777154
 20
5.073478013717818
 10
317.3692714777154
 20
3.462476224147963
 10
322.5253414716881
 20
3.462476224147963
 10
322.5253414716881
 20
2.669987768375563
  0
LWPOLYLINE
  5
F2
100
AcDbEntity
  8
0
  6
ByLayer
 62
  256
370
   -1
100
AcDbPolyline
 90
    4
 70
    0
 43
0
 10
320.8311688509148
 20
1.808290869438338
 10
317.3692714777154
 20
1.808290869438338
 10
317.3692714777154
 20
0.2247295682069534
 10
322.102774342553
 20
0.2247295682069534
  0
LWPOLYLINE
  5
F3
100
AcDbEntity
  8
0
  6
ByLayer
 62
  256
370
   -1
100
AcDbPolyline
 90
   10
 70
    0
 43
0
 10
331.8240534868401
 20
3.408392459594893
 10
331.8240534868401
 20
5.073478013717818
 10
326.9015641091007
 20
5.073481327837499
 42
0.4142135623730956
 10
326.4015507307213
 20
4.573484451019453
 10
326.4015641091
 20
0.7247323258177338
 42
0.4142135623647929
 10
326.9015740957421
 20
0.2247295682069534
 10
327.5870103191054
 20
0.2247323258179678
 42
0.414213562373094
 10
328.0870210733574
 20
0.7247305814859146
 10
328.0870210733574
 20
3.408392459594893
 10
331.8240534868401
 20
3.408392459594893
  0
LWPOLYLINE
  5
F4
100
AcDbEntity
  8
0
  6
ByLayer
 62
  256
370
   -1
100
AcDbPolyline
 90
    9
 70
    0
 43
0
 10
107.4420404043358
 20
16.31491401835649
 10
119.4420471433264
 20
16.31491427585274
 42
0.4142135623730846
 10
120.4420518484276
 20
17.31491604491441
 10
120.4420471433312
 20
29.31491427585445
 42
0.4142135623730953
 10
119.4420498218697
 20
30.31491258784501
 10
107.442047143326
 20
30.31491427585649
 42
0.4142135623730982
 10
106.4420458283585
 20
29.31491428657739
 10
106.442047143322
 20
17.31491427585399
 42
0.4142135623730929
 10
107.4420404043358
 20
16.31491401835649
 42
0.4142135623730929
  0
LWPOLYLINE
  5
F5
100
AcDbEntity
  8
0
  6
ByLayer
 62
  256
370
   -1
100
AcDbPolyline
 90
    9
 70
    0
 43
0
 10
131.2545430269402
 20
-2.735088079727007
 10
143.2545471433264
 20
-2.735085724139708
 42
0.4142135623731005
 10
144.254554471032
 20
-1.735086053169084
 10
144.2545471433312
 20
10.26491427586154
 42
0.4142135623730976
 10
143.2545524444741
 20
11.26491794034212
 10
131.254547143326
 20
11.26491427586631
 42
0.4142135623731013
 10
130.2545410003823
 20
10.26491591378419
 10
130.2545471433212
 20
-1.735085724138969
 42
0.4142135623731022
 10
131.2545430269402
 20
-2.735088079727007
 42
0.4142135623731022
  0
LWPOLYLINE
  5
F6
100
AcDbEntity
  8
0
  6
ByLayer
 62
  256
370
   -1
100
AcDbPolyline
 90
    8
 70
    1
 43
0
 10
351.3032971433282
 20
-332.8588357241513
 42
0.4142135623731034
 10
353.3033024873894
 20
-330.8588363821867
 10
353.3032971433282
 20
-196.7988357241513
 42
0.4142135623730995
 10
351.3032984342736
 20
-194.7988369162443
 10
-5.356702856671916
 20
-194.7988357241513
 42
0.4142135623730951
 10
-7.356702873452321
 20
-196.7988409693601
 10
-7.356702856671916
 20
-330.8588357241513
 42
0.4142135623730971
 10
-5.356702545626717
 20
-332.8588404353025
  0
LWPOLYLINE
  5
F7
100
AcDbEntity
  8
0
  6
ByLayer
 62
  256
370
   -1
100
AcDbPolyline
 90
   16
 70
    1
 43
0
 10
290.7732971433327
 20
-59.37258572415704
 42
-0.4142135623731073
 10
292.4733054247063
 20
-61.07258281067641
 10
292.4732971433326
 20
-61.29758572415108
 42
0.4142135623731079
 10
293.2732891645592
 20
-62.09758898571761
 10
343.8873779382866
 20
-62.09758898571761
 10
347.0045518484276
 20
-65.2147479946974
 10
347.0045518484276
 20
-182.1729340250852
 10
343.8873779382866
 20
-185.2900781329038
 10
2.059204911844063
 20
-185.2900781329038
 10
-1.057952234490529
 20
-182.1729340250852
 10
-1.057952234490529
 20
-65.2147479946974
 10
2.059204911844063
 20
-62.09758898571761
 10
281.2732971433326
 20
-62.09758572415109
 42
0.4142135623730924
 10
282.0733081903618
 20
-61.29759034470351
 10
282.0732971433326
 20
-61.07258572415662
 42
-0.414213562373085
 10
283.7732922640008
 20
-59.3725838358763
  0
LWPOLYLINE
  5
F8
100
AcDbEntity
  8
0
  6
ByLayer
 62
  256
370
   -1
100
AcDbPolyline
 90
   14
 70
    1
 43
0
 10
292.7732956018609
 20
-54.79883632019778
 10
351.3057971433439
 20
-54.79883572415139
 42
-0.414213562373095
 10
353.30580588247
 20
-56.79884037331368
 10
353.305797143344
 20
-190.8588357241514
 42
-0.414213562373095
 10
351.3058018293542
 20
-192.8588249380949
 10
-5.356702856671888
 20
-192.8588357241514
 42
-0.414213562373097
 10
-7.356702873452321
 20
-190.858820884979
 10
-7.356702856671916
 20
-56.79883572415139
 42
-0.414213562373095
 10
-5.356702545626717
 20
-54.79883632019778
 10
281.773297143352
 20
-54.79883572415082
 42
-0.4142135623730951
 10
282.2733115759057
 20
-55.2988298828962
 10
282.2733115759057
 20
-56.54258510426308
 10
292.2733020391625
 20
-56.54258510426308
 10
292.2732971433518
 20
-55.29883572415076
 42
-0.4142135623730949
  0
INSERT
  5
F9
100
AcDbEntity
  8
0
  6
ByLayer
 62
  256
370
   -1
100
AcDbBlockReference
  2
stab
 10
13.57329677607237
 20
-12.29782571667039
 30
0
 41
1
 42
1
 43
0
 50
0
 70
    1
 71
    1
 44
0
 45
0
  0
ENDSEC
  0
SECTION
  2
OBJECTS
  0
DICTIONARY
  5
C
330
0
100
AcDbDictionary
281
    1
  3
ACAD_GROUP
350
D
  0
DICTIONARY
  5
D
330
C
100
AcDbDictionary
281
    1
  0
ENDSEC
  0
EOF
