  0
SECTION
  2
HEADER
  9
$ACADVER
  1
AC1015
  9
$ACADMAINTVER
 70
     6
  9
$DWGCODEPAGE
  3
ANSI_1252
  9
$INSBASE
 10
0.0
 20
0.0
 30
0.0
  9
$EXTMIN
 10
71.2324127467
 20
36.9229683699
 30
0.0
  9
$EXTMAX
 10
419.8949127467
 20
164.88546837
 30
0.0
  9
$LIMMIN
 10
0.0
 20
0.0
  9
$LIMMAX
 10
420.0
 20
297.0
  9
$ORTHOMODE
 70
     0
  9
$REGENMODE
 70
     1
  9
$FILLMODE
 70
     1
  9
$QTEXTMODE
 70
     0
  9
$MIRRTEXT
 70
     1
  9
$LTSCALE
 40
1.0
  9
$ATTMODE
 70
     1
  9
$TEXTSIZE
 40
3.5
  9
$TRACEWID
 40
1.0
  9
$TEXTSTYLE
  7
Standard
  9
$CLAYER
  8
0
  9
$CELTYPE
  6
ByLayer
  9
$CECOLOR
 62
   256
  9
$CELTSCALE
 40
1.0
  9
$DISPSILH
 70
     0
  9
$DIMSCALE
 40
1.0
  9
$DIMASZ
 40
3.302
  9
$DIMEXO
 40
1.0
  9
$DIMDLI
 40
3.75
  9
$DIMRND
 40
0.0
  9
$DIMDLE
 40
0.0
  9
$DIMEXE
 40
1.0
  9
$DIMTP
 40
0.0
  9
$DIMTM
 40
0.0
  9
$DIMTXT
 40
3.5
  9
$DIMCEN
 40
2.5
  9
$DIMTSZ
 40
0.0
  9
$DIMTOL
 70
     0
  9
$DIMLIM
 70
     0
  9
$DIMTIH
 70
     1
  9
$DIMTOH
 70
     1
  9
$DIMSE1
 70
     0
  9
$DIMSE2
 70
     0
  9
$DIMTAD
 70
     1
  9
$DIMZIN
 70
     0
  9
$DIMBLK
  1

  9
$DIMASO
 70
     1
  9
$DIMSHO
 70
     1
  9
$DIMPOST
  1

  9
$DIMAPOST
  1

  9
$DIMALT
 70
     0
  9
$DIMALTD
 70
     3
  9
$DIMALTF
 40
0.0393700787
  9
$DIMLFAC
 40
1.0
  9
$DIMTOFL
 70
     1
  9
$DIMTVP
 40
0.0
  9
$DIMTIX
 70
     0
  9
$DIMSOXD
 70
     0
  9
$DIMSAH
 70
     0
  9
$DIMBLK1
  1

  9
$DIMBLK2
  1

  9
$DIMSTYLE
  2
ISO-25
  9
$DIMCLRD
 70
     0
  9
$DIMCLRE
 70
     0
  9
$DIMCLRT
 70
     0
  9
$DIMTFAC
 40
1.0
  9
$DIMGAP
 40
1.524
  9
$DIMJUST
 70
     0
  9
$DIMSD1
 70
     0
  9
$DIMSD2
 70
     0
  9
$DIMTOLJ
 70
     0
  9
$DIMTZIN
 70
     0
  9
$DIMALTZ
 70
     0
  9
$DIMALTTZ
 70
     0
  9
$DIMUPT
 70
     0
  9
$DIMDEC
 70
     2
  9
$DIMTDEC
 70
     2
  9
$DIMALTU
 70
     2
  9
$DIMALTTD
 70
     3
  9
$DIMTXSTY
  7
Standard
  9
$DIMAUNIT
 70
     0
  9
$DIMADEC
 70
     2
  9
$DIMALTRND
 40
0.0
  9
$DIMAZIN
 70
     0
  9
$DIMDSEP
 70
    44
  9
$DIMATFIT
 70
     3
  9
$DIMFRAC
 70
     0
  9
$DIMLDRBLK
  1

  9
$DIMLUNIT
 70
     2
  9
$DIMLWD
 70
    -2
  9
$DIMLWE
 70
    -2
  9
$DIMTMOVE
 70
     0
  9
$LUNITS
 70
     2
  9
$LUPREC
 70
     2
  9
$SKETCHINC
 40
1.0
  9
$FILLETRAD
 40
10.0
  9
$AUNITS
 70
     0
  9
$AUPREC
 70
     2
  9
$MENU
  1
.
  9
$ELEVATION
 40
0.0
  9
$PELEVATION
 40
0.0
  9
$THICKNESS
 40
0.0
  9
$LIMCHECK
 70
     0
  9
$CHAMFERA
 40
0.0
  9
$CHAMFERB
 40
0.0
  9
$CHAMFERC
 40
0.0
  9
$CHAMFERD
 40
0.0
  9
$SKPOLY
 70
     0
  9
$TDCREATE
 40
2458472.917575521
  9
$TDUCREATE
 40
2458473.125908854
  9
$TDUPDATE
 40
2458472.917588785
  9
$TDUUPDATE
 40
2458473.125922118
  9
$TDINDWG
 40
0.0000000116
  9
$TDUSRTIMER
 40
0.0000000116
  9
$USRTIMER
 70
     1
  9
$ANGBASE
 50
0.0
  9
$ANGDIR
 70
     0
  9
$PDMODE
 70
     0
  9
$PDSIZE
 40
-1.0
  9
$PLINEWID
 40
0.0
  9
$SPLFRAME
 70
     0
  9
$SPLINETYPE
 70
     6
  9
$SPLINESEGS
 70
     8
  9
$HANDSEED
  5
3FB
  9
$SURFTAB1
 70
     6
  9
$SURFTAB2
 70
     6
  9
$SURFTYPE
 70
     6
  9
$SURFU
 70
     6
  9
$SURFV
 70
     6
  9
$UCSBASE
  2

  9
$UCSNAME
  2

  9
$UCSORG
 10
0.0
 20
0.0
 30
0.0
  9
$UCSXDIR
 10
1.0
 20
0.0
 30
0.0
  9
$UCSYDIR
 10
0.0
 20
1.0
 30
0.0
  9
$UCSORTHOREF
  2

  9
$UCSORTHOVIEW
 70
     0
  9
$UCSORGTOP
 10
0.0
 20
0.0
 30
0.0
  9
$UCSORGBOTTOM
 10
0.0
 20
0.0
 30
0.0
  9
$UCSORGLEFT
 10
0.0
 20
0.0
 30
0.0
  9
$UCSORGRIGHT
 10
0.0
 20
0.0
 30
0.0
  9
$UCSORGFRONT
 10
0.0
 20
0.0
 30
0.0
  9
$UCSORGBACK
 10
0.0
 20
0.0
 30
0.0
  9
$PUCSBASE
  2

  9
$PUCSNAME
  2

  9
$PUCSORG
 10
0.0
 20
0.0
 30
0.0
  9
$PUCSXDIR
 10
1.0
 20
0.0
 30
0.0
  9
$PUCSYDIR
 10
0.0
 20
1.0
 30
0.0
  9
$PUCSORTHOREF
  2

  9
$PUCSORTHOVIEW
 70
     0
  9
$PUCSORGTOP
 10
0.0
 20
0.0
 30
0.0
  9
$PUCSORGBOTTOM
 10
0.0
 20
0.0
 30
0.0
  9
$PUCSORGLEFT
 10
0.0
 20
0.0
 30
0.0
  9
$PUCSORGRIGHT
 10
0.0
 20
0.0
 30
0.0
  9
$PUCSORGFRONT
 10
0.0
 20
0.0
 30
0.0
  9
$PUCSORGBACK
 10
0.0
 20
0.0
 30
0.0
  9
$USERI1
 70
     0
  9
$USERI2
 70
     0
  9
$USERI3
 70
     0
  9
$USERI4
 70
     0
  9
$USERI5
 70
     0
  9
$USERR1
 40
0.0
  9
$USERR2
 40
0.0
  9
$USERR3
 40
0.0
  9
$USERR4
 40
0.0
  9
$USERR5
 40
0.0
  9
$WORLDVIEW
 70
     1
  9
$SHADEDGE
 70
     3
  9
$SHADEDIF
 70
    70
  9
$TILEMODE
 70
     1
  9
$MAXACTVP
 70
    64
  9
$PINSBASE
 10
0.0
 20
0.0
 30
0.0
  9
$PLIMCHECK
 70
     0
  9
$PEXTMIN
 10
1.0000000000E+20
 20
1.0000000000E+20
 30
1.0000000000E+20
  9
$PEXTMAX
 10
-1.0000000000E+20
 20
-1.0000000000E+20
 30
-1.0000000000E+20
  9
$PLIMMIN
 10
0.0
 20
0.0
  9
$PLIMMAX
 10
420.0
 20
297.0
  9
$UNITMODE
 70
     0
  9
$VISRETAIN
 70
     1
  9
$PLINEGEN
 70
     0
  9
$PSLTSCALE
 70
     1
  9
$TREEDEPTH
 70
  3020
  9
$CMLSTYLE
  2
Standard
  9
$CMLJUST
 70
     0
  9
$CMLSCALE
 40
20.0
  9
$PROXYGRAPHICS
 70
     1
  9
$MEASUREMENT
 70
     1
  9
$CELWEIGHT
370
    -1
  9
$ENDCAPS
280
     0
  9
$JOINSTYLE
280
     0
  9
$LWDISPLAY
290
     1
  9
$INSUNITS
 70
     4
  9
$HYPERLINKBASE
  1

  9
$STYLESHEET
  1

  9
$XEDIT
290
     1
  9
$CEPSNTYPE
380
     0
  9
$PSTYLEMODE
290
     1
  9
$FINGERPRINTGUID
  2
{349AD1B6-49FF-4484-BB19-88015AEDD7F8}
  9
$VERSIONGUID
  2
{FAEB1C32-E019-11D5-929B-00C0DF256EC4}
  9
$EXTNAMES
290
     1
  9
$PSVPSCALE
 40
0.0
  9
$OLESTARTUP
290
     0
  0
ENDSEC
  0
SECTION
  2
CLASSES
  0
CLASS
  1
ACDBDICTIONARYWDFLT
  2
AcDbDictionaryWithDefault
  3
ObjectDBX Classes
 90
        0
280
     0
281
     0
  0
CLASS
  1
VISUALSTYLE
  2
AcDbVisualStyle
  3
ObjectDBX Classes
 90
     4095
280
     0
281
     0
  0
CLASS
  1
MATERIAL
  2
AcDbMaterial
  3
ObjectDBX Classes
 90
     1153
280
     0
281
     0
  0
CLASS
  1
SCALE
  2
AcDbScale
  3
ObjectDBX Classes
 90
     1153
280
     0
281
     0
  0
CLASS
  1
TABLESTYLE
  2
AcDbTableStyle
  3
ObjectDBX Classes
 90
     4095
280
     0
281
     0
  0
CLASS
  1
MLEADERSTYLE
  2
AcDbMLeaderStyle
  3
ACDB_MLEADERSTYLE_CLASS
 90
     4095
280
     0
281
     0
  0
CLASS
  1
SUN
  2
AcDbSun
  3
SCENEOE
 90
     1153
280
     0
281
     0
  0
CLASS
  1
ACDBPLACEHOLDER
  2
AcDbPlaceHolder
  3
ObjectDBX Classes
 90
        0
280
     0
281
     0
  0
CLASS
  1
LAYOUT
  2
AcDbLayout
  3
ObjectDBX Classes
 90
        0
280
     0
281
     0
  0
ENDSEC
  0
SECTION
  2
TABLES
  0
TABLE
  2
VPORT
  5
8
330
0
100
AcDbSymbolTable
 70
     1
  0
VPORT
  5
29
330
8
100
AcDbSymbolTableRecord
100
AcDbViewportTableRecord
  2
*Active
 70
     0
 10
0.0
 20
0.0
 11
1.0
 21
1.0
 12
245.5636627467
 22
100.90421837
 13
0.0
 23
0.0
 14
10.0
 24
10.0
 15
10.0
 25
10.0
 16
0.0
 26
0.0
 36
1.0
 17
0.0
 27
0.0
 37
0.0
 40
130.5217500001
 41
2.7247240402
 42
50.0
 43
0.0
 44
0.0
 50
0.0
 51
0.0
 71
     0
 72
   100
 73
     1
 74
     3
 75
     0
 76
     0
 77
     0
 78
     0
281
     0
 65
     1
110
0.0
120
0.0
130
0.0
111
1.0
121
0.0
131
0.0
112
0.0
122
1.0
132
0.0
 79
     0
146
0.0
  0
ENDTAB
  0
TABLE
  2
LTYPE
  5
5
330
0
100
AcDbSymbolTable
 70
     6
  0
LTYPE
  5
14
330
5
100
AcDbSymbolTableRecord
100
AcDbLinetypeTableRecord
  2
ByBlock
 70
     0
  3

 72
    65
 73
     0
 40
0.0
  0
LTYPE
  5
15
330
5
100
AcDbSymbolTableRecord
100
AcDbLinetypeTableRecord
  2
ByLayer
 70
     0
  3

 72
    65
 73
     0
 40
0.0
  0
LTYPE
  5
16
330
5
100
AcDbSymbolTableRecord
100
AcDbLinetypeTableRecord
  2
Continuous
 70
     0
  3
Solid line
 72
    65
 73
     0
 40
0.0
  0
LTYPE
  5
6E
330
5
100
AcDbSymbolTableRecord
100
AcDbLinetypeTableRecord
  2
HIDDEN
 70
     0
  3
Hidden __ __ __ __ __ __ __ __ __ __ __ __ __ __
 72
    65
 73
     2
 40
1.905
 49
1.27
 74
     0
 49
-0.635
 74
     0
  0
LTYPE
  5
6F
330
5
100
AcDbSymbolTableRecord
100
AcDbLinetypeTableRecord
  2
PHANTOM
 70
     0
  3
Phantom ______  __  __  ______  __  __  ______
 72
    65
 73
     6
 40
12.7
 49
6.35
 74
     0
 49
-1.27
 74
     0
 49
1.27
 74
     0
 49
-1.27
 74
     0
 49
1.27
 74
     0
 49
-1.27
 74
     0
  0
LTYPE
  5
70
330
5
100
AcDbSymbolTableRecord
100
AcDbLinetypeTableRecord
  2
CENTER
 70
     0
  3
Center ____ _ ____ _ ____ _ ____ _ ____ _ ____
 72
    65
 73
     4
 40
10.16
 49
6.35
 74
     0
 49
-1.27
 74
     0
 49
1.27
 74
     0
 49
-1.27
 74
     0
  0
LTYPE
  5
71
330
5
100
AcDbSymbolTableRecord
100
AcDbLinetypeTableRecord
  2
CENTERX2
 70
     0
  3
Center (2x) ________  __  ________  __  _____
 72
    65
 73
     4
 40
20.32
 49
12.7
 74
     0
 49
-2.54
 74
     0
 49
2.54
 74
     0
 49
-2.54
 74
     0
  0
LTYPE
  5
72
330
5
100
AcDbSymbolTableRecord
100
AcDbLinetypeTableRecord
  2
DOT2
 70
     0
  3
Dot (.5x) ........................................
 72
    65
 73
     2
 40
0.635
 49
0.0
 74
     0
 49
-0.635
 74
     0
  0
ENDTAB
  0
TABLE
  2
LAYER
  5
2
330
0
100
AcDbSymbolTable
 70
     1
  0
LAYER
  5
10
330
2
100
AcDbSymbolTableRecord
100
AcDbLayerTableRecord
  2
0
 70
     0
 62
     7
  6
Continuous
370
    -3
390
F
  0
ENDTAB
  0
TABLE
  2
STYLE
  5
3
330
0
100
AcDbSymbolTable
 70
     1
  0
STYLE
  5
11
330
3
100
AcDbSymbolTableRecord
100
AcDbTextStyleTableRecord
  2
Standard
 70
     0
 40
0.0
 41
1.0
 50
0.0
 71
     0
 42
3.5
  3
txt
  4

  0
ENDTAB
  0
TABLE
  2
VIEW
  5
6
330
0
100
AcDbSymbolTable
 70
     0
  0
ENDTAB
  0
TABLE
  2
UCS
  5
7
330
0
100
AcDbSymbolTable
 70
     0
  0
ENDTAB
  0
TABLE
  2
APPID
  5
9
330
0
100
AcDbSymbolTable
 70
     1
  0
APPID
  5
12
330
9
100
AcDbSymbolTableRecord
100
AcDbRegAppTableRecord
  2
ACAD
 70
     0
  0
ENDTAB
  0
TABLE
  2
DIMSTYLE
  5
A
330
0
100
AcDbSymbolTable
 70
     1
100
AcDbDimStyleTable
  0
DIMSTYLE
105
27
330
A
100
AcDbSymbolTableRecord
100
AcDbDimStyleTableRecord
  2
ISO-25
 70
     0
 41
2.5
 42
0.625
 43
3.75
 44
1.25
 73
     0
 74
     0
 77
     1
 78
     8
140
2.5
141
2.5
143
0.0393700787
147
0.625
171
     3
172
     1
178
     0
271
     2
272
     2
274
     3
278
    44
283
     0
284
     8
340
11
  0
ENDTAB
  0
TABLE
  2
BLOCK_RECORD
  5
1
330
0
100
AcDbSymbolTable
 70
     1
  0
BLOCK_RECORD
  5
1F
330
1
100
AcDbSymbolTableRecord
100
AcDbBlockTableRecord
  2
*Model_Space
340
22
  0
BLOCK_RECORD
  5
1B
330
1
100
AcDbSymbolTableRecord
100
AcDbBlockTableRecord
  2
*Paper_Space
340
1E
  0
BLOCK_RECORD
  5
23
330
1
100
AcDbSymbolTableRecord
100
AcDbBlockTableRecord
  2
*Paper_Space0
340
26
  0
ENDTAB
  0
ENDSEC
  0
SECTION
  2
BLOCKS
  0
BLOCK
  5
20
330
1F
100
AcDbEntity
  8
0
100
AcDbBlockBegin
  2
*Model_Space
 70
     0
 10
0.0
 20
0.0
 30
0.0
  3
*Model_Space
  1

  0
ENDBLK
  5
21
330
1F
100
AcDbEntity
  8
0
100
AcDbBlockEnd
  0
BLOCK
  5
1C
330
1B
100
AcDbEntity
 67
     1
  8
0
100
AcDbBlockBegin
  2
*Paper_Space
 70
     0
 10
0.0
 20
0.0
 30
0.0
  3
*Paper_Space
  1

  0
ENDBLK
  5
1D
330
1B
100
AcDbEntity
 67
     1
  8
0
100
AcDbBlockEnd
  0
BLOCK
  5
24
330
23
100
AcDbEntity
  8
0
100
AcDbBlockBegin
  2
*Paper_Space0
 70
     0
 10
0.0
 20
0.0
 30
0.0
  3
*Paper_Space0
  1

  0
ENDBLK
  5
25
330
23
100
AcDbEntity
  8
0
100
AcDbBlockEnd
  0
ENDSEC
  0
SECTION
  2
ENTITIES
  0
ARC
  5
73
330
1F
100
AcDbEntity
  8
0
  6
Continuous
 62
     7
370
    25
100
AcDbCircle
 10
330.0511627467
 20
94.74796837
 30
0.0
 40
1.000000000000057
100
AcDbArc
 50
90.0
 51
180.0
  0
LINE
  5
74
330
1F
100
AcDbEntity
  8
0
  6
Continuous
 62
     7
370
    25
100
AcDbLine
 10
342.0511627467
 20
95.74796837
 30
0.0
 11
330.0511627467
 21
95.74796837
 31
0.0
  0
ARC
  5
75
330
1F
100
AcDbEntity
  8
0
  6
Continuous
 62
     7
370
    25
100
AcDbCircle
 10
342.0511627467
 20
94.74796837
 30
0.0
 40
1.000000000000057
100
AcDbArc
 50
0.0
 51
90.0
  0
LINE
  5
76
330
1F
100
AcDbEntity
  8
0
  6
Continuous
 62
     7
370
    25
100
AcDbLine
 10
343.0511627467
 20
82.74796837
 30
0.0
 11
343.0511627467
 21
94.74796837
 31
0.0
  0
ARC
  5
77
330
1F
100
AcDbEntity
  8
0
  6
Continuous
 62
     7
370
    25
100
AcDbCircle
 10
342.0511627467
 20
82.74796837
 30
0.0
 40
1.000000000000057
100
AcDbArc
 50
270.0
 51
360.0
  0
LINE
  5
78
330
1F
100
AcDbEntity
  8
0
  6
Continuous
 62
     7
370
    25
100
AcDbLine
 10
330.0511627467
 20
81.74796837
 30
0.0
 11
342.0511627467
 21
81.74796837
 31
0.0
  0
ARC
  5
79
330
1F
100
AcDbEntity
  8
0
  6
Continuous
 62
     7
370
    25
100
AcDbCircle
 10
330.0511627467
 20
82.74796837
 30
0.0
 40
1.000000000000057
100
AcDbArc
 50
180.0
 51
270.0
  0
LINE
  5
7A
330
1F
100
AcDbEntity
  8
0
  6
Continuous
 62
     7
370
    25
100
AcDbLine
 10
329.0511627467
 20
94.74796837
 30
0.0
 11
329.0511627467
 21
82.74796837
 31
0.0
  0
ARC
  5
7B
330
1F
100
AcDbEntity
  8
0
  6
Continuous
 62
     7
370
    25
100
AcDbCircle
 10
274.2574796925
 20
42.6288711845
 30
0.0
 40
1.000000000000135
100
AcDbArc
 50
270.0
 51
360.0
  0
LINE
  5
7C
330
1F
100
AcDbEntity
  8
0
  6
Continuous
 62
     7
370
    25
100
AcDbLine
 10
268.1387146266
 20
41.6288711845
 30
0.0
 11
274.2574796925
 21
41.6288711845
 31
0.0
  0
ARC
  5
7D
330
1F
100
AcDbEntity
  8
0
  6
Continuous
 62
     7
370
    25
100
AcDbCircle
 10
268.1387146266
 20
42.6288711845
 30
0.0
 40
1.000000000000007
100
AcDbArc
 50
180.0
 51
270.0
  0
LINE
  5
7E
330
1F
100
AcDbEntity
  8
0
  6
Continuous
 62
     7
370
    25
100
AcDbLine
 10
267.1387146266
 20
56.6288833915
 30
0.0
 11
267.1387146266
 21
42.6288711845
 31
0.0
  0
ARC
  5
7F
330
1F
100
AcDbEntity
  8
0
  6
Continuous
 62
     7
370
    25
100
AcDbCircle
 10
268.1387146266
 20
56.6288833915
 30
0.0
 40
1.000000000000054
100
AcDbArc
 50
90.0000050089
 51
180.0
  0
LINE
  5
80
330
1F
100
AcDbEntity
  8
0
  6
Continuous
 62
     7
370
    25
100
AcDbLine
 10
280.1387146266
 20
57.6288833915
 30
0.0
 11
268.1387145392
 21
57.6288833915
 31
0.0
  0
ARC
  5
81
330
1F
100
AcDbEntity
  8
0
  6
Continuous
 62
     7
370
    25
100
AcDbCircle
 10
280.1387146266
 20
56.6288833915
 30
0.0
 40
1.000000000000399
100
AcDbArc
 50
0.0000025045
 51
90.0
  0
LINE
  5
82
330
1F
100
AcDbEntity
  8
0
  6
Continuous
 62
     7
370
    25
100
AcDbLine
 10
281.1387146266
 20
44.6288833915
 30
0.0
 11
281.1387146266
 21
56.6288834352
 31
0.0
  0
ARC
  5
83
330
1F
100
AcDbEntity
  8
0
  6
Continuous
 62
     7
370
    25
100
AcDbCircle
 10
280.1387146266
 20
44.6288833915
 30
0.0
 40
1.000000000000284
100
AcDbArc
 50
270.0000000002
 51
360.0
  0
LINE
  5
84
330
1F
100
AcDbEntity
  8
0
  6
Continuous
 62
     7
370
    25
100
AcDbLine
 10
275.2574796925
 20
43.6288833915
 30
0.0
 11
280.1387146266
 21
43.6288833915
 31
0.0
  0
LINE
  5
85
330
1F
100
AcDbEntity
  8
0
  6
Continuous
 62
     7
370
    25
100
AcDbLine
 10
275.2574796925
 20
42.6288711845
 30
0.0
 11
275.2574796925
 21
43.6288833915
 31
0.0
  0
ARC
  5
86
330
1F
100
AcDbEntity
  8
0
  6
Continuous
 62
     7
370
    25
100
AcDbCircle
 10
351.5762146266
 20
56.6288833915
 30
0.0
 40
0.9999999999990019
100
AcDbArc
 50
0.0000025044
 51
90.000005009
  0
LINE
  5
87
330
1F
100
AcDbEntity
  8
0
  6
Continuous
 62
     7
370
    25
100
AcDbLine
 10
352.5762146266
 20
44.6288833915
 30
0.0
 11
352.5762146266
 21
56.6288834352
 31
0.0
  0
ARC
  5
88
330
1F
100
AcDbEntity
  8
0
  6
Continuous
 62
     7
370
    25
100
AcDbCircle
 10
351.5762146266
 20
44.6288833915
 30
0.0
 40
0.999999999999666
100
AcDbArc
 50
270.0
 51
0.0
  0
LINE
  5
89
330
1F
100
AcDbEntity
  8
0
  6
Continuous
 62
     7
370
    25
100
AcDbLine
 10
337.1949796925
 20
43.6288711845
 30
0.0
 11
351.5762146266
 21
43.6288833915
 31
0.0
  0
ARC
  5
8A
330
1F
100
AcDbEntity
  8
0
  6
Continuous
 62
     7
370
    25
100
AcDbCircle
 10
337.1949796925
 20
44.6288711845
 30
0.0
 40
0.9999999999998934
100
AcDbArc
 50
180.0
 51
270.0
  0
LINE
  5
8B
330
1F
100
AcDbEntity
  8
0
  6
Continuous
 62
     7
370
    25
100
AcDbLine
 10
336.1949796925
 20
56.6288711845
 30
0.0
 11
336.1949796925
 21
44.6288711845
 31
0.0
  0
ARC
  5
8C
330
1F
100
AcDbEntity
  8
0
  6
Continuous
 62
     7
370
    25
100
AcDbCircle
 10
337.1949796925
 20
56.6288711845
 30
0.0
 40
1.000000000000284
100
AcDbArc
 50
90.0
 51
180.0
  0
LINE
  5
8D
330
1F
100
AcDbEntity
  8
0
  6
Continuous
 62
     7
370
    25
100
AcDbLine
 10
351.5762145392
 20
57.6288833915
 30
0.0
 11
337.1949796925
 21
57.6288711845
 31
0.0
  0
ARC
  5
8E
330
1F
100
AcDbEntity
  8
0
  6
Continuous
 62
     7
370
    25
100
AcDbCircle
 10
102.6016495021
 20
61.6979805989
 30
0.0
 40
1.000000000000043
100
AcDbArc
 50
180.0
 51
270.0
  0
LINE
  5
8F
330
1F
100
AcDbEntity
  8
0
  6
Continuous
 62
     7
370
    25
100
AcDbLine
 10
101.6016495021
 20
62.6979805989
 30
0.0
 11
101.6016495021
 21
61.6979805989
 31
0.0
  0
LINE
  5
90
330
1F
100
AcDbEntity
  8
0
  6
Continuous
 62
     7
370
    25
100
AcDbLine
 10
84.7257030596
 20
62.6979867133
 30
0.0
 11
101.6016495021
 21
62.6979805989
 31
0.0
  0
LINE
  5
91
330
1F
100
AcDbEntity
  8
0
  6
Continuous
 62
     7
370
    25
100
AcDbLine
 10
84.7256729396
 20
61.6979805989
 30
0.0
 11
84.7257030596
 21
62.6979867133
 31
0.0
  0
ARC
  5
92
330
1F
100
AcDbEntity
  8
0
  6
Continuous
 62
     7
370
    25
100
AcDbCircle
 10
83.7256729396
 20
61.6979805989
 30
0.0
 40
1.000000000011809
100
AcDbArc
 50
270.0
 51
0.0
  0
LINE
  5
93
330
1F
100
AcDbEntity
  8
0
  6
Continuous
 62
     7
370
    25
100
AcDbLine
 10
78.7256729396
 20
60.6979805989
 30
0.0
 11
83.7256729396
 21
60.6979805989
 31
0.0
  0
ARC
  5
94
330
1F
100
AcDbEntity
  8
0
  6
Continuous
 62
     7
370
    25
100
AcDbCircle
 10
78.7256729396
 20
61.6979805989
 30
0.0
 40
0.9999999999999787
100
AcDbArc
 50
180.0
 51
270.0
  0
LINE
  5
95
330
1F
100
AcDbEntity
  8
0
  6
Continuous
 62
     7
370
    25
100
AcDbLine
 10
77.7256729396
 20
62.6979805989
 30
0.0
 11
77.7256729396
 21
61.6979805989
 31
0.0
  0
LINE
  5
96
330
1F
100
AcDbEntity
  8
0
  6
Continuous
 62
     7
370
    25
100
AcDbLine
 10
77.6399066432
 20
62.6979805989
 30
0.0
 11
77.7256729396
 21
62.6979805989
 31
0.0
  0
ARC
  5
97
330
1F
100
AcDbEntity
  8
0
  6
Continuous
 62
     7
370
    25
100
AcDbCircle
 10
77.6399066432
 20
63.6979805989
 30
0.0
 40
0.9999999999999147
100
AcDbArc
 50
180.0
 51
270.0
  0
LINE
  5
98
330
1F
100
AcDbEntity
  8
0
  6
Continuous
 62
     7
370
    25
100
AcDbLine
 10
76.6399066432
 20
75.697980577
 30
0.0
 11
76.6399066432
 21
63.6979805989
 31
0.0
  0
ARC
  5
99
330
1F
100
AcDbEntity
  8
0
  6
Continuous
 62
     7
370
    25
100
AcDbCircle
 10
77.6399066432
 20
75.697980577
 30
0.0
 40
0.9999999999999005
100
AcDbArc
 50
90.0
 51
180.0
  0
LINE
  5
9A
330
1F
100
AcDbEntity
  8
0
  6
Continuous
 62
     7
370
    25
100
AcDbLine
 10
111.0699066432
 20
76.697980577
 30
0.0
 11
77.6399066432
 21
76.697980577
 31
0.0
  0
ARC
  5
9B
330
1F
100
AcDbEntity
  8
0
  6
Continuous
 62
     7
370
    25
100
AcDbCircle
 10
111.0699066432
 20
75.697980577
 30
0.0
 40
0.9999999999998863
100
AcDbArc
 50
0.0
 51
90.0
  0
LINE
  5
9C
330
1F
100
AcDbEntity
  8
0
  6
Continuous
 62
     7
370
    25
100
AcDbLine
 10
112.0699066432
 20
63.697980577
 30
0.0
 11
112.0699066432
 21
75.697980577
 31
0.0
  0
ARC
  5
9D
330
1F
100
AcDbEntity
  8
0
  6
Continuous
 62
     7
370
    25
100
AcDbCircle
 10
111.0699066432
 20
63.697980577
 30
0.0
 40
0.9999999999998792
100
AcDbArc
 50
270.0000000002
 51
360.0
  0
LINE
  5
9E
330
1F
100
AcDbEntity
  8
0
  6
Continuous
 62
     7
370
    25
100
AcDbLine
 10
108.6016495021
 20
62.697980577
 30
0.0
 11
111.0699066432
 21
62.697980577
 31
0.0
  0
LINE
  5
9F
330
1F
100
AcDbEntity
  8
0
  6
Continuous
 62
     7
370
    25
100
AcDbLine
 10
108.6016495021
 20
61.6979805989
 30
0.0
 11
108.6016495021
 21
62.697980577
 31
0.0
  0
ARC
  5
A0
330
1F
100
AcDbEntity
  8
0
  6
Continuous
 62
     7
370
    25
100
AcDbCircle
 10
107.6016495021
 20
61.6979805989
 30
0.0
 40
1.000000000000028
100
AcDbArc
 50
270.0
 51
360.0
  0
LINE
  5
A1
330
1F
100
AcDbEntity
  8
0
  6
Continuous
 62
     7
370
    25
100
AcDbLine
 10
102.6016495021
 20
60.6979805989
 30
0.0
 11
107.6016495021
 21
60.6979805989
 31
0.0
  0
ARC
  5
A2
330
1F
100
AcDbEntity
  8
0
  6
Continuous
 62
     7
370
    25
100
AcDbCircle
 10
353.9574615748
 20
63.6979988876
 30
0.0
 40
1.000000000000135
100
AcDbArc
 50
270.0
 51
360.0
  0
LINE
  5
A3
330
1F
100
AcDbEntity
  8
0
  6
Continuous
 62
     7
370
    25
100
AcDbLine
 10
346.7266418727
 20
62.6979988876
 30
0.0
 11
353.9574615748
 21
62.6979988876
 31
0.0
  0
LINE
  5
A4
330
1F
100
AcDbEntity
  8
0
  6
Continuous
 62
     7
370
    25
100
AcDbLine
 10
346.7266418727
 20
61.6979744735
 30
0.0
 11
346.7266418727
 21
62.6979988876
 31
0.0
  0
ARC
  5
A5
330
1F
100
AcDbEntity
  8
0
  6
Continuous
 62
     7
370
    25
100
AcDbCircle
 10
345.7266418727
 20
61.6979744735
 30
0.0
 40
1.00000000000847
100
AcDbArc
 50
269.9999999991
 51
0.0000000006
  0
LINE
  5
A6
330
1F
100
AcDbEntity
  8
0
  6
Continuous
 62
     7
370
    25
100
AcDbLine
 10
340.7266418727
 20
60.6979744735
 30
0.0
 11
345.7266418727
 21
60.6979744735
 31
0.0
  0
ARC
  5
A7
330
1F
100
AcDbEntity
  8
0
  6
Continuous
 62
     7
370
    25
100
AcDbCircle
 10
340.7266418727
 20
61.6979744735
 30
0.0
 40
1.000000000020442
100
AcDbArc
 50
180.0
 51
269.9999999993
  0
LINE
  5
A8
330
1F
100
AcDbEntity
  8
0
  6
Continuous
 62
     7
370
    25
100
AcDbLine
 10
339.7266117408
 20
75.6979866805
 30
0.0
 11
339.7266418726
 21
61.6979744735
 31
0.0
  0
ARC
  5
A9
330
1F
100
AcDbEntity
  8
0
  6
Continuous
 62
     7
370
    25
100
AcDbCircle
 10
340.7266117437
 20
75.6979866835
 30
0.0
 40
1.000000002918853
100
AcDbArc
 50
90.2831698267
 51
180.0000001674
  0
LINE
  5
AA
330
1F
100
AcDbEntity
  8
0
  6
Continuous
 62
     7
370
    25
100
AcDbLine
 10
353.9574615748
 20
76.6979988876
 30
0.0
 11
340.721669518
 21
76.6979744735
 31
0.0
  0
ARC
  5
AB
330
1F
100
AcDbEntity
  8
0
  6
Continuous
 62
     7
370
    25
100
AcDbCircle
 10
353.9574615748
 20
75.6979988876
 30
0.0
 40
0.9999999999999432
100
AcDbArc
 50
0.0
 51
90.0
  0
LINE
  5
AC
330
1F
100
AcDbEntity
  8
0
  6
Continuous
 62
     7
370
    25
100
AcDbLine
 10
354.9574615748
 20
63.6979988876
 30
0.0
 11
354.9574615748
 21
75.6979988876
 31
0.0
  0
ARC
  5
AD
330
1F
100
AcDbEntity
  8
0
  6
Continuous
 62
     7
370
    25
100
AcDbCircle
 10
316.8506653102
 20
61.6979744735
 30
0.0
 40
1.000000000000398
100
AcDbArc
 50
180.0
 51
269.9999999999
  0
LINE
  5
AE
330
1F
100
AcDbEntity
  8
0
  6
Continuous
 62
     7
370
    25
100
AcDbLine
 10
315.8506653102
 20
62.6979988876
 30
0.0
 11
315.8506653102
 21
61.6979744735
 31
0.0
  0
LINE
  5
AF
330
1F
100
AcDbEntity
  8
0
  6
Continuous
 62
     7
370
    25
100
AcDbLine
 10
315.7637115748
 20
62.6979988876
 30
0.0
 11
315.8506653102
 21
62.6979988876
 31
0.0
  0
ARC
  5
B0
330
1F
100
AcDbEntity
  8
0
  6
Continuous
 62
     7
370
    25
100
AcDbCircle
 10
315.7637115748
 20
63.6979988876
 30
0.0
 40
1.000000000000171
100
AcDbArc
 50
180.0
 51
269.9999999986
  0
LINE
  5
B1
330
1F
100
AcDbEntity
  8
0
  6
Continuous
 62
     7
370
    25
100
AcDbLine
 10
314.7637115748
 20
75.6979988876
 30
0.0
 11
314.7637115748
 21
63.6979988876
 31
0.0
  0
ARC
  5
B2
330
1F
100
AcDbEntity
  8
0
  6
Continuous
 62
     7
370
    25
100
AcDbCircle
 10
315.7637115748
 20
75.6979988876
 30
0.0
 40
0.9999999999998863
100
AcDbArc
 50
90.0
 51
180.0
  0
LINE
  5
B3
330
1F
100
AcDbEntity
  8
0
  6
Continuous
 62
     7
370
    25
100
AcDbLine
 10
337.2886535914
 20
76.6979744735
 30
0.0
 11
315.7637115748
 21
76.6979988876
 31
0.0
  0
ARC
  5
B4
330
1F
100
AcDbEntity
  8
0
  6
Continuous
 62
     7
370
    25
100
AcDbCircle
 10
337.2886535914
 20
75.6979744735
 30
0.0
 40
1.000000000000114
100
AcDbArc
 50
360.0
 51
90.0
  0
LINE
  5
B5
330
1F
100
AcDbEntity
  8
0
  6
Continuous
 62
     7
370
    25
100
AcDbLine
 10
338.2886535914
 20
63.6979744735
 30
0.0
 11
338.2886535914
 21
75.6979744735
 31
0.0
  0
ARC
  5
B6
330
1F
100
AcDbEntity
  8
0
  6
Continuous
 62
     7
370
    25
100
AcDbCircle
 10
337.2886535914
 20
63.6979744735
 30
0.0
 40
0.9999999999996589
100
AcDbArc
 50
270.0
 51
360.0
  0
LINE
  5
B7
330
1F
100
AcDbEntity
  8
0
  6
Continuous
 62
     7
370
    25
100
AcDbLine
 10
322.8506653102
 20
62.6979988382
 30
0.0
 11
337.2886535914
 21
62.6979744735
 31
0.0
  0
LINE
  5
B8
330
1F
100
AcDbEntity
  8
0
  6
Continuous
 62
     7
370
    25
100
AcDbLine
 10
322.8506653102
 20
61.6979744735
 30
0.0
 11
322.8506653102
 21
62.6979988382
 31
0.0
  0
ARC
  5
B9
330
1F
100
AcDbEntity
  8
0
  6
Continuous
 62
     7
370
    25
100
AcDbCircle
 10
321.8506653102
 20
61.6979744735
 30
0.0
 40
1.000000000000398
100
AcDbArc
 50
270.0000000001
 51
360.0
  0
LINE
  5
BA
330
1F
100
AcDbEntity
  8
0
  6
Continuous
 62
     7
370
    25
100
AcDbLine
 10
316.8506653102
 20
60.6979744735
 30
0.0
 11
321.8506653102
 21
60.6979744735
 31
0.0
  0
ARC
  5
BB
330
1F
100
AcDbEntity
  8
0
  6
Continuous
 62
     7
370
    25
100
AcDbCircle
 10
77.6387146266
 20
56.6288833915
 30
0.0
 40
1.000000000000369
100
AcDbArc
 50
90.0
 51
180.0
  0
LINE
  5
BC
330
1F
100
AcDbEntity
  8
0
  6
Continuous
 62
     7
370
    25
100
AcDbLine
 10
92.0199796925
 20
57.6288711845
 30
0.0
 11
77.6387146266
 21
57.6288833915
 31
0.0
  0
ARC
  5
BD
330
1F
100
AcDbEntity
  8
0
  6
Continuous
 62
     7
370
    25
100
AcDbCircle
 10
92.0199796925
 20
56.6288711845
 30
0.0
 40
1.000000000000249
100
AcDbArc
 50
0.0
 51
90.0
  0
LINE
  5
BE
330
1F
100
AcDbEntity
  8
0
  6
Continuous
 62
     7
370
    25
100
AcDbLine
 10
93.0199796925
 20
44.6288711845
 30
0.0
 11
93.0199796925
 21
56.6288711845
 31
0.0
  0
ARC
  5
BF
330
1F
100
AcDbEntity
  8
0
  6
Continuous
 62
     7
370
    25
100
AcDbCircle
 10
92.0199796925
 20
44.6288711845
 30
0.0
 40
0.9999999999999574
100
AcDbArc
 50
270.0
 51
360.0
  0
LINE
  5
C0
330
1F
100
AcDbEntity
  8
0
  6
Continuous
 62
     7
370
    25
100
AcDbLine
 10
77.6387146266
 20
43.6288833915
 30
0.0
 11
92.0199796925
 21
43.6288711845
 31
0.0
  0
ARC
  5
C1
330
1F
100
AcDbEntity
  8
0
  6
Continuous
 62
     7
370
    25
100
AcDbCircle
 10
77.6387146266
 20
44.6288833915
 30
0.0
 40
1.0000000000001
100
AcDbArc
 50
179.9999974955
 51
270.0
  0
LINE
  5
C2
330
1F
100
AcDbEntity
  8
0
  6
Continuous
 62
     7
370
    25
100
AcDbLine
 10
76.6387146266
 20
56.6288833915
 30
0.0
 11
76.6387146266
 21
44.6288834352
 31
0.0
  0
ARC
  5
C3
330
1F
100
AcDbEntity
  8
0
  6
Continuous
 62
     7
370
    25
100
AcDbCircle
 10
115.8324796925
 20
44.6288711845
 30
0.0
 40
0.9999999999999574
100
AcDbArc
 50
270.0
 51
360.0
  0
LINE
  5
C4
330
1F
100
AcDbEntity
  8
0
  6
Continuous
 62
     7
370
    25
100
AcDbLine
 10
101.4512146266
 20
43.6288833915
 30
0.0
 11
115.8324796925
 21
43.6288711845
 31
0.0
  0
ARC
  5
C5
330
1F
100
AcDbEntity
  8
0
  6
Continuous
 62
     7
370
    25
100
AcDbCircle
 10
101.4512146266
 20
44.6288833915
 30
0.0
 40
1.000000000000135
100
AcDbArc
 50
179.9999974955
 51
270.0
  0
LINE
  5
C6
330
1F
100
AcDbEntity
  8
0
  6
Continuous
 62
     7
370
    25
100
AcDbLine
 10
100.4512146266
 20
56.6288833915
 30
0.0
 11
100.4512146266
 21
44.6288834352
 31
0.0
  0
ARC
  5
C7
330
1F
100
AcDbEntity
  8
0
  6
Continuous
 62
     7
370
    25
100
AcDbCircle
 10
101.4512146266
 20
56.6288833915
 30
0.0
 40
1.00000000000027
100
AcDbArc
 50
90.0
 51
180.0
  0
LINE
  5
C8
330
1F
100
AcDbEntity
  8
0
  6
Continuous
 62
     7
370
    25
100
AcDbLine
 10
115.8324796925
 20
57.6288711845
 30
0.0
 11
101.4512146266
 21
57.6288833915
 31
0.0
  0
ARC
  5
C9
330
1F
100
AcDbEntity
  8
0
  6
Continuous
 62
     7
370
    25
100
AcDbCircle
 10
115.8324796925
 20
56.6288711845
 30
0.0
 40
1.000000000000249
100
AcDbArc
 50
0.0
 51
90.0
  0
LINE
  5
CA
330
1F
100
AcDbEntity
  8
0
  6
Continuous
 62
     7
370
    25
100
AcDbLine
 10
116.8324796925
 20
44.6288711845
 30
0.0
 11
116.8324796925
 21
56.6288711845
 31
0.0
  0
ARC
  5
CB
330
1F
100
AcDbEntity
  8
0
  6
Continuous
 62
     7
370
    25
100
AcDbCircle
 10
255.2074707301
 20
55.625160247
 30
0.0
 40
1.000000000000427
100
AcDbArc
 50
0.0000025045
 51
90.0
  0
LINE
  5
CC
330
1F
100
AcDbEntity
  8
0
  6
Continuous
 62
     7
370
    25
100
AcDbLine
 10
256.2074707301
 20
42.625160247
 30
0.0
 11
256.2074707301
 21
55.6251602907
 31
0.0
  0
ARC
  5
CD
330
1F
100
AcDbEntity
  8
0
  6
Continuous
 62
     7
370
    25
100
AcDbCircle
 10
255.2074707301
 20
42.625160247
 30
0.0
 40
1.000000000000384
100
AcDbArc
 50
270.0
 51
360.0
  0
LINE
  5
CE
330
1F
100
AcDbEntity
  8
0
  6
Continuous
 62
     7
370
    25
100
AcDbLine
 10
250.2074707301
 20
41.625160247
 30
0.0
 11
255.2074707301
 21
41.625160247
 31
0.0
  0
ARC
  5
CF
330
1F
100
AcDbEntity
  8
0
  6
Continuous
 62
     7
370
    25
100
AcDbCircle
 10
250.2074707301
 20
42.625160247
 30
0.0
 40
0.9999999999998366
100
AcDbArc
 50
180.0
 51
270.0
  0
LINE
  5
D0
330
1F
100
AcDbEntity
  8
0
  6
Continuous
 62
     7
370
    25
100
AcDbLine
 10
249.2074707301
 20
55.625160247
 30
0.0
 11
249.2074707301
 21
42.625160247
 31
0.0
  0
ARC
  5
D1
330
1F
100
AcDbEntity
  8
0
  6
Continuous
 62
     7
370
    25
100
AcDbCircle
 10
250.2074707301
 20
55.625160247
 30
0.0
 40
1.000000000000313
100
AcDbArc
 50
90.000005009
 51
180.0
  0
LINE
  5
D2
330
1F
100
AcDbEntity
  8
0
  6
Continuous
 62
     7
370
    25
100
AcDbLine
 10
255.2074707301
 20
56.625160247
 30
0.0
 11
250.2074706427
 21
56.625160247
 31
0.0
  0
ARC
  5
D3
330
1F
100
AcDbEntity
  8
0
  6
Continuous
 62
     7
370
    25
100
AcDbCircle
 10
159.9574796925
 20
55.6288711845
 30
0.0
 40
1.000000000000206
100
AcDbArc
 50
0.0
 51
89.9999999999
  0
LINE
  5
D4
330
1F
100
AcDbEntity
  8
0
  6
Continuous
 62
     7
370
    25
100
AcDbLine
 10
160.9574796925
 20
42.6288711845
 30
0.0
 11
160.9574796925
 21
55.6288711845
 31
0.0
  0
ARC
  5
D5
330
1F
100
AcDbEntity
  8
0
  6
Continuous
 62
     7
370
    25
100
AcDbCircle
 10
159.9574796925
 20
42.6288711845
 30
0.0
 40
1.000000000000199
100
AcDbArc
 50
270.0
 51
360.0
  0
LINE
  5
D6
330
1F
100
AcDbEntity
  8
0
  6
Continuous
 62
     7
370
    25
100
AcDbLine
 10
150.1949585231
 20
41.625160247
 30
0.0
 11
159.9574796925
 21
41.6288711845
 31
0.0
  0
ARC
  5
D7
330
1F
100
AcDbEntity
  8
0
  6
Continuous
 62
     7
370
    25
100
AcDbCircle
 10
150.1949585231
 20
42.625160247
 30
0.0
 40
0.9999999999998934
100
AcDbArc
 50
180.0
 51
270.0
  0
LINE
  5
D8
330
1F
100
AcDbEntity
  8
0
  6
Continuous
 62
     7
370
    25
100
AcDbLine
 10
149.1949585231
 20
55.625160247
 30
0.0
 11
149.1949585231
 21
42.625160247
 31
0.0
  0
ARC
  5
D9
330
1F
100
AcDbEntity
  8
0
  6
Continuous
 62
     7
370
    25
100
AcDbCircle
 10
150.1949585231
 20
55.625160247
 30
0.0
 40
0.9999999999997726
100
AcDbArc
 50
90.0000050089
 51
180.0
  0
LINE
  5
DA
330
1F
100
AcDbEntity
  8
0
  6
Continuous
 62
     7
370
    25
100
AcDbLine
 10
159.9574796925
 20
56.6288711845
 30
0.0
 11
150.1949584356
 21
56.625160247
 31
0.0
  0
ARC
  5
DB
330
1F
100
AcDbEntity
  8
0
  6
Continuous
 62
     7
370
    25
100
AcDbCircle
 10
303.9512146266
 20
56.6288833915
 30
0.0
 40
1.000000000000004
100
AcDbArc
 50
0.0000025045
 51
90.0000050089
  0
LINE
  5
DC
330
1F
100
AcDbEntity
  8
0
  6
Continuous
 62
     7
370
    25
100
AcDbLine
 10
304.9512146266
 20
44.6288833915
 30
0.0
 11
304.9512146266
 21
56.6288834352
 31
0.0
  0
ARC
  5
DD
330
1F
100
AcDbEntity
  8
0
  6
Continuous
 62
     7
370
    25
100
AcDbCircle
 10
303.9512146266
 20
44.6288833915
 30
0.0
 40
1.000000000000284
100
AcDbArc
 50
270.0
 51
360.0
  0
LINE
  5
DE
330
1F
100
AcDbEntity
  8
0
  6
Continuous
 62
     7
370
    25
100
AcDbLine
 10
289.5699796925
 20
43.6288711845
 30
0.0
 11
303.9512146266
 21
43.6288833915
 31
0.0
  0
ARC
  5
DF
330
1F
100
AcDbEntity
  8
0
  6
Continuous
 62
     7
370
    25
100
AcDbCircle
 10
289.5699796925
 20
44.6288711845
 30
0.0
 40
0.9999999999994529
100
AcDbArc
 50
180.0
 51
270.0
  0
LINE
  5
E0
330
1F
100
AcDbEntity
  8
0
  6
Continuous
 62
     7
370
    25
100
AcDbLine
 10
288.5699796925
 20
56.6288711845
 30
0.0
 11
288.5699796925
 21
44.6288711845
 31
0.0
  0
ARC
  5
E1
330
1F
100
AcDbEntity
  8
0
  6
Continuous
 62
     7
370
    25
100
AcDbCircle
 10
289.5699796925
 20
56.6288711845
 30
0.0
 40
0.9999999999998863
100
AcDbArc
 50
90.0
 51
180.0
  0
LINE
  5
E2
330
1F
100
AcDbEntity
  8
0
  6
Continuous
 62
     7
370
    25
100
AcDbLine
 10
303.9512145392
 20
57.6288833915
 30
0.0
 11
289.5699796925
 21
57.6288711845
 31
0.0
  0
ARC
  5
E3
330
1F
100
AcDbEntity
  8
0
  6
Continuous
 62
     7
370
    25
100
AcDbCircle
 10
327.7637146266
 20
56.6288833915
 30
0.0
 40
0.9999999999994496
100
AcDbArc
 50
0.0000025044
 51
90.000005009
  0
LINE
  5
E4
330
1F
100
AcDbEntity
  8
0
  6
Continuous
 62
     7
370
    25
100
AcDbLine
 10
328.7637146266
 20
44.6288833915
 30
0.0
 11
328.7637146266
 21
56.6288834352
 31
0.0
  0
ARC
  5
E5
330
1F
100
AcDbEntity
  8
0
  6
Continuous
 62
     7
370
    25
100
AcDbCircle
 10
327.7637146266
 20
44.6288833915
 30
0.0
 40
0.9999999999998366
100
AcDbArc
 50
270.0
 51
0.0
  0
LINE
  5
E6
330
1F
100
AcDbEntity
  8
0
  6
Continuous
 62
     7
370
    25
100
AcDbLine
 10
313.3824796925
 20
43.6288711845
 30
0.0
 11
327.7637146266
 21
43.6288833915
 31
0.0
  0
ARC
  5
E7
330
1F
100
AcDbEntity
  8
0
  6
Continuous
 62
     7
370
    25
100
AcDbCircle
 10
313.3824796925
 20
44.6288711845
 30
0.0
 40
0.9999999999998295
100
AcDbArc
 50
180.0
 51
270.0
  0
LINE
  5
E8
330
1F
100
AcDbEntity
  8
0
  6
Continuous
 62
     7
370
    25
100
AcDbLine
 10
312.3824796925
 20
56.6288711845
 30
0.0
 11
312.3824796925
 21
44.6288711845
 31
0.0
  0
ARC
  5
E9
330
1F
100
AcDbEntity
  8
0
  6
Continuous
 62
     7
370
    25
100
AcDbCircle
 10
313.3824796925
 20
56.6288711845
 30
0.0
 40
1.000000000000341
100
AcDbArc
 50
90.0
 51
180.0
  0
LINE
  5
EA
330
1F
100
AcDbEntity
  8
0
  6
Continuous
 62
     7
370
    25
100
AcDbLine
 10
327.7637145392
 20
57.6288833915
 30
0.0
 11
313.3824796925
 21
57.6288711845
 31
0.0
  0
ARC
  5
EB
330
1F
100
AcDbEntity
  8
0
  6
Continuous
 62
     7
370
    25
100
AcDbCircle
 10
337.1949127467
 20
101.79796837
 30
0.0
 40
1.000000000000057
100
AcDbArc
 50
180.0
 51
270.0
  0
LINE
  5
EC
330
1F
100
AcDbEntity
  8
0
  6
Continuous
 62
     7
370
    25
100
AcDbLine
 10
336.1949127467
 20
101.79796837
 30
0.0
 11
336.1949127467
 21
113.79796837
 31
0.0
  0
ARC
  5
ED
330
1F
100
AcDbEntity
  8
0
  6
Continuous
 62
     7
370
    25
100
AcDbCircle
 10
337.1949127467
 20
113.79796837
 30
0.0
 40
1.000000000000057
100
AcDbArc
 50
90.0
 51
180.0
  0
LINE
  5
EE
330
1F
100
AcDbEntity
  8
0
  6
Continuous
 62
     7
370
    25
100
AcDbLine
 10
337.1949127467
 20
114.79796837
 30
0.0
 11
349.1949127467
 21
114.79796837
 31
0.0
  0
ARC
  5
EF
330
1F
100
AcDbEntity
  8
0
  6
Continuous
 62
     7
370
    25
100
AcDbCircle
 10
349.1949127467
 20
113.79796837
 30
0.0
 40
1.000000000000071
100
AcDbArc
 50
0.0
 51
90.0
  0
LINE
  5
F0
330
1F
100
AcDbEntity
  8
0
  6
Continuous
 62
     7
370
    25
100
AcDbLine
 10
350.1949127467
 20
101.79796837
 30
0.0
 11
350.1949127467
 21
113.79796837
 31
0.0
  0
ARC
  5
F1
330
1F
100
AcDbEntity
  8
0
  6
Continuous
 62
     7
370
    25
100
AcDbCircle
 10
349.1949127467
 20
101.79796837
 30
0.0
 40
0.9999999999999432
100
AcDbArc
 50
270.0
 51
0.0
  0
LINE
  5
F2
330
1F
100
AcDbEntity
  8
0
  6
Continuous
 62
     7
370
    25
100
AcDbLine
 10
337.1949127467
 20
100.79796837
 30
0.0
 11
349.1949127467
 21
100.79796837
 31
0.0
  0
ARC
  5
F3
330
1F
100
AcDbEntity
  8
0
  6
Continuous
 62
     7
370
    25
100
AcDbCircle
 10
322.9073944361
 20
132.8479744735
 30
0.0
 40
1.000000000000171
100
AcDbArc
 50
90.0
 51
180.0
  0
LINE
  5
F4
330
1F
100
AcDbEntity
  8
0
  6
Continuous
 62
     7
370
    25
100
AcDbLine
 10
353.9573944361
 20
133.8479744735
 30
0.0
 11
322.9073944361
 21
133.8479744735
 31
0.0
  0
ARC
  5
F5
330
1F
100
AcDbEntity
  8
0
  6
Continuous
 62
     7
370
    25
100
AcDbCircle
 10
353.9573944361
 20
132.8479744735
 30
0.0
 40
1.000000000000085
100
AcDbArc
 50
0.0000025045
 51
90.0
  0
LINE
  5
F6
330
1F
100
AcDbEntity
  8
0
  6
Continuous
 62
     7
370
    25
100
AcDbLine
 10
354.9573944361
 20
120.8479744735
 30
0.0
 11
354.9573944361
 21
132.8479745172
 31
0.0
  0
ARC
  5
F7
330
1F
100
AcDbEntity
  8
0
  6
Continuous
 62
     7
370
    25
100
AcDbCircle
 10
353.9573944361
 20
120.8479744735
 30
0.0
 40
1.000000000000114
100
AcDbArc
 50
270.0
 51
0.0
  0
LINE
  5
F8
330
1F
100
AcDbEntity
  8
0
  6
Continuous
 62
     7
370
    25
100
AcDbLine
 10
353.8703949244
 20
119.8479744735
 30
0.0
 11
353.9573944361
 21
119.8479744735
 31
0.0
  0
LINE
  5
F9
330
1F
100
AcDbEntity
  8
0
  6
Continuous
 62
     7
370
    25
100
AcDbLine
 10
353.8703949244
 20
118.8479744735
 30
0.0
 11
353.8703949244
 21
119.8479744735
 31
0.0
  0
ARC
  5
FA
330
1F
100
AcDbEntity
  8
0
  6
Continuous
 62
     7
370
    25
100
AcDbCircle
 10
352.8703949244
 20
118.8479744735
 30
0.0
 40
0.9999999999998863
100
AcDbArc
 50
270.0
 51
0.0
  0
LINE
  5
FB
330
1F
100
AcDbEntity
  8
0
  6
Continuous
 62
     7
370
    25
100
AcDbLine
 10
347.8703949244
 20
117.8479744735
 30
0.0
 11
352.8703949244
 21
117.8479744735
 31
0.0
  0
ARC
  5
FC
330
1F
100
AcDbEntity
  8
0
  6
Continuous
 62
     7
370
    25
100
AcDbCircle
 10
347.8703949244
 20
118.8479744735
 30
0.0
 40
0.9999999999999432
100
AcDbArc
 50
180.0
 51
270.0
  0
LINE
  5
FD
330
1F
100
AcDbEntity
  8
0
  6
Continuous
 62
     7
370
    25
100
AcDbLine
 10
346.8703949244
 20
119.8479744735
 30
0.0
 11
346.8703949244
 21
118.8479744735
 31
0.0
  0
LINE
  5
FE
330
1F
100
AcDbEntity
  8
0
  6
Continuous
 62
     7
370
    25
100
AcDbLine
 10
329.9944484464
 20
119.8479744735
 30
0.0
 11
346.8703949244
 21
119.8479744735
 31
0.0
  0
LINE
  5
FF
330
1F
100
AcDbEntity
  8
0
  6
Continuous
 62
     7
370
    25
100
AcDbLine
 10
329.9944183619
 20
118.8479744735
 30
0.0
 11
329.9944484464
 21
119.8479744735
 31
0.0
  0
ARC
  5
100
330
1F
100
AcDbEntity
  8
0
  6
Continuous
 62
     7
370
    25
100
AcDbCircle
 10
328.9944183619
 20
118.8479744735
 30
0.0
 40
0.9999999999998295
100
AcDbArc
 50
270.0
 51
0.0
  0
LINE
  5
101
330
1F
100
AcDbEntity
  8
0
  6
Continuous
 62
     7
370
    25
100
AcDbLine
 10
323.9944183619
 20
117.8479744735
 30
0.0
 11
328.9944183619
 21
117.8479744735
 31
0.0
  0
ARC
  5
102
330
1F
100
AcDbEntity
  8
0
  6
Continuous
 62
     7
370
    25
100
AcDbCircle
 10
323.9944183619
 20
118.8479744735
 30
0.0
 40
0.9999999999999432
100
AcDbArc
 50
180.0
 51
270.0
  0
LINE
  5
103
330
1F
100
AcDbEntity
  8
0
  6
Continuous
 62
     7
370
    25
100
AcDbLine
 10
322.9944183619
 20
119.8479744735
 30
0.0
 11
322.9944183619
 21
118.8479744735
 31
0.0
  0
LINE
  5
104
330
1F
100
AcDbEntity
  8
0
  6
Continuous
 62
     7
370
    25
100
AcDbLine
 10
322.9073944361
 20
119.8479744735
 30
0.0
 11
322.9944183619
 21
119.8479744735
 31
0.0
  0
ARC
  5
105
330
1F
100
AcDbEntity
  8
0
  6
Continuous
 62
     7
370
    25
100
AcDbCircle
 10
322.9073944361
 20
120.8479744735
 30
0.0
 40
1.000000000000071
100
AcDbArc
 50
179.9999974955
 51
269.9999999998
  0
LINE
  5
106
330
1F
100
AcDbEntity
  8
0
  6
Continuous
 62
     7
370
    25
100
AcDbLine
 10
321.9073944361
 20
132.8479744735
 30
0.0
 11
321.9073944361
 21
120.8479745172
 31
0.0
  0
ARC
  5
107
330
1F
100
AcDbEntity
  8
0
  6
Continuous
 62
     7
370
    25
100
AcDbCircle
 10
139.6449796925
 20
56.6288711845
 30
0.0
 40
1.000000000000306
100
AcDbArc
 50
0.0
 51
90.0
  0
LINE
  5
108
330
1F
100
AcDbEntity
  8
0
  6
Continuous
 62
     7
370
    25
100
AcDbLine
 10
140.6449796925
 20
44.6288711845
 30
0.0
 11
140.6449796925
 21
56.6288711845
 31
0.0
  0
ARC
  5
109
330
1F
100
AcDbEntity
  8
0
  6
Continuous
 62
     7
370
    25
100
AcDbCircle
 10
139.6449796925
 20
44.6288711845
 30
0.0
 40
0.9999999999998721
100
AcDbArc
 50
270.0
 51
0.0
  0
LINE
  5
10A
330
1F
100
AcDbEntity
  8
0
  6
Continuous
 62
     7
370
    25
100
AcDbLine
 10
125.2637146266
 20
43.6288833915
 30
0.0
 11
139.6449796925
 21
43.6288711845
 31
0.0
  0
ARC
  5
10B
330
1F
100
AcDbEntity
  8
0
  6
Continuous
 62
     7
370
    25
100
AcDbCircle
 10
125.2637146266
 20
44.6288833915
 30
0.0
 40
1.000000000000115
100
AcDbArc
 50
179.9999974955
 51
270.0
  0
LINE
  5
10C
330
1F
100
AcDbEntity
  8
0
  6
Continuous
 62
     7
370
    25
100
AcDbLine
 10
124.2637146266
 20
56.6288833915
 30
0.0
 11
124.2637146266
 21
44.6288834352
 31
0.0
  0
ARC
  5
10D
330
1F
100
AcDbEntity
  8
0
  6
Continuous
 62
     7
370
    25
100
AcDbCircle
 10
125.2637146266
 20
56.6288833915
 30
0.0
 40
1.000000000000256
100
AcDbArc
 50
90.0
 51
180.0
  0
LINE
  5
10E
330
1F
100
AcDbEntity
  8
0
  6
Continuous
 62
     7
370
    25
100
AcDbLine
 10
139.6449796925
 20
57.6288711845
 30
0.0
 11
125.2637146266
 21
57.6288833915
 31
0.0
  0
ARC
  5
10F
330
1F
100
AcDbEntity
  8
0
  6
Continuous
 62
     7
370
    25
100
AcDbCircle
 10
384.8199127467
 20
56.64796837
 30
0.0
 40
1.000000000000057
100
AcDbArc
 50
90.0
 51
180.0
  0
LINE
  5
110
330
1F
100
AcDbEntity
  8
0
  6
Continuous
 62
     7
370
    25
100
AcDbLine
 10
384.8199127467
 20
57.64796837
 30
0.0
 11
396.8199127467
 21
57.64796837
 31
0.0
  0
ARC
  5
111
330
1F
100
AcDbEntity
  8
0
  6
Continuous
 62
     7
370
    25
100
AcDbCircle
 10
396.8199127467
 20
56.64796837
 30
0.0
 40
1.000000000000007
100
AcDbArc
 50
0.0
 51
90.0
  0
LINE
  5
112
330
1F
100
AcDbEntity
  8
0
  6
Continuous
 62
     7
370
    25
100
AcDbLine
 10
397.8199127467
 20
44.64796837
 30
0.0
 11
397.8199127467
 21
56.64796837
 31
0.0
  0
ARC
  5
113
330
1F
100
AcDbEntity
  8
0
  6
Continuous
 62
     7
370
    25
100
AcDbCircle
 10
396.8199127467
 20
44.64796837
 30
0.0
 40
0.9999999999999432
100
AcDbArc
 50
270.0
 51
0.0
  0
LINE
  5
114
330
1F
100
AcDbEntity
  8
0
  6
Continuous
 62
     7
370
    25
100
AcDbLine
 10
384.8199127467
 20
43.64796837
 30
0.0
 11
396.8199127467
 21
43.64796837
 31
0.0
  0
ARC
  5
115
330
1F
100
AcDbEntity
  8
0
  6
Continuous
 62
     7
370
    25
100
AcDbCircle
 10
384.8199127467
 20
44.64796837
 30
0.0
 40
1.000000000000057
100
AcDbArc
 50
180.0
 51
270.0
  0
LINE
  5
116
330
1F
100
AcDbEntity
  8
0
  6
Continuous
 62
     7
370
    25
100
AcDbLine
 10
383.8199127467
 20
44.64796837
 30
0.0
 11
383.8199127467
 21
56.64796837
 31
0.0
  0
ARC
  5
117
330
1F
100
AcDbEntity
  8
0
  6
Continuous
 62
     7
370
    25
100
AcDbCircle
 10
403.8699127467
 20
56.64796837
 30
0.0
 40
1.000000000000057
100
AcDbArc
 50
90.0
 51
180.0
  0
LINE
  5
118
330
1F
100
AcDbEntity
  8
0
  6
Continuous
 62
     7
370
    25
100
AcDbLine
 10
403.8699127467
 20
57.64796837
 30
0.0
 11
415.8699127467
 21
57.64796837
 31
0.0
  0
ARC
  5
119
330
1F
100
AcDbEntity
  8
0
  6
Continuous
 62
     7
370
    25
100
AcDbCircle
 10
415.8699127467
 20
56.64796837
 30
0.0
 40
1.000000000000007
100
AcDbArc
 50
0.0
 51
90.0
  0
LINE
  5
11A
330
1F
100
AcDbEntity
  8
0
  6
Continuous
 62
     7
370
    25
100
AcDbLine
 10
416.8699127467
 20
44.64796837
 30
0.0
 11
416.8699127467
 21
56.64796837
 31
0.0
  0
ARC
  5
11B
330
1F
100
AcDbEntity
  8
0
  6
Continuous
 62
     7
370
    25
100
AcDbCircle
 10
415.8699127467
 20
44.64796837
 30
0.0
 40
0.9999999999999503
100
AcDbArc
 50
270.0
 51
0.0
  0
LINE
  5
11C
330
1F
100
AcDbEntity
  8
0
  6
Continuous
 62
     7
370
    25
100
AcDbLine
 10
403.8699127467
 20
43.64796837
 30
0.0
 11
415.8699127467
 21
43.64796837
 31
0.0
  0
ARC
  5
11D
330
1F
100
AcDbEntity
  8
0
  6
Continuous
 62
     7
370
    25
100
AcDbCircle
 10
403.8699127467
 20
44.64796837
 30
0.0
 40
1.000000000000057
100
AcDbArc
 50
180.0
 51
270.0
  0
LINE
  5
11E
330
1F
100
AcDbEntity
  8
0
  6
Continuous
 62
     7
370
    25
100
AcDbLine
 10
402.8699127467
 20
44.64796837
 30
0.0
 11
402.8699127467
 21
56.64796837
 31
0.0
  0
ARC
  5
11F
330
1F
100
AcDbEntity
  8
0
  6
Continuous
 62
     7
370
    25
100
AcDbCircle
 10
275.2824127467
 20
113.79796837
 30
0.0
 40
1.000000000000057
100
AcDbArc
 50
90.0
 51
180.0
  0
LINE
  5
120
330
1F
100
AcDbEntity
  8
0
  6
Continuous
 62
     7
370
    25
100
AcDbLine
 10
275.2824127467
 20
114.79796837
 30
0.0
 11
287.2824127467
 21
114.79796837
 31
0.0
  0
ARC
  5
121
330
1F
100
AcDbEntity
  8
0
  6
Continuous
 62
     7
370
    25
100
AcDbCircle
 10
287.2824127467
 20
113.79796837
 30
0.0
 40
0.9999999999999432
100
AcDbArc
 50
360.0
 51
90.0
  0
LINE
  5
122
330
1F
100
AcDbEntity
  8
0
  6
Continuous
 62
     7
370
    25
100
AcDbLine
 10
288.2824127467
 20
101.79796837
 30
0.0
 11
288.2824127467
 21
113.79796837
 31
0.0
  0
ARC
  5
123
330
1F
100
AcDbEntity
  8
0
  6
Continuous
 62
     7
370
    25
100
AcDbCircle
 10
287.2824127467
 20
101.79796837
 30
0.0
 40
1.0
100
AcDbArc
 50
270.0
 51
0.0
  0
LINE
  5
124
330
1F
100
AcDbEntity
  8
0
  6
Continuous
 62
     7
370
    25
100
AcDbLine
 10
275.2824127467
 20
100.79796837
 30
0.0
 11
287.2824127467
 21
100.79796837
 31
0.0
  0
ARC
  5
125
330
1F
100
AcDbEntity
  8
0
  6
Continuous
 62
     7
370
    25
100
AcDbCircle
 10
275.2824127467
 20
101.79796837
 30
0.0
 40
1.000000000000057
100
AcDbArc
 50
180.0
 51
270.0
  0
LINE
  5
126
330
1F
100
AcDbEntity
  8
0
  6
Continuous
 62
     7
370
    25
100
AcDbLine
 10
274.2824127467
 20
101.79796837
 30
0.0
 11
274.2824127467
 21
113.79796837
 31
0.0
  0
ARC
  5
127
330
1F
100
AcDbEntity
  8
0
  6
Continuous
 62
     7
370
    25
100
AcDbCircle
 10
306.3324127467
 20
101.79796837
 30
0.0
 40
0.9999999999999432
100
AcDbArc
 50
270.0
 51
0.0
  0
LINE
  5
128
330
1F
100
AcDbEntity
  8
0
  6
Continuous
 62
     7
370
    25
100
AcDbLine
 10
294.3324127467
 20
100.79796837
 30
0.0
 11
306.3324127467
 21
100.79796837
 31
0.0
  0
ARC
  5
129
330
1F
100
AcDbEntity
  8
0
  6
Continuous
 62
     7
370
    25
100
AcDbCircle
 10
294.3324127467
 20
101.79796837
 30
0.0
 40
1.000000000000057
100
AcDbArc
 50
180.0
 51
270.0
  0
LINE
  5
12A
330
1F
100
AcDbEntity
  8
0
  6
Continuous
 62
     7
370
    25
100
AcDbLine
 10
293.3324127467
 20
101.79796837
 30
0.0
 11
293.3324127467
 21
113.79796837
 31
0.0
  0
ARC
  5
12B
330
1F
100
AcDbEntity
  8
0
  6
Continuous
 62
     7
370
    25
100
AcDbCircle
 10
294.3324127467
 20
113.79796837
 30
0.0
 40
1.000000000000057
100
AcDbArc
 50
90.0
 51
180.0
  0
LINE
  5
12C
330
1F
100
AcDbEntity
  8
0
  6
Continuous
 62
     7
370
    25
100
AcDbLine
 10
294.3324127467
 20
114.79796837
 30
0.0
 11
306.3324127467
 21
114.79796837
 31
0.0
  0
ARC
  5
12D
330
1F
100
AcDbEntity
  8
0
  6
Continuous
 62
     7
370
    25
100
AcDbCircle
 10
306.3324127467
 20
113.79796837
 30
0.0
 40
1.000000000000071
100
AcDbArc
 50
0.0
 51
90.0
  0
LINE
  5
12E
330
1F
100
AcDbEntity
  8
0
  6
Continuous
 62
     7
370
    25
100
AcDbLine
 10
307.3324127467
 20
101.79796837
 30
0.0
 11
307.3324127467
 21
113.79796837
 31
0.0
  0
ARC
  5
12F
330
1F
100
AcDbEntity
  8
0
  6
Continuous
 62
     7
370
    25
100
AcDbCircle
 10
108.5949127467
 20
94.74796837
 30
0.0
 40
1.000000000000043
100
AcDbArc
 50
90.0
 51
180.0
  0
LINE
  5
130
330
1F
100
AcDbEntity
  8
0
  6
Continuous
 62
     7
370
    25
100
AcDbLine
 10
108.5949127467
 20
95.74796837
 30
0.0
 11
120.5949127467
 21
95.74796837
 31
0.0
  0
ARC
  5
131
330
1F
100
AcDbEntity
  8
0
  6
Continuous
 62
     7
370
    25
100
AcDbCircle
 10
120.5949127467
 20
94.74796837
 30
0.0
 40
0.9999999999999858
100
AcDbArc
 50
0.0
 51
90.0
  0
LINE
  5
132
330
1F
100
AcDbEntity
  8
0
  6
Continuous
 62
     7
370
    25
100
AcDbLine
 10
121.5949127467
 20
82.74796837
 30
0.0
 11
121.5949127467
 21
94.74796837
 31
0.0
  0
ARC
  5
133
330
1F
100
AcDbEntity
  8
0
  6
Continuous
 62
     7
370
    25
100
AcDbCircle
 10
120.5949127467
 20
82.74796837
 30
0.0
 40
1.0
100
AcDbArc
 50
270.0
 51
0.0
  0
LINE
  5
134
330
1F
100
AcDbEntity
  8
0
  6
Continuous
 62
     7
370
    25
100
AcDbLine
 10
108.5949127467
 20
81.74796837
 30
0.0
 11
120.5949127467
 21
81.74796837
 31
0.0
  0
ARC
  5
135
330
1F
100
AcDbEntity
  8
0
  6
Continuous
 62
     7
370
    25
100
AcDbCircle
 10
108.5949127467
 20
82.74796837
 30
0.0
 40
1.000000000000071
100
AcDbArc
 50
180.0
 51
270.0
  0
LINE
  5
136
330
1F
100
AcDbEntity
  8
0
  6
Continuous
 62
     7
370
    25
100
AcDbLine
 10
107.5949127467
 20
82.74796837
 30
0.0
 11
107.5949127467
 21
94.74796837
 31
0.0
  0
ARC
  5
137
330
1F
100
AcDbEntity
  8
0
  6
Continuous
 62
     7
370
    25
100
AcDbCircle
 10
170.5074127467
 20
156.66046837
 30
0.0
 40
1.000000000000057
100
AcDbArc
 50
90.0
 51
180.0
  0
LINE
  5
138
330
1F
100
AcDbEntity
  8
0
  6
Continuous
 62
     7
370
    25
100
AcDbLine
 10
170.5074127467
 20
157.66046837
 30
0.0
 11
182.5074127467
 21
157.66046837
 31
0.0
  0
ARC
  5
139
330
1F
100
AcDbEntity
  8
0
  6
Continuous
 62
     7
370
    25
100
AcDbCircle
 10
182.5074127467
 20
156.66046837
 30
0.0
 40
1.000000000000028
100
AcDbArc
 50
0.0
 51
90.0
  0
LINE
  5
13A
330
1F
100
AcDbEntity
  8
0
  6
Continuous
 62
     7
370
    25
100
AcDbLine
 10
183.5074127467
 20
144.66046837
 30
0.0
 11
183.5074127467
 21
156.66046837
 31
0.0
  0
ARC
  5
13B
330
1F
100
AcDbEntity
  8
0
  6
Continuous
 62
     7
370
    25
100
AcDbCircle
 10
182.5074127467
 20
144.66046837
 30
0.0
 40
1.000000000000057
100
AcDbArc
 50
270.0
 51
360.0
  0
LINE
  5
13C
330
1F
100
AcDbEntity
  8
0
  6
Continuous
 62
     7
370
    25
100
AcDbLine
 10
170.5074127467
 20
143.66046837
 30
0.0
 11
182.5074127467
 21
143.66046837
 31
0.0
  0
ARC
  5
13D
330
1F
100
AcDbEntity
  8
0
  6
Continuous
 62
     7
370
    25
100
AcDbCircle
 10
170.5074127467
 20
144.66046837
 30
0.0
 40
1.000000000000028
100
AcDbArc
 50
180.0
 51
270.0
  0
LINE
  5
13E
330
1F
100
AcDbEntity
  8
0
  6
Continuous
 62
     7
370
    25
100
AcDbLine
 10
169.5074127467
 20
144.66046837
 30
0.0
 11
169.5074127467
 21
156.66046837
 31
0.0
  0
ARC
  5
13F
330
1F
100
AcDbEntity
  8
0
  6
Continuous
 62
     7
370
    25
100
AcDbCircle
 10
365.7699127467
 20
56.64796837
 30
0.0
 40
1.000000000000007
100
AcDbArc
 50
90.0
 51
180.0
  0
LINE
  5
140
330
1F
100
AcDbEntity
  8
0
  6
Continuous
 62
     7
370
    25
100
AcDbLine
 10
365.7699127467
 20
57.64796837
 30
0.0
 11
377.7699127467
 21
57.64796837
 31
0.0
  0
ARC
  5
141
330
1F
100
AcDbEntity
  8
0
  6
Continuous
 62
     7
370
    25
100
AcDbCircle
 10
377.7699127467
 20
56.64796837
 30
0.0
 40
1.000000000000057
100
AcDbArc
 50
0.0
 51
90.0
  0
LINE
  5
142
330
1F
100
AcDbEntity
  8
0
  6
Continuous
 62
     7
370
    25
100
AcDbLine
 10
378.7699127467
 20
44.64796837
 30
0.0
 11
378.7699127467
 21
56.64796837
 31
0.0
  0
ARC
  5
143
330
1F
100
AcDbEntity
  8
0
  6
Continuous
 62
     7
370
    25
100
AcDbCircle
 10
377.7699127467
 20
44.64796837
 30
0.0
 40
1.000000000000057
100
AcDbArc
 50
270.0
 51
360.0
  0
LINE
  5
144
330
1F
100
AcDbEntity
  8
0
  6
Continuous
 62
     7
370
    25
100
AcDbLine
 10
365.7699127467
 20
43.64796837
 30
0.0
 11
377.7699127467
 21
43.64796837
 31
0.0
  0
ARC
  5
145
330
1F
100
AcDbEntity
  8
0
  6
Continuous
 62
     7
370
    25
100
AcDbCircle
 10
365.7699127467
 20
44.64796837
 30
0.0
 40
1.0
100
AcDbArc
 50
180.0
 51
270.0
  0
LINE
  5
146
330
1F
100
AcDbEntity
  8
0
  6
Continuous
 62
     7
370
    25
100
AcDbLine
 10
364.7699127467
 20
44.64796837
 30
0.0
 11
364.7699127467
 21
56.64796837
 31
0.0
  0
ARC
  5
147
330
1F
100
AcDbEntity
  8
0
  6
Continuous
 62
     7
370
    25
100
AcDbCircle
 10
237.1824127467
 20
113.79796837
 30
0.0
 40
1.000000000000028
100
AcDbArc
 50
90.0
 51
180.0
  0
LINE
  5
148
330
1F
100
AcDbEntity
  8
0
  6
Continuous
 62
     7
370
    25
100
AcDbLine
 10
237.1824127467
 20
114.79796837
 30
0.0
 11
249.1824127467
 21
114.79796837
 31
0.0
  0
ARC
  5
149
330
1F
100
AcDbEntity
  8
0
  6
Continuous
 62
     7
370
    25
100
AcDbCircle
 10
249.1824127467
 20
113.79796837
 30
0.0
 40
1.0
100
AcDbArc
 50
0.0
 51
90.0
  0
LINE
  5
14A
330
1F
100
AcDbEntity
  8
0
  6
Continuous
 62
     7
370
    25
100
AcDbLine
 10
250.1824127467
 20
101.79796837
 30
0.0
 11
250.1824127467
 21
113.79796837
 31
0.0
  0
ARC
  5
14B
330
1F
100
AcDbEntity
  8
0
  6
Continuous
 62
     7
370
    25
100
AcDbCircle
 10
249.1824127467
 20
101.79796837
 30
0.0
 40
1.000000000000028
100
AcDbArc
 50
270.0
 51
360.0
  0
LINE
  5
14C
330
1F
100
AcDbEntity
  8
0
  6
Continuous
 62
     7
370
    25
100
AcDbLine
 10
237.1824127467
 20
100.79796837
 30
0.0
 11
249.1824127467
 21
100.79796837
 31
0.0
  0
ARC
  5
14D
330
1F
100
AcDbEntity
  8
0
  6
Continuous
 62
     7
370
    25
100
AcDbCircle
 10
237.1824127467
 20
101.79796837
 30
0.0
 40
1.000000000000028
100
AcDbArc
 50
180.0
 51
270.0
  0
LINE
  5
14E
330
1F
100
AcDbEntity
  8
0
  6
Continuous
 62
     7
370
    25
100
AcDbLine
 10
236.1824127467
 20
101.79796837
 30
0.0
 11
236.1824127467
 21
113.79796837
 31
0.0
  0
ARC
  5
14F
330
1F
100
AcDbEntity
  8
0
  6
Continuous
 62
     7
370
    25
100
AcDbCircle
 10
256.2324127467
 20
113.79796837
 30
0.0
 40
0.9999999999999716
100
AcDbArc
 50
90.0
 51
180.0
  0
LINE
  5
150
330
1F
100
AcDbEntity
  8
0
  6
Continuous
 62
     7
370
    25
100
AcDbLine
 10
256.2324127467
 20
114.79796837
 30
0.0
 11
268.2324127467
 21
114.79796837
 31
0.0
  0
ARC
  5
151
330
1F
100
AcDbEntity
  8
0
  6
Continuous
 62
     7
370
    25
100
AcDbCircle
 10
268.2324127467
 20
113.79796837
 30
0.0
 40
1.000000000000057
100
AcDbArc
 50
0.0
 51
90.0
  0
LINE
  5
152
330
1F
100
AcDbEntity
  8
0
  6
Continuous
 62
     7
370
    25
100
AcDbLine
 10
269.2324127467
 20
101.79796837
 30
0.0
 11
269.2324127467
 21
113.79796837
 31
0.0
  0
ARC
  5
153
330
1F
100
AcDbEntity
  8
0
  6
Continuous
 62
     7
370
    25
100
AcDbCircle
 10
268.2324127467
 20
101.79796837
 30
0.0
 40
1.000000000000014
100
AcDbArc
 50
270.0
 51
0.0
  0
LINE
  5
154
330
1F
100
AcDbEntity
  8
0
  6
Continuous
 62
     7
370
    25
100
AcDbLine
 10
256.2324127467
 20
100.79796837
 30
0.0
 11
268.2324127467
 21
100.79796837
 31
0.0
  0
ARC
  5
155
330
1F
100
AcDbEntity
  8
0
  6
Continuous
 62
     7
370
    25
100
AcDbCircle
 10
256.2324127467
 20
101.79796837
 30
0.0
 40
1.0
100
AcDbArc
 50
180.0
 51
270.0
  0
LINE
  5
156
330
1F
100
AcDbEntity
  8
0
  6
Continuous
 62
     7
370
    25
100
AcDbLine
 10
255.2324127467
 20
101.79796837
 30
0.0
 11
255.2324127467
 21
113.79796837
 31
0.0
  0
ARC
  5
157
330
1F
100
AcDbEntity
  8
0
  6
Continuous
 62
     7
370
    25
100
AcDbCircle
 10
303.8574127467
 20
132.84796837
 30
0.0
 40
0.9999999999999716
100
AcDbArc
 50
90.0
 51
180.0
  0
LINE
  5
158
330
1F
100
AcDbEntity
  8
0
  6
Continuous
 62
     7
370
    25
100
AcDbLine
 10
303.8574127467
 20
133.84796837
 30
0.0
 11
315.8574127467
 21
133.84796837
 31
0.0
  0
ARC
  5
159
330
1F
100
AcDbEntity
  8
0
  6
Continuous
 62
     7
370
    25
100
AcDbCircle
 10
315.8574127467
 20
132.84796837
 30
0.0
 40
1.000000000000085
100
AcDbArc
 50
0.0
 51
90.0
  0
LINE
  5
15A
330
1F
100
AcDbEntity
  8
0
  6
Continuous
 62
     7
370
    25
100
AcDbLine
 10
316.8574127467
 20
120.84796837
 30
0.0
 11
316.8574127467
 21
132.84796837
 31
0.0
  0
ARC
  5
15B
330
1F
100
AcDbEntity
  8
0
  6
Continuous
 62
     7
370
    25
100
AcDbCircle
 10
315.8574127467
 20
120.84796837
 30
0.0
 40
1.000000000000057
100
AcDbArc
 50
270.0
 51
360.0
  0
LINE
  5
15C
330
1F
100
AcDbEntity
  8
0
  6
Continuous
 62
     7
370
    25
100
AcDbLine
 10
303.8574127467
 20
119.84796837
 30
0.0
 11
315.8574127467
 21
119.84796837
 31
0.0
  0
ARC
  5
15D
330
1F
100
AcDbEntity
  8
0
  6
Continuous
 62
     7
370
    25
100
AcDbCircle
 10
303.8574127467
 20
120.84796837
 30
0.0
 40
0.9999999999999432
100
AcDbArc
 50
180.0
 51
270.0
  0
LINE
  5
15E
330
1F
100
AcDbEntity
  8
0
  6
Continuous
 62
     7
370
    25
100
AcDbLine
 10
302.8574127467
 20
120.84796837
 30
0.0
 11
302.8574127467
 21
132.84796837
 31
0.0
  0
ARC
  5
15F
330
1F
100
AcDbEntity
  8
0
  6
Continuous
 62
     7
370
    25
100
AcDbCircle
 10
384.8199127467
 20
75.69796837
 30
0.0
 40
1.000000000000057
100
AcDbArc
 50
90.0
 51
180.0
  0
LINE
  5
160
330
1F
100
AcDbEntity
  8
0
  6
Continuous
 62
     7
370
    25
100
AcDbLine
 10
384.8199127467
 20
76.69796837
 30
0.0
 11
396.8199127467
 21
76.69796837
 31
0.0
  0
ARC
  5
161
330
1F
100
AcDbEntity
  8
0
  6
Continuous
 62
     7
370
    25
100
AcDbCircle
 10
396.8199127467
 20
75.69796837
 30
0.0
 40
0.9999999999999432
100
AcDbArc
 50
360.0
 51
90.0
  0
LINE
  5
162
330
1F
100
AcDbEntity
  8
0
  6
Continuous
 62
     7
370
    25
100
AcDbLine
 10
397.8199127467
 20
63.69796837
 30
0.0
 11
397.8199127467
 21
75.69796837
 31
0.0
  0
ARC
  5
163
330
1F
100
AcDbEntity
  8
0
  6
Continuous
 62
     7
370
    25
100
AcDbCircle
 10
396.8199127467
 20
63.69796837
 30
0.0
 40
0.9999999999999432
100
AcDbArc
 50
270.0
 51
0.0
  0
LINE
  5
164
330
1F
100
AcDbEntity
  8
0
  6
Continuous
 62
     7
370
    25
100
AcDbLine
 10
384.8199127467
 20
62.69796837
 30
0.0
 11
396.8199127467
 21
62.69796837
 31
0.0
  0
ARC
  5
165
330
1F
100
AcDbEntity
  8
0
  6
Continuous
 62
     7
370
    25
100
AcDbCircle
 10
384.8199127467
 20
63.69796837
 30
0.0
 40
1.000000000000057
100
AcDbArc
 50
180.0
 51
270.0
  0
LINE
  5
166
330
1F
100
AcDbEntity
  8
0
  6
Continuous
 62
     7
370
    25
100
AcDbLine
 10
383.8199127467
 20
63.69796837
 30
0.0
 11
383.8199127467
 21
75.69796837
 31
0.0
  0
ARC
  5
167
330
1F
100
AcDbEntity
  8
0
  6
Continuous
 62
     7
370
    25
100
AcDbCircle
 10
218.1324127467
 20
113.79796837
 30
0.0
 40
1.0
100
AcDbArc
 50
90.0
 51
180.0
  0
LINE
  5
168
330
1F
100
AcDbEntity
  8
0
  6
Continuous
 62
     7
370
    25
100
AcDbLine
 10
218.1324127467
 20
114.79796837
 30
0.0
 11
230.1324127467
 21
114.79796837
 31
0.0
  0
ARC
  5
169
330
1F
100
AcDbEntity
  8
0
  6
Continuous
 62
     7
370
    25
100
AcDbCircle
 10
230.1324127467
 20
113.79796837
 30
0.0
 40
1.0
100
AcDbArc
 50
0.0
 51
90.0
  0
LINE
  5
16A
330
1F
100
AcDbEntity
  8
0
  6
Continuous
 62
     7
370
    25
100
AcDbLine
 10
231.1324127467
 20
101.79796837
 30
0.0
 11
231.1324127467
 21
113.79796837
 31
0.0
  0
ARC
  5
16B
330
1F
100
AcDbEntity
  8
0
  6
Continuous
 62
     7
370
    25
100
AcDbCircle
 10
230.1324127467
 20
101.79796837
 30
0.0
 40
1.000000000000028
100
AcDbArc
 50
270.0
 51
360.0
  0
LINE
  5
16C
330
1F
100
AcDbEntity
  8
0
  6
Continuous
 62
     7
370
    25
100
AcDbLine
 10
218.1324127467
 20
100.79796837
 30
0.0
 11
230.1324127467
 21
100.79796837
 31
0.0
  0
ARC
  5
16D
330
1F
100
AcDbEntity
  8
0
  6
Continuous
 62
     7
370
    25
100
AcDbCircle
 10
218.1324127467
 20
101.79796837
 30
0.0
 40
1.000000000000028
100
AcDbArc
 50
180.0
 51
270.0
  0
LINE
  5
16E
330
1F
100
AcDbEntity
  8
0
  6
Continuous
 62
     7
370
    25
100
AcDbLine
 10
217.1324127467
 20
101.79796837
 30
0.0
 11
217.1324127467
 21
113.79796837
 31
0.0
  0
ARC
  5
16F
330
1F
100
AcDbEntity
  8
0
  6
Continuous
 62
     7
370
    25
100
AcDbCircle
 10
270.5199127467
 20
75.69796837
 30
0.0
 40
1.000000000000128
100
AcDbArc
 50
90.0
 51
180.0
  0
LINE
  5
170
330
1F
100
AcDbEntity
  8
0
  6
Continuous
 62
     7
370
    25
100
AcDbLine
 10
270.5199127467
 20
76.69796837
 30
0.0
 11
282.5199127467
 21
76.69796837
 31
0.0
  0
ARC
  5
171
330
1F
100
AcDbEntity
  8
0
  6
Continuous
 62
     7
370
    25
100
AcDbCircle
 10
282.5199127467
 20
75.69796837
 30
0.0
 40
0.9999999999999005
100
AcDbArc
 50
360.0
 51
90.0
  0
LINE
  5
172
330
1F
100
AcDbEntity
  8
0
  6
Continuous
 62
     7
370
    25
100
AcDbLine
 10
283.5199127467
 20
63.69796837
 30
0.0
 11
283.5199127467
 21
75.69796837
 31
0.0
  0
ARC
  5
173
330
1F
100
AcDbEntity
  8
0
  6
Continuous
 62
     7
370
    25
100
AcDbCircle
 10
282.5199127467
 20
63.69796837
 30
0.0
 40
0.9999999999999147
100
AcDbArc
 50
270.0
 51
0.0
  0
LINE
  5
174
330
1F
100
AcDbEntity
  8
0
  6
Continuous
 62
     7
370
    25
100
AcDbLine
 10
270.5199127467
 20
62.69796837
 30
0.0
 11
282.5199127467
 21
62.69796837
 31
0.0
  0
ARC
  5
175
330
1F
100
AcDbEntity
  8
0
  6
Continuous
 62
     7
370
    25
100
AcDbCircle
 10
270.5199127467
 20
63.69796837
 30
0.0
 40
1.000000000000057
100
AcDbArc
 50
180.0
 51
270.0
  0
LINE
  5
176
330
1F
100
AcDbEntity
  8
0
  6
Continuous
 62
     7
370
    25
100
AcDbLine
 10
269.5199127467
 20
63.69796837
 30
0.0
 11
269.5199127467
 21
75.69796837
 31
0.0
  0
ARC
  5
177
330
1F
100
AcDbEntity
  8
0
  6
Continuous
 62
     7
370
    25
100
AcDbCircle
 10
199.0824127467
 20
113.79796837
 30
0.0
 40
1.000000000000085
100
AcDbArc
 50
90.0
 51
180.0
  0
LINE
  5
178
330
1F
100
AcDbEntity
  8
0
  6
Continuous
 62
     7
370
    25
100
AcDbLine
 10
199.0824127467
 20
114.79796837
 30
0.0
 11
211.0824127467
 21
114.79796837
 31
0.0
  0
ARC
  5
179
330
1F
100
AcDbEntity
  8
0
  6
Continuous
 62
     7
370
    25
100
AcDbCircle
 10
211.0824127467
 20
113.79796837
 30
0.0
 40
1.000000000000057
100
AcDbArc
 50
0.0
 51
90.0
  0
LINE
  5
17A
330
1F
100
AcDbEntity
  8
0
  6
Continuous
 62
     7
370
    25
100
AcDbLine
 10
212.0824127467
 20
101.79796837
 30
0.0
 11
212.0824127467
 21
113.79796837
 31
0.0
  0
ARC
  5
17B
330
1F
100
AcDbEntity
  8
0
  6
Continuous
 62
     7
370
    25
100
AcDbCircle
 10
211.0824127467
 20
101.79796837
 30
0.0
 40
1.000000000000028
100
AcDbArc
 50
270.0
 51
360.0
  0
LINE
  5
17C
330
1F
100
AcDbEntity
  8
0
  6
Continuous
 62
     7
370
    25
100
AcDbLine
 10
199.0824127467
 20
100.79796837
 30
0.0
 11
211.0824127467
 21
100.79796837
 31
0.0
  0
ARC
  5
17D
330
1F
100
AcDbEntity
  8
0
  6
Continuous
 62
     7
370
    25
100
AcDbCircle
 10
199.0824127467
 20
101.79796837
 30
0.0
 40
1.000000000000028
100
AcDbArc
 50
180.0
 51
270.0
  0
LINE
  5
17E
330
1F
100
AcDbEntity
  8
0
  6
Continuous
 62
     7
370
    25
100
AcDbLine
 10
198.0824127467
 20
101.79796837
 30
0.0
 11
198.0824127467
 21
113.79796837
 31
0.0
  0
ARC
  5
17F
330
1F
100
AcDbEntity
  8
0
  6
Continuous
 62
     7
370
    25
100
AcDbCircle
 10
232.4199127467
 20
75.69796837
 30
0.0
 40
1.000000000000085
100
AcDbArc
 50
90.0
 51
180.0
  0
LINE
  5
180
330
1F
100
AcDbEntity
  8
0
  6
Continuous
 62
     7
370
    25
100
AcDbLine
 10
232.4199127467
 20
76.69796837
 30
0.0
 11
244.4199127467
 21
76.69796837
 31
0.0
  0
ARC
  5
181
330
1F
100
AcDbEntity
  8
0
  6
Continuous
 62
     7
370
    25
100
AcDbCircle
 10
244.4199127467
 20
75.69796837
 30
0.0
 40
1.0
100
AcDbArc
 50
0.0
 51
90.0
  0
LINE
  5
182
330
1F
100
AcDbEntity
  8
0
  6
Continuous
 62
     7
370
    25
100
AcDbLine
 10
245.4199127467
 20
63.69796837
 30
0.0
 11
245.4199127467
 21
75.69796837
 31
0.0
  0
ARC
  5
183
330
1F
100
AcDbEntity
  8
0
  6
Continuous
 62
     7
370
    25
100
AcDbCircle
 10
244.4199127467
 20
63.69796837
 30
0.0
 40
1.000000000000028
100
AcDbArc
 50
270.0
 51
360.0
  0
LINE
  5
184
330
1F
100
AcDbEntity
  8
0
  6
Continuous
 62
     7
370
    25
100
AcDbLine
 10
232.4199127467
 20
62.69796837
 30
0.0
 11
244.4199127467
 21
62.69796837
 31
0.0
  0
ARC
  5
185
330
1F
100
AcDbEntity
  8
0
  6
Continuous
 62
     7
370
    25
100
AcDbCircle
 10
232.4199127467
 20
63.69796837
 30
0.0
 40
1.000000000000057
100
AcDbArc
 50
180.0
 51
270.0
  0
LINE
  5
186
330
1F
100
AcDbEntity
  8
0
  6
Continuous
 62
     7
370
    25
100
AcDbLine
 10
231.4199127467
 20
63.69796837
 30
0.0
 11
231.4199127467
 21
75.69796837
 31
0.0
  0
ARC
  5
187
330
1F
100
AcDbEntity
  8
0
  6
Continuous
 62
     7
370
    25
100
AcDbCircle
 10
251.4699127467
 20
75.69796837
 30
0.0
 40
1.000000000000057
100
AcDbArc
 50
90.0
 51
180.0
  0
LINE
  5
188
330
1F
100
AcDbEntity
  8
0
  6
Continuous
 62
     7
370
    25
100
AcDbLine
 10
251.4699127467
 20
76.69796837
 30
0.0
 11
263.4699127467
 21
76.69796837
 31
0.0
  0
ARC
  5
189
330
1F
100
AcDbEntity
  8
0
  6
Continuous
 62
     7
370
    25
100
AcDbCircle
 10
263.4699127467
 20
75.69796837
 30
0.0
 40
1.000000000000057
100
AcDbArc
 50
0.0
 51
90.0
  0
LINE
  5
18A
330
1F
100
AcDbEntity
  8
0
  6
Continuous
 62
     7
370
    25
100
AcDbLine
 10
264.4699127467
 20
63.69796837
 30
0.0
 11
264.4699127467
 21
75.69796837
 31
0.0
  0
ARC
  5
18B
330
1F
100
AcDbEntity
  8
0
  6
Continuous
 62
     7
370
    25
100
AcDbCircle
 10
263.4699127467
 20
63.69796837
 30
0.0
 40
1.000000000000057
100
AcDbArc
 50
270.0
 51
360.0
  0
LINE
  5
18C
330
1F
100
AcDbEntity
  8
0
  6
Continuous
 62
     7
370
    25
100
AcDbLine
 10
251.4699127467
 20
62.69796837
 30
0.0
 11
263.4699127467
 21
62.69796837
 31
0.0
  0
ARC
  5
18D
330
1F
100
AcDbEntity
  8
0
  6
Continuous
 62
     7
370
    25
100
AcDbCircle
 10
251.4699127467
 20
63.69796837
 30
0.0
 40
1.0
100
AcDbArc
 50
180.0
 51
270.0
  0
LINE
  5
18E
330
1F
100
AcDbEntity
  8
0
  6
Continuous
 62
     7
370
    25
100
AcDbLine
 10
250.4699127467
 20
63.69796837
 30
0.0
 11
250.4699127467
 21
75.69796837
 31
0.0
  0
ARC
  5
18F
330
1F
100
AcDbEntity
  8
0
  6
Continuous
 62
     7
370
    25
100
AcDbCircle
 10
403.8699127467
 20
113.79796837
 30
0.0
 40
1.000000000000114
100
AcDbArc
 50
90.0
 51
180.0
  0
LINE
  5
190
330
1F
100
AcDbEntity
  8
0
  6
Continuous
 62
     7
370
    25
100
AcDbLine
 10
403.8699127467
 20
114.79796837
 30
0.0
 11
415.8699127467
 21
114.79796837
 31
0.0
  0
ARC
  5
191
330
1F
100
AcDbEntity
  8
0
  6
Continuous
 62
     7
370
    25
100
AcDbCircle
 10
415.8699127467
 20
113.79796837
 30
0.0
 40
1.000000000000014
100
AcDbArc
 50
0.0
 51
90.0
  0
LINE
  5
192
330
1F
100
AcDbEntity
  8
0
  6
Continuous
 62
     7
370
    25
100
AcDbLine
 10
416.8699127467
 20
101.79796837
 30
0.0
 11
416.8699127467
 21
113.79796837
 31
0.0
  0
ARC
  5
193
330
1F
100
AcDbEntity
  8
0
  6
Continuous
 62
     7
370
    25
100
AcDbCircle
 10
415.8699127467
 20
101.79796837
 30
0.0
 40
0.9999999999999574
100
AcDbArc
 50
270.0
 51
0.0
  0
LINE
  5
194
330
1F
100
AcDbEntity
  8
0
  6
Continuous
 62
     7
370
    25
100
AcDbLine
 10
403.8699127467
 20
100.79796837
 30
0.0
 11
415.8699127467
 21
100.79796837
 31
0.0
  0
ARC
  5
195
330
1F
100
AcDbEntity
  8
0
  6
Continuous
 62
     7
370
    25
100
AcDbCircle
 10
403.8699127467
 20
101.79796837
 30
0.0
 40
1.000000000000057
100
AcDbArc
 50
180.0
 51
270.0
  0
LINE
  5
196
330
1F
100
AcDbEntity
  8
0
  6
Continuous
 62
     7
370
    25
100
AcDbLine
 10
402.8699127467
 20
101.79796837
 30
0.0
 11
402.8699127467
 21
113.79796837
 31
0.0
  0
ARC
  5
197
330
1F
100
AcDbEntity
  8
0
  6
Continuous
 62
     7
370
    25
100
AcDbCircle
 10
160.9824127467
 20
113.79796837
 30
0.0
 40
1.000000000000085
100
AcDbArc
 50
90.0
 51
180.0
  0
LINE
  5
198
330
1F
100
AcDbEntity
  8
0
  6
Continuous
 62
     7
370
    25
100
AcDbLine
 10
160.9824127467
 20
114.79796837
 30
0.0
 11
172.9824127467
 21
114.79796837
 31
0.0
  0
ARC
  5
199
330
1F
100
AcDbEntity
  8
0
  6
Continuous
 62
     7
370
    25
100
AcDbCircle
 10
172.9824127467
 20
113.79796837
 30
0.0
 40
1.000000000000028
100
AcDbArc
 50
0.0
 51
90.0
  0
LINE
  5
19A
330
1F
100
AcDbEntity
  8
0
  6
Continuous
 62
     7
370
    25
100
AcDbLine
 10
173.9824127467
 20
101.79796837
 30
0.0
 11
173.9824127467
 21
113.79796837
 31
0.0
  0
ARC
  5
19B
330
1F
100
AcDbEntity
  8
0
  6
Continuous
 62
     7
370
    25
100
AcDbCircle
 10
172.9824127467
 20
101.79796837
 30
0.0
 40
1.0
100
AcDbArc
 50
270.0
 51
0.0
  0
LINE
  5
19C
330
1F
100
AcDbEntity
  8
0
  6
Continuous
 62
     7
370
    25
100
AcDbLine
 10
160.9824127467
 20
100.79796837
 30
0.0
 11
172.9824127467
 21
100.79796837
 31
0.0
  0
ARC
  5
19D
330
1F
100
AcDbEntity
  8
0
  6
Continuous
 62
     7
370
    25
100
AcDbCircle
 10
160.9824127467
 20
101.79796837
 30
0.0
 40
1.0
100
AcDbArc
 50
180.0
 51
270.0
  0
LINE
  5
19E
330
1F
100
AcDbEntity
  8
0
  6
Continuous
 62
     7
370
    25
100
AcDbLine
 10
159.9824127467
 20
101.79796837
 30
0.0
 11
159.9824127467
 21
113.79796837
 31
0.0
  0
ARC
  5
19F
330
1F
100
AcDbEntity
  8
0
  6
Continuous
 62
     7
370
    25
100
AcDbCircle
 10
180.0324127467
 20
113.79796837
 30
0.0
 40
1.000000000000028
100
AcDbArc
 50
90.0
 51
180.0
  0
LINE
  5
1A0
330
1F
100
AcDbEntity
  8
0
  6
Continuous
 62
     7
370
    25
100
AcDbLine
 10
180.0324127467
 20
114.79796837
 30
0.0
 11
192.0324127467
 21
114.79796837
 31
0.0
  0
ARC
  5
1A1
330
1F
100
AcDbEntity
  8
0
  6
Continuous
 62
     7
370
    25
100
AcDbCircle
 10
192.0324127467
 20
113.79796837
 30
0.0
 40
1.000000000000028
100
AcDbArc
 50
0.0
 51
90.0
  0
LINE
  5
1A2
330
1F
100
AcDbEntity
  8
0
  6
Continuous
 62
     7
370
    25
100
AcDbLine
 10
193.0324127467
 20
101.79796837
 30
0.0
 11
193.0324127467
 21
113.79796837
 31
0.0
  0
ARC
  5
1A3
330
1F
100
AcDbEntity
  8
0
  6
Continuous
 62
     7
370
    25
100
AcDbCircle
 10
192.0324127467
 20
101.79796837
 30
0.0
 40
1.000000000000028
100
AcDbArc
 50
270.0
 51
360.0
  0
LINE
  5
1A4
330
1F
100
AcDbEntity
  8
0
  6
Continuous
 62
     7
370
    25
100
AcDbLine
 10
180.0324127467
 20
100.79796837
 30
0.0
 11
192.0324127467
 21
100.79796837
 31
0.0
  0
ARC
  5
1A5
330
1F
100
AcDbEntity
  8
0
  6
Continuous
 62
     7
370
    25
100
AcDbCircle
 10
180.0324127467
 20
101.79796837
 30
0.0
 40
1.0
100
AcDbArc
 50
180.0
 51
270.0
  0
LINE
  5
1A6
330
1F
100
AcDbEntity
  8
0
  6
Continuous
 62
     7
370
    25
100
AcDbLine
 10
179.0324127467
 20
101.79796837
 30
0.0
 11
179.0324127467
 21
113.79796837
 31
0.0
  0
ARC
  5
1A7
330
1F
100
AcDbEntity
  8
0
  6
Continuous
 62
     7
370
    25
100
AcDbCircle
 10
213.3699127467
 20
75.69796837
 30
0.0
 40
1.000000000000028
100
AcDbArc
 50
90.0
 51
180.0
  0
LINE
  5
1A8
330
1F
100
AcDbEntity
  8
0
  6
Continuous
 62
     7
370
    25
100
AcDbLine
 10
213.3699127467
 20
76.69796837
 30
0.0
 11
225.3699127467
 21
76.69796837
 31
0.0
  0
ARC
  5
1A9
330
1F
100
AcDbEntity
  8
0
  6
Continuous
 62
     7
370
    25
100
AcDbCircle
 10
225.3699127467
 20
75.69796837
 30
0.0
 40
1.000000000000028
100
AcDbArc
 50
0.0
 51
90.0
  0
LINE
  5
1AA
330
1F
100
AcDbEntity
  8
0
  6
Continuous
 62
     7
370
    25
100
AcDbLine
 10
226.3699127467
 20
63.69796837
 30
0.0
 11
226.3699127467
 21
75.69796837
 31
0.0
  0
ARC
  5
1AB
330
1F
100
AcDbEntity
  8
0
  6
Continuous
 62
     7
370
    25
100
AcDbCircle
 10
225.3699127467
 20
63.69796837
 30
0.0
 40
1.0
100
AcDbArc
 50
270.0
 51
0.0
  0
LINE
  5
1AC
330
1F
100
AcDbEntity
  8
0
  6
Continuous
 62
     7
370
    25
100
AcDbLine
 10
213.3699127467
 20
62.69796837
 30
0.0
 11
225.3699127467
 21
62.69796837
 31
0.0
  0
ARC
  5
1AD
330
1F
100
AcDbEntity
  8
0
  6
Continuous
 62
     7
370
    25
100
AcDbCircle
 10
213.3699127467
 20
63.69796837
 30
0.0
 40
1.000000000000028
100
AcDbArc
 50
180.0
 51
270.0
  0
LINE
  5
1AE
330
1F
100
AcDbEntity
  8
0
  6
Continuous
 62
     7
370
    25
100
AcDbLine
 10
212.3699127467
 20
63.69796837
 30
0.0
 11
212.3699127467
 21
75.69796837
 31
0.0
  0
ARC
  5
1AF
330
1F
100
AcDbEntity
  8
0
  6
Continuous
 62
     7
370
    25
100
AcDbCircle
 10
365.7699127467
 20
113.79796837
 30
0.0
 40
1.000000000000028
100
AcDbArc
 50
90.0
 51
180.0
  0
LINE
  5
1B0
330
1F
100
AcDbEntity
  8
0
  6
Continuous
 62
     7
370
    25
100
AcDbLine
 10
365.7699127467
 20
114.79796837
 30
0.0
 11
377.7699127467
 21
114.79796837
 31
0.0
  0
ARC
  5
1B1
330
1F
100
AcDbEntity
  8
0
  6
Continuous
 62
     7
370
    25
100
AcDbCircle
 10
377.7699127467
 20
113.79796837
 30
0.0
 40
1.000000000000057
100
AcDbArc
 50
0.0
 51
90.0
  0
LINE
  5
1B2
330
1F
100
AcDbEntity
  8
0
  6
Continuous
 62
     7
370
    25
100
AcDbLine
 10
378.7699127467
 20
101.79796837
 30
0.0
 11
378.7699127467
 21
113.79796837
 31
0.0
  0
ARC
  5
1B3
330
1F
100
AcDbEntity
  8
0
  6
Continuous
 62
     7
370
    25
100
AcDbCircle
 10
377.7699127467
 20
101.79796837
 30
0.0
 40
1.000000000000057
100
AcDbArc
 50
270.0
 51
360.0
  0
LINE
  5
1B4
330
1F
100
AcDbEntity
  8
0
  6
Continuous
 62
     7
370
    25
100
AcDbLine
 10
365.7699127467
 20
100.79796837
 30
0.0
 11
377.7699127467
 21
100.79796837
 31
0.0
  0
ARC
  5
1B5
330
1F
100
AcDbEntity
  8
0
  6
Continuous
 62
     7
370
    25
100
AcDbCircle
 10
365.7699127467
 20
101.79796837
 30
0.0
 40
1.0
100
AcDbArc
 50
180.0
 51
270.0
  0
LINE
  5
1B6
330
1F
100
AcDbEntity
  8
0
  6
Continuous
 62
     7
370
    25
100
AcDbLine
 10
364.7699127467
 20
101.79796837
 30
0.0
 11
364.7699127467
 21
113.79796837
 31
0.0
  0
ARC
  5
1B7
330
1F
100
AcDbEntity
  8
0
  6
Continuous
 62
     7
370
    25
100
AcDbCircle
 10
384.8199127467
 20
113.79796837
 30
0.0
 40
1.000000000000114
100
AcDbArc
 50
90.0
 51
180.0
  0
LINE
  5
1B8
330
1F
100
AcDbEntity
  8
0
  6
Continuous
 62
     7
370
    25
100
AcDbLine
 10
384.8199127467
 20
114.79796837
 30
0.0
 11
396.8199127467
 21
114.79796837
 31
0.0
  0
ARC
  5
1B9
330
1F
100
AcDbEntity
  8
0
  6
Continuous
 62
     7
370
    25
100
AcDbCircle
 10
396.8199127467
 20
113.79796837
 30
0.0
 40
1.000000000000014
100
AcDbArc
 50
0.0
 51
90.0
  0
LINE
  5
1BA
330
1F
100
AcDbEntity
  8
0
  6
Continuous
 62
     7
370
    25
100
AcDbLine
 10
397.8199127467
 20
101.79796837
 30
0.0
 11
397.8199127467
 21
113.79796837
 31
0.0
  0
ARC
  5
1BB
330
1F
100
AcDbEntity
  8
0
  6
Continuous
 62
     7
370
    25
100
AcDbCircle
 10
396.8199127467
 20
101.79796837
 30
0.0
 40
0.9999999999999432
100
AcDbArc
 50
270.0
 51
0.0
  0
LINE
  5
1BC
330
1F
100
AcDbEntity
  8
0
  6
Continuous
 62
     7
370
    25
100
AcDbLine
 10
384.8199127467
 20
100.79796837
 30
0.0
 11
396.8199127467
 21
100.79796837
 31
0.0
  0
ARC
  5
1BD
330
1F
100
AcDbEntity
  8
0
  6
Continuous
 62
     7
370
    25
100
AcDbCircle
 10
384.8199127467
 20
101.79796837
 30
0.0
 40
1.000000000000057
100
AcDbArc
 50
180.0
 51
270.0
  0
LINE
  5
1BE
330
1F
100
AcDbEntity
  8
0
  6
Continuous
 62
     7
370
    25
100
AcDbLine
 10
383.8199127467
 20
101.79796837
 30
0.0
 11
383.8199127467
 21
113.79796837
 31
0.0
  0
ARC
  5
1BF
330
1F
100
AcDbEntity
  8
0
  6
Continuous
 62
     7
370
    25
100
AcDbCircle
 10
141.9324127467
 20
113.79796837
 30
0.0
 40
1.000000000000057
100
AcDbArc
 50
90.0
 51
180.0
  0
LINE
  5
1C0
330
1F
100
AcDbEntity
  8
0
  6
Continuous
 62
     7
370
    25
100
AcDbLine
 10
141.9324127467
 20
114.79796837
 30
0.0
 11
153.9324127467
 21
114.79796837
 31
0.0
  0
ARC
  5
1C1
330
1F
100
AcDbEntity
  8
0
  6
Continuous
 62
     7
370
    25
100
AcDbCircle
 10
153.9324127467
 20
113.79796837
 30
0.0
 40
1.0
100
AcDbArc
 50
0.0
 51
90.0
  0
LINE
  5
1C2
330
1F
100
AcDbEntity
  8
0
  6
Continuous
 62
     7
370
    25
100
AcDbLine
 10
154.9324127467
 20
101.79796837
 30
0.0
 11
154.9324127467
 21
113.79796837
 31
0.0
  0
ARC
  5
1C3
330
1F
100
AcDbEntity
  8
0
  6
Continuous
 62
     7
370
    25
100
AcDbCircle
 10
153.9324127467
 20
101.79796837
 30
0.0
 40
1.000000000000028
100
AcDbArc
 50
270.0
 51
360.0
  0
LINE
  5
1C4
330
1F
100
AcDbEntity
  8
0
  6
Continuous
 62
     7
370
    25
100
AcDbLine
 10
141.9324127467
 20
100.79796837
 30
0.0
 11
153.9324127467
 21
100.79796837
 31
0.0
  0
ARC
  5
1C5
330
1F
100
AcDbEntity
  8
0
  6
Continuous
 62
     7
370
    25
100
AcDbCircle
 10
141.9324127467
 20
101.79796837
 30
0.0
 40
1.000000000000057
100
AcDbArc
 50
180.0
 51
270.0
  0
LINE
  5
1C6
330
1F
100
AcDbEntity
  8
0
  6
Continuous
 62
     7
370
    25
100
AcDbLine
 10
140.9324127467
 20
101.79796837
 30
0.0
 11
140.9324127467
 21
113.79796837
 31
0.0
  0
ARC
  5
1C7
330
1F
100
AcDbEntity
  8
0
  6
Continuous
 62
     7
370
    25
100
AcDbCircle
 10
194.3199127467
 20
75.69796837
 30
0.0
 40
1.000000000000057
100
AcDbArc
 50
90.0
 51
180.0
  0
LINE
  5
1C8
330
1F
100
AcDbEntity
  8
0
  6
Continuous
 62
     7
370
    25
100
AcDbLine
 10
194.3199127467
 20
76.69796837
 30
0.0
 11
206.3199127467
 21
76.69796837
 31
0.0
  0
ARC
  5
1C9
330
1F
100
AcDbEntity
  8
0
  6
Continuous
 62
     7
370
    25
100
AcDbCircle
 10
206.3199127467
 20
75.69796837
 30
0.0
 40
1.000000000000057
100
AcDbArc
 50
0.0
 51
90.0
  0
LINE
  5
1CA
330
1F
100
AcDbEntity
  8
0
  6
Continuous
 62
     7
370
    25
100
AcDbLine
 10
207.3199127467
 20
63.69796837
 30
0.0
 11
207.3199127467
 21
75.69796837
 31
0.0
  0
ARC
  5
1CB
330
1F
100
AcDbEntity
  8
0
  6
Continuous
 62
     7
370
    25
100
AcDbCircle
 10
206.3199127467
 20
63.69796837
 30
0.0
 40
1.000000000000057
100
AcDbArc
 50
270.0
 51
360.0
  0
LINE
  5
1CC
330
1F
100
AcDbEntity
  8
0
  6
Continuous
 62
     7
370
    25
100
AcDbLine
 10
194.3199127467
 20
62.69796837
 30
0.0
 11
206.3199127467
 21
62.69796837
 31
0.0
  0
ARC
  5
1CD
330
1F
100
AcDbEntity
  8
0
  6
Continuous
 62
     7
370
    25
100
AcDbCircle
 10
194.3199127467
 20
63.69796837
 30
0.0
 40
1.0
100
AcDbArc
 50
180.0
 51
270.0
  0
LINE
  5
1CE
330
1F
100
AcDbEntity
  8
0
  6
Continuous
 62
     7
370
    25
100
AcDbLine
 10
193.3199127467
 20
63.69796837
 30
0.0
 11
193.3199127467
 21
75.69796837
 31
0.0
  0
ARC
  5
1CF
330
1F
100
AcDbEntity
  8
0
  6
Continuous
 62
     7
370
    25
100
AcDbCircle
 10
403.8699127467
 20
132.84796837
 30
0.0
 40
1.000000000000028
100
AcDbArc
 50
90.0
 51
180.0
  0
LINE
  5
1D0
330
1F
100
AcDbEntity
  8
0
  6
Continuous
 62
     7
370
    25
100
AcDbLine
 10
403.8699127467
 20
133.84796837
 30
0.0
 11
415.8699127467
 21
133.84796837
 31
0.0
  0
ARC
  5
1D1
330
1F
100
AcDbEntity
  8
0
  6
Continuous
 62
     7
370
    25
100
AcDbCircle
 10
415.8699127467
 20
132.84796837
 30
0.0
 40
1.000000000000057
100
AcDbArc
 50
0.0
 51
90.0
  0
LINE
  5
1D2
330
1F
100
AcDbEntity
  8
0
  6
Continuous
 62
     7
370
    25
100
AcDbLine
 10
416.8699127467
 20
120.84796837
 30
0.0
 11
416.8699127467
 21
132.84796837
 31
0.0
  0
ARC
  5
1D3
330
1F
100
AcDbEntity
  8
0
  6
Continuous
 62
     7
370
    25
100
AcDbCircle
 10
415.8699127467
 20
120.84796837
 30
0.0
 40
1.000000000000057
100
AcDbArc
 50
270.0
 51
0.0
  0
LINE
  5
1D4
330
1F
100
AcDbEntity
  8
0
  6
Continuous
 62
     7
370
    25
100
AcDbLine
 10
403.8699127467
 20
119.84796837
 30
0.0
 11
415.8699127467
 21
119.84796837
 31
0.0
  0
ARC
  5
1D5
330
1F
100
AcDbEntity
  8
0
  6
Continuous
 62
     7
370
    25
100
AcDbCircle
 10
403.8699127467
 20
120.84796837
 30
0.0
 40
1.000000000000057
100
AcDbArc
 50
180.0
 51
270.0
  0
LINE
  5
1D6
330
1F
100
AcDbEntity
  8
0
  6
Continuous
 62
     7
370
    25
100
AcDbLine
 10
402.8699127467
 20
120.84796837
 30
0.0
 11
402.8699127467
 21
132.84796837
 31
0.0
  0
ARC
  5
1D7
330
1F
100
AcDbEntity
  8
0
  6
Continuous
 62
     7
370
    25
100
AcDbCircle
 10
122.8824127467
 20
113.79796837
 30
0.0
 40
1.000000000000014
100
AcDbArc
 50
90.0
 51
180.0
  0
LINE
  5
1D8
330
1F
100
AcDbEntity
  8
0
  6
Continuous
 62
     7
370
    25
100
AcDbLine
 10
122.8824127467
 20
114.79796837
 30
0.0
 11
134.8824127467
 21
114.79796837
 31
0.0
  0
ARC
  5
1D9
330
1F
100
AcDbEntity
  8
0
  6
Continuous
 62
     7
370
    25
100
AcDbCircle
 10
134.8824127467
 20
113.79796837
 30
0.0
 40
1.0
100
AcDbArc
 50
360.0
 51
90.0
  0
LINE
  5
1DA
330
1F
100
AcDbEntity
  8
0
  6
Continuous
 62
     7
370
    25
100
AcDbLine
 10
135.8824127467
 20
101.79796837
 30
0.0
 11
135.8824127467
 21
113.79796837
 31
0.0
  0
ARC
  5
1DB
330
1F
100
AcDbEntity
  8
0
  6
Continuous
 62
     7
370
    25
100
AcDbCircle
 10
134.8824127467
 20
101.79796837
 30
0.0
 40
1.0
100
AcDbArc
 50
270.0
 51
0.0
  0
LINE
  5
1DC
330
1F
100
AcDbEntity
  8
0
  6
Continuous
 62
     7
370
    25
100
AcDbLine
 10
122.8824127467
 20
100.79796837
 30
0.0
 11
134.8824127467
 21
100.79796837
 31
0.0
  0
ARC
  5
1DD
330
1F
100
AcDbEntity
  8
0
  6
Continuous
 62
     7
370
    25
100
AcDbCircle
 10
122.8824127467
 20
101.79796837
 30
0.0
 40
0.9999999999999858
100
AcDbArc
 50
180.0
 51
270.0
  0
LINE
  5
1DE
330
1F
100
AcDbEntity
  8
0
  6
Continuous
 62
     7
370
    25
100
AcDbLine
 10
121.8824127467
 20
101.79796837
 30
0.0
 11
121.8824127467
 21
113.79796837
 31
0.0
  0
ARC
  5
1DF
330
1F
100
AcDbEntity
  8
0
  6
Continuous
 62
     7
370
    25
100
AcDbCircle
 10
156.2199127467
 20
75.69796837
 30
0.0
 40
1.000000000000028
100
AcDbArc
 50
90.0
 51
180.0
  0
LINE
  5
1E0
330
1F
100
AcDbEntity
  8
0
  6
Continuous
 62
     7
370
    25
100
AcDbLine
 10
156.2199127467
 20
76.69796837
 30
0.0
 11
168.2199127467
 21
76.69796837
 31
0.0
  0
ARC
  5
1E1
330
1F
100
AcDbEntity
  8
0
  6
Continuous
 62
     7
370
    25
100
AcDbCircle
 10
168.2199127467
 20
75.69796837
 30
0.0
 40
0.9999999999999716
100
AcDbArc
 50
360.0
 51
90.0
  0
LINE
  5
1E2
330
1F
100
AcDbEntity
  8
0
  6
Continuous
 62
     7
370
    25
100
AcDbLine
 10
169.2199127467
 20
63.69796837
 30
0.0
 11
169.2199127467
 21
75.69796837
 31
0.0
  0
ARC
  5
1E3
330
1F
100
AcDbEntity
  8
0
  6
Continuous
 62
     7
370
    25
100
AcDbCircle
 10
168.2199127467
 20
63.69796837
 30
0.0
 40
1.000000000000028
100
AcDbArc
 50
270.0
 51
360.0
  0
LINE
  5
1E4
330
1F
100
AcDbEntity
  8
0
  6
Continuous
 62
     7
370
    25
100
AcDbLine
 10
156.2199127467
 20
62.69796837
 30
0.0
 11
168.2199127467
 21
62.69796837
 31
0.0
  0
ARC
  5
1E5
330
1F
100
AcDbEntity
  8
0
  6
Continuous
 62
     7
370
    25
100
AcDbCircle
 10
156.2199127467
 20
63.69796837
 30
0.0
 40
0.9999999999999858
100
AcDbArc
 50
180.0
 51
270.0
  0
LINE
  5
1E6
330
1F
100
AcDbEntity
  8
0
  6
Continuous
 62
     7
370
    25
100
AcDbLine
 10
155.2199127467
 20
63.69796837
 30
0.0
 11
155.2199127467
 21
75.69796837
 31
0.0
  0
ARC
  5
1E7
330
1F
100
AcDbEntity
  8
0
  6
Continuous
 62
     7
370
    25
100
AcDbCircle
 10
175.2699127467
 20
75.69796837
 30
0.0
 40
1.000000000000028
100
AcDbArc
 50
90.0
 51
180.0
  0
LINE
  5
1E8
330
1F
100
AcDbEntity
  8
0
  6
Continuous
 62
     7
370
    25
100
AcDbLine
 10
175.2699127467
 20
76.69796837
 30
0.0
 11
187.2699127467
 21
76.69796837
 31
0.0
  0
ARC
  5
1E9
330
1F
100
AcDbEntity
  8
0
  6
Continuous
 62
     7
370
    25
100
AcDbCircle
 10
187.2699127467
 20
75.69796837
 30
0.0
 40
1.000000000000085
100
AcDbArc
 50
0.0
 51
90.0
  0
LINE
  5
1EA
330
1F
100
AcDbEntity
  8
0
  6
Continuous
 62
     7
370
    25
100
AcDbLine
 10
188.2699127467
 20
63.69796837
 30
0.0
 11
188.2699127467
 21
75.69796837
 31
0.0
  0
ARC
  5
1EB
330
1F
100
AcDbEntity
  8
0
  6
Continuous
 62
     7
370
    25
100
AcDbCircle
 10
187.2699127467
 20
63.69796837
 30
0.0
 40
1.000000000000057
100
AcDbArc
 50
270.0
 51
360.0
  0
LINE
  5
1EC
330
1F
100
AcDbEntity
  8
0
  6
Continuous
 62
     7
370
    25
100
AcDbLine
 10
175.2699127467
 20
62.69796837
 30
0.0
 11
187.2699127467
 21
62.69796837
 31
0.0
  0
ARC
  5
1ED
330
1F
100
AcDbEntity
  8
0
  6
Continuous
 62
     7
370
    25
100
AcDbCircle
 10
175.2699127467
 20
63.69796837
 30
0.0
 40
1.000000000000028
100
AcDbArc
 50
180.0
 51
270.0
  0
LINE
  5
1EE
330
1F
100
AcDbEntity
  8
0
  6
Continuous
 62
     7
370
    25
100
AcDbLine
 10
174.2699127467
 20
63.69796837
 30
0.0
 11
174.2699127467
 21
75.69796837
 31
0.0
  0
ARC
  5
1EF
330
1F
100
AcDbEntity
  8
0
  6
Continuous
 62
     7
370
    25
100
AcDbCircle
 10
325.3824127467
 20
113.79796837
 30
0.0
 40
1.000000000000057
100
AcDbArc
 50
0.0
 51
90.0
  0
LINE
  5
1F0
330
1F
100
AcDbEntity
  8
0
  6
Continuous
 62
     7
370
    25
100
AcDbLine
 10
326.3824127467
 20
101.79796837
 30
0.0
 11
326.3824127467
 21
113.79796837
 31
0.0
  0
ARC
  5
1F1
330
1F
100
AcDbEntity
  8
0
  6
Continuous
 62
     7
370
    25
100
AcDbCircle
 10
325.3824127467
 20
101.79796837
 30
0.0
 40
1.000000000000057
100
AcDbArc
 50
270.0
 51
360.0
  0
LINE
  5
1F2
330
1F
100
AcDbEntity
  8
0
  6
Continuous
 62
     7
370
    25
100
AcDbLine
 10
313.3824127467
 20
100.79796837
 30
0.0
 11
325.3824127467
 21
100.79796837
 31
0.0
  0
ARC
  5
1F3
330
1F
100
AcDbEntity
  8
0
  6
Continuous
 62
     7
370
    25
100
AcDbCircle
 10
313.3824127467
 20
101.79796837
 30
0.0
 40
1.000000000000057
100
AcDbArc
 50
180.0
 51
270.0
  0
LINE
  5
1F4
330
1F
100
AcDbEntity
  8
0
  6
Continuous
 62
     7
370
    25
100
AcDbLine
 10
312.3824127467
 20
113.79796837
 30
0.0
 11
312.3824127467
 21
101.79796837
 31
0.0
  0
ARC
  5
1F5
330
1F
100
AcDbEntity
  8
0
  6
Continuous
 62
     7
370
    25
100
AcDbCircle
 10
313.3824127467
 20
113.79796837
 30
0.0
 40
1.000000000000057
100
AcDbArc
 50
90.0
 51
180.0
  0
LINE
  5
1F6
330
1F
100
AcDbEntity
  8
0
  6
Continuous
 62
     7
370
    25
100
AcDbLine
 10
325.3824127467
 20
114.79796837
 30
0.0
 11
313.3824127467
 21
114.79796837
 31
0.0
  0
ARC
  5
1F7
330
1F
100
AcDbEntity
  8
0
  6
Continuous
 62
     7
370
    25
100
AcDbCircle
 10
284.8074127467
 20
156.66046837
 30
0.0
 40
0.9999999999999716
100
AcDbArc
 50
90.0
 51
180.0
  0
LINE
  5
1F8
330
1F
100
AcDbEntity
  8
0
  6
Continuous
 62
     7
370
    25
100
AcDbLine
 10
284.8074127467
 20
157.66046837
 30
0.0
 11
296.8074127467
 21
157.66046837
 31
0.0
  0
ARC
  5
1F9
330
1F
100
AcDbEntity
  8
0
  6
Continuous
 62
     7
370
    25
100
AcDbCircle
 10
296.8074127467
 20
156.66046837
 30
0.0
 40
1.000000000000057
100
AcDbArc
 50
0.0
 51
90.0
  0
LINE
  5
1FA
330
1F
100
AcDbEntity
  8
0
  6
Continuous
 62
     7
370
    25
100
AcDbLine
 10
297.8074127467
 20
144.66046837
 30
0.0
 11
297.8074127467
 21
156.66046837
 31
0.0
  0
ARC
  5
1FB
330
1F
100
AcDbEntity
  8
0
  6
Continuous
 62
     7
370
    25
100
AcDbCircle
 10
296.8074127467
 20
144.66046837
 30
0.0
 40
1.000000000000057
100
AcDbArc
 50
270.0
 51
360.0
  0
LINE
  5
1FC
330
1F
100
AcDbEntity
  8
0
  6
Continuous
 62
     7
370
    25
100
AcDbLine
 10
284.8074127467
 20
143.66046837
 30
0.0
 11
296.8074127467
 21
143.66046837
 31
0.0
  0
ARC
  5
1FD
330
1F
100
AcDbEntity
  8
0
  6
Continuous
 62
     7
370
    25
100
AcDbCircle
 10
284.8074127467
 20
144.66046837
 30
0.0
 40
0.9999999999999716
100
AcDbArc
 50
180.0
 51
270.0
  0
LINE
  5
1FE
330
1F
100
AcDbEntity
  8
0
  6
Continuous
 62
     7
370
    25
100
AcDbLine
 10
283.8074127467
 20
144.66046837
 30
0.0
 11
283.8074127467
 21
156.66046837
 31
0.0
  0
ARC
  5
1FF
330
1F
100
AcDbEntity
  8
0
  6
Continuous
 62
     7
370
    25
100
AcDbCircle
 10
75.2574127467
 20
132.828865081
 30
0.0
 40
1.000000000000057
100
AcDbArc
 50
90.0
 51
180.0
  0
LINE
  5
200
330
1F
100
AcDbEntity
  8
0
  6
Continuous
 62
     7
370
    25
100
AcDbLine
 10
75.2574127467
 20
133.828865081
 30
0.0
 11
87.2574127467
 21
133.828865081
 31
0.0
  0
ARC
  5
201
330
1F
100
AcDbEntity
  8
0
  6
Continuous
 62
     7
370
    25
100
AcDbCircle
 10
87.2574127467
 20
132.828865081
 30
0.0
 40
1.000000000000028
100
AcDbArc
 50
0.0
 51
90.0
  0
LINE
  5
202
330
1F
100
AcDbEntity
  8
0
  6
Continuous
 62
     7
370
    25
100
AcDbLine
 10
88.2574127467
 20
120.828865081
 30
0.0
 11
88.2574127467
 21
132.828865081
 31
0.0
  0
ARC
  5
203
330
1F
100
AcDbEntity
  8
0
  6
Continuous
 62
     7
370
    25
100
AcDbCircle
 10
87.2574127467
 20
120.828865081
 30
0.0
 40
1.000000000000028
100
AcDbArc
 50
270.0
 51
360.0
  0
LINE
  5
204
330
1F
100
AcDbEntity
  8
0
  6
Continuous
 62
     7
370
    25
100
AcDbLine
 10
75.2574127467
 20
119.828865081
 30
0.0
 11
87.2574127467
 21
119.828865081
 31
0.0
  0
ARC
  5
205
330
1F
100
AcDbEntity
  8
0
  6
Continuous
 62
     7
370
    25
100
AcDbCircle
 10
75.2574127467
 20
120.828865081
 30
0.0
 40
1.000000000000071
100
AcDbArc
 50
180.0
 51
270.0
  0
LINE
  5
206
330
1F
100
AcDbEntity
  8
0
  6
Continuous
 62
     7
370
    25
100
AcDbLine
 10
74.2574127467
 20
120.828865081
 30
0.0
 11
74.2574127467
 21
132.828865081
 31
0.0
  0
ARC
  5
207
330
1F
100
AcDbEntity
  8
0
  6
Continuous
 62
     7
370
    25
100
AcDbCircle
 10
132.4074127467
 20
156.66046837
 30
0.0
 40
1.000000000000057
100
AcDbArc
 50
90.0
 51
180.0
  0
LINE
  5
208
330
1F
100
AcDbEntity
  8
0
  6
Continuous
 62
     7
370
    25
100
AcDbLine
 10
132.4074127467
 20
157.66046837
 30
0.0
 11
144.4074127467
 21
157.66046837
 31
0.0
  0
ARC
  5
209
330
1F
100
AcDbEntity
  8
0
  6
Continuous
 62
     7
370
    25
100
AcDbCircle
 10
144.4074127467
 20
156.66046837
 30
0.0
 40
1.0
100
AcDbArc
 50
0.0
 51
90.0
  0
LINE
  5
20A
330
1F
100
AcDbEntity
  8
0
  6
Continuous
 62
     7
370
    25
100
AcDbLine
 10
145.4074127467
 20
144.66046837
 30
0.0
 11
145.4074127467
 21
156.66046837
 31
0.0
  0
ARC
  5
20B
330
1F
100
AcDbEntity
  8
0
  6
Continuous
 62
     7
370
    25
100
AcDbCircle
 10
144.4074127467
 20
144.66046837
 30
0.0
 40
1.000000000000028
100
AcDbArc
 50
270.0
 51
360.0
  0
LINE
  5
20C
330
1F
100
AcDbEntity
  8
0
  6
Continuous
 62
     7
370
    25
100
AcDbLine
 10
132.4074127467
 20
143.66046837
 30
0.0
 11
144.4074127467
 21
143.66046837
 31
0.0
  0
ARC
  5
20D
330
1F
100
AcDbEntity
  8
0
  6
Continuous
 62
     7
370
    25
100
AcDbCircle
 10
132.4074127467
 20
144.66046837
 30
0.0
 40
1.000000000000028
100
AcDbArc
 50
180.0
 51
270.0
  0
LINE
  5
20E
330
1F
100
AcDbEntity
  8
0
  6
Continuous
 62
     7
370
    25
100
AcDbLine
 10
131.4074127467
 20
144.66046837
 30
0.0
 11
131.4074127467
 21
156.66046837
 31
0.0
  0
ARC
  5
20F
330
1F
100
AcDbEntity
  8
0
  6
Continuous
 62
     7
370
    25
100
AcDbCircle
 10
125.3574127467
 20
156.66046837
 30
0.0
 40
1.000000000000028
100
AcDbArc
 50
0.0
 51
90.0
  0
LINE
  5
210
330
1F
100
AcDbEntity
  8
0
  6
Continuous
 62
     7
370
    25
100
AcDbLine
 10
126.3574127467
 20
144.66046837
 30
0.0
 11
126.3574127467
 21
156.66046837
 31
0.0
  0
ARC
  5
211
330
1F
100
AcDbEntity
  8
0
  6
Continuous
 62
     7
370
    25
100
AcDbCircle
 10
125.3574127467
 20
144.66046837
 30
0.0
 40
1.000000000000057
100
AcDbArc
 50
270.0
 51
360.0
  0
LINE
  5
212
330
1F
100
AcDbEntity
  8
0
  6
Continuous
 62
     7
370
    25
100
AcDbLine
 10
113.3574127467
 20
143.66046837
 30
0.0
 11
125.3574127467
 21
143.66046837
 31
0.0
  0
ARC
  5
213
330
1F
100
AcDbEntity
  8
0
  6
Continuous
 62
     7
370
    25
100
AcDbCircle
 10
113.3574127467
 20
144.66046837
 30
0.0
 40
1.000000000000114
100
AcDbArc
 50
180.0
 51
270.0
  0
LINE
  5
214
330
1F
100
AcDbEntity
  8
0
  6
Continuous
 62
     7
370
    25
100
AcDbLine
 10
112.3574127467
 20
144.66046837
 30
0.0
 11
112.3574127467
 21
156.66046837
 31
0.0
  0
ARC
  5
215
330
1F
100
AcDbEntity
  8
0
  6
Continuous
 62
     7
370
    25
100
AcDbCircle
 10
113.3574127467
 20
156.66046837
 30
0.0
 40
1.000000000000085
100
AcDbArc
 50
90.0
 51
180.0
  0
LINE
  5
216
330
1F
100
AcDbEntity
  8
0
  6
Continuous
 62
     7
370
    25
100
AcDbLine
 10
113.3574127467
 20
157.66046837
 30
0.0
 11
125.3574127467
 21
157.66046837
 31
0.0
  0
ARC
  5
217
330
1F
100
AcDbEntity
  8
0
  6
Continuous
 62
     7
370
    25
100
AcDbCircle
 10
146.6949127467
 20
94.74796837
 30
0.0
 40
1.000000000000014
100
AcDbArc
 50
90.0
 51
180.0
  0
LINE
  5
218
330
1F
100
AcDbEntity
  8
0
  6
Continuous
 62
     7
370
    25
100
AcDbLine
 10
146.6949127467
 20
95.74796837
 30
0.0
 11
158.6949127467
 21
95.74796837
 31
0.0
  0
ARC
  5
219
330
1F
100
AcDbEntity
  8
0
  6
Continuous
 62
     7
370
    25
100
AcDbCircle
 10
158.6949127467
 20
94.74796837
 30
0.0
 40
1.0
100
AcDbArc
 50
0.0
 51
90.0
  0
LINE
  5
21A
330
1F
100
AcDbEntity
  8
0
  6
Continuous
 62
     7
370
    25
100
AcDbLine
 10
159.6949127467
 20
82.74796837
 30
0.0
 11
159.6949127467
 21
94.74796837
 31
0.0
  0
ARC
  5
21B
330
1F
100
AcDbEntity
  8
0
  6
Continuous
 62
     7
370
    25
100
AcDbCircle
 10
158.6949127467
 20
82.74796837
 30
0.0
 40
1.000000000000014
100
AcDbArc
 50
270.0
 51
0.0
  0
LINE
  5
21C
330
1F
100
AcDbEntity
  8
0
  6
Continuous
 62
     7
370
    25
100
AcDbLine
 10
146.6949127467
 20
81.74796837
 30
0.0
 11
158.6949127467
 21
81.74796837
 31
0.0
  0
ARC
  5
21D
330
1F
100
AcDbEntity
  8
0
  6
Continuous
 62
     7
370
    25
100
AcDbCircle
 10
146.6949127467
 20
82.74796837
 30
0.0
 40
1.000000000000028
100
AcDbArc
 50
180.0
 51
270.0
  0
LINE
  5
21E
330
1F
100
AcDbEntity
  8
0
  6
Continuous
 62
     7
370
    25
100
AcDbLine
 10
145.6949127467
 20
82.74796837
 30
0.0
 11
145.6949127467
 21
94.74796837
 31
0.0
  0
ARC
  5
21F
330
1F
100
AcDbEntity
  8
0
  6
Continuous
 62
     7
370
    25
100
AcDbCircle
 10
127.6449127467
 20
94.74796837
 30
0.0
 40
1.000000000000014
100
AcDbArc
 50
90.0
 51
180.0
  0
LINE
  5
220
330
1F
100
AcDbEntity
  8
0
  6
Continuous
 62
     7
370
    25
100
AcDbLine
 10
127.6449127467
 20
95.74796837
 30
0.0
 11
139.6449127467
 21
95.74796837
 31
0.0
  0
ARC
  5
221
330
1F
100
AcDbEntity
  8
0
  6
Continuous
 62
     7
370
    25
100
AcDbCircle
 10
139.6449127467
 20
94.74796837
 30
0.0
 40
1.0
100
AcDbArc
 50
0.0
 51
90.0
  0
LINE
  5
222
330
1F
100
AcDbEntity
  8
0
  6
Continuous
 62
     7
370
    25
100
AcDbLine
 10
140.6449127467
 20
82.74796837
 30
0.0
 11
140.6449127467
 21
94.74796837
 31
0.0
  0
ARC
  5
223
330
1F
100
AcDbEntity
  8
0
  6
Continuous
 62
     7
370
    25
100
AcDbCircle
 10
139.6449127467
 20
82.74796837
 30
0.0
 40
1.000000000000057
100
AcDbArc
 50
270.0
 51
360.0
  0
LINE
  5
224
330
1F
100
AcDbEntity
  8
0
  6
Continuous
 62
     7
370
    25
100
AcDbLine
 10
127.6449127467
 20
81.74796837
 30
0.0
 11
139.6449127467
 21
81.74796837
 31
0.0
  0
ARC
  5
225
330
1F
100
AcDbEntity
  8
0
  6
Continuous
 62
     7
370
    25
100
AcDbCircle
 10
127.6449127467
 20
82.74796837
 30
0.0
 40
1.000000000000028
100
AcDbArc
 50
180.0
 51
270.0
  0
LINE
  5
226
330
1F
100
AcDbEntity
  8
0
  6
Continuous
 62
     7
370
    25
100
AcDbLine
 10
126.6449127467
 20
82.74796837
 30
0.0
 11
126.6449127467
 21
94.74796837
 31
0.0
  0
ARC
  5
227
330
1F
100
AcDbEntity
  8
0
  6
Continuous
 62
     7
370
    25
100
AcDbCircle
 10
94.3074127467
 20
132.828865081
 30
0.0
 40
0.9999999999999716
100
AcDbArc
 50
90.0
 51
180.0
  0
LINE
  5
228
330
1F
100
AcDbEntity
  8
0
  6
Continuous
 62
     7
370
    25
100
AcDbLine
 10
94.3074127467
 20
133.828865081
 30
0.0
 11
106.3074127467
 21
133.828865081
 31
0.0
  0
ARC
  5
229
330
1F
100
AcDbEntity
  8
0
  6
Continuous
 62
     7
370
    25
100
AcDbCircle
 10
106.3074127467
 20
132.828865081
 30
0.0
 40
1.0
100
AcDbArc
 50
0.0
 51
90.0
  0
LINE
  5
22A
330
1F
100
AcDbEntity
  8
0
  6
Continuous
 62
     7
370
    25
100
AcDbLine
 10
107.3074127467
 20
120.828865081
 30
0.0
 11
107.3074127467
 21
132.828865081
 31
0.0
  0
ARC
  5
22B
330
1F
100
AcDbEntity
  8
0
  6
Continuous
 62
     7
370
    25
100
AcDbCircle
 10
106.3074127467
 20
120.828865081
 30
0.0
 40
1.000000000000014
100
AcDbArc
 50
270.0
 51
0.0
  0
LINE
  5
22C
330
1F
100
AcDbEntity
  8
0
  6
Continuous
 62
     7
370
    25
100
AcDbLine
 10
94.3074127467
 20
119.828865081
 30
0.0
 11
106.3074127467
 21
119.828865081
 31
0.0
  0
ARC
  5
22D
330
1F
100
AcDbEntity
  8
0
  6
Continuous
 62
     7
370
    25
100
AcDbCircle
 10
94.3074127467
 20
120.828865081
 30
0.0
 40
1.0
100
AcDbArc
 50
180.0
 51
270.0
  0
LINE
  5
22E
330
1F
100
AcDbEntity
  8
0
  6
Continuous
 62
     7
370
    25
100
AcDbLine
 10
93.3074127467
 20
120.828865081
 30
0.0
 11
93.3074127467
 21
132.828865081
 31
0.0
  0
ARC
  5
22F
330
1F
100
AcDbEntity
  8
0
  6
Continuous
 62
     7
370
    25
100
AcDbCircle
 10
151.4574127467
 20
156.66046837
 30
0.0
 40
1.000000000000028
100
AcDbArc
 50
90.0
 51
180.0
  0
LINE
  5
230
330
1F
100
AcDbEntity
  8
0
  6
Continuous
 62
     7
370
    25
100
AcDbLine
 10
151.4574127467
 20
157.66046837
 30
0.0
 11
163.4574127467
 21
157.66046837
 31
0.0
  0
ARC
  5
231
330
1F
100
AcDbEntity
  8
0
  6
Continuous
 62
     7
370
    25
100
AcDbCircle
 10
163.4574127467
 20
156.66046837
 30
0.0
 40
1.0
100
AcDbArc
 50
0.0
 51
90.0
  0
LINE
  5
232
330
1F
100
AcDbEntity
  8
0
  6
Continuous
 62
     7
370
    25
100
AcDbLine
 10
164.4574127467
 20
144.66046837
 30
0.0
 11
164.4574127467
 21
156.66046837
 31
0.0
  0
ARC
  5
233
330
1F
100
AcDbEntity
  8
0
  6
Continuous
 62
     7
370
    25
100
AcDbCircle
 10
163.4574127467
 20
144.66046837
 30
0.0
 40
1.000000000000028
100
AcDbArc
 50
270.0
 51
360.0
  0
LINE
  5
234
330
1F
100
AcDbEntity
  8
0
  6
Continuous
 62
     7
370
    25
100
AcDbLine
 10
151.4574127467
 20
143.66046837
 30
0.0
 11
163.4574127467
 21
143.66046837
 31
0.0
  0
ARC
  5
235
330
1F
100
AcDbEntity
  8
0
  6
Continuous
 62
     7
370
    25
100
AcDbCircle
 10
151.4574127467
 20
144.66046837
 30
0.0
 40
1.000000000000028
100
AcDbArc
 50
180.0
 51
270.0
  0
LINE
  5
236
330
1F
100
AcDbEntity
  8
0
  6
Continuous
 62
     7
370
    25
100
AcDbLine
 10
150.4574127467
 20
144.66046837
 30
0.0
 11
150.4574127467
 21
156.66046837
 31
0.0
  0
ARC
  5
237
330
1F
100
AcDbEntity
  8
0
  6
Continuous
 62
     7
370
    25
100
AcDbCircle
 10
80.0199127467
 20
113.79796837
 30
0.0
 40
1.000000000000028
100
AcDbArc
 50
90.0
 51
180.0
  0
LINE
  5
238
330
1F
100
AcDbEntity
  8
0
  6
Continuous
 62
     7
370
    25
100
AcDbLine
 10
80.0199127467
 20
114.79796837
 30
0.0
 11
92.0199127467
 21
114.79796837
 31
0.0
  0
ARC
  5
239
330
1F
100
AcDbEntity
  8
0
  6
Continuous
 62
     7
370
    25
100
AcDbCircle
 10
92.0199127467
 20
113.79796837
 30
0.0
 40
1.000000000000071
100
AcDbArc
 50
0.0
 51
90.0
  0
LINE
  5
23A
330
1F
100
AcDbEntity
  8
0
  6
Continuous
 62
     7
370
    25
100
AcDbLine
 10
93.0199127467
 20
101.79796837
 30
0.0
 11
93.0199127467
 21
113.79796837
 31
0.0
  0
ARC
  5
23B
330
1F
100
AcDbEntity
  8
0
  6
Continuous
 62
     7
370
    25
100
AcDbCircle
 10
92.0199127467
 20
101.79796837
 30
0.0
 40
1.000000000000043
100
AcDbArc
 50
270.0
 51
360.0
  0
LINE
  5
23C
330
1F
100
AcDbEntity
  8
0
  6
Continuous
 62
     7
370
    25
100
AcDbLine
 10
80.0199127467
 20
100.79796837
 30
0.0
 11
92.0199127467
 21
100.79796837
 31
0.0
  0
ARC
  5
23D
330
1F
100
AcDbEntity
  8
0
  6
Continuous
 62
     7
370
    25
100
AcDbCircle
 10
80.0199127467
 20
101.79796837
 30
0.0
 40
1.0
100
AcDbArc
 50
180.0
 51
270.0
  0
LINE
  5
23E
330
1F
100
AcDbEntity
  8
0
  6
Continuous
 62
     7
370
    25
100
AcDbLine
 10
79.0199127467
 20
101.79796837
 30
0.0
 11
79.0199127467
 21
113.79796837
 31
0.0
  0
ARC
  5
23F
330
1F
100
AcDbEntity
  8
0
  6
Continuous
 62
     7
370
    25
100
AcDbCircle
 10
75.2574127467
 20
156.66046837
 30
0.0
 40
1.000000000000085
100
AcDbArc
 50
90.0
 51
180.0
  0
LINE
  5
240
330
1F
100
AcDbEntity
  8
0
  6
Continuous
 62
     7
370
    25
100
AcDbLine
 10
75.2574127467
 20
157.66046837
 30
0.0
 11
87.2574127467
 21
157.66046837
 31
0.0
  0
ARC
  5
241
330
1F
100
AcDbEntity
  8
0
  6
Continuous
 62
     7
370
    25
100
AcDbCircle
 10
87.2574127467
 20
156.66046837
 30
0.0
 40
1.000000000000057
100
AcDbArc
 50
0.0
 51
90.0
  0
LINE
  5
242
330
1F
100
AcDbEntity
  8
0
  6
Continuous
 62
     7
370
    25
100
AcDbLine
 10
88.2574127467
 20
144.66046837
 30
0.0
 11
88.2574127467
 21
156.66046837
 31
0.0
  0
ARC
  5
243
330
1F
100
AcDbEntity
  8
0
  6
Continuous
 62
     7
370
    25
100
AcDbCircle
 10
87.2574127467
 20
144.66046837
 30
0.0
 40
1.000000000000057
100
AcDbArc
 50
270.0
 51
360.0
  0
LINE
  5
244
330
1F
100
AcDbEntity
  8
0
  6
Continuous
 62
     7
370
    25
100
AcDbLine
 10
75.2574127467
 20
143.66046837
 30
0.0
 11
87.2574127467
 21
143.66046837
 31
0.0
  0
ARC
  5
245
330
1F
100
AcDbEntity
  8
0
  6
Continuous
 62
     7
370
    25
100
AcDbCircle
 10
75.2574127467
 20
144.66046837
 30
0.0
 40
1.000000000000085
100
AcDbArc
 50
180.0
 51
270.0
  0
LINE
  5
246
330
1F
100
AcDbEntity
  8
0
  6
Continuous
 62
     7
370
    25
100
AcDbLine
 10
74.2574127467
 20
144.66046837
 30
0.0
 11
74.2574127467
 21
156.66046837
 31
0.0
  0
ARC
  5
247
330
1F
100
AcDbEntity
  8
0
  6
Continuous
 62
     7
370
    25
100
AcDbCircle
 10
165.7449127467
 20
94.74796837
 30
0.0
 40
1.000000000000028
100
AcDbArc
 50
90.0
 51
180.0
  0
LINE
  5
248
330
1F
100
AcDbEntity
  8
0
  6
Continuous
 62
     7
370
    25
100
AcDbLine
 10
165.7449127467
 20
95.74796837
 30
0.0
 11
177.7449127467
 21
95.74796837
 31
0.0
  0
ARC
  5
249
330
1F
100
AcDbEntity
  8
0
  6
Continuous
 62
     7
370
    25
100
AcDbCircle
 10
177.7449127467
 20
94.74796837
 30
0.0
 40
1.000000000000057
100
AcDbArc
 50
0.0
 51
90.0
  0
LINE
  5
24A
330
1F
100
AcDbEntity
  8
0
  6
Continuous
 62
     7
370
    25
100
AcDbLine
 10
178.7449127467
 20
82.74796837
 30
0.0
 11
178.7449127467
 21
94.74796837
 31
0.0
  0
ARC
  5
24B
330
1F
100
AcDbEntity
  8
0
  6
Continuous
 62
     7
370
    25
100
AcDbCircle
 10
177.7449127467
 20
82.74796837
 30
0.0
 40
1.000000000000071
100
AcDbArc
 50
270.0
 51
360.0
  0
LINE
  5
24C
330
1F
100
AcDbEntity
  8
0
  6
Continuous
 62
     7
370
    25
100
AcDbLine
 10
165.7449127467
 20
81.74796837
 30
0.0
 11
177.7449127467
 21
81.74796837
 31
0.0
  0
ARC
  5
24D
330
1F
100
AcDbEntity
  8
0
  6
Continuous
 62
     7
370
    25
100
AcDbCircle
 10
165.7449127467
 20
82.74796837
 30
0.0
 40
1.000000000000028
100
AcDbArc
 50
180.0
 51
270.0
  0
LINE
  5
24E
330
1F
100
AcDbEntity
  8
0
  6
Continuous
 62
     7
370
    25
100
AcDbLine
 10
164.7449127467
 20
82.74796837
 30
0.0
 11
164.7449127467
 21
94.74796837
 31
0.0
  0
ARC
  5
24F
330
1F
100
AcDbEntity
  8
0
  6
Continuous
 62
     7
370
    25
100
AcDbCircle
 10
113.3574127467
 20
132.828865081
 30
0.0
 40
1.000000000000057
100
AcDbArc
 50
90.0
 51
180.0
  0
LINE
  5
250
330
1F
100
AcDbEntity
  8
0
  6
Continuous
 62
     7
370
    25
100
AcDbLine
 10
113.3574127467
 20
133.828865081
 30
0.0
 11
125.3574127467
 21
133.828865081
 31
0.0
  0
ARC
  5
251
330
1F
100
AcDbEntity
  8
0
  6
Continuous
 62
     7
370
    25
100
AcDbCircle
 10
125.3574127467
 20
132.828865081
 30
0.0
 40
1.000000000000028
100
AcDbArc
 50
0.0
 51
90.0
  0
LINE
  5
252
330
1F
100
AcDbEntity
  8
0
  6
Continuous
 62
     7
370
    25
100
AcDbLine
 10
126.3574127467
 20
120.828865081
 30
0.0
 11
126.3574127467
 21
132.828865081
 31
0.0
  0
ARC
  5
253
330
1F
100
AcDbEntity
  8
0
  6
Continuous
 62
     7
370
    25
100
AcDbCircle
 10
125.3574127467
 20
120.828865081
 30
0.0
 40
1.000000000000028
100
AcDbArc
 50
270.0
 51
360.0
  0
LINE
  5
254
330
1F
100
AcDbEntity
  8
0
  6
Continuous
 62
     7
370
    25
100
AcDbLine
 10
113.3574127467
 20
119.828865081
 30
0.0
 11
125.3574127467
 21
119.828865081
 31
0.0
  0
ARC
  5
255
330
1F
100
AcDbEntity
  8
0
  6
Continuous
 62
     7
370
    25
100
AcDbCircle
 10
113.3574127467
 20
120.828865081
 30
0.0
 40
1.000000000000071
100
AcDbArc
 50
180.0
 51
270.0
  0
LINE
  5
256
330
1F
100
AcDbEntity
  8
0
  6
Continuous
 62
     7
370
    25
100
AcDbLine
 10
112.3574127467
 20
120.828865081
 30
0.0
 11
112.3574127467
 21
132.828865081
 31
0.0
  0
ARC
  5
257
330
1F
100
AcDbEntity
  8
0
  6
Continuous
 62
     7
370
    25
100
AcDbCircle
 10
218.1324127467
 20
156.66046837
 30
0.0
 40
1.000000000000114
100
AcDbArc
 50
90.0
 51
180.0
  0
LINE
  5
258
330
1F
100
AcDbEntity
  8
0
  6
Continuous
 62
     7
370
    25
100
AcDbLine
 10
218.1324127467
 20
157.66046837
 30
0.0
 11
230.1324127467
 21
157.66046837
 31
0.0
  0
ARC
  5
259
330
1F
100
AcDbEntity
  8
0
  6
Continuous
 62
     7
370
    25
100
AcDbCircle
 10
230.1324127467
 20
156.66046837
 30
0.0
 40
1.000000000000028
100
AcDbArc
 50
0.0
 51
90.0
  0
LINE
  5
25A
330
1F
100
AcDbEntity
  8
0
  6
Continuous
 62
     7
370
    25
100
AcDbLine
 10
231.1324127467
 20
144.66046837
 30
0.0
 11
231.1324127467
 21
156.66046837
 31
0.0
  0
ARC
  5
25B
330
1F
100
AcDbEntity
  8
0
  6
Continuous
 62
     7
370
    25
100
AcDbCircle
 10
230.1324127467
 20
144.66046837
 30
0.0
 40
1.000000000000028
100
AcDbArc
 50
270.0
 51
360.0
  0
LINE
  5
25C
330
1F
100
AcDbEntity
  8
0
  6
Continuous
 62
     7
370
    25
100
AcDbLine
 10
218.1324127467
 20
143.66046837
 30
0.0
 11
230.1324127467
 21
143.66046837
 31
0.0
  0
ARC
  5
25D
330
1F
100
AcDbEntity
  8
0
  6
Continuous
 62
     7
370
    25
100
AcDbCircle
 10
218.1324127467
 20
144.66046837
 30
0.0
 40
1.000000000000085
100
AcDbArc
 50
180.0
 51
270.0
  0
LINE
  5
25E
330
1F
100
AcDbEntity
  8
0
  6
Continuous
 62
     7
370
    25
100
AcDbLine
 10
217.1324127467
 20
144.66046837
 30
0.0
 11
217.1324127467
 21
156.66046837
 31
0.0
  0
ARC
  5
25F
330
1F
100
AcDbEntity
  8
0
  6
Continuous
 62
     7
370
    25
100
AcDbCircle
 10
199.0824127467
 20
156.66046837
 30
0.0
 40
1.000000000000114
100
AcDbArc
 50
90.0
 51
180.0
  0
LINE
  5
260
330
1F
100
AcDbEntity
  8
0
  6
Continuous
 62
     7
370
    25
100
AcDbLine
 10
199.0824127467
 20
157.66046837
 30
0.0
 11
211.0824127467
 21
157.66046837
 31
0.0
  0
ARC
  5
261
330
1F
100
AcDbEntity
  8
0
  6
Continuous
 62
     7
370
    25
100
AcDbCircle
 10
211.0824127467
 20
156.66046837
 30
0.0
 40
1.000000000000057
100
AcDbArc
 50
0.0
 51
90.0
  0
LINE
  5
262
330
1F
100
AcDbEntity
  8
0
  6
Continuous
 62
     7
370
    25
100
AcDbLine
 10
212.0824127467
 20
144.66046837
 30
0.0
 11
212.0824127467
 21
156.66046837
 31
0.0
  0
ARC
  5
263
330
1F
100
AcDbEntity
  8
0
  6
Continuous
 62
     7
370
    25
100
AcDbCircle
 10
211.0824127467
 20
144.66046837
 30
0.0
 40
1.000000000000057
100
AcDbArc
 50
270.0
 51
360.0
  0
LINE
  5
264
330
1F
100
AcDbEntity
  8
0
  6
Continuous
 62
     7
370
    25
100
AcDbLine
 10
199.0824127467
 20
143.66046837
 30
0.0
 11
211.0824127467
 21
143.66046837
 31
0.0
  0
ARC
  5
265
330
1F
100
AcDbEntity
  8
0
  6
Continuous
 62
     7
370
    25
100
AcDbCircle
 10
199.0824127467
 20
144.66046837
 30
0.0
 40
1.000000000000057
100
AcDbArc
 50
180.0
 51
270.0
  0
LINE
  5
266
330
1F
100
AcDbEntity
  8
0
  6
Continuous
 62
     7
370
    25
100
AcDbLine
 10
198.0824127467
 20
144.66046837
 30
0.0
 11
198.0824127467
 21
156.66046837
 31
0.0
  0
ARC
  5
267
330
1F
100
AcDbEntity
  8
0
  6
Continuous
 62
     7
370
    25
100
AcDbCircle
 10
289.5699127467
 20
75.69796837
 30
0.0
 40
1.0
100
AcDbArc
 50
90.0
 51
180.0
  0
LINE
  5
268
330
1F
100
AcDbEntity
  8
0
  6
Continuous
 62
     7
370
    25
100
AcDbLine
 10
289.5699127467
 20
76.69796837
 30
0.0
 11
301.5699127467
 21
76.69796837
 31
0.0
  0
ARC
  5
269
330
1F
100
AcDbEntity
  8
0
  6
Continuous
 62
     7
370
    25
100
AcDbCircle
 10
301.5699127467
 20
75.69796837
 30
0.0
 40
1.000000000000057
100
AcDbArc
 50
0.0
 51
90.0
  0
LINE
  5
26A
330
1F
100
AcDbEntity
  8
0
  6
Continuous
 62
     7
370
    25
100
AcDbLine
 10
302.5699127467
 20
63.69796837
 30
0.0
 11
302.5699127467
 21
75.69796837
 31
0.0
  0
ARC
  5
26B
330
1F
100
AcDbEntity
  8
0
  6
Continuous
 62
     7
370
    25
100
AcDbCircle
 10
301.5699127467
 20
63.69796837
 30
0.0
 40
1.000000000000057
100
AcDbArc
 50
270.0
 51
360.0
  0
LINE
  5
26C
330
1F
100
AcDbEntity
  8
0
  6
Continuous
 62
     7
370
    25
100
AcDbLine
 10
289.5699127467
 20
62.69796837
 30
0.0
 11
301.5699127467
 21
62.69796837
 31
0.0
  0
ARC
  5
26D
330
1F
100
AcDbEntity
  8
0
  6
Continuous
 62
     7
370
    25
100
AcDbCircle
 10
289.5699127467
 20
63.69796837
 30
0.0
 40
0.9999999999999432
100
AcDbArc
 50
180.0
 51
270.0
  0
LINE
  5
26E
330
1F
100
AcDbEntity
  8
0
  6
Continuous
 62
     7
370
    25
100
AcDbLine
 10
288.5699127467
 20
63.69796837
 30
0.0
 11
288.5699127467
 21
75.69796837
 31
0.0
  0
ARC
  5
26F
330
1F
100
AcDbEntity
  8
0
  6
Continuous
 62
     7
370
    25
100
AcDbCircle
 10
184.7949127467
 20
94.74796837
 30
0.0
 40
1.000000000000028
100
AcDbArc
 50
90.0
 51
180.0
  0
LINE
  5
270
330
1F
100
AcDbEntity
  8
0
  6
Continuous
 62
     7
370
    25
100
AcDbLine
 10
184.7949127467
 20
95.74796837
 30
0.0
 11
196.7949127467
 21
95.74796837
 31
0.0
  0
ARC
  5
271
330
1F
100
AcDbEntity
  8
0
  6
Continuous
 62
     7
370
    25
100
AcDbCircle
 10
196.7949127467
 20
94.74796837
 30
0.0
 40
1.000000000000028
100
AcDbArc
 50
0.0
 51
90.0
  0
LINE
  5
272
330
1F
100
AcDbEntity
  8
0
  6
Continuous
 62
     7
370
    25
100
AcDbLine
 10
197.7949127467
 20
82.74796837
 30
0.0
 11
197.7949127467
 21
94.74796837
 31
0.0
  0
ARC
  5
273
330
1F
100
AcDbEntity
  8
0
  6
Continuous
 62
     7
370
    25
100
AcDbCircle
 10
196.7949127467
 20
82.74796837
 30
0.0
 40
1.000000000000028
100
AcDbArc
 50
270.0
 51
360.0
  0
LINE
  5
274
330
1F
100
AcDbEntity
  8
0
  6
Continuous
 62
     7
370
    25
100
AcDbLine
 10
184.7949127467
 20
81.74796837
 30
0.0
 11
196.7949127467
 21
81.74796837
 31
0.0
  0
ARC
  5
275
330
1F
100
AcDbEntity
  8
0
  6
Continuous
 62
     7
370
    25
100
AcDbCircle
 10
184.7949127467
 20
82.74796837
 30
0.0
 40
1.000000000000028
100
AcDbArc
 50
180.0
 51
270.0
  0
LINE
  5
276
330
1F
100
AcDbEntity
  8
0
  6
Continuous
 62
     7
370
    25
100
AcDbLine
 10
183.7949127467
 20
82.74796837
 30
0.0
 11
183.7949127467
 21
94.74796837
 31
0.0
  0
ARC
  5
277
330
1F
100
AcDbEntity
  8
0
  6
Continuous
 62
     7
370
    25
100
AcDbCircle
 10
151.4574127467
 20
132.828865081
 30
0.0
 40
1.000000000000028
100
AcDbArc
 50
90.0
 51
180.0
  0
LINE
  5
278
330
1F
100
AcDbEntity
  8
0
  6
Continuous
 62
     7
370
    25
100
AcDbLine
 10
151.4574127467
 20
133.828865081
 30
0.0
 11
163.4574127467
 21
133.828865081
 31
0.0
  0
ARC
  5
279
330
1F
100
AcDbEntity
  8
0
  6
Continuous
 62
     7
370
    25
100
AcDbCircle
 10
163.4574127467
 20
132.828865081
 30
0.0
 40
0.9999999999999716
100
AcDbArc
 50
360.0
 51
90.0
  0
LINE
  5
27A
330
1F
100
AcDbEntity
  8
0
  6
Continuous
 62
     7
370
    25
100
AcDbLine
 10
164.4574127467
 20
120.828865081
 30
0.0
 11
164.4574127467
 21
132.828865081
 31
0.0
  0
ARC
  5
27B
330
1F
100
AcDbEntity
  8
0
  6
Continuous
 62
     7
370
    25
100
AcDbCircle
 10
163.4574127467
 20
120.828865081
 30
0.0
 40
1.000000000000028
100
AcDbArc
 50
270.0
 51
360.0
  0
LINE
  5
27C
330
1F
100
AcDbEntity
  8
0
  6
Continuous
 62
     7
370
    25
100
AcDbLine
 10
151.4574127467
 20
119.828865081
 30
0.0
 11
163.4574127467
 21
119.828865081
 31
0.0
  0
ARC
  5
27D
330
1F
100
AcDbEntity
  8
0
  6
Continuous
 62
     7
370
    25
100
AcDbCircle
 10
151.4574127467
 20
120.828865081
 30
0.0
 40
1.0
100
AcDbArc
 50
180.0
 51
270.0
  0
LINE
  5
27E
330
1F
100
AcDbEntity
  8
0
  6
Continuous
 62
     7
370
    25
100
AcDbLine
 10
150.4574127467
 20
120.828865081
 30
0.0
 11
150.4574127467
 21
132.828865081
 31
0.0
  0
ARC
  5
27F
330
1F
100
AcDbEntity
  8
0
  6
Continuous
 62
     7
370
    25
100
AcDbCircle
 10
132.4074127467
 20
132.828865081
 30
0.0
 40
0.9999999999999716
100
AcDbArc
 50
90.0
 51
180.0
  0
LINE
  5
280
330
1F
100
AcDbEntity
  8
0
  6
Continuous
 62
     7
370
    25
100
AcDbLine
 10
132.4074127467
 20
133.828865081
 30
0.0
 11
144.4074127467
 21
133.828865081
 31
0.0
  0
ARC
  5
281
330
1F
100
AcDbEntity
  8
0
  6
Continuous
 62
     7
370
    25
100
AcDbCircle
 10
144.4074127467
 20
132.828865081
 30
0.0
 40
0.9999999999999716
100
AcDbArc
 50
360.0
 51
90.0
  0
LINE
  5
282
330
1F
100
AcDbEntity
  8
0
  6
Continuous
 62
     7
370
    25
100
AcDbLine
 10
145.4074127467
 20
120.828865081
 30
0.0
 11
145.4074127467
 21
132.828865081
 31
0.0
  0
ARC
  5
283
330
1F
100
AcDbEntity
  8
0
  6
Continuous
 62
     7
370
    25
100
AcDbCircle
 10
144.4074127467
 20
120.828865081
 30
0.0
 40
1.000000000000028
100
AcDbArc
 50
270.0
 51
360.0
  0
LINE
  5
284
330
1F
100
AcDbEntity
  8
0
  6
Continuous
 62
     7
370
    25
100
AcDbLine
 10
132.4074127467
 20
119.828865081
 30
0.0
 11
144.4074127467
 21
119.828865081
 31
0.0
  0
ARC
  5
285
330
1F
100
AcDbEntity
  8
0
  6
Continuous
 62
     7
370
    25
100
AcDbCircle
 10
132.4074127467
 20
120.828865081
 30
0.0
 40
1.0
100
AcDbArc
 50
180.0
 51
270.0
  0
LINE
  5
286
330
1F
100
AcDbEntity
  8
0
  6
Continuous
 62
     7
370
    25
100
AcDbLine
 10
131.4074127467
 20
120.828865081
 30
0.0
 11
131.4074127467
 21
132.828865081
 31
0.0
  0
ARC
  5
287
330
1F
100
AcDbEntity
  8
0
  6
Continuous
 62
     7
370
    25
100
AcDbCircle
 10
237.1824127467
 20
156.66046837
 30
0.0
 40
1.000000000000057
100
AcDbArc
 50
90.0
 51
180.0
  0
LINE
  5
288
330
1F
100
AcDbEntity
  8
0
  6
Continuous
 62
     7
370
    25
100
AcDbLine
 10
237.1824127467
 20
157.66046837
 30
0.0
 11
249.1824127467
 21
157.66046837
 31
0.0
  0
ARC
  5
289
330
1F
100
AcDbEntity
  8
0
  6
Continuous
 62
     7
370
    25
100
AcDbCircle
 10
249.1824127467
 20
156.66046837
 30
0.0
 40
1.000000000000057
100
AcDbArc
 50
0.0
 51
90.0
  0
LINE
  5
28A
330
1F
100
AcDbEntity
  8
0
  6
Continuous
 62
     7
370
    25
100
AcDbLine
 10
250.1824127467
 20
144.66046837
 30
0.0
 11
250.1824127467
 21
156.66046837
 31
0.0
  0
ARC
  5
28B
330
1F
100
AcDbEntity
  8
0
  6
Continuous
 62
     7
370
    25
100
AcDbCircle
 10
249.1824127467
 20
144.66046837
 30
0.0
 40
1.0
100
AcDbArc
 50
270.0
 51
0.0
  0
LINE
  5
28C
330
1F
100
AcDbEntity
  8
0
  6
Continuous
 62
     7
370
    25
100
AcDbLine
 10
237.1824127467
 20
143.66046837
 30
0.0
 11
249.1824127467
 21
143.66046837
 31
0.0
  0
ARC
  5
28D
330
1F
100
AcDbEntity
  8
0
  6
Continuous
 62
     7
370
    25
100
AcDbCircle
 10
237.1824127467
 20
144.66046837
 30
0.0
 40
1.000000000000028
100
AcDbArc
 50
180.0
 51
270.0
  0
LINE
  5
28E
330
1F
100
AcDbEntity
  8
0
  6
Continuous
 62
     7
370
    25
100
AcDbLine
 10
236.1824127467
 20
144.66046837
 30
0.0
 11
236.1824127467
 21
156.66046837
 31
0.0
  0
ARC
  5
28F
330
1F
100
AcDbEntity
  8
0
  6
Continuous
 62
     7
370
    25
100
AcDbCircle
 10
341.9612503394
 20
156.66046837
 30
0.0
 40
1.0
100
AcDbArc
 50
90.0
 51
180.0
  0
LINE
  5
290
330
1F
100
AcDbEntity
  8
0
  6
Continuous
 62
     7
370
    25
100
AcDbLine
 10
341.9612503394
 20
157.66046837
 30
0.0
 11
353.9612503394
 21
157.66046837
 31
0.0
  0
ARC
  5
291
330
1F
100
AcDbEntity
  8
0
  6
Continuous
 62
     7
370
    25
100
AcDbCircle
 10
353.9612503394
 20
156.66046837
 30
0.0
 40
1.000000000000057
100
AcDbArc
 50
0.0
 51
90.0
  0
LINE
  5
292
330
1F
100
AcDbEntity
  8
0
  6
Continuous
 62
     7
370
    25
100
AcDbLine
 10
354.9612503394
 20
144.66046837
 30
0.0
 11
354.9612503394
 21
156.66046837
 31
0.0
  0
ARC
  5
293
330
1F
100
AcDbEntity
  8
0
  6
Continuous
 62
     7
370
    25
100
AcDbCircle
 10
353.9612503394
 20
144.66046837
 30
0.0
 40
1.000000000000057
100
AcDbArc
 50
270.0
 51
360.0
  0
LINE
  5
294
330
1F
100
AcDbEntity
  8
0
  6
Continuous
 62
     7
370
    25
100
AcDbLine
 10
341.9612503394
 20
143.66046837
 30
0.0
 11
353.9612503394
 21
143.66046837
 31
0.0
  0
ARC
  5
295
330
1F
100
AcDbEntity
  8
0
  6
Continuous
 62
     7
370
    25
100
AcDbCircle
 10
341.9612503394
 20
144.66046837
 30
0.0
 40
1.0
100
AcDbArc
 50
180.0
 51
270.0
  0
LINE
  5
296
330
1F
100
AcDbEntity
  8
0
  6
Continuous
 62
     7
370
    25
100
AcDbLine
 10
340.9612503394
 20
144.66046837
 30
0.0
 11
340.9612503394
 21
156.66046837
 31
0.0
  0
ARC
  5
297
330
1F
100
AcDbEntity
  8
0
  6
Continuous
 62
     7
370
    25
100
AcDbCircle
 10
222.8949127467
 20
94.74796837
 30
0.0
 40
1.000000000000028
100
AcDbArc
 50
90.0
 51
180.0
  0
LINE
  5
298
330
1F
100
AcDbEntity
  8
0
  6
Continuous
 62
     7
370
    25
100
AcDbLine
 10
222.8949127467
 20
95.74796837
 30
0.0
 11
234.8949127467
 21
95.74796837
 31
0.0
  0
ARC
  5
299
330
1F
100
AcDbEntity
  8
0
  6
Continuous
 62
     7
370
    25
100
AcDbCircle
 10
234.8949127467
 20
94.74796837
 30
0.0
 40
1.0
100
AcDbArc
 50
0.0
 51
90.0
  0
LINE
  5
29A
330
1F
100
AcDbEntity
  8
0
  6
Continuous
 62
     7
370
    25
100
AcDbLine
 10
235.8949127467
 20
82.74796837
 30
0.0
 11
235.8949127467
 21
94.74796837
 31
0.0
  0
ARC
  5
29B
330
1F
100
AcDbEntity
  8
0
  6
Continuous
 62
     7
370
    25
100
AcDbCircle
 10
234.8949127467
 20
82.74796837
 30
0.0
 40
1.000000000000028
100
AcDbArc
 50
270.0
 51
360.0
  0
LINE
  5
29C
330
1F
100
AcDbEntity
  8
0
  6
Continuous
 62
     7
370
    25
100
AcDbLine
 10
222.8949127467
 20
81.74796837
 30
0.0
 11
234.8949127467
 21
81.74796837
 31
0.0
  0
ARC
  5
29D
330
1F
100
AcDbEntity
  8
0
  6
Continuous
 62
     7
370
    25
100
AcDbCircle
 10
222.8949127467
 20
82.74796837
 30
0.0
 40
1.0
100
AcDbArc
 50
180.0
 51
270.0
  0
LINE
  5
29E
330
1F
100
AcDbEntity
  8
0
  6
Continuous
 62
     7
370
    25
100
AcDbLine
 10
221.8949127467
 20
82.74796837
 30
0.0
 11
221.8949127467
 21
94.74796837
 31
0.0
  0
ARC
  5
29F
330
1F
100
AcDbEntity
  8
0
  6
Continuous
 62
     7
370
    25
100
AcDbCircle
 10
203.8449127467
 20
94.74796837
 30
0.0
 40
1.000000000000028
100
AcDbArc
 50
90.0
 51
180.0
  0
LINE
  5
2A0
330
1F
100
AcDbEntity
  8
0
  6
Continuous
 62
     7
370
    25
100
AcDbLine
 10
203.8449127467
 20
95.74796837
 30
0.0
 11
215.8449127467
 21
95.74796837
 31
0.0
  0
ARC
  5
2A1
330
1F
100
AcDbEntity
  8
0
  6
Continuous
 62
     7
370
    25
100
AcDbCircle
 10
215.8449127467
 20
94.74796837
 30
0.0
 40
0.9999999999999716
100
AcDbArc
 50
360.0
 51
90.0
  0
LINE
  5
2A2
330
1F
100
AcDbEntity
  8
0
  6
Continuous
 62
     7
370
    25
100
AcDbLine
 10
216.8449127467
 20
82.74796837
 30
0.0
 11
216.8449127467
 21
94.74796837
 31
0.0
  0
ARC
  5
2A3
330
1F
100
AcDbEntity
  8
0
  6
Continuous
 62
     7
370
    25
100
AcDbCircle
 10
215.8449127467
 20
82.74796837
 30
0.0
 40
1.000000000000028
100
AcDbArc
 50
270.0
 51
360.0
  0
LINE
  5
2A4
330
1F
100
AcDbEntity
  8
0
  6
Continuous
 62
     7
370
    25
100
AcDbLine
 10
203.8449127467
 20
81.74796837
 30
0.0
 11
215.8449127467
 21
81.74796837
 31
0.0
  0
ARC
  5
2A5
330
1F
100
AcDbEntity
  8
0
  6
Continuous
 62
     7
370
    25
100
AcDbCircle
 10
203.8449127467
 20
82.74796837
 30
0.0
 40
1.000000000000028
100
AcDbArc
 50
180.0
 51
270.0
  0
LINE
  5
2A6
330
1F
100
AcDbEntity
  8
0
  6
Continuous
 62
     7
370
    25
100
AcDbLine
 10
202.8449127467
 20
82.74796837
 30
0.0
 11
202.8449127467
 21
94.74796837
 31
0.0
  0
ARC
  5
2A7
330
1F
100
AcDbEntity
  8
0
  6
Continuous
 62
     7
370
    25
100
AcDbCircle
 10
170.5074127467
 20
132.828865081
 30
0.0
 40
1.000000000000028
100
AcDbArc
 50
90.0
 51
180.0
  0
LINE
  5
2A8
330
1F
100
AcDbEntity
  8
0
  6
Continuous
 62
     7
370
    25
100
AcDbLine
 10
170.5074127467
 20
133.828865081
 30
0.0
 11
182.5074127467
 21
133.828865081
 31
0.0
  0
ARC
  5
2A9
330
1F
100
AcDbEntity
  8
0
  6
Continuous
 62
     7
370
    25
100
AcDbCircle
 10
182.5074127467
 20
132.828865081
 30
0.0
 40
0.9999999999999716
100
AcDbArc
 50
360.0
 51
90.0
  0
LINE
  5
2AA
330
1F
100
AcDbEntity
  8
0
  6
Continuous
 62
     7
370
    25
100
AcDbLine
 10
183.5074127467
 20
120.828865081
 30
0.0
 11
183.5074127467
 21
132.828865081
 31
0.0
  0
ARC
  5
2AB
330
1F
100
AcDbEntity
  8
0
  6
Continuous
 62
     7
370
    25
100
AcDbCircle
 10
182.5074127467
 20
120.828865081
 30
0.0
 40
1.000000000000028
100
AcDbArc
 50
270.0
 51
360.0
  0
LINE
  5
2AC
330
1F
100
AcDbEntity
  8
0
  6
Continuous
 62
     7
370
    25
100
AcDbLine
 10
170.5074127467
 20
119.828865081
 30
0.0
 11
182.5074127467
 21
119.828865081
 31
0.0
  0
ARC
  5
2AD
330
1F
100
AcDbEntity
  8
0
  6
Continuous
 62
     7
370
    25
100
AcDbCircle
 10
170.5074127467
 20
120.828865081
 30
0.0
 40
1.0
100
AcDbArc
 50
180.0
 51
270.0
  0
LINE
  5
2AE
330
1F
100
AcDbEntity
  8
0
  6
Continuous
 62
     7
370
    25
100
AcDbLine
 10
169.5074127467
 20
120.828865081
 30
0.0
 11
169.5074127467
 21
132.828865081
 31
0.0
  0
ARC
  5
2AF
330
1F
100
AcDbEntity
  8
0
  6
Continuous
 62
     7
370
    25
100
AcDbCircle
 10
256.2324127467
 20
156.66046837
 30
0.0
 40
1.0
100
AcDbArc
 50
90.0
 51
180.0
  0
LINE
  5
2B0
330
1F
100
AcDbEntity
  8
0
  6
Continuous
 62
     7
370
    25
100
AcDbLine
 10
256.2324127467
 20
157.66046837
 30
0.0
 11
268.2324127467
 21
157.66046837
 31
0.0
  0
ARC
  5
2B1
330
1F
100
AcDbEntity
  8
0
  6
Continuous
 62
     7
370
    25
100
AcDbCircle
 10
268.2324127467
 20
156.66046837
 30
0.0
 40
1.000000000000057
100
AcDbArc
 50
0.0
 51
90.0
  0
LINE
  5
2B2
330
1F
100
AcDbEntity
  8
0
  6
Continuous
 62
     7
370
    25
100
AcDbLine
 10
269.2324127467
 20
144.66046837
 30
0.0
 11
269.2324127467
 21
156.66046837
 31
0.0
  0
ARC
  5
2B3
330
1F
100
AcDbEntity
  8
0
  6
Continuous
 62
     7
370
    25
100
AcDbCircle
 10
268.2324127467
 20
144.66046837
 30
0.0
 40
1.000000000000057
100
AcDbArc
 50
270.0
 51
360.0
  0
LINE
  5
2B4
330
1F
100
AcDbEntity
  8
0
  6
Continuous
 62
     7
370
    25
100
AcDbLine
 10
256.2324127467
 20
143.66046837
 30
0.0
 11
268.2324127467
 21
143.66046837
 31
0.0
  0
ARC
  5
2B5
330
1F
100
AcDbEntity
  8
0
  6
Continuous
 62
     7
370
    25
100
AcDbCircle
 10
256.2324127467
 20
144.66046837
 30
0.0
 40
1.000000000000028
100
AcDbArc
 50
180.0
 51
270.0
  0
LINE
  5
2B6
330
1F
100
AcDbEntity
  8
0
  6
Continuous
 62
     7
370
    25
100
AcDbLine
 10
255.2324127467
 20
144.66046837
 30
0.0
 11
255.2324127467
 21
156.66046837
 31
0.0
  0
ARC
  5
2B7
330
1F
100
AcDbEntity
  8
0
  6
Continuous
 62
     7
370
    25
100
AcDbCircle
 10
77.6386627467
 20
94.74796837
 30
0.0
 40
1.000000000000014
100
AcDbArc
 50
90.0
 51
180.0
  0
LINE
  5
2B8
330
1F
100
AcDbEntity
  8
0
  6
Continuous
 62
     7
370
    25
100
AcDbLine
 10
94.4011627467
 20
95.74796837
 30
0.0
 11
77.6386627467
 21
95.74796837
 31
0.0
  0
ARC
  5
2B9
330
1F
100
AcDbEntity
  8
0
  6
Continuous
 62
     7
370
    25
100
AcDbCircle
 10
94.4011627467
 20
94.74796837
 30
0.0
 40
0.9999999999995168
100
AcDbArc
 50
0.0
 51
89.9999999986
  0
LINE
  5
2BA
330
1F
100
AcDbEntity
  8
0
  6
Continuous
 62
     7
370
    25
100
AcDbLine
 10
95.4011627467
 20
82.74796837
 30
0.0
 11
95.4011627467
 21
94.74796837
 31
0.0
  0
ARC
  5
2BB
330
1F
100
AcDbEntity
  8
0
  6
Continuous
 62
     7
370
    25
100
AcDbCircle
 10
94.4011627467
 20
82.74796837
 30
0.0
 40
0.9999999999999858
100
AcDbArc
 50
270.0
 51
0.0
  0
LINE
  5
2BC
330
1F
100
AcDbEntity
  8
0
  6
Continuous
 62
     7
370
    25
100
AcDbLine
 10
77.6386627467
 20
81.74796837
 30
0.0
 11
94.4011627467
 21
81.74796837
 31
0.0
  0
ARC
  5
2BD
330
1F
100
AcDbEntity
  8
0
  6
Continuous
 62
     7
370
    25
100
AcDbCircle
 10
77.6386627467
 20
82.74796837
 30
0.0
 40
1.0
100
AcDbArc
 50
180.0
 51
269.9999999985
  0
LINE
  5
2BE
330
1F
100
AcDbEntity
  8
0
  6
Continuous
 62
     7
370
    25
100
AcDbLine
 10
76.6386627467
 20
94.74796837
 30
0.0
 11
76.6386627467
 21
82.74796837
 31
0.0
  0
ARC
  5
2BF
330
1F
100
AcDbEntity
  8
0
  6
Continuous
 62
     7
370
    25
100
AcDbCircle
 10
241.9449127467
 20
94.74796837
 30
0.0
 40
1.000000000000028
100
AcDbArc
 50
90.0
 51
180.0
  0
LINE
  5
2C0
330
1F
100
AcDbEntity
  8
0
  6
Continuous
 62
     7
370
    25
100
AcDbLine
 10
241.9449127467
 20
95.74796837
 30
0.0
 11
253.9449127467
 21
95.74796837
 31
0.0
  0
ARC
  5
2C1
330
1F
100
AcDbEntity
  8
0
  6
Continuous
 62
     7
370
    25
100
AcDbCircle
 10
253.9449127467
 20
94.74796837
 30
0.0
 40
1.0
100
AcDbArc
 50
0.0
 51
90.0
  0
LINE
  5
2C2
330
1F
100
AcDbEntity
  8
0
  6
Continuous
 62
     7
370
    25
100
AcDbLine
 10
254.9449127467
 20
82.74796837
 30
0.0
 11
254.9449127467
 21
94.74796837
 31
0.0
  0
ARC
  5
2C3
330
1F
100
AcDbEntity
  8
0
  6
Continuous
 62
     7
370
    25
100
AcDbCircle
 10
253.9449127467
 20
82.74796837
 30
0.0
 40
1.0
100
AcDbArc
 50
270.0
 51
0.0
  0
LINE
  5
2C4
330
1F
100
AcDbEntity
  8
0
  6
Continuous
 62
     7
370
    25
100
AcDbLine
 10
241.9449127467
 20
81.74796837
 30
0.0
 11
253.9449127467
 21
81.74796837
 31
0.0
  0
ARC
  5
2C5
330
1F
100
AcDbEntity
  8
0
  6
Continuous
 62
     7
370
    25
100
AcDbCircle
 10
241.9449127467
 20
82.74796837
 30
0.0
 40
0.9999999999999716
100
AcDbArc
 50
180.0
 51
270.0
  0
LINE
  5
2C6
330
1F
100
AcDbEntity
  8
0
  6
Continuous
 62
     7
370
    25
100
AcDbLine
 10
240.9449127467
 20
82.74796837
 30
0.0
 11
240.9449127467
 21
94.74796837
 31
0.0
  0
ARC
  5
2C7
330
1F
100
AcDbEntity
  8
0
  6
Continuous
 62
     7
370
    25
100
AcDbCircle
 10
189.5574127467
 20
132.84796837
 30
0.0
 40
1.000000000000028
100
AcDbArc
 50
90.0
 51
180.0
  0
LINE
  5
2C8
330
1F
100
AcDbEntity
  8
0
  6
Continuous
 62
     7
370
    25
100
AcDbLine
 10
189.5574127467
 20
133.84796837
 30
0.0
 11
201.5574127467
 21
133.84796837
 31
0.0
  0
ARC
  5
2C9
330
1F
100
AcDbEntity
  8
0
  6
Continuous
 62
     7
370
    25
100
AcDbCircle
 10
201.5574127467
 20
132.84796837
 30
0.0
 40
0.9999999999999716
100
AcDbArc
 50
360.0
 51
90.0
  0
LINE
  5
2CA
330
1F
100
AcDbEntity
  8
0
  6
Continuous
 62
     7
370
    25
100
AcDbLine
 10
202.5574127467
 20
120.84796837
 30
0.0
 11
202.5574127467
 21
132.84796837
 31
0.0
  0
ARC
  5
2CB
330
1F
100
AcDbEntity
  8
0
  6
Continuous
 62
     7
370
    25
100
AcDbCircle
 10
201.5574127467
 20
120.84796837
 30
0.0
 40
1.000000000000014
100
AcDbArc
 50
270.0
 51
0.0
  0
LINE
  5
2CC
330
1F
100
AcDbEntity
  8
0
  6
Continuous
 62
     7
370
    25
100
AcDbLine
 10
189.5574127467
 20
119.84796837
 30
0.0
 11
201.5574127467
 21
119.84796837
 31
0.0
  0
ARC
  5
2CD
330
1F
100
AcDbEntity
  8
0
  6
Continuous
 62
     7
370
    25
100
AcDbCircle
 10
189.5574127467
 20
120.84796837
 30
0.0
 40
1.0
100
AcDbArc
 50
180.0
 51
270.0
  0
LINE
  5
2CE
330
1F
100
AcDbEntity
  8
0
  6
Continuous
 62
     7
370
    25
100
AcDbLine
 10
188.5574127467
 20
120.84796837
 30
0.0
 11
188.5574127467
 21
132.84796837
 31
0.0
  0
ARC
  5
2CF
330
1F
100
AcDbEntity
  8
0
  6
Continuous
 62
     7
370
    25
100
AcDbCircle
 10
322.9200988124
 20
156.66046837
 30
0.0
 40
1.000000000000114
100
AcDbArc
 50
90.0
 51
180.0
  0
LINE
  5
2D0
330
1F
100
AcDbEntity
  8
0
  6
Continuous
 62
     7
370
    25
100
AcDbLine
 10
322.9200988124
 20
157.66046837
 30
0.0
 11
334.9200988124
 21
157.66046837
 31
0.0
  0
ARC
  5
2D1
330
1F
100
AcDbEntity
  8
0
  6
Continuous
 62
     7
370
    25
100
AcDbCircle
 10
334.9200988124
 20
156.66046837
 30
0.0
 40
1.000000000000114
100
AcDbArc
 50
0.0
 51
90.0
  0
LINE
  5
2D2
330
1F
100
AcDbEntity
  8
0
  6
Continuous
 62
     7
370
    25
100
AcDbLine
 10
335.9200988124
 20
144.66046837
 30
0.0
 11
335.9200988124
 21
156.66046837
 31
0.0
  0
ARC
  5
2D3
330
1F
100
AcDbEntity
  8
0
  6
Continuous
 62
     7
370
    25
100
AcDbCircle
 10
334.9200988124
 20
144.66046837
 30
0.0
 40
1.000000000000057
100
AcDbArc
 50
270.0
 51
360.0
  0
LINE
  5
2D4
330
1F
100
AcDbEntity
  8
0
  6
Continuous
 62
     7
370
    25
100
AcDbLine
 10
322.9200988124
 20
143.66046837
 30
0.0
 11
334.9200988124
 21
143.66046837
 31
0.0
  0
ARC
  5
2D5
330
1F
100
AcDbEntity
  8
0
  6
Continuous
 62
     7
370
    25
100
AcDbCircle
 10
322.9200988124
 20
144.66046837
 30
0.0
 40
1.000000000000114
100
AcDbArc
 50
180.0
 51
270.0
  0
LINE
  5
2D6
330
1F
100
AcDbEntity
  8
0
  6
Continuous
 62
     7
370
    25
100
AcDbLine
 10
321.9200988124
 20
144.66046837
 30
0.0
 11
321.9200988124
 21
156.66046837
 31
0.0
  0
ARC
  5
2D7
330
1F
100
AcDbEntity
  8
0
  6
Continuous
 62
     7
370
    25
100
AcDbCircle
 10
303.8574127467
 20
156.66046837
 30
0.0
 40
1.0
100
AcDbArc
 50
90.0
 51
180.0
  0
LINE
  5
2D8
330
1F
100
AcDbEntity
  8
0
  6
Continuous
 62
     7
370
    25
100
AcDbLine
 10
303.8574127467
 20
157.66046837
 30
0.0
 11
315.8574127467
 21
157.66046837
 31
0.0
  0
ARC
  5
2D9
330
1F
100
AcDbEntity
  8
0
  6
Continuous
 62
     7
370
    25
100
AcDbCircle
 10
315.8574127467
 20
156.66046837
 30
0.0
 40
1.000000000000057
100
AcDbArc
 50
0.0
 51
90.0
  0
LINE
  5
2DA
330
1F
100
AcDbEntity
  8
0
  6
Continuous
 62
     7
370
    25
100
AcDbLine
 10
316.8574127467
 20
144.66046837
 30
0.0
 11
316.8574127467
 21
156.66046837
 31
0.0
  0
ARC
  5
2DB
330
1F
100
AcDbEntity
  8
0
  6
Continuous
 62
     7
370
    25
100
AcDbCircle
 10
315.8574127467
 20
144.66046837
 30
0.0
 40
1.000000000000057
100
AcDbArc
 50
270.0
 51
360.0
  0
LINE
  5
2DC
330
1F
100
AcDbEntity
  8
0
  6
Continuous
 62
     7
370
    25
100
AcDbLine
 10
303.8574127467
 20
143.66046837
 30
0.0
 11
315.8574127467
 21
143.66046837
 31
0.0
  0
ARC
  5
2DD
330
1F
100
AcDbEntity
  8
0
  6
Continuous
 62
     7
370
    25
100
AcDbCircle
 10
303.8574127467
 20
144.66046837
 30
0.0
 40
1.0
100
AcDbArc
 50
180.0
 51
270.0
  0
LINE
  5
2DE
330
1F
100
AcDbEntity
  8
0
  6
Continuous
 62
     7
370
    25
100
AcDbLine
 10
302.8574127467
 20
144.66046837
 30
0.0
 11
302.8574127467
 21
156.66046837
 31
0.0
  0
ARC
  5
2DF
330
1F
100
AcDbEntity
  8
0
  6
Continuous
 62
     7
370
    25
100
AcDbCircle
 10
260.9949127467
 20
94.74796837
 30
0.0
 40
1.000000000000142
100
AcDbArc
 50
90.0
 51
180.0
  0
LINE
  5
2E0
330
1F
100
AcDbEntity
  8
0
  6
Continuous
 62
     7
370
    25
100
AcDbLine
 10
260.9949127467
 20
95.74796837
 30
0.0
 11
272.9949127467
 21
95.74796837
 31
0.0
  0
ARC
  5
2E1
330
1F
100
AcDbEntity
  8
0
  6
Continuous
 62
     7
370
    25
100
AcDbCircle
 10
272.9949127467
 20
94.74796837
 30
0.0
 40
1.0
100
AcDbArc
 50
0.0
 51
90.0
  0
LINE
  5
2E2
330
1F
100
AcDbEntity
  8
0
  6
Continuous
 62
     7
370
    25
100
AcDbLine
 10
273.9949127467
 20
82.74796837
 30
0.0
 11
273.9949127467
 21
94.74796837
 31
0.0
  0
ARC
  5
2E3
330
1F
100
AcDbEntity
  8
0
  6
Continuous
 62
     7
370
    25
100
AcDbCircle
 10
272.9949127467
 20
82.74796837
 30
0.0
 40
0.9999999999999432
100
AcDbArc
 50
270.0
 51
0.0
  0
LINE
  5
2E4
330
1F
100
AcDbEntity
  8
0
  6
Continuous
 62
     7
370
    25
100
AcDbLine
 10
260.9949127467
 20
81.74796837
 30
0.0
 11
272.9949127467
 21
81.74796837
 31
0.0
  0
ARC
  5
2E5
330
1F
100
AcDbEntity
  8
0
  6
Continuous
 62
     7
370
    25
100
AcDbCircle
 10
260.9949127467
 20
82.74796837
 30
0.0
 40
1.000000000000057
100
AcDbArc
 50
180.0
 51
270.0
  0
LINE
  5
2E6
330
1F
100
AcDbEntity
  8
0
  6
Continuous
 62
     7
370
    25
100
AcDbLine
 10
259.9949127467
 20
82.74796837
 30
0.0
 11
259.9949127467
 21
94.74796837
 31
0.0
  0
ARC
  5
2E7
330
1F
100
AcDbEntity
  8
0
  6
Continuous
 62
     7
370
    25
100
AcDbCircle
 10
227.6574127467
 20
132.84796837
 30
0.0
 40
1.000000000000028
100
AcDbArc
 50
90.0
 51
180.0
  0
LINE
  5
2E8
330
1F
100
AcDbEntity
  8
0
  6
Continuous
 62
     7
370
    25
100
AcDbLine
 10
227.6574127467
 20
133.84796837
 30
0.0
 11
239.6574127467
 21
133.84796837
 31
0.0
  0
ARC
  5
2E9
330
1F
100
AcDbEntity
  8
0
  6
Continuous
 62
     7
370
    25
100
AcDbCircle
 10
239.6574127467
 20
132.84796837
 30
0.0
 40
0.9999999999999716
100
AcDbArc
 50
360.0
 51
90.0
  0
LINE
  5
2EA
330
1F
100
AcDbEntity
  8
0
  6
Continuous
 62
     7
370
    25
100
AcDbLine
 10
240.6574127467
 20
120.84796837
 30
0.0
 11
240.6574127467
 21
132.84796837
 31
0.0
  0
ARC
  5
2EB
330
1F
100
AcDbEntity
  8
0
  6
Continuous
 62
     7
370
    25
100
AcDbCircle
 10
239.6574127467
 20
120.84796837
 30
0.0
 40
1.000000000000014
100
AcDbArc
 50
270.0
 51
0.0
  0
LINE
  5
2EC
330
1F
100
AcDbEntity
  8
0
  6
Continuous
 62
     7
370
    25
100
AcDbLine
 10
227.6574127467
 20
119.84796837
 30
0.0
 11
239.6574127467
 21
119.84796837
 31
0.0
  0
ARC
  5
2ED
330
1F
100
AcDbEntity
  8
0
  6
Continuous
 62
     7
370
    25
100
AcDbCircle
 10
227.6574127467
 20
120.84796837
 30
0.0
 40
0.9999999999999716
100
AcDbArc
 50
180.0
 51
270.0
  0
LINE
  5
2EE
330
1F
100
AcDbEntity
  8
0
  6
Continuous
 62
     7
370
    25
100
AcDbLine
 10
226.6574127467
 20
120.84796837
 30
0.0
 11
226.6574127467
 21
132.84796837
 31
0.0
  0
ARC
  5
2EF
330
1F
100
AcDbEntity
  8
0
  6
Continuous
 62
     7
370
    25
100
AcDbCircle
 10
208.6074127467
 20
132.84796837
 30
0.0
 40
1.000000000000057
100
AcDbArc
 50
90.0
 51
180.0
  0
LINE
  5
2F0
330
1F
100
AcDbEntity
  8
0
  6
Continuous
 62
     7
370
    25
100
AcDbLine
 10
208.6074127467
 20
133.84796837
 30
0.0
 11
220.6074127467
 21
133.84796837
 31
0.0
  0
ARC
  5
2F1
330
1F
100
AcDbEntity
  8
0
  6
Continuous
 62
     7
370
    25
100
AcDbCircle
 10
220.6074127467
 20
132.84796837
 30
0.0
 40
1.000000000000057
100
AcDbArc
 50
0.0
 51
90.0
  0
LINE
  5
2F2
330
1F
100
AcDbEntity
  8
0
  6
Continuous
 62
     7
370
    25
100
AcDbLine
 10
221.6074127467
 20
120.84796837
 30
0.0
 11
221.6074127467
 21
132.84796837
 31
0.0
  0
ARC
  5
2F3
330
1F
100
AcDbEntity
  8
0
  6
Continuous
 62
     7
370
    25
100
AcDbCircle
 10
220.6074127467
 20
120.84796837
 30
0.0
 40
1.000000000000028
100
AcDbArc
 50
270.0
 51
0.0
  0
LINE
  5
2F4
330
1F
100
AcDbEntity
  8
0
  6
Continuous
 62
     7
370
    25
100
AcDbLine
 10
208.6074127467
 20
119.84796837
 30
0.0
 11
220.6074127467
 21
119.84796837
 31
0.0
  0
ARC
  5
2F5
330
1F
100
AcDbEntity
  8
0
  6
Continuous
 62
     7
370
    25
100
AcDbCircle
 10
208.6074127467
 20
120.84796837
 30
0.0
 40
1.000000000000028
100
AcDbArc
 50
180.0
 51
270.0
  0
LINE
  5
2F6
330
1F
100
AcDbEntity
  8
0
  6
Continuous
 62
     7
370
    25
100
AcDbLine
 10
207.6074127467
 20
120.84796837
 30
0.0
 11
207.6074127467
 21
132.84796837
 31
0.0
  0
ARC
  5
2F7
330
1F
100
AcDbEntity
  8
0
  6
Continuous
 62
     7
370
    25
100
AcDbCircle
 10
365.7699127467
 20
156.66046837
 30
0.0
 40
1.0
100
AcDbArc
 50
90.0
 51
180.0
  0
LINE
  5
2F8
330
1F
100
AcDbEntity
  8
0
  6
Continuous
 62
     7
370
    25
100
AcDbLine
 10
365.7699127467
 20
157.66046837
 30
0.0
 11
377.7699127467
 21
157.66046837
 31
0.0
  0
ARC
  5
2F9
330
1F
100
AcDbEntity
  8
0
  6
Continuous
 62
     7
370
    25
100
AcDbCircle
 10
377.7699127467
 20
156.66046837
 30
0.0
 40
1.000000000000057
100
AcDbArc
 50
0.0
 51
90.0
  0
LINE
  5
2FA
330
1F
100
AcDbEntity
  8
0
  6
Continuous
 62
     7
370
    25
100
AcDbLine
 10
378.7699127467
 20
144.66046837
 30
0.0
 11
378.7699127467
 21
156.66046837
 31
0.0
  0
ARC
  5
2FB
330
1F
100
AcDbEntity
  8
0
  6
Continuous
 62
     7
370
    25
100
AcDbCircle
 10
377.7699127467
 20
144.66046837
 30
0.0
 40
1.000000000000057
100
AcDbArc
 50
270.0
 51
360.0
  0
LINE
  5
2FC
330
1F
100
AcDbEntity
  8
0
  6
Continuous
 62
     7
370
    25
100
AcDbLine
 10
365.7699127467
 20
143.66046837
 30
0.0
 11
377.7699127467
 21
143.66046837
 31
0.0
  0
ARC
  5
2FD
330
1F
100
AcDbEntity
  8
0
  6
Continuous
 62
     7
370
    25
100
AcDbCircle
 10
365.7699127467
 20
144.66046837
 30
0.0
 40
1.000000000000114
100
AcDbArc
 50
180.0
 51
270.0
  0
LINE
  5
2FE
330
1F
100
AcDbEntity
  8
0
  6
Continuous
 62
     7
370
    25
100
AcDbLine
 10
364.7699127467
 20
144.66046837
 30
0.0
 11
364.7699127467
 21
156.66046837
 31
0.0
  0
ARC
  5
2FF
330
1F
100
AcDbEntity
  8
0
  6
Continuous
 62
     7
370
    25
100
AcDbCircle
 10
299.0949127467
 20
94.74796837
 30
0.0
 40
1.000000000000142
100
AcDbArc
 50
90.0
 51
180.0
  0
LINE
  5
300
330
1F
100
AcDbEntity
  8
0
  6
Continuous
 62
     7
370
    25
100
AcDbLine
 10
299.0949127467
 20
95.74796837
 30
0.0
 11
311.0949127467
 21
95.74796837
 31
0.0
  0
ARC
  5
301
330
1F
100
AcDbEntity
  8
0
  6
Continuous
 62
     7
370
    25
100
AcDbCircle
 10
311.0949127467
 20
94.74796837
 30
0.0
 40
1.000000000000057
100
AcDbArc
 50
0.0
 51
90.0
  0
LINE
  5
302
330
1F
100
AcDbEntity
  8
0
  6
Continuous
 62
     7
370
    25
100
AcDbLine
 10
312.0949127467
 20
82.74796837
 30
0.0
 11
312.0949127467
 21
94.74796837
 31
0.0
  0
ARC
  5
303
330
1F
100
AcDbEntity
  8
0
  6
Continuous
 62
     7
370
    25
100
AcDbCircle
 10
311.0949127467
 20
82.74796837
 30
0.0
 40
1.000000000000057
100
AcDbArc
 50
270.0
 51
360.0
  0
LINE
  5
304
330
1F
100
AcDbEntity
  8
0
  6
Continuous
 62
     7
370
    25
100
AcDbLine
 10
299.0949127467
 20
81.74796837
 30
0.0
 11
311.0949127467
 21
81.74796837
 31
0.0
  0
ARC
  5
305
330
1F
100
AcDbEntity
  8
0
  6
Continuous
 62
     7
370
    25
100
AcDbCircle
 10
299.0949127467
 20
82.74796837
 30
0.0
 40
1.000000000000057
100
AcDbArc
 50
180.0
 51
270.0
  0
LINE
  5
306
330
1F
100
AcDbEntity
  8
0
  6
Continuous
 62
     7
370
    25
100
AcDbLine
 10
298.0949127467
 20
82.74796837
 30
0.0
 11
298.0949127467
 21
94.74796837
 31
0.0
  0
ARC
  5
307
330
1F
100
AcDbEntity
  8
0
  6
Continuous
 62
     7
370
    25
100
AcDbCircle
 10
280.0449127467
 20
94.74796837
 30
0.0
 40
1.0
100
AcDbArc
 50
90.0
 51
180.0
  0
LINE
  5
308
330
1F
100
AcDbEntity
  8
0
  6
Continuous
 62
     7
370
    25
100
AcDbLine
 10
280.0449127467
 20
95.74796837
 30
0.0
 11
292.0449127467
 21
95.74796837
 31
0.0
  0
ARC
  5
309
330
1F
100
AcDbEntity
  8
0
  6
Continuous
 62
     7
370
    25
100
AcDbCircle
 10
292.0449127467
 20
94.74796837
 30
0.0
 40
1.000000000000057
100
AcDbArc
 50
0.0
 51
90.0
  0
LINE
  5
30A
330
1F
100
AcDbEntity
  8
0
  6
Continuous
 62
     7
370
    25
100
AcDbLine
 10
293.0449127467
 20
82.74796837
 30
0.0
 11
293.0449127467
 21
94.74796837
 31
0.0
  0
ARC
  5
30B
330
1F
100
AcDbEntity
  8
0
  6
Continuous
 62
     7
370
    25
100
AcDbCircle
 10
292.0449127467
 20
82.74796837
 30
0.0
 40
1.000000000000057
100
AcDbArc
 50
270.0
 51
360.0
  0
LINE
  5
30C
330
1F
100
AcDbEntity
  8
0
  6
Continuous
 62
     7
370
    25
100
AcDbLine
 10
280.0449127467
 20
81.74796837
 30
0.0
 11
292.0449127467
 21
81.74796837
 31
0.0
  0
ARC
  5
30D
330
1F
100
AcDbEntity
  8
0
  6
Continuous
 62
     7
370
    25
100
AcDbCircle
 10
280.0449127467
 20
82.74796837
 30
0.0
 40
0.9999999999999432
100
AcDbArc
 50
180.0
 51
270.0
  0
LINE
  5
30E
330
1F
100
AcDbEntity
  8
0
  6
Continuous
 62
     7
370
    25
100
AcDbLine
 10
279.0449127467
 20
82.74796837
 30
0.0
 11
279.0449127467
 21
94.74796837
 31
0.0
  0
ARC
  5
30F
330
1F
100
AcDbEntity
  8
0
  6
Continuous
 62
     7
370
    25
100
AcDbCircle
 10
246.7074127467
 20
132.84796837
 30
0.0
 40
1.000000000000028
100
AcDbArc
 50
90.0
 51
180.0
  0
LINE
  5
310
330
1F
100
AcDbEntity
  8
0
  6
Continuous
 62
     7
370
    25
100
AcDbLine
 10
246.7074127467
 20
133.84796837
 30
0.0
 11
258.7074127467
 21
133.84796837
 31
0.0
  0
ARC
  5
311
330
1F
100
AcDbEntity
  8
0
  6
Continuous
 62
     7
370
    25
100
AcDbCircle
 10
258.7074127467
 20
132.84796837
 30
0.0
 40
1.000000000000057
100
AcDbArc
 50
0.0
 51
90.0
  0
LINE
  5
312
330
1F
100
AcDbEntity
  8
0
  6
Continuous
 62
     7
370
    25
100
AcDbLine
 10
259.7074127467
 20
120.84796837
 30
0.0
 11
259.7074127467
 21
132.84796837
 31
0.0
  0
ARC
  5
313
330
1F
100
AcDbEntity
  8
0
  6
Continuous
 62
     7
370
    25
100
AcDbCircle
 10
258.7074127467
 20
120.84796837
 30
0.0
 40
1.000000000000057
100
AcDbArc
 50
270.0
 51
0.0
  0
LINE
  5
314
330
1F
100
AcDbEntity
  8
0
  6
Continuous
 62
     7
370
    25
100
AcDbLine
 10
246.7074127467
 20
119.84796837
 30
0.0
 11
258.7074127467
 21
119.84796837
 31
0.0
  0
ARC
  5
315
330
1F
100
AcDbEntity
  8
0
  6
Continuous
 62
     7
370
    25
100
AcDbCircle
 10
246.7074127467
 20
120.84796837
 30
0.0
 40
1.000000000000028
100
AcDbArc
 50
180.0
 51
270.0
  0
LINE
  5
316
330
1F
100
AcDbEntity
  8
0
  6
Continuous
 62
     7
370
    25
100
AcDbLine
 10
245.7074127467
 20
120.84796837
 30
0.0
 11
245.7074127467
 21
132.84796837
 31
0.0
  0
ARC
  5
317
330
1F
100
AcDbEntity
  8
0
  6
Continuous
 62
     7
370
    25
100
AcDbCircle
 10
384.8199127467
 20
156.66046837
 30
0.0
 40
1.000000000000114
100
AcDbArc
 50
90.0
 51
180.0
  0
LINE
  5
318
330
1F
100
AcDbEntity
  8
0
  6
Continuous
 62
     7
370
    25
100
AcDbLine
 10
384.8199127467
 20
157.66046837
 30
0.0
 11
396.8199127467
 21
157.66046837
 31
0.0
  0
ARC
  5
319
330
1F
100
AcDbEntity
  8
0
  6
Continuous
 62
     7
370
    25
100
AcDbCircle
 10
396.8199127467
 20
156.66046837
 30
0.0
 40
1.0
100
AcDbArc
 50
0.0
 51
90.0
  0
LINE
  5
31A
330
1F
100
AcDbEntity
  8
0
  6
Continuous
 62
     7
370
    25
100
AcDbLine
 10
397.8199127467
 20
144.66046837
 30
0.0
 11
397.8199127467
 21
156.66046837
 31
0.0
  0
ARC
  5
31B
330
1F
100
AcDbEntity
  8
0
  6
Continuous
 62
     7
370
    25
100
AcDbCircle
 10
396.8199127467
 20
144.66046837
 30
0.0
 40
1.0
100
AcDbArc
 50
270.0
 51
0.0
  0
LINE
  5
31C
330
1F
100
AcDbEntity
  8
0
  6
Continuous
 62
     7
370
    25
100
AcDbLine
 10
384.8199127467
 20
143.66046837
 30
0.0
 11
396.8199127467
 21
143.66046837
 31
0.0
  0
ARC
  5
31D
330
1F
100
AcDbEntity
  8
0
  6
Continuous
 62
     7
370
    25
100
AcDbCircle
 10
384.8199127467
 20
144.66046837
 30
0.0
 40
1.000000000000114
100
AcDbArc
 50
180.0
 51
270.0
  0
LINE
  5
31E
330
1F
100
AcDbEntity
  8
0
  6
Continuous
 62
     7
370
    25
100
AcDbLine
 10
383.8199127467
 20
144.66046837
 30
0.0
 11
383.8199127467
 21
156.66046837
 31
0.0
  0
ARC
  5
31F
330
1F
100
AcDbEntity
  8
0
  6
Continuous
 62
     7
370
    25
100
AcDbCircle
 10
118.1199127467
 20
75.69796837
 30
0.0
 40
1.000000000000057
100
AcDbArc
 50
90.0
 51
180.0
  0
LINE
  5
320
330
1F
100
AcDbEntity
  8
0
  6
Continuous
 62
     7
370
    25
100
AcDbLine
 10
118.1199127467
 20
76.69796837
 30
0.0
 11
130.1199127467
 21
76.69796837
 31
0.0
  0
ARC
  5
321
330
1F
100
AcDbEntity
  8
0
  6
Continuous
 62
     7
370
    25
100
AcDbCircle
 10
130.1199127467
 20
75.69796837
 30
0.0
 40
1.000000000000085
100
AcDbArc
 50
0.0
 51
90.0
  0
LINE
  5
322
330
1F
100
AcDbEntity
  8
0
  6
Continuous
 62
     7
370
    25
100
AcDbLine
 10
131.1199127467
 20
63.69796837
 30
0.0
 11
131.1199127467
 21
75.69796837
 31
0.0
  0
ARC
  5
323
330
1F
100
AcDbEntity
  8
0
  6
Continuous
 62
     7
370
    25
100
AcDbCircle
 10
130.1199127467
 20
63.69796837
 30
0.0
 40
1.000000000000057
100
AcDbArc
 50
270.0
 51
360.0
  0
LINE
  5
324
330
1F
100
AcDbEntity
  8
0
  6
Continuous
 62
     7
370
    25
100
AcDbLine
 10
118.1199127467
 20
62.69796837
 30
0.0
 11
130.1199127467
 21
62.69796837
 31
0.0
  0
ARC
  5
325
330
1F
100
AcDbEntity
  8
0
  6
Continuous
 62
     7
370
    25
100
AcDbCircle
 10
118.1199127467
 20
63.69796837
 30
0.0
 40
1.000000000000057
100
AcDbArc
 50
180.0
 51
270.0
  0
LINE
  5
326
330
1F
100
AcDbEntity
  8
0
  6
Continuous
 62
     7
370
    25
100
AcDbLine
 10
117.1199127467
 20
63.69796837
 30
0.0
 11
117.1199127467
 21
75.69796837
 31
0.0
  0
ARC
  5
327
330
1F
100
AcDbEntity
  8
0
  6
Continuous
 62
     7
370
    25
100
AcDbCircle
 10
265.7574127467
 20
132.84796837
 30
0.0
 40
1.000000000000057
100
AcDbArc
 50
90.0
 51
180.0
  0
LINE
  5
328
330
1F
100
AcDbEntity
  8
0
  6
Continuous
 62
     7
370
    25
100
AcDbLine
 10
265.7574127467
 20
133.84796837
 30
0.0
 11
277.7574127467
 21
133.84796837
 31
0.0
  0
ARC
  5
329
330
1F
100
AcDbEntity
  8
0
  6
Continuous
 62
     7
370
    25
100
AcDbCircle
 10
277.7574127467
 20
132.84796837
 30
0.0
 40
0.9999999999999432
100
AcDbArc
 50
360.0
 51
90.0
  0
LINE
  5
32A
330
1F
100
AcDbEntity
  8
0
  6
Continuous
 62
     7
370
    25
100
AcDbLine
 10
278.7574127467
 20
120.84796837
 30
0.0
 11
278.7574127467
 21
132.84796837
 31
0.0
  0
ARC
  5
32B
330
1F
100
AcDbEntity
  8
0
  6
Continuous
 62
     7
370
    25
100
AcDbCircle
 10
277.7574127467
 20
120.84796837
 30
0.0
 40
0.9999999999999574
100
AcDbArc
 50
270.0
 51
0.0
  0
LINE
  5
32C
330
1F
100
AcDbEntity
  8
0
  6
Continuous
 62
     7
370
    25
100
AcDbLine
 10
265.7574127467
 20
119.84796837
 30
0.0
 11
277.7574127467
 21
119.84796837
 31
0.0
  0
ARC
  5
32D
330
1F
100
AcDbEntity
  8
0
  6
Continuous
 62
     7
370
    25
100
AcDbCircle
 10
265.7574127467
 20
120.84796837
 30
0.0
 40
1.000000000000057
100
AcDbArc
 50
180.0
 51
270.0
  0
LINE
  5
32E
330
1F
100
AcDbEntity
  8
0
  6
Continuous
 62
     7
370
    25
100
AcDbLine
 10
264.7574127467
 20
120.84796837
 30
0.0
 11
264.7574127467
 21
132.84796837
 31
0.0
  0
ARC
  5
32F
330
1F
100
AcDbEntity
  8
0
  6
Continuous
 62
     7
370
    25
100
AcDbCircle
 10
365.7699127467
 20
132.84796837
 30
0.0
 40
1.000000000000114
100
AcDbArc
 50
90.0
 51
180.0
  0
LINE
  5
330
330
1F
100
AcDbEntity
  8
0
  6
Continuous
 62
     7
370
    25
100
AcDbLine
 10
365.7699127467
 20
133.84796837
 30
0.0
 11
377.7699127467
 21
133.84796837
 31
0.0
  0
ARC
  5
331
330
1F
100
AcDbEntity
  8
0
  6
Continuous
 62
     7
370
    25
100
AcDbCircle
 10
377.7699127467
 20
132.84796837
 30
0.0
 40
1.0
100
AcDbArc
 50
0.0
 51
90.0
  0
LINE
  5
332
330
1F
100
AcDbEntity
  8
0
  6
Continuous
 62
     7
370
    25
100
AcDbLine
 10
378.7699127467
 20
120.84796837
 30
0.0
 11
378.7699127467
 21
132.84796837
 31
0.0
  0
ARC
  5
333
330
1F
100
AcDbEntity
  8
0
  6
Continuous
 62
     7
370
    25
100
AcDbCircle
 10
377.7699127467
 20
120.84796837
 30
0.0
 40
0.9999999999999432
100
AcDbArc
 50
270.0
 51
0.0
  0
LINE
  5
334
330
1F
100
AcDbEntity
  8
0
  6
Continuous
 62
     7
370
    25
100
AcDbLine
 10
365.7699127467
 20
119.84796837
 30
0.0
 11
377.7699127467
 21
119.84796837
 31
0.0
  0
ARC
  5
335
330
1F
100
AcDbEntity
  8
0
  6
Continuous
 62
     7
370
    25
100
AcDbCircle
 10
365.7699127467
 20
120.84796837
 30
0.0
 40
1.000000000000057
100
AcDbArc
 50
180.0
 51
270.0
  0
LINE
  5
336
330
1F
100
AcDbEntity
  8
0
  6
Continuous
 62
     7
370
    25
100
AcDbLine
 10
364.7699127467
 20
120.84796837
 30
0.0
 11
364.7699127467
 21
132.84796837
 31
0.0
  0
ARC
  5
337
330
1F
100
AcDbEntity
  8
0
  6
Continuous
 62
     7
370
    25
100
AcDbCircle
 10
403.8699127467
 20
156.66046837
 30
0.0
 40
1.000000000000114
100
AcDbArc
 50
90.0
 51
180.0
  0
LINE
  5
338
330
1F
100
AcDbEntity
  8
0
  6
Continuous
 62
     7
370
    25
100
AcDbLine
 10
403.8699127467
 20
157.66046837
 30
0.0
 11
415.8699127467
 21
157.66046837
 31
0.0
  0
ARC
  5
339
330
1F
100
AcDbEntity
  8
0
  6
Continuous
 62
     7
370
    25
100
AcDbCircle
 10
415.8699127467
 20
156.66046837
 30
0.0
 40
1.0
100
AcDbArc
 50
0.0
 51
90.0
  0
LINE
  5
33A
330
1F
100
AcDbEntity
  8
0
  6
Continuous
 62
     7
370
    25
100
AcDbLine
 10
416.8699127467
 20
144.66046837
 30
0.0
 11
416.8699127467
 21
156.66046837
 31
0.0
  0
ARC
  5
33B
330
1F
100
AcDbEntity
  8
0
  6
Continuous
 62
     7
370
    25
100
AcDbCircle
 10
415.8699127467
 20
144.66046837
 30
0.0
 40
1.0
100
AcDbArc
 50
270.0
 51
0.0
  0
LINE
  5
33C
330
1F
100
AcDbEntity
  8
0
  6
Continuous
 62
     7
370
    25
100
AcDbLine
 10
403.8699127467
 20
143.66046837
 30
0.0
 11
415.8699127467
 21
143.66046837
 31
0.0
  0
ARC
  5
33D
330
1F
100
AcDbEntity
  8
0
  6
Continuous
 62
     7
370
    25
100
AcDbCircle
 10
403.8699127467
 20
144.66046837
 30
0.0
 40
1.000000000000114
100
AcDbArc
 50
180.0
 51
270.0
  0
LINE
  5
33E
330
1F
100
AcDbEntity
  8
0
  6
Continuous
 62
     7
370
    25
100
AcDbLine
 10
402.8699127467
 20
144.66046837
 30
0.0
 11
402.8699127467
 21
156.66046837
 31
0.0
  0
ARC
  5
33F
330
1F
100
AcDbEntity
  8
0
  6
Continuous
 62
     7
370
    25
100
AcDbCircle
 10
137.1699127467
 20
75.69796837
 30
0.0
 40
1.000000000000085
100
AcDbArc
 50
90.0
 51
180.0
  0
LINE
  5
340
330
1F
100
AcDbEntity
  8
0
  6
Continuous
 62
     7
370
    25
100
AcDbLine
 10
137.1699127467
 20
76.69796837
 30
0.0
 11
149.1699127467
 21
76.69796837
 31
0.0
  0
ARC
  5
341
330
1F
100
AcDbEntity
  8
0
  6
Continuous
 62
     7
370
    25
100
AcDbCircle
 10
149.1699127467
 20
75.69796837
 30
0.0
 40
1.000000000000028
100
AcDbArc
 50
0.0
 51
90.0
  0
LINE
  5
342
330
1F
100
AcDbEntity
  8
0
  6
Continuous
 62
     7
370
    25
100
AcDbLine
 10
150.1699127467
 20
63.69796837
 30
0.0
 11
150.1699127467
 21
75.69796837
 31
0.0
  0
ARC
  5
343
330
1F
100
AcDbEntity
  8
0
  6
Continuous
 62
     7
370
    25
100
AcDbCircle
 10
149.1699127467
 20
63.69796837
 30
0.0
 40
1.000000000000028
100
AcDbArc
 50
270.0
 51
360.0
  0
LINE
  5
344
330
1F
100
AcDbEntity
  8
0
  6
Continuous
 62
     7
370
    25
100
AcDbLine
 10
137.1699127467
 20
62.69796837
 30
0.0
 11
149.1699127467
 21
62.69796837
 31
0.0
  0
ARC
  5
345
330
1F
100
AcDbEntity
  8
0
  6
Continuous
 62
     7
370
    25
100
AcDbCircle
 10
137.1699127467
 20
63.69796837
 30
0.0
 40
1.000000000000028
100
AcDbArc
 50
180.0
 51
270.0
  0
LINE
  5
346
330
1F
100
AcDbEntity
  8
0
  6
Continuous
 62
     7
370
    25
100
AcDbLine
 10
136.1699127467
 20
63.69796837
 30
0.0
 11
136.1699127467
 21
75.69796837
 31
0.0
  0
ARC
  5
347
330
1F
100
AcDbEntity
  8
0
  6
Continuous
 62
     7
370
    25
100
AcDbCircle
 10
103.8324127467
 20
113.79796837
 30
0.0
 40
0.9999999999999858
100
AcDbArc
 50
90.0
 51
180.0
  0
LINE
  5
348
330
1F
100
AcDbEntity
  8
0
  6
Continuous
 62
     7
370
    25
100
AcDbLine
 10
103.8324127467
 20
114.79796837
 30
0.0
 11
115.8324127467
 21
114.79796837
 31
0.0
  0
ARC
  5
349
330
1F
100
AcDbEntity
  8
0
  6
Continuous
 62
     7
370
    25
100
AcDbCircle
 10
115.8324127467
 20
113.79796837
 30
0.0
 40
1.000000000000014
100
AcDbArc
 50
0.0
 51
90.0
  0
LINE
  5
34A
330
1F
100
AcDbEntity
  8
0
  6
Continuous
 62
     7
370
    25
100
AcDbLine
 10
116.8324127467
 20
101.79796837
 30
0.0
 11
116.8324127467
 21
113.79796837
 31
0.0
  0
ARC
  5
34B
330
1F
100
AcDbEntity
  8
0
  6
Continuous
 62
     7
370
    25
100
AcDbCircle
 10
115.8324127467
 20
101.79796837
 30
0.0
 40
0.9999999999999858
100
AcDbArc
 50
270.0
 51
0.0
  0
LINE
  5
34C
330
1F
100
AcDbEntity
  8
0
  6
Continuous
 62
     7
370
    25
100
AcDbLine
 10
103.8324127467
 20
100.79796837
 30
0.0
 11
115.8324127467
 21
100.79796837
 31
0.0
  0
ARC
  5
34D
330
1F
100
AcDbEntity
  8
0
  6
Continuous
 62
     7
370
    25
100
AcDbCircle
 10
103.8324127467
 20
101.79796837
 30
0.0
 40
0.9999999999999432
100
AcDbArc
 50
180.0
 51
270.0
  0
LINE
  5
34E
330
1F
100
AcDbEntity
  8
0
  6
Continuous
 62
     7
370
    25
100
AcDbLine
 10
102.8324127467
 20
101.79796837
 30
0.0
 11
102.8324127467
 21
113.79796837
 31
0.0
  0
ARC
  5
34F
330
1F
100
AcDbEntity
  8
0
  6
Continuous
 62
     7
370
    25
100
AcDbCircle
 10
284.8074127467
 20
132.84796837
 30
0.0
 40
1.000000000000057
100
AcDbArc
 50
90.0
 51
180.0
  0
LINE
  5
350
330
1F
100
AcDbEntity
  8
0
  6
Continuous
 62
     7
370
    25
100
AcDbLine
 10
284.8074127467
 20
133.84796837
 30
0.0
 11
296.8074127467
 21
133.84796837
 31
0.0
  0
ARC
  5
351
330
1F
100
AcDbEntity
  8
0
  6
Continuous
 62
     7
370
    25
100
AcDbCircle
 10
296.8074127467
 20
132.84796837
 30
0.0
 40
0.9999999999999432
100
AcDbArc
 50
360.0
 51
90.0
  0
LINE
  5
352
330
1F
100
AcDbEntity
  8
0
  6
Continuous
 62
     7
370
    25
100
AcDbLine
 10
297.8074127467
 20
120.84796837
 30
0.0
 11
297.8074127467
 21
132.84796837
 31
0.0
  0
ARC
  5
353
330
1F
100
AcDbEntity
  8
0
  6
Continuous
 62
     7
370
    25
100
AcDbCircle
 10
296.8074127467
 20
120.84796837
 30
0.0
 40
0.9999999999999574
100
AcDbArc
 50
270.0
 51
0.0
  0
LINE
  5
354
330
1F
100
AcDbEntity
  8
0
  6
Continuous
 62
     7
370
    25
100
AcDbLine
 10
284.8074127467
 20
119.84796837
 30
0.0
 11
296.8074127467
 21
119.84796837
 31
0.0
  0
ARC
  5
355
330
1F
100
AcDbEntity
  8
0
  6
Continuous
 62
     7
370
    25
100
AcDbCircle
 10
284.8074127467
 20
120.84796837
 30
0.0
 40
1.000000000000057
100
AcDbArc
 50
180.0
 51
270.0
  0
LINE
  5
356
330
1F
100
AcDbEntity
  8
0
  6
Continuous
 62
     7
370
    25
100
AcDbLine
 10
283.8074127467
 20
120.84796837
 30
0.0
 11
283.8074127467
 21
132.84796837
 31
0.0
  0
ARC
  5
357
330
1F
100
AcDbEntity
  8
0
  6
Continuous
 62
     7
370
    25
100
AcDbCircle
 10
384.8199127467
 20
132.84796837
 30
0.0
 40
1.000000000000057
100
AcDbArc
 50
90.0
 51
180.0
  0
LINE
  5
358
330
1F
100
AcDbEntity
  8
0
  6
Continuous
 62
     7
370
    25
100
AcDbLine
 10
384.8199127467
 20
133.84796837
 30
0.0
 11
396.8199127467
 21
133.84796837
 31
0.0
  0
ARC
  5
359
330
1F
100
AcDbEntity
  8
0
  6
Continuous
 62
     7
370
    25
100
AcDbCircle
 10
396.8199127467
 20
132.84796837
 30
0.0
 40
1.000000000000057
100
AcDbArc
 50
0.0
 51
90.0
  0
LINE
  5
35A
330
1F
100
AcDbEntity
  8
0
  6
Continuous
 62
     7
370
    25
100
AcDbLine
 10
397.8199127467
 20
120.84796837
 30
0.0
 11
397.8199127467
 21
132.84796837
 31
0.0
  0
ARC
  5
35B
330
1F
100
AcDbEntity
  8
0
  6
Continuous
 62
     7
370
    25
100
AcDbCircle
 10
396.8199127467
 20
120.84796837
 30
0.0
 40
1.000000000000057
100
AcDbArc
 50
270.0
 51
0.0
  0
LINE
  5
35C
330
1F
100
AcDbEntity
  8
0
  6
Continuous
 62
     7
370
    25
100
AcDbLine
 10
384.8199127467
 20
119.84796837
 30
0.0
 11
396.8199127467
 21
119.84796837
 31
0.0
  0
ARC
  5
35D
330
1F
100
AcDbEntity
  8
0
  6
Continuous
 62
     7
370
    25
100
AcDbCircle
 10
384.8199127467
 20
120.84796837
 30
0.0
 40
1.000000000000057
100
AcDbArc
 50
180.0
 51
270.0
  0
LINE
  5
35E
330
1F
100
AcDbEntity
  8
0
  6
Continuous
 62
     7
370
    25
100
AcDbLine
 10
383.8199127467
 20
120.84796837
 30
0.0
 11
383.8199127467
 21
132.84796837
 31
0.0
  0
LINE
  5
35F
330
1F
100
AcDbEntity
  8
0
  6
Continuous
 62
     7
370
    25
100
AcDbLine
 10
147.7358503887
 20
40.1229683699
 30
0.0
 11
159.1370446924
 21
40.1229683699
 31
0.0
  0
ARC
  5
360
330
1F
100
AcDbEntity
  8
0
  6
Continuous
 62
     7
370
    25
100
AcDbCircle
 10
159.1370446924
 20
42.1229683699
 30
0.0
 40
1.999999999998319
100
AcDbArc
 50
270.0
 51
301.1739381994
  0
LINE
  5
361
330
1F
100
AcDbEntity
  8
0
  6
Continuous
 62
     7
370
    25
100
AcDbLine
 10
160.1723204548
 20
40.4117687627
 30
0.0
 11
164.2176084126
 21
43.3591679772
 31
0.0
  0
ARC
  5
362
330
1F
100
AcDbEntity
  8
0
  6
Continuous
 62
     7
370
    25
100
AcDbCircle
 10
165.252884175
 20
41.64796837
 30
0.0
 40
1.999999999998799
100
AcDbArc
 50
90.0
 51
121.1739381994
  0
LINE
  5
363
330
1F
100
AcDbEntity
  8
0
  6
Continuous
 62
     7
370
    25
100
AcDbLine
 10
165.252884175
 20
43.6479683699
 30
0.0
 11
193.7012127467
 21
43.6479683699
 31
0.0
  0
ARC
  5
364
330
1F
100
AcDbEntity
  8
0
  6
Continuous
 62
     7
370
    25
100
AcDbCircle
 10
193.7012127467
 20
45.6479683699
 30
0.0
 40
2.000000000000028
100
AcDbArc
 50
270.0
 51
0.0
  0
LINE
  5
365
330
1F
100
AcDbEntity
  8
0
  6
Continuous
 62
     7
370
    25
100
AcDbLine
 10
195.7012127467
 20
45.6479683699
 30
0.0
 11
195.7012127467
 21
56.6479683699
 31
0.0
  0
ARC
  5
366
330
1F
100
AcDbEntity
  8
0
  6
Continuous
 62
     7
370
    25
100
AcDbCircle
 10
196.7012127467
 20
56.6479683699
 30
0.0
 40
1.000000000000028
100
AcDbArc
 50
90.0
 51
180.0
  0
LINE
  5
367
330
1F
100
AcDbEntity
  8
0
  6
Continuous
 62
     7
370
    25
100
AcDbLine
 10
196.7012127467
 20
57.6479683699
 30
0.0
 11
220.6074644337
 21
57.6479683699
 31
0.0
  0
ARC
  5
368
330
1F
100
AcDbEntity
  8
0
  6
Continuous
 62
     7
370
    25
100
AcDbCircle
 10
220.6074644337
 20
56.6479683699
 30
0.0
 40
1.0
100
AcDbArc
 50
360.0
 51
90.0
  0
LINE
  5
369
330
1F
100
AcDbEntity
  8
0
  6
Continuous
 62
     7
370
    25
100
AcDbLine
 10
221.6074644337
 20
56.6479683699
 30
0.0
 11
221.6074644337
 21
45.6479683699
 31
0.0
  0
ARC
  5
36A
330
1F
100
AcDbEntity
  8
0
  6
Continuous
 62
     7
370
    25
100
AcDbCircle
 10
223.6074644337
 20
45.6479683699
 30
0.0
 40
2.0
100
AcDbArc
 50
180.0
 51
270.0
  0
LINE
  5
36B
330
1F
100
AcDbEntity
  8
0
  6
Continuous
 62
     7
370
    25
100
AcDbLine
 10
223.6074644337
 20
43.6479683699
 30
0.0
 11
240.1495446924
 21
43.6479683699
 31
0.0
  0
ARC
  5
36C
330
1F
100
AcDbEntity
  8
0
  6
Continuous
 62
     7
370
    25
100
AcDbCircle
 10
240.1495446924
 20
41.6479683699
 30
0.0
 40
1.999999999999005
100
AcDbArc
 50
58.8260618006
 51
90.0
  0
LINE
  5
36D
330
1F
100
AcDbEntity
  8
0
  6
Continuous
 62
     7
370
    25
100
AcDbLine
 10
241.1848204548
 20
43.3591679772
 30
0.0
 11
245.2301084126
 21
40.4117687627
 31
0.0
  0
ARC
  5
36E
330
1F
100
AcDbEntity
  8
0
  6
Continuous
 62
     7
370
    25
100
AcDbCircle
 10
246.265384175
 20
42.1229683699
 30
0.0
 40
1.99999999999946
100
AcDbArc
 50
238.8260618006
 51
270.0
  0
LINE
  5
36F
330
1F
100
AcDbEntity
  8
0
  6
Continuous
 62
     7
370
    25
100
AcDbLine
 10
246.265384175
 20
40.1229683699
 30
0.0
 11
257.6665784787
 21
40.1229683699
 31
0.0
  0
ARC
  5
370
330
1F
100
AcDbEntity
  8
0
  6
Continuous
 62
     7
370
    25
100
AcDbCircle
 10
257.6665784787
 20
41.1229683699
 30
0.0
 40
1.000000000000188
100
AcDbArc
 50
270.0
 51
318.1896851042
  0
ARC
  5
371
330
1F
100
AcDbEntity
  8
0
  6
Continuous
 62
     7
370
    25
100
AcDbCircle
 10
262.1387144337
 20
37.1229683699
 30
0.0
 40
5.000000000000084
100
AcDbArc
 50
41.8103148958
 51
138.1896851042
  0
ARC
  5
372
330
1F
100
AcDbEntity
  8
0
  6
Continuous
 62
     7
370
    25
100
AcDbCircle
 10
266.6108503887
 20
41.1229683699
 30
0.0
 40
0.9999999999999503
100
AcDbArc
 50
221.8103148958
 51
270.0
  0
LINE
  5
373
330
1F
100
AcDbEntity
  8
0
  6
Continuous
 62
     7
370
    25
100
AcDbLine
 10
266.6108503887
 20
40.1229683699
 30
0.0
 11
277.7236440902
 21
40.1229683699
 31
0.0
  0
ARC
  5
374
330
1F
100
AcDbEntity
  8
0
  6
Continuous
 62
     7
370
    25
100
AcDbCircle
 10
277.7236440902
 20
38.6229683699
 30
0.0
 40
1.500000000000012
100
AcDbArc
 50
45.0
 51
90.0
  0
LINE
  5
375
330
1F
100
AcDbEntity
  8
0
  6
Continuous
 62
     7
370
    25
100
AcDbLine
 10
278.7843042619
 20
39.6836285417
 30
0.0
 11
281.2520712149
 21
37.2158615888
 31
0.0
  0
ARC
  5
376
330
1F
100
AcDbEntity
  8
0
  6
Continuous
 62
     7
370
    25
100
AcDbCircle
 10
281.9591779961
 20
37.9229683699
 30
0.0
 40
0.9999999999998721
100
AcDbArc
 50
225.0
 51
270.0
  0
LINE
  5
377
330
1F
100
AcDbEntity
  8
0
  6
Continuous
 62
     7
370
    25
100
AcDbLine
 10
281.9591779961
 20
36.9229683699
 30
0.0
 11
284.0449644337
 21
36.9229683699
 31
0.0
  0
ARC
  5
378
330
1F
100
AcDbEntity
  8
0
  6
Continuous
 62
     7
370
    25
100
AcDbCircle
 10
284.0449644337
 20
37.4229683699
 30
0.0
 40
0.5000000000000568
100
AcDbArc
 50
270.0
 51
359.9999999999
  0
LINE
  5
379
330
1F
100
AcDbEntity
  8
0
  6
Continuous
 62
     7
370
    25
100
AcDbLine
 10
284.5449644337
 20
37.4229683699
 30
0.0
 11
284.5449644337
 21
40.9479683699
 31
0.0
  0
ARC
  5
37A
330
1F
100
AcDbEntity
  8
0
  6
Continuous
 62
     7
370
    25
100
AcDbCircle
 10
286.0449644337
 20
40.9479683699
 30
0.0
 40
1.500000000000512
100
AcDbArc
 50
0.0
 51
180.0
  0
LINE
  5
37B
330
1F
100
AcDbEntity
  8
0
  6
Continuous
 62
     7
370
    25
100
AcDbLine
 10
287.5449644337
 20
40.9479683699
 30
0.0
 11
287.5449644337
 21
37.4229683699
 31
0.0
  0
ARC
  5
37C
330
1F
100
AcDbEntity
  8
0
  6
Continuous
 62
     7
370
    25
100
AcDbCircle
 10
288.0449644337
 20
37.4229683699
 30
0.0
 40
0.5000000000000568
100
AcDbArc
 50
180.0
 51
270.0000000001
  0
LINE
  5
37D
330
1F
100
AcDbEntity
  8
0
  6
Continuous
 62
     7
370
    25
100
AcDbLine
 10
288.0449644337
 20
36.9229683699
 30
0.0
 11
290.1307508713
 21
36.9229683699
 31
0.0
  0
ARC
  5
37E
330
1F
100
AcDbEntity
  8
0
  6
Continuous
 62
     7
370
    25
100
AcDbCircle
 10
290.1307508713
 20
37.9229683699
 30
0.0
 40
0.9999999999997584
100
AcDbArc
 50
270.0
 51
315.0
  0
LINE
  5
37F
330
1F
100
AcDbEntity
  8
0
  6
Continuous
 62
     7
370
    25
100
AcDbLine
 10
290.8378576525
 20
37.2158615888
 30
0.0
 11
293.3056246055
 21
39.6836285417
 31
0.0
  0
ARC
  5
380
330
1F
100
AcDbEntity
  8
0
  6
Continuous
 62
     7
370
    25
100
AcDbCircle
 10
294.3662847773
 20
38.6229683699
 30
0.0
 40
1.499999999999893
100
AcDbArc
 50
90.0
 51
135.0
  0
LINE
  5
381
330
1F
100
AcDbEntity
  8
0
  6
Continuous
 62
     7
370
    25
100
AcDbLine
 10
294.3662847773
 20
40.1229683699
 30
0.0
 11
355.3915267917
 21
40.1229683699
 31
0.0
  0
ARC
  5
382
330
1F
100
AcDbEntity
  8
0
  6
Continuous
 62
     7
370
    25
100
AcDbCircle
 10
355.3915267917
 20
41.1229683699
 30
0.0
 40
1.000000000000341
100
AcDbArc
 50
270.0
 51
318.1896851043
  0
ARC
  5
383
330
1F
100
AcDbEntity
  8
0
  6
Continuous
 62
     7
370
    25
100
AcDbCircle
 10
359.8636627467
 20
37.1229683699
 30
0.0
 40
5.000000000000241
100
AcDbArc
 50
41.8103148958
 51
138.1896851042
  0
ARC
  5
384
330
1F
100
AcDbEntity
  8
0
  6
Continuous
 62
     7
370
    25
100
AcDbCircle
 10
364.3357987017
 20
41.1229683699
 30
0.0
 40
1.000000000000203
100
AcDbArc
 50
221.8103148958
 51
270.0
  0
LINE
  5
385
330
1F
100
AcDbEntity
  8
0
  6
Continuous
 62
     7
370
    25
100
AcDbLine
 10
364.3357987017
 20
40.1229683699
 30
0.0
 11
372.9735924031
 21
40.1229683699
 31
0.0
  0
ARC
  5
386
330
1F
100
AcDbEntity
  8
0
  6
Continuous
 62
     7
370
    25
100
AcDbCircle
 10
372.9735924032
 20
38.6229683699
 30
0.0
 40
1.500000000000143
100
AcDbArc
 50
45.0
 51
90.0
  0
LINE
  5
387
330
1F
100
AcDbEntity
  8
0
  6
Continuous
 62
     7
370
    25
100
AcDbLine
 10
374.0342525749
 20
39.6836285417
 30
0.0
 11
376.5020195279
 21
37.2158615888
 31
0.0
  0
ARC
  5
388
330
1F
100
AcDbEntity
  8
0
  6
Continuous
 62
     7
370
    25
100
AcDbCircle
 10
377.2091263091
 20
37.9229683699
 30
0.0
 40
1.000000000000384
100
AcDbArc
 50
225.0
 51
270.0
  0
LINE
  5
389
330
1F
100
AcDbEntity
  8
0
  6
Continuous
 62
     7
370
    25
100
AcDbLine
 10
377.2091263091
 20
36.9229683699
 30
0.0
 11
379.2949127467
 21
36.9229683699
 31
0.0
  0
ARC
  5
38A
330
1F
100
AcDbEntity
  8
0
  6
Continuous
 62
     7
370
    25
100
AcDbCircle
 10
379.2949127467
 20
37.4229683699
 30
0.0
 40
0.4999999999998295
100
AcDbArc
 50
270.0
 51
359.9999999999
  0
LINE
  5
38B
330
1F
100
AcDbEntity
  8
0
  6
Continuous
 62
     7
370
    25
100
AcDbLine
 10
379.7949127467
 20
37.4229683699
 30
0.0
 11
379.7949127467
 21
40.9479683699
 31
0.0
  0
ARC
  5
38C
330
1F
100
AcDbEntity
  8
0
  6
Continuous
 62
     7
370
    25
100
AcDbCircle
 10
381.2949127467
 20
40.9479683699
 30
0.0
 40
1.500000000000455
100
AcDbArc
 50
0.0
 51
180.0
  0
LINE
  5
38D
330
1F
100
AcDbEntity
  8
0
  6
Continuous
 62
     7
370
    25
100
AcDbLine
 10
382.7949127467
 20
40.9479683699
 30
0.0
 11
382.7949127467
 21
37.4229683699
 31
0.0
  0
ARC
  5
38E
330
1F
100
AcDbEntity
  8
0
  6
Continuous
 62
     7
370
    25
100
AcDbCircle
 10
383.2949127467
 20
37.4229683699
 30
0.0
 40
0.5
100
AcDbArc
 50
180.0
 51
270.0000000001
  0
LINE
  5
38F
330
1F
100
AcDbEntity
  8
0
  6
Continuous
 62
     7
370
    25
100
AcDbLine
 10
383.2949127467
 20
36.9229683699
 30
0.0
 11
385.3806991843
 21
36.9229683699
 31
0.0
  0
ARC
  5
390
330
1F
100
AcDbEntity
  8
0
  6
Continuous
 62
     7
370
    25
100
AcDbCircle
 10
385.3806991843
 20
37.9229683699
 30
0.0
 40
1.00000000000039
100
AcDbArc
 50
270.0
 51
315.0
  0
LINE
  5
391
330
1F
100
AcDbEntity
  8
0
  6
Continuous
 62
     7
370
    25
100
AcDbLine
 10
386.0878059655
 20
37.2158615888
 30
0.0
 11
388.5555729185
 21
39.6836285417
 31
0.0
  0
ARC
  5
392
330
1F
100
AcDbEntity
  8
0
  6
Continuous
 62
     7
370
    25
100
AcDbCircle
 10
389.6162330903
 20
38.6229683699
 30
0.0
 40
1.499999999999638
100
AcDbArc
 50
90.0
 51
135.0
  0
LINE
  5
393
330
1F
100
AcDbEntity
  8
0
  6
Continuous
 62
     7
370
    25
100
AcDbLine
 10
389.6162330903
 20
40.1229683699
 30
0.0
 11
416.8949127467
 21
40.1229683699
 31
0.0
  0
LINE
  5
394
330
1F
100
AcDbEntity
  8
0
  6
Continuous
 62
     7
370
    25
100
AcDbLine
 10
416.8949127467
 20
40.1229683699
 30
0.0
 11
419.8949127467
 21
43.1229683699
 31
0.0
  0
LINE
  5
395
330
1F
100
AcDbEntity
  8
0
  6
Continuous
 62
     7
370
    25
100
AcDbLine
 10
419.8949127467
 20
43.1229683699
 30
0.0
 11
419.8949127467
 21
156.6854683699
 31
0.0
  0
LINE
  5
396
330
1F
100
AcDbEntity
  8
0
  6
Continuous
 62
     7
370
    25
100
AcDbLine
 10
419.8949127467
 20
156.6854683699
 30
0.0
 11
416.8949127467
 21
159.6854683699
 31
0.0
  0
LINE
  5
397
330
1F
100
AcDbEntity
  8
0
  6
Continuous
 62
     7
370
    25
100
AcDbLine
 10
416.8949127467
 20
159.6854683699
 30
0.0
 11
410.6662330903
 21
159.6854683699
 31
0.0
  0
ARC
  5
398
330
1F
100
AcDbEntity
  8
0
  6
Continuous
 62
     7
370
    25
100
AcDbCircle
 10
410.6662330903
 20
161.1854683699
 30
0.0
 40
1.500000000001251
100
AcDbArc
 50
224.9999999971
 51
269.9999999994
  0
LINE
  5
399
330
1F
100
AcDbEntity
  8
0
  6
Continuous
 62
     7
370
    25
100
AcDbLine
 10
409.6055729184
 20
160.1248081982
 30
0.0
 11
405.1378059655
 21
164.5925751512
 31
0.0
  0
ARC
  5
39A
330
1F
100
AcDbEntity
  8
0
  6
Continuous
 62
     7
370
    25
100
AcDbCircle
 10
404.4306991843
 20
163.88546837
 30
0.0
 40
0.9999999999998579
100
AcDbArc
 50
44.9999999999
 51
90.0
  0
LINE
  5
39B
330
1F
100
AcDbEntity
  8
0
  6
Continuous
 62
     7
370
    25
100
AcDbLine
 10
404.4306991843
 20
164.88546837
 30
0.0
 11
402.3449127467
 21
164.88546837
 31
0.0
  0
ARC
  5
39C
330
1F
100
AcDbEntity
  8
0
  6
Continuous
 62
     7
370
    25
100
AcDbCircle
 10
402.3449127467
 20
164.38546837
 30
0.0
 40
0.5000000000000284
100
AcDbArc
 50
89.9999999995
 51
180.0
  0
LINE
  5
39D
330
1F
100
AcDbEntity
  8
0
  6
Continuous
 62
     7
370
    25
100
AcDbLine
 10
401.8449127467
 20
164.38546837
 30
0.0
 11
401.8449127467
 21
158.86046837
 31
0.0
  0
ARC
  5
39E
330
1F
100
AcDbEntity
  8
0
  6
Continuous
 62
     7
370
    25
100
AcDbCircle
 10
400.3449127467
 20
158.86046837
 30
0.0
 40
1.500000000000625
100
AcDbArc
 50
180.0
 51
0.0
  0
LINE
  5
39F
330
1F
100
AcDbEntity
  8
0
  6
Continuous
 62
     7
370
    25
100
AcDbLine
 10
398.8449127467
 20
158.86046837
 30
0.0
 11
398.8449127467
 21
164.38546837
 31
0.0
  0
ARC
  5
3A0
330
1F
100
AcDbEntity
  8
0
  6
Continuous
 62
     7
370
    25
100
AcDbCircle
 10
398.3449127467
 20
164.38546837
 30
0.0
 40
0.5000000000001705
100
AcDbArc
 50
0.0000000002
 51
90.0
  0
LINE
  5
3A1
330
1F
100
AcDbEntity
  8
0
  6
Continuous
 62
     7
370
    25
100
AcDbLine
 10
398.3449127467
 20
164.88546837
 30
0.0
 11
396.259126309
 21
164.88546837
 31
0.0
  0
ARC
  5
3A2
330
1F
100
AcDbEntity
  8
0
  6
Continuous
 62
     7
370
    25
100
AcDbCircle
 10
396.259126309
 20
163.88546837
 30
0.0
 40
1.000000000000199
100
AcDbArc
 50
90.0000000001
 51
135.0
  0
LINE
  5
3A3
330
1F
100
AcDbEntity
  8
0
  6
Continuous
 62
     7
370
    25
100
AcDbLine
 10
395.5520195279
 20
164.5925751512
 30
0.0
 11
391.0842525749
 21
160.1248081982
 31
0.0
  0
ARC
  5
3A4
330
1F
100
AcDbEntity
  8
0
  6
Continuous
 62
     7
370
    25
100
AcDbCircle
 10
390.0235924031
 20
161.18546837
 30
0.0
 40
1.499999999999731
100
AcDbArc
 50
270.0
 51
315.0
  0
LINE
  5
3A5
330
1F
100
AcDbEntity
  8
0
  6
Continuous
 62
     7
370
    25
100
AcDbLine
 10
390.0235924031
 20
159.68546837
 30
0.0
 11
365.4346309926
 21
159.68546837
 31
0.0
  0
ARC
  5
3A6
330
1F
100
AcDbEntity
  8
0
  6
Continuous
 62
     7
370
    25
100
AcDbCircle
 10
365.4346309926
 20
158.68546837
 30
0.0
 40
1.0
100
AcDbArc
 50
90.0
 51
170.2121809433
  0
ARC
  5
3A7
330
1F
100
AcDbEntity
  8
0
  6
Continuous
 62
     7
370
    25
100
AcDbCircle
 10
362.9710208368
 20
159.11046837
 30
0.0
 40
1.499999999999912
100
AcDbArc
 50
270.0
 51
350.2121809433
  0
LINE
  5
3A8
330
1F
100
AcDbEntity
  8
0
  6
Continuous
 62
     7
370
    25
100
AcDbLine
 10
362.9710208368
 20
157.61046837
 30
0.0
 11
356.7563046565
 21
157.61046837
 31
0.0
  0
ARC
  5
3A9
330
1F
100
AcDbEntity
  8
0
  6
Continuous
 62
     7
370
    25
100
AcDbCircle
 10
356.7563046565
 20
159.11046837
 30
0.0
 40
1.499999999999978
100
AcDbArc
 50
189.7878190567
 51
270.0
  0
ARC
  5
3AA
330
1F
100
AcDbEntity
  8
0
  6
Continuous
 62
     7
370
    25
100
AcDbCircle
 10
354.2926945007
 20
158.68546837
 30
0.0
 40
0.999999999999862
100
AcDbArc
 50
9.7878190565
 51
90.0
  0
LINE
  5
3AB
330
1F
100
AcDbEntity
  8
0
  6
Continuous
 62
     7
370
    25
100
AcDbLine
 10
354.2926945007
 20
159.68546837
 30
0.0
 11
286.8412330902
 21
159.68546837
 31
0.0
  0
ARC
  5
3AC
330
1F
100
AcDbEntity
  8
0
  6
Continuous
 62
     7
370
    25
100
AcDbCircle
 10
286.8412330902
 20
161.18546837
 30
0.0
 40
1.500000000000256
100
AcDbArc
 50
225.0
 51
269.9999999999
  0
LINE
  5
3AD
330
1F
100
AcDbEntity
  8
0
  6
Continuous
 62
     7
370
    25
100
AcDbLine
 10
285.7805729184
 20
160.1248081982
 30
0.0
 11
281.3128059655
 21
164.5925751512
 31
0.0
  0
ARC
  5
3AE
330
1F
100
AcDbEntity
  8
0
  6
Continuous
 62
     7
370
    25
100
AcDbCircle
 10
280.6056991843
 20
163.88546837
 30
0.0
 40
1.000000000000169
100
AcDbArc
 50
44.9999999999
 51
90.0
  0
LINE
  5
3AF
330
1F
100
AcDbEntity
  8
0
  6
Continuous
 62
     7
370
    25
100
AcDbLine
 10
280.6056991843
 20
164.88546837
 30
0.0
 11
278.5199127467
 21
164.88546837
 31
0.0
  0
ARC
  5
3B0
330
1F
100
AcDbEntity
  8
0
  6
Continuous
 62
     7
370
    25
100
AcDbCircle
 10
278.5199127467
 20
164.38546837
 30
0.0
 40
0.5
100
AcDbArc
 50
89.9999999995
 51
180.0
  0
LINE
  5
3B1
330
1F
100
AcDbEntity
  8
0
  6
Continuous
 62
     7
370
    25
100
AcDbLine
 10
278.0199127467
 20
164.38546837
 30
0.0
 11
278.0199127467
 21
158.86046837
 31
0.0
  0
ARC
  5
3B2
330
1F
100
AcDbEntity
  8
0
  6
Continuous
 62
     7
370
    25
100
AcDbCircle
 10
276.5199127467
 20
158.86046837
 30
0.0
 40
1.500000000000739
100
AcDbArc
 50
180.0
 51
0.0
  0
LINE
  5
3B3
330
1F
100
AcDbEntity
  8
0
  6
Continuous
 62
     7
370
    25
100
AcDbLine
 10
275.0199127467
 20
158.86046837
 30
0.0
 11
275.0199127467
 21
164.38546837
 31
0.0
  0
ARC
  5
3B4
330
1F
100
AcDbEntity
  8
0
  6
Continuous
 62
     7
370
    25
100
AcDbCircle
 10
274.5199127467
 20
164.38546837
 30
0.0
 40
0.5000000000000568
100
AcDbArc
 50
0.0000000001
 51
90.0
  0
LINE
  5
3B5
330
1F
100
AcDbEntity
  8
0
  6
Continuous
 62
     7
370
    25
100
AcDbLine
 10
274.5199127467
 20
164.88546837
 30
0.0
 11
272.434126309
 21
164.88546837
 31
0.0
  0
ARC
  5
3B6
330
1F
100
AcDbEntity
  8
0
  6
Continuous
 62
     7
370
    25
100
AcDbCircle
 10
272.434126309
 20
163.88546837
 30
0.0
 40
1.000000000000085
100
AcDbArc
 50
90.0
 51
135.0
  0
LINE
  5
3B7
330
1F
100
AcDbEntity
  8
0
  6
Continuous
 62
     7
370
    25
100
AcDbLine
 10
271.7270195278
 20
164.5925751512
 30
0.0
 11
267.2592525749
 21
160.1248081982
 31
0.0
  0
ARC
  5
3B8
330
1F
100
AcDbEntity
  8
0
  6
Continuous
 62
     7
370
    25
100
AcDbCircle
 10
266.1985924031
 20
161.18546837
 30
0.0
 40
1.500000000000227
100
AcDbArc
 50
270.0
 51
314.9999999999
  0
LINE
  5
3B9
330
1F
100
AcDbEntity
  8
0
  6
Continuous
 62
     7
370
    25
100
AcDbLine
 10
266.1985924031
 20
159.68546837
 30
0.0
 11
201.1162330902
 21
159.68546837
 31
0.0
  0
ARC
  5
3BA
330
1F
100
AcDbEntity
  8
0
  6
Continuous
 62
     7
370
    25
100
AcDbCircle
 10
201.1162330902
 20
161.18546837
 30
0.0
 40
1.500000000000374
100
AcDbArc
 50
225.0
 51
269.9999999999
  0
LINE
  5
3BB
330
1F
100
AcDbEntity
  8
0
  6
Continuous
 62
     7
370
    25
100
AcDbLine
 10
200.0555729184
 20
160.1248081982
 30
0.0
 11
195.5878059655
 21
164.5925751512
 31
0.0
  0
ARC
  5
3BC
330
1F
100
AcDbEntity
  8
0
  6
Continuous
 62
     7
370
    25
100
AcDbCircle
 10
194.8806991843
 20
163.88546837
 30
0.0
 40
1.000000000000028
100
AcDbArc
 50
44.9999999999
 51
90.0
  0
LINE
  5
3BD
330
1F
100
AcDbEntity
  8
0
  6
Continuous
 62
     7
370
    25
100
AcDbLine
 10
194.8806991843
 20
164.88546837
 30
0.0
 11
192.7949127467
 21
164.88546837
 31
0.0
  0
ARC
  5
3BE
330
1F
100
AcDbEntity
  8
0
  6
Continuous
 62
     7
370
    25
100
AcDbCircle
 10
192.7949127467
 20
164.38546837
 30
0.0
 40
0.4999999999998295
100
AcDbArc
 50
89.9999999998
 51
180.0
  0
LINE
  5
3BF
330
1F
100
AcDbEntity
  8
0
  6
Continuous
 62
     7
370
    25
100
AcDbLine
 10
192.2949127467
 20
164.38546837
 30
0.0
 11
192.2949127467
 21
158.86046837
 31
0.0
  0
ARC
  5
3C0
330
1F
100
AcDbEntity
  8
0
  6
Continuous
 62
     7
370
    25
100
AcDbCircle
 10
190.7949127467
 20
158.86046837
 30
0.0
 40
1.50000000000054
100
AcDbArc
 50
180.0
 51
0.0
  0
LINE
  5
3C1
330
1F
100
AcDbEntity
  8
0
  6
Continuous
 62
     7
370
    25
100
AcDbLine
 10
189.2949127467
 20
158.86046837
 30
0.0
 11
189.2949127467
 21
164.38546837
 31
0.0
  0
ARC
  5
3C2
330
1F
100
AcDbEntity
  8
0
  6
Continuous
 62
     7
370
    25
100
AcDbCircle
 10
188.7949127467
 20
164.38546837
 30
0.0
 40
0.4999999999999432
100
AcDbArc
 50
359.9999999993
 51
90.0
  0
LINE
  5
3C3
330
1F
100
AcDbEntity
  8
0
  6
Continuous
 62
     7
370
    25
100
AcDbLine
 10
188.7949127467
 20
164.88546837
 30
0.0
 11
186.709126309
 21
164.88546837
 31
0.0
  0
ARC
  5
3C4
330
1F
100
AcDbEntity
  8
0
  6
Continuous
 62
     7
370
    25
100
AcDbCircle
 10
186.709126309
 20
163.88546837
 30
0.0
 40
1.000000000000008
100
AcDbArc
 50
89.9999999998
 51
135.0
  0
LINE
  5
3C5
330
1F
100
AcDbEntity
  8
0
  6
Continuous
 62
     7
370
    25
100
AcDbLine
 10
186.0020195278
 20
164.5925751512
 30
0.0
 11
181.5342525749
 21
160.1248081982
 31
0.0
  0
ARC
  5
3C6
330
1F
100
AcDbEntity
  8
0
  6
Continuous
 62
     7
370
    25
100
AcDbCircle
 10
180.4735924031
 20
161.18546837
 30
0.0
 40
1.499999999998323
100
AcDbArc
 50
270.0
 51
314.9999999994
  0
LINE
  5
3C7
330
1F
100
AcDbEntity
  8
0
  6
Continuous
 62
     7
370
    25
100
AcDbLine
 10
180.4735924031
 20
159.68546837
 30
0.0
 11
115.3912330902
 21
159.68546837
 31
0.0
  0
ARC
  5
3C8
330
1F
100
AcDbEntity
  8
0
  6
Continuous
 62
     7
370
    25
100
AcDbCircle
 10
115.3912330902
 20
161.18546837
 30
0.0
 40
1.499999999999992
100
AcDbArc
 50
225.0
 51
270.0000000001
  0
LINE
  5
3C9
330
1F
100
AcDbEntity
  8
0
  6
Continuous
 62
     7
370
    25
100
AcDbLine
 10
114.3305729184
 20
160.1248081982
 30
0.0
 11
109.8628059655
 21
164.5925751512
 31
0.0
  0
ARC
  5
3CA
330
1F
100
AcDbEntity
  8
0
  6
Continuous
 62
     7
370
    25
100
AcDbCircle
 10
109.1556991843
 20
163.88546837
 30
0.0
 40
1.000000000001279
100
AcDbArc
 50
45.0000000004
 51
90.0
  0
LINE
  5
3CB
330
1F
100
AcDbEntity
  8
0
  6
Continuous
 62
     7
370
    25
100
AcDbLine
 10
109.1556991843
 20
164.88546837
 30
0.0
 11
107.0699127467
 21
164.88546837
 31
0.0
  0
ARC
  5
3CC
330
1F
100
AcDbEntity
  8
0
  6
Continuous
 62
     7
370
    25
100
AcDbCircle
 10
107.0699127467
 20
164.38546837
 30
0.0
 40
0.5
100
AcDbArc
 50
90.0000000005
 51
180.0
  0
LINE
  5
3CD
330
1F
100
AcDbEntity
  8
0
  6
Continuous
 62
     7
370
    25
100
AcDbLine
 10
106.5699127467
 20
164.38546837
 30
0.0
 11
106.5699127467
 21
158.86046837
 31
0.0
  0
ARC
  5
3CE
330
1F
100
AcDbEntity
  8
0
  6
Continuous
 62
     7
370
    25
100
AcDbCircle
 10
105.0699127467
 20
158.86046837
 30
0.0
 40
1.500000000000639
100
AcDbArc
 50
180.0
 51
0.0
  0
LINE
  5
3CF
330
1F
100
AcDbEntity
  8
0
  6
Continuous
 62
     7
370
    25
100
AcDbLine
 10
103.5699127467
 20
158.86046837
 30
0.0
 11
103.5699127467
 21
164.38546837
 31
0.0
  0
ARC
  5
3D0
330
1F
100
AcDbEntity
  8
0
  6
Continuous
 62
     7
370
    25
100
AcDbCircle
 10
103.0699127467
 20
164.38546837
 30
0.0
 40
0.5000000000011084
100
AcDbArc
 50
0.0000000041
 51
90.0
  0
LINE
  5
3D1
330
1F
100
AcDbEntity
  8
0
  6
Continuous
 62
     7
370
    25
100
AcDbLine
 10
103.0699127467
 20
164.88546837
 30
0.0
 11
100.984126309
 21
164.88546837
 31
0.0
  0
ARC
  5
3D2
330
1F
100
AcDbEntity
  8
0
  6
Continuous
 62
     7
370
    25
100
AcDbCircle
 10
100.9841263091
 20
163.88546837
 30
0.0
 40
1.00000000000108
100
AcDbArc
 50
90.0000000003
 51
135.0
  0
LINE
  5
3D3
330
1F
100
AcDbEntity
  8
0
  6
Continuous
 62
     7
370
    25
100
AcDbLine
 10
100.2770195279
 20
164.5925751512
 30
0.0
 11
95.8092525749
 21
160.1248081982
 31
0.0
  0
ARC
  5
3D4
330
1F
100
AcDbEntity
  8
0
  6
Continuous
 62
     7
370
    25
100
AcDbCircle
 10
94.7485924031
 20
161.18546837
 30
0.0
 40
1.499999999998408
100
AcDbArc
 50
270.0
 51
315.0000000003
  0
LINE
  5
3D5
330
1F
100
AcDbEntity
  8
0
  6
Continuous
 62
     7
370
    25
100
AcDbLine
 10
94.7485924031
 20
159.68546837
 30
0.0
 11
74.2324127467
 21
159.68546837
 31
0.0
  0
LINE
  5
3D6
330
1F
100
AcDbEntity
  8
0
  6
Continuous
 62
     7
370
    25
100
AcDbLine
 10
74.2324127467
 20
159.68546837
 30
0.0
 11
71.2324127467
 21
156.68546837
 31
0.0
  0
LINE
  5
3D7
330
1F
100
AcDbEntity
  8
0
  6
Continuous
 62
     7
370
    25
100
AcDbLine
 10
71.2324127467
 20
156.68546837
 30
0.0
 11
71.2324127467
 21
43.12296837
 31
0.0
  0
LINE
  5
3D8
330
1F
100
AcDbEntity
  8
0
  6
Continuous
 62
     7
370
    25
100
AcDbLine
 10
71.2324127467
 20
43.12296837
 30
0.0
 11
74.2324127467
 21
40.12296837
 31
0.0
  0
LINE
  5
3D9
330
1F
100
AcDbEntity
  8
0
  6
Continuous
 62
     7
370
    25
100
AcDbLine
 10
74.2324127467
 20
40.12296837
 30
0.0
 11
111.0361440902
 21
40.12296837
 31
0.0
  0
ARC
  5
3DA
330
1F
100
AcDbEntity
  8
0
  6
Continuous
 62
     7
370
    25
100
AcDbCircle
 10
111.0361440902
 20
38.62296837
 30
0.0
 40
1.500000000000142
100
AcDbArc
 50
45.0
 51
90.0
  0
LINE
  5
3DB
330
1F
100
AcDbEntity
  8
0
  6
Continuous
 62
     7
370
    25
100
AcDbLine
 10
112.0968042619
 20
39.6836285418
 30
0.0
 11
114.5645712149
 21
37.2158615888
 31
0.0
  0
ARC
  5
3DC
330
1F
100
AcDbEntity
  8
0
  6
Continuous
 62
     7
370
    25
100
AcDbCircle
 10
115.2716779961
 20
37.92296837
 30
0.0
 40
1.000000000000085
100
AcDbArc
 50
225.0
 51
270.0
  0
LINE
  5
3DD
330
1F
100
AcDbEntity
  8
0
  6
Continuous
 62
     7
370
    25
100
AcDbLine
 10
115.2716779961
 20
36.92296837
 30
0.0
 11
117.3574644337
 21
36.92296837
 31
0.0
  0
ARC
  5
3DE
330
1F
100
AcDbEntity
  8
0
  6
Continuous
 62
     7
370
    25
100
AcDbCircle
 10
117.3574644337
 20
37.42296837
 30
0.0
 40
0.5
100
AcDbArc
 50
270.0
 51
359.9999999962
  0
LINE
  5
3DF
330
1F
100
AcDbEntity
  8
0
  6
Continuous
 62
     7
370
    25
100
AcDbLine
 10
117.8574644337
 20
37.42296837
 30
0.0
 11
117.8574644337
 21
40.9479683699
 31
0.0
  0
ARC
  5
3E0
330
1F
100
AcDbEntity
  8
0
  6
Continuous
 62
     7
370
    25
100
AcDbCircle
 10
119.3574644337
 20
40.9479683699
 30
0.0
 40
1.500000000000455
100
AcDbArc
 50
0.0
 51
180.0
  0
LINE
  5
3E1
330
1F
100
AcDbEntity
  8
0
  6
Continuous
 62
     7
370
    25
100
AcDbLine
 10
120.8574644337
 20
40.9479683699
 30
0.0
 11
120.8574644337
 21
37.42296837
 31
0.0
  0
ARC
  5
3E2
330
1F
100
AcDbEntity
  8
0
  6
Continuous
 62
     7
370
    25
100
AcDbCircle
 10
121.3574644337
 20
37.42296837
 30
0.0
 40
0.5000000000000284
100
AcDbArc
 50
180.0
 51
270.0000000003
  0
LINE
  5
3E3
330
1F
100
AcDbEntity
  8
0
  6
Continuous
 62
     7
370
    25
100
AcDbLine
 10
121.3574644337
 20
36.92296837
 30
0.0
 11
123.4432508713
 21
36.92296837
 31
0.0
  0
ARC
  5
3E4
330
1F
100
AcDbEntity
  8
0
  6
Continuous
 62
     7
370
    25
100
AcDbCircle
 10
123.4432508713
 20
37.92296837
 30
0.0
 40
0.9999999999998082
100
AcDbArc
 50
270.0
 51
315.0
  0
LINE
  5
3E5
330
1F
100
AcDbEntity
  8
0
  6
Continuous
 62
     7
370
    25
100
AcDbLine
 10
124.1503576525
 20
37.2158615888
 30
0.0
 11
126.6181246055
 21
39.6836285417
 31
0.0
  0
ARC
  5
3E6
330
1F
100
AcDbEntity
  8
0
  6
Continuous
 62
     7
370
    25
100
AcDbCircle
 10
127.6787847773
 20
38.62296837
 30
0.0
 40
1.499999999999929
100
AcDbArc
 50
90.0000000001
 51
135.0
  0
LINE
  5
3E7
330
1F
100
AcDbEntity
  8
0
  6
Continuous
 62
     7
370
    25
100
AcDbLine
 10
127.6787847773
 20
40.12296837
 30
0.0
 11
138.7915784787
 21
40.12296837
 31
0.0
  0
ARC
  5
3E8
330
1F
100
AcDbEntity
  8
0
  6
Continuous
 62
     7
370
    25
100
AcDbCircle
 10
138.7915784787
 20
41.12296837
 30
0.0
 40
0.9999999999999076
100
AcDbArc
 50
270.0
 51
318.189685104
  0
ARC
  5
3E9
330
1F
100
AcDbEntity
  8
0
  6
Continuous
 62
     7
370
    25
100
AcDbCircle
 10
143.2637144337
 20
37.1229683699
 30
0.0
 40
5.000000000000358
100
AcDbArc
 50
41.8103148958
 51
138.1896851042
  0
ARC
  5
3EA
330
1F
100
AcDbEntity
  8
0
  6
Continuous
 62
     7
370
    25
100
AcDbCircle
 10
147.7358503887
 20
41.1229683699
 30
0.0
 40
1.000000000000588
100
AcDbArc
 50
221.8103148958
 51
270.0
  0
LINE
  5
3EB
330
1F
100
AcDbEntity
  8
0
  6
Continuous
 62
     7
370
    25
100
AcDbLine
 10
344.4891359679
 20
80.7479668523
 30
0.0
 11
344.4891359679
 21
93.74796837
 31
0.0
  0
ARC
  5
3EC
330
1F
100
AcDbEntity
  8
0
  6
Continuous
 62
     7
370
    25
100
AcDbCircle
 10
345.4891359679
 20
93.74796837
 30
0.0
 40
1.0
100
AcDbArc
 50
90.0
 51
180.0
  0
LINE
  5
3ED
330
1F
100
AcDbEntity
  8
0
  6
Continuous
 62
     7
370
    25
100
AcDbLine
 10
345.4891359679
 20
94.74796837
 30
0.0
 11
350.4891359679
 21
94.74796837
 31
0.0
  0
ARC
  5
3EE
330
1F
100
AcDbEntity
  8
0
  6
Continuous
 62
     7
370
    25
100
AcDbCircle
 10
350.4891359679
 20
93.74796837
 30
0.0
 40
1.0
100
AcDbArc
 50
0.0
 51
90.0
  0
LINE
  5
3EF
330
1F
100
AcDbEntity
  8
0
  6
Continuous
 62
     7
370
    25
100
AcDbLine
 10
351.4891359679
 20
80.7479668523
 30
0.0
 11
351.4891359679
 21
93.74796837
 31
0.0
  0
ARC
  5
3F0
330
1F
100
AcDbEntity
  8
0
  6
Continuous
 62
     7
370
    25
100
AcDbCircle
 10
350.4891359679
 20
80.7479668523
 30
0.0
 40
1.000000000000028
100
AcDbArc
 50
270.0
 51
0.0
  0
LINE
  5
3F1
330
1F
100
AcDbEntity
  8
0
  6
Continuous
 62
     7
370
    25
100
AcDbLine
 10
345.4891359679
 20
79.7479668523
 30
0.0
 11
350.4891359679
 21
79.7479668523
 31
0.0
  0
ARC
  5
3F2
330
1F
100
AcDbEntity
  8
0
  6
Continuous
 62
     7
370
    25
100
AcDbCircle
 10
345.4891359679
 20
80.7479668523
 30
0.0
 40
1.000000000000057
100
AcDbArc
 50
180.0
 51
270.0
  0
LINE
  5
3F3
330
1F
100
AcDbEntity
  8
0
  6
Continuous
 62
     7
370
    25
100
AcDbLine
 10
320.6131594055
 20
80.7479668523
 30
0.0
 11
320.6131594055
 21
93.74796837
 31
0.0
  0
ARC
  5
3F4
330
1F
100
AcDbEntity
  8
0
  6
Continuous
 62
     7
370
    25
100
AcDbCircle
 10
321.6131594055
 20
93.74796837
 30
0.0
 40
1.0
100
AcDbArc
 50
90.0
 51
180.0
  0
LINE
  5
3F5
330
1F
100
AcDbEntity
  8
0
  6
Continuous
 62
     7
370
    25
100
AcDbLine
 10
321.6131594055
 20
94.74796837
 30
0.0
 11
326.6131594055
 21
94.74796837
 31
0.0
  0
ARC
  5
3F6
330
1F
100
AcDbEntity
  8
0
  6
Continuous
 62
     7
370
    25
100
AcDbCircle
 10
326.6131594055
 20
93.74796837
 30
0.0
 40
1.0
100
AcDbArc
 50
0.0
 51
90.0
  0
LINE
  5
3F7
330
1F
100
AcDbEntity
  8
0
  6
Continuous
 62
     7
370
    25
100
AcDbLine
 10
327.6131594055
 20
80.7479668523
 30
0.0
 11
327.6131594055
 21
93.74796837
 31
0.0
  0
ARC
  5
3F8
330
1F
100
AcDbEntity
  8
0
  6
Continuous
 62
     7
370
    25
100
AcDbCircle
 10
326.6131594055
 20
80.7479668523
 30
0.0
 40
1.000000000011823
100
AcDbArc
 50
270.0
 51
0.0
  0
LINE
  5
3F9
330
1F
100
AcDbEntity
  8
0
  6
Continuous
 62
     7
370
    25
100
AcDbLine
 10
321.6131594055
 20
79.7479668523
 30
0.0
 11
326.6131594055
 21
79.7479668523
 31
0.0
  0
ARC
  5
3FA
330
1F
100
AcDbEntity
  8
0
  6
Continuous
 62
     7
370
    25
100
AcDbCircle
 10
321.6131594055
 20
80.7479668523
 30
0.0
 40
1.0
100
AcDbArc
 50
180.0
 51
270.0
  0
ENDSEC
  0
SECTION
  2
OBJECTS
  0
DICTIONARY
  5
C
330
0
100
AcDbDictionary
281
     1
  3
ACAD_GROUP
350
D
  3
ACAD_LAYOUT
350
1A
  3
ACAD_MLINESTYLE
350
17
  3
ACAD_PLOTSETTINGS
350
19
  3
ACAD_PLOTSTYLENAME
350
E
  3
ACAD_SCALELIST
350
47
  0
DICTIONARY
  5
D
102
{ACAD_REACTORS
330
C
102
}
330
C
100
AcDbDictionary
281
     1
  0
DICTIONARY
  5
1A
102
{ACAD_REACTORS
330
C
102
}
330
C
100
AcDbDictionary
281
     1
  3
Layout1
350
1E
  3
Layout2
350
26
  3
Model
350
22
  0
DICTIONARY
  5
17
102
{ACAD_REACTORS
330
C
102
}
330
C
100
AcDbDictionary
281
     1
  3
Standard
350
18
  0
DICTIONARY
  5
19
102
{ACAD_REACTORS
330
C
102
}
330
C
100
AcDbDictionary
281
     1
  0
ACDBDICTIONARYWDFLT
  5
E
102
{ACAD_REACTORS
330
C
102
}
330
C
100
AcDbDictionary
281
     1
  3
Normal
350
F
100
AcDbDictionaryWithDefault
340
F
  0
DICTIONARY
  5
47
102
{ACAD_REACTORS
330
C
102
}
330
C
100
AcDbDictionary
281
     1
  3
A0
350
48
  3
A1
350
49
  3
A2
350
4A
  3
A3
350
4B
  3
A4
350
4C
  3
A5
350
4D
  3
A6
350
4E
  3
A7
350
4F
  3
A8
350
50
  3
A9
350
51
  3
B0
350
52
  3
B1
350
53
  3
B2
350
54
  3
B3
350
55
  3
B4
350
56
  3
B5
350
57
  3
B6
350
58
  3
B7
350
59
  3
B8
350
5A
  3
B9
350
5B
  3
C0
350
5C
  3
C1
350
5D
  3
C2
350
5E
  3
C3
350
5F
  3
C4
350
60
  3
C5
350
61
  3
C6
350
62
  3
C7
350
63
  3
C8
350
64
  3
C9
350
65
  3
D0
350
66
  3
D1
350
67
  3
D2
350
68
  0
LAYOUT
  5
1E
102
{ACAD_REACTORS
330
1A
102
}
330
1A
100
AcDbPlotSettings
  1

  2
none_device
  4

  6

 40
0.0
 41
0.0
 42
0.0
 43
0.0
 44
0.0
 45
0.0
 46
0.0
 47
0.0
 48
0.0
 49
0.0
140
0.0
141
0.0
142
1.0
143
1.0
 70
   688
 72
     1
 73
     0
 74
     5
  7

 75
    16
147
1.0
148
0.0
149
0.0
100
AcDbLayout
  1
Layout1
 70
     1
 71
     1
 10
0.0
 20
0.0
 11
420.0
 21
297.0
 12
0.0
 22
0.0
 32
0.0
 14
1.0000000000E+20
 24
1.0000000000E+20
 34
1.0000000000E+20
 15
-1.0000000000E+20
 25
-1.0000000000E+20
 35
-1.0000000000E+20
146
0.0
 13
0.0
 23
0.0
 33
0.0
 16
1.0
 26
0.0
 36
0.0
 17
0.0
 27
1.0
 37
0.0
 76
     0
330
1B
  0
LAYOUT
  5
26
102
{ACAD_REACTORS
330
1A
102
}
330
1A
100
AcDbPlotSettings
  1

  2
none_device
  4

  6

 40
0.0
 41
0.0
 42
0.0
 43
0.0
 44
0.0
 45
0.0
 46
0.0
 47
0.0
 48
0.0
 49
0.0
140
0.0
141
0.0
142
1.0
143
1.0
 70
   688
 72
     1
 73
     0
 74
     5
  7

 75
    16
147
1.0
148
0.0
149
0.0
100
AcDbLayout
  1
Layout2
 70
     1
 71
     2
 10
0.0
 20
0.0
 11
0.0
 21
0.0
 12
0.0
 22
0.0
 32
0.0
 14
0.0
 24
0.0
 34
0.0
 15
0.0
 25
0.0
 35
0.0
146
0.0
 13
0.0
 23
0.0
 33
0.0
 16
1.0
 26
0.0
 36
0.0
 17
0.0
 27
1.0
 37
0.0
 76
     0
330
23
  0
LAYOUT
  5
22
102
{ACAD_REACTORS
330
1A
102
}
330
1A
100
AcDbPlotSettings
  1

  2
none_device
  4
ANSI_A_(11.00_x_8.50_Inches)
  6

 40
6.35
 41
19.05
 42
6.35000508
 43
19.05000254
 44
279.4
 45
215.9
 46
-61.4641351115
 47
8.8491982383
 48
0.0
 49
0.0
140
0.0
141
0.0
142
0.0312336428
143
1.0
 70
  1696
 72
     0
 73
     0
 74
     0
  7

 75
     0
147
0.0179189148
148
-1300.4909072572
149
0.0
100
AcDbLayout
  1
Model
 70
     1
 71
     0
 10
0.0
 20
0.0
 11
420.0
 21
297.0
 12
0.0
 22
0.0
 32
0.0
 14
71.2324127467
 24
36.9229683699
 34
0.0
 15
419.8949127467
 25
164.88546837
 35
0.0
146
0.0
 13
0.0
 23
0.0
 33
0.0
 16
1.0
 26
0.0
 36
0.0
 17
0.0
 27
1.0
 37
0.0
 76
     0
330
1F
331
29
  0
MLINESTYLE
  5
18
102
{ACAD_REACTORS
330
17
102
}
330
17
100
AcDbMlineStyle
  2
Standard
 70
     0
  3

 62
   256
 51
90.0
 52
90.0
 71
     2
 49
0.5
 62
   256
  6
BYLAYER
 49
-0.5
 62
   256
  6
BYLAYER
  0
ACDBPLACEHOLDER
  5
F
102
{ACAD_REACTORS
330
E
102
}
330
E
  0
SCALE
  5
48
102
{ACAD_REACTORS
330
47
102
}
330
47
100
AcDbScale
 70
     0
300
1:1
140
1.0
141
1.0
290
     1
  0
SCALE
  5
49
102
{ACAD_REACTORS
330
47
102
}
330
47
100
AcDbScale
 70
     0
300
1:2
140
1.0
141
2.0
290
     0
  0
SCALE
  5
4A
102
{ACAD_REACTORS
330
47
102
}
330
47
100
AcDbScale
 70
     0
300
1:4
140
1.0
141
4.0
290
     0
  0
SCALE
  5
4B
102
{ACAD_REACTORS
330
47
102
}
330
47
100
AcDbScale
 70
     0
300
1:5
140
1.0
141
5.0
290
     0
  0
SCALE
  5
4C
102
{ACAD_REACTORS
330
47
102
}
330
47
100
AcDbScale
 70
     0
300
1:8
140
1.0
141
8.0
290
     0
  0
SCALE
  5
4D
102
{ACAD_REACTORS
330
47
102
}
330
47
100
AcDbScale
 70
     0
300
1:10
140
1.0
141
10.0
290
     0
  0
SCALE
  5
4E
102
{ACAD_REACTORS
330
47
102
}
330
47
100
AcDbScale
 70
     0
300
1:16
140
1.0
141
16.0
290
     0
  0
SCALE
  5
4F
102
{ACAD_REACTORS
330
47
102
}
330
47
100
AcDbScale
 70
     0
300
1:20
140
1.0
141
20.0
290
     0
  0
SCALE
  5
50
102
{ACAD_REACTORS
330
47
102
}
330
47
100
AcDbScale
 70
     0
300
1:30
140
1.0
141
30.0
290
     0
  0
SCALE
  5
51
102
{ACAD_REACTORS
330
47
102
}
330
47
100
AcDbScale
 70
     0
300
1:40
140
1.0
141
40.0
290
     0
  0
SCALE
  5
52
102
{ACAD_REACTORS
330
47
102
}
330
47
100
AcDbScale
 70
     0
300
1:50
140
1.0
141
50.0
290
     0
  0
SCALE
  5
53
102
{ACAD_REACTORS
330
47
102
}
330
47
100
AcDbScale
 70
     0
300
1:100
140
1.0
141
100.0
290
     0
  0
SCALE
  5
54
102
{ACAD_REACTORS
330
47
102
}
330
47
100
AcDbScale
 70
     0
300
2:1
140
2.0
141
1.0
290
     0
  0
SCALE
  5
55
102
{ACAD_REACTORS
330
47
102
}
330
47
100
AcDbScale
 70
     0
300
4:1
140
4.0
141
1.0
290
     0
  0
SCALE
  5
56
102
{ACAD_REACTORS
330
47
102
}
330
47
100
AcDbScale
 70
     0
300
8:1
140
8.0
141
1.0
290
     0
  0
SCALE
  5
57
102
{ACAD_REACTORS
330
47
102
}
330
47
100
AcDbScale
 70
     0
300
10:1
140
10.0
141
1.0
290
     0
  0
SCALE
  5
58
102
{ACAD_REACTORS
330
47
102
}
330
47
100
AcDbScale
 70
     0
300
100:1
140
100.0
141
1.0
290
     0
  0
SCALE
  5
59
102
{ACAD_REACTORS
330
47
102
}
330
47
100
AcDbScale
 70
     0
300
1/128" = 1'-0"
140
0.0078125
141
12.0
290
     0
  0
SCALE
  5
5A
102
{ACAD_REACTORS
330
47
102
}
330
47
100
AcDbScale
 70
     0
300
1/64" = 1'-0"
140
0.015625
141
12.0
290
     0
  0
SCALE
  5
5B
102
{ACAD_REACTORS
330
47
102
}
330
47
100
AcDbScale
 70
     0
300
1/32" = 1'-0"
140
0.03125
141
12.0
290
     0
  0
SCALE
  5
5C
102
{ACAD_REACTORS
330
47
102
}
330
47
100
AcDbScale
 70
     0
300
1/16" = 1'-0"
140
0.0625
141
12.0
290
     0
  0
SCALE
  5
5D
102
{ACAD_REACTORS
330
47
102
}
330
47
100
AcDbScale
 70
     0
300
3/32" = 1'-0"
140
0.09375
141
12.0
290
     0
  0
SCALE
  5
5E
102
{ACAD_REACTORS
330
47
102
}
330
47
100
AcDbScale
 70
     0
300
1/8" = 1'-0"
140
0.125
141
12.0
290
     0
  0
SCALE
  5
5F
102
{ACAD_REACTORS
330
47
102
}
330
47
100
AcDbScale
 70
     0
300
3/16" = 1'-0"
140
0.1875
141
12.0
290
     0
  0
SCALE
  5
60
102
{ACAD_REACTORS
330
47
102
}
330
47
100
AcDbScale
 70
     0
300
1/4" = 1'-0"
140
0.25
141
12.0
290
     0
  0
SCALE
  5
61
102
{ACAD_REACTORS
330
47
102
}
330
47
100
AcDbScale
 70
     0
300
3/8" = 1'-0"
140
0.375
141
12.0
290
     0
  0
SCALE
  5
62
102
{ACAD_REACTORS
330
47
102
}
330
47
100
AcDbScale
 70
     0
300
1/2" = 1'-0"
140
0.5
141
12.0
290
     0
  0
SCALE
  5
63
102
{ACAD_REACTORS
330
47
102
}
330
47
100
AcDbScale
 70
     0
300
3/4" = 1'-0"
140
0.75
141
12.0
290
     0
  0
SCALE
  5
64
102
{ACAD_REACTORS
330
47
102
}
330
47
100
AcDbScale
 70
     0
300
1" = 1'-0"
140
1.0
141
12.0
290
     0
  0
SCALE
  5
65
102
{ACAD_REACTORS
330
47
102
}
330
47
100
AcDbScale
 70
     0
300
1-1/2" = 1'-0"
140
1.5
141
12.0
290
     0
  0
SCALE
  5
66
102
{ACAD_REACTORS
330
47
102
}
330
47
100
AcDbScale
 70
     0
300
3" = 1'-0"
140
3.0
141
12.0
290
     0
  0
SCALE
  5
67
102
{ACAD_REACTORS
330
47
102
}
330
47
100
AcDbScale
 70
     0
300
6" = 1'-0"
140
6.0
141
12.0
290
     0
  0
SCALE
  5
68
102
{ACAD_REACTORS
330
47
102
}
330
47
100
AcDbScale
 70
     0
300
1'-0" = 1'-0"
140
12.0
141
12.0
290
     0
  0
ENDSEC
  0
EOF
