  0
SECTION
  2
HEADER
  9
$ACADVER
  1
AC1015
  9
$ACADMAINTVER
 70
     6
  9
$DWGCODEPAGE
  3
ANSI_1252
  9
$INSBASE
 10
0.0
 20
0.0
 30
0.0
  9
$EXTMIN
 10
67.2234425169
 20
52.9362540435
 30
0.0
  9
$EXTMAX
 10
81.0685185633
 20
58.1355638649
 30
0.0
  9
$LIMMIN
 10
0.0
 20
0.0
  9
$LIMMAX
 10
12.0
 20
9.0
  9
$ORTHOMODE
 70
     0
  9
$REGENMODE
 70
     1
  9
$FILLMODE
 70
     1
  9
$QTEXTMODE
 70
     0
  9
$MIRRTEXT
 70
     1
  9
$LTSCALE
 40
1.0
  9
$ATTMODE
 70
     1
  9
$TEXTSIZE
 40
0.1377952756
  9
$TRACEWID
 40
0.05
  9
$TEXTSTYLE
  7
Standard
  9
$CLAYER
  8
0
  9
$CELTYPE
  6
ByLayer
  9
$CECOLOR
 62
   256
  9
$CELTSCALE
 40
1.0
  9
$DISPSILH
 70
     0
  9
$DIMSCALE
 40
1.0
  9
$DIMASZ
 40
0.13
  9
$DIMEXO
 40
0.0393700787
  9
$DIMDLI
 40
0.38
  9
$DIMRND
 40
0.0
  9
$DIMDLE
 40
0.0
  9
$DIMEXE
 40
0.0393700787
  9
$DIMTP
 40
0.0
  9
$DIMTM
 40
0.0
  9
$DIMTXT
 40
0.1377952756
  9
$DIMCEN
 40
0.09
  9
$DIMTSZ
 40
0.0
  9
$DIMTOL
 70
     0
  9
$DIMLIM
 70
     0
  9
$DIMTIH
 70
     1
  9
$DIMTOH
 70
     1
  9
$DIMSE1
 70
     0
  9
$DIMSE2
 70
     0
  9
$DIMTAD
 70
     1
  9
$DIMZIN
 70
     0
  9
$DIMBLK
  1

  9
$DIMASO
 70
     1
  9
$DIMSHO
 70
     1
  9
$DIMPOST
  1

  9
$DIMAPOST
  1

  9
$DIMALT
 70
     0
  9
$DIMALTD
 70
     2
  9
$DIMALTF
 40
25.4
  9
$DIMLFAC
 40
1.0
  9
$DIMTOFL
 70
     0
  9
$DIMTVP
 40
0.0
  9
$DIMTIX
 70
     0
  9
$DIMSOXD
 70
     0
  9
$DIMSAH
 70
     0
  9
$DIMBLK1
  1

  9
$DIMBLK2
  1

  9
$DIMSTYLE
  2
Standard
  9
$DIMCLRD
 70
     0
  9
$DIMCLRE
 70
     0
  9
$DIMCLRT
 70
     0
  9
$DIMTFAC
 40
1.0
  9
$DIMGAP
 40
0.06
  9
$DIMJUST
 70
     0
  9
$DIMSD1
 70
     0
  9
$DIMSD2
 70
     0
  9
$DIMTOLJ
 70
     1
  9
$DIMTZIN
 70
     0
  9
$DIMALTZ
 70
     0
  9
$DIMALTTZ
 70
     0
  9
$DIMUPT
 70
     0
  9
$DIMDEC
 70
     2
  9
$DIMTDEC
 70
     2
  9
$DIMALTU
 70
     2
  9
$DIMALTTD
 70
     2
  9
$DIMTXSTY
  7
Standard
  9
$DIMAUNIT
 70
     0
  9
$DIMADEC
 70
     2
  9
$DIMALTRND
 40
0.0
  9
$DIMAZIN
 70
     0
  9
$DIMDSEP
 70
    46
  9
$DIMATFIT
 70
     3
  9
$DIMFRAC
 70
     0
  9
$DIMLDRBLK
  1

  9
$DIMLUNIT
 70
     2
  9
$DIMLWD
 70
    -2
  9
$DIMLWE
 70
    -2
  9
$DIMTMOVE
 70
     0
  9
$LUNITS
 70
     2
  9
$LUPREC
 70
     2
  9
$SKETCHINC
 40
0.1
  9
$FILLETRAD
 40
0.5
  9
$AUNITS
 70
     0
  9
$AUPREC
 70
     2
  9
$MENU
  1
.
  9
$ELEVATION
 40
0.0
  9
$PELEVATION
 40
0.0
  9
$THICKNESS
 40
0.0
  9
$LIMCHECK
 70
     0
  9
$CHAMFERA
 40
0.0
  9
$CHAMFERB
 40
0.0
  9
$CHAMFERC
 40
0.0
  9
$CHAMFERD
 40
0.0
  9
$SKPOLY
 70
     0
  9
$TDCREATE
 40
2457702.718875382
  9
$TDUCREATE
 40
2457702.927208715
  9
$TDUPDATE
 40
2457702.718926285
  9
$TDUUPDATE
 40
2457702.927259618
  9
$TDINDWG
 40
0.0000000116
  9
$TDUSRTIMER
 40
0.0000000116
  9
$USRTIMER
 70
     1
  9
$ANGBASE
 50
0.0
  9
$ANGDIR
 70
     0
  9
$PDMODE
 70
     0
  9
$PDSIZE
 40
-1.0
  9
$PLINEWID
 40
0.0
  9
$SPLFRAME
 70
     0
  9
$SPLINETYPE
 70
     6
  9
$SPLINESEGS
 70
     8
  9
$HANDSEED
  5
527
  9
$SURFTAB1
 70
     6
  9
$SURFTAB2
 70
     6
  9
$SURFTYPE
 70
     6
  9
$SURFU
 70
     6
  9
$SURFV
 70
     6
  9
$UCSBASE
  2

  9
$UCSNAME
  2

  9
$UCSORG
 10
0.0
 20
0.0
 30
0.0
  9
$UCSXDIR
 10
1.0
 20
0.0
 30
0.0
  9
$UCSYDIR
 10
0.0
 20
1.0
 30
0.0
  9
$UCSORTHOREF
  2

  9
$UCSORTHOVIEW
 70
     0
  9
$UCSORGTOP
 10
0.0
 20
0.0
 30
0.0
  9
$UCSORGBOTTOM
 10
0.0
 20
0.0
 30
0.0
  9
$UCSORGLEFT
 10
0.0
 20
0.0
 30
0.0
  9
$UCSORGRIGHT
 10
0.0
 20
0.0
 30
0.0
  9
$UCSORGFRONT
 10
0.0
 20
0.0
 30
0.0
  9
$UCSORGBACK
 10
0.0
 20
0.0
 30
0.0
  9
$PUCSBASE
  2

  9
$PUCSNAME
  2

  9
$PUCSORG
 10
0.0
 20
0.0
 30
0.0
  9
$PUCSXDIR
 10
1.0
 20
0.0
 30
0.0
  9
$PUCSYDIR
 10
0.0
 20
1.0
 30
0.0
  9
$PUCSORTHOREF
  2

  9
$PUCSORTHOVIEW
 70
     0
  9
$PUCSORGTOP
 10
0.0
 20
0.0
 30
0.0
  9
$PUCSORGBOTTOM
 10
0.0
 20
0.0
 30
0.0
  9
$PUCSORGLEFT
 10
0.0
 20
0.0
 30
0.0
  9
$PUCSORGRIGHT
 10
0.0
 20
0.0
 30
0.0
  9
$PUCSORGFRONT
 10
0.0
 20
0.0
 30
0.0
  9
$PUCSORGBACK
 10
0.0
 20
0.0
 30
0.0
  9
$USERI1
 70
     0
  9
$USERI2
 70
     0
  9
$USERI3
 70
     0
  9
$USERI4
 70
     0
  9
$USERI5
 70
     0
  9
$USERR1
 40
0.0
  9
$USERR2
 40
0.0
  9
$USERR3
 40
0.0
  9
$USERR4
 40
0.0
  9
$USERR5
 40
0.0
  9
$WORLDVIEW
 70
     1
  9
$SHADEDGE
 70
     3
  9
$SHADEDIF
 70
    70
  9
$TILEMODE
 70
     1
  9
$MAXACTVP
 70
    64
  9
$PINSBASE
 10
0.0
 20
0.0
 30
0.0
  9
$PLIMCHECK
 70
     0
  9
$PEXTMIN
 10
1.0000000000E+20
 20
1.0000000000E+20
 30
1.0000000000E+20
  9
$PEXTMAX
 10
-1.0000000000E+20
 20
-1.0000000000E+20
 30
-1.0000000000E+20
  9
$PLIMMIN
 10
0.0
 20
0.0
  9
$PLIMMAX
 10
12.0
 20
9.0
  9
$UNITMODE
 70
     0
  9
$VISRETAIN
 70
     1
  9
$PLINEGEN
 70
     0
  9
$PSLTSCALE
 70
     1
  9
$TREEDEPTH
 70
  3020
  9
$CMLSTYLE
  2
Standard
  9
$CMLJUST
 70
     0
  9
$CMLSCALE
 40
1.0
  9
$PROXYGRAPHICS
 70
     1
  9
$MEASUREMENT
 70
     0
  9
$CELWEIGHT
370
    -1
  9
$ENDCAPS
280
     0
  9
$JOINSTYLE
280
     0
  9
$LWDISPLAY
290
     1
  9
$INSUNITS
 70
     1
  9
$HYPERLINKBASE
  1

  9
$STYLESHEET
  1

  9
$XEDIT
290
     1
  9
$CEPSNTYPE
380
     0
  9
$PSTYLEMODE
290
     1
  9
$FINGERPRINTGUID
  2
{DE62D1EB-D559-4696-A3F4-009CDF9E9C2F}
  9
$VERSIONGUID
  2
{FAEB1C32-E019-11D5-929B-00C0DF256EC4}
  9
$EXTNAMES
290
     1
  9
$PSVPSCALE
 40
0.0
  9
$OLESTARTUP
290
     0
  0
ENDSEC
  0
SECTION
  2
CLASSES
  0
CLASS
  1
ACDBDICTIONARYWDFLT
  2
AcDbDictionaryWithDefault
  3
ObjectDBX Classes
 90
        0
280
     0
281
     0
  0
CLASS
  1
VISUALSTYLE
  2
AcDbVisualStyle
  3
ObjectDBX Classes
 90
     4095
280
     0
281
     0
  0
CLASS
  1
MATERIAL
  2
AcDbMaterial
  3
ObjectDBX Classes
 90
     1153
280
     0
281
     0
  0
CLASS
  1
SCALE
  2
AcDbScale
  3
ObjectDBX Classes
 90
     1153
280
     0
281
     0
  0
CLASS
  1
SUN
  2
AcDbSun
  3
SCENEOE
 90
     1153
280
     0
281
     0
  0
CLASS
  1
ACDBPLACEHOLDER
  2
AcDbPlaceHolder
  3
ObjectDBX Classes
 90
        0
280
     0
281
     0
  0
CLASS
  1
LAYOUT
  2
AcDbLayout
  3
ObjectDBX Classes
 90
        0
280
     0
281
     0
  0
ENDSEC
  0
SECTION
  2
TABLES
  0
TABLE
  2
VPORT
  5
8
330
0
100
AcDbSymbolTable
 70
     1
  0
VPORT
  5
29
330
8
100
AcDbSymbolTableRecord
100
AcDbViewportTableRecord
  2
*Active
 70
     0
 10
0.0
 20
0.0
 11
1.0
 21
1.0
 12
74.1459805401
 22
55.5359089542
 13
0.0
 23
0.0
 14
0.5
 24
0.5
 15
0.5
 25
0.5
 16
0.0
 26
0.0
 36
1.0
 17
0.0
 27
0.0
 37
0.0
 40
5.3032960179
 41
2.6628680579
 42
50.0
 43
0.0
 44
0.0
 50
0.0
 51
0.0
 71
     0
 72
   100
 73
     1
 74
     3
 75
     0
 76
     0
 77
     0
 78
     0
281
     0
 65
     1
110
0.0
120
0.0
130
0.0
111
1.0
121
0.0
131
0.0
112
0.0
122
1.0
132
0.0
 79
     0
146
0.0
  0
ENDTAB
  0
TABLE
  2
LTYPE
  5
5
330
0
100
AcDbSymbolTable
 70
     6
  0
LTYPE
  5
14
330
5
100
AcDbSymbolTableRecord
100
AcDbLinetypeTableRecord
  2
ByBlock
 70
     0
  3

 72
    65
 73
     0
 40
0.0
  0
LTYPE
  5
15
330
5
100
AcDbSymbolTableRecord
100
AcDbLinetypeTableRecord
  2
ByLayer
 70
     0
  3

 72
    65
 73
     0
 40
0.0
  0
LTYPE
  5
16
330
5
100
AcDbSymbolTableRecord
100
AcDbLinetypeTableRecord
  2
Continuous
 70
     0
  3
Solid line
 72
    65
 73
     0
 40
0.0
  0
LTYPE
  5
6A
330
5
100
AcDbSymbolTableRecord
100
AcDbLinetypeTableRecord
  2
HIDDEN
 70
     0
  3
Hidden __ __ __ __ __ __ __ __ __ __ __ __ __ __
 72
    65
 73
     2
 40
0.075
 49
0.05
 74
     0
 49
-0.025
 74
     0
  0
LTYPE
  5
6B
330
5
100
AcDbSymbolTableRecord
100
AcDbLinetypeTableRecord
  2
PHANTOM
 70
     0
  3
Phantom ______  __  __  ______  __  __  ______
 72
    65
 73
     6
 40
0.5
 49
0.25
 74
     0
 49
-0.05
 74
     0
 49
0.05
 74
     0
 49
-0.05
 74
     0
 49
0.05
 74
     0
 49
-0.05
 74
     0
  0
LTYPE
  5
6C
330
5
100
AcDbSymbolTableRecord
100
AcDbLinetypeTableRecord
  2
CENTER
 70
     0
  3
Center ____ _ ____ _ ____ _ ____ _ ____ _ ____
 72
    65
 73
     4
 40
0.4
 49
0.25
 74
     0
 49
-0.05
 74
     0
 49
0.05
 74
     0
 49
-0.05
 74
     0
  0
LTYPE
  5
6D
330
5
100
AcDbSymbolTableRecord
100
AcDbLinetypeTableRecord
  2
CENTERX2
 70
     0
  3
Center (2x) ________  __  ________  __  _____
 72
    65
 73
     4
 40
0.8
 49
0.5
 74
     0
 49
-0.1
 74
     0
 49
0.1
 74
     0
 49
-0.1
 74
     0
  0
LTYPE
  5
6E
330
5
100
AcDbSymbolTableRecord
100
AcDbLinetypeTableRecord
  2
DOT2
 70
     0
  3
Dot (.5x) ........................................
 72
    65
 73
     2
 40
0.025
 49
0.0
 74
     0
 49
-0.025
 74
     0
  0
ENDTAB
  0
TABLE
  2
LAYER
  5
2
330
0
100
AcDbSymbolTable
 70
     1
  0
LAYER
  5
10
330
2
100
AcDbSymbolTableRecord
100
AcDbLayerTableRecord
  2
0
 70
     0
 62
     7
  6
Continuous
370
    -3
390
F
  0
ENDTAB
  0
TABLE
  2
STYLE
  5
3
330
0
100
AcDbSymbolTable
 70
     2
  0
STYLE
  5
11
330
3
100
AcDbSymbolTableRecord
100
AcDbTextStyleTableRecord
  2
Standard
 70
     0
 40
0.0
 41
1.0
 50
0.0
 71
     0
 42
0.1377952756
  3
txt
  4

  0
STYLE
  5
524
330
3
100
AcDbSymbolTableRecord
100
AcDbTextStyleTableRecord
  2
SLDTEXTSTYLE0
 70
     0
 40
0.0
 41
0.7
 50
0.0
 71
     0
 42
0.1377952756
  3
TXT
  4

  0
ENDTAB
  0
TABLE
  2
VIEW
  5
6
330
0
100
AcDbSymbolTable
 70
     0
  0
ENDTAB
  0
TABLE
  2
UCS
  5
7
330
0
100
AcDbSymbolTable
 70
     0
  0
ENDTAB
  0
TABLE
  2
APPID
  5
9
330
0
100
AcDbSymbolTable
 70
     1
  0
APPID
  5
12
330
9
100
AcDbSymbolTableRecord
100
AcDbRegAppTableRecord
  2
ACAD
 70
     0
  0
ENDTAB
  0
TABLE
  2
DIMSTYLE
  5
A
330
0
100
AcDbSymbolTable
 70
     1
100
AcDbDimStyleTable
  0
DIMSTYLE
105
27
330
A
100
AcDbSymbolTableRecord
100
AcDbDimStyleTableRecord
  2
Standard
 70
     0
178
     0
340
11
  0
ENDTAB
  0
TABLE
  2
BLOCK_RECORD
  5
1
330
0
100
AcDbSymbolTable
 70
     1
  0
BLOCK_RECORD
  5
1F
330
1
100
AcDbSymbolTableRecord
100
AcDbBlockTableRecord
  2
*Model_Space
340
22
  0
BLOCK_RECORD
  5
1B
330
1
100
AcDbSymbolTableRecord
100
AcDbBlockTableRecord
  2
*Paper_Space
340
1E
  0
BLOCK_RECORD
  5
23
330
1
100
AcDbSymbolTableRecord
100
AcDbBlockTableRecord
  2
*Paper_Space0
340
26
  0
ENDTAB
  0
ENDSEC
  0
SECTION
  2
BLOCKS
  0
BLOCK
  5
20
330
1F
100
AcDbEntity
  8
0
100
AcDbBlockBegin
  2
*Model_Space
 70
     0
 10
0.0
 20
0.0
 30
0.0
  3
*Model_Space
  1
*Model_Space
  0
ENDBLK
  5
21
330
1F
100
AcDbEntity
  8
0
100
AcDbBlockEnd
  0
BLOCK
  5
1C
330
1B
100
AcDbEntity
 67
     1
  8
0
100
AcDbBlockBegin
  2
*Paper_Space
 70
     0
 10
0.0
 20
0.0
 30
0.0
  3
*Paper_Space
  1
*Paper_Space
  0
ENDBLK
  5
1D
330
1B
100
AcDbEntity
 67
     1
  8
0
100
AcDbBlockEnd
  0
BLOCK
  5
24
330
23
100
AcDbEntity
  8
0
100
AcDbBlockBegin
  2
*Paper_Space0
 70
     0
 10
0.0
 20
0.0
 30
0.0
  3
*Paper_Space0
  1
*Paper_Space0
  0
ENDBLK
  5
25
330
23
100
AcDbEntity
  8
0
100
AcDbBlockEnd
  0
ENDSEC
  0
SECTION
  2
ENTITIES
  0
SPLINE
  5
6F
330
1F
100
AcDbEntity
  8
0
  6
Continuous
 62
     7
370
    15
100
AcDbSpline
210
0.0
220
0.0
230
1.0
 70
     8
 71
     3
 72
    15
 73
    11
 74
     0
 42
0.000000001
 43
0.00000001
 40
0.0
 40
0.0
 40
0.0
 40
0.0
 40
0.1332510194652407
 40
0.260582003124147
 40
0.3853389064392157
 40
0.5101571304281748
 40
0.6302130152444813
 40
0.7481597850519236
 40
0.8682156698681871
 40
1.0
 40
1.0
 40
1.0
 40
1.0
 10
79.1882538312737
 20
54.95198955681224
 30
0.0
 10
79.18837556590032
 20
54.94830903108083
 30
0.0
 10
79.18861362676456
 20
54.9411114968969
 30
0.0
 10
79.19099467840942
 20
54.9306766332048
 30
0.0
 10
79.19498804301132
 20
54.92103994215492
 30
0.0
 10
79.20018914593223
 20
54.91221719547848
 30
0.0
 10
79.20703691012758
 20
54.90476149583034
 30
0.0
 10
79.21551254426855
 20
54.89951235933106
 30
0.0
 10
79.22526632645722
 20
54.89610803143968
 30
0.0
 10
79.23224219970099
 20
54.89581581260314
 30
0.0
 10
79.23589257294542
 20
54.89566289872624
 30
0.0
  0
SPLINE
  5
70
330
1F
100
AcDbEntity
  8
0
  6
Continuous
 62
     7
370
    15
100
AcDbSpline
210
0.0
220
0.0
230
1.0
 70
     8
 71
     3
 72
    13
 73
     9
 74
     0
 42
0.000000001
 43
0.00000001
 40
0.0
 40
0.0
 40
0.0
 40
0.0
 40
0.1119233770302867
 40
0.226609644180158
 40
0.3427159007193012
 40
0.4697846567888647
 40
0.7286514238155477
 40
1.0
 40
1.0
 40
1.0
 40
1.0
 10
79.21735835126158
 20
55.0068682288292
 30
0.0
 10
79.21518798912096
 20
55.00573544041092
 30
0.0
 10
79.2107936882566
 20
55.00344190006922
 30
0.0
 10
79.20501554752643
 20
54.99859938179873
 30
0.0
 10
79.19996025221465
 20
54.99260387290939
 30
0.0
 10
79.19429005661394
 20
54.98320051023036
 30
0.0
 10
79.18921583788557
 20
54.96953384179885
 30
0.0
 10
79.18857949354229
 20
54.95792871729103
 30
0.0
 10
79.1882538312737
 20
54.95198955681224
 30
0.0
  0
SPLINE
  5
74
330
1F
100
AcDbEntity
  8
0
  6
Continuous
 62
     7
370
    15
100
AcDbSpline
210
0.0
220
0.0
230
1.0
 70
     8
 71
     3
 72
    15
 73
    11
 74
     0
 42
0.000000001
 43
0.00000001
 40
0.0
 40
0.0
 40
0.0
 40
0.0
 40
0.1276790036823905
 40
0.2493965162930404
 40
0.3691975552212928
 40
0.4902361658310468
 40
0.6107958160934355
 40
0.7322970699974923
 40
0.8591080144880562
 40
1.0
 40
1.0
 40
1.0
 40
1.0
 10
79.1882538312737
 20
55.18612890417747
 30
0.0
 10
79.18837449277581
 20
55.18283271011551
 30
0.0
 10
79.1886101819448
 20
55.17639422538132
 30
0.0
 10
79.19100378497481
 20
55.16710171472201
 30
0.0
 10
79.1949997600511
 20
55.15860762661882
 30
0.0
 10
79.2003053013357
 20
55.15090082867913
 30
0.0
 10
79.20712905588911
 20
55.14433754029019
 30
0.0
 10
79.21563326167643
 20
55.13989340365087
 30
0.0
 10
79.22532581665394
 20
55.13697431120203
 30
0.0
 10
79.23224893662545
 20
55.1367341679499
 30
0.0
 10
79.23589257294542
 20
55.136607780616
 30
0.0
  0
SPLINE
  5
75
330
1F
100
AcDbEntity
  8
0
  6
Continuous
 62
     7
370
    15
100
AcDbSpline
210
0.0
220
0.0
230
1.0
 70
     8
 71
     3
 72
    15
 73
    11
 74
     0
 42
0.000000001
 43
0.00000001
 40
0.0
 40
0.0
 40
0.0
 40
0.0
 40
0.1322717322664814
 40
0.2548757846916271
 40
0.3762327283214582
 40
0.4990683535203387
 40
0.622812428303439
 40
0.7455391325097007
 40
0.8697147485321268
 40
1.0
 40
1.0
 40
1.0
 40
1.0
 10
79.23589257294542
 20
55.23854599987705
 30
0.0
 10
79.23239508268271
 20
55.23835851890279
 30
0.0
 10
79.22565573210578
 20
55.23799725985209
 30
0.0
 10
79.21607455806424
 20
55.23499130162018
 30
0.0
 10
79.20766927836131
 20
55.23000754255312
 30
0.0
 10
79.20072203455558
 20
55.22309056046188
 30
0.0
 10
79.19529951136307
 20
55.21494145052186
 30
0.0
 10
79.19110531079274
 20
55.20604702538775
 30
0.0
 10
79.18880141668372
 20
55.19628159943321
 30
0.0
 10
79.18843925823276
 20
55.18956687636043
 30
0.0
 10
79.1882538312737
 20
55.18612890417747
 30
0.0
  0
SPLINE
  5
79
330
1F
100
AcDbEntity
  8
0
  6
Continuous
 62
     7
370
    15
100
AcDbSpline
210
0.0
220
0.0
230
1.0
 70
     8
 71
     3
 72
    15
 73
    11
 74
     0
 42
0.000000001
 43
0.00000001
 40
0.0
 40
0.0
 40
0.0
 40
0.0
 40
0.1276723174680434
 40
0.250073704892922
 40
0.3711562270017877
 40
0.4909415919799246
 40
0.6129879347484962
 40
0.7370444218307878
 40
0.8654918914564019
 40
1.0
 40
1.0
 40
1.0
 40
1.0
 10
79.09876829220646
 20
55.31166929636403
 30
0.0
 10
79.10257699986333
 20
55.31620334266049
 30
0.0
 10
79.1100371733253
 20
55.32508424791855
 30
0.0
 10
79.12283232370316
 20
55.33666700596358
 30
0.0
 10
79.13663473114588
 20
55.34636059174788
 30
0.0
 10
79.15141524821298
 20
55.35447158388752
 30
0.0
 10
79.1672531206896
 20
55.36064014982544
 30
0.0
 10
79.18403480214877
 20
55.36519333829749
 30
0.0
 10
79.2018307936743
 20
55.36780531478601
 30
0.0
 10
79.214019504424
 20
55.36812303177524
 30
0.0
 10
79.22025432339969
 20
55.36828555166385
 30
0.0
  0
SPLINE
  5
7A
330
1F
100
AcDbEntity
  8
0
  6
Continuous
 62
     7
370
    15
100
AcDbSpline
210
0.0
220
0.0
230
1.0
 70
     8
 71
     3
 72
    15
 73
    11
 74
     0
 42
0.000000001
 43
0.00000001
 40
0.0
 40
0.0
 40
0.0
 40
0.0
 40
0.1348139965223314
 40
0.2648940034184417
 40
0.3921242427976264
 40
0.5163111098006592
 40
0.6380249871589573
 40
0.7580930497484808
 40
0.8784803057221522
 40
0.9999999999999999
 40
0.9999999999999999
 40
0.9999999999999999
 40
0.9999999999999999
 10
79.0585142794869
 20
55.18728729303271
 30
0.0
 10
79.05860976767
 20
55.19327759030171
 30
0.0
 10
79.05879739097143
 20
55.20504783572272
 30
0.0
 10
79.06074811921907
 20
55.22238073539874
 30
0.0
 10
79.06388490894768
 20
55.23905042637823
 30
0.0
 10
79.06841038342124
 20
55.25501719046019
 30
0.0
 10
79.07407323858914
 20
55.27026917875875
 30
0.0
 10
79.08085134127512
 20
55.28488477375474
 30
0.0
 10
79.08918043691031
 20
55.29867664116121
 30
0.0
 10
79.09556238184763
 20
55.30732491624807
 30
0.0
 10
79.09876829220646
 20
55.31166929636403
 30
0.0
  0
SPLINE
  5
7B
330
1F
100
AcDbEntity
  8
0
  6
Continuous
 62
     7
370
    15
100
AcDbSpline
210
0.0
220
0.0
230
1.0
 70
     8
 71
     3
 72
    15
 73
    11
 74
     0
 42
0.000000001
 43
0.00000001
 40
0.0
 40
0.0
 40
0.0
 40
0.0
 40
0.1219300592099467
 40
0.2422088546783332
 40
0.3643171785074614
 40
0.486815625770866
 40
0.6100735392765041
 40
0.7362736100329748
 40
0.8660535627550758
 40
1.0
 40
1.0
 40
1.0
 40
1.0
 10
79.09225235489575
 20
55.0717380047226
 30
0.0
 10
79.08952375332329
 20
55.07589262948403
 30
0.0
 10
79.0841035028451
 20
55.08414561411809
 30
0.0
 10
79.07726761025677
 20
55.09735229045774
 30
0.0
 10
79.07152733621876
 20
55.11107714061325
 30
0.0
 10
79.06669055785507
 20
55.12528072078998
 30
0.0
 10
79.06309174825246
 20
55.14002053120441
 30
0.0
 10
79.06049614143714
 20
55.15526190856751
 30
0.0
 10
79.05886531529862
 20
55.17108305896481
 30
0.0
 10
79.05863251737772
 20
55.18182929018928
 30
0.0
 10
79.0585142794869
 20
55.18728729303271
 30
0.0
  0
SPLINE
  5
7C
330
1F
100
AcDbEntity
  8
0
  6
Continuous
 62
     7
370
    15
100
AcDbSpline
210
0.0
220
0.0
230
1.0
 70
     8
 71
     3
 72
    15
 73
    11
 74
     0
 42
0.000000001
 43
0.00000001
 40
0.0
 40
0.0
 40
0.0
 40
0.0
 40
0.1350053066186031
 40
0.2659348876840096
 40
0.3922003830002482
 40
0.5166731323323802
 40
0.6392076062531993
 40
0.7602075742514101
 40
0.8793467453782929
 40
1.0
 40
1.0
 40
1.0
 40
1.0
 10
79.0585142794869
 20
54.95271354984677
 30
0.0
 10
79.05863356253245
 20
54.95836431882049
 30
0.0
 10
79.05886852754324
 20
54.96949526359588
 30
0.0
 10
79.06048168991684
 20
54.98584896216946
 30
0.0
 10
79.06311309610577
 20
55.0016133811597
 30
0.0
 10
79.06666804217129
 20
55.01684348601054
 30
0.0
 10
79.07149935541639
 20
55.03148773106872
 30
0.0
 10
79.07726920811562
 20
55.04553853792423
 30
0.0
 10
79.08409848437589
 20
55.05903611048437
 30
0.0
 10
79.08952298104121
 20
55.0674862548386
 30
0.0
 10
79.09225235489576
 20
55.07173800472261
 30
0.0
  0
SPLINE
  5
7D
330
1F
100
AcDbEntity
  8
0
  6
Continuous
 62
     7
370
    15
100
AcDbSpline
210
0.0
220
0.0
230
1.0
 70
     8
 71
     3
 72
    15
 73
    11
 74
     0
 42
0.000000001
 43
0.00000001
 40
0.0
 40
0.0
 40
0.0
 40
0.0
 40
0.1197249712638786
 40
0.2393522553081691
 40
0.3597773107878927
 40
0.4809397634715003
 40
0.6055988753068885
 40
0.732256062503792
 40
0.863815907240752
 40
0.9999999999999999
 40
0.9999999999999999
 40
0.9999999999999999
 40
0.9999999999999999
 10
79.09876829220646
 20
54.82413238691521
 30
0.0
 10
79.09555788115014
 20
54.82857129297159
 30
0.0
 10
79.0891396785088
 20
54.83744548324682
 30
0.0
 10
79.08080990375466
 20
54.85168298769971
 30
0.0
 10
79.07411000842549
 20
54.86681053025055
 30
0.0
 10
79.06837620281938
 20
54.8825656835666
 30
0.0
 10
79.06391224039604
 20
54.89903152227781
 30
0.0
 10
79.06071834966549
 20
54.91626703235653
 30
0.0
 10
79.05880343681184
 20
54.93423190937416
 30
0.0
 10
79.05861176870529
 20
54.94648247586343
 30
0.0
 10
79.0585142794869
 20
54.95271354984677
 30
0.0
  0
SPLINE
  5
7E
330
1F
100
AcDbEntity
  8
0
  6
Continuous
 62
     7
370
    15
100
AcDbSpline
210
0.0
220
0.0
230
1.0
 70
     8
 71
     3
 72
    15
 73
    11
 74
     0
 42
0.000000001
 43
0.00000001
 40
0.0
 40
0.0
 40
0.0
 40
0.0
 40
0.1336760604899892
 40
0.2614841632803657
 40
0.3850467145964748
 40
0.5067217699764661
 40
0.6262646595624449
 40
0.7478031424311153
 40
0.8715563233226239
 40
1.0
 40
1.0
 40
1.0
 40
1.0
 10
79.22025432339969
 20
54.76592334693944
 30
0.0
 10
79.21401778943071
 20
54.76607234805306
 30
0.0
 10
79.20181848567604
 20
54.76636380960105
 30
0.0
 10
79.18402679503507
 20
54.76916954443987
 30
0.0
 10
79.16724457747515
 20
54.77385590090518
 30
0.0
 10
79.15141055754678
 20
54.78018013001775
 30
0.0
 10
79.13659221191267
 20
54.78842510361349
 30
0.0
 10
79.12277588064084
 20
54.79842207069937
 30
0.0
 10
79.11007909011875
 20
54.81044065361153
 30
0.0
 10
79.10258501780267
 20
54.81951223638633
 30
0.0
 10
79.09876829220646
 20
54.82413238691521
 30
0.0
  0
SPLINE
  5
82
330
1F
100
AcDbEntity
  8
0
  6
Continuous
 62
     7
370
    15
100
AcDbSpline
210
0.0
220
0.0
230
1.0
 70
     8
 71
     3
 72
    15
 73
    11
 74
     0
 42
0.000000001
 43
0.00000001
 40
0.0
 40
0.0
 40
0.0
 40
0.0
 40
0.1332510194652407
 40
0.260582003124147
 40
0.3853389064392157
 40
0.5101571304281748
 40
0.6302130152444813
 40
0.7481597850519236
 40
0.8682156698681871
 40
1.0
 40
1.0
 40
1.0
 40
1.0
 10
80.30030713230343
 20
54.95198955681224
 30
0.0
 10
80.30042886693005
 20
54.94830903108083
 30
0.0
 10
80.3006669277943
 20
54.9411114968969
 30
0.0
 10
80.30304797943916
 20
54.9306766332048
 30
0.0
 10
80.30704134404104
 20
54.92103994215492
 30
0.0
 10
80.31224244696197
 20
54.91221719547848
 30
0.0
 10
80.31909021115732
 20
54.90476149583034
 30
0.0
 10
80.32756584529828
 20
54.89951235933106
 30
0.0
 10
80.33731962748693
 20
54.89610803143968
 30
0.0
 10
80.34429550073072
 20
54.89581581260314
 30
0.0
 10
80.34794587397514
 20
54.89566289872624
 30
0.0
  0
SPLINE
  5
83
330
1F
100
AcDbEntity
  8
0
  6
Continuous
 62
     7
370
    15
100
AcDbSpline
210
0.0
220
0.0
230
1.0
 70
     8
 71
     3
 72
    13
 73
     9
 74
     0
 42
0.000000001
 43
0.00000001
 40
0.0
 40
0.0
 40
0.0
 40
0.0
 40
0.1119233770302867
 40
0.226609644180158
 40
0.3427159007193012
 40
0.4697846567888647
 40
0.7286514238155477
 40
1.0
 40
1.0
 40
1.0
 40
1.0
 10
80.32941165229131
 20
55.0068682288292
 30
0.0
 10
80.3272412901507
 20
55.00573544041092
 30
0.0
 10
80.32284698928632
 20
55.00344190006922
 30
0.0
 10
80.31706884855613
 20
54.99859938179873
 30
0.0
 10
80.3120135532444
 20
54.99260387290939
 30
0.0
 10
80.30634335764364
 20
54.98320051023036
 30
0.0
 10
80.30126913891529
 20
54.96953384179885
 30
0.0
 10
80.30063279457202
 20
54.95792871729103
 30
0.0
 10
80.30030713230343
 20
54.95198955681224
 30
0.0
  0
SPLINE
  5
87
330
1F
100
AcDbEntity
  8
0
  6
Continuous
 62
     7
370
    15
100
AcDbSpline
210
0.0
220
0.0
230
1.0
 70
     8
 71
     3
 72
    15
 73
    11
 74
     0
 42
0.000000001
 43
0.00000001
 40
0.0
 40
0.0
 40
0.0
 40
0.0
 40
0.1276790036823905
 40
0.2493965162930404
 40
0.3691975552212928
 40
0.4902361658310468
 40
0.6107958160934355
 40
0.7322970699974923
 40
0.8591080144880562
 40
1.0
 40
1.0
 40
1.0
 40
1.0
 10
80.30030713230343
 20
55.18612890417747
 30
0.0
 10
80.30042779380554
 20
55.18283271011551
 30
0.0
 10
80.3006634829745
 20
55.17639422538132
 30
0.0
 10
80.30305708600454
 20
55.16710171472201
 30
0.0
 10
80.30705306108084
 20
55.15860762661882
 30
0.0
 10
80.31235860236544
 20
55.15090082867913
 30
0.0
 10
80.31918235691886
 20
55.14433754029019
 30
0.0
 10
80.32768656270616
 20
55.13989340365087
 30
0.0
 10
80.33737911768367
 20
55.13697431120203
 30
0.0
 10
80.34430223765519
 20
55.1367341679499
 30
0.0
 10
80.34794587397514
 20
55.136607780616
 30
0.0
  0
SPLINE
  5
88
330
1F
100
AcDbEntity
  8
0
  6
Continuous
 62
     7
370
    15
100
AcDbSpline
210
0.0
220
0.0
230
1.0
 70
     8
 71
     3
 72
    15
 73
    11
 74
     0
 42
0.000000001
 43
0.00000001
 40
0.0
 40
0.0
 40
0.0
 40
0.0
 40
0.1322717322664814
 40
0.2548757846916271
 40
0.3762327283214582
 40
0.4990683535203387
 40
0.622812428303439
 40
0.7455391325097007
 40
0.8697147485321268
 40
1.0
 40
1.0
 40
1.0
 40
1.0
 10
80.34794587397514
 20
55.23854599987705
 30
0.0
 10
80.34444838371245
 20
55.23835851890279
 30
0.0
 10
80.33770903313551
 20
55.23799725985209
 30
0.0
 10
80.32812785909398
 20
55.23499130162018
 30
0.0
 10
80.31972257939103
 20
55.23000754255312
 30
0.0
 10
80.31277533558531
 20
55.22309056046188
 30
0.0
 10
80.30735281239279
 20
55.21494145052186
 30
0.0
 10
80.30315861182247
 20
55.20604702538775
 30
0.0
 10
80.30085471771343
 20
55.19628159943321
 30
0.0
 10
80.30049255926248
 20
55.18956687636043
 30
0.0
 10
80.30030713230343
 20
55.18612890417747
 30
0.0
  0
SPLINE
  5
8C
330
1F
100
AcDbEntity
  8
0
  6
Continuous
 62
     7
370
    15
100
AcDbSpline
210
0.0
220
0.0
230
1.0
 70
     8
 71
     3
 72
    15
 73
    11
 74
     0
 42
0.000000001
 43
0.00000001
 40
0.0
 40
0.0
 40
0.0
 40
0.0
 40
0.1276723174680434
 40
0.250073704892922
 40
0.3711562270017877
 40
0.4909415919799246
 40
0.6129879347484962
 40
0.7370444218307878
 40
0.8654918914564019
 40
1.0
 40
1.0
 40
1.0
 40
1.0
 10
80.21082159323619
 20
55.31166929636403
 30
0.0
 10
80.21463030089306
 20
55.31620334266049
 30
0.0
 10
80.22209047435503
 20
55.32508424791855
 30
0.0
 10
80.2348856247329
 20
55.33666700596358
 30
0.0
 10
80.24868803217561
 20
55.34636059174788
 30
0.0
 10
80.26346854924269
 20
55.35447158388752
 30
0.0
 10
80.27930642171933
 20
55.36064014982544
 30
0.0
 10
80.29608810317849
 20
55.36519333829749
 30
0.0
 10
80.31388409470404
 20
55.36780531478601
 30
0.0
 10
80.32607280545373
 20
55.36812303177524
 30
0.0
 10
80.33230762442942
 20
55.36828555166385
 30
0.0
  0
SPLINE
  5
8D
330
1F
100
AcDbEntity
  8
0
  6
Continuous
 62
     7
370
    15
100
AcDbSpline
210
0.0
220
0.0
230
1.0
 70
     8
 71
     3
 72
    15
 73
    11
 74
     0
 42
0.000000001
 43
0.00000001
 40
0.0
 40
0.0
 40
0.0
 40
0.0
 40
0.1348139965223314
 40
0.2648940034184417
 40
0.3921242427976264
 40
0.5163111098006592
 40
0.6380249871589573
 40
0.7580930497484808
 40
0.8784803057221522
 40
0.9999999999999999
 40
0.9999999999999999
 40
0.9999999999999999
 40
0.9999999999999999
 10
80.17056758051662
 20
55.18728729303271
 30
0.0
 10
80.17066306869974
 20
55.19327759030171
 30
0.0
 10
80.17085069200117
 20
55.20504783572272
 30
0.0
 10
80.1728014202488
 20
55.22238073539874
 30
0.0
 10
80.17593820997742
 20
55.23905042637823
 30
0.0
 10
80.18046368445096
 20
55.25501719046019
 30
0.0
 10
80.18612653961888
 20
55.27026917875875
 30
0.0
 10
80.19290464230484
 20
55.28488477375474
 30
0.0
 10
80.20123373794006
 20
55.29867664116121
 30
0.0
 10
80.20761568287739
 20
55.30732491624807
 30
0.0
 10
80.21082159323619
 20
55.31166929636403
 30
0.0
  0
SPLINE
  5
8E
330
1F
100
AcDbEntity
  8
0
  6
Continuous
 62
     7
370
    15
100
AcDbSpline
210
0.0
220
0.0
230
1.0
 70
     8
 71
     3
 72
    15
 73
    11
 74
     0
 42
0.000000001
 43
0.00000001
 40
0.0
 40
0.0
 40
0.0
 40
0.0
 40
0.1219300592099467
 40
0.2422088546783332
 40
0.3643171785074614
 40
0.486815625770866
 40
0.6100735392765041
 40
0.7362736100329748
 40
0.8660535627550758
 40
1.0
 40
1.0
 40
1.0
 40
1.0
 10
80.20430565592548
 20
55.0717380047226
 30
0.0
 10
80.20157705435301
 20
55.07589262948403
 30
0.0
 10
80.19615680387483
 20
55.08414561411809
 30
0.0
 10
80.1893209112865
 20
55.09735229045774
 30
0.0
 10
80.18358063724847
 20
55.11107714061325
 30
0.0
 10
80.1787438588848
 20
55.12528072078998
 30
0.0
 10
80.17514504928221
 20
55.14002053120441
 30
0.0
 10
80.17254944246687
 20
55.15526190856751
 30
0.0
 10
80.17091861632835
 20
55.17108305896481
 30
0.0
 10
80.17068581840743
 20
55.18182929018928
 30
0.0
 10
80.17056758051662
 20
55.18728729303271
 30
0.0
  0
SPLINE
  5
8F
330
1F
100
AcDbEntity
  8
0
  6
Continuous
 62
     7
370
    15
100
AcDbSpline
210
0.0
220
0.0
230
1.0
 70
     8
 71
     3
 72
    15
 73
    11
 74
     0
 42
0.000000001
 43
0.00000001
 40
0.0
 40
0.0
 40
0.0
 40
0.0
 40
0.1350053066186031
 40
0.2659348876840096
 40
0.3922003830002482
 40
0.5166731323323802
 40
0.6392076062531993
 40
0.7602075742514101
 40
0.8793467453782929
 40
1.0
 40
1.0
 40
1.0
 40
1.0
 10
80.17056758051662
 20
54.95271354984677
 30
0.0
 10
80.17068686356218
 20
54.95836431882049
 30
0.0
 10
80.17092182857299
 20
54.96949526359588
 30
0.0
 10
80.17253499094657
 20
54.98584896216946
 30
0.0
 10
80.1751663971355
 20
55.0016133811597
 30
0.0
 10
80.17872134320103
 20
55.01684348601054
 30
0.0
 10
80.18355265644612
 20
55.03148773106872
 30
0.0
 10
80.18932250914534
 20
55.04553853792423
 30
0.0
 10
80.19615178540563
 20
55.05903611048437
 30
0.0
 10
80.20157628207095
 20
55.0674862548386
 30
0.0
 10
80.2043056559255
 20
55.07173800472261
 30
0.0
  0
SPLINE
  5
90
330
1F
100
AcDbEntity
  8
0
  6
Continuous
 62
     7
370
    15
100
AcDbSpline
210
0.0
220
0.0
230
1.0
 70
     8
 71
     3
 72
    15
 73
    11
 74
     0
 42
0.000000001
 43
0.00000001
 40
0.0
 40
0.0
 40
0.0
 40
0.0
 40
0.1197249712638786
 40
0.2393522553081691
 40
0.3597773107878927
 40
0.4809397634715003
 40
0.6055988753068885
 40
0.732256062503792
 40
0.863815907240752
 40
0.9999999999999999
 40
0.9999999999999999
 40
0.9999999999999999
 40
0.9999999999999999
 10
80.21082159323619
 20
54.82413238691521
 30
0.0
 10
80.20761118217987
 20
54.82857129297159
 30
0.0
 10
80.20119297953853
 20
54.83744548324682
 30
0.0
 10
80.19286320478437
 20
54.85168298769971
 30
0.0
 10
80.18616330945522
 20
54.86681053025055
 30
0.0
 10
80.18042950384915
 20
54.8825656835666
 30
0.0
 10
80.17596554142575
 20
54.89903152227781
 30
0.0
 10
80.17277165069524
 20
54.91626703235653
 30
0.0
 10
80.17085673784155
 20
54.93423190937416
 30
0.0
 10
80.17066506973502
 20
54.94648247586343
 30
0.0
 10
80.17056758051662
 20
54.95271354984677
 30
0.0
  0
SPLINE
  5
91
330
1F
100
AcDbEntity
  8
0
  6
Continuous
 62
     7
370
    15
100
AcDbSpline
210
0.0
220
0.0
230
1.0
 70
     8
 71
     3
 72
    15
 73
    11
 74
     0
 42
0.000000001
 43
0.00000001
 40
0.0
 40
0.0
 40
0.0
 40
0.0
 40
0.1336760604899892
 40
0.2614841632803657
 40
0.3850467145964748
 40
0.5067217699764661
 40
0.6262646595624449
 40
0.7478031424311153
 40
0.8715563233226239
 40
1.0
 40
1.0
 40
1.0
 40
1.0
 10
80.33230762442942
 20
54.76592334693944
 30
0.0
 10
80.32607109046045
 20
54.76607234805306
 30
0.0
 10
80.31387178670579
 20
54.76636380960105
 30
0.0
 10
80.29608009606477
 20
54.76916954443987
 30
0.0
 10
80.27929787850485
 20
54.77385590090518
 30
0.0
 10
80.26346385857654
 20
54.78018013001775
 30
0.0
 10
80.2486455129424
 20
54.78842510361349
 30
0.0
 10
80.23482918167056
 20
54.79842207069937
 30
0.0
 10
80.22213239114846
 20
54.81044065361153
 30
0.0
 10
80.2146383188324
 20
54.81951223638633
 30
0.0
 10
80.21082159323619
 20
54.82413238691521
 30
0.0
  0
CIRCLE
  5
225
330
1F
100
AcDbEntity
  8
0
  6
Continuous
 62
     7
370
    15
100
AcDbCircle
 10
74.3170363873
 20
53.5671475595
 30
0.0
 40
0.1230314960629926
  0
CIRCLE
  5
226
330
1F
100
AcDbEntity
  8
0
  6
Continuous
 62
     7
370
    15
100
AcDbCircle
 10
71.5375088282
 20
53.5671475595
 30
0.0
 40
0.1230314960629926
  0
CIRCLE
  5
29F
330
1F
100
AcDbEntity
  8
0
  6
Continuous
 62
     7
370
    15
100
AcDbCircle
 10
67.8468256499
 20
53.0544616121
 30
0.0
 40
0.0688976377952599
  0
CIRCLE
  5
2A0
330
1F
100
AcDbEntity
  8
0
  6
Continuous
 62
     7
370
    15
100
AcDbCircle
 10
70.9964319491
 20
53.0544616121
 30
0.0
 40
0.0688976377952741
  0
CIRCLE
  5
2A1
330
1F
100
AcDbEntity
  8
0
  6
Continuous
 62
     7
370
    15
100
AcDbCircle
 10
74.1460382483
 20
53.0544616121
 30
0.0
 40
0.0688976377952599
  0
CIRCLE
  5
2A2
330
1F
100
AcDbEntity
  8
0
  6
Continuous
 62
     7
370
    15
100
AcDbCircle
 10
77.2956445475
 20
53.0544616121
 30
0.0
 40
0.0688976377952741
  0
CIRCLE
  5
2A3
330
1F
100
AcDbEntity
  8
0
  6
Continuous
 62
     7
370
    15
100
AcDbCircle
 10
80.4452508467
 20
53.0544616121
 30
0.0
 40
0.0688976377952741
  0
CIRCLE
  5
2A4
330
1F
100
AcDbEntity
  8
0
  6
Continuous
 62
     7
370
    15
100
AcDbCircle
 10
80.4452508467
 20
58.0174537381
 30
0.0
 40
0.0688976377952883
  0
CIRCLE
  5
2A5
330
1F
100
AcDbEntity
  8
0
  6
Continuous
 62
     7
370
    15
100
AcDbCircle
 10
77.2956445475
 20
58.0174537381
 30
0.0
 40
0.0688976377952741
  0
CIRCLE
  5
2A6
330
1F
100
AcDbEntity
  8
0
  6
Continuous
 62
     7
370
    15
100
AcDbCircle
 10
74.1460382483
 20
58.0174537381
 30
0.0
 40
0.0688976377952741
  0
CIRCLE
  5
2A7
330
1F
100
AcDbEntity
  8
0
  6
Continuous
 62
     7
370
    15
100
AcDbCircle
 10
70.9964319491
 20
58.0174537381
 30
0.0
 40
0.0688976377952741
  0
CIRCLE
  5
2A8
330
1F
100
AcDbEntity
  8
0
  6
Continuous
 62
     7
370
    15
100
AcDbCircle
 10
67.8468256499
 20
58.0174537381
 30
0.0
 40
0.0688976377952883
  0
CIRCLE
  5
2C5
330
1F
100
AcDbEntity
  8
0
  6
Continuous
 62
     7
370
    15
100
AcDbCircle
 10
75.3647811592
 20
57.5046595674
 30
0.0
 40
0.157480314960651
  0
CIRCLE
  5
2C6
330
1F
100
AcDbEntity
  8
0
  6
Continuous
 62
     7
370
    15
100
AcDbCircle
 10
71.9897809189
 20
57.5046595674
 30
0.0
 40
0.1574803149606225
  0
SPLINE
  5
2CB
330
1F
100
AcDbEntity
  8
0
  6
Continuous
 62
     7
370
    15
100
AcDbSpline
210
0.0
220
0.0
230
1.0
 70
     8
 71
     3
 72
    15
 73
    11
 74
     0
 42
0.000000001
 43
0.00000001
 40
0.0
 40
0.0
 40
0.0
 40
0.0
 40
0.1317124376269316
 40
0.2577728044759365
 40
0.3794794290511839
 40
0.5006902307021802
 40
0.6209208278308475
 40
0.7436518315006593
 40
0.869443716731197
 40
1.0
 40
1.0
 40
1.0
 40
1.0
 10
79.9542384618007
 20
55.36828555166386
 30
0.0
 10
79.96042948527347
 20
55.36815366355625
 30
0.0
 10
79.97254586176683
 20
55.3678955469502
 30
0.0
 10
79.99016389486785
 20
55.36484778278909
 30
0.0
 10
80.00687607433356
 20
55.36020435441097
 30
0.0
 10
80.02273952582189
 20
55.35378285046725
 30
0.0
 10
80.03745714644053
 20
55.34498396333472
 30
0.0
 10
80.0514424221491
 20
55.33473441309627
 30
0.0
 10
80.06445830695237
 20
55.32249656381384
 30
0.0
 10
80.0720187912064
 20
55.31311625327284
 30
0.0
 10
80.0758692916008
 20
55.30833892840521
 30
0.0
  0
SPLINE
  5
2CF
330
1F
100
AcDbEntity
  8
0
  6
Continuous
 62
     7
370
    15
100
AcDbSpline
210
0.0
220
0.0
230
1.0
 70
     8
 71
     3
 72
    11
 73
     7
 74
     0
 42
0.000000001
 43
0.00000001
 40
0.0
 40
0.0
 40
0.0
 40
0.0
 40
0.2570834044917647
 40
0.4993072776356813
 40
0.7434630513085128
 40
1.0
 40
1.0
 40
1.0
 40
1.0
 10
79.97335187791214
 20
55.22073577122775
 30
0.0
 10
79.97106724831995
 20
55.22348082514744
 30
0.0
 10
79.96663004170864
 20
55.22881226768962
 30
0.0
 10
79.95785482025
 20
55.23441398303315
 30
0.0
 10
79.94807607357794
 20
55.2379042098404
 30
0.0
 10
79.94114027554454
 20
55.23832857197639
 30
0.0
 10
79.93758662200662
 20
55.23854599987705
 30
0.0
  0
SPLINE
  5
2D0
330
1F
100
AcDbEntity
  8
0
  6
Continuous
 62
     7
370
    15
100
AcDbSpline
210
0.0
220
0.0
230
1.0
 70
     8
 71
     3
 72
    11
 73
     7
 74
     0
 42
0.000000001
 43
0.00000001
 40
0.0
 40
0.0
 40
0.0
 40
0.0
 40
0.2704514207905552
 40
0.5215502178422486
 40
0.7637906072714497
 40
1.0
 40
1.0
 40
1.0
 40
1.0
 10
79.98522536367832
 20
55.18135055014962
 30
0.0
 10
79.985097847128
 20
55.18512726068504
 30
0.0
 10
79.98485193869679
 20
55.19241043263776
 30
0.0
 10
79.98263225330238
 20
55.20288117053482
 30
0.0
 10
79.97893019399234
 20
55.21244256164154
 30
0.0
 10
79.97519562483383
 20
55.21799469678421
 30
0.0
 10
79.97335187791215
 20
55.22073577122776
 30
0.0
  0
SPLINE
  5
2D1
330
1F
100
AcDbEntity
  8
0
  6
Continuous
 62
     7
370
    15
100
AcDbSpline
210
0.0
220
0.0
230
1.0
 70
     8
 71
     3
 72
    15
 73
    11
 74
     0
 42
0.000000001
 43
0.00000001
 40
0.0
 40
0.0
 40
0.0
 40
0.0
 40
0.1353459356327026
 40
0.2598606605500852
 40
0.3775589660046131
 40
0.5004466421663762
 40
0.6243917922933273
 40
0.745941455559873
 40
0.8702413145278352
 40
1.0
 40
1.0
 40
1.0
 40
1.0
 10
79.93642823315139
 20
55.12734066977409
 30
0.0
 10
79.94012124654225
 20
55.12751328906266
 30
0.0
 10
79.94721173577403
 20
55.12784471358712
 30
0.0
 10
79.95711551760404
 20
55.13098135765065
 30
0.0
 10
79.9657805400314
 20
55.13605103305459
 30
0.0
 10
79.97272634602227
 20
55.14326028901096
 30
0.0
 10
79.97840213608112
 20
55.1515930426634
 30
0.0
 10
79.98227478719053
 20
55.16092928246862
 30
0.0
 10
79.98491957241941
 20
55.17087543108914
 30
0.0
 10
79.98512198355701
 20
55.17780918313031
 30
0.0
 10
79.98522536367832
 20
55.18135055014962
 30
0.0
  0
SPLINE
  5
2D5
330
1F
100
AcDbEntity
  8
0
  6
Continuous
 62
     7
370
    15
100
AcDbSpline
210
0.0
220
0.0
230
1.0
 70
     8
 71
     3
 72
    11
 73
     7
 74
     0
 42
0.000000001
 43
0.00000001
 40
0.0
 40
0.0
 40
0.0
 40
0.0
 40
0.2396213159573048
 40
0.4756795771147738
 40
0.7265376220204026
 40
1.0
 40
1.0
 40
1.0
 40
1.0
 10
79.97349667651903
 20
54.98210766704846
 30
0.0
 10
79.97119360136494
 20
54.98451367474668
 30
0.0
 10
79.96662169668703
 20
54.98928991395502
 30
0.0
 10
79.95764821650135
 20
54.99410223376877
 30
0.0
 10
79.94747685920542
 20
54.99706138151382
 30
0.0
 10
79.9402154588861
 20
54.99741610820849
 30
0.0
 10
79.93642823315139
 20
54.99760111798729
 30
0.0
  0
SPLINE
  5
2D6
330
1F
100
AcDbEntity
  8
0
  6
Continuous
 62
     7
370
    15
100
AcDbSpline
210
0.0
220
0.0
230
1.0
 70
     8
 71
     3
 72
    11
 73
     7
 74
     0
 42
0.000000001
 43
0.00000001
 40
0.0
 40
0.0
 40
0.0
 40
0.0
 40
0.2686075114197843
 40
0.5199015726131867
 40
0.7595628792116601
 40
1.0
 40
1.0
 40
1.0
 40
1.0
 10
79.98522536367832
 20
54.94807999442581
 30
0.0
 10
79.98509266829247
 20
54.95137358044823
 30
0.0
 10
79.98483583057629
 20
54.95774846007665
 30
0.0
 10
79.98267681400327
 20
54.96687342571239
 30
0.0
 10
79.97881034916585
 20
54.97503810624473
 30
0.0
 10
79.9752698078451
 20
54.97974860947082
 30
0.0
 10
79.97349667651905
 20
54.98210766704847
 30
0.0
  0
SPLINE
  5
2D7
330
1F
100
AcDbEntity
  8
0
  6
Continuous
 62
     7
370
    15
100
AcDbSpline
210
0.0
220
0.0
230
1.0
 70
     8
 71
     3
 72
    11
 73
     7
 74
     0
 42
0.000000001
 43
0.00000001
 40
0.0
 40
0.0
 40
0.0
 40
0.0
 40
0.239601031393095
 40
0.480714857518137
 40
0.7338265736180641
 40
1.0
 40
1.0
 40
1.0
 40
1.0
 10
79.97335187791214
 20
54.91202514130649
 30
0.0
 10
79.97518919424176
 20
54.91452251362445
 30
0.0
 10
79.97887542736223
 20
54.91953302618782
 30
0.0
 10
79.98266407852238
 20
54.92830136203948
 30
0.0
 10
79.98482682015482
 20
54.93793397971977
 30
0.0
 10
79.98509030665633
 20
54.94464174878755
 30
0.0
 10
79.98522536367832
 20
54.94807999442581
 30
0.0
  0
SPLINE
  5
2D8
330
1F
100
AcDbEntity
  8
0
  6
Continuous
 62
     7
370
    15
100
AcDbSpline
210
0.0
220
0.0
230
1.0
 70
     8
 71
     3
 72
    11
 73
     7
 74
     0
 42
0.000000001
 43
0.00000001
 40
0.0
 40
0.0
 40
0.0
 40
0.0
 40
0.2611020976322768
 40
0.5076974125491476
 40
0.7507458986329103
 40
1.0
 40
1.0
 40
1.0
 40
1.0
 10
79.93758662200662
 20
54.89566289872624
 30
0.0
 10
79.94113319726875
 20
54.89584591143378
 30
0.0
 10
79.9480293007483
 20
54.89620176869776
 30
0.0
 10
79.95783859745903
 20
54.89932522186258
 30
0.0
 10
79.96647383130089
 20
54.90464409286555
 30
0.0
 10
79.9710400097123
 20
54.90954420272953
 30
0.0
 10
79.97335187791214
 20
54.91202514130649
 30
0.0
  0
SPLINE
  5
2DC
330
1F
100
AcDbEntity
  8
0
  6
Continuous
 62
     7
370
    15
100
AcDbSpline
210
0.0
220
0.0
230
1.0
 70
     8
 71
     3
 72
    15
 73
    11
 74
     0
 42
0.000000001
 43
0.00000001
 40
0.0
 40
0.0
 40
0.0
 40
0.0
 40
0.1286020063479346
 40
0.2518460093284112
 40
0.3728238050248072
 40
0.4932475732413017
 40
0.6144633155862234
 40
0.7386608902196138
 40
0.8663805396203096
 40
1.0
 40
1.0
 40
1.0
 40
1.0
 10
80.07442130553176
 20
54.82326359527379
 30
0.0
 10
80.07061436486617
 20
54.81868003808547
 30
0.0
 10
80.06315909382019
 20
54.80970389051838
 30
0.0
 10
80.05037472936641
 20
54.79803055901143
 30
0.0
 10
80.03668716821815
 20
54.78810153228297
 30
0.0
 10
80.02198538786007
 20
54.77990652087703
 30
0.0
 10
80.00618940420131
 20
54.77367468148279
 30
0.0
 10
79.98947393094389
 20
54.76922932297636
 30
0.0
 10
79.97180996564217
 20
54.76634901176035
 30
0.0
 10
79.9597040658648
 20
54.76606735471132
 30
0.0
 10
79.95351446876616
 20
54.76592334693944
 30
0.0
  0
SPLINE
  5
2DD
330
1F
100
AcDbEntity
  8
0
  6
Continuous
 62
     7
370
    15
100
AcDbSpline
210
0.0
220
0.0
230
1.0
 70
     8
 71
     3
 72
    15
 73
    11
 74
     0
 42
0.000000001
 43
0.00000001
 40
0.0
 40
0.0
 40
0.0
 40
0.0
 40
0.1345519530722832
 40
0.2643791181667158
 40
0.3902970044618769
 40
0.514242484398941
 40
0.635719781541857
 40
0.7569984239368062
 40
0.8780829427301362
 40
1.0
 40
1.0
 40
1.0
 40
1.0
 10
80.11496491546514
 20
54.947790397212
 30
0.0
 10
80.11486848325012
 20
54.94180026167258
 30
0.0
 10
80.11467900503455
 20
54.93003033403161
 30
0.0
 10
80.11274698885673
 20
54.91274230777378
 30
0.0
 10
80.10957526960861
 20
54.89612681023555
 30
0.0
 10
80.1050628444176
 20
54.88020908732405
 30
0.0
 10
80.09941266044963
 20
54.86487781118892
 30
0.0
 10
80.09244349806023
 20
54.85024127168406
 30
0.0
 10
80.08421591444447
 20
54.8362321458737
 30
0.0
 10
80.07769362376018
 20
54.82759630777947
 30
0.0
 10
80.07442130553176
 20
54.82326359527379
 30
0.0
  0
SPLINE
  5
2DE
330
1F
100
AcDbEntity
  8
0
  6
Continuous
 62
     7
370
    15
100
AcDbSpline
210
0.0
220
0.0
230
1.0
 70
     8
 71
     3
 72
    15
 73
    11
 74
     0
 42
0.000000001
 43
0.00000001
 40
0.0
 40
0.0
 40
0.0
 40
0.0
 40
0.1204172833814531
 40
0.2401007698391379
 40
0.3623332743242436
 40
0.4853866760414565
 40
0.6104631633705732
 40
0.7378053419893409
 40
0.8674760820916101
 40
1.0
 40
1.0
 40
1.0
 40
1.0
 10
80.0787652637389
 20
55.06247089388069
 30
0.0
 10
80.08170448763119
 20
55.0585252017392
 30
0.0
 10
80.08756502441999
 20
55.05065786165217
 30
0.0
 10
80.09476187189244
 20
55.03769817061485
 30
0.0
 10
80.10100680137644
 20
55.02415718594077
 30
0.0
 10
80.10601787377323
 20
55.00987873615961
 30
0.0
 10
80.11018810230802
 20
54.9951096124293
 30
0.0
 10
80.11279209043066
 20
54.97971528083534
 30
0.0
 10
80.11465606187183
 20
54.96390847329788
 30
0.0
 10
80.1148612200965
 20
54.95320192512673
 30
0.0
 10
80.11496491546514
 20
54.947790397212
 30
0.0
  0
SPLINE
  5
2DF
330
1F
100
AcDbEntity
  8
0
  6
Continuous
 62
     7
370
    15
100
AcDbSpline
210
0.0
220
0.0
230
1.0
 70
     8
 71
     3
 72
    15
 73
    11
 74
     0
 42
0.000000001
 43
0.00000001
 40
0.0
 40
0.0
 40
0.0
 40
0.0
 40
0.1325128491708768
 40
0.263494357740145
 40
0.3915322028174538
 40
0.518713456369855
 40
0.6429859145876933
 40
0.7645576684566215
 40
0.8829007293032797
 40
0.9999999999999999
 40
0.9999999999999999
 40
0.9999999999999999
 40
0.9999999999999999
 10
80.11742649178251
 20
55.17845457801151
 30
0.0
 10
80.11732608477907
 20
55.17294689341789
 30
0.0
 10
80.11712643109223
 20
55.16199517195304
 30
0.0
 10
80.11519661112473
 20
55.1458158395082
 30
0.0
 10
80.11202670665233
 20
55.13006611865094
 30
0.0
 10
80.10749200790532
 20
55.11494836365855
 30
0.0
 10
80.10206811862405
 20
55.1004100585825
 30
0.0
 10
80.09537783601372
 20
55.08681524746802
 30
0.0
 10
80.08771232340561
 20
55.07408127968738
 30
0.0
 10
80.08173709502123
 20
55.06632736841258
 30
0.0
 10
80.07876526373892
 20
55.0624708938807
 30
0.0
  0
SPLINE
  5
2E0
330
1F
100
AcDbEntity
  8
0
  6
Continuous
 62
     7
370
    15
100
AcDbSpline
210
0.0
220
0.0
230
1.0
 70
     8
 71
     3
 72
    15
 73
    11
 74
     0
 42
0.000000001
 43
0.00000001
 40
0.0
 40
0.0
 40
0.0
 40
0.0
 40
0.1220481111154194
 40
0.2439937674595476
 40
0.3647931915809361
 40
0.48681903723756
 40
0.6112658378082181
 40
0.7374300646186663
 40
0.8664901012623457
 40
1.0
 40
1.0
 40
1.0
 40
1.0
 10
80.0758692916008
 20
55.30833892840521
 30
0.0
 10
80.07918004779862
 20
55.30375687535025
 30
0.0
 10
80.08579878093971
 20
55.29459661570048
 30
0.0
 10
80.09431551433454
 20
55.27997794850718
 30
0.0
 10
80.10147198682516
 20
55.26465510283742
 30
0.0
 10
80.10721761389084
 20
55.24863515492697
 30
0.0
 10
80.11194463254324
 20
55.23201819897397
 30
0.0
 10
80.1149896184042
 20
55.21468992982427
 30
0.0
 10
80.11719553587412
 20
55.19680424147555
 30
0.0
 10
80.11734864156828
 20
55.18463985052458
 30
0.0
 10
80.11742649178251
 20
55.17845457801151
 30
0.0
  0
LINE
  5
2E1
330
1F
100
AcDbEntity
  8
0
  6
Continuous
 62
     7
370
    15
100
AcDbLine
 10
79.5619790357
 20
55.0068682288
 30
0.0
 11
79.2173583513
 21
55.0068682288
 31
0.0
  0
LINE
  5
2E2
330
1F
100
AcDbEntity
  8
0
  6
Continuous
 62
     7
370
    15
100
AcDbLine
 10
79.5619790357
 20
55.1366077806
 30
0.0
 11
79.5619790357
 21
55.0068682288
 31
0.0
  0
LINE
  5
2E3
330
1F
100
AcDbEntity
  8
0
  6
Continuous
 62
     7
370
    15
100
AcDbLine
 10
79.2358925729
 20
55.1366077806
 30
0.0
 11
79.5619790357
 21
55.1366077806
 31
0.0
  0
LINE
  5
2E4
330
1F
100
AcDbEntity
  8
0
  6
Continuous
 62
     7
370
    15
100
AcDbLine
 10
79.5619790357
 20
55.2385459999
 30
0.0
 11
79.2358925729
 21
55.2385459999
 31
0.0
  0
LINE
  5
2E5
330
1F
100
AcDbEntity
  8
0
  6
Continuous
 62
     7
370
    15
100
AcDbLine
 10
79.5619790357
 20
55.3682855517
 30
0.0
 11
79.5619790357
 21
55.2385459999
 31
0.0
  0
LINE
  5
2E6
330
1F
100
AcDbEntity
  8
0
  6
Continuous
 62
     7
370
    15
100
AcDbLine
 10
79.2202543234
 20
55.3682855517
 30
0.0
 11
79.5619790357
 21
55.3682855517
 31
0.0
  0
LINE
  5
2E7
330
1F
100
AcDbEntity
  8
0
  6
Continuous
 62
     7
370
    15
100
AcDbLine
 10
79.5619790357
 20
54.7659233469
 30
0.0
 11
79.2202543234
 21
54.7659233469
 31
0.0
  0
LINE
  5
2E8
330
1F
100
AcDbEntity
  8
0
  6
Continuous
 62
     7
370
    15
100
AcDbLine
 10
79.5619790357
 20
54.8956628987
 30
0.0
 11
79.5619790357
 21
54.7659233469
 31
0.0
  0
LINE
  5
2E9
330
1F
100
AcDbEntity
  8
0
  6
Continuous
 62
     7
370
    15
100
AcDbLine
 10
79.2358925729
 20
54.8956628987
 30
0.0
 11
79.5619790357
 21
54.8956628987
 31
0.0
  0
LINE
  5
2EA
330
1F
100
AcDbEntity
  8
0
  6
Continuous
 62
     7
370
    15
100
AcDbLine
 10
80.6740323367
 20
55.0068682288
 30
0.0
 11
80.3294116523
 21
55.0068682288
 31
0.0
  0
LINE
  5
2EB
330
1F
100
AcDbEntity
  8
0
  6
Continuous
 62
     7
370
    15
100
AcDbLine
 10
80.6740323367
 20
55.1366077806
 30
0.0
 11
80.6740323367
 21
55.0068682288
 31
0.0
  0
LINE
  5
2EC
330
1F
100
AcDbEntity
  8
0
  6
Continuous
 62
     7
370
    15
100
AcDbLine
 10
80.347945874
 20
55.1366077806
 30
0.0
 11
80.6740323367
 21
55.1366077806
 31
0.0
  0
LINE
  5
2ED
330
1F
100
AcDbEntity
  8
0
  6
Continuous
 62
     7
370
    15
100
AcDbLine
 10
80.6740323367
 20
55.2385459999
 30
0.0
 11
80.347945874
 21
55.2385459999
 31
0.0
  0
LINE
  5
2EE
330
1F
100
AcDbEntity
  8
0
  6
Continuous
 62
     7
370
    15
100
AcDbLine
 10
80.6740323367
 20
55.3682855517
 30
0.0
 11
80.6740323367
 21
55.2385459999
 31
0.0
  0
LINE
  5
2EF
330
1F
100
AcDbEntity
  8
0
  6
Continuous
 62
     7
370
    15
100
AcDbLine
 10
80.3323076244
 20
55.3682855517
 30
0.0
 11
80.6740323367
 21
55.3682855517
 31
0.0
  0
LINE
  5
2F0
330
1F
100
AcDbEntity
  8
0
  6
Continuous
 62
     7
370
    15
100
AcDbLine
 10
80.6740323367
 20
54.7659233469
 30
0.0
 11
80.3323076244
 21
54.7659233469
 31
0.0
  0
LINE
  5
2F1
330
1F
100
AcDbEntity
  8
0
  6
Continuous
 62
     7
370
    15
100
AcDbLine
 10
80.6740323367
 20
54.8956628987
 30
0.0
 11
80.6740323367
 21
54.7659233469
 31
0.0
  0
LINE
  5
2F2
330
1F
100
AcDbEntity
  8
0
  6
Continuous
 62
     7
370
    15
100
AcDbLine
 10
80.347945874
 20
54.8956628987
 30
0.0
 11
80.6740323367
 21
54.8956628987
 31
0.0
  0
LINE
  5
2F3
330
1F
100
AcDbEntity
  8
0
  6
Continuous
 62
     7
370
    15
100
AcDbLine
 10
67.3702060723
 20
57.2526713784
 30
0.0
 11
67.9843552849
 21
57.2526713784
 31
0.0
  0
LINE
  5
2F4
330
1F
100
AcDbEntity
  8
0
  6
Continuous
 62
     7
370
    15
100
AcDbLine
 10
67.9843552849
 20
57.2526713784
 30
0.0
 11
67.9843552849
 21
57.7566477564
 31
0.0
  0
LINE
  5
2F5
330
1F
100
AcDbEntity
  8
0
  6
Continuous
 62
     7
370
    15
100
AcDbLine
 10
67.9843552849
 20
57.7566477564
 30
0.0
 11
67.3702060723
 21
57.7566477564
 31
0.0
  0
LINE
  5
2F6
330
1F
100
AcDbEntity
  8
0
  6
Continuous
 62
     7
370
    15
100
AcDbLine
 10
67.3702060723
 20
57.7566477564
 30
0.0
 11
67.3702060723
 21
57.2526713784
 31
0.0
  0
LINE
  5
2F7
330
1F
100
AcDbEntity
  8
0
  6
Continuous
 62
     7
370
    15
100
AcDbLine
 10
78.2109930802
 20
54.7096418509
 30
0.0
 11
78.3159143401
 21
54.7096418509
 31
0.0
  0
LINE
  5
2F8
330
1F
100
AcDbEntity
  8
0
  6
Continuous
 62
     7
370
    15
100
AcDbLine
 10
78.3159143401
 20
54.7096418509
 30
0.0
 11
78.3159143401
 21
54.9146142918
 31
0.0
  0
LINE
  5
2F9
330
1F
100
AcDbEntity
  8
0
  6
Continuous
 62
     7
370
    15
100
AcDbLine
 10
78.3159143401
 20
54.9146142918
 30
0.0
 11
78.2109930802
 21
54.9146142918
 31
0.0
  0
LINE
  5
2FA
330
1F
100
AcDbEntity
  8
0
  6
Continuous
 62
     7
370
    15
100
AcDbLine
 10
78.2109930802
 20
54.9146142918
 30
0.0
 11
78.2109930802
 21
54.7096418509
 31
0.0
  0
LINE
  5
2FB
330
1F
100
AcDbEntity
  8
0
  6
Continuous
 62
     7
370
    15
100
AcDbLine
 10
78.3075083336
 20
53.9505833856
 30
0.0
 11
78.4124689635
 21
53.9505833856
 31
0.0
  0
LINE
  5
2FC
330
1F
100
AcDbEntity
  8
0
  6
Continuous
 62
     7
370
    15
100
AcDbLine
 10
78.4124689635
 20
53.9505833856
 30
0.0
 11
78.4124689635
 21
54.1555518895
 31
0.0
  0
LINE
  5
2FD
330
1F
100
AcDbEntity
  8
0
  6
Continuous
 62
     7
370
    15
100
AcDbLine
 10
78.4124689635
 20
54.1555518895
 30
0.0
 11
78.3075083336
 21
54.1555518895
 31
0.0
  0
LINE
  5
2FE
330
1F
100
AcDbEntity
  8
0
  6
Continuous
 62
     7
370
    15
100
AcDbLine
 10
78.3075083336
 20
54.1555518895
 30
0.0
 11
78.3075083336
 21
53.9505833856
 31
0.0
  0
LINE
  5
2FF
330
1F
100
AcDbEntity
  8
0
  6
Continuous
 62
     7
370
    15
100
AcDbLine
 10
78.3047529227
 20
56.2096418509
 30
0.0
 11
78.4097135527
 21
56.2096418509
 31
0.0
  0
LINE
  5
300
330
1F
100
AcDbEntity
  8
0
  6
Continuous
 62
     7
370
    15
100
AcDbLine
 10
78.4097135527
 20
56.2096418509
 30
0.0
 11
78.4097135527
 21
56.4146142918
 31
0.0
  0
LINE
  5
301
330
1F
100
AcDbEntity
  8
0
  6
Continuous
 62
     7
370
    15
100
AcDbLine
 10
78.4097135527
 20
56.4146142918
 30
0.0
 11
78.3047529227
 21
56.4146142918
 31
0.0
  0
LINE
  5
302
330
1F
100
AcDbEntity
  8
0
  6
Continuous
 62
     7
370
    15
100
AcDbLine
 10
78.3047529227
 20
56.4146142918
 30
0.0
 11
78.3047529227
 21
56.2096418509
 31
0.0
  0
LINE
  5
303
330
1F
100
AcDbEntity
  8
0
  6
Continuous
 62
     7
370
    15
100
AcDbLine
 10
77.2997529227
 20
56.2096418509
 30
0.0
 11
77.2997529227
 21
56.4146142918
 31
0.0
  0
LINE
  5
304
330
1F
100
AcDbEntity
  8
0
  6
Continuous
 62
     7
370
    15
100
AcDbLine
 10
77.2997529227
 20
56.4146142918
 30
0.0
 11
77.1948316629
 21
56.4146142918
 31
0.0
  0
LINE
  5
305
330
1F
100
AcDbEntity
  8
0
  6
Continuous
 62
     7
370
    15
100
AcDbLine
 10
77.1948316629
 20
56.4146142918
 30
0.0
 11
77.1948316629
 21
56.2094213784
 31
0.0
  0
LINE
  5
306
330
1F
100
AcDbEntity
  8
0
  6
Continuous
 62
     7
370
    15
100
AcDbLine
 10
77.1948316629
 20
56.2094213784
 30
0.0
 11
77.2997529227
 21
56.2096418509
 31
0.0
  0
LINE
  5
307
330
1F
100
AcDbEntity
  8
0
  6
Continuous
 62
     7
370
    15
100
AcDbLine
 10
77.2059930802
 20
54.7096418509
 30
0.0
 11
77.2059930802
 21
54.9146142918
 31
0.0
  0
LINE
  5
308
330
1F
100
AcDbEntity
  8
0
  6
Continuous
 62
     7
370
    15
100
AcDbLine
 10
77.2059930802
 20
54.9146142918
 30
0.0
 11
77.1010718204
 21
54.9146142918
 31
0.0
  0
LINE
  5
309
330
1F
100
AcDbEntity
  8
0
  6
Continuous
 62
     7
370
    15
100
AcDbLine
 10
77.1010718204
 20
54.9146142918
 30
0.0
 11
77.1010718204
 21
54.7094213784
 31
0.0
  0
LINE
  5
30A
330
1F
100
AcDbEntity
  8
0
  6
Continuous
 62
     7
370
    15
100
AcDbLine
 10
77.1010718204
 20
54.7094213784
 30
0.0
 11
77.2059930802
 21
54.7096418509
 31
0.0
  0
LINE
  5
30B
330
1F
100
AcDbEntity
  8
0
  6
Continuous
 62
     7
370
    15
100
AcDbLine
 10
76.7124689635
 20
53.9505833856
 30
0.0
 11
76.7124689635
 21
54.1555518895
 31
0.0
  0
LINE
  5
30C
330
1F
100
AcDbEntity
  8
0
  6
Continuous
 62
     7
370
    15
100
AcDbLine
 10
76.7124689635
 20
54.1555518895
 30
0.0
 11
76.6075083336
 21
54.1555518895
 31
0.0
  0
LINE
  5
30D
330
1F
100
AcDbEntity
  8
0
  6
Continuous
 62
     7
370
    15
100
AcDbLine
 10
76.6075083336
 20
54.1555518895
 30
0.0
 11
76.6075083336
 21
53.9503668502
 31
0.0
  0
LINE
  5
30E
330
1F
100
AcDbEntity
  8
0
  6
Continuous
 62
     7
370
    15
100
AcDbLine
 10
76.6075083336
 20
53.9503668502
 30
0.0
 11
76.7124689635
 21
53.9505833856
 31
0.0
  0
LINE
  5
30F
330
1F
100
AcDbEntity
  8
0
  6
Continuous
 62
     7
370
    15
100
AcDbLine
 10
74.1251072534
 20
53.6104546462
 30
0.0
 11
74.0384930802
 21
53.6104546462
 31
0.0
  0
LINE
  5
310
330
1F
100
AcDbEntity
  8
0
  6
Continuous
 62
     7
370
    15
100
AcDbLine
 10
74.0384930802
 20
53.6104546462
 30
0.0
 11
74.0384930802
 21
53.5238404729
 31
0.0
  0
LINE
  5
311
330
1F
100
AcDbEntity
  8
0
  6
Continuous
 62
     7
370
    15
100
AcDbLine
 10
74.0384930802
 20
53.5238404729
 30
0.0
 11
74.1251072534
 21
53.5238404729
 31
0.0
  0
LINE
  5
312
330
1F
100
AcDbEntity
  8
0
  6
Continuous
 62
     7
370
    15
100
AcDbLine
 10
74.1251072534
 20
53.5238404729
 30
0.0
 11
74.1251072534
 21
53.6104546462
 31
0.0
  0
LINE
  5
313
330
1F
100
AcDbEntity
  8
0
  6
Continuous
 62
     7
370
    15
100
AcDbLine
 10
74.5089655212
 20
53.5238404729
 30
0.0
 11
74.5955796944
 21
53.5238404729
 31
0.0
  0
LINE
  5
314
330
1F
100
AcDbEntity
  8
0
  6
Continuous
 62
     7
370
    15
100
AcDbLine
 10
74.5955796944
 20
53.5238404729
 30
0.0
 11
74.5955796944
 21
53.6104546462
 31
0.0
  0
LINE
  5
315
330
1F
100
AcDbEntity
  8
0
  6
Continuous
 62
     7
370
    15
100
AcDbLine
 10
74.5955796944
 20
53.6104546462
 30
0.0
 11
74.5089655212
 21
53.6104546462
 31
0.0
  0
LINE
  5
316
330
1F
100
AcDbEntity
  8
0
  6
Continuous
 62
     7
370
    15
100
AcDbLine
 10
74.5089655212
 20
53.6104546462
 30
0.0
 11
74.5089655212
 21
53.5238404729
 31
0.0
  0
LINE
  5
317
330
1F
100
AcDbEntity
  8
0
  6
Continuous
 62
     7
370
    15
100
AcDbLine
 10
71.7294379621
 20
53.5238404729
 30
0.0
 11
71.8160521353
 21
53.5238404729
 31
0.0
  0
LINE
  5
318
330
1F
100
AcDbEntity
  8
0
  6
Continuous
 62
     7
370
    15
100
AcDbLine
 10
71.8160521353
 20
53.5238404729
 30
0.0
 11
71.8160521353
 21
53.6104546462
 31
0.0
  0
LINE
  5
319
330
1F
100
AcDbEntity
  8
0
  6
Continuous
 62
     7
370
    15
100
AcDbLine
 10
71.8160521353
 20
53.6104546462
 30
0.0
 11
71.7294379621
 21
53.6104546462
 31
0.0
  0
LINE
  5
31A
330
1F
100
AcDbEntity
  8
0
  6
Continuous
 62
     7
370
    15
100
AcDbLine
 10
71.7294379621
 20
53.6104546462
 30
0.0
 11
71.7294379621
 21
53.5238404729
 31
0.0
  0
LINE
  5
31B
330
1F
100
AcDbEntity
  8
0
  6
Continuous
 62
     7
370
    15
100
AcDbLine
 10
71.3455796944
 20
53.6104546462
 30
0.0
 11
71.2589655212
 21
53.6104546462
 31
0.0
  0
LINE
  5
31C
330
1F
100
AcDbEntity
  8
0
  6
Continuous
 62
     7
370
    15
100
AcDbLine
 10
71.2589655212
 20
53.6104546462
 30
0.0
 11
71.2589655212
 21
53.5238404729
 31
0.0
  0
LINE
  5
31D
330
1F
100
AcDbEntity
  8
0
  6
Continuous
 62
     7
370
    15
100
AcDbLine
 10
71.2589655212
 20
53.5238404729
 30
0.0
 11
71.3455796944
 21
53.5238404729
 31
0.0
  0
LINE
  5
31E
330
1F
100
AcDbEntity
  8
0
  6
Continuous
 62
     7
370
    15
100
AcDbLine
 10
71.3455796944
 20
53.5238404729
 30
0.0
 11
71.3455796944
 21
53.6104546462
 31
0.0
  0
LINE
  5
31F
330
1F
100
AcDbEntity
  8
0
  6
Continuous
 62
     7
370
    15
100
AcDbLine
 10
80.3076466235
 20
57.2526713784
 30
0.0
 11
80.9218592219
 21
57.2526713784
 31
0.0
  0
LINE
  5
320
330
1F
100
AcDbEntity
  8
0
  6
Continuous
 62
     7
370
    15
100
AcDbLine
 10
80.9218592219
 20
57.2526713784
 30
0.0
 11
80.9218592219
 21
57.7566477564
 31
0.0
  0
LINE
  5
321
330
1F
100
AcDbEntity
  8
0
  6
Continuous
 62
     7
370
    15
100
AcDbLine
 10
80.9218592219
 20
57.7566477564
 30
0.0
 11
80.3076466235
 21
57.7566477564
 31
0.0
  0
LINE
  5
322
330
1F
100
AcDbEntity
  8
0
  6
Continuous
 62
     7
370
    15
100
AcDbLine
 10
80.3076466235
 20
57.7566477564
 30
0.0
 11
80.3076466235
 21
57.2526713784
 31
0.0
  0
LINE
  5
323
330
1F
100
AcDbEntity
  8
0
  6
Continuous
 62
     7
370
    15
100
AcDbLine
 10
79.5576466235
 20
57.2526713784
 30
0.0
 11
80.1718592219
 21
57.2526713784
 31
0.0
  0
LINE
  5
324
330
1F
100
AcDbEntity
  8
0
  6
Continuous
 62
     7
370
    15
100
AcDbLine
 10
80.1718592219
 20
57.2526713784
 30
0.0
 11
80.1718592219
 21
57.7566477564
 31
0.0
  0
LINE
  5
325
330
1F
100
AcDbEntity
  8
0
  6
Continuous
 62
     7
370
    15
100
AcDbLine
 10
80.1718592219
 20
57.7566477564
 30
0.0
 11
79.5576466235
 21
57.7566477564
 31
0.0
  0
LINE
  5
326
330
1F
100
AcDbEntity
  8
0
  6
Continuous
 62
     7
370
    15
100
AcDbLine
 10
79.5576466235
 20
57.7566477564
 30
0.0
 11
79.5576466235
 21
57.2526713784
 31
0.0
  0
LINE
  5
327
330
1F
100
AcDbEntity
  8
0
  6
Continuous
 62
     7
370
    15
100
AcDbLine
 10
78.8076466235
 20
57.2526713784
 30
0.0
 11
79.4218592219
 21
57.2526713784
 31
0.0
  0
LINE
  5
328
330
1F
100
AcDbEntity
  8
0
  6
Continuous
 62
     7
370
    15
100
AcDbLine
 10
79.4218592219
 20
57.2526713784
 30
0.0
 11
79.4218592219
 21
57.7566477564
 31
0.0
  0
LINE
  5
329
330
1F
100
AcDbEntity
  8
0
  6
Continuous
 62
     7
370
    15
100
AcDbLine
 10
79.4218592219
 20
57.7566477564
 30
0.0
 11
78.8076466235
 21
57.7566477564
 31
0.0
  0
LINE
  5
32A
330
1F
100
AcDbEntity
  8
0
  6
Continuous
 62
     7
370
    15
100
AcDbLine
 10
78.8076466235
 20
57.7566477564
 30
0.0
 11
78.8076466235
 21
57.2526713784
 31
0.0
  0
LINE
  5
32B
330
1F
100
AcDbEntity
  8
0
  6
Continuous
 62
     7
370
    15
100
AcDbLine
 10
77.8702056786
 20
57.2526713784
 30
0.0
 11
78.4843395369
 21
57.2526713784
 31
0.0
  0
LINE
  5
32C
330
1F
100
AcDbEntity
  8
0
  6
Continuous
 62
     7
370
    15
100
AcDbLine
 10
78.4843395369
 20
57.2526713784
 30
0.0
 11
78.4843395369
 21
57.7566477564
 31
0.0
  0
LINE
  5
32D
330
1F
100
AcDbEntity
  8
0
  6
Continuous
 62
     7
370
    15
100
AcDbLine
 10
78.4843395369
 20
57.7566477564
 30
0.0
 11
77.8702056786
 21
57.7566477564
 31
0.0
  0
LINE
  5
32E
330
1F
100
AcDbEntity
  8
0
  6
Continuous
 62
     7
370
    15
100
AcDbLine
 10
77.8702056786
 20
57.7566477564
 30
0.0
 11
77.8702056786
 21
57.2526713784
 31
0.0
  0
LINE
  5
32F
330
1F
100
AcDbEntity
  8
0
  6
Continuous
 62
     7
370
    15
100
AcDbLine
 10
77.1202056786
 20
57.2526713784
 30
0.0
 11
77.7343395369
 21
57.2526713784
 31
0.0
  0
LINE
  5
330
330
1F
100
AcDbEntity
  8
0
  6
Continuous
 62
     7
370
    15
100
AcDbLine
 10
77.7343395369
 20
57.2526713784
 30
0.0
 11
77.7343395369
 21
57.7566477564
 31
0.0
  0
LINE
  5
331
330
1F
100
AcDbEntity
  8
0
  6
Continuous
 62
     7
370
    15
100
AcDbLine
 10
77.7343395369
 20
57.7566477564
 30
0.0
 11
77.1202056786
 21
57.7566477564
 31
0.0
  0
LINE
  5
332
330
1F
100
AcDbEntity
  8
0
  6
Continuous
 62
     7
370
    15
100
AcDbLine
 10
77.1202056786
 20
57.7566477564
 30
0.0
 11
77.1202056786
 21
57.2526713784
 31
0.0
  0
LINE
  5
333
330
1F
100
AcDbEntity
  8
0
  6
Continuous
 62
     7
370
    15
100
AcDbLine
 10
76.3702056786
 20
57.2526713784
 30
0.0
 11
76.9843395369
 21
57.2526713784
 31
0.0
  0
LINE
  5
334
330
1F
100
AcDbEntity
  8
0
  6
Continuous
 62
     7
370
    15
100
AcDbLine
 10
76.9843395369
 20
57.2526713784
 30
0.0
 11
76.9843395369
 21
57.7566477564
 31
0.0
  0
LINE
  5
335
330
1F
100
AcDbEntity
  8
0
  6
Continuous
 62
     7
370
    15
100
AcDbLine
 10
76.9843395369
 20
57.7566477564
 30
0.0
 11
76.3702056786
 21
57.7566477564
 31
0.0
  0
LINE
  5
336
330
1F
100
AcDbEntity
  8
0
  6
Continuous
 62
     7
370
    15
100
AcDbLine
 10
76.3702056786
 20
57.7566477564
 30
0.0
 11
76.3702056786
 21
57.2526713784
 31
0.0
  0
LINE
  5
337
330
1F
100
AcDbEntity
  8
0
  6
Continuous
 62
     7
370
    15
100
AcDbLine
 10
75.6202056786
 20
57.2526713784
 30
0.0
 11
76.2343395369
 21
57.2526713784
 31
0.0
  0
LINE
  5
338
330
1F
100
AcDbEntity
  8
0
  6
Continuous
 62
     7
370
    15
100
AcDbLine
 10
76.2343395369
 20
57.2526713784
 30
0.0
 11
76.2343395369
 21
57.7566477564
 31
0.0
  0
LINE
  5
339
330
1F
100
AcDbEntity
  8
0
  6
Continuous
 62
     7
370
    15
100
AcDbLine
 10
76.2343395369
 20
57.7566477564
 30
0.0
 11
75.6202056786
 21
57.7566477564
 31
0.0
  0
LINE
  5
33A
330
1F
100
AcDbEntity
  8
0
  6
Continuous
 62
     7
370
    15
100
AcDbLine
 10
75.6202056786
 20
57.7566477564
 30
0.0
 11
75.6202056786
 21
57.2526713784
 31
0.0
  0
LINE
  5
33B
330
1F
100
AcDbEntity
  8
0
  6
Continuous
 62
     7
370
    15
100
AcDbLine
 10
74.4952056786
 20
57.2526713784
 30
0.0
 11
75.1093395369
 21
57.2526713784
 31
0.0
  0
LINE
  5
33C
330
1F
100
AcDbEntity
  8
0
  6
Continuous
 62
     7
370
    15
100
AcDbLine
 10
75.1093395369
 20
57.2526713784
 30
0.0
 11
75.1093395369
 21
57.7566477564
 31
0.0
  0
LINE
  5
33D
330
1F
100
AcDbEntity
  8
0
  6
Continuous
 62
     7
370
    15
100
AcDbLine
 10
75.1093395369
 20
57.7566477564
 30
0.0
 11
74.4952056786
 21
57.7566477564
 31
0.0
  0
LINE
  5
33E
330
1F
100
AcDbEntity
  8
0
  6
Continuous
 62
     7
370
    15
100
AcDbLine
 10
74.4952056786
 20
57.7566477564
 30
0.0
 11
74.4952056786
 21
57.2526713784
 31
0.0
  0
LINE
  5
33F
330
1F
100
AcDbEntity
  8
0
  6
Continuous
 62
     7
370
    15
100
AcDbLine
 10
73.7452056786
 20
57.2526713784
 30
0.0
 11
74.3593395369
 21
57.2526713784
 31
0.0
  0
LINE
  5
340
330
1F
100
AcDbEntity
  8
0
  6
Continuous
 62
     7
370
    15
100
AcDbLine
 10
74.3593395369
 20
57.2526713784
 30
0.0
 11
74.3593395369
 21
57.7566477564
 31
0.0
  0
LINE
  5
341
330
1F
100
AcDbEntity
  8
0
  6
Continuous
 62
     7
370
    15
100
AcDbLine
 10
74.3593395369
 20
57.7566477564
 30
0.0
 11
73.7452056786
 21
57.7566477564
 31
0.0
  0
LINE
  5
342
330
1F
100
AcDbEntity
  8
0
  6
Continuous
 62
     7
370
    15
100
AcDbLine
 10
73.7452056786
 20
57.7566477564
 30
0.0
 11
73.7452056786
 21
57.2526713784
 31
0.0
  0
LINE
  5
343
330
1F
100
AcDbEntity
  8
0
  6
Continuous
 62
     7
370
    15
100
AcDbLine
 10
72.9952056786
 20
57.2526713784
 30
0.0
 11
73.6093395369
 21
57.2526713784
 31
0.0
  0
LINE
  5
344
330
1F
100
AcDbEntity
  8
0
  6
Continuous
 62
     7
370
    15
100
AcDbLine
 10
73.6093395369
 20
57.2526713784
 30
0.0
 11
73.6093395369
 21
57.7566477564
 31
0.0
  0
LINE
  5
345
330
1F
100
AcDbEntity
  8
0
  6
Continuous
 62
     7
370
    15
100
AcDbLine
 10
73.6093395369
 20
57.7566477564
 30
0.0
 11
72.9952056786
 21
57.7566477564
 31
0.0
  0
LINE
  5
346
330
1F
100
AcDbEntity
  8
0
  6
Continuous
 62
     7
370
    15
100
AcDbLine
 10
72.9952056786
 20
57.7566477564
 30
0.0
 11
72.9952056786
 21
57.2526713784
 31
0.0
  0
LINE
  5
347
330
1F
100
AcDbEntity
  8
0
  6
Continuous
 62
     7
370
    15
100
AcDbLine
 10
72.2451663086
 20
57.2526713784
 30
0.0
 11
72.8593395369
 21
57.2526713784
 31
0.0
  0
LINE
  5
348
330
1F
100
AcDbEntity
  8
0
  6
Continuous
 62
     7
370
    15
100
AcDbLine
 10
72.8593395369
 20
57.2526713784
 30
0.0
 11
72.8593395369
 21
57.7566477564
 31
0.0
  0
LINE
  5
349
330
1F
100
AcDbEntity
  8
0
  6
Continuous
 62
     7
370
    15
100
AcDbLine
 10
72.8593395369
 20
57.7566477564
 30
0.0
 11
72.2451663086
 21
57.7566477564
 31
0.0
  0
LINE
  5
34A
330
1F
100
AcDbEntity
  8
0
  6
Continuous
 62
     7
370
    15
100
AcDbLine
 10
72.2451663086
 20
57.7566477564
 30
0.0
 11
72.2451663086
 21
57.2526713784
 31
0.0
  0
LINE
  5
34B
330
1F
100
AcDbEntity
  8
0
  6
Continuous
 62
     7
370
    15
100
AcDbLine
 10
71.1202017416
 20
57.2526713784
 30
0.0
 11
71.7343395369
 21
57.2526713784
 31
0.0
  0
LINE
  5
34C
330
1F
100
AcDbEntity
  8
0
  6
Continuous
 62
     7
370
    15
100
AcDbLine
 10
71.7343395369
 20
57.2526713784
 30
0.0
 11
71.7343395369
 21
57.7566477564
 31
0.0
  0
LINE
  5
34D
330
1F
100
AcDbEntity
  8
0
  6
Continuous
 62
     7
370
    15
100
AcDbLine
 10
71.7343395369
 20
57.7566477564
 30
0.0
 11
71.1202017416
 21
57.7566477564
 31
0.0
  0
LINE
  5
34E
330
1F
100
AcDbEntity
  8
0
  6
Continuous
 62
     7
370
    15
100
AcDbLine
 10
71.1202017416
 20
57.7566477564
 30
0.0
 11
71.1202017416
 21
57.2526713784
 31
0.0
  0
LINE
  5
34F
330
1F
100
AcDbEntity
  8
0
  6
Continuous
 62
     7
370
    15
100
AcDbLine
 10
70.3702017416
 20
57.2526713784
 30
0.0
 11
70.9843552849
 21
57.2526713784
 31
0.0
  0
LINE
  5
350
330
1F
100
AcDbEntity
  8
0
  6
Continuous
 62
     7
370
    15
100
AcDbLine
 10
70.9843552849
 20
57.2526713784
 30
0.0
 11
70.9843552849
 21
57.7566477564
 31
0.0
  0
LINE
  5
351
330
1F
100
AcDbEntity
  8
0
  6
Continuous
 62
     7
370
    15
100
AcDbLine
 10
70.9843552849
 20
57.7566477564
 30
0.0
 11
70.3702017416
 21
57.7566477564
 31
0.0
  0
LINE
  5
352
330
1F
100
AcDbEntity
  8
0
  6
Continuous
 62
     7
370
    15
100
AcDbLine
 10
70.3702017416
 20
57.7566477564
 30
0.0
 11
70.3702017416
 21
57.2526713784
 31
0.0
  0
LINE
  5
353
330
1F
100
AcDbEntity
  8
0
  6
Continuous
 62
     7
370
    15
100
AcDbLine
 10
69.6202017416
 20
57.2526713784
 30
0.0
 11
70.2343552849
 21
57.2526713784
 31
0.0
  0
LINE
  5
354
330
1F
100
AcDbEntity
  8
0
  6
Continuous
 62
     7
370
    15
100
AcDbLine
 10
70.2343552849
 20
57.2526713784
 30
0.0
 11
70.2343552849
 21
57.7566477564
 31
0.0
  0
LINE
  5
355
330
1F
100
AcDbEntity
  8
0
  6
Continuous
 62
     7
370
    15
100
AcDbLine
 10
70.2343552849
 20
57.7566477564
 30
0.0
 11
69.6202017416
 21
57.7566477564
 31
0.0
  0
LINE
  5
356
330
1F
100
AcDbEntity
  8
0
  6
Continuous
 62
     7
370
    15
100
AcDbLine
 10
69.6202017416
 20
57.7566477564
 30
0.0
 11
69.6202017416
 21
57.2526713784
 31
0.0
  0
LINE
  5
357
330
1F
100
AcDbEntity
  8
0
  6
Continuous
 62
     7
370
    15
100
AcDbLine
 10
68.8702017416
 20
57.2526713784
 30
0.0
 11
69.4843552849
 21
57.2526713784
 31
0.0
  0
LINE
  5
358
330
1F
100
AcDbEntity
  8
0
  6
Continuous
 62
     7
370
    15
100
AcDbLine
 10
69.4843552849
 20
57.2526713784
 30
0.0
 11
69.4843552849
 21
57.7566477564
 31
0.0
  0
LINE
  5
359
330
1F
100
AcDbEntity
  8
0
  6
Continuous
 62
     7
370
    15
100
AcDbLine
 10
69.4843552849
 20
57.7566477564
 30
0.0
 11
68.8702017416
 21
57.7566477564
 31
0.0
  0
LINE
  5
35A
330
1F
100
AcDbEntity
  8
0
  6
Continuous
 62
     7
370
    15
100
AcDbLine
 10
68.8702017416
 20
57.7566477564
 30
0.0
 11
68.8702017416
 21
57.2526713784
 31
0.0
  0
LINE
  5
35B
330
1F
100
AcDbEntity
  8
0
  6
Continuous
 62
     7
370
    15
100
AcDbLine
 10
80.3076466235
 20
56.3151713784
 30
0.0
 11
80.9218592219
 21
56.3151713784
 31
0.0
  0
LINE
  5
35C
330
1F
100
AcDbEntity
  8
0
  6
Continuous
 62
     7
370
    15
100
AcDbLine
 10
80.9218592219
 20
56.3151713784
 30
0.0
 11
80.9218592219
 21
56.8190729532
 31
0.0
  0
LINE
  5
35D
330
1F
100
AcDbEntity
  8
0
  6
Continuous
 62
     7
370
    15
100
AcDbLine
 10
80.9218592219
 20
56.8190729532
 30
0.0
 11
80.3076466235
 21
56.8190729532
 31
0.0
  0
LINE
  5
35E
330
1F
100
AcDbEntity
  8
0
  6
Continuous
 62
     7
370
    15
100
AcDbLine
 10
80.3076466235
 20
56.8190729532
 30
0.0
 11
80.3076466235
 21
56.3151713784
 31
0.0
  0
LINE
  5
35F
330
1F
100
AcDbEntity
  8
0
  6
Continuous
 62
     7
370
    15
100
AcDbLine
 10
79.5576466235
 20
56.3151713784
 30
0.0
 11
80.1718592219
 21
56.3151713784
 31
0.0
  0
LINE
  5
360
330
1F
100
AcDbEntity
  8
0
  6
Continuous
 62
     7
370
    15
100
AcDbLine
 10
80.1718592219
 20
56.3151713784
 30
0.0
 11
80.1718592219
 21
56.8190729532
 31
0.0
  0
LINE
  5
361
330
1F
100
AcDbEntity
  8
0
  6
Continuous
 62
     7
370
    15
100
AcDbLine
 10
80.1718592219
 20
56.8190729532
 30
0.0
 11
79.5576466235
 21
56.8190729532
 31
0.0
  0
LINE
  5
362
330
1F
100
AcDbEntity
  8
0
  6
Continuous
 62
     7
370
    15
100
AcDbLine
 10
79.5576466235
 20
56.8190729532
 30
0.0
 11
79.5576466235
 21
56.3151713784
 31
0.0
  0
LINE
  5
363
330
1F
100
AcDbEntity
  8
0
  6
Continuous
 62
     7
370
    15
100
AcDbLine
 10
78.8076466235
 20
56.3151713784
 30
0.0
 11
79.4218592219
 21
56.3151713784
 31
0.0
  0
LINE
  5
364
330
1F
100
AcDbEntity
  8
0
  6
Continuous
 62
     7
370
    15
100
AcDbLine
 10
79.4218592219
 20
56.3151713784
 30
0.0
 11
79.4218592219
 21
56.8190729532
 31
0.0
  0
LINE
  5
365
330
1F
100
AcDbEntity
  8
0
  6
Continuous
 62
     7
370
    15
100
AcDbLine
 10
79.4218592219
 20
56.8190729532
 30
0.0
 11
78.8076466235
 21
56.8190729532
 31
0.0
  0
LINE
  5
366
330
1F
100
AcDbEntity
  8
0
  6
Continuous
 62
     7
370
    15
100
AcDbLine
 10
78.8076466235
 20
56.8190729532
 30
0.0
 11
78.8076466235
 21
56.3151713784
 31
0.0
  0
LINE
  5
367
330
1F
100
AcDbEntity
  8
0
  6
Continuous
 62
     7
370
    15
100
AcDbLine
 10
77.4952056786
 20
56.3151713784
 30
0.0
 11
78.1093395369
 21
56.3151713784
 31
0.0
  0
LINE
  5
368
330
1F
100
AcDbEntity
  8
0
  6
Continuous
 62
     7
370
    15
100
AcDbLine
 10
78.1093395369
 20
56.3151713784
 30
0.0
 11
78.1093395369
 21
56.8190729532
 31
0.0
  0
LINE
  5
369
330
1F
100
AcDbEntity
  8
0
  6
Continuous
 62
     7
370
    15
100
AcDbLine
 10
78.1093395369
 20
56.8190729532
 30
0.0
 11
77.4952056786
 21
56.8190729532
 31
0.0
  0
LINE
  5
36A
330
1F
100
AcDbEntity
  8
0
  6
Continuous
 62
     7
370
    15
100
AcDbLine
 10
77.4952056786
 20
56.8190729532
 30
0.0
 11
77.4952056786
 21
56.3151713784
 31
0.0
  0
LINE
  5
36B
330
1F
100
AcDbEntity
  8
0
  6
Continuous
 62
     7
370
    15
100
AcDbLine
 10
76.3702056786
 20
56.3151713784
 30
0.0
 11
76.9843395369
 21
56.3151713784
 31
0.0
  0
LINE
  5
36C
330
1F
100
AcDbEntity
  8
0
  6
Continuous
 62
     7
370
    15
100
AcDbLine
 10
76.9843395369
 20
56.3151713784
 30
0.0
 11
76.9843395369
 21
56.8190729532
 31
0.0
  0
LINE
  5
36D
330
1F
100
AcDbEntity
  8
0
  6
Continuous
 62
     7
370
    15
100
AcDbLine
 10
76.9843395369
 20
56.8190729532
 30
0.0
 11
76.3702056786
 21
56.8190729532
 31
0.0
  0
LINE
  5
36E
330
1F
100
AcDbEntity
  8
0
  6
Continuous
 62
     7
370
    15
100
AcDbLine
 10
76.3702056786
 20
56.8190729532
 30
0.0
 11
76.3702056786
 21
56.3151713784
 31
0.0
  0
LINE
  5
36F
330
1F
100
AcDbEntity
  8
0
  6
Continuous
 62
     7
370
    15
100
AcDbLine
 10
75.6202056786
 20
56.3151713784
 30
0.0
 11
76.2343395369
 21
56.3151713784
 31
0.0
  0
LINE
  5
370
330
1F
100
AcDbEntity
  8
0
  6
Continuous
 62
     7
370
    15
100
AcDbLine
 10
76.2343395369
 20
56.3151713784
 30
0.0
 11
76.2343395369
 21
56.8190729532
 31
0.0
  0
LINE
  5
371
330
1F
100
AcDbEntity
  8
0
  6
Continuous
 62
     7
370
    15
100
AcDbLine
 10
76.2343395369
 20
56.8190729532
 30
0.0
 11
75.6202056786
 21
56.8190729532
 31
0.0
  0
LINE
  5
372
330
1F
100
AcDbEntity
  8
0
  6
Continuous
 62
     7
370
    15
100
AcDbLine
 10
75.6202056786
 20
56.8190729532
 30
0.0
 11
75.6202056786
 21
56.3151713784
 31
0.0
  0
LINE
  5
373
330
1F
100
AcDbEntity
  8
0
  6
Continuous
 62
     7
370
    15
100
AcDbLine
 10
74.8702056786
 20
56.3151713784
 30
0.0
 11
75.4843395369
 21
56.3151713784
 31
0.0
  0
LINE
  5
374
330
1F
100
AcDbEntity
  8
0
  6
Continuous
 62
     7
370
    15
100
AcDbLine
 10
75.4843395369
 20
56.3151713784
 30
0.0
 11
75.4843395369
 21
56.8190729532
 31
0.0
  0
LINE
  5
375
330
1F
100
AcDbEntity
  8
0
  6
Continuous
 62
     7
370
    15
100
AcDbLine
 10
75.4843395369
 20
56.8190729532
 30
0.0
 11
74.8702056786
 21
56.8190729532
 31
0.0
  0
LINE
  5
376
330
1F
100
AcDbEntity
  8
0
  6
Continuous
 62
     7
370
    15
100
AcDbLine
 10
74.8702056786
 20
56.8190729532
 30
0.0
 11
74.8702056786
 21
56.3151713784
 31
0.0
  0
LINE
  5
377
330
1F
100
AcDbEntity
  8
0
  6
Continuous
 62
     7
370
    15
100
AcDbLine
 10
74.1202056786
 20
56.3151713784
 30
0.0
 11
74.7343395369
 21
56.3151713784
 31
0.0
  0
LINE
  5
378
330
1F
100
AcDbEntity
  8
0
  6
Continuous
 62
     7
370
    15
100
AcDbLine
 10
74.7343395369
 20
56.3151713784
 30
0.0
 11
74.7343395369
 21
56.8190729532
 31
0.0
  0
LINE
  5
379
330
1F
100
AcDbEntity
  8
0
  6
Continuous
 62
     7
370
    15
100
AcDbLine
 10
74.7343395369
 20
56.8190729532
 30
0.0
 11
74.1202056786
 21
56.8190729532
 31
0.0
  0
LINE
  5
37A
330
1F
100
AcDbEntity
  8
0
  6
Continuous
 62
     7
370
    15
100
AcDbLine
 10
74.1202056786
 20
56.8190729532
 30
0.0
 11
74.1202056786
 21
56.3151713784
 31
0.0
  0
LINE
  5
37B
330
1F
100
AcDbEntity
  8
0
  6
Continuous
 62
     7
370
    15
100
AcDbLine
 10
73.3702056786
 20
56.3151713784
 30
0.0
 11
73.9843395369
 21
56.3151713784
 31
0.0
  0
LINE
  5
37C
330
1F
100
AcDbEntity
  8
0
  6
Continuous
 62
     7
370
    15
100
AcDbLine
 10
73.9843395369
 20
56.3151713784
 30
0.0
 11
73.9843395369
 21
56.8190729532
 31
0.0
  0
LINE
  5
37D
330
1F
100
AcDbEntity
  8
0
  6
Continuous
 62
     7
370
    15
100
AcDbLine
 10
73.9843395369
 20
56.8190729532
 30
0.0
 11
73.3702056786
 21
56.8190729532
 31
0.0
  0
LINE
  5
37E
330
1F
100
AcDbEntity
  8
0
  6
Continuous
 62
     7
370
    15
100
AcDbLine
 10
73.3702056786
 20
56.8190729532
 30
0.0
 11
73.3702056786
 21
56.3151713784
 31
0.0
  0
LINE
  5
37F
330
1F
100
AcDbEntity
  8
0
  6
Continuous
 62
     7
370
    15
100
AcDbLine
 10
72.6202056786
 20
56.3151713784
 30
0.0
 11
73.2343395369
 21
56.3151713784
 31
0.0
  0
LINE
  5
380
330
1F
100
AcDbEntity
  8
0
  6
Continuous
 62
     7
370
    15
100
AcDbLine
 10
73.2343395369
 20
56.3151713784
 30
0.0
 11
73.2343395369
 21
56.8190729532
 31
0.0
  0
LINE
  5
381
330
1F
100
AcDbEntity
  8
0
  6
Continuous
 62
     7
370
    15
100
AcDbLine
 10
73.2343395369
 20
56.8190729532
 30
0.0
 11
72.6202056786
 21
56.8190729532
 31
0.0
  0
LINE
  5
382
330
1F
100
AcDbEntity
  8
0
  6
Continuous
 62
     7
370
    15
100
AcDbLine
 10
72.6202056786
 20
56.8190729532
 30
0.0
 11
72.6202056786
 21
56.3151713784
 31
0.0
  0
LINE
  5
383
330
1F
100
AcDbEntity
  8
0
  6
Continuous
 62
     7
370
    15
100
AcDbLine
 10
71.8701663086
 20
56.3151713784
 30
0.0
 11
72.4843395369
 21
56.3151713784
 31
0.0
  0
LINE
  5
384
330
1F
100
AcDbEntity
  8
0
  6
Continuous
 62
     7
370
    15
100
AcDbLine
 10
72.4843395369
 20
56.3151713784
 30
0.0
 11
72.4843395369
 21
56.8190729532
 31
0.0
  0
LINE
  5
385
330
1F
100
AcDbEntity
  8
0
  6
Continuous
 62
     7
370
    15
100
AcDbLine
 10
72.4843395369
 20
56.8190729532
 30
0.0
 11
71.8701663086
 21
56.8190729532
 31
0.0
  0
LINE
  5
386
330
1F
100
AcDbEntity
  8
0
  6
Continuous
 62
     7
370
    15
100
AcDbLine
 10
71.8701663086
 20
56.8190729532
 30
0.0
 11
71.8701663086
 21
56.3151713784
 31
0.0
  0
LINE
  5
387
330
1F
100
AcDbEntity
  8
0
  6
Continuous
 62
     7
370
    15
100
AcDbLine
 10
71.1202017416
 20
56.3151713784
 30
0.0
 11
71.7343395369
 21
56.3151713784
 31
0.0
  0
LINE
  5
388
330
1F
100
AcDbEntity
  8
0
  6
Continuous
 62
     7
370
    15
100
AcDbLine
 10
71.7343395369
 20
56.3151713784
 30
0.0
 11
71.7343395369
 21
56.8190729532
 31
0.0
  0
LINE
  5
389
330
1F
100
AcDbEntity
  8
0
  6
Continuous
 62
     7
370
    15
100
AcDbLine
 10
71.7343395369
 20
56.8190729532
 30
0.0
 11
71.1202017416
 21
56.8190729532
 31
0.0
  0
LINE
  5
38A
330
1F
100
AcDbEntity
  8
0
  6
Continuous
 62
     7
370
    15
100
AcDbLine
 10
71.1202017416
 20
56.8190729532
 30
0.0
 11
71.1202017416
 21
56.3151713784
 31
0.0
  0
LINE
  5
38B
330
1F
100
AcDbEntity
  8
0
  6
Continuous
 62
     7
370
    15
100
AcDbLine
 10
70.3702017416
 20
56.3151713784
 30
0.0
 11
70.9843552849
 21
56.3151713784
 31
0.0
  0
LINE
  5
38C
330
1F
100
AcDbEntity
  8
0
  6
Continuous
 62
     7
370
    15
100
AcDbLine
 10
70.9843552849
 20
56.3151713784
 30
0.0
 11
70.9843552849
 21
56.8190729532
 31
0.0
  0
LINE
  5
38D
330
1F
100
AcDbEntity
  8
0
  6
Continuous
 62
     7
370
    15
100
AcDbLine
 10
70.9843552849
 20
56.8190729532
 30
0.0
 11
70.3702017416
 21
56.8190729532
 31
0.0
  0
LINE
  5
38E
330
1F
100
AcDbEntity
  8
0
  6
Continuous
 62
     7
370
    15
100
AcDbLine
 10
70.3702017416
 20
56.8190729532
 30
0.0
 11
70.3702017416
 21
56.3151713784
 31
0.0
  0
LINE
  5
38F
330
1F
100
AcDbEntity
  8
0
  6
Continuous
 62
     7
370
    15
100
AcDbLine
 10
69.6202017416
 20
56.3151713784
 30
0.0
 11
70.2343552849
 21
56.3151713784
 31
0.0
  0
LINE
  5
390
330
1F
100
AcDbEntity
  8
0
  6
Continuous
 62
     7
370
    15
100
AcDbLine
 10
70.2343552849
 20
56.3151713784
 30
0.0
 11
70.2343552849
 21
56.8190729532
 31
0.0
  0
LINE
  5
391
330
1F
100
AcDbEntity
  8
0
  6
Continuous
 62
     7
370
    15
100
AcDbLine
 10
70.2343552849
 20
56.8190729532
 30
0.0
 11
69.6202017416
 21
56.8190729532
 31
0.0
  0
LINE
  5
392
330
1F
100
AcDbEntity
  8
0
  6
Continuous
 62
     7
370
    15
100
AcDbLine
 10
69.6202017416
 20
56.8190729532
 30
0.0
 11
69.6202017416
 21
56.3151713784
 31
0.0
  0
LINE
  5
393
330
1F
100
AcDbEntity
  8
0
  6
Continuous
 62
     7
370
    15
100
AcDbLine
 10
68.8702017416
 20
56.3151713784
 30
0.0
 11
69.4843552849
 21
56.3151713784
 31
0.0
  0
LINE
  5
394
330
1F
100
AcDbEntity
  8
0
  6
Continuous
 62
     7
370
    15
100
AcDbLine
 10
69.4843552849
 20
56.3151713784
 30
0.0
 11
69.4843552849
 21
56.8190729532
 31
0.0
  0
LINE
  5
395
330
1F
100
AcDbEntity
  8
0
  6
Continuous
 62
     7
370
    15
100
AcDbLine
 10
69.4843552849
 20
56.8190729532
 30
0.0
 11
68.8702017416
 21
56.8190729532
 31
0.0
  0
LINE
  5
396
330
1F
100
AcDbEntity
  8
0
  6
Continuous
 62
     7
370
    15
100
AcDbLine
 10
68.8702017416
 20
56.8190729532
 30
0.0
 11
68.8702017416
 21
56.3151713784
 31
0.0
  0
LINE
  5
397
330
1F
100
AcDbEntity
  8
0
  6
Continuous
 62
     7
370
    15
100
AcDbLine
 10
68.1202056786
 20
56.3151713784
 30
0.0
 11
68.7343552849
 21
56.3151713784
 31
0.0
  0
LINE
  5
398
330
1F
100
AcDbEntity
  8
0
  6
Continuous
 62
     7
370
    15
100
AcDbLine
 10
68.7343552849
 20
56.3151713784
 30
0.0
 11
68.7343552849
 21
56.8190729532
 31
0.0
  0
LINE
  5
399
330
1F
100
AcDbEntity
  8
0
  6
Continuous
 62
     7
370
    15
100
AcDbLine
 10
68.7343552849
 20
56.8190729532
 30
0.0
 11
68.1202056786
 21
56.8190729532
 31
0.0
  0
LINE
  5
39A
330
1F
100
AcDbEntity
  8
0
  6
Continuous
 62
     7
370
    15
100
AcDbLine
 10
68.1202056786
 20
56.8190729532
 30
0.0
 11
68.1202056786
 21
56.3151713784
 31
0.0
  0
LINE
  5
39B
330
1F
100
AcDbEntity
  8
0
  6
Continuous
 62
     7
370
    15
100
AcDbLine
 10
67.3702060723
 20
56.3151713784
 30
0.0
 11
67.9843552849
 21
56.3151713784
 31
0.0
  0
LINE
  5
39C
330
1F
100
AcDbEntity
  8
0
  6
Continuous
 62
     7
370
    15
100
AcDbLine
 10
67.9843552849
 20
56.3151713784
 30
0.0
 11
67.9843552849
 21
56.8190729532
 31
0.0
  0
LINE
  5
39D
330
1F
100
AcDbEntity
  8
0
  6
Continuous
 62
     7
370
    15
100
AcDbLine
 10
67.9843552849
 20
56.8190729532
 30
0.0
 11
67.3702060723
 21
56.8190729532
 31
0.0
  0
LINE
  5
39E
330
1F
100
AcDbEntity
  8
0
  6
Continuous
 62
     7
370
    15
100
AcDbLine
 10
67.3702060723
 20
56.8190729532
 30
0.0
 11
67.3702060723
 21
56.3151713784
 31
0.0
  0
LINE
  5
39F
330
1F
100
AcDbEntity
  8
0
  6
Continuous
 62
     7
370
    15
100
AcDbLine
 10
68.6484714267
 20
53.9596438194
 30
0.0
 11
68.7534596156
 21
53.9596438194
 31
0.0
  0
LINE
  5
3A0
330
1F
100
AcDbEntity
  8
0
  6
Continuous
 62
     7
370
    15
100
AcDbLine
 10
68.7534596156
 20
53.9596438194
 30
0.0
 11
68.7534596156
 21
54.1646123233
 31
0.0
  0
LINE
  5
3A1
330
1F
100
AcDbEntity
  8
0
  6
Continuous
 62
     7
370
    15
100
AcDbLine
 10
68.7534596156
 20
54.1646123233
 30
0.0
 11
68.6484714267
 21
54.1646123233
 31
0.0
  0
LINE
  5
3A2
330
1F
100
AcDbEntity
  8
0
  6
Continuous
 62
     7
370
    15
100
AcDbLine
 10
68.6484714267
 20
54.1646123233
 30
0.0
 11
68.6484714267
 21
53.9596438194
 31
0.0
  0
LINE
  5
3A3
330
1F
100
AcDbEntity
  8
0
  6
Continuous
 62
     7
370
    15
100
AcDbLine
 10
80.3076466235
 20
55.5651713784
 30
0.0
 11
80.9218592219
 21
55.5651713784
 31
0.0
  0
LINE
  5
3A4
330
1F
100
AcDbEntity
  8
0
  6
Continuous
 62
     7
370
    15
100
AcDbLine
 10
80.9218592219
 20
55.5651713784
 30
0.0
 11
80.9218592219
 21
56.0690729532
 31
0.0
  0
LINE
  5
3A5
330
1F
100
AcDbEntity
  8
0
  6
Continuous
 62
     7
370
    15
100
AcDbLine
 10
80.9218592219
 20
56.0690729532
 30
0.0
 11
80.3076466235
 21
56.0690729532
 31
0.0
  0
LINE
  5
3A6
330
1F
100
AcDbEntity
  8
0
  6
Continuous
 62
     7
370
    15
100
AcDbLine
 10
80.3076466235
 20
56.0690729532
 30
0.0
 11
80.3076466235
 21
55.5651713784
 31
0.0
  0
LINE
  5
3A7
330
1F
100
AcDbEntity
  8
0
  6
Continuous
 62
     7
370
    15
100
AcDbLine
 10
79.5576466235
 20
55.5651713784
 30
0.0
 11
80.1718592219
 21
55.5651713784
 31
0.0
  0
LINE
  5
3A8
330
1F
100
AcDbEntity
  8
0
  6
Continuous
 62
     7
370
    15
100
AcDbLine
 10
80.1718592219
 20
55.5651713784
 30
0.0
 11
80.1718592219
 21
56.0690729532
 31
0.0
  0
LINE
  5
3A9
330
1F
100
AcDbEntity
  8
0
  6
Continuous
 62
     7
370
    15
100
AcDbLine
 10
80.1718592219
 20
56.0690729532
 30
0.0
 11
79.5576466235
 21
56.0690729532
 31
0.0
  0
LINE
  5
3AA
330
1F
100
AcDbEntity
  8
0
  6
Continuous
 62
     7
370
    15
100
AcDbLine
 10
79.5576466235
 20
56.0690729532
 30
0.0
 11
79.5576466235
 21
55.5651713784
 31
0.0
  0
LINE
  5
3AB
330
1F
100
AcDbEntity
  8
0
  6
Continuous
 62
     7
370
    15
100
AcDbLine
 10
78.8076466235
 20
55.5651713784
 30
0.0
 11
79.4218592219
 21
55.5651713784
 31
0.0
  0
LINE
  5
3AC
330
1F
100
AcDbEntity
  8
0
  6
Continuous
 62
     7
370
    15
100
AcDbLine
 10
79.4218592219
 20
55.5651713784
 30
0.0
 11
79.4218592219
 21
56.0690729532
 31
0.0
  0
LINE
  5
3AD
330
1F
100
AcDbEntity
  8
0
  6
Continuous
 62
     7
370
    15
100
AcDbLine
 10
79.4218592219
 20
56.0690729532
 30
0.0
 11
78.8076466235
 21
56.0690729532
 31
0.0
  0
LINE
  5
3AE
330
1F
100
AcDbEntity
  8
0
  6
Continuous
 62
     7
370
    15
100
AcDbLine
 10
78.8076466235
 20
56.0690729532
 30
0.0
 11
78.8076466235
 21
55.5651713784
 31
0.0
  0
LINE
  5
3AF
330
1F
100
AcDbEntity
  8
0
  6
Continuous
 62
     7
370
    15
100
AcDbLine
 10
77.6826466235
 20
55.5651713784
 30
0.0
 11
78.2968592219
 21
55.5651713784
 31
0.0
  0
LINE
  5
3B0
330
1F
100
AcDbEntity
  8
0
  6
Continuous
 62
     7
370
    15
100
AcDbLine
 10
78.2968592219
 20
55.5651713784
 30
0.0
 11
78.2968592219
 21
56.0690729532
 31
0.0
  0
LINE
  5
3B1
330
1F
100
AcDbEntity
  8
0
  6
Continuous
 62
     7
370
    15
100
AcDbLine
 10
78.2968592219
 20
56.0690729532
 30
0.0
 11
77.6826466235
 21
56.0690729532
 31
0.0
  0
LINE
  5
3B2
330
1F
100
AcDbEntity
  8
0
  6
Continuous
 62
     7
370
    15
100
AcDbLine
 10
77.6826466235
 20
56.0690729532
 30
0.0
 11
77.6826466235
 21
55.5651713784
 31
0.0
  0
LINE
  5
3B3
330
1F
100
AcDbEntity
  8
0
  6
Continuous
 62
     7
370
    15
100
AcDbLine
 10
76.7452056786
 20
55.5651713784
 30
0.0
 11
77.3593395369
 21
55.5651713784
 31
0.0
  0
LINE
  5
3B4
330
1F
100
AcDbEntity
  8
0
  6
Continuous
 62
     7
370
    15
100
AcDbLine
 10
77.3593395369
 20
55.5651713784
 30
0.0
 11
77.3593395369
 21
56.0690729532
 31
0.0
  0
LINE
  5
3B5
330
1F
100
AcDbEntity
  8
0
  6
Continuous
 62
     7
370
    15
100
AcDbLine
 10
77.3593395369
 20
56.0690729532
 30
0.0
 11
76.7452056786
 21
56.0690729532
 31
0.0
  0
LINE
  5
3B6
330
1F
100
AcDbEntity
  8
0
  6
Continuous
 62
     7
370
    15
100
AcDbLine
 10
76.7452056786
 20
56.0690729532
 30
0.0
 11
76.7452056786
 21
55.5651713784
 31
0.0
  0
LINE
  5
3B7
330
1F
100
AcDbEntity
  8
0
  6
Continuous
 62
     7
370
    15
100
AcDbLine
 10
75.9952056786
 20
55.5651713784
 30
0.0
 11
76.6093395369
 21
55.5651713784
 31
0.0
  0
LINE
  5
3B8
330
1F
100
AcDbEntity
  8
0
  6
Continuous
 62
     7
370
    15
100
AcDbLine
 10
76.6093395369
 20
55.5651713784
 30
0.0
 11
76.6093395369
 21
56.0690729532
 31
0.0
  0
LINE
  5
3B9
330
1F
100
AcDbEntity
  8
0
  6
Continuous
 62
     7
370
    15
100
AcDbLine
 10
76.6093395369
 20
56.0690729532
 30
0.0
 11
75.9952056786
 21
56.0690729532
 31
0.0
  0
LINE
  5
3BA
330
1F
100
AcDbEntity
  8
0
  6
Continuous
 62
     7
370
    15
100
AcDbLine
 10
75.9952056786
 20
56.0690729532
 30
0.0
 11
75.9952056786
 21
55.5651713784
 31
0.0
  0
LINE
  5
3BB
330
1F
100
AcDbEntity
  8
0
  6
Continuous
 62
     7
370
    15
100
AcDbLine
 10
75.2452056786
 20
55.5651713784
 30
0.0
 11
75.8593395369
 21
55.5651713784
 31
0.0
  0
LINE
  5
3BC
330
1F
100
AcDbEntity
  8
0
  6
Continuous
 62
     7
370
    15
100
AcDbLine
 10
75.8593395369
 20
55.5651713784
 30
0.0
 11
75.8593395369
 21
56.0690729532
 31
0.0
  0
LINE
  5
3BD
330
1F
100
AcDbEntity
  8
0
  6
Continuous
 62
     7
370
    15
100
AcDbLine
 10
75.8593395369
 20
56.0690729532
 30
0.0
 11
75.2452056786
 21
56.0690729532
 31
0.0
  0
LINE
  5
3BE
330
1F
100
AcDbEntity
  8
0
  6
Continuous
 62
     7
370
    15
100
AcDbLine
 10
75.2452056786
 20
56.0690729532
 30
0.0
 11
75.2452056786
 21
55.5651713784
 31
0.0
  0
LINE
  5
3BF
330
1F
100
AcDbEntity
  8
0
  6
Continuous
 62
     7
370
    15
100
AcDbLine
 10
74.4952056786
 20
55.5651713784
 30
0.0
 11
75.1093395369
 21
55.5651713784
 31
0.0
  0
LINE
  5
3C0
330
1F
100
AcDbEntity
  8
0
  6
Continuous
 62
     7
370
    15
100
AcDbLine
 10
75.1093395369
 20
55.5651713784
 30
0.0
 11
75.1093395369
 21
56.0690729532
 31
0.0
  0
LINE
  5
3C1
330
1F
100
AcDbEntity
  8
0
  6
Continuous
 62
     7
370
    15
100
AcDbLine
 10
75.1093395369
 20
56.0690729532
 30
0.0
 11
74.4952056786
 21
56.0690729532
 31
0.0
  0
LINE
  5
3C2
330
1F
100
AcDbEntity
  8
0
  6
Continuous
 62
     7
370
    15
100
AcDbLine
 10
74.4952056786
 20
56.0690729532
 30
0.0
 11
74.4952056786
 21
55.5651713784
 31
0.0
  0
LINE
  5
3C3
330
1F
100
AcDbEntity
  8
0
  6
Continuous
 62
     7
370
    15
100
AcDbLine
 10
73.7452056786
 20
55.5651713784
 30
0.0
 11
74.3593395369
 21
55.5651713784
 31
0.0
  0
LINE
  5
3C4
330
1F
100
AcDbEntity
  8
0
  6
Continuous
 62
     7
370
    15
100
AcDbLine
 10
74.3593395369
 20
55.5651713784
 30
0.0
 11
74.3593395369
 21
56.0690729532
 31
0.0
  0
LINE
  5
3C5
330
1F
100
AcDbEntity
  8
0
  6
Continuous
 62
     7
370
    15
100
AcDbLine
 10
74.3593395369
 20
56.0690729532
 30
0.0
 11
73.7452056786
 21
56.0690729532
 31
0.0
  0
LINE
  5
3C6
330
1F
100
AcDbEntity
  8
0
  6
Continuous
 62
     7
370
    15
100
AcDbLine
 10
73.7452056786
 20
56.0690729532
 30
0.0
 11
73.7452056786
 21
55.5651713784
 31
0.0
  0
LINE
  5
3C7
330
1F
100
AcDbEntity
  8
0
  6
Continuous
 62
     7
370
    15
100
AcDbLine
 10
72.9952056786
 20
55.5651713784
 30
0.0
 11
73.6093395369
 21
55.5651713784
 31
0.0
  0
LINE
  5
3C8
330
1F
100
AcDbEntity
  8
0
  6
Continuous
 62
     7
370
    15
100
AcDbLine
 10
73.6093395369
 20
55.5651713784
 30
0.0
 11
73.6093395369
 21
56.0690729532
 31
0.0
  0
LINE
  5
3C9
330
1F
100
AcDbEntity
  8
0
  6
Continuous
 62
     7
370
    15
100
AcDbLine
 10
73.6093395369
 20
56.0690729532
 30
0.0
 11
72.9952056786
 21
56.0690729532
 31
0.0
  0
LINE
  5
3CA
330
1F
100
AcDbEntity
  8
0
  6
Continuous
 62
     7
370
    15
100
AcDbLine
 10
72.9952056786
 20
56.0690729532
 30
0.0
 11
72.9952056786
 21
55.5651713784
 31
0.0
  0
LINE
  5
3CB
330
1F
100
AcDbEntity
  8
0
  6
Continuous
 62
     7
370
    15
100
AcDbLine
 10
72.2451663086
 20
55.5651713784
 30
0.0
 11
72.8593395369
 21
55.5651713784
 31
0.0
  0
LINE
  5
3CC
330
1F
100
AcDbEntity
  8
0
  6
Continuous
 62
     7
370
    15
100
AcDbLine
 10
72.8593395369
 20
55.5651713784
 30
0.0
 11
72.8593395369
 21
56.0690729532
 31
0.0
  0
LINE
  5
3CD
330
1F
100
AcDbEntity
  8
0
  6
Continuous
 62
     7
370
    15
100
AcDbLine
 10
72.8593395369
 20
56.0690729532
 30
0.0
 11
72.2451663086
 21
56.0690729532
 31
0.0
  0
LINE
  5
3CE
330
1F
100
AcDbEntity
  8
0
  6
Continuous
 62
     7
370
    15
100
AcDbLine
 10
72.2451663086
 20
56.0690729532
 30
0.0
 11
72.2451663086
 21
55.5651713784
 31
0.0
  0
LINE
  5
3CF
330
1F
100
AcDbEntity
  8
0
  6
Continuous
 62
     7
370
    15
100
AcDbLine
 10
71.4952056786
 20
55.5651713784
 30
0.0
 11
72.1093395369
 21
55.5651713784
 31
0.0
  0
LINE
  5
3D0
330
1F
100
AcDbEntity
  8
0
  6
Continuous
 62
     7
370
    15
100
AcDbLine
 10
72.1093395369
 20
55.5651713784
 30
0.0
 11
72.1093395369
 21
56.0690729532
 31
0.0
  0
LINE
  5
3D1
330
1F
100
AcDbEntity
  8
0
  6
Continuous
 62
     7
370
    15
100
AcDbLine
 10
72.1093395369
 20
56.0690729532
 30
0.0
 11
71.4952056786
 21
56.0690729532
 31
0.0
  0
LINE
  5
3D2
330
1F
100
AcDbEntity
  8
0
  6
Continuous
 62
     7
370
    15
100
AcDbLine
 10
71.4952056786
 20
56.0690729532
 30
0.0
 11
71.4952056786
 21
55.5651713784
 31
0.0
  0
LINE
  5
3D3
330
1F
100
AcDbEntity
  8
0
  6
Continuous
 62
     7
370
    15
100
AcDbLine
 10
70.7452017416
 20
55.5651713784
 30
0.0
 11
71.3593395369
 21
55.5651713784
 31
0.0
  0
LINE
  5
3D4
330
1F
100
AcDbEntity
  8
0
  6
Continuous
 62
     7
370
    15
100
AcDbLine
 10
71.3593395369
 20
55.5651713784
 30
0.0
 11
71.3593395369
 21
56.0690729532
 31
0.0
  0
LINE
  5
3D5
330
1F
100
AcDbEntity
  8
0
  6
Continuous
 62
     7
370
    15
100
AcDbLine
 10
71.3593395369
 20
56.0690729532
 30
0.0
 11
70.7452017416
 21
56.0690729532
 31
0.0
  0
LINE
  5
3D6
330
1F
100
AcDbEntity
  8
0
  6
Continuous
 62
     7
370
    15
100
AcDbLine
 10
70.7452017416
 20
56.0690729532
 30
0.0
 11
70.7452017416
 21
55.5651713784
 31
0.0
  0
LINE
  5
3D7
330
1F
100
AcDbEntity
  8
0
  6
Continuous
 62
     7
370
    15
100
AcDbLine
 10
69.9952017416
 20
55.5651713784
 30
0.0
 11
70.6093552849
 21
55.5651713784
 31
0.0
  0
LINE
  5
3D8
330
1F
100
AcDbEntity
  8
0
  6
Continuous
 62
     7
370
    15
100
AcDbLine
 10
70.6093552849
 20
55.5651713784
 30
0.0
 11
70.6093552849
 21
56.0690729532
 31
0.0
  0
LINE
  5
3D9
330
1F
100
AcDbEntity
  8
0
  6
Continuous
 62
     7
370
    15
100
AcDbLine
 10
70.6093552849
 20
56.0690729532
 30
0.0
 11
69.9952017416
 21
56.0690729532
 31
0.0
  0
LINE
  5
3DA
330
1F
100
AcDbEntity
  8
0
  6
Continuous
 62
     7
370
    15
100
AcDbLine
 10
69.9952017416
 20
56.0690729532
 30
0.0
 11
69.9952017416
 21
55.5651713784
 31
0.0
  0
LINE
  5
3DB
330
1F
100
AcDbEntity
  8
0
  6
Continuous
 62
     7
370
    15
100
AcDbLine
 10
69.2452017416
 20
55.5651713784
 30
0.0
 11
69.8593552849
 21
55.5651713784
 31
0.0
  0
LINE
  5
3DC
330
1F
100
AcDbEntity
  8
0
  6
Continuous
 62
     7
370
    15
100
AcDbLine
 10
69.8593552849
 20
55.5651713784
 30
0.0
 11
69.8593552849
 21
56.0690729532
 31
0.0
  0
LINE
  5
3DD
330
1F
100
AcDbEntity
  8
0
  6
Continuous
 62
     7
370
    15
100
AcDbLine
 10
69.8593552849
 20
56.0690729532
 30
0.0
 11
69.2452017416
 21
56.0690729532
 31
0.0
  0
LINE
  5
3DE
330
1F
100
AcDbEntity
  8
0
  6
Continuous
 62
     7
370
    15
100
AcDbLine
 10
69.2452017416
 20
56.0690729532
 30
0.0
 11
69.2452017416
 21
55.5651713784
 31
0.0
  0
LINE
  5
3DF
330
1F
100
AcDbEntity
  8
0
  6
Continuous
 62
     7
370
    15
100
AcDbLine
 10
68.4952056786
 20
55.5651713784
 30
0.0
 11
69.1093552849
 21
55.5651713784
 31
0.0
  0
LINE
  5
3E0
330
1F
100
AcDbEntity
  8
0
  6
Continuous
 62
     7
370
    15
100
AcDbLine
 10
69.1093552849
 20
55.5651713784
 30
0.0
 11
69.1093552849
 21
56.0690729532
 31
0.0
  0
LINE
  5
3E1
330
1F
100
AcDbEntity
  8
0
  6
Continuous
 62
     7
370
    15
100
AcDbLine
 10
69.1093552849
 20
56.0690729532
 30
0.0
 11
68.4952056786
 21
56.0690729532
 31
0.0
  0
LINE
  5
3E2
330
1F
100
AcDbEntity
  8
0
  6
Continuous
 62
     7
370
    15
100
AcDbLine
 10
68.4952056786
 20
56.0690729532
 30
0.0
 11
68.4952056786
 21
55.5651713784
 31
0.0
  0
LINE
  5
3E3
330
1F
100
AcDbEntity
  8
0
  6
Continuous
 62
     7
370
    15
100
AcDbLine
 10
67.5576513479
 20
55.5651713784
 30
0.0
 11
68.1718552849
 21
55.5651713784
 31
0.0
  0
LINE
  5
3E4
330
1F
100
AcDbEntity
  8
0
  6
Continuous
 62
     7
370
    15
100
AcDbLine
 10
68.1718552849
 20
55.5651713784
 30
0.0
 11
68.1718552849
 21
56.0690729532
 31
0.0
  0
LINE
  5
3E5
330
1F
100
AcDbEntity
  8
0
  6
Continuous
 62
     7
370
    15
100
AcDbLine
 10
68.1718552849
 20
56.0690729532
 30
0.0
 11
67.5576513479
 21
56.0690729532
 31
0.0
  0
LINE
  5
3E6
330
1F
100
AcDbEntity
  8
0
  6
Continuous
 62
     7
370
    15
100
AcDbLine
 10
67.5576513479
 20
56.0690729532
 30
0.0
 11
67.5576513479
 21
55.5651713784
 31
0.0
  0
LINE
  5
3E7
330
1F
100
AcDbEntity
  8
0
  6
Continuous
 62
     7
370
    15
100
AcDbLine
 10
77.401386781
 20
54.8151713784
 30
0.0
 11
78.0155993794
 21
54.8151713784
 31
0.0
  0
LINE
  5
3E8
330
1F
100
AcDbEntity
  8
0
  6
Continuous
 62
     7
370
    15
100
AcDbLine
 10
78.0155993794
 20
54.8151713784
 30
0.0
 11
78.0155993794
 21
55.3190729532
 31
0.0
  0
LINE
  5
3E9
330
1F
100
AcDbEntity
  8
0
  6
Continuous
 62
     7
370
    15
100
AcDbLine
 10
78.0155993794
 20
55.3190729532
 30
0.0
 11
77.401386781
 21
55.3190729532
 31
0.0
  0
LINE
  5
3EA
330
1F
100
AcDbEntity
  8
0
  6
Continuous
 62
     7
370
    15
100
AcDbLine
 10
77.401386781
 20
55.3190729532
 30
0.0
 11
77.401386781
 21
54.8151713784
 31
0.0
  0
LINE
  5
3EB
330
1F
100
AcDbEntity
  8
0
  6
Continuous
 62
     7
370
    15
100
AcDbLine
 10
76.1826466235
 20
54.8151713784
 30
0.0
 11
76.7968592219
 21
54.8151713784
 31
0.0
  0
LINE
  5
3EC
330
1F
100
AcDbEntity
  8
0
  6
Continuous
 62
     7
370
    15
100
AcDbLine
 10
76.7968592219
 20
54.8151713784
 30
0.0
 11
76.7968592219
 21
55.3190729532
 31
0.0
  0
LINE
  5
3ED
330
1F
100
AcDbEntity
  8
0
  6
Continuous
 62
     7
370
    15
100
AcDbLine
 10
76.7968592219
 20
55.3190729532
 30
0.0
 11
76.1826466235
 21
55.3190729532
 31
0.0
  0
LINE
  5
3EE
330
1F
100
AcDbEntity
  8
0
  6
Continuous
 62
     7
370
    15
100
AcDbLine
 10
76.1826466235
 20
55.3190729532
 30
0.0
 11
76.1826466235
 21
54.8151713784
 31
0.0
  0
LINE
  5
3EF
330
1F
100
AcDbEntity
  8
0
  6
Continuous
 62
     7
370
    15
100
AcDbLine
 10
75.4326466235
 20
54.8151713784
 30
0.0
 11
76.0468592219
 21
54.8151713784
 31
0.0
  0
LINE
  5
3F0
330
1F
100
AcDbEntity
  8
0
  6
Continuous
 62
     7
370
    15
100
AcDbLine
 10
76.0468592219
 20
54.8151713784
 30
0.0
 11
76.0468592219
 21
55.3190729532
 31
0.0
  0
LINE
  5
3F1
330
1F
100
AcDbEntity
  8
0
  6
Continuous
 62
     7
370
    15
100
AcDbLine
 10
76.0468592219
 20
55.3190729532
 30
0.0
 11
75.4326466235
 21
55.3190729532
 31
0.0
  0
LINE
  5
3F2
330
1F
100
AcDbEntity
  8
0
  6
Continuous
 62
     7
370
    15
100
AcDbLine
 10
75.4326466235
 20
55.3190729532
 30
0.0
 11
75.4326466235
 21
54.8151713784
 31
0.0
  0
LINE
  5
3F3
330
1F
100
AcDbEntity
  8
0
  6
Continuous
 62
     7
370
    15
100
AcDbLine
 10
74.6826466235
 20
54.8151713784
 30
0.0
 11
75.2968592219
 21
54.8151713784
 31
0.0
  0
LINE
  5
3F4
330
1F
100
AcDbEntity
  8
0
  6
Continuous
 62
     7
370
    15
100
AcDbLine
 10
75.2968592219
 20
54.8151713784
 30
0.0
 11
75.2968592219
 21
55.3190729532
 31
0.0
  0
LINE
  5
3F5
330
1F
100
AcDbEntity
  8
0
  6
Continuous
 62
     7
370
    15
100
AcDbLine
 10
75.2968592219
 20
55.3190729532
 30
0.0
 11
74.6826466235
 21
55.3190729532
 31
0.0
  0
LINE
  5
3F6
330
1F
100
AcDbEntity
  8
0
  6
Continuous
 62
     7
370
    15
100
AcDbLine
 10
74.6826466235
 20
55.3190729532
 30
0.0
 11
74.6826466235
 21
54.8151713784
 31
0.0
  0
LINE
  5
3F7
330
1F
100
AcDbEntity
  8
0
  6
Continuous
 62
     7
370
    15
100
AcDbLine
 10
73.9326466235
 20
54.8151713784
 30
0.0
 11
74.5468592219
 21
54.8151713784
 31
0.0
  0
LINE
  5
3F8
330
1F
100
AcDbEntity
  8
0
  6
Continuous
 62
     7
370
    15
100
AcDbLine
 10
74.5468592219
 20
54.8151713784
 30
0.0
 11
74.5468592219
 21
55.3190729532
 31
0.0
  0
LINE
  5
3F9
330
1F
100
AcDbEntity
  8
0
  6
Continuous
 62
     7
370
    15
100
AcDbLine
 10
74.5468592219
 20
55.3190729532
 30
0.0
 11
73.9326466235
 21
55.3190729532
 31
0.0
  0
LINE
  5
3FA
330
1F
100
AcDbEntity
  8
0
  6
Continuous
 62
     7
370
    15
100
AcDbLine
 10
73.9326466235
 20
55.3190729532
 30
0.0
 11
73.9326466235
 21
54.8151713784
 31
0.0
  0
LINE
  5
3FB
330
1F
100
AcDbEntity
  8
0
  6
Continuous
 62
     7
370
    15
100
AcDbLine
 10
73.1826466235
 20
54.8151713784
 30
0.0
 11
73.7968592219
 21
54.8151713784
 31
0.0
  0
LINE
  5
3FC
330
1F
100
AcDbEntity
  8
0
  6
Continuous
 62
     7
370
    15
100
AcDbLine
 10
73.7968592219
 20
54.8151713784
 30
0.0
 11
73.7968592219
 21
55.3190729532
 31
0.0
  0
LINE
  5
3FD
330
1F
100
AcDbEntity
  8
0
  6
Continuous
 62
     7
370
    15
100
AcDbLine
 10
73.7968592219
 20
55.3190729532
 30
0.0
 11
73.1826466235
 21
55.3190729532
 31
0.0
  0
LINE
  5
3FE
330
1F
100
AcDbEntity
  8
0
  6
Continuous
 62
     7
370
    15
100
AcDbLine
 10
73.1826466235
 20
55.3190729532
 30
0.0
 11
73.1826466235
 21
54.8151713784
 31
0.0
  0
LINE
  5
3FF
330
1F
100
AcDbEntity
  8
0
  6
Continuous
 62
     7
370
    15
100
AcDbLine
 10
72.4326466235
 20
54.8151713784
 30
0.0
 11
73.0468592219
 21
54.8151713784
 31
0.0
  0
LINE
  5
400
330
1F
100
AcDbEntity
  8
0
  6
Continuous
 62
     7
370
    15
100
AcDbLine
 10
73.0468592219
 20
54.8151713784
 30
0.0
 11
73.0468592219
 21
55.3190729532
 31
0.0
  0
LINE
  5
401
330
1F
100
AcDbEntity
  8
0
  6
Continuous
 62
     7
370
    15
100
AcDbLine
 10
73.0468592219
 20
55.3190729532
 30
0.0
 11
72.4326466235
 21
55.3190729532
 31
0.0
  0
LINE
  5
402
330
1F
100
AcDbEntity
  8
0
  6
Continuous
 62
     7
370
    15
100
AcDbLine
 10
72.4326466235
 20
55.3190729532
 30
0.0
 11
72.4326466235
 21
54.8151713784
 31
0.0
  0
LINE
  5
403
330
1F
100
AcDbEntity
  8
0
  6
Continuous
 62
     7
370
    15
100
AcDbLine
 10
71.6826466235
 20
54.8151713784
 30
0.0
 11
72.2968592219
 21
54.8151713784
 31
0.0
  0
LINE
  5
404
330
1F
100
AcDbEntity
  8
0
  6
Continuous
 62
     7
370
    15
100
AcDbLine
 10
72.2968592219
 20
54.8151713784
 30
0.0
 11
72.2968592219
 21
55.3190729532
 31
0.0
  0
LINE
  5
405
330
1F
100
AcDbEntity
  8
0
  6
Continuous
 62
     7
370
    15
100
AcDbLine
 10
72.2968592219
 20
55.3190729532
 30
0.0
 11
71.6826466235
 21
55.3190729532
 31
0.0
  0
LINE
  5
406
330
1F
100
AcDbEntity
  8
0
  6
Continuous
 62
     7
370
    15
100
AcDbLine
 10
71.6826466235
 20
55.3190729532
 30
0.0
 11
71.6826466235
 21
54.8151713784
 31
0.0
  0
LINE
  5
407
330
1F
100
AcDbEntity
  8
0
  6
Continuous
 62
     7
370
    15
100
AcDbLine
 10
70.9326466235
 20
54.8151713784
 30
0.0
 11
71.5468592219
 21
54.8151713784
 31
0.0
  0
LINE
  5
408
330
1F
100
AcDbEntity
  8
0
  6
Continuous
 62
     7
370
    15
100
AcDbLine
 10
71.5468592219
 20
54.8151713784
 30
0.0
 11
71.5468592219
 21
55.3190729532
 31
0.0
  0
LINE
  5
409
330
1F
100
AcDbEntity
  8
0
  6
Continuous
 62
     7
370
    15
100
AcDbLine
 10
71.5468592219
 20
55.3190729532
 30
0.0
 11
70.9326466235
 21
55.3190729532
 31
0.0
  0
LINE
  5
40A
330
1F
100
AcDbEntity
  8
0
  6
Continuous
 62
     7
370
    15
100
AcDbLine
 10
70.9326466235
 20
55.3190729532
 30
0.0
 11
70.9326466235
 21
54.8151713784
 31
0.0
  0
LINE
  5
40B
330
1F
100
AcDbEntity
  8
0
  6
Continuous
 62
     7
370
    15
100
AcDbLine
 10
70.1826466235
 20
54.8151713784
 30
0.0
 11
70.7968552849
 21
54.8151713784
 31
0.0
  0
LINE
  5
40C
330
1F
100
AcDbEntity
  8
0
  6
Continuous
 62
     7
370
    15
100
AcDbLine
 10
70.7968552849
 20
54.8151713784
 30
0.0
 11
70.7968552849
 21
55.3190729532
 31
0.0
  0
LINE
  5
40D
330
1F
100
AcDbEntity
  8
0
  6
Continuous
 62
     7
370
    15
100
AcDbLine
 10
70.7968552849
 20
55.3190729532
 30
0.0
 11
70.1826466235
 21
55.3190729532
 31
0.0
  0
LINE
  5
40E
330
1F
100
AcDbEntity
  8
0
  6
Continuous
 62
     7
370
    15
100
AcDbLine
 10
70.1826466235
 20
55.3190729532
 30
0.0
 11
70.1826466235
 21
54.8151713784
 31
0.0
  0
LINE
  5
40F
330
1F
100
AcDbEntity
  8
0
  6
Continuous
 62
     7
370
    15
100
AcDbLine
 10
69.4326466235
 20
54.8151713784
 30
0.0
 11
70.0468552849
 21
54.8151713784
 31
0.0
  0
LINE
  5
410
330
1F
100
AcDbEntity
  8
0
  6
Continuous
 62
     7
370
    15
100
AcDbLine
 10
70.0468552849
 20
54.8151713784
 30
0.0
 11
70.0468552849
 21
55.3190729532
 31
0.0
  0
LINE
  5
411
330
1F
100
AcDbEntity
  8
0
  6
Continuous
 62
     7
370
    15
100
AcDbLine
 10
70.0468552849
 20
55.3190729532
 30
0.0
 11
69.4326466235
 21
55.3190729532
 31
0.0
  0
LINE
  5
412
330
1F
100
AcDbEntity
  8
0
  6
Continuous
 62
     7
370
    15
100
AcDbLine
 10
69.4326466235
 20
55.3190729532
 30
0.0
 11
69.4326466235
 21
54.8151713784
 31
0.0
  0
LINE
  5
413
330
1F
100
AcDbEntity
  8
0
  6
Continuous
 62
     7
370
    15
100
AcDbLine
 10
68.6826505605
 20
54.8151713784
 30
0.0
 11
69.2968552849
 21
54.8151713784
 31
0.0
  0
LINE
  5
414
330
1F
100
AcDbEntity
  8
0
  6
Continuous
 62
     7
370
    15
100
AcDbLine
 10
69.2968552849
 20
54.8151713784
 30
0.0
 11
69.2968552849
 21
55.3190729532
 31
0.0
  0
LINE
  5
415
330
1F
100
AcDbEntity
  8
0
  6
Continuous
 62
     7
370
    15
100
AcDbLine
 10
69.2968552849
 20
55.3190729532
 30
0.0
 11
68.6826505605
 21
55.3190729532
 31
0.0
  0
LINE
  5
416
330
1F
100
AcDbEntity
  8
0
  6
Continuous
 62
     7
370
    15
100
AcDbLine
 10
68.6826505605
 20
55.3190729532
 30
0.0
 11
68.6826505605
 21
54.8151713784
 31
0.0
  0
LINE
  5
417
330
1F
100
AcDbEntity
  8
0
  6
Continuous
 62
     7
370
    15
100
AcDbLine
 10
74.5283218204
 20
53.2095615819
 30
0.0
 11
74.6333100093
 21
53.2095615819
 31
0.0
  0
LINE
  5
418
330
1F
100
AcDbEntity
  8
0
  6
Continuous
 62
     7
370
    15
100
AcDbLine
 10
74.6333100093
 20
53.2095615819
 30
0.0
 11
74.6333100093
 21
53.4145300859
 31
0.0
  0
LINE
  5
419
330
1F
100
AcDbEntity
  8
0
  6
Continuous
 62
     7
370
    15
100
AcDbLine
 10
74.6333100093
 20
53.4145300859
 30
0.0
 11
74.5283218204
 21
53.4145300859
 31
0.0
  0
LINE
  5
41A
330
1F
100
AcDbEntity
  8
0
  6
Continuous
 62
     7
370
    15
100
AcDbLine
 10
74.5283218204
 20
53.4145300859
 30
0.0
 11
74.5283218204
 21
53.2095615819
 31
0.0
  0
LINE
  5
41B
330
1F
100
AcDbEntity
  8
0
  6
Continuous
 62
     7
370
    15
100
AcDbLine
 10
79.5576466235
 20
54.0651674414
 30
0.0
 11
80.1718592219
 21
54.0651674414
 31
0.0
  0
LINE
  5
41C
330
1F
100
AcDbEntity
  8
0
  6
Continuous
 62
     7
370
    15
100
AcDbLine
 10
80.1718592219
 20
54.0651674414
 30
0.0
 11
80.1718592219
 21
54.5690729532
 31
0.0
  0
LINE
  5
41D
330
1F
100
AcDbEntity
  8
0
  6
Continuous
 62
     7
370
    15
100
AcDbLine
 10
80.1718592219
 20
54.5690729532
 30
0.0
 11
79.5576466235
 21
54.5690729532
 31
0.0
  0
LINE
  5
41E
330
1F
100
AcDbEntity
  8
0
  6
Continuous
 62
     7
370
    15
100
AcDbLine
 10
79.5576466235
 20
54.5690729532
 30
0.0
 11
79.5576466235
 21
54.0651674414
 31
0.0
  0
LINE
  5
41F
330
1F
100
AcDbEntity
  8
0
  6
Continuous
 62
     7
370
    15
100
AcDbLine
 10
77.213906466
 20
54.0651674414
 30
0.0
 11
77.8281190645
 21
54.0651674414
 31
0.0
  0
LINE
  5
420
330
1F
100
AcDbEntity
  8
0
  6
Continuous
 62
     7
370
    15
100
AcDbLine
 10
77.8281190645
 20
54.0651674414
 30
0.0
 11
77.8281190645
 21
54.5690729532
 31
0.0
  0
LINE
  5
421
330
1F
100
AcDbEntity
  8
0
  6
Continuous
 62
     7
370
    15
100
AcDbLine
 10
77.8281190645
 20
54.5690729532
 30
0.0
 11
77.213906466
 21
54.5690729532
 31
0.0
  0
LINE
  5
422
330
1F
100
AcDbEntity
  8
0
  6
Continuous
 62
     7
370
    15
100
AcDbLine
 10
77.213906466
 20
54.5690729532
 30
0.0
 11
77.213906466
 21
54.0651674414
 31
0.0
  0
LINE
  5
423
330
1F
100
AcDbEntity
  8
0
  6
Continuous
 62
     7
370
    15
100
AcDbLine
 10
75.8076466235
 20
54.0651674414
 30
0.0
 11
76.4218592219
 21
54.0651674414
 31
0.0
  0
LINE
  5
424
330
1F
100
AcDbEntity
  8
0
  6
Continuous
 62
     7
370
    15
100
AcDbLine
 10
76.4218592219
 20
54.0651674414
 30
0.0
 11
76.4218592219
 21
54.5690729532
 31
0.0
  0
LINE
  5
425
330
1F
100
AcDbEntity
  8
0
  6
Continuous
 62
     7
370
    15
100
AcDbLine
 10
76.4218592219
 20
54.5690729532
 30
0.0
 11
75.8076466235
 21
54.5690729532
 31
0.0
  0
LINE
  5
426
330
1F
100
AcDbEntity
  8
0
  6
Continuous
 62
     7
370
    15
100
AcDbLine
 10
75.8076466235
 20
54.5690729532
 30
0.0
 11
75.8076466235
 21
54.0651674414
 31
0.0
  0
LINE
  5
427
330
1F
100
AcDbEntity
  8
0
  6
Continuous
 62
     7
370
    15
100
AcDbLine
 10
75.0576466235
 20
54.0651674414
 30
0.0
 11
75.6718592219
 21
54.0651674414
 31
0.0
  0
LINE
  5
428
330
1F
100
AcDbEntity
  8
0
  6
Continuous
 62
     7
370
    15
100
AcDbLine
 10
75.6718592219
 20
54.0651674414
 30
0.0
 11
75.6718592219
 21
54.5690729532
 31
0.0
  0
LINE
  5
429
330
1F
100
AcDbEntity
  8
0
  6
Continuous
 62
     7
370
    15
100
AcDbLine
 10
75.6718592219
 20
54.5690729532
 30
0.0
 11
75.0576466235
 21
54.5690729532
 31
0.0
  0
LINE
  5
42A
330
1F
100
AcDbEntity
  8
0
  6
Continuous
 62
     7
370
    15
100
AcDbLine
 10
75.0576466235
 20
54.5690729532
 30
0.0
 11
75.0576466235
 21
54.0651674414
 31
0.0
  0
LINE
  5
42B
330
1F
100
AcDbEntity
  8
0
  6
Continuous
 62
     7
370
    15
100
AcDbLine
 10
74.3076466235
 20
54.0651674414
 30
0.0
 11
74.9218592219
 21
54.0651674414
 31
0.0
  0
LINE
  5
42C
330
1F
100
AcDbEntity
  8
0
  6
Continuous
 62
     7
370
    15
100
AcDbLine
 10
74.9218592219
 20
54.0651674414
 30
0.0
 11
74.9218592219
 21
54.5690729532
 31
0.0
  0
LINE
  5
42D
330
1F
100
AcDbEntity
  8
0
  6
Continuous
 62
     7
370
    15
100
AcDbLine
 10
74.9218592219
 20
54.5690729532
 30
0.0
 11
74.3076466235
 21
54.5690729532
 31
0.0
  0
LINE
  5
42E
330
1F
100
AcDbEntity
  8
0
  6
Continuous
 62
     7
370
    15
100
AcDbLine
 10
74.3076466235
 20
54.5690729532
 30
0.0
 11
74.3076466235
 21
54.0651674414
 31
0.0
  0
LINE
  5
42F
330
1F
100
AcDbEntity
  8
0
  6
Continuous
 62
     7
370
    15
100
AcDbLine
 10
73.5576466235
 20
54.0651674414
 30
0.0
 11
74.1718592219
 21
54.0651674414
 31
0.0
  0
LINE
  5
430
330
1F
100
AcDbEntity
  8
0
  6
Continuous
 62
     7
370
    15
100
AcDbLine
 10
74.1718592219
 20
54.0651674414
 30
0.0
 11
74.1718592219
 21
54.5690729532
 31
0.0
  0
LINE
  5
431
330
1F
100
AcDbEntity
  8
0
  6
Continuous
 62
     7
370
    15
100
AcDbLine
 10
74.1718592219
 20
54.5690729532
 30
0.0
 11
73.5576466235
 21
54.5690729532
 31
0.0
  0
LINE
  5
432
330
1F
100
AcDbEntity
  8
0
  6
Continuous
 62
     7
370
    15
100
AcDbLine
 10
73.5576466235
 20
54.5690729532
 30
0.0
 11
73.5576466235
 21
54.0651674414
 31
0.0
  0
LINE
  5
433
330
1F
100
AcDbEntity
  8
0
  6
Continuous
 62
     7
370
    15
100
AcDbLine
 10
72.8076466235
 20
54.0651674414
 30
0.0
 11
73.4218592219
 21
54.0651674414
 31
0.0
  0
LINE
  5
434
330
1F
100
AcDbEntity
  8
0
  6
Continuous
 62
     7
370
    15
100
AcDbLine
 10
73.4218592219
 20
54.0651674414
 30
0.0
 11
73.4218592219
 21
54.5690729532
 31
0.0
  0
LINE
  5
435
330
1F
100
AcDbEntity
  8
0
  6
Continuous
 62
     7
370
    15
100
AcDbLine
 10
73.4218592219
 20
54.5690729532
 30
0.0
 11
72.8076466235
 21
54.5690729532
 31
0.0
  0
LINE
  5
436
330
1F
100
AcDbEntity
  8
0
  6
Continuous
 62
     7
370
    15
100
AcDbLine
 10
72.8076466235
 20
54.5690729532
 30
0.0
 11
72.8076466235
 21
54.0651674414
 31
0.0
  0
LINE
  5
437
330
1F
100
AcDbEntity
  8
0
  6
Continuous
 62
     7
370
    15
100
AcDbLine
 10
72.0576466235
 20
54.0651674414
 30
0.0
 11
72.6718592219
 21
54.0651674414
 31
0.0
  0
LINE
  5
438
330
1F
100
AcDbEntity
  8
0
  6
Continuous
 62
     7
370
    15
100
AcDbLine
 10
72.6718592219
 20
54.0651674414
 30
0.0
 11
72.6718592219
 21
54.5690729532
 31
0.0
  0
LINE
  5
439
330
1F
100
AcDbEntity
  8
0
  6
Continuous
 62
     7
370
    15
100
AcDbLine
 10
72.6718592219
 20
54.5690729532
 30
0.0
 11
72.0576466235
 21
54.5690729532
 31
0.0
  0
LINE
  5
43A
330
1F
100
AcDbEntity
  8
0
  6
Continuous
 62
     7
370
    15
100
AcDbLine
 10
72.0576466235
 20
54.5690729532
 30
0.0
 11
72.0576466235
 21
54.0651674414
 31
0.0
  0
LINE
  5
43B
330
1F
100
AcDbEntity
  8
0
  6
Continuous
 62
     7
370
    15
100
AcDbLine
 10
71.3076466235
 20
54.0651674414
 30
0.0
 11
71.9218592219
 21
54.0651674414
 31
0.0
  0
LINE
  5
43C
330
1F
100
AcDbEntity
  8
0
  6
Continuous
 62
     7
370
    15
100
AcDbLine
 10
71.9218592219
 20
54.0651674414
 30
0.0
 11
71.9218592219
 21
54.5690729532
 31
0.0
  0
LINE
  5
43D
330
1F
100
AcDbEntity
  8
0
  6
Continuous
 62
     7
370
    15
100
AcDbLine
 10
71.9218592219
 20
54.5690729532
 30
0.0
 11
71.3076466235
 21
54.5690729532
 31
0.0
  0
LINE
  5
43E
330
1F
100
AcDbEntity
  8
0
  6
Continuous
 62
     7
370
    15
100
AcDbLine
 10
71.3076466235
 20
54.5690729532
 30
0.0
 11
71.3076466235
 21
54.0651674414
 31
0.0
  0
LINE
  5
43F
330
1F
100
AcDbEntity
  8
0
  6
Continuous
 62
     7
370
    15
100
AcDbLine
 10
70.5576466235
 20
54.0651674414
 30
0.0
 11
71.1718552849
 21
54.0651674414
 31
0.0
  0
LINE
  5
440
330
1F
100
AcDbEntity
  8
0
  6
Continuous
 62
     7
370
    15
100
AcDbLine
 10
71.1718552849
 20
54.0651674414
 30
0.0
 11
71.1718552849
 21
54.5690729532
 31
0.0
  0
LINE
  5
441
330
1F
100
AcDbEntity
  8
0
  6
Continuous
 62
     7
370
    15
100
AcDbLine
 10
71.1718552849
 20
54.5690729532
 30
0.0
 11
70.5576466235
 21
54.5690729532
 31
0.0
  0
LINE
  5
442
330
1F
100
AcDbEntity
  8
0
  6
Continuous
 62
     7
370
    15
100
AcDbLine
 10
70.5576466235
 20
54.5690729532
 30
0.0
 11
70.5576466235
 21
54.0651674414
 31
0.0
  0
LINE
  5
443
330
1F
100
AcDbEntity
  8
0
  6
Continuous
 62
     7
370
    15
100
AcDbLine
 10
69.8076466235
 20
54.0651674414
 30
0.0
 11
70.4218552849
 21
54.0651674414
 31
0.0
  0
LINE
  5
444
330
1F
100
AcDbEntity
  8
0
  6
Continuous
 62
     7
370
    15
100
AcDbLine
 10
70.4218552849
 20
54.0651674414
 30
0.0
 11
70.4218552849
 21
54.5690729532
 31
0.0
  0
LINE
  5
445
330
1F
100
AcDbEntity
  8
0
  6
Continuous
 62
     7
370
    15
100
AcDbLine
 10
70.4218552849
 20
54.5690729532
 30
0.0
 11
69.8076466235
 21
54.5690729532
 31
0.0
  0
LINE
  5
446
330
1F
100
AcDbEntity
  8
0
  6
Continuous
 62
     7
370
    15
100
AcDbLine
 10
69.8076466235
 20
54.5690729532
 30
0.0
 11
69.8076466235
 21
54.0651674414
 31
0.0
  0
LINE
  5
447
330
1F
100
AcDbEntity
  8
0
  6
Continuous
 62
     7
370
    15
100
AcDbLine
 10
69.0576466235
 20
54.0651674414
 30
0.0
 11
69.6718552849
 21
54.0651674414
 31
0.0
  0
LINE
  5
448
330
1F
100
AcDbEntity
  8
0
  6
Continuous
 62
     7
370
    15
100
AcDbLine
 10
69.6718552849
 20
54.0651674414
 30
0.0
 11
69.6718552849
 21
54.5690729532
 31
0.0
  0
LINE
  5
449
330
1F
100
AcDbEntity
  8
0
  6
Continuous
 62
     7
370
    15
100
AcDbLine
 10
69.6718552849
 20
54.5690729532
 30
0.0
 11
69.0576466235
 21
54.5690729532
 31
0.0
  0
LINE
  5
44A
330
1F
100
AcDbEntity
  8
0
  6
Continuous
 62
     7
370
    15
100
AcDbLine
 10
69.0576466235
 20
54.5690729532
 30
0.0
 11
69.0576466235
 21
54.0651674414
 31
0.0
  0
LINE
  5
44B
330
1F
100
AcDbEntity
  8
0
  6
Continuous
 62
     7
370
    15
100
AcDbLine
 10
67.8389576471
 20
54.0651674414
 30
0.0
 11
68.4531072534
 21
54.0651674414
 31
0.0
  0
LINE
  5
44C
330
1F
100
AcDbEntity
  8
0
  6
Continuous
 62
     7
370
    15
100
AcDbLine
 10
68.4531072534
 20
54.0651674414
 30
0.0
 11
68.4531072534
 21
54.5690729532
 31
0.0
  0
LINE
  5
44D
330
1F
100
AcDbEntity
  8
0
  6
Continuous
 62
     7
370
    15
100
AcDbLine
 10
68.4531072534
 20
54.5690729532
 30
0.0
 11
67.8389576471
 21
54.5690729532
 31
0.0
  0
LINE
  5
44E
330
1F
100
AcDbEntity
  8
0
  6
Continuous
 62
     7
370
    15
100
AcDbLine
 10
67.8389576471
 20
54.5690729532
 30
0.0
 11
67.8389576471
 21
54.0651674414
 31
0.0
  0
LINE
  5
44F
330
1F
100
AcDbEntity
  8
0
  6
Continuous
 62
     7
370
    15
100
AcDbLine
 10
67.6435355999
 20
53.9596438194
 30
0.0
 11
67.6435355999
 21
54.1646123233
 31
0.0
  0
LINE
  5
450
330
1F
100
AcDbEntity
  8
0
  6
Continuous
 62
     7
370
    15
100
AcDbLine
 10
67.6435355999
 20
54.1646123233
 30
0.0
 11
67.5385548912
 21
54.1646123233
 31
0.0
  0
LINE
  5
451
330
1F
100
AcDbEntity
  8
0
  6
Continuous
 62
     7
370
    15
100
AcDbLine
 10
67.5385548912
 20
54.1646123233
 30
0.0
 11
67.5385548912
 21
53.9594272839
 31
0.0
  0
LINE
  5
452
330
1F
100
AcDbEntity
  8
0
  6
Continuous
 62
     7
370
    15
100
AcDbLine
 10
67.5385548912
 20
53.9594272839
 30
0.0
 11
67.6435355999
 21
53.9596438194
 31
0.0
  0
LINE
  5
453
330
1F
100
AcDbEntity
  8
0
  6
Continuous
 62
     7
370
    15
100
AcDbLine
 10
80.3076466235
 20
53.3151670477
 30
0.0
 11
80.9218592219
 21
53.3151670477
 31
0.0
  0
LINE
  5
454
330
1F
100
AcDbEntity
  8
0
  6
Continuous
 62
     7
370
    15
100
AcDbLine
 10
80.9218592219
 20
53.3151670477
 30
0.0
 11
80.9218592219
 21
53.8191280713
 31
0.0
  0
LINE
  5
455
330
1F
100
AcDbEntity
  8
0
  6
Continuous
 62
     7
370
    15
100
AcDbLine
 10
80.9218592219
 20
53.8191280713
 30
0.0
 11
80.3076466235
 21
53.8191280713
 31
0.0
  0
LINE
  5
456
330
1F
100
AcDbEntity
  8
0
  6
Continuous
 62
     7
370
    15
100
AcDbLine
 10
80.3076466235
 20
53.8191280713
 30
0.0
 11
80.3076466235
 21
53.3151670477
 31
0.0
  0
LINE
  5
457
330
1F
100
AcDbEntity
  8
0
  6
Continuous
 62
     7
370
    15
100
AcDbLine
 10
79.5576466235
 20
53.3151670477
 30
0.0
 11
80.1718592219
 21
53.3151670477
 31
0.0
  0
LINE
  5
458
330
1F
100
AcDbEntity
  8
0
  6
Continuous
 62
     7
370
    15
100
AcDbLine
 10
80.1718592219
 20
53.3151670477
 30
0.0
 11
80.1718592219
 21
53.8191280713
 31
0.0
  0
LINE
  5
459
330
1F
100
AcDbEntity
  8
0
  6
Continuous
 62
     7
370
    15
100
AcDbLine
 10
80.1718592219
 20
53.8191280713
 30
0.0
 11
79.5576466235
 21
53.8191280713
 31
0.0
  0
LINE
  5
45A
330
1F
100
AcDbEntity
  8
0
  6
Continuous
 62
     7
370
    15
100
AcDbLine
 10
79.5576466235
 20
53.8191280713
 30
0.0
 11
79.5576466235
 21
53.3151670477
 31
0.0
  0
LINE
  5
45B
330
1F
100
AcDbEntity
  8
0
  6
Continuous
 62
     7
370
    15
100
AcDbLine
 10
78.8076466235
 20
53.3151670477
 30
0.0
 11
79.4218592219
 21
53.3151670477
 31
0.0
  0
LINE
  5
45C
330
1F
100
AcDbEntity
  8
0
  6
Continuous
 62
     7
370
    15
100
AcDbLine
 10
79.4218592219
 20
53.3151670477
 30
0.0
 11
79.4218592219
 21
53.8191280713
 31
0.0
  0
LINE
  5
45D
330
1F
100
AcDbEntity
  8
0
  6
Continuous
 62
     7
370
    15
100
AcDbLine
 10
79.4218592219
 20
53.8191280713
 30
0.0
 11
78.8076466235
 21
53.8191280713
 31
0.0
  0
LINE
  5
45E
330
1F
100
AcDbEntity
  8
0
  6
Continuous
 62
     7
370
    15
100
AcDbLine
 10
78.8076466235
 20
53.8191280713
 30
0.0
 11
78.8076466235
 21
53.3151670477
 31
0.0
  0
LINE
  5
45F
330
1F
100
AcDbEntity
  8
0
  6
Continuous
 62
     7
370
    15
100
AcDbLine
 10
77.6826466235
 20
53.3151670477
 30
0.0
 11
78.2968592219
 21
53.3151670477
 31
0.0
  0
LINE
  5
460
330
1F
100
AcDbEntity
  8
0
  6
Continuous
 62
     7
370
    15
100
AcDbLine
 10
78.2968592219
 20
53.3151670477
 30
0.0
 11
78.2968592219
 21
53.8191280713
 31
0.0
  0
LINE
  5
461
330
1F
100
AcDbEntity
  8
0
  6
Continuous
 62
     7
370
    15
100
AcDbLine
 10
78.2968592219
 20
53.8191280713
 30
0.0
 11
77.6826466235
 21
53.8191280713
 31
0.0
  0
LINE
  5
462
330
1F
100
AcDbEntity
  8
0
  6
Continuous
 62
     7
370
    15
100
AcDbLine
 10
77.6826466235
 20
53.8191280713
 30
0.0
 11
77.6826466235
 21
53.3151670477
 31
0.0
  0
LINE
  5
463
330
1F
100
AcDbEntity
  8
0
  6
Continuous
 62
     7
370
    15
100
AcDbLine
 10
76.7452056786
 20
53.3151670477
 30
0.0
 11
77.3593395369
 21
53.3151670477
 31
0.0
  0
LINE
  5
464
330
1F
100
AcDbEntity
  8
0
  6
Continuous
 62
     7
370
    15
100
AcDbLine
 10
77.3593395369
 20
53.3151670477
 30
0.0
 11
77.3593395369
 21
53.8191280713
 31
0.0
  0
LINE
  5
465
330
1F
100
AcDbEntity
  8
0
  6
Continuous
 62
     7
370
    15
100
AcDbLine
 10
77.3593395369
 20
53.8191280713
 30
0.0
 11
76.7452056786
 21
53.8191280713
 31
0.0
  0
LINE
  5
466
330
1F
100
AcDbEntity
  8
0
  6
Continuous
 62
     7
370
    15
100
AcDbLine
 10
76.7452056786
 20
53.8191280713
 30
0.0
 11
76.7452056786
 21
53.3151670477
 31
0.0
  0
LINE
  5
467
330
1F
100
AcDbEntity
  8
0
  6
Continuous
 62
     7
370
    15
100
AcDbLine
 10
75.8076466235
 20
53.3151670477
 30
0.0
 11
76.4218592219
 21
53.3151670477
 31
0.0
  0
LINE
  5
468
330
1F
100
AcDbEntity
  8
0
  6
Continuous
 62
     7
370
    15
100
AcDbLine
 10
76.4218592219
 20
53.3151670477
 30
0.0
 11
76.4218592219
 21
53.8191280713
 31
0.0
  0
LINE
  5
469
330
1F
100
AcDbEntity
  8
0
  6
Continuous
 62
     7
370
    15
100
AcDbLine
 10
76.4218592219
 20
53.8191280713
 30
0.0
 11
75.8076466235
 21
53.8191280713
 31
0.0
  0
LINE
  5
46A
330
1F
100
AcDbEntity
  8
0
  6
Continuous
 62
     7
370
    15
100
AcDbLine
 10
75.8076466235
 20
53.8191280713
 30
0.0
 11
75.8076466235
 21
53.3151670477
 31
0.0
  0
LINE
  5
46B
330
1F
100
AcDbEntity
  8
0
  6
Continuous
 62
     7
370
    15
100
AcDbLine
 10
72.6202056786
 20
53.3151670477
 30
0.0
 11
73.2343395369
 21
53.3151670477
 31
0.0
  0
LINE
  5
46C
330
1F
100
AcDbEntity
  8
0
  6
Continuous
 62
     7
370
    15
100
AcDbLine
 10
73.2343395369
 20
53.3151670477
 30
0.0
 11
73.2343395369
 21
53.8191280713
 31
0.0
  0
LINE
  5
46D
330
1F
100
AcDbEntity
  8
0
  6
Continuous
 62
     7
370
    15
100
AcDbLine
 10
73.2343395369
 20
53.8191280713
 30
0.0
 11
72.6202056786
 21
53.8191280713
 31
0.0
  0
LINE
  5
46E
330
1F
100
AcDbEntity
  8
0
  6
Continuous
 62
     7
370
    15
100
AcDbLine
 10
72.6202056786
 20
53.8191280713
 30
0.0
 11
72.6202056786
 21
53.3151670477
 31
0.0
  0
LINE
  5
46F
330
1F
100
AcDbEntity
  8
0
  6
Continuous
 62
     7
370
    15
100
AcDbLine
 10
69.4326466235
 20
53.3151670477
 30
0.0
 11
70.0468552849
 21
53.3151670477
 31
0.0
  0
LINE
  5
470
330
1F
100
AcDbEntity
  8
0
  6
Continuous
 62
     7
370
    15
100
AcDbLine
 10
70.0468552849
 20
53.3151670477
 30
0.0
 11
70.0468552849
 21
53.8191280713
 31
0.0
  0
LINE
  5
471
330
1F
100
AcDbEntity
  8
0
  6
Continuous
 62
     7
370
    15
100
AcDbLine
 10
70.0468552849
 20
53.8191280713
 30
0.0
 11
69.4326466235
 21
53.8191280713
 31
0.0
  0
LINE
  5
472
330
1F
100
AcDbEntity
  8
0
  6
Continuous
 62
     7
370
    15
100
AcDbLine
 10
69.4326466235
 20
53.8191280713
 30
0.0
 11
69.4326466235
 21
53.3151670477
 31
0.0
  0
LINE
  5
473
330
1F
100
AcDbEntity
  8
0
  6
Continuous
 62
     7
370
    15
100
AcDbLine
 10
68.4952056786
 20
53.3151670477
 30
0.0
 11
69.1093552849
 21
53.3151670477
 31
0.0
  0
LINE
  5
474
330
1F
100
AcDbEntity
  8
0
  6
Continuous
 62
     7
370
    15
100
AcDbLine
 10
69.1093552849
 20
53.3151670477
 30
0.0
 11
69.1093552849
 21
53.8191280713
 31
0.0
  0
LINE
  5
475
330
1F
100
AcDbEntity
  8
0
  6
Continuous
 62
     7
370
    15
100
AcDbLine
 10
69.1093552849
 20
53.8191280713
 30
0.0
 11
68.4952056786
 21
53.8191280713
 31
0.0
  0
LINE
  5
476
330
1F
100
AcDbEntity
  8
0
  6
Continuous
 62
     7
370
    15
100
AcDbLine
 10
68.4952056786
 20
53.8191280713
 30
0.0
 11
68.4952056786
 21
53.3151670477
 31
0.0
  0
LINE
  5
477
330
1F
100
AcDbEntity
  8
0
  6
Continuous
 62
     7
370
    15
100
AcDbLine
 10
67.5576513479
 20
53.3151670477
 30
0.0
 11
68.1718552849
 21
53.3151670477
 31
0.0
  0
LINE
  5
478
330
1F
100
AcDbEntity
  8
0
  6
Continuous
 62
     7
370
    15
100
AcDbLine
 10
68.1718552849
 20
53.3151670477
 30
0.0
 11
68.1718552849
 21
53.8191280713
 31
0.0
  0
LINE
  5
479
330
1F
100
AcDbEntity
  8
0
  6
Continuous
 62
     7
370
    15
100
AcDbLine
 10
68.1718552849
 20
53.8191280713
 30
0.0
 11
67.5576513479
 21
53.8191280713
 31
0.0
  0
LINE
  5
47A
330
1F
100
AcDbEntity
  8
0
  6
Continuous
 62
     7
370
    15
100
AcDbLine
 10
67.5576513479
 20
53.8191280713
 30
0.0
 11
67.5576513479
 21
53.3151670477
 31
0.0
  0
LINE
  5
47B
330
1F
100
AcDbEntity
  8
0
  6
Continuous
 62
     7
370
    15
100
AcDbLine
 10
71.2212352062
 20
53.2095613154
 30
0.0
 11
71.3262233952
 21
53.2095613154
 31
0.0
  0
LINE
  5
47C
330
1F
100
AcDbEntity
  8
0
  6
Continuous
 62
     7
370
    15
100
AcDbLine
 10
71.3262233952
 20
53.2095613154
 30
0.0
 11
71.3262233952
 21
53.4145298194
 31
0.0
  0
LINE
  5
47D
330
1F
100
AcDbEntity
  8
0
  6
Continuous
 62
     7
370
    15
100
AcDbLine
 10
71.3262233952
 20
53.4145298194
 30
0.0
 11
71.2212352062
 21
53.4145298194
 31
0.0
  0
LINE
  5
47E
330
1F
100
AcDbEntity
  8
0
  6
Continuous
 62
     7
370
    15
100
AcDbLine
 10
71.2212352062
 20
53.4145298194
 30
0.0
 11
71.2212352062
 21
53.2095613154
 31
0.0
  0
LINE
  5
47F
330
1F
100
AcDbEntity
  8
0
  6
Continuous
 62
     7
370
    15
100
AcDbLine
 10
67.5576466235
 20
55.3190729532
 30
0.0
 11
67.5576466235
 21
54.8151713784
 31
0.0
  0
LINE
  5
480
330
1F
100
AcDbEntity
  8
0
  6
Continuous
 62
     7
370
    15
100
AcDbLine
 10
67.5576466235
 20
54.8151713784
 30
0.0
 11
68.2656003637
 21
54.8151713784
 31
0.0
  0
LINE
  5
481
330
1F
100
AcDbEntity
  8
0
  6
Continuous
 62
     7
370
    15
100
AcDbLine
 10
68.2656003637
 20
54.8151713784
 30
0.0
 11
68.2656003637
 21
55.3190729532
 31
0.0
  0
LINE
  5
482
330
1F
100
AcDbEntity
  8
0
  6
Continuous
 62
     7
370
    15
100
AcDbLine
 10
68.2656003637
 20
55.3190729532
 30
0.0
 11
67.5576466235
 21
55.3190729532
 31
0.0
  0
LINE
  5
483
330
1F
100
AcDbEntity
  8
0
  6
Continuous
 62
     7
370
    15
100
AcDbLine
 10
80.2107514136
 20
57.9485559909
 30
0.0
 11
80.290307553
 21
58.0863512665
 31
0.0
  0
LINE
  5
484
330
1F
100
AcDbEntity
  8
0
  6
Continuous
 62
     7
370
    15
100
AcDbLine
 10
80.3755462739
 20
58.1355638649
 30
0.0
 11
80.5234038409
 21
58.1355638649
 31
0.0
  0
LINE
  5
485
330
1F
100
AcDbEntity
  8
0
  6
Continuous
 62
     7
370
    15
100
AcDbLine
 10
80.6025311574
 20
58.0956740178
 30
0.0
 11
80.7210186822
 21
57.935504139
 31
0.0
  0
LINE
  5
486
330
1F
100
AcDbEntity
  8
0
  6
Continuous
 62
     7
370
    15
100
AcDbLine
 10
80.8317969252
 20
57.8796583531
 30
0.0
 11
80.917692812
 21
57.8796583531
 31
0.0
  0
LINE
  5
487
330
1F
100
AcDbEntity
  8
0
  6
Continuous
 62
     7
370
    15
100
AcDbLine
 10
80.9733705113
 20
57.8565958949
 30
0.0
 11
81.0453558312
 21
57.784610575
 31
0.0
  0
LINE
  5
488
330
1F
100
AcDbEntity
  8
0
  6
Continuous
 62
     7
370
    15
100
AcDbLine
 10
81.0684182893
 20
57.7289328757
 30
0.0
 11
81.0684182893
 21
55.3791344417
 31
0.0
  0
LINE
  5
489
330
1F
100
AcDbEntity
  8
0
  6
Continuous
 62
     7
370
    15
100
AcDbLine
 10
81.0520265861
 20
55.3324052846
 30
0.0
 11
81.0077952775
 21
55.2771161489
 31
0.0
  0
LINE
  5
48A
330
1F
100
AcDbEntity
  8
0
  6
Continuous
 62
     7
370
    15
100
AcDbLine
 10
80.9897784058
 20
55.2254682426
 30
0.0
 11
80.9897784058
 21
54.0353274645
 31
0.0
  0
LINE
  5
48B
330
1F
100
AcDbEntity
  8
0
  6
Continuous
 62
     7
370
    15
100
AcDbLine
 10
81.0078955514
 20
53.9836794488
 30
0.0
 11
81.05212686
 21
53.9283903131
 31
0.0
  0
LINE
  5
48C
330
1F
100
AcDbEntity
  8
0
  6
Continuous
 62
     7
370
    15
100
AcDbLine
 10
81.0685185633
 20
53.881661156
 30
0.0
 11
81.0685185633
 21
53.342886344
 31
0.0
  0
LINE
  5
48D
330
1F
100
AcDbEntity
  8
0
  6
Continuous
 62
     7
370
    15
100
AcDbLine
 10
81.0454561051
 20
53.2872086447
 30
0.0
 11
80.9734707852
 21
53.2152233248
 31
0.0
  0
LINE
  5
48E
330
1F
100
AcDbEntity
  8
0
  6
Continuous
 62
     7
370
    15
100
AcDbLine
 10
80.9177930859
 20
53.1921608667
 30
0.0
 11
80.7989849091
 21
53.1921608667
 31
0.0
  0
LINE
  5
48F
330
1F
100
AcDbEntity
  8
0
  6
Continuous
 62
     7
370
    15
100
AcDbLine
 10
80.6796506999
 20
53.1232632289
 30
0.0
 11
80.6000938665
 21
52.9854667513
 31
0.0
  0
LINE
  5
490
330
1F
100
AcDbEntity
  8
0
  6
Continuous
 62
     7
370
    15
100
AcDbLine
 10
80.5148551456
 20
52.9362541529
 30
0.0
 11
80.3756465478
 21
52.9362541529
 31
0.0
  0
LINE
  5
491
330
1F
100
AcDbEntity
  8
0
  6
Continuous
 62
     7
370
    15
100
AcDbLine
 10
80.290407827
 20
52.9854667513
 30
0.0
 11
80.2108509936
 21
53.1232632289
 31
0.0
  0
LINE
  5
492
330
1F
100
AcDbEntity
  8
0
  6
Continuous
 62
     7
370
    15
100
AcDbLine
 10
80.0915167844
 20
53.1921608667
 30
0.0
 11
77.6493786098
 21
53.1921608667
 31
0.0
  0
LINE
  5
493
330
1F
100
AcDbEntity
  8
0
  6
Continuous
 62
     7
370
    15
100
AcDbLine
 10
77.5300444007
 20
53.1232632289
 30
0.0
 11
77.4504875673
 21
52.9854667513
 31
0.0
  0
LINE
  5
494
330
1F
100
AcDbEntity
  8
0
  6
Continuous
 62
     7
370
    15
100
AcDbLine
 10
77.3652488464
 20
52.9362541529
 30
0.0
 11
77.226040259
 21
52.9362541529
 31
0.0
  0
LINE
  5
495
330
1F
100
AcDbEntity
  8
0
  6
Continuous
 62
     7
370
    15
100
AcDbLine
 10
77.1408015317
 20
52.9854667626
 30
0.0
 11
77.0612196369
 21
53.1233066899
 31
0.0
  0
LINE
  5
496
330
1F
100
AcDbEntity
  8
0
  6
Continuous
 62
     7
370
    15
100
AcDbLine
 10
76.9418854368
 20
53.1922043435
 30
0.0
 11
75.6021596019
 21
53.1922045208
 31
0.0
  0
LINE
  5
497
330
1F
100
AcDbEntity
  8
0
  6
Continuous
 62
     7
370
    15
100
AcDbLine
 10
75.4827251006
 20
53.1233069195
 30
0.0
 11
75.4031429792
 21
52.9854666419
 31
0.0
  0
LINE
  5
498
330
1F
100
AcDbEntity
  8
0
  6
Continuous
 62
     7
370
    15
100
AcDbLine
 10
75.3179042583
 20
52.9362540435
 30
0.0
 11
74.0763336755
 21
52.9362540435
 31
0.0
  0
LINE
  5
499
330
1F
100
AcDbEntity
  8
0
  6
Continuous
 62
     7
370
    15
100
AcDbLine
 10
73.9910949546
 20
52.9854666419
 30
0.0
 11
73.9115127791
 21
53.1233070132
 31
0.0
  0
LINE
  5
49A
330
1F
100
AcDbEntity
  8
0
  6
Continuous
 62
     7
370
    15
100
AcDbLine
 10
73.7921785882
 20
53.192204651
 30
0.0
 11
71.3500912845
 21
53.1922049743
 31
0.0
  0
LINE
  5
49B
330
1F
100
AcDbEntity
  8
0
  6
Continuous
 62
     7
370
    15
100
AcDbLine
 10
71.2307570571
 20
53.1233073365
 30
0.0
 11
71.1511746949
 21
52.9854666419
 31
0.0
  0
LINE
  5
49C
330
1F
100
AcDbEntity
  8
0
  6
Continuous
 62
     7
370
    15
100
AcDbLine
 10
71.0659359741
 20
52.9362540435
 30
0.0
 11
70.4542864314
 21
52.9362540435
 31
0.0
  0
LINE
  5
49D
330
1F
100
AcDbEntity
  8
0
  6
Continuous
 62
     7
370
    15
100
AcDbLine
 10
70.3690477105
 20
52.9854666419
 30
0.0
 11
70.2894652943
 21
53.1233074302
 31
0.0
  0
LINE
  5
49E
330
1F
100
AcDbEntity
  8
0
  6
Continuous
 62
     7
370
    15
100
AcDbLine
 10
70.1701311034
 20
53.192205068
 30
0.0
 11
68.200485226
 21
53.1922053913
 31
0.0
  0
LINE
  5
49F
330
1F
100
AcDbEntity
  8
0
  6
Continuous
 62
     7
370
    15
100
AcDbLine
 10
68.0811509986
 20
53.1233077535
 30
0.0
 11
68.0015683957
 21
52.9854666419
 31
0.0
  0
LINE
  5
4A0
330
1F
100
AcDbEntity
  8
0
  6
Continuous
 62
     7
370
    15
100
AcDbLine
 10
67.9163296749
 20
52.9362540435
 30
0.0
 11
67.777121077
 21
52.9362540435
 31
0.0
  0
LINE
  5
4A1
330
1F
100
AcDbEntity
  8
0
  6
Continuous
 62
     7
370
    15
100
AcDbLine
 10
67.6918823562
 20
52.9854666419
 30
0.0
 11
67.6122997044
 21
53.1233078381
 31
0.0
  0
LINE
  5
4A2
330
1F
100
AcDbEntity
  8
0
  6
Continuous
 62
     7
370
    15
100
AcDbLine
 10
67.4929654953
 20
53.1922054759
 30
0.0
 11
67.3741679942
 21
53.1922054759
 31
0.0
  0
LINE
  5
4A3
330
1F
100
AcDbEntity
  8
0
  6
Continuous
 62
     7
370
    15
100
AcDbLine
 10
67.3184902949
 20
53.2152679341
 30
0.0
 11
67.246504975
 21
53.2872532539
 31
0.0
  0
LINE
  5
4A4
330
1F
100
AcDbEntity
  8
0
  6
Continuous
 62
     7
370
    15
100
AcDbLine
 10
67.2234425169
 20
53.3429309532
 30
0.0
 11
67.2234425169
 21
54.1179038744
 31
0.0
  0
LINE
  5
4A5
330
1F
100
AcDbEntity
  8
0
  6
Continuous
 62
     7
370
    15
100
AcDbLine
 10
67.2398342201
 20
54.1646330315
 30
0.0
 11
67.2840655287
 21
54.2199221672
 31
0.0
  0
LINE
  5
4A6
330
1F
100
AcDbEntity
  8
0
  6
Continuous
 62
     7
370
    15
100
AcDbLine
 10
67.3021826744
 20
54.271570183
 30
0.0
 11
67.3021826744
 21
55.8554117484
 31
0.0
  0
LINE
  5
4A7
330
1F
100
AcDbEntity
  8
0
  6
Continuous
 62
     7
370
    15
100
AcDbLine
 10
67.2840655287
 20
55.9070597642
 30
0.0
 11
67.2398342201
 21
55.9623488999
 31
0.0
  0
LINE
  5
4A8
330
1F
100
AcDbEntity
  8
0
  6
Continuous
 62
     7
370
    15
100
AcDbLine
 10
67.2234425169
 20
56.009078057
 30
0.0
 11
67.2234425169
 21
57.7289328679
 31
0.0
  0
LINE
  5
4A9
330
1F
100
AcDbEntity
  8
0
  6
Continuous
 62
     7
370
    15
100
AcDbLine
 10
67.246504975
 20
57.7846105672
 30
0.0
 11
67.3184902949
 21
57.8565958871
 31
0.0
  0
LINE
  5
4AA
330
1F
100
AcDbEntity
  8
0
  6
Continuous
 62
     7
370
    15
100
AcDbLine
 10
67.3741679942
 20
57.8796583453
 30
0.0
 11
67.492992003
 21
57.8796583453
 31
0.0
  0
LINE
  5
4AB
330
1F
100
AcDbEntity
  8
0
  6
Continuous
 62
     7
370
    15
100
AcDbLine
 10
67.6123262122
 20
57.9485559831
 30
0.0
 11
67.6918823562
 21
58.0863512665
 31
0.0
  0
LINE
  5
4AC
330
1F
100
AcDbEntity
  8
0
  6
Continuous
 62
     7
370
    15
100
AcDbLine
 10
67.777121077
 20
58.1355638649
 30
0.0
 11
67.9163296749
 21
58.1355638649
 31
0.0
  0
LINE
  5
4AD
330
1F
100
AcDbEntity
  8
0
  6
Continuous
 62
     7
370
    15
100
AcDbLine
 10
68.0015683957
 20
58.0863512665
 30
0.0
 11
68.0811245352
 21
57.9485559909
 31
0.0
  0
LINE
  5
4AE
330
1F
100
AcDbEntity
  8
0
  6
Continuous
 62
     7
370
    15
100
AcDbLine
 10
68.2004587443
 20
57.8796583531
 30
0.0
 11
70.6425983068
 21
57.8796583531
 31
0.0
  0
LINE
  5
4AF
330
1F
100
AcDbEntity
  8
0
  6
Continuous
 62
     7
370
    15
100
AcDbLine
 10
70.7619325159
 20
57.9485559909
 30
0.0
 11
70.8414886554
 21
58.0863512665
 31
0.0
  0
LINE
  5
4B0
330
1F
100
AcDbEntity
  8
0
  6
Continuous
 62
     7
370
    15
100
AcDbLine
 10
70.9267273762
 20
58.1355638649
 30
0.0
 11
71.0659359741
 21
58.1355638649
 31
0.0
  0
LINE
  5
4B1
330
1F
100
AcDbEntity
  8
0
  6
Continuous
 62
     7
370
    15
100
AcDbLine
 10
71.1511746949
 20
58.0863512665
 30
0.0
 11
71.2307308344
 21
57.9485559909
 31
0.0
  0
LINE
  5
4B2
330
1F
100
AcDbEntity
  8
0
  6
Continuous
 62
     7
370
    15
100
AcDbLine
 10
71.3500650436
 20
57.8796583531
 30
0.0
 11
73.792204606
 21
57.8796583531
 31
0.0
  0
LINE
  5
4B3
330
1F
100
AcDbEntity
  8
0
  6
Continuous
 62
     7
370
    15
100
AcDbLine
 10
73.9115388152
 20
57.9485559909
 30
0.0
 11
73.9910949546
 21
58.0863512665
 31
0.0
  0
LINE
  5
4B4
330
1F
100
AcDbEntity
  8
0
  6
Continuous
 62
     7
370
    15
100
AcDbLine
 10
74.0763336755
 20
58.1355638649
 30
0.0
 11
74.2155422733
 21
58.1355638649
 31
0.0
  0
LINE
  5
4B5
330
1F
100
AcDbEntity
  8
0
  6
Continuous
 62
     7
370
    15
100
AcDbLine
 10
74.3007809941
 20
58.0863512665
 30
0.0
 11
74.3803371336
 21
57.9485559909
 31
0.0
  0
LINE
  5
4B6
330
1F
100
AcDbEntity
  8
0
  6
Continuous
 62
     7
370
    15
100
AcDbLine
 10
74.4996713428
 20
57.8796583531
 30
0.0
 11
76.9418109052
 21
57.8796583531
 31
0.0
  0
LINE
  5
4B7
330
1F
100
AcDbEntity
  8
0
  6
Continuous
 62
     7
370
    15
100
AcDbLine
 10
77.0611451144
 20
57.9485559909
 30
0.0
 11
77.1407012538
 21
58.0863512665
 31
0.0
  0
LINE
  5
4B8
330
1F
100
AcDbEntity
  8
0
  6
Continuous
 62
     7
370
    15
100
AcDbLine
 10
77.2259399747
 20
58.1355638649
 30
0.0
 11
77.3651485725
 21
58.1355638649
 31
0.0
  0
LINE
  5
4B9
330
1F
100
AcDbEntity
  8
0
  6
Continuous
 62
     7
370
    15
100
AcDbLine
 10
77.4503872933
 20
58.0863512665
 30
0.0
 11
77.5299434328
 21
57.9485559909
 31
0.0
  0
LINE
  5
4BA
330
1F
100
AcDbEntity
  8
0
  6
Continuous
 62
     7
370
    15
100
AcDbLine
 10
77.649277642
 20
57.8796583531
 30
0.0
 11
78.4416063747
 21
57.8796583531
 31
0.0
  0
LINE
  5
4BB
330
1F
100
AcDbEntity
  8
0
  6
Continuous
 62
     7
370
    15
100
AcDbLine
 10
78.4809764535
 20
57.8402882743
 30
0.0
 11
78.4809764535
 21
57.7900926383
 31
0.0
  0
LINE
  5
4BC
330
1F
100
AcDbEntity
  8
0
  6
Continuous
 62
     7
370
    15
100
AcDbLine
 10
78.5203465322
 20
57.7507225595
 30
0.0
 11
78.7718683741
 21
57.7507225595
 31
0.0
  0
LINE
  5
4BD
330
1F
100
AcDbEntity
  8
0
  6
Continuous
 62
     7
370
    15
100
AcDbLine
 10
78.8112384529
 20
57.7900926383
 30
0.0
 11
78.8112384529
 21
57.8402882743
 31
0.0
  0
LINE
  5
4BE
330
1F
100
AcDbEntity
  8
0
  6
Continuous
 62
     7
370
    15
100
AcDbLine
 10
78.8506085316
 20
57.8796583531
 30
0.0
 11
80.0914172044
 21
57.8796583531
 31
0.0
  0
LINE
  5
4BF
330
1F
100
AcDbEntity
  8
0
  6
Continuous
 62
     7
370
    15
100
AcDbLine
 10
78.9139943584
 20
57.110712717
 30
0.0
 11
80.8155682004
 21
57.110712717
 31
0.0
  0
LINE
  5
4C0
330
1F
100
AcDbEntity
  8
0
  6
Continuous
 62
     7
370
    15
100
AcDbLine
 10
80.8155682004
 20
56.9611064178
 30
0.0
 11
78.9139943584
 21
56.9611064178
 31
0.0
  0
LINE
  5
4C1
330
1F
100
AcDbEntity
  8
0
  6
Continuous
 62
     7
370
    15
100
AcDbLine
 10
72.3514931569
 20
57.110712717
 30
0.0
 11
75.0030677198
 21
57.110712717
 31
0.0
  0
LINE
  5
4C2
330
1F
100
AcDbEntity
  8
0
  6
Continuous
 62
     7
370
    15
100
AcDbLine
 10
75.0030677198
 20
56.9611064178
 30
0.0
 11
72.3514931569
 21
56.9611064178
 31
0.0
  0
LINE
  5
4C3
330
1F
100
AcDbEntity
  8
0
  6
Continuous
 62
     7
370
    15
100
AcDbLine
 10
68.9764929166
 20
57.110712717
 30
0.0
 11
71.628068681
 21
57.110712717
 31
0.0
  0
LINE
  5
4C4
330
1F
100
AcDbEntity
  8
0
  6
Continuous
 62
     7
370
    15
100
AcDbLine
 10
71.628068681
 20
56.9611064178
 30
0.0
 11
68.9764929166
 21
56.9611064178
 31
0.0
  0
LINE
  5
4C5
330
1F
100
AcDbEntity
  8
0
  6
Continuous
 62
     7
370
    15
100
AcDbLine
 10
75.7264933972
 20
57.110712717
 30
0.0
 11
78.378220548
 21
57.110712717
 31
0.0
  0
LINE
  5
4C6
330
1F
100
AcDbEntity
  8
0
  6
Continuous
 62
     7
370
    15
100
AcDbLine
 10
78.378220548
 20
56.9611064178
 30
0.0
 11
75.7264933972
 21
56.9611064178
 31
0.0
  0
LINE
  5
4C7
330
1F
100
AcDbEntity
  8
0
  6
Continuous
 62
     7
370
    15
100
AcDbLine
 10
68.235414468
 20
57.4456044493
 30
0.0
 11
68.0926348291
 21
57.4456044493
 31
0.0
  0
LINE
  5
4C8
330
1F
100
AcDbEntity
  8
0
  6
Continuous
 62
     7
370
    15
100
AcDbLine
 10
68.7619261677
 20
57.4456044493
 30
0.0
 11
68.6191465288
 21
57.4456044493
 31
0.0
  0
LINE
  5
4C9
330
1F
100
AcDbEntity
  8
0
  6
Continuous
 62
     7
370
    15
100
AcDbLine
 10
68.6191465288
 20
57.5637146855
 30
0.0
 11
68.7619261677
 21
57.5637146855
 31
0.0
  0
LINE
  5
4CA
330
1F
100
AcDbEntity
  8
0
  6
Continuous
 62
     7
370
    15
100
AcDbLine
 10
68.0926348291
 20
57.5637146855
 30
0.0
 11
68.235414468
 21
57.5637146855
 31
0.0
  0
LINE
  5
4CB
330
1F
100
AcDbEntity
  8
0
  6
Continuous
 62
     7
370
    15
100
AcDbLine
 10
67.4764932771
 20
57.110712717
 30
0.0
 11
67.8780680802
 21
57.110712717
 31
0.0
  0
LINE
  5
4CC
330
1F
100
AcDbEntity
  8
0
  6
Continuous
 62
     7
370
    15
100
AcDbLine
 10
67.8780680802
 20
56.9611064178
 30
0.0
 11
67.4764932771
 21
56.9611064178
 31
0.0
  0
LINE
  5
4CD
330
1F
100
AcDbEntity
  8
0
  6
Continuous
 62
     7
370
    15
100
AcDbLine
 10
79.61454093
 20
55.3682855517
 30
0.0
 11
79.9542384618
 21
55.3682855517
 31
0.0
  0
LINE
  5
4CE
330
1F
100
AcDbEntity
  8
0
  6
Continuous
 62
     7
370
    15
100
AcDbLine
 10
79.61454093
 20
55.2385459999
 30
0.0
 11
79.61454093
 21
55.3682855517
 31
0.0
  0
LINE
  5
4CF
330
1F
100
AcDbEntity
  8
0
  6
Continuous
 62
     7
370
    15
100
AcDbLine
 10
79.937586622
 20
55.2385459999
 30
0.0
 11
79.61454093
 21
55.2385459999
 31
0.0
  0
LINE
  5
4D0
330
1F
100
AcDbEntity
  8
0
  6
Continuous
 62
     7
370
    15
100
AcDbLine
 10
79.8271052849
 20
55.1273406698
 30
0.0
 11
79.9364282332
 21
55.1273406698
 31
0.0
  0
LINE
  5
4D1
330
1F
100
AcDbEntity
  8
0
  6
Continuous
 62
     7
370
    15
100
AcDbLine
 10
79.8271052849
 20
54.997601118
 30
0.0
 11
79.8271052849
 21
55.1273406698
 31
0.0
  0
LINE
  5
4D2
330
1F
100
AcDbEntity
  8
0
  6
Continuous
 62
     7
370
    15
100
AcDbLine
 10
79.9364282332
 20
54.997601118
 30
0.0
 11
79.8271052849
 21
54.997601118
 31
0.0
  0
LINE
  5
4D3
330
1F
100
AcDbEntity
  8
0
  6
Continuous
 62
     7
370
    15
100
AcDbLine
 10
79.61454093
 20
54.8956628987
 30
0.0
 11
79.937586622
 21
54.8956628987
 31
0.0
  0
LINE
  5
4D4
330
1F
100
AcDbEntity
  8
0
  6
Continuous
 62
     7
370
    15
100
AcDbLine
 10
79.61454093
 20
54.7659233469
 30
0.0
 11
79.61454093
 21
54.8956628987
 31
0.0
  0
LINE
  5
4D5
330
1F
100
AcDbEntity
  8
0
  6
Continuous
 62
     7
370
    15
100
AcDbLine
 10
79.9535144688
 20
54.7659233469
 30
0.0
 11
79.61454093
 21
54.7659233469
 31
0.0
  0
ARC
  5
4D6
330
1F
100
AcDbEntity
  8
0
  6
Continuous
 62
     7
370
    15
100
AcDbCircle
 10
80.0914172044
 20
58.0174536287
 30
0.0
 40
0.137795275590593
100
AcDbArc
 50
270.0
 51
330.0
  0
ARC
  5
4D7
330
1F
100
AcDbEntity
  8
0
  6
Continuous
 62
     7
370
    15
100
AcDbCircle
 10
80.3755462739
 20
58.037138668
 30
0.0
 40
0.0984251968504282
100
AcDbArc
 50
90.0
 51
150.0
  0
ARC
  5
4D8
330
1F
100
AcDbEntity
  8
0
  6
Continuous
 62
     7
370
    15
100
AcDbCircle
 10
80.5234038409
 20
58.037138668
 30
0.0
 40
0.0984251968503378
100
AcDbArc
 50
36.4926137721
 51
90.0
  0
ARC
  5
4D9
330
1F
100
AcDbEntity
  8
0
  6
Continuous
 62
     7
370
    15
100
AcDbCircle
 10
80.8317969252
 20
58.0174536287
 30
0.0
 40
0.1377952755905056
100
AcDbArc
 50
216.4926137721
 51
270.0
  0
ARC
  5
4DA
330
1F
100
AcDbEntity
  8
0
  6
Continuous
 62
     7
370
    15
100
AcDbCircle
 10
80.917692812
 20
57.8009181956
 30
0.0
 40
0.0787401574802686
100
AcDbArc
 50
45.0
 51
90.0
  0
ARC
  5
4DB
330
1F
100
AcDbEntity
  8
0
  6
Continuous
 62
     7
370
    15
100
AcDbCircle
 10
80.9896781319
 20
57.7289328757
 30
0.0
 40
0.0787401574804107
100
AcDbArc
 50
0.0
 51
45.0
  0
ARC
  5
4DC
330
1F
100
AcDbEntity
  8
0
  6
Continuous
 62
     7
370
    15
100
AcDbCircle
 10
80.9936151397
 20
55.3791344417
 30
0.0
 40
0.0748031496061543
100
AcDbArc
 50
321.3401917459
 51
0.0
  0
ARC
  5
4DD
330
1F
100
AcDbEntity
  8
0
  6
Continuous
 62
     7
370
    15
100
AcDbCircle
 10
81.0724554761
 20
55.2255936063
 30
0.0
 40
0.0826771653544838
100
AcDbArc
 50
141.4514604057
 51
180.0868778545
  0
ARC
  5
4DE
330
1F
100
AcDbEntity
  8
0
  6
Continuous
 62
     7
370
    15
100
AcDbCircle
 10
81.0724555711
 20
54.0353274645
 30
0.0
 40
0.0826771653542266
100
AcDbArc
 50
180.0
 51
218.6598082541
  0
ARC
  5
4DF
330
1F
100
AcDbEntity
  8
0
  6
Continuous
 62
     7
370
    15
100
AcDbCircle
 10
80.9937154136
 20
53.881661156
 30
0.0
 40
0.0748031496063675
100
AcDbArc
 50
0.0
 51
38.6598082541
  0
ARC
  5
4E0
330
1F
100
AcDbEntity
  8
0
  6
Continuous
 62
     7
370
    15
100
AcDbCircle
 10
80.9897784058
 20
53.342886344
 30
0.0
 40
0.0787401574801549
100
AcDbArc
 50
315.0
 51
0.0000000001
  0
ARC
  5
4E1
330
1F
100
AcDbEntity
  8
0
  6
Continuous
 62
     7
370
    15
100
AcDbCircle
 10
80.9177930859
 20
53.2709010241
 30
0.0
 40
0.0787401574804056
100
AcDbArc
 50
270.0
 51
315.0
  0
ARC
  5
4E2
330
1F
100
AcDbEntity
  8
0
  6
Continuous
 62
     7
370
    15
100
AcDbCircle
 10
80.7989849091
 20
53.0543655911
 30
0.0
 40
0.1377952755905696
100
AcDbArc
 50
90.0
 51
150.0
  0
ARC
  5
4E3
330
1F
100
AcDbEntity
  8
0
  6
Continuous
 62
     7
370
    15
100
AcDbCircle
 10
80.5148551456
 20
53.0346793497
 30
0.0
 40
0.0984251968503855
100
AcDbArc
 50
270.0
 51
330.0
  0
ARC
  5
4E4
330
1F
100
AcDbEntity
  8
0
  6
Continuous
 62
     7
370
    15
100
AcDbCircle
 10
80.3756465478
 20
53.0346793497
 30
0.0
 40
0.0984251968504495
100
AcDbArc
 50
210.0
 51
270.0
  0
ARC
  5
4E5
330
1F
100
AcDbEntity
  8
0
  6
Continuous
 62
     7
370
    15
100
AcDbCircle
 10
80.0915167844
 20
53.0543655911
 30
0.0
 40
0.1377952755905648
100
AcDbArc
 50
30.0
 51
90.0
  0
ARC
  5
4E6
330
1F
100
AcDbEntity
  8
0
  6
Continuous
 62
     7
370
    15
100
AcDbCircle
 10
77.6493786098
 20
53.0543655911
 30
0.0
 40
0.1377952755905771
100
AcDbArc
 50
90.0
 51
150.0
  0
ARC
  5
4E7
330
1F
100
AcDbEntity
  8
0
  6
Continuous
 62
     7
370
    15
100
AcDbCircle
 10
77.3652488464
 20
53.0346793497
 30
0.0
 40
0.098425196850414
100
AcDbArc
 50
270.0
 51
330.0
  0
ARC
  5
4E8
330
1F
100
AcDbEntity
  8
0
  6
Continuous
 62
     7
370
    15
100
AcDbCircle
 10
77.226040259
 20
53.0346793497
 30
0.0
 40
0.0984251968503713
100
AcDbArc
 50
209.9999924147
 51
270.0
  0
ARC
  5
4E9
330
1F
100
AcDbEntity
  8
0
  6
Continuous
 62
     7
370
    15
100
AcDbCircle
 10
76.9418854186
 20
53.0544090679
 30
0.0
 40
0.1377952755906215
100
AcDbArc
 50
29.9999924148
 51
89.9999924147
  0
ARC
  5
4EA
330
1F
100
AcDbEntity
  8
0
  6
Continuous
 62
     7
370
    15
100
AcDbCircle
 10
75.6020593098
 20
53.0544092817
 30
0.0
 40
0.1377952755905448
100
AcDbArc
 50
89.9582981489
 51
150.0
  0
ARC
  5
4EB
330
1F
100
AcDbEntity
  8
0
  6
Continuous
 62
     7
370
    15
100
AcDbCircle
 10
75.3179042583
 20
53.0346792403
 30
0.0
 40
0.0984251968503997
100
AcDbArc
 50
270.0
 51
330.0
  0
ARC
  5
4EC
330
1F
100
AcDbEntity
  8
0
  6
Continuous
 62
     7
370
    15
100
AcDbCircle
 10
74.0763336755
 20
53.0346792403
 30
0.0
 40
0.0984251968503599
100
AcDbArc
 50
210.0
 51
270.0
  0
ARC
  5
4ED
330
1F
100
AcDbEntity
  8
0
  6
Continuous
 62
     7
370
    15
100
AcDbCircle
 10
73.7921785699
 20
53.0544093754
 30
0.0
 40
0.1377952755905779
100
AcDbArc
 50
30.0
 51
89.9999924147
  0
ARC
  5
4EE
330
1F
100
AcDbEntity
  8
0
  6
Continuous
 62
     7
370
    15
100
AcDbCircle
 10
71.3500912662
 20
53.0544096987
 30
0.0
 40
0.1377952755905282
100
AcDbArc
 50
89.9999924147
 51
150.0
  0
ARC
  5
4EF
330
1F
100
AcDbEntity
  8
0
  6
Continuous
 62
     7
370
    15
100
AcDbCircle
 10
71.0659359741
 20
53.0346792403
 30
0.0
 40
0.0984251968503855
100
AcDbArc
 50
270.0
 51
330.0
  0
ARC
  5
4F0
330
1F
100
AcDbEntity
  8
0
  6
Continuous
 62
     7
370
    15
100
AcDbCircle
 10
70.4542864314
 20
53.0346792403
 30
0.0
 40
0.0984251968504996
100
AcDbArc
 50
210.0
 51
270.0
  0
ARC
  5
4F1
330
1F
100
AcDbEntity
  8
0
  6
Continuous
 62
     7
370
    15
100
AcDbCircle
 10
70.1701310851
 20
53.0544097924
 30
0.0
 40
0.1377952755904926
100
AcDbArc
 50
30.0
 51
89.9999924148
  0
ARC
  5
4F2
330
1F
100
AcDbEntity
  8
0
  6
Continuous
 62
     7
370
    15
100
AcDbCircle
 10
68.2004852078
 20
53.0544101157
 30
0.0
 40
0.1377952755905566
100
AcDbArc
 50
89.9999924148
 51
150.0
  0
ARC
  5
4F3
330
1F
100
AcDbEntity
  8
0
  6
Continuous
 62
     7
370
    15
100
AcDbCircle
 10
67.9163296749
 20
53.0346792403
 30
0.0
 40
0.0984251968503287
100
AcDbArc
 50
270.0
 51
330.0
  0
ARC
  5
4F4
330
1F
100
AcDbEntity
  8
0
  6
Continuous
 62
     7
370
    15
100
AcDbCircle
 10
67.777121077
 20
53.0346792403
 30
0.0
 40
0.0984251968505063
100
AcDbArc
 50
210.0
 51
270.0
  0
ARC
  5
4F5
330
1F
100
AcDbEntity
  8
0
  6
Continuous
 62
     7
370
    15
100
AcDbCircle
 10
67.4929654953
 20
53.0544102003
 30
0.0
 40
0.1377952755905412
100
AcDbArc
 50
30.0
 51
90.0
  0
ARC
  5
4F6
330
1F
100
AcDbEntity
  8
0
  6
Continuous
 62
     7
370
    15
100
AcDbCircle
 10
67.3741679942
 20
53.2709456334
 30
0.0
 40
0.0787401574802549
100
AcDbArc
 50
225.0
 51
270.0
  0
ARC
  5
4F7
330
1F
100
AcDbEntity
  8
0
  6
Continuous
 62
     7
370
    15
100
AcDbCircle
 10
67.3021826744
 20
53.3429309532
 30
0.0
 40
0.0787401574804107
100
AcDbArc
 50
180.0
 51
225.0
  0
ARC
  5
4F8
330
1F
100
AcDbEntity
  8
0
  6
Continuous
 62
     7
370
    15
100
AcDbCircle
 10
67.2982456665
 20
54.1179038744
 30
0.0
 40
0.0748031496063584
100
AcDbArc
 50
141.3401917459
 51
180.0
  0
ARC
  5
4F9
330
1F
100
AcDbEntity
  8
0
  6
Continuous
 62
     7
370
    15
100
AcDbCircle
 10
67.219505509
 20
54.271570183
 30
0.0
 40
0.0826771653544717
100
AcDbArc
 50
321.3401917459
 51
360.0
  0
ARC
  5
4FA
330
1F
100
AcDbEntity
  8
0
  6
Continuous
 62
     7
370
    15
100
AcDbCircle
 10
67.219505509
 20
55.8554117484
 30
0.0
 40
0.0826771653545693
100
AcDbArc
 50
0.0
 51
38.659808254
  0
ARC
  5
4FB
330
1F
100
AcDbEntity
  8
0
  6
Continuous
 62
     7
370
    15
100
AcDbCircle
 10
67.2982456665
 20
56.009078057
 30
0.0
 40
0.0748031496063248
100
AcDbArc
 50
180.0
 51
218.6598082541
  0
ARC
  5
4FC
330
1F
100
AcDbEntity
  8
0
  6
Continuous
 62
     7
370
    15
100
AcDbCircle
 10
67.3021826744
 20
57.7289328679
 30
0.0
 40
0.0787401574803001
100
AcDbArc
 50
135.0
 51
180.0
  0
ARC
  5
4FD
330
1F
100
AcDbEntity
  8
0
  6
Continuous
 62
     7
370
    15
100
AcDbCircle
 10
67.3741679942
 20
57.8009181878
 30
0.0
 40
0.0787401574802473
100
AcDbArc
 50
90.0
 51
135.0
  0
ARC
  5
4FE
330
1F
100
AcDbEntity
  8
0
  6
Continuous
 62
     7
370
    15
100
AcDbCircle
 10
67.492992003
 20
58.0174536208
 30
0.0
 40
0.1377952755905341
100
AcDbArc
 50
270.0
 51
330.0
  0
ARC
  5
4FF
330
1F
100
AcDbEntity
  8
0
  6
Continuous
 62
     7
370
    15
100
AcDbCircle
 10
67.777121077
 20
58.037138668
 30
0.0
 40
0.0984251968504023
100
AcDbArc
 50
90.0
 51
150.0
  0
ARC
  5
500
330
1F
100
AcDbEntity
  8
0
  6
Continuous
 62
     7
370
    15
100
AcDbCircle
 10
67.9163296749
 20
58.037138668
 30
0.0
 40
0.0984251968504211
100
AcDbArc
 50
30.0
 51
90.0
  0
ARC
  5
501
330
1F
100
AcDbEntity
  8
0
  6
Continuous
 62
     7
370
    15
100
AcDbCircle
 10
68.2004587443
 20
58.0174536287
 30
0.0
 40
0.1377952755905348
100
AcDbArc
 50
210.0
 51
270.0
  0
ARC
  5
502
330
1F
100
AcDbEntity
  8
0
  6
Continuous
 62
     7
370
    15
100
AcDbCircle
 10
70.6425983068
 20
58.0174536287
 30
0.0
 40
0.1377952755905383
100
AcDbArc
 50
270.0
 51
330.0
  0
ARC
  5
503
330
1F
100
AcDbEntity
  8
0
  6
Continuous
 62
     7
370
    15
100
AcDbCircle
 10
70.9267273762
 20
58.037138668
 30
0.0
 40
0.0984251968504495
100
AcDbArc
 50
90.0
 51
150.0
  0
ARC
  5
504
330
1F
100
AcDbEntity
  8
0
  6
Continuous
 62
     7
370
    15
100
AcDbCircle
 10
71.0659359741
 20
58.037138668
 30
0.0
 40
0.0984251968503926
100
AcDbArc
 50
30.0
 51
90.0
  0
ARC
  5
505
330
1F
100
AcDbEntity
  8
0
  6
Continuous
 62
     7
370
    15
100
AcDbCircle
 10
71.3500650436
 20
58.0174536287
 30
0.0
 40
0.1377952755905412
100
AcDbArc
 50
210.0
 51
270.0
  0
ARC
  5
506
330
1F
100
AcDbEntity
  8
0
  6
Continuous
 62
     7
370
    15
100
AcDbCircle
 10
73.792204606
 20
58.0174536287
 30
0.0
 40
0.1377952755905506
100
AcDbArc
 50
270.0
 51
330.0
  0
ARC
  5
507
330
1F
100
AcDbEntity
  8
0
  6
Continuous
 62
     7
370
    15
100
AcDbCircle
 10
74.0763336755
 20
58.037138668
 30
0.0
 40
0.098425196850414
100
AcDbArc
 50
90.0
 51
150.0
  0
ARC
  5
508
330
1F
100
AcDbEntity
  8
0
  6
Continuous
 62
     7
370
    15
100
AcDbCircle
 10
74.2155422733
 20
58.037138668
 30
0.0
 40
0.0984251968504353
100
AcDbArc
 50
30.0
 51
90.0
  0
ARC
  5
509
330
1F
100
AcDbEntity
  8
0
  6
Continuous
 62
     7
370
    15
100
AcDbCircle
 10
74.4996713428
 20
58.0174536287
 30
0.0
 40
0.1377952755905127
100
AcDbArc
 50
210.0
 51
270.0
  0
ARC
  5
50A
330
1F
100
AcDbEntity
  8
0
  6
Continuous
 62
     7
370
    15
100
AcDbCircle
 10
76.9418109052
 20
58.0174536287
 30
0.0
 40
0.1377952755905838
100
AcDbArc
 50
270.0
 51
330.0
  0
ARC
  5
50B
330
1F
100
AcDbEntity
  8
0
  6
Continuous
 62
     7
370
    15
100
AcDbCircle
 10
77.2259399747
 20
58.037138668
 30
0.0
 40
0.0984251968503777
100
AcDbArc
 50
90.0
 51
150.0
  0
ARC
  5
50C
330
1F
100
AcDbEntity
  8
0
  6
Continuous
 62
     7
370
    15
100
AcDbCircle
 10
77.3651485725
 20
58.037138668
 30
0.0
 40
0.0984251968504466
100
AcDbArc
 50
30.0
 51
90.0
  0
ARC
  5
50D
330
1F
100
AcDbEntity
  8
0
  6
Continuous
 62
     7
370
    15
100
AcDbCircle
 10
77.649277642
 20
58.0174536287
 30
0.0
 40
0.1377952755904559
100
AcDbArc
 50
210.0
 51
270.0
  0
ARC
  5
50E
330
1F
100
AcDbEntity
  8
0
  6
Continuous
 62
     7
370
    15
100
AcDbCircle
 10
78.4416063747
 20
57.8402882743
 30
0.0
 40
0.0393700787401414
100
AcDbArc
 50
360.0
 51
90.0
  0
ARC
  5
50F
330
1F
100
AcDbEntity
  8
0
  6
Continuous
 62
     7
370
    15
100
AcDbCircle
 10
78.5203465322
 20
57.7900926383
 30
0.0
 40
0.0393700787401627
100
AcDbArc
 50
180.0
 51
270.0
  0
ARC
  5
510
330
1F
100
AcDbEntity
  8
0
  6
Continuous
 62
     7
370
    15
100
AcDbCircle
 10
78.7718683741
 20
57.7900926383
 30
0.0
 40
0.0393700787401627
100
AcDbArc
 50
270.0
 51
360.0
  0
ARC
  5
511
330
1F
100
AcDbEntity
  8
0
  6
Continuous
 62
     7
370
    15
100
AcDbCircle
 10
78.8506085316
 20
57.8402882743
 30
0.0
 40
0.0393700787401627
100
AcDbArc
 50
90.0
 51
180.0
  0
ARC
  5
512
330
1F
100
AcDbEntity
  8
0
  6
Continuous
 62
     7
370
    15
100
AcDbCircle
 10
78.9139943584
 20
57.0359095674
 30
0.0
 40
0.0748031496063035
100
AcDbArc
 50
90.0
 51
270.0
  0
ARC
  5
513
330
1F
100
AcDbEntity
  8
0
  6
Continuous
 62
     7
370
    15
100
AcDbCircle
 10
80.8155682004
 20
57.0359095674
 30
0.0
 40
0.0748031496063035
100
AcDbArc
 50
270.0
 51
90.0
  0
ARC
  5
514
330
1F
100
AcDbEntity
  8
0
  6
Continuous
 62
     7
370
    15
100
AcDbCircle
 10
72.3514931569
 20
57.0359095674
 30
0.0
 40
0.0748031496063035
100
AcDbArc
 50
90.0
 51
270.0
  0
ARC
  5
515
330
1F
100
AcDbEntity
  8
0
  6
Continuous
 62
     7
370
    15
100
AcDbCircle
 10
75.0030677198
 20
57.0359095674
 30
0.0
 40
0.0748031496063035
100
AcDbArc
 50
270.0
 51
90.0
  0
ARC
  5
516
330
1F
100
AcDbEntity
  8
0
  6
Continuous
 62
     7
370
    15
100
AcDbCircle
 10
68.9764929166
 20
57.0359095674
 30
0.0
 40
0.0748031496063035
100
AcDbArc
 50
90.0
 51
270.0
  0
ARC
  5
517
330
1F
100
AcDbEntity
  8
0
  6
Continuous
 62
     7
370
    15
100
AcDbCircle
 10
71.628068681
 20
57.0359095674
 30
0.0
 40
0.0748031496063035
100
AcDbArc
 50
270.0
 51
90.0
  0
ARC
  5
518
330
1F
100
AcDbEntity
  8
0
  6
Continuous
 62
     7
370
    15
100
AcDbCircle
 10
75.7264933972
 20
57.0359095674
 30
0.0
 40
0.0748031496063035
100
AcDbArc
 50
90.0
 51
270.0
  0
ARC
  5
519
330
1F
100
AcDbEntity
  8
0
  6
Continuous
 62
     7
370
    15
100
AcDbCircle
 10
78.378220548
 20
57.0359095674
 30
0.0
 40
0.0748031496063035
100
AcDbArc
 50
270.0
 51
90.0
  0
ARC
  5
51A
330
1F
100
AcDbEntity
  8
0
  6
Continuous
 62
     7
370
    15
100
AcDbCircle
 10
68.235414468
 20
57.3668642918
 30
0.0
 40
0.0787401574803057
100
AcDbArc
 50
35.6853347126
 51
90.0
  0
ARC
  5
51B
330
1F
100
AcDbEntity
  8
0
  6
Continuous
 62
     7
370
    15
100
AcDbCircle
 10
68.4272804984
 20
57.5046595674
 30
0.0
 40
0.1574803149606345
100
AcDbArc
 50
215.6853347126
 51
324.3146652874
  0
ARC
  5
51C
330
1F
100
AcDbEntity
  8
0
  6
Continuous
 62
     7
370
    15
100
AcDbCircle
 10
68.6191465288
 20
57.3668642918
 30
0.0
 40
0.0787401574803338
100
AcDbArc
 50
90.0
 51
144.3146652873
  0
ARC
  5
51D
330
1F
100
AcDbEntity
  8
0
  6
Continuous
 62
     7
370
    15
100
AcDbCircle
 10
68.7619261677
 20
57.5046595674
 30
0.0
 40
0.0590551181102441
100
AcDbArc
 50
270.0
 51
90.0
  0
ARC
  5
51E
330
1F
100
AcDbEntity
  8
0
  6
Continuous
 62
     7
370
    15
100
AcDbCircle
 10
68.6191465288
 20
57.642454843
 30
0.0
 40
0.0787401574803823
100
AcDbArc
 50
215.6853347127
 51
270.0
  0
ARC
  5
51F
330
1F
100
AcDbEntity
  8
0
  6
Continuous
 62
     7
370
    15
100
AcDbCircle
 10
68.4272804984
 20
57.5046595674
 30
0.0
 40
0.157480314960609
100
AcDbArc
 50
35.6853347127
 51
144.3146652873
  0
ARC
  5
520
330
1F
100
AcDbEntity
  8
0
  6
Continuous
 62
     7
370
    15
100
AcDbCircle
 10
68.235414468
 20
57.642454843
 30
0.0
 40
0.0787401574803569
100
AcDbArc
 50
270.0
 51
324.3146652874
  0
ARC
  5
521
330
1F
100
AcDbEntity
  8
0
  6
Continuous
 62
     7
370
    15
100
AcDbCircle
 10
68.0926348291
 20
57.5046595674
 30
0.0
 40
0.0590551181102299
100
AcDbArc
 50
90.0
 51
270.0
  0
ARC
  5
522
330
1F
100
AcDbEntity
  8
0
  6
Continuous
 62
     7
370
    15
100
AcDbCircle
 10
67.4764932771
 20
57.0359095674
 30
0.0
 40
0.0748031496063035
100
AcDbArc
 50
90.0
 51
270.0
  0
ARC
  5
523
330
1F
100
AcDbEntity
  8
0
  6
Continuous
 62
     7
370
    15
100
AcDbCircle
 10
67.8780680802
 20
57.0359095674
 30
0.0
 40
0.0748031496063035
100
AcDbArc
 50
270.0
 51
90.0
  0
MTEXT
  5
525
330
1F
100
AcDbEntity
  8
0
  6
Continuous
 62
     7
100
AcDbMText
 10
67.2234425169
 20
52.8961136343
 30
0.0
 40
0.1903
 41
0.0
 71
     1
 72
     1
  1
SolidWorks Student Edition.
  7
SLDTEXTSTYLE0
 73
     1
 44
1.0
  0
MTEXT
  5
526
330
1F
100
AcDbEntity
  8
0
  6
Continuous
 62
     7
100
AcDbMText
 10
67.2234425169
 20
52.6106636343
 30
0.0
 40
0.1903
 41
0.0
 71
     1
 72
     1
  1
For Academic Use Only.
  7
SLDTEXTSTYLE0
 73
     1
 44
1.0
  0
ENDSEC
  0
SECTION
  2
OBJECTS
  0
DICTIONARY
  5
C
330
0
100
AcDbDictionary
281
     1
  3
ACAD_GROUP
350
D
  3
ACAD_LAYOUT
350
1A
  3
ACAD_MLINESTYLE
350
17
  3
ACAD_PLOTSETTINGS
350
19
  3
ACAD_PLOTSTYLENAME
350
E
  3
ACAD_SCALELIST
350
47
  0
DICTIONARY
  5
D
102
{ACAD_REACTORS
330
C
102
}
330
C
100
AcDbDictionary
281
     1
  0
DICTIONARY
  5
1A
102
{ACAD_REACTORS
330
C
102
}
330
C
100
AcDbDictionary
281
     1
  3
Layout1
350
1E
  3
Layout2
350
26
  3
Model
350
22
  0
DICTIONARY
  5
17
102
{ACAD_REACTORS
330
C
102
}
330
C
100
AcDbDictionary
281
     1
  3
Standard
350
18
  0
DICTIONARY
  5
19
102
{ACAD_REACTORS
330
C
102
}
330
C
100
AcDbDictionary
281
     1
  0
ACDBDICTIONARYWDFLT
  5
E
102
{ACAD_REACTORS
330
C
102
}
330
C
100
AcDbDictionary
281
     1
  3
Normal
350
F
100
AcDbDictionaryWithDefault
340
F
  0
DICTIONARY
  5
47
102
{ACAD_REACTORS
330
C
102
}
330
C
100
AcDbDictionary
281
     1
  3
A0
350
48
  3
A1
350
49
  3
A2
350
4A
  3
A3
350
4B
  3
A4
350
4C
  3
A5
350
4D
  3
A6
350
4E
  3
A7
350
4F
  3
A8
350
50
  3
A9
350
51
  3
B0
350
52
  3
B1
350
53
  3
B2
350
54
  3
B3
350
55
  3
B4
350
56
  3
B5
350
57
  3
B6
350
58
  3
B7
350
59
  3
B8
350
5A
  3
B9
350
5B
  3
C0
350
5C
  3
C1
350
5D
  3
C2
350
5E
  3
C3
350
5F
  3
C4
350
60
  3
C5
350
61
  3
C6
350
62
  3
C7
350
63
  3
C8
350
64
  3
C9
350
65
  3
D0
350
66
  3
D1
350
67
  3
D2
350
68
  0
LAYOUT
  5
1E
102
{ACAD_REACTORS
330
1A
102
}
330
1A
100
AcDbPlotSettings
  1

  2
none_device
  4

  6

 40
0.0
 41
0.0
 42
0.0
 43
0.0
 44
0.0
 45
0.0
 46
0.0
 47
0.0
 48
0.0
 49
0.0
140
0.0
141
0.0
142
1.0
143
1.0
 70
   688
 72
     0
 73
     0
 74
     5
  7

 75
    16
147
1.0
148
0.0
149
0.0
100
AcDbLayout
  1
Layout1
 70
     1
 71
     1
 10
0.0
 20
0.0
 11
12.0
 21
9.0
 12
0.0
 22
0.0
 32
0.0
 14
1.0000000000E+20
 24
1.0000000000E+20
 34
1.0000000000E+20
 15
-1.0000000000E+20
 25
-1.0000000000E+20
 35
-1.0000000000E+20
146
0.0
 13
0.0
 23
0.0
 33
0.0
 16
1.0
 26
0.0
 36
0.0
 17
0.0
 27
1.0
 37
0.0
 76
     0
330
1B
  0
LAYOUT
  5
26
102
{ACAD_REACTORS
330
1A
102
}
330
1A
100
AcDbPlotSettings
  1

  2
none_device
  4

  6

 40
0.0
 41
0.0
 42
0.0
 43
0.0
 44
0.0
 45
0.0
 46
0.0
 47
0.0
 48
0.0
 49
0.0
140
0.0
141
0.0
142
1.0
143
1.0
 70
   688
 72
     0
 73
     0
 74
     5
  7

 75
    16
147
1.0
148
0.0
149
0.0
100
AcDbLayout
  1
Layout2
 70
     1
 71
     2
 10
0.0
 20
0.0
 11
0.0
 21
0.0
 12
0.0
 22
0.0
 32
0.0
 14
0.0
 24
0.0
 34
0.0
 15
0.0
 25
0.0
 35
0.0
146
0.0
 13
0.0
 23
0.0
 33
0.0
 16
1.0
 26
0.0
 36
0.0
 17
0.0
 27
1.0
 37
0.0
 76
     0
330
23
  0
LAYOUT
  5
22
102
{ACAD_REACTORS
330
1A
102
}
330
1A
100
AcDbPlotSettings
  1

  2
none_device
  4
ANSI_A_(11.00_x_8.50_Inches)
  6

 40
6.35
 41
19.05
 42
6.35000508
 43
19.05000254
 44
279.4
 45
215.9
 46
-1347.9869792791
 47
-1020.6327752844
 48
0.0
 49
0.0
140
0.0
141
0.0
142
0.7865612268
143
1.0
 70
  1696
 72
     0
 73
     0
 74
     0
  7

 75
     0
147
0.5913241897
148
-39.4088153714
149
0.0
100
AcDbLayout
  1
Model
 70
     1
 71
     0
 10
0.0
 20
0.0
 11
12.0
 21
9.0
 12
0.0
 22
0.0
 32
0.0
 14
67.2234425169
 24
52.9362540435
 34
0.0
 15
81.0685185633
 25
58.1355638649
 35
0.0
146
0.0
 13
0.0
 23
0.0
 33
0.0
 16
1.0
 26
0.0
 36
0.0
 17
0.0
 27
1.0
 37
0.0
 76
     0
330
1F
331
29
  0
MLINESTYLE
  5
18
102
{ACAD_REACTORS
330
17
102
}
330
17
100
AcDbMlineStyle
  2
Standard
 70
     0
  3

 62
   256
 51
90.0
 52
90.0
 71
     2
 49
0.5
 62
   256
  6
BYLAYER
 49
-0.5
 62
   256
  6
BYLAYER
  0
ACDBPLACEHOLDER
  5
F
102
{ACAD_REACTORS
330
E
102
}
330
E
  0
SCALE
  5
48
102
{ACAD_REACTORS
330
47
102
}
330
47
100
AcDbScale
 70
     0
300
1:1
140
1.0
141
1.0
290
     1
  0
SCALE
  5
49
102
{ACAD_REACTORS
330
47
102
}
330
47
100
AcDbScale
 70
     0
300
1:2
140
1.0
141
2.0
290
     0
  0
SCALE
  5
4A
102
{ACAD_REACTORS
330
47
102
}
330
47
100
AcDbScale
 70
     0
300
1:4
140
1.0
141
4.0
290
     0
  0
SCALE
  5
4B
102
{ACAD_REACTORS
330
47
102
}
330
47
100
AcDbScale
 70
     0
300
1:5
140
1.0
141
5.0
290
     0
  0
SCALE
  5
4C
102
{ACAD_REACTORS
330
47
102
}
330
47
100
AcDbScale
 70
     0
300
1:8
140
1.0
141
8.0
290
     0
  0
SCALE
  5
4D
102
{ACAD_REACTORS
330
47
102
}
330
47
100
AcDbScale
 70
     0
300
1:10
140
1.0
141
10.0
290
     0
  0
SCALE
  5
4E
102
{ACAD_REACTORS
330
47
102
}
330
47
100
AcDbScale
 70
     0
300
1:16
140
1.0
141
16.0
290
     0
  0
SCALE
  5
4F
102
{ACAD_REACTORS
330
47
102
}
330
47
100
AcDbScale
 70
     0
300
1:20
140
1.0
141
20.0
290
     0
  0
SCALE
  5
50
102
{ACAD_REACTORS
330
47
102
}
330
47
100
AcDbScale
 70
     0
300
1:30
140
1.0
141
30.0
290
     0
  0
SCALE
  5
51
102
{ACAD_REACTORS
330
47
102
}
330
47
100
AcDbScale
 70
     0
300
1:40
140
1.0
141
40.0
290
     0
  0
SCALE
  5
52
102
{ACAD_REACTORS
330
47
102
}
330
47
100
AcDbScale
 70
     0
300
1:50
140
1.0
141
50.0
290
     0
  0
SCALE
  5
53
102
{ACAD_REACTORS
330
47
102
}
330
47
100
AcDbScale
 70
     0
300
1:100
140
1.0
141
100.0
290
     0
  0
SCALE
  5
54
102
{ACAD_REACTORS
330
47
102
}
330
47
100
AcDbScale
 70
     0
300
2:1
140
2.0
141
1.0
290
     0
  0
SCALE
  5
55
102
{ACAD_REACTORS
330
47
102
}
330
47
100
AcDbScale
 70
     0
300
4:1
140
4.0
141
1.0
290
     0
  0
SCALE
  5
56
102
{ACAD_REACTORS
330
47
102
}
330
47
100
AcDbScale
 70
     0
300
8:1
140
8.0
141
1.0
290
     0
  0
SCALE
  5
57
102
{ACAD_REACTORS
330
47
102
}
330
47
100
AcDbScale
 70
     0
300
10:1
140
10.0
141
1.0
290
     0
  0
SCALE
  5
58
102
{ACAD_REACTORS
330
47
102
}
330
47
100
AcDbScale
 70
     0
300
100:1
140
100.0
141
1.0
290
     0
  0
SCALE
  5
59
102
{ACAD_REACTORS
330
47
102
}
330
47
100
AcDbScale
 70
     0
300
1/128" = 1'-0"
140
0.0078125
141
12.0
290
     0
  0
SCALE
  5
5A
102
{ACAD_REACTORS
330
47
102
}
330
47
100
AcDbScale
 70
     0
300
1/64" = 1'-0"
140
0.015625
141
12.0
290
     0
  0
SCALE
  5
5B
102
{ACAD_REACTORS
330
47
102
}
330
47
100
AcDbScale
 70
     0
300
1/32" = 1'-0"
140
0.03125
141
12.0
290
     0
  0
SCALE
  5
5C
102
{ACAD_REACTORS
330
47
102
}
330
47
100
AcDbScale
 70
     0
300
1/16" = 1'-0"
140
0.0625
141
12.0
290
     0
  0
SCALE
  5
5D
102
{ACAD_REACTORS
330
47
102
}
330
47
100
AcDbScale
 70
     0
300
3/32" = 1'-0"
140
0.09375
141
12.0
290
     0
  0
SCALE
  5
5E
102
{ACAD_REACTORS
330
47
102
}
330
47
100
AcDbScale
 70
     0
300
1/8" = 1'-0"
140
0.125
141
12.0
290
     0
  0
SCALE
  5
5F
102
{ACAD_REACTORS
330
47
102
}
330
47
100
AcDbScale
 70
     0
300
3/16" = 1'-0"
140
0.1875
141
12.0
290
     0
  0
SCALE
  5
60
102
{ACAD_REACTORS
330
47
102
}
330
47
100
AcDbScale
 70
     0
300
1/4" = 1'-0"
140
0.25
141
12.0
290
     0
  0
SCALE
  5
61
102
{ACAD_REACTORS
330
47
102
}
330
47
100
AcDbScale
 70
     0
300
3/8" = 1'-0"
140
0.375
141
12.0
290
     0
  0
SCALE
  5
62
102
{ACAD_REACTORS
330
47
102
}
330
47
100
AcDbScale
 70
     0
300
1/2" = 1'-0"
140
0.5
141
12.0
290
     0
  0
SCALE
  5
63
102
{ACAD_REACTORS
330
47
102
}
330
47
100
AcDbScale
 70
     0
300
3/4" = 1'-0"
140
0.75
141
12.0
290
     0
  0
SCALE
  5
64
102
{ACAD_REACTORS
330
47
102
}
330
47
100
AcDbScale
 70
     0
300
1" = 1'-0"
140
1.0
141
12.0
290
     0
  0
SCALE
  5
65
102
{ACAD_REACTORS
330
47
102
}
330
47
100
AcDbScale
 70
     0
300
1-1/2" = 1'-0"
140
1.5
141
12.0
290
     0
  0
SCALE
  5
66
102
{ACAD_REACTORS
330
47
102
}
330
47
100
AcDbScale
 70
     0
300
3" = 1'-0"
140
3.0
141
12.0
290
     0
  0
SCALE
  5
67
102
{ACAD_REACTORS
330
47
102
}
330
47
100
AcDbScale
 70
     0
300
6" = 1'-0"
140
6.0
141
12.0
290
     0
  0
SCALE
  5
68
102
{ACAD_REACTORS
330
47
102
}
330
47
100
AcDbScale
 70
     0
300
1'-0" = 1'-0"
140
12.0
141
12.0
290
     0
  0
ENDSEC
  0
EOF
