0
SECTION
2
HEADER
9
$INSUNITS
70
4
9
$ACADVER
1
AC1014
9
$HANDSEED
5
FFFF
0
ENDSEC
0
SECTION
2
TABLES
0
TABLE
2
VPORT
5
8
100
AcDbSymbolTable
0
ENDTAB
0
TABLE
2
LTYPE
5
5
100
AcDbSymbolTable
0
LTYPE
5
14
100
AcDbSymbolTableRecord
100
AcDbLinetypeTableRecord
2
BYBLOCK
70
0
0
LTYPE
5
15
100
AcDbSymbolTableRecord
100
AcDbLinetypeTableRecord
2
BYLAYER
70
0
0
ENDTAB
0
TABLE
2
LAYER
5
2
100
AcDbSymbolTable
70
2
0
LAYER
5
50
100
AcDbSymbolTableRecord
100
AcDbLayerTableRecord
2
0
70
0
6
CONTINUOUS
0
ENDTAB
0
TABLE
2
STYLE
5
3
100
AcDbSymbolTable
70
1
0
STYLE
5
11
100
AcDbSymbolTableRecord
100
AcDbTextStyleTableRecord
2
STANDARD
70
0
0
ENDTAB
0
TABLE
2
VIEW
5
6
100
AcDbSymbolTable
70
0
0
ENDTAB
0
TABLE
2
UCS
5
7
100
AcDbSymbolTable
70
0
0
ENDTAB
0
TABLE
2
APPID
5
9
100
AcDbSymbolTable
70
2
0
APPID
5
12
100
AcDbSymbolTableRecord
100
AcDbRegAppTableRecord
2
ACAD
70
0
0
ENDTAB
0
TABLE
2
DIMSTYLE
5
A
100
AcDbSymbolTable
70
1
0
ENDTAB
0
TABLE
2
BLOCK_RECORD
5
1
100
AcDbSymbolTable
70
1
0
BLOCK_RECORD
5
1F
100
AcDbSymbolTableRecord
100
AcDbBlockTableRecord
2
*MODEL_SPACE
0
BLOCK_RECORD
5
1B
100
AcDbSymbolTableRecord
100
AcDbBlockTableRecord
2
*PAPER_SPACE
0
ENDTAB
0
ENDSEC
0
SECTION
2
BLOCKS
0
BLOCK
5
20
100
AcDbEntity
100
AcDbBlockBegin
2
*MODEL_SPACE
0
ENDBLK
5
21
100
AcDbEntity
100
AcDbBlockEnd
0
BLOCK
5
1C
100
AcDbEntity
100
AcDbBlockBegin
2
*PAPER_SPACE
0
ENDBLK
5
1D
100
AcDbEntity
100
AcDbBlockEnd
0
ENDSEC
0
SECTION
2
ENTITIES
0
LWPOLYLINE
5
100
100
AcDbEntity
8
0
100
AcDbPolyline
90
12
70
1
43
0.0
10
302.0065315068025
20
38.685572031907881
42
-0.41421356237309398
10
307.0065315068025
20
33.685572031907896
10
307.00653150680267
20
-79.654427968092023
42
-0.41421356237309293
10
302.00653150680267
20
-84.654427968092008
10
220.73420207397632
20
-84.654427968092008
10
132.9542491395118
20
-103.31263294739779
42
-0.10510423526567313
10
116.32131387409146
20
-103.31263294739777
10
28.541360939627083
20
-84.654427968092023
10
-52.232218493197138
20
-84.654427968092079
42
-0.41421356237308982
10
-57.232218493197138
20
-79.654427968092023
10
-57.232218493197102
20
33.685572031907881
42
-0.41421356237308982
10
-52.232218493197138
20
38.685572031907896
0
LWPOLYLINE
5
101
100
AcDbEntity
8
0
100
AcDbPolyline
90
44
70
1
43
0.0
10
293.03653150680361
20
-53.134427968092233
10
290.86338150680365
20
-53.134427968092233
10
290.86338150680353
20
-70.732427968092225
42
-0.41421356237309503
10
289.36338150680353
20
-72.232427968092196
10
262.76338150680374
20
-72.232427968092423
42
-0.41421356237309503
10
261.26338150680351
20
-70.732427968092225
10
261.26338150680351
20
-53.134427968092233
10
210.0495473144187
20
-53.134427968092233
10
213.61807124433204
20
-69.923013095156904
42
-0.41421356237309798
10
212.4627173794579
20
-71.702102032484333
10
186.46354890737899
20
-77.228395889189031
42
-0.41343065285069952
10
184.68529907257889
20
-76.07696390277863
10
134.37214777410389
20
-86.771354349566195
42
-0.41421356237310863
10
132.59305883677641
20
-85.616000484692194
10
125.08386314778691
20
-50.288012348306658
42
-0.41421356237311441
10
126.23921701266099
20
-48.508923410979214
10
134.09171854493863
20
-46.839822684769707
10
130.34227906085661
20
-29.200096794289898
10
127.1495367314462
20
-29.878735126127786
42
-0.41421356237306789
10
125.370447794119
20
-28.723381261253671
10
121.82347434876795
20
-12.036183192734937
42
-0.41421356237307078
10
122.97882821364183
20
-10.257094255407644
10
130.82379570184685
20
-8.5895949397017191
10
127.17347434876798
20
8.5838168072650554
42
-0.41421356237308149
10
128.32882821364208
20
10.362905744592332
10
202.26784982059473
20
26.079129950611737
42
-0.042377065210176174
10
202.51968448159317
20
26.110706752703088
10
205.10777709856143
20
26.21437023509996
42
-0.010008486346810083
10
205.16780997378945
20
26.215572031907861
10
223.69778150680361
20
26.215572031907577
42
-0.41421356237309503
10
225.19778150680338
20
24.715572031907804
10
225.19778150680338
20
24.075572031907804
10
280.42778150680363
20
24.075572031907733
42
-0.41421356237309503
10
281.92778150680351
20
22.575572031907818
10
281.9277815068034
20
5.0255720319078634
10
284.59778150680347
20
5.0255720319078634
42
-0.41421356237309503
10
286.09778150680359
20
3.5255720319078065
10
286.0977815068037
20
-14.024427968092148
10
288.85778150680352
20
-14.024427968092148
42
-0.41421356237309503
10
290.35778150680358
20
-15.524427968092205
10
290.35778150680358
20
-33.074427968092159
10
293.03653150680361
20
-33.074427968092444
42
-0.41421356237309503
10
294.53653150680339
20
-34.574427968092216
10
294.53653150680367
20
-51.634427968092176
42
-0.41421356237309503
0
CIRCLE
5
102
100
AcDbEntity
8
0
100
AcDbCircle
10
296.30653150680257
20
27.98557203190791
30
0
40
1.7500000000000007
0
LWPOLYLINE
5
103
100
AcDbEntity
8
0
100
AcDbPolyline
90
20
70
1
43
0.0
10
-16.472218493196422
20
7.6555720319078446
42
-0.41421356237309503
10
-17.972218493196408
20
6.1555720319078588
10
-20.632218493196604
20
6.1555720319078588
10
-20.632218493196604
20
-11.394427968092238
42
-0.41421356237309503
10
-22.132218493196518
20
-12.894427968092153
10
-24.702218493196568
20
-12.894427968092153
10
-24.702218493196568
20
-30.444427968092178
42
-0.41421356237309503
10
-26.202218493196554
20
-31.944427968092164
10
-43.262218493196514
20
-31.944427968092164
42
-0.41421356237309503
10
-44.762218493196499
20
-30.444427968092178
10
-44.762218493196499
20
-13.384427968092147
42
-0.41421356237309503
10
-43.262218493196514
20
-11.884427968092162
10
-40.692218493196606
20
-11.884427968092162
10
-40.692218493196606
20
5.6655720319077929
42
-0.41421356237309503
10
-39.192218493196478
20
7.1655720319079208
10
-36.532218493196496
20
7.1655720319078497
10
-36.532218493196496
20
24.715572031907875
42
-0.41421356237309503
10
-35.03221849319651
20
26.215572031907861
10
-17.972218493196408
20
26.21557203190779
42
-0.41421356237309503
10
-16.472218493196493
20
24.715572031907875
0
LWPOLYLINE
5
104
100
AcDbEntity
8
0
100
AcDbPolyline
90
44
70
1
43
0.0
10
-21.742218493196503
20
-15.524427968092205
42
-0.41421356237309503
10
-20.242218493196447
20
-14.024427968092148
10
-17.672218493196468
20
-14.024427968092148
10
-17.67221849319661
20
3.5255720319078065
42
-0.41421356237309503
10
-16.172218493196624
20
5.0255720319077923
10
-13.512218493196499
20
5.0255720319077923
10
-13.512218493196499
20
22.575572031907818
42
-0.41421356237309503
10
-12.012218493196514
20
24.075572031907804
10
24.177781506803413
20
24.075572031907804
10
24.177781506803555
20
24.715572031907875
42
-0.41421356237309503
10
25.677781506803541
20
26.215572031907861
10
42.737781506803429
20
26.215572031907932
42
-0.41421356237309503
10
44.237781506803486
20
24.715572031907875
10
44.237781506803486
20
24.70702719644347
10
121.03673479996502
20
8.3829057445924846
42
-0.41421356237310863
10
122.1920886648391
20
6.6038168072650549
10
118.64511521948822
20
-10.083381261253646
42
-0.41421356237310575
10
116.86602628216093
20
-11.238735126127715
10
109.01542208133591
20
-9.570037690168185
10
105.2641288223171
20
-27.218484906031684
10
108.45673479996491
20
-27.897094255407616
42
-0.41421356237308438
10
109.61208866483901
20
-29.676183192734875
10
105.96380099497551
20
-46.840027212413595
10
113.80673479996504
20
-48.507094255407566
42
-0.41421356237306212
10
114.96208866483911
20
-50.286183192735017
10
111.31285800088975
20
-67.454463650783481
10
118.94673479996497
20
-69.077094255407417
42
-0.41421356237308438
10
120.10208866483907
20
-70.856183192734676
10
116.55511521948821
20
-87.5433812612536
42
-0.41421356237306212
10
114.7760262821609
20
-88.698735126127815
10
55.361776783509384
20
-76.069846538489941
10
55.361097798981106
20
-76.073040909546307
42
-0.41421356237308149
10
53.582008861653634
20
-77.22839477442048
10
27.582845634149113
20
-71.702102032484319
42
-0.41421356237308149
10
26.427491769275093
20
-69.923013095156989
10
29.996015699188376
20
-53.134427968092233
10
3.6877815068035602
20
-53.134427968092233
10
3.6877815068035602
20
-70.684427968092194
42
-0.41421356237309503
10
2.1877815068035034
20
-72.184427968092251
10
-24.412218493196463
20
-72.184427968092251
42
-0.41421356237309503
10
-25.912218493196519
20
-70.684427968092194
10
-25.912218493196519
20
-34.574427968092216
42
-0.41421356237309503
10
-24.412218493196463
20
-33.074427968092159
10
-21.742218493196503
20
-33.074427968092159
0
CIRCLE
5
105
100
AcDbEntity
8
0
100
AcDbCircle
10
-46.532218493197064
20
27.985572031907893
30
0
40
1.7500000000000002
0
LINE
5
106
100
AcDbEntity
8
0
100
AcDbLine
10
-46.473229570897274
20
29.734577551351986
30
0
11
-46.539221725975395
21
29.734577551351986
31
0
0
CIRCLE
5
107
100
AcDbEntity
8
0
100
AcDbCircle
10
68.467781506802936
20
-83.42881499242425
30
0
40
1.7500000000000049
0
CIRCLE
5
108
100
AcDbEntity
8
0
100
AcDbCircle
10
68.455215602881481
20
29.68557203190791
30
0
40
1.7500000000000016
0
CIRCLE
5
109
100
AcDbEntity
8
0
100
AcDbCircle
10
-46.532218493197064
20
-73.954427968092034
30
0
40
1.7499999999999918
0
CIRCLE
5
110
100
AcDbEntity
8
0
100
AcDbCircle
10
181.3065315068026
20
-83.322802407290837
30
0
40
1.7500000000000002
0
CIRCLE
5
111
100
AcDbEntity
8
0
100
AcDbCircle
10
181.3065315068026
20
29.18557203190792
30
0
40
1.750000000000006
0
CIRCLE
5
112
100
AcDbEntity
8
0
100
AcDbCircle
10
296.30653150680257
20
-73.954427968092006
30
0
40
1.749999999999996
0
LWPOLYLINE
5
113
100
AcDbEntity
8
0
100
AcDbPolyline
90
44
70
1
43
0.0
10
554.68529907257891
20
-76.07696390277863
10
504.37214777410389
20
-86.771354349566195
42
-0.41421356237310863
10
502.59305883677644
20
-85.616000484692194
10
495.08386314778693
20
-50.288012348306658
42
-0.41421356237311441
10
496.23921701266102
20
-48.508923410979214
10
504.09171854493866
20
-46.839822684769707
10
500.34227906085664
20
-29.200096794289898
10
497.14953673144623
20
-29.878735126127786
42
-0.41421356237306789
10
495.370447794119
20
-28.723381261253671
10
491.82347434876795
20
-12.036183192734937
42
-0.41421356237307078
10
492.9788282136418
20
-10.257094255407644
10
500.82379570184685
20
-8.5895949397017191
10
497.17347434876797
20
8.5838168072650554
42
-0.41421356237308149
10
498.32882821364205
20
10.362905744592332
10
572.26784982059473
20
26.079129950611737
42
-0.042377065210176174
10
572.51968448159323
20
26.110706752703088
10
575.10777709856143
20
26.21437023509996
42
-0.010008486346810083
10
575.16780997378942
20
26.215572031907861
10
593.69778150680361
20
26.215572031907577
42
-0.41421356237309503
10
595.19778150680338
20
24.715572031907804
10
595.19778150680338
20
24.075572031907804
10
650.42778150680363
20
24.075572031907733
42
-0.41421356237309503
10
651.92778150680351
20
22.575572031907818
10
651.9277815068034
20
5.0255720319078634
10
654.59778150680347
20
5.0255720319078634
42
-0.41421356237309503
10
656.09778150680359
20
3.5255720319078065
10
656.0977815068037
20
-14.024427968092148
10
658.85778150680358
20
-14.024427968092148
42
-0.41421356237309503
10
660.35778150680358
20
-15.524427968092205
10
660.35778150680358
20
-33.074427968092159
10
663.03653150680361
20
-33.074427968092444
42
-0.41421356237309503
10
664.53653150680339
20
-34.574427968092216
10
664.53653150680361
20
-51.634427968092176
42
-0.41421356237309503
10
663.03653150680361
20
-53.134427968092233
10
660.86338150680365
20
-53.134427968092233
10
660.86338150680353
20
-70.732427968092225
42
-0.41421356237309503
10
659.36338150680353
20
-72.232427968092196
10
632.76338150680374
20
-72.232427968092423
42
-0.41421356237309503
10
631.26338150680351
20
-70.732427968092225
10
631.26338150680351
20
-53.134427968092233
10
580.04954731441876
20
-53.134427968092233
10
583.6180712443321
20
-69.923013095156904
42
-0.41421356237309798
10
582.4627173794579
20
-71.702102032484333
10
556.46354890737894
20
-77.228395889189031
42
-0.41343065285069952
0
LWPOLYLINE
5
114
100
AcDbEntity
8
0
100
AcDbPolyline
90
12
70
1
43
0.0
10
590.52399360344498
20
-82.654427968092023
10
502.95424913951183
20
-101.26795175766772
42
-0.10510423526567414
10
486.32131387409146
20
-101.26795175766773
10
398.75156941015831
20
-82.654427968092023
10
319.76778150680286
20
-82.654427968092023
42
-0.41421356237309503
10
314.76778150680286
20
-77.654427968092023
10
314.76778150680286
20
31.685572031907885
42
-0.41421356237309293
10
319.76778150680286
20
36.685572031907853
10
670.00653150680262
20
36.685572031907867
42
-0.41421356237309398
10
675.00653150680262
20
31.685572031907885
10
675.00653150680262
20
-77.654427968091994
42
-0.41421356237309503
10
670.00653150680262
20
-82.654427968091994
0
CIRCLE
5
115
100
AcDbEntity
8
0
100
AcDbCircle
10
666.30653150680257
20
27.98557203190791
30
0
40
1.7500000000000007
0
CIRCLE
5
116
100
AcDbEntity
8
0
100
AcDbCircle
10
551.30653150680257
20
29.18557203190792
30
0
40
1.750000000000006
0
LWPOLYLINE
5
117
100
AcDbEntity
8
0
100
AcDbPolyline
90
44
70
1
43
0.0
10
373.68778150680356
20
-53.134427968092233
10
373.68778150680356
20
-70.684427968092194
42
-0.41421356237309503
10
372.1877815068035
20
-72.184427968092251
10
345.58778150680354
20
-72.184427968092251
42
-0.41421356237309503
10
344.08778150680348
20
-70.684427968092194
10
344.08778150680348
20
-34.574427968092216
42
-0.41421356237309503
10
345.58778150680354
20
-33.074427968092159
10
348.2577815068035
20
-33.074427968092159
10
348.2577815068035
20
-15.524427968092205
42
-0.41421356237309503
10
349.75778150680355
20
-14.024427968092148
10
352.32778150680355
20
-14.024427968092148
10
352.32778150680338
20
3.5255720319078065
42
-0.41421356237309503
10
353.82778150680338
20
5.0255720319077923
10
356.48778150680351
20
5.0255720319077923
10
356.48778150680351
20
22.575572031907818
42
-0.41421356237309503
10
357.98778150680346
20
24.075572031907804
10
394.1777815068034
20
24.075572031907804
10
394.17778150680357
20
24.715572031907875
42
-0.41421356237309503
10
395.67778150680351
20
26.215572031907861
10
412.73778150680346
20
26.215572031907932
42
-0.41421356237309503
10
414.23778150680346
20
24.715572031907875
10
414.23778150680346
20
24.70702719644347
10
491.03673479996502
20
8.3829057445924846
42
-0.41421356237310863
10
492.1920886648391
20
6.6038168072650549
10
488.64511521948822
20
-10.083381261253646
42
-0.41421356237310575
10
486.86602628216093
20
-11.238735126127715
10
479.01542208133594
20
-9.570037690168185
10
475.2641288223171
20
-27.218484906031684
10
478.45673479996492
20
-27.897094255407616
42
-0.41421356237308438
10
479.61208866483901
20
-29.676183192734875
10
475.96380099497549
20
-46.840027212413595
10
483.80673479996506
20
-48.507094255407566
42
-0.41421356237306212
10
484.96208866483914
20
-50.286183192735017
10
481.31285800088972
20
-67.454463650783481
10
488.94673479996499
20
-69.077094255407417
42
-0.41421356237308438
10
490.10208866483907
20
-70.856183192734676
10
486.55511521948824
20
-87.5433812612536
42
-0.41421356237306212
10
484.7760262821609
20
-88.698735126127815
10
425.36177678350941
20
-76.069846538489941
10
425.36109779898112
20
-76.073040909546307
42
-0.41421356237308149
10
423.58200886165366
20
-77.22839477442048
10
397.58284563414912
20
-71.702102032484319
42
-0.41421356237308149
10
396.42749176927509
20
-69.923013095156989
10
399.99601569918838
20
-53.134427968092233
0
CIRCLE
5
118
100
AcDbEntity
8
0
100
AcDbCircle
10
438.45521560288148
20
29.68557203190791
30
0
40
1.7500000000000016
0
LWPOLYLINE
5
119
100
AcDbEntity
8
0
100
AcDbPolyline
90
20
70
1
43
0.0
10
325.23778150680351
20
-30.444427968092178
10
325.23778150680351
20
-13.384427968092147
42
-0.41421356237309503
10
326.73778150680346
20
-11.884427968092162
10
329.30778150680339
20
-11.884427968092162
10
329.30778150680339
20
5.6655720319077929
42
-0.41421356237309503
10
330.80778150680351
20
7.1655720319079208
10
333.46778150680348
20
7.1655720319078497
10
333.46778150680348
20
24.715572031907875
42
-0.41421356237309503
10
334.96778150680348
20
26.215572031907861
10
352.02778150680359
20
26.21557203190779
42
-0.41421356237309503
10
353.52778150680354
20
24.715572031907875
10
353.52778150680359
20
7.6555720319078446
42
-0.41421356237309503
10
352.02778150680359
20
6.1555720319078588
10
349.3677815068034
20
6.1555720319078588
10
349.3677815068034
20
-11.394427968092238
42
-0.41421356237309503
10
347.86778150680345
20
-12.894427968092153
10
345.2977815068034
20
-12.894427968092153
10
345.2977815068034
20
-30.444427968092178
42
-0.41421356237309503
10
343.79778150680346
20
-31.944427968092164
10
326.73778150680346
20
-31.944427968092164
42
-0.41421356237309503
0
CIRCLE
5
120
100
AcDbEntity
8
0
100
AcDbCircle
10
551.30653150680257
20
-83.322802407290837
30
0
40
1.7500000000000002
0
CIRCLE
5
121
100
AcDbEntity
8
0
100
AcDbCircle
10
438.46778150680291
20
-83.42881499242425
30
0
40
1.7500000000000049
0
CIRCLE
5
122
100
AcDbEntity
8
0
100
AcDbCircle
10
666.30653150680257
20
-73.954427968092006
30
0
40
1.749999999999996
0
LINE
5
123
100
AcDbEntity
8
0
100
AcDbLine
10
323.52677042910273
20
29.734577551351986
30
0
11
323.46077827402462
21
29.734577551351986
31
0
0
CIRCLE
5
124
100
AcDbEntity
8
0
100
AcDbCircle
10
323.46778150680291
20
-73.954427968092034
30
0
40
1.7499999999999918
0
CIRCLE
5
125
100
AcDbEntity
8
0
100
AcDbCircle
10
323.46778150680291
20
27.985572031907893
30
0
40
1.7500000000000002
0
LWPOLYLINE
5
126
100
AcDbEntity
8
0
100
AcDbPolyline
90
44
70
1
43
0.0
10
853.80673479996506
20
-48.507094255407566
42
-0.41421356237306212
10
854.96208866483914
20
-50.286183192735017
10
851.31285800088972
20
-67.454463650783481
10
858.94673479996504
20
-69.077094255407417
42
-0.41421356237308438
10
860.10208866483913
20
-70.856183192734676
10
856.55511521948824
20
-87.5433812612536
42
-0.41421356237306212
10
854.77602628216096
20
-88.698735126127815
10
795.36177678350941
20
-76.069846538489941
10
795.36109779898106
20
-76.073040909546307
42
-0.41421356237308149
10
793.58200886165366
20
-77.22839477442048
10
767.58284563414918
20
-71.702102032484333
42
-0.41421356237309503
10
766.42749176927509
20
-69.923013095156989
10
769.99601569918832
20
-53.134427968092233
10
743.6877815068035
20
-53.134427968092233
10
743.6877815068035
20
-70.684427968092194
42
-0.41421356237309503
10
742.1877815068035
20
-72.184427968092251
10
715.58778150680359
20
-72.184427968092251
42
-0.41421356237309503
10
714.08778150680348
20
-70.684427968092194
10
714.08778150680348
20
-34.574427968092216
42
-0.41421356237309503
10
715.58778150680359
20
-33.074427968092159
10
718.25778150680344
20
-33.074427968092159
10
718.25778150680344
20
-15.524427968092205
42
-0.41421356237309503
10
719.75778150680355
20
-14.024427968092148
10
722.3277815068036
20
-14.024427968092148
10
722.32778150680338
20
3.5255720319078065
42
-0.41421356237309503
10
723.82778150680338
20
5.0255720319077923
10
726.48778150680357
20
5.0255720319077923
10
726.48778150680357
20
22.575572031907818
42
-0.41421356237309503
10
727.98778150680346
20
24.075572031907804
10
764.17778150680329
20
24.075572031907804
10
764.17778150680363
20
24.715572031907875
42
-0.41421356237309503
10
765.67778150680351
20
26.215572031907861
10
782.73778150680346
20
26.215572031907932
42
-0.41421356237309503
10
784.23778150680346
20
24.715572031907875
10
784.23778150680346
20
24.70702719644347
10
861.03673479996496
20
8.3829057445924846
42
-0.41421356237310863
10
862.19208866483905
20
6.6038168072650549
10
858.64511521948828
20
-10.083381261253646
42
-0.41421356237310575
10
856.86602628216087
20
-11.238735126127715
10
849.01542208133594
20
-9.570037690168185
10
845.26412882231716
20
-27.218484906031684
10
848.45673479996492
20
-27.897094255407616
42
-0.41421356237308438
10
849.61208866483901
20
-29.676183192734875
10
845.96380099497549
20
-46.840027212413595
0
LWPOLYLINE
5
127
100
AcDbEntity
8
0
100
AcDbPolyline
90
20
70
1
43
0.0
10
722.02778150680365
20
6.1555720319078588
10
719.36778150680334
20
6.1555720319078588
10
719.36778150680334
20
-11.394427968092238
42
-0.41421356237309503
10
717.86778150680345
20
-12.894427968092153
10
715.2977815068034
20
-12.894427968092153
10
715.29778150680363
20
-30.444427968092178
42
-0.41421356237309503
10
713.79778150680352
20
-31.944427968092164
10
696.73778150680346
20
-31.944427968092093
42
-0.41421356237309503
10
695.23778150680357
20
-30.444427968092178
10
695.23778150680357
20
-13.384427968092147
42
-0.41421356237309503
10
696.73778150680346
20
-11.884427968092162
10
699.30778150680339
20
-11.884427968092162
10
699.30778150680339
20
5.6655720319077929
42
-0.41421356237309503
10
700.80778150680339
20
7.1655720319079208
10
703.46778150680348
20
7.1655720319078497
10
703.46778150680336
20
24.715572031907875
42
-0.41421356237309503
10
704.96778150680348
20
26.215572031907861
10
722.02778150680365
20
26.21557203190779
42
-0.41421356237309503
10
723.52778150680354
20
24.715572031907875
10
723.52778150680365
20
7.6555720319078446
42
-0.41421356237309503
0
LWPOLYLINE
5
128
100
AcDbEntity
8
0
100
AcDbPolyline
90
44
70
1
43
0.0
10
872.59305883677644
20
-85.616000484692194
10
865.08386314778693
20
-50.288012348306658
42
-0.41421356237311441
10
866.23921701266102
20
-48.508923410979214
10
874.09171854493866
20
-46.839822684769707
10
870.34227906085664
20
-29.200096794289898
10
867.14953673144623
20
-29.878735126127786
42
-0.41421356237306789
10
865.37044779411895
20
-28.723381261253671
10
861.82347434876783
20
-12.036183192734937
42
-0.41421356237307078
10
862.9788282136418
20
-10.257094255407644
10
870.82379570184685
20
-8.5895949397017191
10
867.17347434876797
20
8.5838168072650554
42
-0.41421356237308149
10
868.32882821364205
20
10.362905744592332
10
942.26784982059473
20
26.079129950611737
42
-0.042377065210176174
10
942.51968448159323
20
26.110706752703088
10
945.10777709856143
20
26.21437023509996
42
-0.010008486346810083
10
945.16780997378942
20
26.215572031907861
10
963.69778150680361
20
26.215572031907577
42
-0.41421356237309503
10
965.19778150680338
20
24.715572031907804
10
965.19778150680338
20
24.075572031907804
10
1020.4277815068036
20
24.075572031907733
42
-0.41421356237309503
10
1021.9277815068035
20
22.575572031907818
10
1021.9277815068034
20
5.0255720319078634
10
1024.5977815068036
20
5.0255720319078634
42
-0.41421356237309503
10
1026.0977815068036
20
3.5255720319078065
10
1026.0977815068036
20
-14.024427968092148
10
1028.8577815068036
20
-14.024427968092148
42
-0.41421356237309503
10
1030.3577815068036
20
-15.524427968092205
10
1030.3577815068036
20
-33.074427968092159
10
1033.0365315068036
20
-33.074427968092444
42
-0.41421356237309503
10
1034.5365315068034
20
-34.574427968092216
10
1034.5365315068036
20
-51.634427968092176
42
-0.41421356237309503
10
1033.0365315068036
20
-53.134427968092233
10
1030.8633815068035
20
-53.134427968092233
10
1030.8633815068035
20
-70.732427968092225
42
-0.41421356237309503
10
1029.3633815068035
20
-72.232427968092196
10
1002.7633815068037
20
-72.232427968092423
42
-0.41421356237309503
10
1001.2633815068035
20
-70.732427968092225
10
1001.2633815068035
20
-53.134427968092233
10
950.04954731441876
20
-53.134427968092233
10
953.61807124433199
20
-69.923013095156904
42
-0.41421356237309798
10
952.4627173794579
20
-71.702102032484333
10
926.46354890737894
20
-77.228395889189031
42
-0.41343065285069952
10
924.68529907257891
20
-76.07696390277863
10
874.37214777410372
20
-86.771354349566195
42
-0.41421356237310863
0
LWPOLYLINE
5
129
100
AcDbEntity
8
0
100
AcDbPolyline
90
12
70
1
43
0.0
10
872.95424913951183
20
-99.223270567937689
42
-0.10510423526567436
10
856.3213138740914
20
-99.223270567937675
10
768.96177788068962
20
-80.654427968092023
10
691.76778150680298
20
-80.654427968092008
42
-0.41421356237309398
10
686.76778150680298
20
-75.654427968092023
10
686.76778150680298
20
29.685572031907874
42
-0.41421356237309398
10
691.76778150680298
20
34.685572031907853
10
1038.0065315068025
20
34.685572031907874
42
-0.41421356237310231
10
1043.0065315068027
20
29.685572031907892
10
1043.0065315068027
20
-75.654427968092008
42
-0.41421356237309609
10
1038.0065315068027
20
-80.654427968092008
10
960.31378513291361
20
-80.654427968092008
0
CIRCLE
5
130
100
AcDbEntity
8
0
100
AcDbCircle
10
1036.3065315068027
20
-73.954427968092006
30
0
40
1.749999999999996
0
ARC
5
131
100
AcDbEntity
8
0
100
AcDbCircle
10
670.00653150680262
20
31.685572031907867
30
0
40
5
100
AcDbArc
50
0
51
90
0
CIRCLE
5
132
100
AcDbEntity
8
0
100
AcDbCircle
10
693.46778150680291
20
-73.954427968092034
30
0
40
1.7499999999999918
0
CIRCLE
5
133
100
AcDbEntity
8
0
100
AcDbCircle
10
921.30653150680257
20
29.18557203190792
30
0
40
1.750000000000006
0
CIRCLE
5
134
100
AcDbEntity
8
0
100
AcDbCircle
10
808.45521560288148
20
29.68557203190791
30
0
40
1.7500000000000016
0
CIRCLE
5
135
100
AcDbEntity
8
0
100
AcDbCircle
10
1036.3065315068027
20
27.98557203190791
30
0
40
1.7500000000000007
0
LINE
5
136
100
AcDbEntity
8
0
100
AcDbLine
10
693.52677042910273
20
29.734577551351986
30
0
11
693.46077827402473
21
29.734577551351986
31
0
0
CIRCLE
5
137
100
AcDbEntity
8
0
100
AcDbCircle
10
693.46778150680291
20
27.985572031907893
30
0
40
1.7500000000000002
0
CIRCLE
5
138
100
AcDbEntity
8
0
100
AcDbCircle
10
808.46778150680291
20
-83.42881499242425
30
0
40
1.7500000000000049
0
CIRCLE
5
139
100
AcDbEntity
8
0
100
AcDbCircle
10
921.30653150680257
20
-83.322802407290837
30
0
40
1.7500000000000002
0
LINE
5
140
100
AcDbEntity
8
0
100
AcDbLine
10
349.3677815068034
20
-11.394427968092238
30
0
11
349.3677815068034
21
6.1555720319078588
31
0
0
ARC
5
141
100
AcDbEntity
8
0
100
AcDbCircle
10
347.86778150680345
20
-11.394427968092238
30
0
40
1.4999999999999147
100
AcDbArc
50
-90
51
0
0
LINE
5
142
100
AcDbEntity
8
0
100
AcDbLine
10
353.52778150680342
20
7.6555720319078446
30
0
11
353.52778150680354
21
24.715572031907875
31
0
0
ARC
5
143
100
AcDbEntity
8
0
100
AcDbCircle
10
352.02778150680359
20
7.6555720319078446
30
0
40
1.4999999999999858
100
AcDbArc
50
-90
51
0
0
LINE
5
144
100
AcDbEntity
8
0
100
AcDbLine
10
356.48778150680351
20
5.0255720319077923
30
0
11
353.82778150680338
21
5.0255720319077923
31
0
0
LINE
5
145
100
AcDbEntity
8
0
100
AcDbLine
10
356.48778150680351
20
22.575572031907818
30
0
11
356.48778150680351
21
5.0255720319077923
31
0
0
LINE
5
146
100
AcDbEntity
8
0
100
AcDbLine
10
352.32778150680349
20
3.5255720319078065
30
0
11
352.32778150680355
21
-14.024427968092148
31
0
0
LINE
5
147
100
AcDbEntity
8
0
100
AcDbLine
10
352.32778150680355
20
-14.024427968092148
30
0
11
349.75778150680355
21
-14.024427968092148
31
0
0
ARC
5
148
100
AcDbEntity
8
0
100
AcDbCircle
10
353.82778150680338
20
3.5255720319078065
30
0
40
1.4999999999999858
100
AcDbArc
50
90
51
180
0
LINE
5
149
100
AcDbEntity
8
0
100
AcDbLine
10
345.2977815068034
20
-12.894427968092153
30
0
11
347.86778150680345
21
-12.894427968092153
31
0
0
ARC
5
150
100
AcDbEntity
8
0
100
AcDbCircle
10
319.76778150680286
20
31.685572031907849
30
0
40
5
100
AcDbArc
50
90
51
180
0
ARC
5
151
100
AcDbEntity
8
0
100
AcDbCircle
10
349.75778150680355
20
-15.524427968092205
30
0
40
1.5000000000000568
100
AcDbArc
50
90
51
180
0
ARC
5
152
100
AcDbEntity
8
0
100
AcDbCircle
10
357.98778150680346
20
22.575572031907818
30
0
40
1.4999999999999858
100
AcDbArc
50
90
51
180
0
ARC
5
153
100
AcDbEntity
8
0
100
AcDbCircle
10
352.02778150680359
20
24.715572031907875
30
0
40
1.4999999999999147
100
AcDbArc
50
0
51
90
0
LINE
5
154
100
AcDbEntity
8
0
100
AcDbLine
10
325.23778150680351
20
-13.384427968092147
30
0
11
325.23778150680351
21
-30.444427968092178
31
0
0
LINE
5
155
100
AcDbEntity
8
0
100
AcDbLine
10
349.3677815068034
20
6.1555720319078588
30
0
11
352.02778150680359
21
6.1555720319078588
31
0
0
LWPOLYLINE
5
156
100
AcDbEntity
8
0
100
AcDbPolyline
90
44
70
1
43
0.0
10
1034.5365315068034
20
-174.57442796809221
10
1034.5365315068036
20
-191.63442796809218
42
-0.41421356237309503
10
1033.0365315068036
20
-193.13442796809224
10
1030.8633815068035
20
-193.13442796809224
10
1030.8633815068035
20
-210.73242796809222
42
-0.41421356237309503
10
1029.3633815068035
20
-212.2324279680922
10
1002.7633815068037
20
-212.23242796809242
42
-0.41421356237309503
10
1001.2633815068035
20
-210.73242796809222
10
1001.2633815068035
20
-193.13442796809224
10
950.04954731441876
20
-193.13442796809224
10
953.61807124433199
20
-209.92301309515693
42
-0.41421356237309798
10
952.4627173794579
20
-211.70210203248433
10
926.46354890737894
20
-217.22839588918904
42
-0.41343065285069952
10
924.68529907257891
20
-216.07696390277863
10
874.37214777410372
20
-226.77135434956622
42
-0.41421356237310863
10
872.59305883677644
20
-225.61600048469219
10
865.08386314778693
20
-190.28801234830667
42
-0.41421356237311441
10
866.23921701266102
20
-188.50892341097921
10
874.09171854493866
20
-186.8398226847697
10
870.34227906085664
20
-169.20009679428989
10
867.14953673144623
20
-169.87873512612779
42
-0.41421356237306789
10
865.37044779411895
20
-168.72338126125368
10
861.82347434876783
20
-152.03618319273494
42
-0.41421356237307078
10
862.9788282136418
20
-150.25709425540765
10
870.82379570184685
20
-148.58959493970173
10
867.17347434876797
20
-131.41618319273493
42
-0.41421356237308149
10
868.32882821364205
20
-129.63709425540767
10
942.26784982059473
20
-113.92087004938827
42
-0.042377065210176174
10
942.51968448159323
20
-113.88929324729691
10
945.10777709856143
20
-113.78562976490004
42
-0.010008486346810083
10
945.16780997378942
20
-113.78442796809213
10
963.69778150680361
20
-113.78442796809242
42
-0.41421356237309503
10
965.19778150680338
20
-115.28442796809219
10
965.19778150680338
20
-115.9244279680922
10
1020.4277815068036
20
-115.92442796809226
42
-0.41421356237309503
10
1021.9277815068035
20
-117.42442796809217
10
1021.9277815068034
20
-134.97442796809213
10
1024.5977815068036
20
-134.97442796809213
42
-0.41421356237309503
10
1026.0977815068036
20
-136.47442796809219
10
1026.0977815068036
20
-154.02442796809214
10
1028.8577815068036
20
-154.02442796809214
42
-0.41421356237309503
10
1030.3577815068036
20
-155.5244279680922
10
1030.3577815068036
20
-173.07442796809215
10
1033.0365315068036
20
-173.07442796809244
42
-0.41421356237309503
0
LWPOLYLINE
5
157
100
AcDbEntity
8
0
100
AcDbPolyline
90
44
70
1
43
0.0
10
784.23778150680346
20
-115.29297280355652
10
861.03673479996496
20
-131.61709425540752
42
-0.41421356237310863
10
862.19208866483905
20
-133.39618319273495
10
858.64511521948828
20
-150.08338126125363
42
-0.41421356237310575
10
856.86602628216087
20
-151.23873512612772
10
849.01542208133594
20
-149.57003769016819
10
845.26412882231716
20
-167.21848490603168
10
848.45673479996492
20
-167.89709425540761
42
-0.41421356237308438
10
849.61208866483901
20
-169.67618319273487
10
845.96380099497549
20
-186.84002721241359
10
853.80673479996506
20
-188.50709425540757
42
-0.41421356237306212
10
854.96208866483914
20
-190.28618319273502
10
851.31285800088972
20
-207.45446365078348
10
858.94673479996504
20
-209.07709425540742
42
-0.41421356237308438
10
860.10208866483913
20
-210.85618319273468
10
856.55511521948824
20
-227.54338126125361
42
-0.41421356237306212
10
854.77602628216096
20
-228.69873512612781
10
795.36177678350941
20
-216.06984653848994
10
795.36109779898106
20
-216.07304090954631
42
-0.41421356237308149
10
793.58200886165366
20
-217.22839477442048
10
767.58284563414918
20
-211.70210203248433
42
-0.41421356237309503
10
766.42749176927509
20
-209.92301309515699
10
769.99601569918832
20
-193.13442796809224
10
743.6877815068035
20
-193.13442796809224
10
743.6877815068035
20
-210.68442796809219
42
-0.41421356237309503
10
742.1877815068035
20
-212.18442796809225
10
715.58778150680359
20
-212.18442796809225
42
-0.41421356237309503
10
714.08778150680348
20
-210.68442796809219
10
714.08778150680348
20
-174.57442796809221
42
-0.41421356237309503
10
715.58778150680359
20
-173.07442796809215
10
718.25778150680344
20
-173.07442796809215
10
718.25778150680344
20
-155.5244279680922
42
-0.41421356237309503
10
719.75778150680355
20
-154.02442796809214
10
722.3277815068036
20
-154.02442796809214
10
722.32778150680338
20
-136.47442796809219
42
-0.41421356237309503
10
723.82778150680338
20
-134.97442796809221
10
726.48778150680357
20
-134.97442796809221
10
726.48778150680357
20
-117.42442796809217
42
-0.41421356237309503
10
727.98778150680346
20
-115.9244279680922
10
764.17778150680329
20
-115.9244279680922
10
764.17778150680363
20
-115.28442796809213
42
-0.41421356237309503
10
765.67778150680351
20
-113.78442796809213
10
782.73778150680346
20
-113.78442796809207
42
-0.41421356237309503
10
784.23778150680346
20
-115.28442796809213
0
LWPOLYLINE
5
158
100
AcDbEntity
8
0
100
AcDbPolyline
90
20
70
1
43
0.0
10
703.46778150680348
20
-132.83442796809214
10
703.46778150680336
20
-115.28442796809213
42
-0.41421356237309503
10
704.96778150680348
20
-113.78442796809213
10
722.02778150680365
20
-113.78442796809222
42
-0.41421356237309503
10
723.52778150680354
20
-115.28442796809213
10
723.52778150680365
20
-132.34442796809216
42
-0.41421356237309503
10
722.02778150680365
20
-133.84442796809213
10
719.36778150680334
20
-133.84442796809213
10
719.36778150680334
20
-151.39442796809223
42
-0.41421356237309503
10
717.86778150680345
20
-152.89442796809215
10
715.2977815068034
20
-152.89442796809215
10
715.29778150680363
20
-170.44442796809219
42
-0.41421356237309503
10
713.79778150680352
20
-171.94442796809216
10
696.73778150680346
20
-171.9444279680921
42
-0.41421356237309503
10
695.23778150680357
20
-170.44442796809219
10
695.23778150680357
20
-153.38442796809215
42
-0.41421356237309503
10
696.73778150680346
20
-151.88442796809215
10
699.30778150680339
20
-151.88442796809215
10
699.30778150680339
20
-134.3344279680922
42
-0.41421356237309503
10
700.80778150680339
20
-132.83442796809209
0
LWPOLYLINE
5
159
100
AcDbEntity
8
0
100
AcDbPolyline
90
12
70
1
43
0.0
10
769.17198635122099
20
-218.65442796809202
10
856.3213138740914
20
-237.17858937820762
42
0.10510423526567407
10
872.95424913951183
20
-237.17858937820762
10
960.10357666238224
20
-218.65442796809202
10
1036.0065315068025
20
-218.65442796809202
42
0.41421356237309293
10
1041.0065315068025
20
-213.65442796809202
10
1041.0065315068025
20
-112.31442796809212
42
0.41421356237309398
10
1036.0065315068025
20
-107.31442796809212
10
693.76778150680275
20
-107.3144279680921
42
0.41421356237308565
10
688.76778150680298
20
-112.31442796809212
10
688.76778150680298
20
-213.65442796809202
42
0.41421356237309503
10
693.76778150680298
20
-218.65442796809205
0
CIRCLE
5
160
100
AcDbEntity
8
0
100
AcDbCircle
10
693.46778150680291
20
-213.95442796809203
30
0
40
1.7499999999999918
0
CIRCLE
5
161
100
AcDbEntity
8
0
100
AcDbCircle
10
693.46778150680291
20
-112.01442796809211
30
0
40
1.7500000000000002
0
LINE
5
162
100
AcDbEntity
8
0
100
AcDbLine
10
693.52677042910273
20
-110.26542244864801
30
0
11
693.46077827402473
21
-110.26542244864801
31
0
0
CIRCLE
5
163
100
AcDbEntity
8
0
100
AcDbCircle
10
1036.3065315068027
20
-112.01442796809209
30
0
40
1.7500000000000007
0
CIRCLE
5
164
100
AcDbEntity
8
0
100
AcDbCircle
10
1036.3065315068027
20
-213.95442796809198
30
0
40
1.749999999999996
0
CIRCLE
5
165
100
AcDbEntity
8
0
100
AcDbCircle
10
808.45521560288148
20
-110.31442796809209
30
0
40
1.7500000000000016
0
CIRCLE
5
166
100
AcDbEntity
8
0
100
AcDbCircle
10
921.30653150680257
20
-110.81442796809208
30
0
40
1.750000000000006
0
CIRCLE
5
167
100
AcDbEntity
8
0
100
AcDbCircle
10
808.46778150680291
20
-223.42881499242424
30
0
40
1.7500000000000049
0
CIRCLE
5
168
100
AcDbEntity
8
0
100
AcDbCircle
10
921.30653150680257
20
-223.32280240729085
30
0
40
1.7500000000000002
0
ARC
5
169
100
AcDbEntity
8
0
100
AcDbCircle
10
123.077061787004
20
-369.31355741683103
30
0
40
39.99999999999968
100
AcDbArc
50
258.00000000000023
51
281.99999999999983
0
LINE
5
170
100
AcDbEntity
8
0
100
AcDbLine
10
117.8018617870049
20
-279.44125646687769
30
0
11
117.80186178700497
21
-273.26935492416231
31
0
0
LINE
5
171
100
AcDbEntity
8
0
100
AcDbLine
10
117.72706178700254
20
-266.44125646687775
30
0
11
117.8018617870049
21
-279.44125646687769
31
0
0
LINE
5
172
100
AcDbEntity
8
0
100
AcDbLine
10
128.35226178700481
20
-273.2693593429928
30
0
11
128.35226178700481
21
-279.44125646687769
31
0
0
LINE
5
173
100
AcDbEntity
8
0
100
AcDbLine
10
128.42706178700723
20
-266.44125646687763
30
0
11
128.35226178700481
21
-279.44125646687769
31
0
0
CIRCLE
5
174
100
AcDbEntity
8
0
100
AcDbCircle
10
66.894495883084062
20
-275.44125646687758
30
0
40
1.7500000000000104
0
LINE
5
175
100
AcDbEntity
8
0
100
AcDbLine
10
128.35226178700481
20
-279.44125646687769
30
0
11
290.94581178700491
21
-279.44125646687786
31
0
0
CIRCLE
5
176
100
AcDbEntity
8
0
100
AcDbCircle
10
66.907061787005375
20
-388.55564349120937
30
0
40
1.7500000000000047
0
LINE
5
177
100
AcDbEntity
8
0
100
AcDbLine
10
28.346996278283498
20
-376.78125646687732
30
0
11
123.07706178700407
21
-396.91675347818659
31
0
0
ARC
5
178
100
AcDbEntity
8
0
100
AcDbCircle
10
300.44581178700457
20
-271.44125646687792
30
0
40
5.0000000000000355
100
AcDbArc
50
0
51
89.999999999999346
0
CIRCLE
5
179
100
AcDbEntity
8
0
100
AcDbCircle
10
294.74581178700464
20
-277.14125646687785
30
0
40
1.750000000000006
0
CIRCLE
5
180
100
AcDbEntity
8
0
100
AcDbCircle
10
179.7458117870049
20
-388.44963090607621
30
0
40
1.7500000000000004
0
LINE
5
181
100
AcDbEntity
8
0
100
AcDbLine
10
-44.292938212994102
20
-279.44125646687746
30
0
11
117.8018617870049
21
-279.44125646687769
31
0
0
LINE
5
182
100
AcDbEntity
8
0
100
AcDbLine
10
26.980641219829664
20
-389.78125646687715
30
0
11
114.76059415429383
21
-408.43946144618303
31
0
0
LINE
5
183
100
AcDbEntity
8
0
100
AcDbLine
10
131.39352941971418
20
-408.43946144618303
30
0
11
219.17348235417842
21
-389.78125646687727
31
0
0
LINE
5
184
100
AcDbEntity
8
0
100
AcDbLine
10
-53.792938212994343
20
-266.44125646687746
30
0
11
117.72706178700254
21
-266.44125646687775
31
0
0
CIRCLE
5
185
100
AcDbEntity
8
0
100
AcDbCircle
10
179.74581178700498
20
-275.94125646687769
30
0
40
1.7500000000000082
0
ARC
5
186
100
AcDbEntity
8
0
100
AcDbCircle
10
290.94581178700491
20
-280.94125646687792
30
0
40
1.4999999999999147
100
AcDbArc
50
0
51
90
0
LINE
5
187
100
AcDbEntity
8
0
100
AcDbLine
10
26.980641219829664
20
-389.78125646687715
30
0
11
-53.792938212994343
21
-389.78125646687704
31
0
0
LINE
5
188
100
AcDbEntity
8
0
100
AcDbLine
10
28.346996278283498
20
-376.78125646687732
30
0
11
-44.292938212994102
21
-376.78125646687715
31
0
0
LINE
5
189
100
AcDbEntity
8
0
100
AcDbLine
10
305.44581178700457
20
-271.44125646687792
30
0
11
305.44581178700452
21
-384.78125646687761
31
0
0
LINE
5
190
100
AcDbEntity
8
0
100
AcDbLine
10
123.07706178700407
20
-396.91675347818659
30
0
11
217.80712729572485
21
-376.78125646687749
31
0
0
ARC
5
191
100
AcDbEntity
8
0
100
AcDbCircle
10
300.44581178700452
20
-384.78125646687744
30
0
40
5
100
AcDbArc
50
270
51
360
0
ARC
5
192
100
AcDbEntity
8
0
100
AcDbCircle
10
-53.792938212994343
20
-384.78125646687704
30
0
40
5
100
AcDbArc
50
180
51
270
0
CIRCLE
5
193
100
AcDbEntity
8
0
100
AcDbCircle
10
-48.09293821299427
20
-379.08125646687694
30
0
40
1.7500000000000004
0
CIRCLE
5
194
100
AcDbEntity
8
0
100
AcDbCircle
10
-48.09293821299427
20
-277.14125646687739
30
0
40
1.750000000000004
0
LINE
5
195
100
AcDbEntity
8
0
100
AcDbLine
10
-58.792938212994201
20
-271.44125646687746
30
0
11
-58.792938212994343
21
-384.78125646687704
31
0
0
CIRCLE
5
196
100
AcDbEntity
8
0
100
AcDbCircle
10
294.74581178700453
20
-379.08125646687751
30
0
40
1.7499999999999958
0
LINE
5
197
100
AcDbEntity
8
0
100
AcDbLine
10
292.44581178700486
20
-280.94125646687792
30
0
11
292.44581178700474
21
-375.28125646687755
31
0
0
ARC
5
198
100
AcDbEntity
8
0
100
AcDbCircle
10
-44.292938212994102
20
-280.94125646687752
30
0
40
1.5000000000000568
100
AcDbArc
50
90
51
180
0
ARC
5
199
100
AcDbEntity
8
0
100
AcDbCircle
10
-44.292938212994102
20
-375.28125646687727
30
0
40
1.500000000000199
100
AcDbArc
50
180
51
270
0
LINE
5
200
100
AcDbEntity
8
0
100
AcDbLine
10
219.17348235417842
20
-389.78125646687727
30
0
11
300.44581178700452
21
-389.78125646687744
31
0
0
LINE
5
201
100
AcDbEntity
8
0
100
AcDbLine
10
290.94581178700486
20
-376.78125646687761
30
0
11
217.80712729572485
21
-376.78125646687749
31
0
0
LINE
5
202
100
AcDbEntity
8
0
100
AcDbLine
10
-45.792938212994301
20
-375.28125646687727
30
0
11
-45.792938212994159
21
-280.94125646687752
31
0
0
ARC
5
203
100
AcDbEntity
8
0
100
AcDbCircle
10
290.94581178700486
20
-375.28125646687755
30
0
40
1.5000000000000568
100
AcDbArc
50
-90
51
0
0
LINE
5
204
100
AcDbEntity
8
0
100
AcDbLine
10
300.44581178700463
20
-266.44125646687792
30
0
11
128.42706178700723
21
-266.44125646687763
31
0
0
ARC
5
205
100
AcDbEntity
8
0
100
AcDbCircle
10
-53.792938212994201
20
-271.44125646687746
30
0
40
5
100
AcDbArc
50
90.000000000001634
51
180
0
ARC
5
206
100
AcDbEntity
8
0
100
AcDbCircle
10
316.2070617870055
20
-384.78125646687715
30
0
40
5.0000000000000355
100
AcDbArc
50
180
51
270
0
ARC
5
207
100
AcDbEntity
8
0
100
AcDbCircle
10
325.70706178700561
20
-375.28125646687727
30
0
40
1.500000000000199
100
AcDbArc
50
180
51
270
0
CIRCLE
5
208
100
AcDbEntity
8
0
100
AcDbCircle
10
321.90706178700555
20
-379.08125646687722
30
0
40
1.7500000000000004
0
LINE
5
209
100
AcDbEntity
8
0
100
AcDbLine
10
498.42706178700701
20
-266.4412564668778
30
0
11
498.35226178700458
21
-279.44125646687786
31
0
0
LINE
5
210
100
AcDbEntity
8
0
100
AcDbLine
10
498.35226178700458
20
-273.26935934299291
30
0
11
498.35226178700458
21
-279.44125646687786
31
0
0
LINE
5
211
100
AcDbEntity
8
0
100
AcDbLine
10
501.39352941971379
20
-408.43946144618303
30
0
11
589.17348235417808
21
-389.78125646687744
31
0
0
LINE
5
212
100
AcDbEntity
8
0
100
AcDbLine
10
662.44581178700457
20
-280.94125646687803
30
0
11
662.44581178700457
21
-375.28125646687772
31
0
0
ARC
5
213
100
AcDbEntity
8
0
100
AcDbCircle
10
660.9458117870048
20
-280.94125646687803
30
0
40
1.4999999999997726
100
AcDbArc
50
0
51
90
0
LINE
5
214
100
AcDbEntity
8
0
100
AcDbLine
10
396.98064121982941
20
-389.78125646687727
30
0
11
316.2070617870055
21
-389.78125646687715
31
0
0
ARC
5
215
100
AcDbEntity
8
0
100
AcDbCircle
10
493.0770617870038
20
-369.31355741683103
30
0
40
39.999999999999709
100
AcDbArc
50
258
51
281.99999999999949
0
ARC
5
216
100
AcDbEntity
8
0
100
AcDbCircle
10
316.20706178700561
20
-271.44125646687763
30
0
40
5.0000000000001421
100
AcDbArc
50
90.000000000000654
51
180
0
CIRCLE
5
217
100
AcDbEntity
8
0
100
AcDbCircle
10
549.74581178700464
20
-275.94125646687775
30
0
40
1.7500000000000082
0
LINE
5
218
100
AcDbEntity
8
0
100
AcDbLine
10
660.94581178700469
20
-376.78125646687761
30
0
11
587.80712729572451
21
-376.78125646687761
31
0
0
CIRCLE
5
219
100
AcDbEntity
8
0
100
AcDbCircle
10
549.74581178700464
20
-388.44963090607621
30
0
40
1.7500000000000004
0
LINE
5
220
100
AcDbEntity
8
0
100
AcDbLine
10
589.17348235417808
20
-389.78125646687744
30
0
11
670.44581178700446
21
-389.78125646687761
31
0
0
CIRCLE
5
221
100
AcDbEntity
8
0
100
AcDbCircle
10
321.9070617870056
20
-277.14125646687756
30
0
40
1.750000000000004
0
LINE
5
222
100
AcDbEntity
8
0
100
AcDbLine
10
487.80186178700467
20
-279.44125646687786
30
0
11
487.80186178700467
21
-273.26935492416243
31
0
0
CIRCLE
5
223
100
AcDbEntity
8
0
100
AcDbCircle
10
436.89449588308378
20
-275.44125646687763
30
0
40
1.7500000000000104
0
LINE
5
224
100
AcDbEntity
8
0
100
AcDbLine
10
498.35226178700458
20
-279.44125646687786
30
0
11
660.9458117870048
21
-279.44125646687797
31
0
0
ARC
5
225
100
AcDbEntity
8
0
100
AcDbCircle
10
660.94581178700469
20
-375.28125646687772
30
0
40
1.4999999999999147
100
AcDbArc
50
-90
51
0
0
LINE
5
226
100
AcDbEntity
8
0
100
AcDbLine
10
398.3469962782832
20
-376.78125646687749
30
0
11
325.70706178700561
21
-376.78125646687732
31
0
0
CIRCLE
5
227
100
AcDbEntity
8
0
100
AcDbCircle
10
664.7458117870043
20
-379.08125646687751
30
0
40
1.7499999999999958
0
LINE
5
228
100
AcDbEntity
8
0
100
AcDbLine
10
325.70706178700567
20
-279.44125646687763
30
0
11
487.80186178700467
21
-279.44125646687786
31
0
0
LINE
5
229
100
AcDbEntity
8
0
100
AcDbLine
10
396.98064121982941
20
-389.78125646687727
30
0
11
484.76059415429347
21
-408.43946144618303
31
0
0
ARC
5
230
100
AcDbEntity
8
0
100
AcDbCircle
10
670.44581178700446
20
-384.78125646687761
30
0
40
5
100
AcDbArc
50
-90
51
0
0
LINE
5
231
100
AcDbEntity
8
0
100
AcDbLine
10
487.72706178700224
20
-266.44125646687786
30
0
11
487.80186178700467
21
-279.44125646687786
31
0
0
LINE
5
232
100
AcDbEntity
8
0
100
AcDbLine
10
493.07706178700369
20
-396.91675347818659
30
0
11
587.80712729572451
21
-376.78125646687761
31
0
0
CIRCLE
5
233
100
AcDbEntity
8
0
100
AcDbCircle
10
664.74581178700441
20
-277.14125646687796
30
0
40
1.750000000000006
0
LINE
5
234
100
AcDbEntity
8
0
100
AcDbLine
10
675.44581178700446
20
-271.44125646687803
30
0
11
675.44581178700446
21
-384.78125646687761
31
0
0
LINE
5
235
100
AcDbEntity
8
0
100
AcDbLine
10
316.20706178700556
20
-266.44125646687752
30
0
11
487.72706178700224
21
-266.44125646687786
31
0
0
LINE
5
236
100
AcDbEntity
8
0
100
AcDbLine
10
398.3469962782832
20
-376.78125646687749
30
0
11
493.07706178700369
21
-396.91675347818659
31
0
0
LINE
5
237
100
AcDbEntity
8
0
100
AcDbLine
10
311.20706178700561
20
-271.44125646687758
30
0
11
311.2070617870055
21
-384.78125646687715
31
0
0
CIRCLE
5
238
100
AcDbEntity
8
0
100
AcDbCircle
10
436.90706178700509
20
-388.55564349120954
30
0
40
1.7500000000000047
0
ARC
5
239
100
AcDbEntity
8
0
100
AcDbCircle
10
670.44581178700446
20
-271.44125646687803
30
0
40
5
100
AcDbArc
50
0
51
90
0
ARC
5
240
100
AcDbEntity
8
0
100
AcDbCircle
10
325.70706178700567
20
-280.94125646687763
30
0
40
1.4999999999999858
100
AcDbArc
50
90
51
180
0
LINE
5
241
100
AcDbEntity
8
0
100
AcDbLine
10
324.20706178700539
20
-375.28125646687727
30
0
11
324.20706178700561
21
-280.94125646687763
31
0
0
LINE
5
242
100
AcDbEntity
8
0
100
AcDbLine
10
670.44581178700446
20
-266.44125646687803
30
0
11
498.42706178700701
21
-266.4412564668778
31
0
0
CIRCLE
5
243
100
AcDbEntity
8
0
100
AcDbCircle
10
179.74581178700498
20
-425.94125646687758
30
0
40
1.7500000000000082
0
LINE
5
244
100
AcDbEntity
8
0
100
AcDbLine
10
290.94581178700486
20
-526.78125646687749
30
0
11
217.8071272957248
21
-526.78125646687727
31
0
0
LINE
5
245
100
AcDbEntity
8
0
100
AcDbLine
10
219.17348235417833
20
-539.78125646687727
30
0
11
300.44581178700446
21
-539.78125646687749
31
0
0
ARC
5
246
100
AcDbEntity
8
0
100
AcDbCircle
10
300.44581178700446
20
-421.4412564668778
30
0
40
5.0000000000000355
100
AcDbArc
50
0
51
89.999999999998693
0
LINE
5
247
100
AcDbEntity
8
0
100
AcDbLine
10
128.35226178700481
20
-429.44125646687769
30
0
11
290.94581178700491
21
-429.4412564668778
31
0
0
CIRCLE
5
248
100
AcDbEntity
8
0
100
AcDbCircle
10
294.74581178700453
20
-529.08125646687733
30
0
40
1.7499999999999958
0
CIRCLE
5
249
100
AcDbEntity
8
0
100
AcDbCircle
10
294.74581178700458
20
-427.14125646687773
30
0
40
1.750000000000006
0
ARC
5
250
100
AcDbEntity
8
0
100
AcDbCircle
10
-44.292938212994102
20
-430.94125646687746
30
0
40
1.4999999999999147
100
AcDbArc
50
90
51
180
0
CIRCLE
5
251
100
AcDbEntity
8
0
100
AcDbCircle
10
-48.09293821299427
20
-427.14125646687734
30
0
40
1.750000000000004
0
LINE
5
252
100
AcDbEntity
8
0
100
AcDbLine
10
128.42706178700723
20
-416.44125646687758
30
0
11
128.35226178700481
21
-429.44125646687769
31
0
0
CIRCLE
5
253
100
AcDbEntity
8
0
100
AcDbCircle
10
321.90706178700543
20
-529.08125646687711
30
0
40
1.7500000000000004
0
CIRCLE
5
254
100
AcDbEntity
8
0
100
AcDbCircle
10
66.894495883083991
20
-425.44125646687746
30
0
40
1.7500000000000104
0
ARC
5
255
100
AcDbEntity
8
0
100
AcDbCircle
10
325.70706178700561
20
-525.28125646687727
30
0
40
1.500000000000199
100
AcDbArc
50
180
51
270
0
ARC
5
256
100
AcDbEntity
8
0
100
AcDbCircle
10
-44.292938212994244
20
-525.28125646687715
30
0
40
1.5000000000001279
100
AcDbArc
50
180
51
270
0
LINE
5
257
100
AcDbEntity
8
0
100
AcDbLine
10
-58.792938212994343
20
-421.44125646687741
30
0
11
-58.792938212994343
21
-534.78125646687704
31
0
0
LINE
5
258
100
AcDbEntity
8
0
100
AcDbLine
10
131.3935294197141
20
-558.43946144618269
30
0
11
219.17348235417833
21
-539.78125646687727
31
0
0
LINE
5
259
100
AcDbEntity
8
0
100
AcDbLine
10
300.44581178700457
20
-416.4412564668778
30
0
11
128.42706178700723
21
-416.44125646687758
31
0
0
LINE
5
260
100
AcDbEntity
8
0
100
AcDbLine
10
-53.792938212994343
20
-416.44125646687723
30
0
11
117.72706178700254
21
-416.44125646687758
31
0
0
LINE
5
261
100
AcDbEntity
8
0
100
AcDbLine
10
28.346996278283427
20
-526.78125646687715
30
0
11
123.07706178700393
21
-546.91675347818648
31
0
0
ARC
5
262
100
AcDbEntity
8
0
100
AcDbCircle
10
300.44581178700446
20
-534.78125646687749
30
0
40
5
100
AcDbArc
50
-90
51
0
0
LINE
5
263
100
AcDbEntity
8
0
100
AcDbLine
10
-45.792938212994372
20
-525.28125646687715
30
0
11
-45.79293821299423
21
-430.94125646687746
31
0
0
ARC
5
264
100
AcDbEntity
8
0
100
AcDbCircle
10
290.94581178700486
20
-525.28125646687749
30
0
40
1.4999999999999147
100
AcDbArc
50
-90
51
0
0
CIRCLE
5
265
100
AcDbEntity
8
0
100
AcDbCircle
10
66.907061787005304
20
-538.55564349120925
30
0
40
1.7500000000000047
0
LINE
5
266
100
AcDbEntity
8
0
100
AcDbLine
10
26.980641219829593
20
-539.78125646687704
30
0
11
114.76059415429368
21
-558.43946144618269
31
0
0
LINE
5
267
100
AcDbEntity
8
0
100
AcDbLine
10
292.4458117870048
20
-430.94125646687786
30
0
11
292.44581178700474
21
-525.28125646687749
31
0
0
ARC
5
268
100
AcDbEntity
8
0
100
AcDbCircle
10
-53.792938212994201
20
-421.44125646687741
30
0
40
5.0000000000001421
100
AcDbArc
50
90.000000000001634
51
180
0
ARC
5
269
100
AcDbEntity
8
0
100
AcDbCircle
10
123.07706178700393
20
-519.3135574168308
30
0
40
39.999999999999694
100
AcDbArc
50
258.00000000000011
51
281.99999999999983
0
LINE
5
270
100
AcDbEntity
8
0
100
AcDbLine
10
117.72706178700254
20
-416.44125646687758
30
0
11
117.8018617870049
21
-429.44125646687769
31
0
0
LINE
5
271
100
AcDbEntity
8
0
100
AcDbLine
10
28.346996278283427
20
-526.78125646687715
30
0
11
-44.292938212994244
21
-526.78125646687704
31
0
0
LINE
5
272
100
AcDbEntity
8
0
100
AcDbLine
10
128.35226178700481
20
-423.26935934299274
30
0
11
128.35226178700481
21
-429.44125646687769
31
0
0
LINE
5
273
100
AcDbEntity
8
0
100
AcDbLine
10
26.980641219829593
20
-539.78125646687704
30
0
11
-53.792938212994343
21
-539.78125646687704
31
0
0
ARC
5
274
100
AcDbEntity
8
0
100
AcDbCircle
10
316.2070617870055
20
-534.78125646687715
30
0
40
5.0000000000000355
100
AcDbArc
50
180
51
269.99999999999932
0
CIRCLE
5
275
100
AcDbEntity
8
0
100
AcDbCircle
10
-48.092938212994412
20
-529.08125646687699
30
0
40
1.7500000000000004
0
LINE
5
276
100
AcDbEntity
8
0
100
AcDbLine
10
117.8018617870049
20
-429.44125646687769
30
0
11
117.80186178700497
21
-423.26935492416226
31
0
0
LINE
5
277
100
AcDbEntity
8
0
100
AcDbLine
10
-44.292938212994102
20
-429.44125646687752
30
0
11
117.8018617870049
21
-429.44125646687769
31
0
0
LINE
5
278
100
AcDbEntity
8
0
100
AcDbLine
10
123.07706178700393
20
-546.91675347818648
30
0
11
217.8071272957248
21
-526.78125646687727
31
0
0
CIRCLE
5
279
100
AcDbEntity
8
0
100
AcDbCircle
10
179.74581178700475
20
-538.44963090607621
30
0
40
1.7500000000000004
0
LINE
5
280
100
AcDbEntity
8
0
100
AcDbLine
10
305.44581178700452
20
-421.44125646687769
30
0
11
305.44581178700446
21
-534.78125646687749
31
0
0
ARC
5
281
100
AcDbEntity
8
0
100
AcDbCircle
10
-53.792938212994343
20
-534.78125646687704
30
0
40
5
100
AcDbArc
50
180
51
270
0
ARC
5
282
100
AcDbEntity
8
0
100
AcDbCircle
10
290.94581178700491
20
-430.94125646687786
30
0
40
1.4999999999999147
100
AcDbArc
50
0
51
90
0
CIRCLE
5
283
100
AcDbEntity
8
0
100
AcDbCircle
10
549.74581178700464
20
-425.94125646687769
30
0
40
1.7500000000000082
0
LINE
5
284
100
AcDbEntity
8
0
100
AcDbLine
10
660.94581178700469
20
-526.78125646687761
30
0
11
587.80712729572451
21
-526.78125646687749
31
0
0
LINE
5
285
100
AcDbEntity
8
0
100
AcDbLine
10
589.17348235417808
20
-539.78125646687749
30
0
11
670.44581178700446
21
-539.78125646687749
31
0
0
ARC
5
286
100
AcDbEntity
8
0
100
AcDbCircle
10
670.44581178700446
20
-421.44125646687797
30
0
40
5
100
AcDbArc
50
0
51
90
0
LINE
5
287
100
AcDbEntity
8
0
100
AcDbLine
10
498.35226178700452
20
-429.4412564668778
30
0
11
660.9458117870048
21
-429.44125646687792
31
0
0
CIRCLE
5
288
100
AcDbEntity
8
0
100
AcDbCircle
10
664.7458117870043
20
-529.08125646687745
30
0
40
1.7499999999999958
0
CIRCLE
5
289
100
AcDbEntity
8
0
100
AcDbCircle
10
664.74581178700441
20
-427.14125646687791
30
0
40
1.750000000000006
0
ARC
5
290
100
AcDbEntity
8
0
100
AcDbCircle
10
325.70706178700561
20
-430.94125646687746
30
0
40
1.4999999999999147
100
AcDbArc
50
90
51
180
0
CIRCLE
5
291
100
AcDbEntity
8
0
100
AcDbCircle
10
321.90706178700555
20
-427.14125646687751
30
0
40
1.750000000000004
0
LINE
5
292
100
AcDbEntity
8
0
100
AcDbLine
10
498.42706178700695
20
-416.44125646687769
30
0
11
498.35226178700452
21
-429.4412564668778
31
0
0
CIRCLE
5
293
100
AcDbEntity
8
0
100
AcDbCircle
10
436.89449588308372
20
-425.44125646687758
30
0
40
1.7500000000000104
0
ARC
5
294
100
AcDbEntity
8
0
100
AcDbCircle
10
325.70706178700561
20
-525.28125646687727
30
0
40
1.500000000000199
100
AcDbArc
50
180
51
270
0
LINE
5
295
100
AcDbEntity
8
0
100
AcDbLine
10
311.2070617870055
20
-421.44125646687741
30
0
11
311.20706178700544
21
-534.78125646687715
31
0
0
LINE
5
296
100
AcDbEntity
8
0
100
AcDbLine
10
501.39352941971379
20
-558.43946144618303
30
0
11
589.17348235417808
21
-539.78125646687749
31
0
0
LINE
5
297
100
AcDbEntity
8
0
100
AcDbLine
10
670.44581178700446
20
-416.4412564668778
30
0
11
498.42706178700695
21
-416.44125646687769
31
0
0
LINE
5
298
100
AcDbEntity
8
0
100
AcDbLine
10
316.2070617870055
20
-416.44125646687758
30
0
11
487.72706178700219
21
-416.44125646687769
31
0
0
LINE
5
299
100
AcDbEntity
8
0
100
AcDbLine
10
398.34699627828314
20
-526.78125646687727
30
0
11
493.07706178700369
21
-546.91675347818659
31
0
0
ARC
5
300
100
AcDbEntity
8
0
100
AcDbCircle
10
670.44581178700446
20
-534.78125646687749
30
0
40
5
100
AcDbArc
50
-90
51
0
0
LINE
5
301
100
AcDbEntity
8
0
100
AcDbLine
10
324.20706178700539
20
-525.28125646687727
30
0
11
324.20706178700556
21
-430.94125646687746
31
0
0
ARC
5
302
100
AcDbEntity
8
0
100
AcDbCircle
10
660.94581178700469
20
-525.28125646687749
30
0
40
1.5000000000000568
100
AcDbArc
50
-90
51
0
0
CIRCLE
5
303
100
AcDbEntity
8
0
100
AcDbCircle
10
436.90706178700509
20
-538.55564349120937
30
0
40
1.7500000000000047
0
LINE
5
304
100
AcDbEntity
8
0
100
AcDbLine
10
396.98064121982941
20
-539.78125646687715
30
0
11
484.76059415429347
21
-558.43946144618303
31
0
0
LINE
5
305
100
AcDbEntity
8
0
100
AcDbLine
10
662.44581178700457
20
-430.94125646687803
30
0
11
662.44581178700457
21
-525.28125646687749
31
0
0
ARC
5
306
100
AcDbEntity
8
0
100
AcDbCircle
10
316.20706178700556
20
-421.44125646687741
30
0
40
4.9999999999998579
100
AcDbArc
50
90.000000000000654
51
180
0
ARC
5
307
100
AcDbEntity
8
0
100
AcDbCircle
10
493.07706178700369
20
-519.31355741683092
30
0
40
39.999999999999837
100
AcDbArc
50
258.00000000000017
51
281.99999999999966
0
LINE
5
308
100
AcDbEntity
8
0
100
AcDbLine
10
487.72706178700219
20
-416.44125646687769
30
0
11
487.80186178700461
21
-429.4412564668778
31
0
0
LINE
5
309
100
AcDbEntity
8
0
100
AcDbLine
10
398.34699627828314
20
-526.78125646687727
30
0
11
325.70706178700561
21
-526.78125646687715
31
0
0
LINE
5
310
100
AcDbEntity
8
0
100
AcDbLine
10
498.35226178700452
20
-423.26935934299286
30
0
11
498.35226178700452
21
-429.4412564668778
31
0
0
LINE
5
311
100
AcDbEntity
8
0
100
AcDbLine
10
396.98064121982941
20
-539.78125646687715
30
0
11
316.20706178700544
21
-539.78125646687715
31
0
0
CIRCLE
5
312
100
AcDbEntity
8
0
100
AcDbCircle
10
321.90706178700543
20
-529.08125646687711
30
0
40
1.7500000000000004
0
LINE
5
313
100
AcDbEntity
8
0
100
AcDbLine
10
487.80186178700461
20
-429.4412564668778
30
0
11
487.80186178700461
21
-423.26935492416237
31
0
0
LINE
5
314
100
AcDbEntity
8
0
100
AcDbLine
10
325.70706178700561
20
-429.44125646687752
30
0
11
487.80186178700461
21
-429.4412564668778
31
0
0
LINE
5
315
100
AcDbEntity
8
0
100
AcDbLine
10
493.07706178700369
20
-546.91675347818659
30
0
11
587.80712729572451
21
-526.78125646687749
31
0
0
CIRCLE
5
316
100
AcDbEntity
8
0
100
AcDbCircle
10
549.74581178700453
20
-538.44963090607621
30
0
40
1.7500000000000004
0
LINE
5
317
100
AcDbEntity
8
0
100
AcDbLine
10
675.44581178700446
20
-421.4412564668778
30
0
11
675.44581178700446
21
-534.78125646687749
31
0
0
ARC
5
318
100
AcDbEntity
8
0
100
AcDbCircle
10
316.2070617870055
20
-534.78125646687715
30
0
40
5.0000000000000355
100
AcDbArc
50
180
51
269.99999999999932
0
ARC
5
319
100
AcDbEntity
8
0
100
AcDbCircle
10
660.9458117870048
20
-430.94125646687803
30
0
40
1.4999999999997726
100
AcDbArc
50
0
51
90
0
LWPOLYLINE
5
320
100
AcDbEntity
8
0
100
AcDbPolyline
90
12
70
1
43
0.0
10
876.44109397084674
20
-404.67995979448915
42
-0.10510423526567447
10
859.80815870542642
20
-404.67995979448921
10
772.02820577096236
20
-386.02175481518344
10
691.25462633813845
20
-386.02175481518344
42
-0.41421356237309087
10
686.25462633813845
20
-381.0217548151835
10
686.25462633813845
20
-267.68175481518387
42
-0.41421356237309709
10
691.25462633813845
20
-262.68175481518392
10
1045.4933763381371
20
-262.68175481518404
42
-0.41421356237309503
10
1050.4933763381371
20
-267.68175481518404
10
1050.4933763381371
20
-381.02175481518361
42
-0.41421356237309503
10
1045.4933763381371
20
-386.02175481518361
10
964.22104690531091
20
-386.0217548151835
0
CIRCLE
5
321
100
AcDbEntity
8
0
100
AcDbCircle
10
924.79337633813748
20
-272.18175481518392
30
0
40
1.750000000000008
0
CIRCLE
5
322
100
AcDbEntity
8
0
100
AcDbCircle
10
1039.793376338137
20
-375.32175481518357
30
0
40
1.7500000000000002
0
CIRCLE
5
323
100
AcDbEntity
8
0
100
AcDbCircle
10
696.95462633813827
20
-375.32175481518351
30
0
40
1.7500000000000002
0
CIRCLE
5
324
100
AcDbEntity
8
0
100
AcDbCircle
10
696.95462633813827
20
-273.38175481518385
30
0
40
1.7500000000000018
0
CIRCLE
5
325
100
AcDbEntity
8
0
100
AcDbCircle
10
924.79337633813748
20
-384.69012925438233
30
0
40
1.7500000000000002
0
CIRCLE
5
326
100
AcDbEntity
8
0
100
AcDbCircle
10
811.94206043421661
20
-271.68175481518392
30
0
40
1.749999999999992
0
CIRCLE
5
327
100
AcDbEntity
8
0
100
AcDbCircle
10
1039.793376338137
20
-273.38175481518397
30
0
40
1.7499999999999982
0
CIRCLE
5
328
100
AcDbEntity
8
0
100
AcDbCircle
10
811.95462633813804
20
-384.79614183951577
30
0
40
1.7500000000000002
0
LWPOLYLINE
5
329
100
AcDbEntity
8
0
100
AcDbPolyline
90
8
70
1
43
0.0
10
849.92518076016324
20
-443.50949732909748
10
861.66295196896885
20
-446.00443761891052
42
-0.41421356237313145
10
862.43318787888484
20
-447.19049691046217
10
859.93824758907169
20
-458.92826811926784
42
-0.41421356237307466
10
858.75218829752032
20
-459.69850402918388
10
847.01441708871459
20
-457.20356373937074
42
-0.41421356237309503
10
846.2441811787985
20
-456.01750444781919
10
848.73912146861153
20
-444.27973323901347
42
-0.41421356237315182
0
LINE
5
330
100
AcDbEntity
8
0
100
AcDbLine
10
864.16754914690478
20
-418.73184754890696
30
0
11
863.01754914690173
21
-418.73184754890696
31
0
0
LINE
5
331
100
AcDbEntity
8
0
100
AcDbLine
10
863.01754914690173
20
-416.73184754890576
30
0
11
863.01754914690173
21
-413.26184754890568
31
0
0
LWPOLYLINE
5
332
100
AcDbEntity
8
0
100
AcDbPolyline
90
8
70
1
43
0.0
10
843.02924017498992
20
-442.04371990883226
42
-0.41421356237313572
10
843.79947608490602
20
-443.22977920038392
10
841.30453579509299
20
-454.96755040918958
42
-0.41421356237307039
10
840.11847650354127
20
-455.73778631910557
10
828.38070529473555
20
-453.24284602929248
42
-0.41421356237309503
10
827.61046938481945
20
-452.05678673774082
10
830.10540967463271
20
-440.31901552893521
42
-0.41421356237313572
10
831.29146896618408
20
-439.54877961901923
0
LWPOLYLINE
5
333
100
AcDbEntity
8
0
100
AcDbPolyline
90
8
70
1
43
0.0
10
893.03562220890342
20
-441.2497792003839
42
-0.41421356237309936
10
893.80585811881951
20
-440.0637199088323
10
905.54362932762524
20
-437.56877961901915
42
-0.41421356237302964
10
906.72968861917684
20
-438.33901552893531
10
909.22462890898998
20
-450.07678673774086
42
-0.41421356237309503
10
908.45439299907389
20
-451.26284602929252
10
896.71662179026816
20
-453.75778631910555
42
-0.41421356237308637
10
895.53056249871656
20
-452.98755040918957
0
LINE
5
334
100
AcDbEntity
8
0
100
AcDbLine
10
863.01754914690173
20
-418.73184754890696
30
0
11
863.01754914690173
21
-416.73184754890576
31
0
0
LWPOLYLINE
5
335
100
AcDbEntity
8
0
100
AcDbPolyline
90
8
70
1
43
0.0
10
874.40191041492437
20
-445.21049691046221
42
-0.41421356237309503
10
875.17214632484058
20
-444.02443761891055
10
886.90991753364619
20
-441.52949732909752
42
-0.41421356237307466
10
888.09597682519779
20
-442.29973323901362
10
890.59091711501083
20
-454.03750444781929
42
-0.41421356237304569
10
889.82068120509496
20
-455.22356373937077
10
878.08290999628935
20
-457.71850402918403
42
-0.41421356237313572
10
876.89685070473752
20
-456.94826811926788
0
LINE
5
336
100
AcDbEntity
8
0
100
AcDbLine
10
873.71754914690655
20
-416.73184754890576
30
0
11
873.71754914690655
21
-413.26184754890568
31
0
0
LINE
5
337
100
AcDbEntity
8
0
100
AcDbLine
10
873.71754914690655
20
-416.73184754890576
30
0
11
873.71754914690655
21
-418.73184754890696
31
0
0
LWPOLYLINE
5
338
100
AcDbEntity
8
0
100
AcDbPolyline
90
8
70
1
43
0.0
10
839.01418117879859
20
-512.90750444781918
10
841.50912146861174
20
-501.16973323901345
42
-0.41421356237317214
10
842.69518076016323
20
-500.39949732909741
10
854.43295196896884
20
-502.8944376189105
42
-0.41421356237311541
10
855.20318787888482
20
-504.0804969104621
10
852.70824758907168
20
-515.81826811926771
42
-0.41421356237305001
10
851.5221882975203
20
-516.58850402918381
10
839.78441708871458
20
-514.09356373937055
42
-0.41421356237308332
0
LINE
5
339
100
AcDbEntity
8
0
100
AcDbLine
10
872.56754914690475
20
-418.73184754890696
30
0
11
872.56754914690475
21
-429.49761039433236
31
0
0
LINE
5
340
100
AcDbEntity
8
0
100
AcDbLine
10
864.16754914690478
20
-429.49761039433236
30
0
11
864.16754914690478
21
-418.73184754890696
31
0
0
LINE
5
341
100
AcDbEntity
8
0
100
AcDbLine
10
872.56754914690475
20
-429.49761039433236
30
0
11
864.16754914690478
21
-429.49761039433236
31
0
0
LWPOLYLINE
5
342
100
AcDbEntity
8
0
100
AcDbPolyline
90
8
70
1
43
0.0
10
733.84754914690461
20
-450.95184754890573
42
-0.41421356237309503
10
734.84754914690473
20
-449.95184754890568
10
746.84754914690461
20
-449.95184754890568
42
-0.41421356237309503
10
747.84754914690461
20
-450.95184754890573
10
747.84754914690461
20
-462.95184754890579
42
-0.41421356237309503
10
746.84754914690461
20
-463.95184754890579
10
734.84754914690473
20
-463.95184754890573
42
-0.41421356237309503
10
733.84754914690473
20
-462.95184754890579
0
LWPOLYLINE
5
343
100
AcDbEntity
8
0
100
AcDbPolyline
90
8
70
1
43
0.0
10
818.71146896618416
20
-475.82877961901914
10
830.44924017499
20
-478.32371990883223
42
-0.41421356237311541
10
831.21947608490586
20
-479.50977920038383
10
828.72453579509261
20
-491.24755040918944
42
-0.41421356237314438
10
827.53847650354123
20
-492.01778631910543
10
815.80070529473562
20
-489.52284602929262
42
-0.4142135623731808
10
815.0304693848193
20
-488.33678673774074
10
817.52540967463256
20
-476.59901552893524
42
-0.41421356237312401
0
LWPOLYLINE
5
344
100
AcDbEntity
8
0
100
AcDbPolyline
90
8
70
1
43
0.0
10
934.3332817067776
20
-470.40228448867572
10
946.07105291558332
20
-467.90734419886269
42
-0.41421356237302104
10
947.25711220713481
20
-468.67758010877856
10
949.75205249694795
20
-480.41535131758428
42
-0.41421356237305001
10
948.98181658703197
20
-481.60141060913577
10
937.24404537822636
20
-484.09635089894891
42
-0.41421356237311541
10
936.05798608667453
20
-483.32611498903282
10
933.56304579686162
20
-471.58834378022726
42
-0.41421356237304569
0
LWPOLYLINE
5
345
100
AcDbEntity
8
0
100
AcDbPolyline
90
8
70
1
43
0.0
10
753.29754914690466
20
-444.90184754890583
42
-0.41421356237309503
10
752.29754914690466
20
-443.90184754890578
10
752.29754914690466
20
-431.90184754890572
42
-0.41421356237309503
10
753.29754914690466
20
-430.90184754890572
10
765.29754914690443
20
-430.90184754890583
42
-0.41421356237315748
10
766.29754914690454
20
-431.90184754890572
10
766.29754914690466
20
-443.90184754890578
42
-0.41421356237309503
10
765.29754914690454
20
-444.90184754890578
0
LWPOLYLINE
5
346
100
AcDbEntity
8
0
100
AcDbPolyline
90
8
70
1
43
0.0
10
920.00340041315599
20
-454.98829781885695
10
922.49834070296902
20
-466.72606902766256
42
-0.41421356237309503
10
921.72810479305281
20
-467.91212831921422
10
909.99033358424731
20
-470.40706860902736
42
-0.41421356237310369
10
908.8042742926956
20
-469.63683269911121
10
906.30933400288257
20
-457.89906149030548
42
-0.41421356237296858
10
907.07956991279843
20
-456.71300219875405
10
918.81734112160427
20
-454.2180619089408
42
-0.41421356237309503
0
LWPOLYLINE
5
347
100
AcDbEntity
8
0
100
AcDbPolyline
90
8
70
1
43
0.0
10
997.2175491469045
20
-449.9518475489055
42
-0.41421356237309503
10
998.21754914690473
20
-450.95184754890573
10
998.2175491469045
20
-462.95184754890579
42
-0.41421356237309503
10
997.2175491469045
20
-463.95184754890579
10
985.21754914690462
20
-463.95184754890573
42
-0.41421356237309503
10
984.21754914690473
20
-462.95184754890579
10
984.2175491469045
20
-450.95184754890573
42
-0.41421356237309503
10
985.21754914690462
20
-449.95184754890568
0
LWPOLYLINE
5
348
100
AcDbEntity
8
0
100
AcDbPolyline
90
8
70
1
43
0.0
10
727.39754914690479
20
-470.00184754890569
42
-0.41421356237307422
10
728.39754914690479
20
-469.00184754890574
10
740.39754914690457
20
-469.00184754890569
42
-0.41421356237303258
10
741.39754914690468
20
-470.00184754890569
10
741.39754914690457
20
-482.00184754890563
42
-0.4142135623730534
10
740.39754914690479
20
-483.00184754890563
10
728.39754914690479
20
-483.00184754890563
42
-0.41421356237309503
10
727.39754914690468
20
-482.00184754890557
0
LWPOLYLINE
5
349
100
AcDbEntity
8
0
100
AcDbPolyline
90
8
70
1
43
0.0
10
821.48476470956223
20
-451.77706860902725
10
809.7469935007565
20
-449.28212831921405
42
-0.41421356237309936
10
808.97675759084052
20
-448.09606902766257
10
811.47169788065355
20
-436.3582978188569
42
-0.41421356237311541
10
812.65775717220504
20
-435.5880619089408
10
824.39552838101099
20
-438.083002198754
42
-0.41421356237309936
10
825.16576429092697
20
-439.26906149030549
10
822.67082400111371
20
-451.00683269911121
42
-0.41421356237309503
0
LWPOLYLINE
5
350
100
AcDbEntity
8
0
100
AcDbPolyline
90
8
70
1
43
0.0
10
938.63711220713481
20
-451.02758010877864
10
941.13205249694818
20
-462.76535131758419
42
-0.41421356237295254
10
940.36181658703197
20
-463.95141060913579
10
928.62404537822613
20
-466.44635089894894
42
-0.41421356237307039
10
927.43798608667464
20
-465.67611498903295
10
924.94304579686161
20
-453.93834378022723
42
-0.41421356237305429
10
925.71328170677759
20
-452.75228448867557
10
937.45105291558332
20
-450.25734419886248
42
-0.41421356237302531
0
LWPOLYLINE
5
351
100
AcDbEntity
8
0
100
AcDbPolyline
90
8
70
1
43
0.0
10
816.82540967463251
20
-456.96901552893513
42
-0.41421356237313572
10
818.01146896618422
20
-456.19877961901915
10
829.74924017498995
20
-458.69371990883229
42
-0.41421356237309503
10
830.51947608490593
20
-459.87977920038384
10
828.02453579509279
20
-471.61755040918956
42
-0.41421356237309503
10
826.83847650354119
20
-472.38778631910554
10
815.10070529473546
20
-469.89284602929251
42
-0.41421356237308637
10
814.33046938481937
20
-468.70678673774086
0
LWPOLYLINE
5
352
100
AcDbEntity
8
0
100
AcDbPolyline
90
26
70
1
43
0.0
10
990.6645475440165
20
-430.3168510274329
42
-0.41421420394499731
10
991.66454770792927
20
-429.3168490008751
10
996.66454852749303
20
-429.31684900087504
42
-0.41421420394497654
10
997.66454869140591
20
-430.31685102743273
10
997.66454869140603
20
-430.90184754890572
10
1014.5405496024034
20
-430.90184754890572
10
1014.5405496024033
20
-430.31685102743262
42
-0.41421365839022023
10
1015.5405479036709
20
-429.31684900087481
10
1020.5405468605895
20
-429.31684900087441
42
-0.41421474950343956
10
1021.5405488871476
20
-430.31685102743245
10
1021.5405488871477
20
-430.90184754890572
10
1021.6275491469046
20
-430.90184754890561
42
-0.41421356237311585
10
1022.6275491469046
20
-431.90184754890572
10
1022.6275491469045
20
-443.90184754890583
42
-0.41421356237309503
10
1021.6275491469046
20
-444.90184754890578
10
1021.5405491469086
20
-444.90184754890578
10
1021.5405488871478
20
-447.25684870046712
42
-0.41421474950306497
10
1020.54054686059
20
-448.25685072702504
10
991.66454770792984
20
-448.25685072702555
42
-0.41421420394664143
10
990.66454754401661
20
-447.25684870046757
10
990.66454914690951
20
-444.90184754890578
10
990.57754914690463
20
-444.90184754890578
42
-0.41421356237307422
10
989.57754914690452
20
-443.90184754890578
10
989.57754914690463
20
-431.90184754890572
42
-0.41421356237309503
10
990.57754914690463
20
-430.90184754890572
10
990.66454754401661
20
-430.90184754890572
0
LWPOLYLINE
5
353
100
AcDbEntity
8
0
100
AcDbPolyline
90
8
70
1
43
0.0
10
777.83328170677748
20
-461.97141060913577
42
-0.41421356237307905
10
777.0630457968615
20
-460.78535131758423
10
779.55798608667465
20
-449.04758010877856
42
-0.41421356237309936
10
780.74404537822613
20
-448.27734419886247
10
792.48181658703186
20
-450.77228448867567
42
-0.41421356237313572
10
793.25205249694795
20
-451.95834378022732
10
790.7571122071347
20
-463.69611498903288
42
-0.41421356237313572
10
789.57105291558332
20
-464.46635089894892
0
LWPOLYLINE
5
354
100
AcDbEntity
8
0
100
AcDbPolyline
90
8
70
1
43
0.0
10
707.06754914690475
20
-447.8118475489058
10
719.06754914690464
20
-447.8118475489058
42
-0.41421356237309503
10
720.06754914690464
20
-448.81184754890575
10
720.06754914690475
20
-460.8118475489058
42
-0.41421356237309503
10
719.06754914690464
20
-461.8118475489058
10
707.06754914690475
20
-461.81184754890586
42
-0.41421356237309503
10
706.06754914690453
20
-460.81184754890563
10
706.06754914690487
20
-448.81184754890575
42
-0.41421356237309503
0
LWPOLYLINE
5
355
100
AcDbEntity
8
0
100
AcDbPolyline
90
8
70
1
43
0.0
10
733.24754914690459
20
-431.90184754890572
42
-0.41421356237309503
10
734.2475491469047
20
-430.90184754890572
10
746.24754914690482
20
-430.90184754890595
42
-0.41421356237309503
10
747.2475491469047
20
-431.90184754890572
10
747.24754914690493
20
-443.90184754890578
42
-0.41421356237309503
10
746.24754914690482
20
-444.90184754890578
10
734.2475491469047
20
-444.90184754890572
42
-0.41421356237309503
10
733.2475491469047
20
-443.90184754890578
0
LWPOLYLINE
5
356
100
AcDbEntity
8
0
100
AcDbPolyline
90
24
70
1
43
0.0
10
810.91087245470453
20
-529.05697388392468
10
806.02013547132287
20
-528.01741564670465
42
-0.023632142358559882
10
805.92875517716516
20
-527.99342981958318
10
803.72866005714752
20
-527.52578516552535
42
-0.41421474950294918
10
802.95842258630546
20
-526.33972347035626
10
806.48044614495507
20
-509.76990539004106
42
-0.41421474950314102
10
807.66650784012427
20
-508.99966791919735
10
835.91149713009031
20
-515.00332572707907
42
-0.023631676432190371
10
836.00287560228651
20
-515.02731116693053
10
838.20297254426555
20
-515.49495620825849
42
-0.41421420394662373
10
838.97320819316747
20
-516.681017516162
10
835.45118463451797
20
-533.25083559647726
42
-0.41421420394496
10
834.26512476129062
20
-534.02107345458649
10
829.37438595596734
20
-532.98151483010088
42
-0.023631676431660052
10
829.28300748377296
20
-532.95752939024965
10
827.08291054179188
20
-532.48988434892135
42
-0.41421420394498276
10
826.31267489289007
20
-531.30382304101784
10
826.43430297500447
20
-530.73160790374368
42
-0.023635682940154563
10
826.3410529155833
20
-530.7163508989488
10
814.60328170677758
20
-528.22141060913577
42
-0.023631635431456965
10
814.51190339491222
20
-528.19742520336354
10
812.31180801251526
20
-527.72978049353515
42
-0.023635684844288851
10
812.22041429488218
20
-527.70579008729499
10
812.09693050599014
20
-528.28673563855
42
-0.41421365839007512
0
LWPOLYLINE
5
357
100
AcDbEntity
8
0
100
AcDbPolyline
90
8
70
1
43
0.0
10
796.46699350075653
20
-465.93212831921403
42
-0.41421356237309936
10
795.69675759084043
20
-464.74606902766254
10
798.19169788065381
20
-453.00829781885687
42
-0.41421356237311974
10
799.37775717220518
20
-452.23806190894089
10
811.1155283810109
20
-454.73300219875404
42
-0.41421356237313572
10
811.88576429092677
20
-455.91906149030558
10
809.39082400111386
20
-467.65683269911113
42
-0.41421356237313572
10
808.20476470956237
20
-468.42706860902729
0
LWPOLYLINE
5
358
100
AcDbEntity
8
0
100
AcDbPolyline
90
8
70
1
43
0.0
10
834.07453579509274
20
-511.8575504091894
42
-0.4142135623731561
10
832.88847650354114
20
-512.62778631910555
10
821.15070529473564
20
-510.13284602929247
42
-0.41421356237309503
10
820.38046938481955
20
-508.94678673774081
10
822.87540967463269
20
-497.20901552893508
42
-0.41421356237306295
10
824.06146896618407
20
-496.4387796190191
10
835.79924017498979
20
-498.93371990883224
42
-0.41421356237309936
10
836.56947608490577
20
-500.11977920038373
0
LWPOLYLINE
5
359
100
AcDbEntity
8
0
100
AcDbPolyline
90
8
70
1
43
0.0
10
770.93754914690476
20
-429.76184754890573
42
-0.41421356237309503
10
771.93754914690476
20
-428.76184754890579
10
783.93754914690476
20
-428.76184754890579
42
-0.4142135623730534
10
784.93754914690453
20
-429.76184754890573
10
784.93754914690476
20
-441.76184754890579
42
-0.41421356237309503
10
783.93754914690464
20
-442.76184754890579
10
771.93754914690476
20
-442.76184754890573
42
-0.41421356237309503
10
770.93754914690476
20
-441.76184754890579
0
LWPOLYLINE
5
360
100
AcDbEntity
8
0
100
AcDbPolyline
90
8
70
1
43
0.0
10
833.73441708871451
20
-473.85356373937071
42
-0.4142135623730136
10
832.96418117879853
20
-472.66750444781928
10
835.45912146861167
20
-460.92973323901356
42
-0.41421356237314438
10
836.64518076016316
20
-460.15949732909741
10
848.38295196896888
20
-462.65443761891049
42
-0.41421356237316043
10
849.15318787888486
20
-463.84049691046215
10
846.65824758907183
20
-475.57826811926782
42
-0.41421356237316043
10
845.47218829752012
20
-476.3485040291838
0
LWPOLYLINE
5
361
100
AcDbEntity
8
0
100
AcDbPolyline
90
8
70
1
43
0.0
10
759.3575491469046
20
-469.00184754890569
10
771.3575491469046
20
-469.00184754890569
42
-0.41421356237309503
10
772.35754914690472
20
-470.00184754890574
10
772.3575491469046
20
-482.00184754890563
42
-0.41421356237309503
10
771.3575491469046
20
-483.00184754890563
10
759.3575491469046
20
-483.00184754890557
42
-0.41421356237309503
10
758.35754914690472
20
-482.00184754890563
10
758.3575491469046
20
-470.00184754890569
42
-0.41421356237307422
0
LWPOLYLINE
5
362
100
AcDbEntity
8
0
100
AcDbPolyline
90
8
70
1
43
0.0
10
798.89169788065362
20
-472.63829781885698
42
-0.41421356237312712
10
800.07775717220511
20
-471.86806190894083
10
811.81552838101084
20
-474.36300219875397
42
-0.41421356237309936
10
812.58576429092682
20
-475.54906149030552
10
810.09082400111367
20
-487.28683269911119
42
-0.41421356237311974
10
808.9047647095623
20
-488.05706860902717
10
797.16699350075658
20
-485.56212831921414
42
-0.41421356237305001
10
796.39675759084059
20
-484.37606902766248
0
LINE
5
363
100
AcDbEntity
8
0
100
AcDbLine
10
1019.1575491469047
20
-482.00184754890574
30
0
11
1019.1575511734624
21
-469.0018489794175
31
0
0
LWPOLYLINE
5
364
100
AcDbEntity
8
0
100
AcDbPolyline
90
8
70
1
43
0.0
10
945.72181658703187
20
-443.34141060913589
10
933.98404537822614
20
-445.83635089894875
42
-0.41421356237309503
10
932.79798608667477
20
-445.06611498903288
10
930.30304579686174
20
-433.32834378022716
42
-0.41421356237307039
10
931.07328170677772
20
-432.14228448867567
10
942.8110529155831
20
-429.64734419886264
42
-0.41421356237307466
10
943.99711220713471
20
-430.41758010877857
10
946.49205249694785
20
-442.15535131758423
42
-0.41421356237305429
0
LWPOLYLINE
5
365
100
AcDbEntity
8
0
100
AcDbPolyline
90
8
70
1
43
0.0
10
723.22754914690461
20
-428.76184754890579
42
-0.41421356237309503
10
724.22754914690461
20
-429.76184754890573
10
724.22754914690472
20
-441.76184754890579
42
-0.41421356237309503
10
723.22754914690461
20
-442.76184754890579
10
711.22754914690472
20
-442.76184754890585
42
-0.41421356237309503
10
710.22754914690472
20
-441.76184754890579
10
710.22754914690483
20
-429.76184754890573
42
-0.41421356237309503
10
711.22754914690472
20
-428.76184754890579
0
LWPOLYLINE
5
366
100
AcDbEntity
8
0
100
AcDbPolyline
90
8
70
1
43
0.0
10
948.43181658703202
20
-522.20141060913556
10
936.69404537822618
20
-524.69635089894882
42
-0.41421356237308637
10
935.50798608667469
20
-523.92611498903284
10
933.01304579686132
20
-512.18834378022723
42
-0.41421356237298029
10
933.7832817067773
20
-511.00228448867568
10
945.52105291558314
20
-508.50734419886237
42
-0.41421356237311541
10
946.70711220713474
20
-509.27758010877847
10
949.20205249694789
20
-521.01535131758408
42
-0.41421356237304569
0
LWPOLYLINE
5
367
100
AcDbEntity
8
0
100
AcDbPolyline
90
8
70
1
43
0.0
10
1013.7931491469045
20
-507.14984754890565
10
1025.7931491469046
20
-507.14984754890577
42
-0.41421356237309503
10
1026.7931491469046
20
-508.14984754890577
10
1026.7931491469049
20
-520.14984754890565
42
-0.41421356237309503
10
1025.7931491469046
20
-521.14984754890565
10
1013.7931491469046
20
-521.14984754890565
42
-0.41421356237303258
10
1012.7931491469046
20
-520.14984754890565
10
1012.7931491469044
20
-508.14984754890577
42
-0.41421356237303258
0
LINE
5
368
100
AcDbEntity
8
0
100
AcDbLine
10
996.71955028583011
20
-466.64684711260014
30
0
11
996.71955028583011
21
-483.58684478563475
31
0
0
LWPOLYLINE
5
369
100
AcDbEntity
8
0
100
AcDbPolyline
90
8
70
1
43
0.0
10
793.18181658703179
20
-470.4022844886756
42
-0.41421356237309076
10
793.952052496948
20
-471.58834378022726
10
791.45711220713474
20
-483.32611498903276
42
-0.41421356237313572
10
790.27105291558325
20
-484.09635089894891
10
778.53328170677753
20
-481.60141060913583
42
-0.41421356237305001
10
777.76304579686143
20
-480.41535131758428
10
780.25798608667458
20
-468.67758010877856
42
-0.41421356237308637
10
781.44404537822606
20
-467.90734419886257
0
LWPOLYLINE
5
370
100
AcDbEntity
8
0
100
AcDbPolyline
90
8
70
1
43
0.0
10
903.86462890898997
20
-470.68678673774093
42
-0.41421356237304136
10
903.09439299907399
20
-471.87284602929248
10
891.35662179026804
20
-474.36778631910551
42
-0.41421356237305001
10
890.17056249871655
20
-473.59755040918964
10
887.67562220890341
20
-461.85977920038391
42
-0.41421356237308332
10
888.44585811881961
20
-460.67371990883231
10
900.18362932762534
20
-458.17877961901922
42
-0.41421356237305429
10
901.36968861917694
20
-458.94901552893521
0
LWPOLYLINE
5
371
100
AcDbEntity
8
0
100
AcDbPolyline
90
8
70
1
43
0.0
10
757.65754914690456
20
-462.95184754890579
10
757.65754914690456
20
-450.95184754890573
42
-0.41421356237309503
10
758.65754914690467
20
-449.95184754890568
10
770.65754914690478
20
-449.95184754890568
42
-0.41421356237309503
10
771.65754914690478
20
-450.95184754890573
10
771.65754914690467
20
-462.95184754890579
42
-0.41421356237309503
10
770.65754914690478
20
-463.95184754890579
10
758.65754914690467
20
-463.95184754890585
42
-0.41421356237309503
0
LWPOLYLINE
5
372
100
AcDbEntity
8
0
100
AcDbPolyline
90
8
70
1
43
0.0
10
805.76181658703194
20
-434.12228448867558
42
-0.41421356237313572
10
806.53205249694793
20
-435.30834378022723
10
804.03711220713478
20
-447.0461149890329
42
-0.41421356237311541
10
802.8510529155833
20
-447.816350898949
10
791.11328170677757
20
-445.32141060913568
42
-0.41421356237314438
10
790.34304579686147
20
-444.13535131758431
10
792.83798608667462
20
-432.39758010877858
42
-0.41421356237309503
10
794.02404537822622
20
-431.62734419886254
0
LWPOLYLINE
5
373
100
AcDbEntity
8
0
100
AcDbPolyline
90
8
70
1
43
0.0
10
1008.0375491469046
20
-462.95184754890579
10
1008.0375491469046
20
-450.95184754890573
42
-0.41421356237309503
10
1009.0375491469047
20
-449.95184754890568
10
1021.0375491469046
20
-449.95184754890579
42
-0.41421356237313667
10
1022.0375491469047
20
-450.95184754890573
10
1022.0375491469047
20
-462.95184754890585
42
-0.41421356237313667
10
1021.0375491469046
20
-463.95184754890579
10
1009.0375491469046
20
-463.95184754890585
42
-0.4142135623730534
0
LWPOLYLINE
5
374
100
AcDbEntity
8
0
100
AcDbPolyline
90
8
70
1
43
0.0
10
943.62181658703184
20
-502.21141060913578
10
931.88404537822635
20
-504.70635089894876
42
-0.41421356237311108
10
930.69798608667475
20
-503.93611498903283
10
928.20304579686172
20
-492.19834378022716
42
-0.41421356237305001
10
928.97328170677747
20
-491.01228448867562
10
940.7110529155832
20
-488.51734419886259
42
-0.41421356237307039
10
941.8971122071348
20
-489.28758010877851
10
944.39205249694805
20
-501.02535131758418
42
-0.41421356237314438
0
CIRCLE
5
375
100
AcDbEntity
8
0
100
AcDbCircle
10
1040.0362991469042
20
-423.96184754890561
30
0
40
1.7499999999999982
0
LWPOLYLINE
5
376
100
AcDbEntity
8
0
100
AcDbPolyline
90
8
70
1
43
0.0
10
915.69956991279867
20
-474.36300219875397
10
927.43734112160439
20
-471.86806190894106
42
-0.414213562373066
10
928.62340041315576
20
-472.63829781885698
10
931.11834070296879
20
-484.37606902766248
42
-0.41421356237305001
10
930.34810479305293
20
-485.56212831921408
10
918.61033358424709
20
-488.05706860902717
42
-0.41421356237309076
10
917.4242742926956
20
-487.28683269911119
10
914.92933400288257
20
-475.54906149030563
42
-0.41421356237309503
0
LWPOLYLINE
5
377
100
AcDbEntity
8
0
100
AcDbPolyline
90
8
70
1
43
0.0
10
970.52754914690456
20
-443.90184754890578
10
970.52754914690445
20
-431.90184754890572
42
-0.41421356237309503
10
971.52754914690445
20
-430.90184754890572
10
983.52754914690445
20
-430.90184754890572
42
-0.41421356237311585
10
984.52754914690456
20
-431.90184754890572
10
984.52754914690456
20
-443.90184754890583
42
-0.41421356237309503
10
983.52754914690468
20
-444.90184754890578
10
971.52754914690445
20
-444.90184754890572
42
-0.41421356237309503
0
LWPOLYLINE
5
378
100
AcDbEntity
8
0
100
AcDbPolyline
90
8
70
1
43
0.0
10
908.80362932762523
20
-475.82877961901937
42
-0.41421356237304569
10
909.98968861917672
20
-476.59901552893524
10
912.48462890898986
20
-488.33678673774091
42
-0.41421356237308637
10
911.71439299907388
20
-489.5228460292924
10
899.97662179026838
20
-492.01778631910571
42
-0.41421356237310369
10
898.79056249871667
20
-491.24755040918956
10
896.29562220890352
20
-479.50977920038389
42
-0.4142135623730136
10
897.06585811881951
20
-478.3237199088324
0
LWPOLYLINE
5
379
100
AcDbEntity
8
0
100
AcDbPolyline
90
29
70
1
43
0.0
10
1003.1295495705745
20
-488.0518475489057
10
1017.5675491469044
20
-488.0518475489057
42
-0.41421356237311585
10
1018.5675491469044
20
-489.05184754890558
10
1018.5675474481723
20
-502.051846118394
10
1020.0055491469107
20
-502.051846118394
10
1020.005550481572
20
-487.4668503121768
42
-0.41421365839022023
10
1021.0055487828395
20
-486.46684828561911
10
1026.0055477397582
20
-486.46684828561888
42
-0.41421474950343956
10
1027.0055497663161
20
-487.4668503121768
10
1027.0055497663161
20
-488.0518475489057
10
1034.2362991469047
20
-488.05184754890576
42
-0.4142135623730534
10
1035.2362991469045
20
-489.0518475489057
10
1035.2362991469047
20
-501.05184754890558
42
-0.4142135623730534
10
1034.2362991469047
20
-502.0518475489057
10
1027.0055491469086
20
-502.0518475489057
10
1027.0055497663161
20
-504.40684798521147
42
-0.41421474950316906
10
1026.0055477397582
20
-505.40685001176939
10
997.12954858709759
20
-505.40685001176911
42
-0.41421420394666225
10
996.12954842318504
20
-504.40684798521147
10
996.12954914690943
20
-502.0518475489057
10
996.04254914690455
20
-502.05184754890553
42
-0.41421356237309503
10
995.04254914690478
20
-501.0518475489057
10
995.04254914690466
20
-489.0518475489057
42
-0.41421356237311585
10
996.04254914690455
20
-488.0518475489057
10
996.12954842318504
20
-488.0518475489057
10
996.12954842318481
20
-487.4668503121768
42
-0.41421420394501812
10
997.12954858709782
20
-486.46684828561911
10
1002.1295494066615
20
-486.46684828561911
42
-0.41421420394497654
10
1003.1295495705745
20
-487.4668503121768
0
LWPOLYLINE
5
380
100
AcDbEntity
8
0
100
AcDbPolyline
90
8
70
1
43
0.0
10
725.61754914690459
20
-508.10184754890571
42
-0.41421356237309503
10
726.61754914690459
20
-507.10184754890571
10
738.61754914690482
20
-507.10184754890577
42
-0.41421356237309503
10
739.61754914690471
20
-508.10184754890571
10
739.61754914690482
20
-520.10184754890565
42
-0.41421356237309503
10
738.61754914690482
20
-521.10184754890565
10
726.61754914690459
20
-521.10184754890554
42
-0.4142135623730534
10
725.61754914690471
20
-520.10184754890577
0
LWPOLYLINE
5
381
100
AcDbEntity
8
0
100
AcDbPolyline
90
8
70
1
43
0.0
10
764.70754914690474
20
-502.05184754890558
42
-0.41421356237307422
10
763.70754914690463
20
-501.0518475489057
10
763.70754914690451
20
-489.0518475489057
42
-0.41421356237309503
10
764.70754914690463
20
-488.0518475489057
10
776.70754914690474
20
-488.05184754890576
42
-0.41421356237309503
10
777.70754914690474
20
-489.0518475489057
10
777.70754914690474
20
-501.0518475489057
42
-0.41421356237309503
10
776.70754914690474
20
-502.0518475489057
0
LWPOLYLINE
5
382
100
AcDbEntity
8
0
100
AcDbPolyline
90
8
70
1
43
0.0
10
817.93576429092695
20
-496.15906149030548
10
815.44082400111381
20
-507.89683269911109
42
-0.41421356237317647
10
814.2547647095621
20
-508.66706860902724
10
802.5169935007566
20
-506.17212831921398
42
-0.41421356237304263
10
801.74675759084039
20
-504.9860690276625
10
804.24169788065353
20
-493.24829781885683
42
-0.41421356237310369
10
805.42775717220502
20
-492.47806190894084
10
817.16552838101074
20
-494.97300219875387
42
-0.41421356237309503
0
LWPOLYLINE
5
383
100
AcDbEntity
8
0
100
AcDbPolyline
90
8
70
1
43
0.0
10
783.11304579686157
20
-501.02535131758418
10
785.60798608667483
20
-489.28758010877851
42
-0.41421356237307905
10
786.79404537822609
20
-488.51734419886247
10
798.53181658703181
20
-491.01228448867562
42
-0.41421356237309936
10
799.30205249694779
20
-492.19834378022711
10
796.80711220713476
20
-503.93611498903283
42
-0.41421356237309503
10
795.62105291558328
20
-504.70635089894881
10
783.88328170677755
20
-502.21141060913578
42
-0.41421356237305429
0
LWPOLYLINE
5
384
100
AcDbEntity
8
0
100
AcDbPolyline
90
20
70
1
43
0.0
10
745.75754914690469
20
-488.05184754890558
42
-0.41421356237309503
10
746.75754914690469
20
-489.0518475489057
10
746.75754744817129
20
-502.05184611839456
10
748.19555048157281
20
-502.05184611839456
10
748.19555048157281
20
-487.46685031217669
42
-0.4142136583901786
10
749.19554878284043
20
-486.46684828561899
10
754.19554773975915
20
-486.46684828561877
42
-0.41421474950310661
10
755.19554976631616
20
-487.4668503121768
10
755.19554976631628
20
-504.40684798521147
42
-0.41421474950316906
10
754.19554773975824
20
-505.40685001176939
10
725.31954858709787
20
-505.40685001176939
42
-0.41421420394662062
10
724.3195484231851
20
-504.40684798521147
10
724.31954842318487
20
-487.4668503121768
42
-0.41421420394501812
10
725.31954858709787
20
-486.46684828561911
10
730.31954940666151
20
-486.46684828561922
42
-0.41421420394501812
10
731.31954957057451
20
-487.4668503121768
10
731.31954914690846
20
-502.051846118394
10
732.75754887868379
20
-502.051846118394
10
732.75754914690447
20
-489.0518475489057
42
-0.41421356237309503
10
733.75754914690458
20
-488.0518475489057
0
CIRCLE
5
385
100
AcDbEntity
8
0
100
AcDbCircle
10
697.19754914690475
20
-423.96184754890561
30
0
40
1.7500000000000107
0
LWPOLYLINE
5
386
100
AcDbEntity
8
0
100
AcDbPolyline
90
8
70
1
43
0.0
10
715.9975491469047
20
-479.86184754890564
42
-0.41421356237301177
10
714.99754914690482
20
-480.86184754890576
10
702.9975491469047
20
-480.86184754890559
42
-0.4142135623730534
10
701.9975491469047
20
-479.86184754890581
10
701.9975491469047
20
-467.86184754890576
42
-0.41421356237309503
10
702.9975491469047
20
-466.86184754890581
10
714.99754914690482
20
-466.86184754890581
42
-0.41421356237301177
10
715.9975491469047
20
-467.86184754890593
0
LWPOLYLINE
5
387
100
AcDbEntity
8
0
100
AcDbPolyline
90
8
70
1
43
0.0
10
927.85834070296914
20
-446.1160690276626
42
-0.41421356237307466
10
927.08810479305293
20
-447.30212831921421
10
915.35033358424744
20
-449.79706860902746
42
-0.41421356237313572
10
914.16427429269561
20
-449.02683269911131
10
911.66933400288258
20
-437.28906149030558
42
-0.41421356237305001
10
912.43956991279845
20
-436.10300219875398
10
924.17734112160417
20
-433.60806190894073
42
-0.41421356237302964
10
925.363400413156
20
-434.37829781885688
0
LWPOLYLINE
5
388
100
AcDbEntity
8
0
100
AcDbPolyline
90
8
70
1
43
0.0
10
781.98404537822614
20
-508.50734419886248
10
793.72181658703187
20
-511.0022844886754
42
-0.41421356237312712
10
794.49205249694796
20
-512.18834378022723
10
791.99711220713482
20
-523.92611498903284
42
-0.41421356237316781
10
790.8110529155831
20
-524.69635089894894
10
779.07328170677772
20
-522.20141060913568
42
-0.41421356237307466
10
778.30304579686162
20
-521.01535131758419
10
780.79798608667477
20
-509.27758010877852
42
-0.41421356237314438
0
CIRCLE
5
389
100
AcDbEntity
8
0
100
AcDbCircle
10
812.18498324298321
20
-422.26184754890562
30
0
40
1.7499999999999971
0
CIRCLE
5
390
100
AcDbEntity
8
0
100
AcDbCircle
10
925.03629914690441
20
-422.76184754890562
30
0
40
1.7500000000000007
0
LINE
5
391
100
AcDbEntity
8
0
100
AcDbLine
10
1050.7362991469042
20
-531.60184754890554
30
0
11
1050.7362991469042
21
-418.26184754890568
31
0
0
ARC
5
392
100
AcDbEntity
8
0
100
AcDbCircle
10
691.49754914690459
20
-418.26184754890568
30
0
40
5
100
AcDbArc
50
90
51
180
0
LWPOLYLINE
5
393
100
AcDbEntity
8
0
100
AcDbPolyline
90
8
70
1
43
0.0
10
955.15754914690456
20
-482.00184754890563
10
955.15754914690478
20
-470.00184754890569
42
-0.41421356237309503
10
956.15754914690467
20
-469.00184754890574
10
968.15754914690478
20
-469.0018475489058
42
-0.41421356237307422
10
969.15754914690467
20
-470.00184754890569
10
969.15754914690467
20
-482.00184754890563
42
-0.41421356237309503
10
968.15754914690478
20
-483.00184754890563
10
956.15754914690467
20
-483.00184754890574
42
-0.41421356237309503
0
ARC
5
394
100
AcDbEntity
8
0
100
AcDbCircle
10
691.49754914690459
20
-531.60184754890554
30
0
40
5
100
AcDbArc
50
180
51
270
0
CIRCLE
5
395
100
AcDbEntity
8
0
100
AcDbCircle
10
701.71754914690337
20
-516.88184754890574
30
0
40
2
0
CIRCLE
5
396
100
AcDbEntity
8
0
100
AcDbCircle
10
701.71754914690337
20
-521.38184754890574
30
0
40
2
0
LINE
5
397
100
AcDbEntity
8
0
100
AcDbLine
10
1027.5955516289612
20
-483.58684478563447
30
0
11
1027.5955516289609
21
-466.64684711260003
31
0
0
LWPOLYLINE
5
398
100
AcDbEntity
8
0
100
AcDbPolyline
90
8
70
1
43
0.0
10
877.66191041492448
20
-483.47049691046215
42
-0.41421356237307466
10
878.43214632484069
20
-482.2844376189106
10
890.16991753364641
20
-479.78949732909768
42
-0.41421356237302531
10
891.35597682519779
20
-480.55973323901355
10
893.85091711501104
20
-492.29750444781916
42
-0.41421356237309503
10
893.08068120509483
20
-493.48356373937077
10
881.34290999628911
20
-495.9785040291838
42
-0.41421356237305001
10
880.15685070473751
20
-495.20826811926781
0
LWPOLYLINE
5
399
100
AcDbEntity
8
0
100
AcDbPolyline
90
8
70
1
43
0.0
10
869.81214632484068
20
-464.63443761891062
10
881.54991753364607
20
-462.13949732909754
42
-0.41421356237307466
10
882.73597682519789
20
-462.90973323901363
10
885.23091711501115
20
-474.64750444781919
42
-0.41421356237316043
10
884.46068120509483
20
-475.83356373937085
10
872.72290999628933
20
-478.32850402918388
42
-0.41421356237313572
10
871.53685070473773
20
-477.55826811926789
10
869.04191041492459
20
-465.82049691046223
42
-0.4142135623731561
0
LINE
5
400
100
AcDbEntity
8
0
100
AcDbLine
10
772.27112857972884
20
-536.60184754890554
30
0
11
860.05108151419324
21
-555.2600525282113
31
0
0
LINE
5
401
100
AcDbEntity
8
0
100
AcDbLine
10
863.01754914690173
20
-413.26184754890568
30
0
11
691.49754914690459
21
-413.26184754890568
31
0
0
LWPOLYLINE
5
402
100
AcDbEntity
8
0
100
AcDbPolyline
90
8
70
1
43
0.0
10
837.3451807601632
20
-479.78949732909746
10
849.08295196896904
20
-482.28443761891043
42
-0.41421356237309503
10
849.85318787888491
20
-483.47049691046209
10
847.35824758907188
20
-495.2082681192677
42
-0.41421356237308637
10
846.17218829752017
20
-495.9785040291838
10
834.43441708871455
20
-493.48356373937077
42
-0.41421356237308637
10
833.66418117879846
20
-492.29750444781916
10
836.1591214686116
20
-480.5597332390135
42
-0.41421356237309503
0
LWPOLYLINE
5
403
100
AcDbEntity
8
0
100
AcDbPolyline
90
8
70
1
43
0.0
10
913.25033358424719
20
-508.66706860902707
42
-0.41421356237305001
10
912.0642742926957
20
-507.8968326991112
10
909.56933400288244
20
-496.15906149030548
42
-0.41421356237311541
10
910.33956991279854
20
-494.97300219875393
10
922.07734112160415
20
-492.47806190894084
42
-0.41421356237305001
10
923.26340041315575
20
-493.24829781885683
10
925.75834070296878
20
-504.98606902766255
42
-0.41421356237304569
10
924.98810479305291
20
-506.17212831921404
0
CIRCLE
5
404
100
AcDbEntity
8
0
100
AcDbCircle
10
812.19754914690475
20
-535.37623457323775
30
0
40
1.750000000000004
0
LWPOLYLINE
5
405
100
AcDbEntity
8
0
100
AcDbPolyline
90
20
70
1
43
0.0
10
907.49577706358968
20
-515.06045689590053
10
906.08920279600977
20
-515.35943348595094
10
908.79205249694792
20
-528.07535131758391
42
-0.41421356237305001
10
908.02181658703194
20
-529.2614106091354
10
896.28404537822598
20
-531.75635089894888
42
-0.41421356237302964
10
895.0979860866745
20
-530.9861149890329
10
892.39513778498804
20
-518.27019685997948
10
890.98855815360275
20
-518.56917459014187
10
894.02094970666076
20
-532.83545315661866
42
-0.41421365839026347
10
893.25071587970069
20
-534.0215140772566
10
888.35997889631926
20
-535.06107231447675
42
-0.41421474950343462
10
887.17391720114972
20
-534.29083484363309
10
883.65189364250011
20
-517.72101676331795
42
-0.41421474950313664
10
884.42213111334399
20
-516.53495506814852
10
912.66712040330981
20
-510.53129726026657
42
-0.41421420394666641
10
913.8531802765375
20
-511.30153511837591
10
917.37520383518722
20
-527.87135319869094
42
-0.41421420394504382
10
916.6049681862853
20
-529.05741450659457
10
911.71422938096202
20
-530.0969731310804
42
-0.41421420394500935
10
910.52816950773433
20
-529.32673527297106
0
LINE
5
406
100
AcDbEntity
8
0
100
AcDbLine
10
1003.7195491468988
20
-469.00184897941756
30
0
11
1005.1575526039738
21
-469.00184897941756
31
0
0
LWPOLYLINE
5
407
100
AcDbEntity
8
0
100
AcDbPolyline
90
8
70
1
43
0.0
10
904.62968861917693
20
-497.2090155289352
10
907.12462890898996
20
-508.94678673774081
42
-0.41421356237309503
10
906.35439299907375
20
-510.13284602929247
10
894.61662179026825
20
-512.62778631910555
42
-0.41421356237305429
10
893.43056249871665
20
-511.85755040918946
10
890.93562220890362
20
-500.11977920038373
42
-0.4142135623730383
10
891.70585811881949
20
-498.93371990883224
10
903.44362932762522
20
-496.4387796190191
42
-0.41421356237309503
0
LINE
5
408
100
AcDbEntity
8
0
100
AcDbLine
10
1006.1575491469046
20
-483.00184754890563
30
0
11
1018.1575491469046
21
-483.00184754890563
31
0
0
ARC
5
409
100
AcDbEntity
8
0
100
AcDbCircle
10
1002.7195495705735
20
-483.58684681219086
30
0
40
1.0000000000029492
100
AcDbArc
50
-89.999902669752217
51
0.00011611321589023664
0
LWPOLYLINE
5
410
100
AcDbEntity
8
0
100
AcDbPolyline
90
8
70
1
43
0.0
10
974.20754914690463
20
-470.00184754890569
42
-0.41421356237303258
10
975.20754914690451
20
-469.00184754890574
10
987.20754914690474
20
-469.0018475489058
42
-0.41421356237307422
10
988.20754914690474
20
-470.00184754890569
10
988.20754914690474
20
-482.00184754890563
42
-0.41421356237309503
10
987.20754914690474
20
-483.00184754890563
10
975.20754914690451
20
-483.00184754890574
42
-0.4142135623730534
10
974.20754914690463
20
-482.00184754890563
0
LWPOLYLINE
5
411
100
AcDbEntity
8
0
100
AcDbPolyline
90
8
70
1
43
0.0
10
950.79754914690466
20
-488.0518475489057
10
962.79754914690466
20
-488.0518475489057
42
-0.41421356237303258
10
963.79754914690466
20
-489.0518475489057
10
963.79754914690466
20
-501.05184754890558
42
-0.4142135623730534
10
962.79754914690466
20
-502.0518475489057
10
950.79754914690488
20
-502.05184754890576
42
-0.41421356237307422
10
949.79754914690466
20
-501.0518475489057
10
949.79754914690466
20
-489.0518475489057
42
-0.41421356237309503
0
LWPOLYLINE
5
412
100
AcDbEntity
8
0
100
AcDbPolyline
90
8
70
1
43
0.0
10
960.53754914690455
20
-449.89184754890573
10
960.53754914690455
20
-461.89184754890584
42
-0.4142135623730534
10
959.53754914690478
20
-462.89184754890579
10
947.53754914690478
20
-462.89184754890579
42
-0.4142135623730534
10
946.53754914690467
20
-461.89184754890584
10
946.53754914690467
20
-449.89184754890573
42
-0.41421356237307422
10
947.53754914690478
20
-448.89184754890573
10
959.53754914690478
20
-448.89184754890596
42
-0.41421356237309503
0
ARC
5
413
100
AcDbEntity
8
0
100
AcDbCircle
10
1045.7362991469042
20
-418.26184754890568
30
0
40
5.0000000000001421
100
AcDbArc
50
0
51
90
0
LWPOLYLINE
5
414
100
AcDbEntity
8
0
100
AcDbPolyline
90
8
70
1
43
0.0
10
981.84754914690473
20
-488.0518475489057
42
-0.41421356237311585
10
982.8475491469045
20
-489.05184754890558
10
982.84754914690461
20
-501.0518475489057
42
-0.41421356237309503
10
981.84754914690473
20
-502.0518475489057
10
969.84754914690473
20
-502.0518475489057
42
-0.4142135623730534
10
968.84754914690461
20
-501.0518475489057
10
968.84754914690461
20
-489.0518475489057
42
-0.41421356237309503
10
969.84754914690473
20
-488.0518475489057
0
CIRCLE
5
415
100
AcDbEntity
8
0
100
AcDbCircle
10
925.03629914690441
20
-535.27022198810425
30
0
40
1.7499999999999993
0
LWPOLYLINE
5
416
100
AcDbEntity
8
0
100
AcDbPolyline
90
8
70
1
43
0.0
10
964.89754914690479
20
-442.76184754890579
10
952.89754914690479
20
-442.76184754890585
42
-0.41421356237309503
10
951.89754914690468
20
-441.76184754890579
10
951.89754914690479
20
-429.76184754890573
42
-0.41421356237309503
10
952.89754914690479
20
-428.76184754890579
10
964.89754914690479
20
-428.76184754890596
42
-0.41421356237309503
10
965.89754914690457
20
-429.76184754890573
10
965.89754914690479
20
-441.76184754890579
42
-0.4142135623730534
0
ARC
5
417
100
AcDbEntity
8
0
100
AcDbCircle
10
1018.1575511734615
20
-482.00184754890483
30
0
40
1.0000000000028493
100
AcDbArc
50
269.99988388684272
51
360
0
LWPOLYLINE
5
418
100
AcDbEntity
8
0
100
AcDbPolyline
90
8
70
1
43
0.0
10
979.16754914690455
20
-450.95184754890573
10
979.16754914690443
20
-462.95184754890579
42
-0.41421356237309503
10
978.16754914690455
20
-463.95184754890579
10
966.16754914690455
20
-463.95184754890556
42
-0.41421356237309503
10
965.16754914690478
20
-462.95184754890579
10
965.16754914690478
20
-450.95184754890573
42
-0.41421356237309503
10
966.16754914690489
20
-449.95184754890568
10
978.16754914690455
20
-449.95184754890568
42
-0.41421356237309503
0
ARC
5
419
100
AcDbEntity
8
0
100
AcDbCircle
10
997.71955028583102
20
-466.64684508604319
30
0
40
1.0000000000029914
100
AcDbArc
50
89.999883886842738
51
180.00011611321588
0
LINE
5
420
100
AcDbEntity
8
0
100
AcDbLine
10
1026.5955514650482
20
-465.64684508604205
30
0
11
997.71955231238792
21
-465.64684508604222
31
0
0
ARC
5
421
100
AcDbEntity
8
0
100
AcDbCircle
10
1006.1575526039746
20
-482.00184754890472
30
0
40
1.0000034570700223
100
AcDbArc
50
180
51
269.99980192447583
0
ARC
5
422
100
AcDbEntity
8
0
100
AcDbCircle
10
997.71955028583079
20
-483.58684681219211
30
0
40
1.0000000000027072
100
AcDbArc
50
179.99988388678412
51
270.00011611318985
0
LINE
5
423
100
AcDbEntity
8
0
100
AcDbLine
10
1019.1575511734624
20
-469.0018489794175
30
0
11
1020.5955491469019
21
-469.0018489794175
31
0
0
ARC
5
424
100
AcDbEntity
8
0
100
AcDbCircle
10
1026.5955516289612
20
-466.64684508604415
30
0
40
1.0000000000019966
100
AcDbArc
50
-0.00011611321589021677
51
90.000009391523136
0
LINE
5
425
100
AcDbEntity
8
0
100
AcDbLine
10
997.71955231238826
20
-484.58684681219268
30
0
11
1002.7195512693067
21
-484.58684681219239
31
0
0
ARC
5
426
100
AcDbEntity
8
0
100
AcDbCircle
10
1045.7362991469042
20
-531.60184754890554
30
0
40
5
100
AcDbArc
50
-90
51
0
0
ARC
5
427
100
AcDbEntity
8
0
100
AcDbCircle
10
1026.5955516289587
20
-483.58684681218745
30
0
40
1.0000000000047884
100
AcDbArc
50
-90.000009391366802
51
0.00011611321589023664
0
ARC
5
428
100
AcDbEntity
8
0
100
AcDbCircle
10
1021.5955504815746
20
-483.58684681218745
30
0
40
1.0000000000048388
100
AcDbArc
50
179.99988388678412
51
270.00000939134725
0
LINE
5
429
100
AcDbEntity
8
0
100
AcDbLine
10
1021.5955506454845
20
-484.58684681219222
30
0
11
1026.5955514650484
21
-484.58684681219222
31
0
0
CIRCLE
5
430
100
AcDbEntity
8
0
100
AcDbCircle
10
1040.0362991469042
20
-525.90184754890549
30
0
40
1.749999999999992
0
LINE
5
431
100
AcDbEntity
8
0
100
AcDbLine
10
873.71754914690655
20
-418.73184754890696
30
0
11
872.56754914690475
21
-418.73184754890696
31
0
0
LINE
5
432
100
AcDbEntity
8
0
100
AcDbLine
10
1045.7362991469042
20
-413.26184754890568
30
0
11
873.71754914690655
21
-413.26184754890568
31
0
0
LINE
5
433
100
AcDbEntity
8
0
100
AcDbLine
10
876.68401677961356
20
-555.2600525282113
30
0
11
964.46396971407808
21
-536.60184754890554
31
0
0
LINE
5
434
100
AcDbEntity
8
0
100
AcDbLine
10
691.49754914690459
20
-536.60184754890554
30
0
11
772.27112857972884
21
-536.60184754890554
31
0
0
LWPOLYLINE
5
435
100
AcDbEntity
8
0
100
AcDbPolyline
90
8
70
1
43
0.0
10
885.99597682519789
20
-501.16973323901345
10
888.49091711501092
20
-512.90750444781918
42
-0.41421356237308637
10
887.72068120509493
20
-514.09356373937067
10
875.98290999628921
20
-516.5885040291837
42
-0.41421356237304569
10
874.79685070473761
20
-515.81826811926794
10
872.30191041492446
20
-504.08049691046216
42
-0.41421356237309503
10
873.07214632484045
20
-502.89443761891062
10
884.80991753364617
20
-500.39949732909747
42
-0.41421356237305429
0
LINE
5
436
100
AcDbEntity
8
0
100
AcDbLine
10
964.46396971407808
20
-536.60184754890554
30
0
11
1045.7362991469042
21
-536.60184754890554
31
0
0
LINE
5
437
100
AcDbEntity
8
0
100
AcDbLine
10
1003.7195495705746
20
-483.5868447856347
30
0
11
1003.7195491468988
21
-469.00184897941756
31
0
0
LWPOLYLINE
5
438
100
AcDbEntity
8
0
100
AcDbPolyline
90
8
70
1
43
0.0
10
844.31999479692809
20
-521.24275028463228
42
-0.41421356237303397
10
845.50605408847957
20
-520.47251437471618
10
859.57181658703178
20
-523.46228448867566
42
-0.41421356237309936
10
860.34205249694776
20
-524.64834378022715
10
857.84711220713473
20
-536.38611498903276
42
-0.41421356237311541
10
856.66105291558324
20
-537.15635089894886
10
842.59529041703092
20
-534.16658078498938
42
-0.41421356237309936
10
841.82505450711483
20
-532.98052149343789
0
LINE
5
439
100
AcDbEntity
8
0
100
AcDbLine
10
686.49754914690459
20
-418.26184754890568
30
0
11
686.49754914690459
21
-531.60184754890554
31
0
0
ARC
5
440
100
AcDbEntity
8
0
100
AcDbCircle
10
868.36754914690334
20
-516.13414849885908
30
0
40
39.999999999999872
100
AcDbArc
50
258.0000000000004
51
281.99999999999977
0
LINE
5
441
100
AcDbEntity
8
0
100
AcDbLine
10
1020.5955491469019
20
-469.0018489794175
30
0
11
1020.5955504815718
21
-483.58684478563464
31
0
0
LINE
5
442
100
AcDbEntity
8
0
100
AcDbLine
10
1005.1575526039738
20
-469.00184897941756
30
0
11
1005.1575491469046
21
-482.00184754890563
31
0
0
CIRCLE
5
443
100
AcDbEntity
8
0
100
AcDbCircle
10
701.71754914690337
20
-512.38184754890563
30
0
40
2
0
CIRCLE
5
444
100
AcDbEntity
8
0
100
AcDbCircle
10
697.19754914690475
20
-525.90184754890549
30
0
40
1.7499999999999911
0
LWPOLYLINE
5
445
100
AcDbEntity
8
0
100
AcDbPolyline
90
12
70
1
43
0.0
10
302.0065315068025
20
-117.77286564847449
42
-0.41421356237309398
10
307.0065315068025
20
-122.77286564847446
10
307.00653150680273
20
-236.11286564847438
42
-0.41421356237309293
10
302.00653150680267
20
-241.11286564847438
10
220.73420207397632
20
-241.11286564847438
10
132.9542491395118
20
-259.7710706277802
42
-0.10510423526567313
10
116.32131387409146
20
-259.77107062778015
10
28.541360939627083
20
-241.11286564847438
10
-52.232218493197138
20
-241.11286564847447
42
-0.41421356237309087
10
-57.232218493197138
20
-236.11286564847438
10
-57.232218493197102
20
-122.77286564847449
42
-0.41421356237308982
10
-52.232218493197138
20
-117.77286564847446
0
LWPOLYLINE
5
446
100
AcDbEntity
8
0
100
AcDbPolyline
90
44
70
1
43
0.0
10
225.19778150680338
20
-131.74286564847455
10
225.19778150680338
20
-132.38286564847456
10
280.42778150680363
20
-132.38286564847465
42
-0.41421356237309503
10
281.92778150680351
20
-133.88286564847454
10
281.9277815068034
20
-151.43286564847449
10
284.59778150680347
20
-151.43286564847449
42
-0.41421356237309503
10
286.09778150680359
20
-152.93286564847455
10
286.0977815068037
20
-170.4828656484745
10
288.85778150680352
20
-170.4828656484745
42
-0.41421356237309503
10
290.35778150680358
20
-171.98286564847456
10
290.35778150680358
20
-189.53286564847451
10
293.03653150680361
20
-189.5328656484748
42
-0.41421356237309503
10
294.53653150680339
20
-191.03286564847457
10
294.53653150680367
20
-208.09286564847454
42
-0.41421356237309503
10
293.03653150680361
20
-209.5928656484746
10
290.86338150680365
20
-209.5928656484746
10
290.86338150680353
20
-227.19086564847458
42
-0.41421356237309503
10
289.36338150680353
20
-228.69086564847458
10
262.76338150680374
20
-228.69086564847478
42
-0.41421356237309503
10
261.26338150680351
20
-227.19086564847458
10
261.26338150680351
20
-209.5928656484746
10
210.0495473144187
20
-209.5928656484746
10
213.61807124433204
20
-226.38145077553929
42
-0.41421356237309798
10
212.4627173794579
20
-228.16053971286669
10
186.46354890737899
20
-233.68683356957143
42
-0.41343065285069952
10
184.68529907257889
20
-232.53540158316099
10
134.37214777410389
20
-243.22979202994858
42
-0.41421356237310863
10
132.59305883677641
20
-242.07443816507458
10
125.08386314778691
20
-206.74645002868903
42
-0.41421356237311441
10
126.23921701266099
20
-204.96736109136157
10
134.09171854493863
20
-203.29826036515209
10
130.34227906085661
20
-185.65853447467225
10
127.1495367314462
20
-186.33717280651015
42
-0.41421356237306789
10
125.370447794119
20
-185.18181894163604
10
121.82347434876795
20
-168.49462087311733
42
-0.41421356237307078
10
122.97882821364183
20
-166.71553193579001
10
130.82379570184685
20
-165.04803262008409
10
127.17347434876798
20
-147.87462087311729
42
-0.41421356237308149
10
128.32882821364208
20
-146.09553193579004
10
202.26784982059473
20
-130.37930772977063
42
-0.042377065210176174
10
202.51968448159317
20
-130.34773092767927
10
205.10777709856143
20
-130.24406744528241
42
-0.010008486346810083
10
205.16780997378945
20
-130.24286564847449
10
223.69778150680361
20
-130.24286564847478
42
-0.41421356237309503
0
LWPOLYLINE
5
447
100
AcDbEntity
8
0
100
AcDbPolyline
90
44
70
1
43
0.0
10
114.7760262821609
20
-245.15717280651018
10
55.361776783509384
20
-232.5282842188723
10
55.361097798981106
20
-232.53147858992867
42
-0.41421356237308149
10
53.582008861653634
20
-233.68683245480284
10
27.582845634149113
20
-228.16053971286669
42
-0.41421356237308149
10
26.427491769275093
20
-226.38145077553935
10
29.996015699188376
20
-209.5928656484746
10
3.6877815068035602
20
-209.5928656484746
10
3.6877815068035602
20
-227.14286564847455
42
-0.41421356237309503
10
2.1877815068035034
20
-228.64286564847461
10
-24.412218493196463
20
-228.64286564847461
42
-0.41421356237309503
10
-25.912218493196519
20
-227.14286564847455
10
-25.912218493196519
20
-191.03286564847457
42
-0.41421356237309503
10
-24.412218493196463
20
-189.53286564847451
10
-21.742218493196503
20
-189.53286564847451
10
-21.742218493196503
20
-171.98286564847456
42
-0.41421356237309503
10
-20.242218493196447
20
-170.4828656484745
10
-17.672218493196468
20
-170.4828656484745
10
-17.67221849319661
20
-152.93286564847455
42
-0.41421356237309503
10
-16.172218493196624
20
-151.43286564847457
10
-13.512218493196499
20
-151.43286564847457
10
-13.512218493196499
20
-133.88286564847454
42
-0.41421356237309503
10
-12.012218493196514
20
-132.38286564847456
10
24.177781506803413
20
-132.38286564847456
10
24.177781506803555
20
-131.74286564847449
42
-0.41421356237309503
10
25.677781506803541
20
-130.24286564847449
10
42.737781506803429
20
-130.24286564847444
42
-0.41421356237309503
10
44.237781506803486
20
-131.74286564847449
10
44.237781506803486
20
-131.75141048393891
10
121.03673479996502
20
-148.07553193578988
42
-0.41421356237310863
10
122.1920886648391
20
-149.85462087311731
10
118.64511521948822
20
-166.541818941636
42
-0.41421356237310575
10
116.86602628216093
20
-167.69717280651008
10
109.01542208133591
20
-166.02847537055055
10
105.2641288223171
20
-183.67692258641404
10
108.45673479996491
20
-184.35553193578997
42
-0.41421356237308438
10
109.61208866483901
20
-186.13462087311723
10
105.96380099497551
20
-203.29846489279595
10
113.80673479996504
20
-204.96553193578993
42
-0.41421356237306212
10
114.96208866483911
20
-206.74462087311738
10
111.31285800088975
20
-223.91290133116584
10
118.94673479996497
20
-225.53553193578978
42
-0.41421356237308438
10
120.10208866483907
20
-227.31462087311706
10
116.55511521948821
20
-244.00181894163597
42
-0.41421356237306212
0
CIRCLE
5
448
100
AcDbEntity
8
0
100
AcDbCircle
10
181.3065315068026
20
-127.27286564847445
30
0
40
1.750000000000006
0
CIRCLE
5
449
100
AcDbEntity
8
0
100
AcDbCircle
10
181.3065315068026
20
-239.78124008767321
30
0
40
1.7500000000000002
0
CIRCLE
5
450
100
AcDbEntity
8
0
100
AcDbCircle
10
296.30653150680257
20
-230.41286564847439
30
0
40
1.749999999999996
0
LWPOLYLINE
5
451
100
AcDbEntity
8
0
100
AcDbPolyline
90
20
70
1
43
0.0
10
-24.702218493196568
20
-186.90286564847455
42
-0.41421356237309503
10
-26.202218493196554
20
-188.40286564847452
10
-43.262218493196514
20
-188.40286564847452
42
-0.41421356237309503
10
-44.762218493196499
20
-186.90286564847455
10
-44.762218493196499
20
-169.84286564847451
42
-0.41421356237309503
10
-43.262218493196514
20
-168.34286564847451
10
-40.692218493196606
20
-168.34286564847451
10
-40.692218493196606
20
-150.79286564847456
42
-0.41421356237309503
10
-39.192218493196478
20
-149.29286564847445
10
-36.532218493196496
20
-149.2928656484745
10
-36.532218493196496
20
-131.74286564847449
42
-0.41421356237309503
10
-35.03221849319651
20
-130.24286564847449
10
-17.972218493196408
20
-130.24286564847458
42
-0.41421356237309503
10
-16.472218493196493
20
-131.74286564847449
10
-16.472218493196422
20
-148.80286564847452
42
-0.41421356237309503
10
-17.972218493196408
20
-150.30286564847449
10
-20.632218493196604
20
-150.30286564847449
10
-20.632218493196604
20
-167.85286564847462
42
-0.41421356237309503
10
-22.132218493196518
20
-169.35286564847451
10
-24.702218493196568
20
-169.35286564847451
0
CIRCLE
5
452
100
AcDbEntity
8
0
100
AcDbCircle
10
-46.532218493197064
20
-230.41286564847439
30
0
40
1.7499999999999918
0
CIRCLE
5
453
100
AcDbEntity
8
0
100
AcDbCircle
10
68.455215602881481
20
-126.77286564847446
30
0
40
1.7500000000000016
0
CIRCLE
5
454
100
AcDbEntity
8
0
100
AcDbCircle
10
68.467781506802936
20
-239.88725267280665
30
0
40
1.7500000000000049
0
CIRCLE
5
455
100
AcDbEntity
8
0
100
AcDbCircle
10
296.30653150680257
20
-128.47286564847445
30
0
40
1.7500000000000007
0
LINE
5
456
100
AcDbEntity
8
0
100
AcDbLine
10
-46.473229570897274
20
-126.72386012903038
30
0
11
-46.539221725975395
21
-126.72386012903038
31
0
0
CIRCLE
5
457
100
AcDbEntity
8
0
100
AcDbCircle
10
-46.532218493197064
20
-128.47286564847448
30
0
40
1.7500000000000002
0
CIRCLE
5
458
100
AcDbEntity
8
0
100
AcDbCircle
10
550.77654473545704
20
-125.25723070598073
30
0
40
1.7500000000000082
0
ARC
5
459
100
AcDbEntity
8
0
100
AcDbCircle
10
661.97654473545651
20
-224.59723070598019
30
0
40
1.5000000000000568
100
AcDbArc
50
-90
51
0
0
CIRCLE
5
460
100
AcDbEntity
8
0
100
AcDbCircle
10
665.77654473545635
20
-126.45723070598083
30
0
40
1.750000000000006
0
ARC
5
461
100
AcDbEntity
8
0
100
AcDbCircle
10
326.73779473545881
20
-224.59723070597985
30
0
40
1.500000000000199
100
AcDbArc
50
180
51
270
0
LINE
5
462
100
AcDbEntity
8
0
100
AcDbLine
10
399.37772922673611
20
-226.09723070597997
30
0
11
494.10779473545631
21
-246.23272771728909
31
0
0
LINE
5
463
100
AcDbEntity
8
0
100
AcDbLine
10
494.10779473545631
20
-246.23272771728909
30
0
11
588.8378602441768
21
-226.09723070598011
31
0
0
CIRCLE
5
464
100
AcDbEntity
8
0
100
AcDbCircle
10
665.77654473545624
20
-228.39723070598015
30
0
40
1.7499999999999958
0
LINE
5
465
100
AcDbEntity
8
0
100
AcDbLine
10
317.23779473545869
20
-115.75723070598052
30
0
11
488.75779473545481
21
-115.75723070598076
31
0
0
LINE
5
466
100
AcDbEntity
8
0
100
AcDbLine
10
663.47654473545663
20
-130.25723070598087
30
0
11
663.4765447354564
21
-224.59723070598019
31
0
0
ARC
5
467
100
AcDbEntity
8
0
100
AcDbCircle
10
671.47654473545629
20
-120.75723070598099
30
0
40
5
100
AcDbArc
50
0
51
90
0
LINE
5
468
100
AcDbEntity
8
0
100
AcDbLine
10
312.23779473545881
20
-120.75723070598048
30
0
11
312.23779473545869
21
-234.09723070597965
31
0
0
LINE
5
469
100
AcDbEntity
8
0
100
AcDbLine
10
398.01137416828226
20
-239.09723070597974
30
0
11
317.23779473545869
21
-239.0972307059796
31
0
0
ARC
5
470
100
AcDbEntity
8
0
100
AcDbCircle
10
671.47654473545629
20
-234.09723070598002
30
0
40
4.9999999999999289
100
AcDbArc
50
270
51
360
0
LINE
5
471
100
AcDbEntity
8
0
100
AcDbLine
10
399.37772922673611
20
-226.09723070597997
30
0
11
326.73779473545881
21
-226.09723070597983
31
0
0
LINE
5
472
100
AcDbEntity
8
0
100
AcDbLine
10
661.97654473545651
20
-226.09723070598025
30
0
11
588.8378602441768
21
-226.09723070598011
31
0
0
LINE
5
473
100
AcDbEntity
8
0
100
AcDbLine
10
499.38299473545703
20
-128.75723070598067
30
0
11
661.97654473545663
21
-128.75723070598082
31
0
0
ARC
5
474
100
AcDbEntity
8
0
100
AcDbCircle
10
326.73779473545881
20
-130.25723070598045
30
0
40
1.5000000000000568
100
AcDbArc
50
90
51
180
0
CIRCLE
5
475
100
AcDbEntity
8
0
100
AcDbCircle
10
550.77654473545704
20
-237.76560514517871
30
0
40
1.7500000000000004
0
CIRCLE
5
476
100
AcDbEntity
8
0
100
AcDbCircle
10
437.93779473545783
20
-237.87161773031198
30
0
40
1.7500000000000047
0
LINE
5
477
100
AcDbEntity
8
0
100
AcDbLine
10
676.47654473545629
20
-120.75723070598099
30
0
11
676.47654473545617
21
-234.09723070598017
31
0
0
LINE
5
478
100
AcDbEntity
8
0
100
AcDbLine
10
499.45779473545946
20
-115.7572307059807
30
0
11
499.38299473545703
21
-128.75723070598067
31
0
0
LINE
5
479
100
AcDbEntity
8
0
100
AcDbLine
10
488.75779473545481
20
-115.75723070598076
30
0
11
488.83259473545712
21
-128.75723070598067
31
0
0
LINE
5
480
100
AcDbEntity
8
0
100
AcDbLine
10
326.73779473545881
20
-128.75723070598039
30
0
11
488.83259473545712
21
-128.75723070598067
31
0
0
LINE
5
481
100
AcDbEntity
8
0
100
AcDbLine
10
325.23779473545858
20
-224.59723070597985
30
0
11
325.23779473545869
21
-130.25723070598045
31
0
0
ARC
5
482
100
AcDbEntity
8
0
100
AcDbCircle
10
661.97654473545663
20
-130.25723070598087
30
0
40
1.4999999999999147
100
AcDbArc
50
0
51
90
0
CIRCLE
5
483
100
AcDbEntity
8
0
100
AcDbCircle
10
322.93779473545874
20
-126.45723070598035
30
0
40
1.750000000000004
0
ARC
5
484
100
AcDbEntity
8
0
100
AcDbCircle
10
317.23779473545881
20
-120.75723070598048
30
0
40
4.9999999999999645
100
AcDbArc
50
90.000000000001307
51
180
0
ARC
5
485
100
AcDbEntity
8
0
100
AcDbCircle
10
317.23779473545869
20
-234.09723070597965
30
0
40
5
100
AcDbArc
50
180
51
270
0
LINE
5
486
100
AcDbEntity
8
0
100
AcDbLine
10
590.20421530263036
20
-239.09723070597988
30
0
11
671.47654473545629
21
-239.09723070597994
31
0
0
LINE
5
487
100
AcDbEntity
8
0
100
AcDbLine
10
398.01137416828226
20
-239.09723070597974
30
0
11
485.7913271027461
21
-257.75543568528553
31
0
0
LINE
5
488
100
AcDbEntity
8
0
100
AcDbLine
10
499.38299473545703
20
-122.58533358209587
30
0
11
499.38299473545703
21
-128.75723070598067
31
0
0
CIRCLE
5
489
100
AcDbEntity
8
0
100
AcDbCircle
10
322.93779473545874
20
-228.39723070597967
30
0
40
1.7500000000000004
0
LINE
5
490
100
AcDbEntity
8
0
100
AcDbLine
10
488.83259473545712
20
-128.75723070598067
30
0
11
488.83259473545718
21
-122.58532916326533
31
0
0
ARC
5
491
100
AcDbEntity
8
0
100
AcDbCircle
10
494.10779473545625
20
-218.6295316559337
30
0
40
39.999999999999545
100
AcDbArc
50
258.00000000000017
51
281.99999999999983
0
LINE
5
492
100
AcDbEntity
8
0
100
AcDbLine
10
502.42426236816641
20
-257.75543568528553
30
0
11
590.20421530263036
21
-239.09723070597988
31
0
0
LINE
5
493
100
AcDbEntity
8
0
100
AcDbLine
10
671.47654473545629
20
-115.75723070598099
30
0
11
499.45779473545946
21
-115.7572307059807
31
0
0
CIRCLE
5
494
100
AcDbEntity
8
0
100
AcDbCircle
10
437.92522883153651
20
-124.75723070598062
30
0
40
1.7500000000000104
0
CIRCLE
5
495
100
AcDbEntity
8
0
100
AcDbCircle
10
811.94162633813846
20
-292.68175481518404
30
0
40
1.7499999999999947
0
CIRCLE
5
496
100
AcDbEntity
8
0
100
AcDbCircle
10
924.80637633813717
20
-292.68175481518404
30
0
40
1.7500000000000127
0
CIRCLE
5
497
100
AcDbEntity
8
0
100
AcDbCircle
10
1030.4933763381371
20
-292.68175481518404
30
0
40
1.7499999999999469
0
CIRCLE
5
498
100
AcDbEntity
8
0
100
AcDbCircle
10
706.25462633813845
20
-292.68175481518404
30
0
40
1.7499999999999476
0
CIRCLE
5
499
100
AcDbEntity
8
0
100
AcDbCircle
10
63.796100229819785
20
-583.68823272882832
30
0
40
1.7499999999999947
0
CIRCLE
5
500
100
AcDbEntity
8
0
100
AcDbCircle
10
-41.890899770180283
20
-583.68823272882832
30
0
40
1.7499999999999476
0
LWPOLYLINE
5
501
100
AcDbEntity
8
0
100
AcDbPolyline
90
8
70
1
43
0.0
10
294.34798327645439
20
-585.68823272882832
42
-0.41421356237309503
10
289.34798327645439
20
-590.68823272882832
10
-48.891016723545562
20
-590.68823272882832
42
-0.41421356237309503
10
-53.891016723545704
20
-585.68823272882821
10
-53.891016723545704
20
-581.68823272882821
42
-0.41421356237309503
10
-48.891016723545704
20
-576.68823272882821
10
289.34798327645439
20
-576.68823272882821
42
-0.41421356237309503
10
294.34798327645439
20
-581.68823272882821
0
CIRCLE
5
502
100
AcDbEntity
8
0
100
AcDbCircle
10
282.34785022981839
20
-583.68823272882832
30
0
40
1.7499999999999469
0
CIRCLE
5
503
100
AcDbEntity
8
0
100
AcDbCircle
10
176.66085022981846
20
-583.68823272882832
30
0
40
1.7500000000000127
0
CIRCLE
5
504
100
AcDbEntity
8
0
100
AcDbCircle
10
282.34785022981839
20
-603.68823272882832
30
0
40
1.7499999999999469
0
LWPOLYLINE
5
505
100
AcDbEntity
8
0
100
AcDbPolyline
90
8
70
1
43
0.0
10
-48.891016723545562
20
-610.68823272882832
10
289.34798327645439
20
-610.68823272882832
42
0.41421356237309503
10
294.34798327645439
20
-605.68823272882832
10
294.34798327645439
20
-601.68823272882821
42
0.41421356237309503
10
289.34798327645439
20
-596.68823272882821
10
-48.891016723545704
20
-596.68823272882821
42
0.41421356237309503
10
-53.891016723545704
20
-601.68823272882821
10
-53.891016723545704
20
-605.68823272882821
42
0.41421356237309503
0
CIRCLE
5
506
100
AcDbEntity
8
0
100
AcDbCircle
10
63.796100229819785
20
-603.68823272882832
30
0
40
1.7499999999999947
0
CIRCLE
5
507
100
AcDbEntity
8
0
100
AcDbCircle
10
176.66085022981846
20
-603.68823272882832
30
0
40
1.7500000000000127
0
CIRCLE
5
508
100
AcDbEntity
8
0
100
AcDbCircle
10
-41.890899770180283
20
-603.68823272882832
30
0
40
1.7499999999999476
0
LWPOLYLINE
5
509
100
AcDbEntity
8
0
100
AcDbPolyline
90
8
70
1
43
0.0
10
289.34798327645439
20
-616.68823272882821
10
-48.891016723545704
20
-616.68823272882821
42
0.41421356237309503
10
-53.891016723545704
20
-621.68823272882821
10
-53.891016723545704
20
-625.68823272882821
42
0.41421356237309503
10
-48.891016723545562
20
-630.68823272882832
10
289.34798327645439
20
-630.68823272882832
42
0.41421356237309503
10
294.34798327645439
20
-625.68823272882832
10
294.34798327645439
20
-621.68823272882821
42
0.41421356237309503
0
LWPOLYLINE
5
510
100
AcDbEntity
8
0
100
AcDbPolyline
90
8
70
1
43
0.0
10
-48.891016723545562
20
-650.68823272882832
10
289.34798327645439
20
-650.68823272882832
42
0.41421356237309503
10
294.34798327645439
20
-645.68823272882832
10
294.34798327645439
20
-641.68823272882832
42
0.41421356237309503
10
289.34798327645439
20
-636.68823272882821
10
-48.891016723545704
20
-636.68823272882821
42
0.41421356237309503
10
-53.891016723545704
20
-641.68823272882832
10
-53.891016723545704
20
-645.6882327288281
42
0.41421356237309503
0
CIRCLE
5
511
100
AcDbEntity
8
0
100
AcDbCircle
10
-41.890899770180283
20
-643.68823272882821
30
0
40
1.7499999999999476
0
CIRCLE
5
512
100
AcDbEntity
8
0
100
AcDbCircle
10
63.796100229819785
20
-643.68823272882821
30
0
40
1.7499999999999947
0
CIRCLE
5
513
100
AcDbEntity
8
0
100
AcDbCircle
10
176.66085022981846
20
-623.68823272882832
30
0
40
1.7500000000000127
0
CIRCLE
5
514
100
AcDbEntity
8
0
100
AcDbCircle
10
282.34785022981839
20
-643.68823272882821
30
0
40
1.7499999999999469
0
CIRCLE
5
515
100
AcDbEntity
8
0
100
AcDbCircle
10
63.796100229819785
20
-623.68823272882832
30
0
40
1.7499999999999947
0
CIRCLE
5
516
100
AcDbEntity
8
0
100
AcDbCircle
10
-41.890899770180283
20
-623.68823272882832
30
0
40
1.7499999999999476
0
CIRCLE
5
517
100
AcDbEntity
8
0
100
AcDbCircle
10
176.66085022981846
20
-643.68823272882821
30
0
40
1.7500000000000127
0
CIRCLE
5
518
100
AcDbEntity
8
0
100
AcDbCircle
10
282.34785022981839
20
-623.68823272882832
30
0
40
1.7499999999999469
0
LWPOLYLINE
5
519
100
AcDbEntity
8
0
100
AcDbPolyline
90
8
70
1
43
0.0
10
289.34798327645439
20
-656.68823272882832
10
-48.891016723545704
20
-656.68823272882832
42
0.41421356237309503
10
-53.891016723545704
20
-661.68823272882832
10
-53.891016723545704
20
-665.68823272882821
42
0.41421356237309503
10
-48.891016723545562
20
-670.68823272882832
10
289.34798327645439
20
-670.68823272882832
42
0.41421356237309503
10
294.34798327645439
20
-665.68823272882832
10
294.34798327645439
20
-661.68823272882832
42
0.41421356237309503
0
LWPOLYLINE
5
520
100
AcDbEntity
8
0
100
AcDbPolyline
90
8
70
1
43
0.0
10
-48.891016723545562
20
-690.68823272882832
10
289.34798327645439
20
-690.68823272882832
42
0.41421356237309503
10
294.34798327645439
20
-685.68823272882832
10
294.34798327645439
20
-681.68823272882832
42
0.41421356237309503
10
289.34798327645439
20
-676.68823272882832
10
-48.891016723545704
20
-676.68823272882832
42
0.41421356237309503
10
-53.891016723545704
20
-681.68823272882832
10
-53.891016723545704
20
-685.68823272882821
42
0.41421356237309503
0
CIRCLE
5
521
100
AcDbEntity
8
0
100
AcDbCircle
10
-41.890899770180283
20
-683.68823272882832
30
0
40
1.7499999999999476
0
CIRCLE
5
522
100
AcDbEntity
8
0
100
AcDbCircle
10
63.796100229819785
20
-683.68823272882832
30
0
40
1.7499999999999947
0
CIRCLE
5
523
100
AcDbEntity
8
0
100
AcDbCircle
10
176.66085022981846
20
-663.68823272882832
30
0
40
1.7500000000000127
0
CIRCLE
5
524
100
AcDbEntity
8
0
100
AcDbCircle
10
282.34785022981839
20
-683.68823272882832
30
0
40
1.7499999999999469
0
CIRCLE
5
525
100
AcDbEntity
8
0
100
AcDbCircle
10
63.796100229819785
20
-663.68823272882832
30
0
40
1.7499999999999947
0
CIRCLE
5
526
100
AcDbEntity
8
0
100
AcDbCircle
10
-41.890899770180283
20
-663.68823272882832
30
0
40
1.7499999999999476
0
CIRCLE
5
527
100
AcDbEntity
8
0
100
AcDbCircle
10
176.66085022981846
20
-683.68823272882832
30
0
40
1.7500000000000127
0
CIRCLE
5
528
100
AcDbEntity
8
0
100
AcDbCircle
10
282.34785022981839
20
-663.68823272882832
30
0
40
1.7499999999999469
0
LWPOLYLINE
5
529
100
AcDbEntity
8
0
100
AcDbPolyline
90
8
70
1
43
0.0
10
659.34798327645444
20
-656.68823272882832
42
-0.41421356237309503
10
664.34798327645444
20
-661.68823272882832
10
664.34798327645444
20
-665.68823272882832
42
-0.41421356237309503
10
659.34798327645444
20
-670.68823272882832
10
321.10898327645441
20
-670.68823272882832
42
-0.41421356237309503
10
316.1089832764543
20
-665.68823272882821
10
316.1089832764543
20
-661.68823272882832
42
-0.41421356237309503
10
321.1089832764543
20
-656.68823272882832
0
LWPOLYLINE
5
530
100
AcDbEntity
8
0
100
AcDbPolyline
90
8
70
1
43
0.0
10
664.34798327645444
20
-685.68823272882832
42
-0.41421356237309503
10
659.34798327645444
20
-690.68823272882832
10
321.10898327645441
20
-690.68823272882832
42
-0.41421356237309503
10
316.1089832764543
20
-685.68823272882821
10
316.1089832764543
20
-681.68823272882832
42
-0.41421356237309503
10
321.1089832764543
20
-676.68823272882832
10
659.34798327645444
20
-676.68823272882832
42
-0.41421356237309503
10
664.34798327645444
20
-681.68823272882832
0
LWPOLYLINE
5
531
100
AcDbEntity
8
0
100
AcDbPolyline
90
8
70
1
43
0.0
10
659.34798327645444
20
-616.68823272882821
42
-0.41421356237309503
10
664.34798327645444
20
-621.68823272882821
10
664.34798327645444
20
-625.68823272882832
42
-0.41421356237309503
10
659.34798327645444
20
-630.68823272882832
10
321.10898327645441
20
-630.68823272882832
42
-0.41421356237309503
10
316.1089832764543
20
-625.68823272882821
10
316.1089832764543
20
-621.68823272882821
42
-0.41421356237309503
10
321.1089832764543
20
-616.68823272882821
0
CIRCLE
5
532
100
AcDbEntity
8
0
100
AcDbCircle
10
652.34785022981839
20
-643.68823272882821
30
0
40
1.7499999999999469
0
CIRCLE
5
533
100
AcDbEntity
8
0
100
AcDbCircle
10
652.34785022981839
20
-623.68823272882832
30
0
40
1.7499999999999469
0
LWPOLYLINE
5
534
100
AcDbEntity
8
0
100
AcDbPolyline
90
8
70
1
43
0.0
10
664.34798327645444
20
-605.68823272882832
10
664.34798327645444
20
-601.68823272882821
42
0.41421356237309503
10
659.34798327645444
20
-596.68823272882821
10
321.1089832764543
20
-596.68823272882821
42
0.41421356237309503
10
316.1089832764543
20
-601.68823272882821
10
316.1089832764543
20
-605.68823272882821
42
0.41421356237309503
10
321.10898327645441
20
-610.68823272882832
10
659.34798327645444
20
-610.68823272882832
42
0.41421356237309503
0
LWPOLYLINE
5
535
100
AcDbEntity
8
0
100
AcDbPolyline
90
8
70
1
43
0.0
10
664.34798327645444
20
-585.68823272882832
10
664.34798327645444
20
-581.68823272882821
42
0.41421356237309503
10
659.34798327645444
20
-576.68823272882821
10
321.1089832764543
20
-576.68823272882821
42
0.41421356237309503
10
316.1089832764543
20
-581.68823272882821
10
316.1089832764543
20
-585.68823272882821
42
0.41421356237309503
10
321.10898327645441
20
-590.68823272882832
10
659.34798327645444
20
-590.68823272882832
42
0.41421356237309503
0
CIRCLE
5
536
100
AcDbEntity
8
0
100
AcDbCircle
10
652.34785022981839
20
-663.68823272882832
30
0
40
1.7499999999999469
0
CIRCLE
5
537
100
AcDbEntity
8
0
100
AcDbCircle
10
546.66085022981849
20
-663.68823272882832
30
0
40
1.7500000000000127
0
CIRCLE
5
538
100
AcDbEntity
8
0
100
AcDbCircle
10
652.34785022981839
20
-683.68823272882832
30
0
40
1.7499999999999469
0
CIRCLE
5
539
100
AcDbEntity
8
0
100
AcDbCircle
10
652.34785022981839
20
-603.68823272882832
30
0
40
1.7499999999999469
0
CIRCLE
5
540
100
AcDbEntity
8
0
100
AcDbCircle
10
546.66085022981849
20
-603.68823272882832
30
0
40
1.7500000000000127
0
CIRCLE
5
541
100
AcDbEntity
8
0
100
AcDbCircle
10
546.66085022981849
20
-683.68823272882832
30
0
40
1.7500000000000127
0
LWPOLYLINE
5
542
100
AcDbEntity
8
0
100
AcDbPolyline
90
8
70
1
43
0.0
10
664.34798327645444
20
-645.68823272882832
10
664.34798327645444
20
-641.68823272882832
42
0.41421356237309503
10
659.34798327645444
20
-636.68823272882821
10
321.1089832764543
20
-636.68823272882821
42
0.41421356237309503
10
316.1089832764543
20
-641.68823272882832
10
316.1089832764543
20
-645.6882327288281
42
0.41421356237309503
10
321.10898327645441
20
-650.68823272882832
10
659.34798327645444
20
-650.68823272882832
42
0.41421356237309503
0
CIRCLE
5
543
100
AcDbEntity
8
0
100
AcDbCircle
10
433.79610022981979
20
-643.68823272882821
30
0
40
1.7499999999999947
0
CIRCLE
5
544
100
AcDbEntity
8
0
100
AcDbCircle
10
652.34785022981839
20
-583.68823272882832
30
0
40
1.7499999999999469
0
CIRCLE
5
545
100
AcDbEntity
8
0
100
AcDbCircle
10
546.66085022981849
20
-583.68823272882832
30
0
40
1.7500000000000127
0
CIRCLE
5
546
100
AcDbEntity
8
0
100
AcDbCircle
10
546.66085022981849
20
-643.68823272882821
30
0
40
1.7500000000000127
0
CIRCLE
5
547
100
AcDbEntity
8
0
100
AcDbCircle
10
433.79610022981979
20
-583.68823272882832
30
0
40
1.7499999999999947
0
CIRCLE
5
548
100
AcDbEntity
8
0
100
AcDbCircle
10
546.66085022981849
20
-623.68823272882832
30
0
40
1.7500000000000127
0
CIRCLE
5
549
100
AcDbEntity
8
0
100
AcDbCircle
10
328.10910022981972
20
-603.68823272882832
30
0
40
1.7499999999999476
0
CIRCLE
5
550
100
AcDbEntity
8
0
100
AcDbCircle
10
433.79610022981979
20
-603.68823272882832
30
0
40
1.7499999999999947
0
CIRCLE
5
551
100
AcDbEntity
8
0
100
AcDbCircle
10
433.79610022981979
20
-663.68823272882832
30
0
40
1.7499999999999947
0
CIRCLE
5
552
100
AcDbEntity
8
0
100
AcDbCircle
10
328.10910022981972
20
-583.68823272882832
30
0
40
1.7499999999999476
0
CIRCLE
5
553
100
AcDbEntity
8
0
100
AcDbCircle
10
433.79610022981979
20
-683.68823272882832
30
0
40
1.7499999999999947
0
CIRCLE
5
554
100
AcDbEntity
8
0
100
AcDbCircle
10
328.10910022981972
20
-683.68823272882832
30
0
40
1.7499999999999476
0
CIRCLE
5
555
100
AcDbEntity
8
0
100
AcDbCircle
10
328.10910022981972
20
-663.68823272882832
30
0
40
1.7499999999999476
0
CIRCLE
5
556
100
AcDbEntity
8
0
100
AcDbCircle
10
328.10910022981972
20
-623.68823272882832
30
0
40
1.7499999999999476
0
CIRCLE
5
557
100
AcDbEntity
8
0
100
AcDbCircle
10
328.10910022981972
20
-643.68823272882821
30
0
40
1.7499999999999476
0
CIRCLE
5
558
100
AcDbEntity
8
0
100
AcDbCircle
10
433.79610022981979
20
-623.68823272882832
30
0
40
1.7499999999999947
0
ENDSEC
0
SECTION
2
OBJECTS
0
DICTIONARY
5
C
100
AcDbDictionary
3
ACAD_GROUP
350
D
3
ACAD_MLINESTYLE
350
17
0
DICTIONARY
5
D
100
AcDbDictionary
0
DICTIONARY
5
1A
330
C
100
AcDbDictionary
0
DICTIONARY
5
17
100
AcDbDictionary
0
ENDSEC
0
EOF
